<svg width="22" height="15" viewBox="0 0 22 15" fill="none" xmlns="http://www.w3.org/2000/svg">
<path d="M22 3.11258C22 6.02649 22 8.97351 22 11.8874C22 11.9205 21.9656 11.9536 21.9656 11.9868C21.6906 13.7417 20.1781 15 18.3219 15C13.4406 15 8.55937 15 3.67812 15C1.65 15 0 13.4106 0 11.457C0 8.80795 0 6.15894 0 3.47682C0 1.5894 1.65 0 3.64375 0C8.55938 0 13.4406 0 18.3563 0C19.9719 0 21.45 1.0596 21.8625 2.58278C21.8969 2.74834 21.9312 2.94702 22 3.11258ZM0.928125 5.29801C0.928125 5.36424 0.928125 5.39735 0.928125 5.43046C0.928125 7.41722 0.89375 9.40397 0.928125 11.4238C0.9625 13.0132 2.13125 14.1391 3.81563 14.1391C8.62813 14.1391 13.4406 14.1391 18.2531 14.1391C18.4937 14.1391 18.7344 14.106 18.9406 14.0728C20.2469 13.7748 21.1063 12.7483 21.1063 11.3576C21.1063 9.40397 21.1063 7.45033 21.1063 5.49669C21.1063 5.43046 21.1063 5.36424 21.1063 5.29801C14.3344 5.29801 7.63125 5.29801 0.928125 5.29801ZM0.928125 3.50993C7.63125 3.50993 14.3344 3.50993 21.0719 3.50993C21.0719 3.4106 21.0719 3.34437 21.0719 3.27815C20.9344 1.88742 19.7656 0.860927 18.2875 0.860927C13.4406 0.860927 8.59375 0.860927 3.74687 0.860927C3.575 0.860927 3.40313 0.860927 3.19688 0.89404C1.925 1.09272 0.89375 2.28477 0.928125 3.50993Z" fill="#ffffff"/>
<path d="M10.0719 9.70197C10.0719 9.99998 10.0719 10.298 10.0719 10.5629C7.63125 10.5629 5.19062 10.5629 2.75 10.5629C2.75 10.2649 2.75 9.99998 2.75 9.70197C5.19062 9.70197 7.63125 9.70197 10.0719 9.70197Z" fill="#ffffff"/>
<path d="M2.75 8.80795C2.75 8.50993 2.75 8.24503 2.75 7.94702C3.95312 7.94702 5.15625 7.94702 6.39375 7.94702C6.39375 8.21192 6.39375 8.50993 6.39375 8.80795C5.19063 8.80795 3.9875 8.80795 2.75 8.80795Z" fill="#ffffff"/>
</svg>
