<svg xmlns="http://www.w3.org/2000/svg" xmlns:xlink="http://www.w3.org/1999/xlink" width="40" height="40" viewBox="0 0 40 40">
  <defs>
    <clipPath id="clip-path">
      <rect id="Rectangle_33" data-name="Rectangle 33" width="40" height="40" transform="translate(0 -0.444)" fill="#851929"/>
    </clipPath>
  </defs>
  <g id="Ic_computer" transform="translate(0 0.444)" clip-path="url(#clip-path)">
    <g id="_005-networking" data-name="005-networking" transform="translate(0.145 -0.102)">
      <g id="Group_18" data-name="Group 18">
        <path id="Path_15" data-name="Path 15" d="M34.3,28.178a4.556,4.556,0,1,0-6.777,0,7.967,7.967,0,0,0-1.381.838l-5.559-5.5V18.3h5.7a1.139,1.139,0,0,0,1.139-1.139V14.884A8.065,8.065,0,0,0,22.829,7.6a4.556,4.556,0,1,0-6.777,0,8.065,8.065,0,0,0-4.585,7.286v2.278A1.139,1.139,0,0,0,12.606,18.3h5.7v5.22l-5.559,5.5a7.966,7.966,0,0,0-1.381-.838,4.556,4.556,0,1,0-6.777,0A8.065,8.065,0,0,0,0,35.464v2.278a1.139,1.139,0,0,0,1.139,1.139H14.808a1.139,1.139,0,0,0,1.139-1.139V35.464a8.058,8.058,0,0,0-1.6-4.831L19.441,25.6l5.093,5.034a8.058,8.058,0,0,0-1.6,4.831v2.278a1.139,1.139,0,0,0,1.139,1.139H37.742a1.139,1.139,0,0,0,1.139-1.139V35.464A8.065,8.065,0,0,0,34.3,28.178ZM7.974,22.858A2.278,2.278,0,1,1,5.7,25.136,2.281,2.281,0,0,1,7.974,22.858Zm5.7,13.745H2.278V35.464a5.74,5.74,0,0,1,5.7-5.771,5.74,5.74,0,0,1,5.7,5.771ZM19.441,2.278a2.278,2.278,0,1,1-2.278,2.278A2.281,2.281,0,0,1,19.441,2.278Zm-5.7,13.745V14.884a5.7,5.7,0,1,1,11.391,0v1.139Zm17.162,6.835a2.278,2.278,0,1,1-2.278,2.278A2.281,2.281,0,0,1,30.908,22.858ZM36.6,36.6H25.212V35.464a5.7,5.7,0,1,1,11.391,0Z" fill="#fff"/>
      </g>
    </g>
  </g>
</svg>
