<svg id="Capa_1" data-name="Capa 1" xmlns="http://www.w3.org/2000/svg" viewBox="0 0 462.58 512"><defs><style>.cls-1{fill:#fff;}</style></defs><title>Ic_client</title><path class="cls-1" d="M315.65,218.26a146.16,146.16,0,0,0-48.94,8.38,157.9,157.9,0,0,0-50.27-32.85,106.11,106.11,0,0,0,46.41-87.74c0-58.47-47.45-106-105.76-106S51.32,47.58,51.32,106.05a106.11,106.11,0,0,0,46.35,87.7A158.05,158.05,0,0,0,.09,326.6,26.31,26.31,0,0,0,26.3,355.13H169.06q-.33,5-.33,10c0,81,65.91,146.87,146.92,146.87s146.93-65.89,146.93-146.87S396.67,218.26,315.65,218.26ZM81.32,106.05c0-41.94,34-76.06,75.77-76.06s75.76,34.12,75.76,76.06-34,76.07-75.76,76.07S81.32,148,81.32,106.05ZM30.39,325.14a127.42,127.42,0,0,1,207.14-84.35,147.45,147.45,0,0,0-63.27,84.35ZM315.65,482A116.89,116.89,0,1,1,432.58,365.13,117,117,0,0,1,315.65,482Z"/><path class="cls-1" d="M296.79,335.13h57.53a15,15,0,1,0,0-30H330.88V292a15,15,0,0,0-30,0v13.11h-4.09A36.83,36.83,0,0,0,260,341.73v.39a36.83,36.83,0,0,0,36.8,36.59h35.73a6.8,6.8,0,0,1,0,13.59H275a15,15,0,1,0,0,30h25.89v13.19a15,15,0,0,0,30,0V422.29h1.64a36.84,36.84,0,0,0,36.8-36.59v-.39a36.84,36.84,0,0,0-36.8-36.59H296.79a6.8,6.8,0,1,1,0-13.59Z"/></svg>