<?xml version="1.0" encoding="utf-8"?>
<!-- Generator: Adobe Illustrator 23.0.0, SVG Export Plug-In . SVG Version: 6.00 Build 0)  -->
<svg version="1.1" id="Layer_1" xmlns="http://www.w3.org/2000/svg" xmlns:xlink="http://www.w3.org/1999/xlink" x="0px" y="0px"
	 viewBox="0 0 512 512" style="enable-background:new 0 0 512 512;" xml:space="preserve">
<style type="text/css">
	.st0{fill:#FFFFFF;}
</style>
<path class="st0" d="M437,0H75C33.6,0,0,33.6,0,75v362c0,41.4,33.6,75,75,75h362c41.4,0,75-33.6,75-75V75C512,33.6,478.4,0,437,0z
	 M437,482H271V270.5h211V437C482,461.8,461.8,482,437,482z M75,30h166v210.5H30V75C30,50.2,50.2,30,75,30z M482,240.5H271V30h166
	c24.8,0,45,20.2,45,45V240.5z M30,270.5h211V482H75c-24.8,0-45-20.2-45-45V270.5z"/>
<path class="st0" d="M423.4,118.4h-92.6c-8.3,0-15,6.7-15,15s6.7,15,15,15h92.6c8.3,0,15-6.7,15-15S431.6,118.4,423.4,118.4z"/>
<path class="st0" d="M423.4,368.2h-92.6c-8.3,0-15,6.7-15,15s6.7,15,15,15h92.6c8.3,0,15-6.7,15-15S431.6,368.2,423.4,368.2z"/>
<path class="st0" d="M89.5,148.4h31.3v31.8c0,8.3,6.7,15,15,15c8.3,0,15-6.7,15-15v-31.8h31.3c8.3,0,15-6.7,15-15s-6.7-15-15-15
	h-31.3V86.7c0-8.3-6.7-15-15-15c-8.3,0-15,6.7-15,15v31.8H89.5c-8.3,0-15,6.7-15,15S81.2,148.4,89.5,148.4z"/>
<path class="st0" d="M92.5,426.9c2.9,2.9,6.7,4.3,10.6,4.3c3.9,0,7.7-1.5,10.7-4.4l22.1-22.3l22.1,22.3c2.9,3,6.8,4.4,10.7,4.4
	c3.8,0,7.6-1.4,10.6-4.3c5.9-5.8,5.9-15.3,0.1-21.2l-22.3-22.5l22.3-22.5c5.8-5.9,5.8-15.4-0.1-21.2c-5.9-5.8-15.4-5.8-21.2,0.1
	l-22.1,22.3l-22.1-22.3c-5.8-5.9-15.3-5.9-21.2-0.1c-5.9,5.8-5.9,15.3-0.1,21.2l22.3,22.5l-22.3,22.5
	C86.5,411.6,86.6,421.1,92.5,426.9z"/>
<path class="st0" d="M391,337.6c0-7.8-6.3-14.2-14-14.2s-14,6.3-14,14.2c0,7.8,6.3,14.2,14,14.2S391,345.5,391,337.6z"/>
<path class="st0" d="M391,428.6c0-7.8-6.3-14.2-14-14.2s-14,6.3-14,14.2c0,7.8,6.3,14.2,14,14.2S391,436.4,391,428.6z"/>
</svg>
