<svg id="Capa_1" data-name="Capa 1" xmlns="http://www.w3.org/2000/svg" viewBox="0 0 512 512"><defs><style>.cls-1{fill:#fff;}</style></defs><title>Ic_Employee</title><path class="cls-1" d="M340.36,218.26a146.16,146.16,0,0,0-48.94,8.38,157.9,157.9,0,0,0-50.27-32.85,106.11,106.11,0,0,0,46.41-87.74c0-58.47-47.44-106-105.76-106S76,47.58,76,106.05a106.11,106.11,0,0,0,46.35,87.7A158.05,158.05,0,0,0,24.8,326.6,26.31,26.31,0,0,0,51,355.13H193.77q-.33,5-.33,10c0,81,65.91,146.87,146.92,146.87s146.93-65.89,146.93-146.87S421.38,218.26,340.36,218.26ZM106,106.05C106,64.11,140,30,181.8,30s75.76,34.12,75.76,76.06-34,76.07-75.76,76.07S106,148,106,106.05ZM55.1,325.14a127.42,127.42,0,0,1,207.14-84.35A147.45,147.45,0,0,0,199,325.14ZM340.36,482A116.89,116.89,0,1,1,457.29,365.13,117,117,0,0,1,340.36,482Z"/><path class="cls-1" d="M417.91,349.33,404.36,346a67,67,0,0,0-6.66-16l7.05-11.74a4.84,4.84,0,0,0-.73-5.91l-13.7-13.69a4.83,4.83,0,0,0-5.91-.74L372.68,305a67.3,67.3,0,0,0-16-6.66l-3.33-13.54a4.82,4.82,0,0,0-4.7-3.69H329.3a4.83,4.83,0,0,0-4.7,3.69l-3.32,13.54a66.55,66.55,0,0,0-16,6.66l-11.75-7.05a4.82,4.82,0,0,0-5.9.74L274,312.37a4.81,4.81,0,0,0-.73,5.91l7,11.74a67,67,0,0,0-6.66,16l-13.55,3.32a4.85,4.85,0,0,0-3.69,4.7v19.36a4.84,4.84,0,0,0,3.69,4.7l13.55,3.32a67,67,0,0,0,6.66,16l-7,11.73a4.83,4.83,0,0,0,.73,5.92l13.68,13.68a4.82,4.82,0,0,0,5.91.73l11.75-7a66.92,66.92,0,0,0,16,6.65l3.32,13.55a4.85,4.85,0,0,0,4.7,3.69h19.36a4.83,4.83,0,0,0,4.7-3.69l3.33-13.55a67.2,67.2,0,0,0,16-6.65l11.74,7a4.81,4.81,0,0,0,5.91-.73L404,415.06a4.86,4.86,0,0,0,.73-5.92l-7.05-11.73a67,67,0,0,0,6.66-16l13.55-3.32a4.84,4.84,0,0,0,3.69-4.7V354A4.85,4.85,0,0,0,417.91,349.33Zm-40.73,24.72a38.76,38.76,0,0,1-3.86,9.28l-5.39,9.34L358.6,398a39.48,39.48,0,0,1-9.29,3.88L339,404.72l-10.34-2.8a39.73,39.73,0,0,1-9.3-3.88L310,392.67l-5.37-9.33a39,39,0,0,1-3.87-9.29L298,363.71l2.81-10.34a39,39,0,0,1,3.87-9.29l5.37-9.32,9.33-5.38a39.56,39.56,0,0,1,9.29-3.87L339,322.7l10.33,2.81a39.11,39.11,0,0,1,9.3,3.87l9.32,5.37,5.39,9.34a38.67,38.67,0,0,1,3.86,9.29L380,363.71Z"/></svg>