<?xml version="1.0"?>
<svg xmlns="http://www.w3.org/2000/svg" xmlns:xlink="http://www.w3.org/1999/xlink" version="1.1" id="Capa_1" x="0px" y="0px" viewBox="0 0 468.038 468.038" style="enable-background:new 0 0 468.038 468.038;" xml:space="preserve" width="512px" height="512px" class=""><g><g>
	<g>
		<path d="M139.037,293.019h-63c-5.523,0-10,4.477-10,10v59c0,5.523,4.477,10,10,10h63c5.523,0,10-4.477,10-10v-59    C149.037,297.496,144.559,293.019,139.037,293.019z M129.037,352.019h-43v-39h43V352.019z" data-original="#000000" class="active-path" data-old_color="#000000" fill="#FFFFFF"/>
	</g>
</g><g>
	<g>
		<path d="M391.037,293.019h-63c-5.523,0-10,4.477-10,10v59c0,5.523,4.477,10,10,10h63c5.523,0,10-4.477,10-10v-59    C401.037,297.496,396.559,293.019,391.037,293.019z M381.037,352.019h-43v-39h43V352.019z" data-original="#000000" class="active-path" data-old_color="#000000" fill="#FFFFFF"/>
	</g>
</g><g>
	<g>
		<path d="M467.985,153.995c-0.011-0.085-0.011-0.168-0.023-0.252c-0.049-0.348-0.115-0.693-0.2-1.034    c-0.015-0.059-0.025-0.119-0.042-0.178c-0.228-0.821-0.562-1.609-0.992-2.345c-0.007-0.012-0.01-0.025-0.017-0.037l-43.06-73.148    c-5.389-9.178-15.191-14.863-25.834-14.982h-38.78V13.505c-0.13-5.688-4.675-10.288-10.361-10.486H119.398    c-5.686,0.198-10.231,4.798-10.361,10.486v48.514h-30.88c-9.837,0.096-19.013,4.97-24.6,13.068L1.801,149.354    c-0.131,0.186-0.253,0.439-0.372,0.635c-0.032,0.054-0.066,0.136-0.1,0.191c-0.1,0.176-0.2,0.369-0.29,0.552    c-0.033,0.067-0.065,0.142-0.1,0.209c-0.087,0.184-0.172,0.373-0.249,0.563c-0.014,0.037-0.026,0.076-0.04,0.112    c-0.134,0.35-0.249,0.707-0.343,1.069c-0.031,0.117-0.064,0.234-0.09,0.352c-0.033,0.145-0.059,0.291-0.085,0.438    c-0.029,0.164-0.054,0.328-0.075,0.494c-0.016,0.121-0.032,0.242-0.042,0.365c-0.026,0.283-0.011,0.567-0.013,0.852    c0,0.012,0.029,0.024,0.029,0.037v42c0.006,16.463,13.357,29.803,29.82,29.796c0.041,0,0.083,0,0.124,0h3.061v227.514    c0,5.523,4.178,10.486,9.7,10.486h382.044c5.665-0.207,10.175-4.817,10.256-10.486V227.019h3.061    c16.462,0.072,29.866-13.214,29.939-29.677c0-0.041,0-0.082,0-0.123v-42C468.044,154.81,468.026,154.402,467.985,153.995z     M129.037,23.019h210v47.882c0,0.52-0.139,1.05-0.139,1.594s0.139,1.074,0.139,1.594v34.93h-210V23.019z M69.957,86.432    c1.856-2.714,4.913-4.359,8.2-4.413h30.88v37.486c0,5.523,4.838,9.514,10.361,9.514h229.278c5.523,0,10.361-3.991,10.361-9.514    V82.019h38.78c3.556,0.063,6.82,1.978,8.61,5.051l34.145,57.949H29.158L69.957,86.432z M280.037,445.019h-92v-136h92V445.019z     M415.037,445.019h-115V298.608c0-5.523-4.835-9.589-10.358-9.589H177.837c-5.238-0.172-9.623,3.935-9.795,9.172    c-0.005,0.139-0.006,0.278-0.005,0.417v146.411h-115v-218h362V445.019z M448.037,197.219c0.008,5.405-4.368,9.793-9.773,9.801    c-0.055,0-0.111,0-0.166-0.001H29.976c-5.405,0.084-9.854-4.229-9.938-9.634c-0.001-0.055-0.001-0.111-0.001-0.166v-32.2h428    V197.219z" data-original="#000000" class="active-path" data-old_color="#000000" fill="#FFFFFF"/>
	</g>
</g></g> </svg>
