<?xml version="1.0" encoding="utf-8"?>
<!-- Generator: Adobe Illustrator 23.0.0, SVG Export Plug-In . SVG Version: 6.00 Build 0)  -->
<svg version="1.1" id="Layer_1" xmlns="http://www.w3.org/2000/svg" xmlns:xlink="http://www.w3.org/1999/xlink" x="0px" y="0px"
	 viewBox="0 0 512 512" style="enable-background:new 0 0 512 512;" xml:space="preserve">
<style type="text/css">
	.st0{fill:#FFFFFF;}
</style>
<path class="st0" d="M436,31H331V15c0-8.3-6.7-15-15-15H196c-8.3,0-15,6.7-15,15v16H76c-8.3,0-15,6.7-15,15v451c0,8.3,6.7,15,15,15
	h360c8.3,0,15-6.7,15-15V46C451,37.7,444.3,31,436,31z M211,30h90v31h-90V30z M421,482H91V61h90v15c0,8.3,6.7,15,15,15h120
	c8.3,0,15-6.7,15-15V61h90V482z"/>
<path class="st0" d="M136,121c-8.3,0-15,6.7-15,15s6.7,15,15,15h240c8.3,0,15-6.7,15-15s-6.7-15-15-15H136z"/>
<path class="st0" d="M376,181H136c-8.3,0-15,6.7-15,15s6.7,15,15,15h240c8.3,0,15-6.7,15-15S384.3,181,376,181z"/>
<path class="st0" d="M376,241H256c-8.3,0-15,6.7-15,15s6.7,15,15,15h120c8.3,0,15-6.7,15-15S384.3,241,376,241z"/>
<path class="st0" d="M376,301H256c-8.3,0-15,6.7-15,15s6.7,15,15,15h120c8.3,0,15-6.7,15-15S384.3,301,376,301z"/>
<path class="st0" d="M376,361H256c-8.3,0-15,6.7-15,15s6.7,15,15,15h120c8.3,0,15-6.7,15-15S384.3,361,376,361z"/>
<path class="st0" d="M376,421H256c-8.3,0-15,6.7-15,15s6.7,15,15,15h120c8.3,0,15-6.7,15-15S384.3,421,376,421z"/>
<path class="st0" d="M166,331c-8.3,0-15-6.7-15-15s6.7-15,15-15c5.3,0,10.3,2.9,13,7.5c4.1,7.2,13.3,9.6,20.5,5.5s9.6-13.3,5.5-20.5
	c-5.4-9.4-14-16.4-24-19.9v-17c0-8.3-6.7-15-15-15s-15,6.7-15,15v17c-17.5,6.2-30,22.9-30,42.4c0,24.8,20.2,45,45,45
	c8.3,0,15,6.7,15,15s-6.7,15-15,15c-5.3,0-10.3-2.9-13-7.5c-4.1-7.2-13.3-9.6-20.5-5.5s-9.6,13.3-5.5,20.5c5.4,9.4,14,16.4,24,19.9
	v16.4c0,8.3,6.7,15,15,15s15-6.7,15-15v-16.4c17.5-6.2,30-22.9,30-42.4C211,351.2,190.8,331,166,331z"/>
</svg>
