<?xml version="1.0" encoding="utf-8"?>
<!-- Generator: Adobe Illustrator 23.0.0, SVG Export Plug-In . SVG Version: 6.00 Build 0)  -->
<svg version="1.1" id="Layer_1" xmlns="http://www.w3.org/2000/svg" xmlns:xlink="http://www.w3.org/1999/xlink" x="0px" y="0px"
	 viewBox="0 0 512 512" style="enable-background:new 0 0 512 512;" xml:space="preserve">
<style type="text/css">
	.st0{fill:#FFFFFF;}
</style>
<path class="st0" d="M497,271h-15v-46c0-19.6-12.5-36.2-30-42.4V135c0-24.8-20.2-45-45-45h-45V15c0-8.3-6.7-15-15-15H106
	c-8.3,0-15,6.7-15,15v75H60c-33.1,0-60,26.9-60,60v286c0,20,7.8,39,21.8,53.4C36.1,504,55,512,75,512h362c24.8,0,45-20.2,45-45v-46
	h15c8.3,0,15-6.7,15-15V286C512,277.7,505.3,271,497,271z M407,120c8.3,0,15,6.7,15,15v45h-60v-60H407z M332,180h-91V30h91V180z
	 M181,180V30h30v150H181z M121,30h30v150h-30V30z M60,120h31v60H60c-16.5,0-30-13.5-30-30S43.5,120,60,120z M452,467
	c0,8.3-6.7,15-15,15H75c-24.4,0-45-21.1-45-46V201.9c8.8,5.1,19.1,8.1,30,8.1h377c8.3,0,15,6.7,15,15v46h-45c-41.4,0-75,33.6-75,75
	s33.6,75,75,75h45V467z M482,391h-75c-24.8,0-45-20.2-45-45s20.2-45,45-45h75V391z"/>
<path class="st0" d="M422,346c0,8.3-6.7,15-15,15s-15-6.7-15-15s6.7-15,15-15S422,337.7,422,346z"/>
</svg>
