<svg id="Layer_1" data-name="Layer 1" xmlns="http://www.w3.org/2000/svg" viewBox="0 0 719.36 172.15"><defs><style>.cls-1{fill:#fff;}</style></defs><title>Full-trans</title><g id="Layer_1-2" data-name="Layer 1-2"><polygon class="cls-1" points="294.68 123.65 254.38 123.65 263.48 81.35 297.28 81.35 300.38 66.55 266.58 66.55 274.88 28.45 315.18 28.45 318.38 13.45 235.18 13.45 208.48 138.85 291.68 138.85 294.68 123.65"/><polygon class="cls-1" points="357.08 67.15 304.38 123.45 301.38 138.85 389.48 138.85 391.88 125.65 348.18 125.65 399.58 68.15 402.78 53.95 319.58 53.95 316.98 67.15 357.08 67.15"/><path class="cls-1" d="M481.78,54l-8.9,12.8h-1.2a20.36,20.36,0,0,0-4.4-7.7,18.66,18.66,0,0,0-6.3-4.5,30.91,30.91,0,0,0-7.3-2.2,39.94,39.94,0,0,0-6.9-.6c-6.9,0-12.7,1.3-17.5,3.8a39.93,39.93,0,0,0-12.1,9.5,47.13,47.13,0,0,0-7.7,12.8,80.05,80.05,0,0,0-4.3,13.7,99.51,99.51,0,0,0-1.9,12c-.3,3.6-.4,6.2-.4,7.9a41.29,41.29,0,0,0,1.4,11,23.65,23.65,0,0,0,4.3,8.7,20,20,0,0,0,7.8,5.7,29.4,29.4,0,0,0,11.8,2.1,34.44,34.44,0,0,0,11-1.5,31.66,31.66,0,0,0,8.4-3.8,28.85,28.85,0,0,0,5.8-4.7,37.11,37.11,0,0,0,3.5-4.3h1.4l-2.4,12.8a41.36,41.36,0,0,1-2.7,9.7,17.27,17.27,0,0,1-4.3,6.3,16.6,16.6,0,0,1-6.7,3.5,37.12,37.12,0,0,1-8.2,1.1H207v14.1H434.4c10.7,0,19.7-1.1,27.2-3.2a55.6,55.6,0,0,0,18.6-8.7,42.6,42.6,0,0,0,11.6-13,57.3,57.3,0,0,0,5.9-16.5l16.2-76.9Zm-20.7,58.3a23.42,23.42,0,0,1-1.9,2.2,19.23,19.23,0,0,1-3,2.7,22.21,22.21,0,0,1-3.6,2.3,8.69,8.69,0,0,1-3.9,1,4.51,4.51,0,0,1-4.6-2.7,15,15,0,0,1-1.3-6.6,80.57,80.57,0,0,1,.9-9.8,85.25,85.25,0,0,1,2.9-13.3,51.24,51.24,0,0,1,5.1-11.8c2.1-3.3,4.7-5,7.9-5a6.8,6.8,0,0,1,5,2.2,49.36,49.36,0,0,1,3.6,4.3Z"/><path class="cls-1" d="M571.68,16.35a22.19,22.19,0,0,0-13-3.8,29.87,29.87,0,0,0-8.4,1.2,20.41,20.41,0,0,0-7.1,3.5,16.51,16.51,0,0,0-4.8,5.7,17.6,17.6,0,0,0-1.8,7.8c0,5.4,1.8,9.3,5.3,11.8a22.83,22.83,0,0,0,13.2,3.8,27.83,27.83,0,0,0,8.1-1.2,21.08,21.08,0,0,0,7-3.6,19,19,0,0,0,4.9-5.7A15.38,15.38,0,0,0,577,28C577,22.75,575.28,18.85,571.68,16.35Z"/><polygon class="cls-1" points="513.38 138.85 553.48 138.85 571.88 53.95 531.38 53.95 513.38 138.85"/><path class="cls-1" d="M644.38,28.25a12.92,12.92,0,0,1,3.8-4.6,13.42,13.42,0,0,1,5-2.3,33.78,33.78,0,0,1,5.5-.6h59.9v-18h-67.5A73,73,0,0,0,634.38,5a42.71,42.71,0,0,0-15.5,7.4,47.43,47.43,0,0,0-11.8,13.4,65.47,65.47,0,0,0-7.5,20l-1.8,8.1h-15.2l-3,13.3H595l-15.2,71.7h40.3l15.2-71.7H660l-8.3,39.3a68.1,68.1,0,0,0-1.3,7.9c-.2,2.4-.3,4.3-.3,5.9,0,4.5.8,8,2.3,10.7a15.72,15.72,0,0,0,6,6,26.33,26.33,0,0,0,8.6,2.8,61.72,61.72,0,0,0,9.7.7c1.8,0,4,0,6.4-.1s4.8-.2,7.1-.4,4.4-.4,6.3-.5a31.11,31.11,0,0,0,4.3-.6l3-13.6c-5.3,0-8.9-.3-10.8-1s-2.9-2.3-2.9-4.9a50.8,50.8,0,0,1,.6-5.5c.4-2.4.9-5.1,1.6-8.1l8.1-38.5H716L718.6,54H703.1l5.7-26.5H688.4c-3.3,4.2-6.4,8-9.2,11.3a53.21,53.21,0,0,1-8.8,8.3,33.15,33.15,0,0,1-10.1,5.1,44,44,0,0,1-13,1.8H638l3.8-17.8A36.39,36.39,0,0,1,644.38,28.25Z"/></g><path class="cls-1" d="M134.2,2.55H32.78A32.78,32.78,0,0,0,0,35.33V138.48a32.78,32.78,0,0,0,32.78,32.78H134.2A32.78,32.78,0,0,0,167,138.48V35.33A32.78,32.78,0,0,0,134.2,2.55Zm-7,132a9.36,9.36,0,0,1-9.3,9.4H49.06a9.34,9.34,0,0,1-9.3-9.4V39.16a9.36,9.36,0,0,1,9.3-9.4h66.79a9.36,9.36,0,0,1,9.3,9.4v6.16a9.34,9.34,0,0,1-9.3,9.34H69.78a3.06,3.06,0,0,0-3,3.07V73.22a3,3,0,0,0,3,3.07H84.37a3.11,3.11,0,0,1,2.23,1,3.07,3.07,0,0,1-.23,4.33l-18.59,17a3.12,3.12,0,0,0-1,2.27v15.15a3,3,0,0,0,3,3.07h48.14a9.36,9.36,0,0,1,9.3,9.37ZM115.91,82.92V96.53a3,3,0,0,1-3,3H97.36a3,3,0,0,1-2.31-1,3.08,3.08,0,0,1,.31-4.34l15.55-13.54a3,3,0,0,1,2.1-.76A3,3,0,0,1,115.91,82.92Z"/></svg>