<svg xmlns="http://www.w3.org/2000/svg" xmlns:xlink="http://www.w3.org/1999/xlink" width="40" height="40" viewBox="0 0 40 40">
  <defs>
    <clipPath id="clip-path">
      <rect id="Rectangle_31" data-name="Rectangle 31" width="40" height="40" transform="translate(0 -0.272)" fill="#851929"/>
    </clipPath>
  </defs>
  <g id="Ic_topup" transform="translate(0 0.272)" clip-path="url(#clip-path)">
    <g id="Ic_topup-2" data-name="Ic_topup" transform="translate(10.01 -0.06)">
      <g id="Group_34" data-name="Group 34" transform="translate(0 0)">
        <g id="Group_33" data-name="Group 33">
          <path id="Path_25" data-name="Path 25" d="M139.545,20.369V11.18h3.509a1.187,1.187,0,0,0,.842-2.025L135.14.35a1.188,1.188,0,0,0-1.684,0L124.7,9.155a1.187,1.187,0,0,0,.842,2.025h3.509v9.189a10,10,0,1,0,10.494,0ZM128.4,8.805l5.9-5.934,5.9,5.934h-1.841a1.187,1.187,0,0,0-1.187,1.187V19.3a10.008,10.008,0,0,0-5.744,0V9.993a1.188,1.188,0,0,0-1.188-1.187H128.4Zm5.9,27.7a7.627,7.627,0,1,1,7.627-7.627A7.635,7.635,0,0,1,134.3,36.506Z" transform="translate(-124.296 0)" fill="#fff"/>
        </g>
      </g>
      <g id="Group_36" data-name="Group 36" transform="translate(7.138 22.898)">
        <g id="Group_35" data-name="Group 35">
          <path id="Path_26" data-name="Path 26" d="M221.156,306.324a.488.488,0,0,1,0-.977h1.676a1.187,1.187,0,1,0,0-2.375h-.488v-.255a1.188,1.188,0,0,0-2.375,0v.514a2.863,2.863,0,0,0,1.187,5.468.488.488,0,1,1,0,.977H219.48a1.187,1.187,0,1,0,0,2.375h.488v.255a1.188,1.188,0,0,0,2.375,0v-.514a2.863,2.863,0,0,0-1.188-5.468Z" transform="translate(-218.293 -301.53)" fill="#fff"/>
        </g>
      </g>
    </g>
  </g>
</svg>
