<?xml version="1.0" encoding="iso-8859-1"?>
<!-- Generator: Adobe Illustrator 19.0.0, SVG Export Plug-In . SVG Version: 6.00 Build 0)  -->
<svg xmlns="http://www.w3.org/2000/svg" xmlns:xlink="http://www.w3.org/1999/xlink" version="1.1" id="Capa_1" x="0px" y="0px" viewBox="0 0 384 384" style="enable-background:new 0 0 384 384;" xml:space="preserve">
<circle style="fill:#EA8953;" cx="192" cy="192" r="192"/>
<path style="opacity:0.1;enable-background:new    ;" d="M272.64,121.72L255,127.6c-1.686-1.648-3.457-3.204-5.265-4.716  l-38.663-38.663c-0.293-0.336-0.578-0.668-0.935-0.934l-0.094-0.094l-0.012,0.033C208.994,82.48,207.757,82,206.4,82h-28.8  c-3,0-5.56,2.12-6.16,5.04l-3.72,18.2c-14.8,4.12-28.04,11.92-38.72,22.36l-17.64-5.88c-2.84-0.96-5.92,0.24-7.44,2.8l-14.36,24.96  c-1.52,2.56-1,5.84,1.24,7.84l13.88,12.32c-1.8,7.16-2.8,14.64-2.8,22.36s1,15.2,2.8,22.36L90.8,226.68c-2.24,2-2.76,5.28-1.24,7.84  l14.36,24.96c0.505,0.851,1.22,1.483,2.004,2.004l119.548,119.548c79.196-13.932,141.628-76.364,155.56-155.56L280.08,124.52  C278.56,121.96,275.48,120.76,272.64,121.72z"/>
<path style="fill:#64798A;" d="M279.301,214.37c1.828-7.153,2.802-14.647,2.802-22.37c0-7.722-0.975-15.217-2.803-22.37  l13.883-12.31c2.237-1.984,2.77-5.268,1.275-7.857l-14.392-24.928c-1.495-2.589-4.606-3.77-7.441-2.824l-17.64,5.881  c-10.669-10.435-23.918-18.229-38.702-22.359l-3.724-18.201C211.96,84.104,209.382,82,206.392,82h-28.785  c-2.99,0-5.568,2.104-6.167,5.033l-3.724,18.201c-14.784,4.13-28.032,11.924-38.701,22.359l-17.64-5.881  c-2.836-0.946-5.946,0.235-7.442,2.824l-14.392,24.928c-1.495,2.589-0.962,5.873,1.275,7.856l13.882,12.31  c-1.828,7.153-2.802,14.647-2.802,22.37c0,7.722,0.975,15.217,2.803,22.37l-13.883,12.31c-2.237,1.984-2.77,5.268-1.275,7.857  l14.392,24.928c1.495,2.59,4.606,3.77,7.442,2.824l17.64-5.881c10.669,10.434,23.917,18.229,38.701,22.358l3.724,18.202  c0.599,2.929,3.177,5.033,6.167,5.033h28.785c2.99,0,5.568-2.104,6.167-5.033l3.724-18.202c14.784-4.13,28.032-11.924,38.701-22.358  l17.641,5.881c2.836,0.946,5.946-0.235,7.441-2.824l14.392-24.928c1.495-2.589,0.962-5.873-1.275-7.857L279.301,214.37z   M192,259.836c-37.465,0-67.836-30.371-67.836-67.836s30.371-67.836,67.836-67.836c37.465,0,67.836,30.371,67.836,67.836  S229.465,259.836,192,259.836z"/>
<circle style="fill:#27A2DB;" cx="192" cy="192" r="67.836"/>
<g>
	<path style="fill:#FCD462;" d="M192.001,263.835c-39.609,0-71.836-32.224-71.836-71.836c0-39.611,32.226-71.836,71.836-71.836   c39.61,0,71.836,32.224,71.836,71.836C263.837,231.611,231.61,263.835,192.001,263.835z M192.001,128.164   c-35.199,0-63.836,28.636-63.836,63.836c0,35.2,28.636,63.836,63.836,63.836c35.199,0,63.836-28.636,63.836-63.836   C255.837,156.8,227.2,128.164,192.001,128.164z"/>
	<path style="fill:#FCD462;" d="M192.001,263.835c-21.754,0-38.793-31.554-38.793-71.836c0-40.281,17.039-71.836,38.793-71.836   c21.754,0,38.793,31.554,38.793,71.836C230.794,232.281,213.755,263.835,192.001,263.835z M192.001,128.164   c-16.691,0-30.793,29.232-30.793,63.836c0,34.604,14.102,63.836,30.793,63.836c16.692,0,30.793-29.232,30.793-63.836   C222.794,157.396,208.692,128.164,192.001,128.164z"/>
	<rect x="188" y="124.16" style="fill:#FCD462;" width="8" height="135.672"/>
	<rect x="124.16" y="188" style="fill:#FCD462;" width="135.672" height="8"/>
	<path style="fill:#FCD462;" d="M192.001,166.38c-19.203,0-38.406-2.881-57.082-8.645l2.36-7.644   c35.871,11.07,73.777,11.045,109.625-0.057l2.367,7.641C230.54,163.478,211.27,166.38,192.001,166.38z"/>
	<path style="fill:#FCD462;" d="M246.903,233.964c-35.855-11.108-73.762-11.127-109.625-0.055l-2.36-7.644   c37.406-11.547,76.953-11.528,114.352,0.058L246.903,233.964z"/>
</g>
<g>
</g>
<g>
</g>
<g>
</g>
<g>
</g>
<g>
</g>
<g>
</g>
<g>
</g>
<g>
</g>
<g>
</g>
<g>
</g>
<g>
</g>
<g>
</g>
<g>
</g>
<g>
</g>
<g>
</g>
</svg>
