<?xml version="1.0" encoding="iso-8859-1"?>
<!-- Generator: Adobe Illustrator 19.0.0, SVG Export Plug-In . SVG Version: 6.00 Build 0)  -->
<svg xmlns="http://www.w3.org/2000/svg" xmlns:xlink="http://www.w3.org/1999/xlink" version="1.1" id="Capa_1" x="0px" y="0px" viewBox="0 0 384 384" style="enable-background:new 0 0 384 384;" xml:space="preserve">
<circle style="fill:#EA8953;" cx="192" cy="192" r="192"/>
<path style="opacity:0.1;enable-background:new    ;" d="M300.24,83.438c-0.939-0.883-2.189-1.44-3.6-1.44H87.36  c-2.96,0-5.36,2.4-5.36,5.36v190.199c0,1.577,0.686,2.961,1.76,3.92l0.2,0.2l102.145,102.174c1.963,0.06,3.918,0.149,5.895,0.149  c106.039,0,192-85.961,192-192c0-9.073-0.675-17.984-1.892-26.722L300.76,83.957L300.24,83.438z"/>
<path style="fill:#E1E6E9;" d="M129.081,126.62c-1.126,0-2.126-0.718-2.487-1.784l-2.943-8.703  c-0.361-1.067-1.361-1.784-2.487-1.784H93.969c-1.126,0-2.126,0.718-2.487,1.784l-2.942,8.703c-0.361,1.066-1.362,1.784-2.488,1.784  H82v150.943c0,2.952,2.394,5.346,5.346,5.346h209.309c2.952,0,5.346-2.394,5.346-5.346V126.62H129.081z"/>
<path style="fill:#64798A;" d="M296.654,82H87.347C84.394,82,82,84.394,82,87.346v31.274h220V87.346  C302,84.394,299.606,82,296.654,82z"/>
<circle style="fill:#FCD462;" cx="245.52" cy="100.32" r="6.04"/>
<circle style="fill:#44C4A1;" cx="267.08" cy="100.32" r="6.04"/>
<circle style="fill:#E56353;" cx="288.6" cy="100.32" r="6.04"/>
<path style="fill:#FFFFFF;" d="M129.081,118.62c-1.126,0-2.126-0.718-2.487-1.784l-2.943-8.703  c-0.361-1.067-1.361-1.784-2.487-1.784H93.969c-1.126,0-2.126,0.718-2.487,1.784l-2.942,8.703c-0.361,1.066-1.362,1.784-2.488,1.784  H82v150.943c0,2.952,2.394,5.346,5.346,5.346h209.309c2.952,0,5.346-2.394,5.346-5.346V118.62H129.081z"/>
<path style="fill:#EBF0F3;" d="M130.068,114.62h37.273l-2.194-6.488c-0.361-1.067-1.361-1.784-2.487-1.784h-35.486  c0.077,0.177,0.202,0.321,0.265,0.506L130.068,114.62z"/>
<g>
	<path style="fill:#E56353;" d="M160.325,205.466v-6.047l17.751-10.465v5.472l-13.267,7.629v0.532l13.267,7.82v5.473   L160.325,205.466z"/>
	<path style="fill:#E56353;" d="M198.311,182.568h3.769l-16.319,44.547h-3.769L198.311,182.568z"/>
	<path style="fill:#E56353;" d="M223.675,199.42v6.047l-17.751,10.414v-5.473l13.264-7.82v-0.532l-13.264-7.629v-5.472   L223.675,199.42z"/>
</g>
<path style="fill:#3A556A;" d="M192.016,162.866c-22.776,0.009-41.246,18.479-41.255,41.256  c-0.009,22.776,18.447,41.232,41.223,41.223c22.777-0.009,41.247-18.48,41.256-41.255  C233.248,181.313,214.792,162.857,192.016,162.866z M191.985,242.082c-20.974,0.008-37.97-16.988-37.962-37.962  c0.008-20.974,17.018-37.984,37.992-37.992c20.974-0.008,37.97,16.988,37.962,37.962  C229.969,225.064,212.96,242.074,191.985,242.082z"/>
<path style="opacity:0.35;fill:#27A2DB;enable-background:new    ;" d="M192.015,166.128c-20.974,0.008-37.983,17.018-37.992,37.992  c-0.008,20.974,16.988,37.97,37.962,37.962c20.974-0.008,37.984-17.018,37.992-37.992  C229.985,183.116,212.989,166.12,192.015,166.128z"/>
<path style="fill:#64798A;" d="M243.589,204.085c0.011-28.492-23.077-51.58-51.568-51.568  c-28.492,0.011-51.598,23.117-51.609,51.609c-0.01,25.691,18.781,46.926,43.36,50.858l-0.006,15.696l16.418-0.006l0.006-15.696  C224.771,251.026,243.579,229.776,243.589,204.085z M191.984,245.344c-22.776,0.009-41.232-18.448-41.223-41.223  c0.009-22.776,18.48-41.247,41.256-41.256c22.776-0.009,41.232,18.447,41.223,41.224  C233.231,226.865,214.76,245.336,191.984,245.344z"/>
<path style="fill:#3A556A;" d="M177.056,266.375L177.034,302l29.839-0.012l0.022-35.625  C206.897,261.749,177.058,261.761,177.056,266.375z"/>
<rect x="177.04" y="270.28" style="fill:#FCD462;" width="29.84" height="5.46"/>
<rect x="94.116" y="148.52" style="fill:#E56353;" width="16.996" height="8"/>
<rect x="120.64" y="148.52" style="fill:#FCD462;" width="16.996" height="8"/>
<rect x="94.116" y="172.92" style="fill:#64798A;" width="16.996" height="8"/>
<g>
	<rect x="120.64" y="172.92" style="fill:#44C4A1;" width="16.996" height="8"/>
	<rect x="94.116" y="197.28" style="fill:#44C4A1;" width="16.996" height="8"/>
</g>
<rect x="120.64" y="197.28" style="fill:#FCD462;" width="16.996" height="8"/>
<rect x="94.116" y="221.68" style="fill:#E56353;" width="16.996" height="8"/>
<rect x="120.64" y="221.68" style="fill:#44C4A1;" width="16.996" height="8"/>
<rect x="94.116" y="246.08" style="fill:#64798A;" width="16.996" height="8"/>
<g>
	<rect x="120.64" y="246.08" style="fill:#E56353;" width="16.996" height="8"/>
	<rect x="246.36" y="148.52" style="fill:#E56353;" width="16.996" height="8"/>
</g>
<g>
	<rect x="272.88" y="148.52" style="fill:#27A2DB;" width="16.996" height="8"/>
	<rect x="246.36" y="172.92" style="fill:#27A2DB;" width="16.996" height="8"/>
</g>
<g>
	<rect x="272.88" y="172.92" style="fill:#64798A;" width="16.996" height="8"/>
	<rect x="246.36" y="197.28" style="fill:#64798A;" width="16.996" height="8"/>
</g>
<rect x="272.88" y="197.28" style="fill:#E56353;" width="16.996" height="8"/>
<rect x="246.36" y="221.68" style="fill:#44C4A1;" width="16.996" height="8"/>
<rect x="272.88" y="221.68" style="fill:#27A2DB;" width="16.996" height="8"/>
<rect x="246.36" y="246.08" style="fill:#E56353;" width="16.996" height="8"/>
<rect x="272.88" y="246.08" style="fill:#64798A;" width="16.996" height="8"/>
<g>
</g>
<g>
</g>
<g>
</g>
<g>
</g>
<g>
</g>
<g>
</g>
<g>
</g>
<g>
</g>
<g>
</g>
<g>
</g>
<g>
</g>
<g>
</g>
<g>
</g>
<g>
</g>
<g>
</g>
</svg>
