<?xml version="1.0" encoding="iso-8859-1"?>
<!-- Generator: Adobe Illustrator 19.0.0, SVG Export Plug-In . SVG Version: 6.00 Build 0)  -->
<svg xmlns="http://www.w3.org/2000/svg" xmlns:xlink="http://www.w3.org/1999/xlink" version="1.1" id="Capa_1" x="0px" y="0px" viewBox="0 0 384 384" style="enable-background:new 0 0 384 384;" xml:space="preserve">
<circle style="fill:#E05B49;" cx="192" cy="192" r="192"/>
<path style="opacity:0.1;enable-background:new    ;" d="M384,192c0-9.072-0.675-17.984-1.892-26.721L300.56,83.731  c-0.96-1.04-2.36-1.72-3.92-1.72H87.36c-2.96,0-5.36,2.4-5.36,5.32v209.32c0,1.36,0.48,2.6,1.32,3.52l0.44,0.44l81.493,81.493  C173.998,383.324,182.918,384,192,384C298.039,384,384,298.039,384,192z"/>
<path style="fill:#3A556A;" d="M296.654,82H87.347C84.394,82,82,84.394,82,87.346v31.274h220V87.346  C302,84.394,299.606,82,296.654,82z"/>
<circle style="fill:#FCD462;" cx="245.52" cy="100.32" r="6.04"/>
<circle style="fill:#44C4A1;" cx="267.08" cy="100.32" r="6.04"/>
<circle style="fill:#E56353;" cx="288.6" cy="100.32" r="6.04"/>
<path style="fill:#EBF0F3;" d="M130.068,114.62h37.273l-2.194-6.488c-0.361-1.066-1.361-1.784-2.487-1.784h-35.486  c0.077,0.177,0.202,0.321,0.265,0.506L130.068,114.62z"/>
<path style="fill:#64798A;" d="M302,118.62H129.081c-1.126,0-2.126-0.718-2.488-1.784l-2.942-8.703  c-0.36-1.066-1.361-1.784-2.487-1.784H93.969c-1.126,0-2.127,0.718-2.487,1.784l-2.942,8.703c-0.362,1.066-1.362,1.784-2.488,1.784  H82v18.323h220V118.62z"/>
<path style="fill:#EBF0F3;" d="M82,296.654c0,2.952,2.394,5.346,5.346,5.346h209.309c2.952,0,5.346-2.394,5.346-5.346V136.943H82  V296.654z"/>
<g>
	<path style="fill:#FFFFFF;" d="M82,288.654c0,2.952,2.394,5.346,5.346,5.346h209.309c2.952,0,5.346-2.394,5.346-5.346V136.943H82   V288.654z"/>
	<path style="fill:#FFFFFF;" d="M121.973,130.182H97.988c-1.324,0-2.398-1.074-2.398-2.4c0-1.326,1.074-2.4,2.398-2.4h23.984   c1.324,0,2.398,1.074,2.398,2.4C124.371,129.108,123.297,130.182,121.973,130.182z"/>
	<path style="fill:#FFFFFF;" d="M162.984,130.182H139c-1.324,0-2.398-1.074-2.398-2.4c0-1.326,1.074-2.4,2.398-2.4h23.984   c1.324,0,2.398,1.074,2.398,2.4C165.383,129.108,164.308,130.182,162.984,130.182z"/>
	<path style="fill:#FFFFFF;" d="M203.992,130.182h-23.98c-1.324,0-2.398-1.074-2.398-2.4c0-1.326,1.074-2.4,2.398-2.4h23.98   c1.324,0,2.399,1.074,2.399,2.4C206.391,129.108,205.316,130.182,203.992,130.182z"/>
	<path style="fill:#FFFFFF;" d="M245.004,130.182H221.02c-1.324,0-2.398-1.074-2.398-2.4c0-1.326,1.074-2.4,2.398-2.4h23.984   c1.324,0,2.398,1.074,2.398,2.4C247.402,129.108,246.328,130.182,245.004,130.182z"/>
	<path style="fill:#FFFFFF;" d="M286.012,130.182h-23.98c-1.324,0-2.398-1.074-2.398-2.4c0-1.326,1.074-2.4,2.398-2.4h23.98   c1.324,0,2.398,1.074,2.398,2.4C288.41,129.108,287.336,130.182,286.012,130.182z"/>
</g>
<rect x="179.846" y="158.459" transform="matrix(-0.7071 0.7071 -0.7071 -0.7071 467.1202 241.4796)" style="fill:#E56353;" width="7.404" height="118.049"/>
<rect x="185.072" y="153.24" transform="matrix(-0.7071 0.7071 -0.7071 -0.7071 472.3505 228.8748)" style="fill:#D15241;" width="7.404" height="118.049"/>
<rect x="190.309" y="148.007" transform="matrix(-0.7071 0.7071 -0.7071 -0.7071 477.5903 216.2376)" style="fill:#CE412D;" width="7.404" height="118.049"/>
<rect x="220.319" y="253.615" transform="matrix(-0.7071 0.7071 -0.7071 -0.7071 575.3286 271.537)" style="fill:#FCD462;" width="22.216" height="2.616"/>
<path style="fill:#64798A;" d="M237.779,273.666l3.59-3.589l-11.616-11.616l-5.236,5.236l9.969,9.969  C235.395,274.575,236.87,274.575,237.779,273.666z"/>
<rect x="234.481" y="253.447" transform="matrix(-0.7071 0.7071 -0.7071 -0.7071 591.6263 278.251)" style="fill:#3A556A;" width="7.404" height="16.428"/>
<path style="fill:#2F4859;" d="M246.605,264.84l3.59-3.59c0.91-0.91,0.91-2.384,0-3.293l-9.969-9.969l-5.236,5.236L246.605,264.84z"/>
<path style="fill:#FCD462;" d="M154.902,162.664l-13.682-4.06c0.029,1.569-0.545,3.147-1.743,4.345  c-1.197,1.197-2.775,1.771-4.344,1.742l4.06,13.682L154.902,162.664z"/>
<g>
	<path style="fill:#64798A;" d="M139.477,162.949c1.198-1.198,1.772-2.776,1.743-4.345l-6.605-1.96   c-0.882-0.262-1.704,0.559-1.442,1.442l1.96,6.604C136.702,164.72,138.28,164.146,139.477,162.949z"/>
	<path style="fill:#64798A;" d="M191.888,231.771c1.288,0.53,2.823,0.274,3.869-0.772c1.39-1.39,1.39-3.644,0-5.034l-14.252-14.252   c-1.39-1.39-3.644-1.39-5.034,0c-1.046,1.046-1.302,2.581-0.772,3.869l-5.585,2.808c-0.426,0.214-0.814,0.495-1.151,0.832   l-34.989,34.989c-1.135,1.135-1.135,2.974,0,4.109l15.176,15.176c1.135,1.135,2.974,1.135,4.109,0l34.989-34.989   c0.337-0.337,0.618-0.726,0.832-1.151L191.888,231.771z"/>
</g>
<path style="fill:#2F4859;" d="M146.171,261.299c-2.153-2.153-2.152-5.656,0.001-7.809l25.103-25.103  c2.153-2.153,5.656-2.154,7.809-0.001c2.154,2.153,2.154,5.658,0.001,7.811L153.982,261.3  C151.829,263.453,148.324,263.452,146.171,261.299z"/>
<path style="fill:#3A556A;" d="M178.108,229.363c-1.617-1.617-4.239-1.618-5.857,0l-25.103,25.103c-1.617,1.617-1.617,4.24,0,5.857  c1.617,1.617,4.24,1.617,5.857,0l25.103-25.103C179.726,233.602,179.725,230.98,178.108,229.363z"/>
<path style="fill:#E1E6E9;" d="M250.876,160.385l-3.79-3.79l-6.126,3.327c-0.183,0.1-0.324,0.262-0.397,0.458l-1.616,4.355  l-52.21,52.21l3.79,3.79l52.077-52.077c0.088-0.088,0.194-0.156,0.31-0.199l4.178-1.55c0.196-0.072,0.358-0.214,0.458-0.397  L250.876,160.385z"/>
<g>
</g>
<g>
</g>
<g>
</g>
<g>
</g>
<g>
</g>
<g>
</g>
<g>
</g>
<g>
</g>
<g>
</g>
<g>
</g>
<g>
</g>
<g>
</g>
<g>
</g>
<g>
</g>
<g>
</g>
</svg>
