<?xml version="1.0" encoding="iso-8859-1"?>
<!-- Generator: Adobe Illustrator 19.0.0, SVG Export Plug-In . SVG Version: 6.00 Build 0)  -->
<svg xmlns="http://www.w3.org/2000/svg" xmlns:xlink="http://www.w3.org/1999/xlink" version="1.1" id="Capa_1" x="0px" y="0px" viewBox="0 0 384 384" style="enable-background:new 0 0 384 384;" xml:space="preserve">
<circle style="fill:#EA8953;" cx="192" cy="192" r="192"/>
<path style="opacity:0.1;enable-background:new    ;" d="M384,192c0-9.072-0.675-17.984-1.892-26.721L300.56,83.731  c-0.96-1.04-2.36-1.72-3.92-1.72H87.36c-2.96,0-5.36,2.4-5.36,5.32v209.32c0,1.36,0.48,2.6,1.32,3.52l0.44,0.44l81.493,81.493  C173.998,383.324,182.918,384,192,384C298.039,384,384,298.038,384,192z"/>
<path style="fill:#3A556A;" d="M296.654,82H87.347C84.394,82,82,84.394,82,87.346v31.274h220V87.346  C302,84.394,299.606,82,296.654,82z"/>
<circle style="fill:#FCD462;" cx="245.52" cy="100.32" r="6.04"/>
<circle style="fill:#44C4A1;" cx="267.08" cy="100.32" r="6.04"/>
<circle style="fill:#E56353;" cx="288.6" cy="100.32" r="6.04"/>
<path style="fill:#EBF0F3;" d="M130.068,114.62h37.273l-2.194-6.488c-0.361-1.066-1.361-1.784-2.487-1.784h-35.486  c0.077,0.177,0.202,0.321,0.265,0.506L130.068,114.62z"/>
<path style="fill:#64798A;" d="M302,118.62H129.081c-1.126,0-2.126-0.718-2.488-1.784l-2.942-8.703  c-0.36-1.066-1.361-1.784-2.487-1.784H93.969c-1.126,0-2.127,0.718-2.487,1.784l-2.942,8.703c-0.362,1.066-1.362,1.784-2.488,1.784  H82v18.323h220V118.62z"/>
<path style="fill:#EBF0F3;" d="M82,296.654c0,2.952,2.394,5.346,5.346,5.346h209.309c2.952,0,5.346-2.394,5.346-5.346V136.943H82  V296.654z"/>
<g>
	<path style="fill:#FFFFFF;" d="M82,288.654c0,2.952,2.394,5.346,5.346,5.346h209.309c2.952,0,5.346-2.394,5.346-5.346V136.943H82   V288.654z"/>
	<path style="fill:#FFFFFF;" d="M121.973,130.182H97.988c-1.324,0-2.398-1.074-2.398-2.4c0-1.326,1.074-2.4,2.398-2.4h23.984   c1.324,0,2.398,1.074,2.398,2.4C124.371,129.108,123.297,130.182,121.973,130.182z"/>
	<path style="fill:#FFFFFF;" d="M162.984,130.182H139c-1.324,0-2.398-1.074-2.398-2.4c0-1.326,1.074-2.4,2.398-2.4h23.984   c1.324,0,2.398,1.074,2.398,2.4C165.383,129.108,164.308,130.182,162.984,130.182z"/>
	<path style="fill:#FFFFFF;" d="M203.992,130.182h-23.98c-1.324,0-2.398-1.074-2.398-2.4c0-1.326,1.074-2.4,2.398-2.4h23.98   c1.324,0,2.399,1.074,2.399,2.4C206.391,129.108,205.316,130.182,203.992,130.182z"/>
	<path style="fill:#FFFFFF;" d="M245.004,130.182H221.02c-1.324,0-2.398-1.074-2.398-2.4c0-1.326,1.074-2.4,2.398-2.4h23.984   c1.324,0,2.398,1.074,2.398,2.4C247.402,129.108,246.328,130.182,245.004,130.182z"/>
	<path style="fill:#FFFFFF;" d="M286.012,130.182h-23.98c-1.324,0-2.398-1.074-2.398-2.4c0-1.326,1.074-2.4,2.398-2.4h23.98   c1.324,0,2.398,1.074,2.398,2.4C288.41,129.108,287.336,130.182,286.012,130.182z"/>
</g>
<g>
	<rect x="82" y="146" style="fill:#E1E6E9;" width="220" height="69.492"/>
	<rect x="95.66" y="230.04" style="fill:#E1E6E9;" width="78.124" height="4"/>
	<rect x="210.2" y="230.04" style="fill:#E1E6E9;" width="78.124" height="4"/>
	<rect x="95.66" y="246.6" style="fill:#E1E6E9;" width="78.124" height="4"/>
	<rect x="210.2" y="246.6" style="fill:#E1E6E9;" width="78.124" height="4"/>
	<rect x="95.66" y="263.16" style="fill:#E1E6E9;" width="78.124" height="4"/>
	<rect x="210.2" y="263.16" style="fill:#E1E6E9;" width="78.124" height="4"/>
	<rect x="95.66" y="279.72" style="fill:#E1E6E9;" width="46.124" height="4"/>
	<rect x="210.2" y="279.72" style="fill:#E1E6E9;" width="46.124" height="4"/>
</g>
<circle style="fill:#D5D6DB;" cx="291.6" cy="180.72" r="3.464"/>
<polygon style="fill:#FFFFFF;" points="290.854,183.449 289.836,182.431 291.54,180.725 289.836,179.021 290.854,178.003   293.576,180.725 "/>
<circle style="fill:#D5D6DB;" cx="92.4" cy="180.72" r="3.464"/>
<polygon style="fill:#FFFFFF;" points="93.146,178.003 94.164,179.021 92.46,180.727 94.164,182.431 93.146,183.449 90.424,180.727   "/>
<rect x="225.597" y="149.149" transform="matrix(-0.7838 -0.621 0.621 -0.7838 278.0142 519.9629)" style="fill:#E56353;" width="7.836" height="124.88"/>
<rect x="231.766" y="154.004" transform="matrix(-0.7838 -0.621 0.621 -0.7838 285.9918 532.4577)" style="fill:#D15241;" width="7.836" height="124.88"/>
<rect x="237.891" y="158.851" transform="matrix(-0.7838 -0.621 0.621 -0.7838 293.9193 544.9044)" style="fill:#CE412D;" width="7.836" height="124.88"/>
<rect x="263.548" y="165.021" transform="matrix(-0.7838 -0.621 0.621 -0.7838 387.7417 467.798)" style="fill:#44C4A1;" width="23.504" height="2.768"/>
<path style="fill:#64798A;" d="M279.689,145.947l4.21,3.336l-10.793,13.622l-6.141-4.866l9.263-11.691  C277.073,145.281,278.623,145.102,279.689,145.947z"/>
<rect x="272.881" y="154.598" transform="matrix(-0.621 0.7838 -0.7838 -0.621 580.6692 36.2482)" style="fill:#3A556A;" width="17.38" height="7.836"/>
<path style="fill:#2F4859;" d="M290.04,154.148l4.21,3.336c1.067,0.845,1.246,2.394,0.401,3.461l-9.263,11.691l-6.141-4.866  L290.04,154.148z"/>
<path style="fill:#FCD462;" d="M206.104,272.702l-13.885,5.934c-0.16-1.652-0.956-3.242-2.361-4.354  c-1.404-1.112-3.132-1.524-4.778-1.302l2.601-14.874L206.104,272.702z"/>
<path style="fill:#64798A;" d="M189.858,274.282c1.405,1.113,2.201,2.702,2.361,4.354l-6.703,2.864  c-0.896,0.383-1.859-0.38-1.692-1.34l1.256-7.18C186.726,272.758,188.454,273.169,189.858,274.282z"/>
<g>
</g>
<g>
</g>
<g>
</g>
<g>
</g>
<g>
</g>
<g>
</g>
<g>
</g>
<g>
</g>
<g>
</g>
<g>
</g>
<g>
</g>
<g>
</g>
<g>
</g>
<g>
</g>
<g>
</g>
</svg>
