<?xml version="1.0" encoding="iso-8859-1"?>
<!-- Generator: Adobe Illustrator 19.0.0, SVG Export Plug-In . SVG Version: 6.00 Build 0)  -->
<svg xmlns="http://www.w3.org/2000/svg" xmlns:xlink="http://www.w3.org/1999/xlink" version="1.1" id="Capa_1" x="0px" y="0px" viewBox="0 0 384 384" style="enable-background:new 0 0 384 384;" xml:space="preserve">
<circle style="fill:#EFC84A;" cx="192" cy="192" r="192"/>
<path style="opacity:0.1;enable-background:new    ;" d="M296.64,82.011H87.36c-2.96,0-5.36,2.4-5.36,5.32v209.32  c0,1.4,0.52,2.64,1.4,3.6l0.36,0.36l81.534,81.499c8.732,1.215,17.638,1.89,26.706,1.89c106.039,0,192-85.962,192-192  c0-9.073-0.675-17.984-1.892-26.722L300.56,83.731C299.6,82.691,298.2,82.011,296.64,82.011z"/>
<path style="fill:#3A556A;" d="M296.654,82H87.347C84.394,82,82,84.394,82,87.346v31.274h220V87.346  C302,84.394,299.606,82,296.654,82z"/>
<circle style="fill:#FCD462;" cx="245.52" cy="100.32" r="6.04"/>
<circle style="fill:#44C4A1;" cx="267.08" cy="100.32" r="6.04"/>
<circle style="fill:#E56353;" cx="288.6" cy="100.32" r="6.04"/>
<path style="fill:#EBF0F3;" d="M130.068,114.62h37.273l-2.194-6.488c-0.361-1.066-1.361-1.784-2.487-1.784h-35.486  c0.077,0.177,0.202,0.321,0.265,0.506L130.068,114.62z"/>
<path style="fill:#64798A;" d="M302,118.62H129.081c-1.126,0-2.126-0.718-2.488-1.784l-2.942-8.703  c-0.36-1.066-1.361-1.784-2.487-1.784H93.969c-1.126,0-2.127,0.718-2.487,1.784l-2.942,8.703c-0.362,1.066-1.362,1.784-2.488,1.784  H82v18.323h220V118.62z"/>
<path style="fill:#EBF0F3;" d="M82,296.654c0,2.952,2.394,5.346,5.346,5.346h209.309c2.952,0,5.346-2.394,5.346-5.346V136.943H82  V296.654z"/>
<g>
	<path style="fill:#FFFFFF;" d="M82,288.654c0,2.952,2.394,5.346,5.346,5.346h209.309c2.952,0,5.346-2.394,5.346-5.346V136.943H82   V288.654z"/>
	<path style="fill:#FFFFFF;" d="M121.973,130.182H97.988c-1.324,0-2.398-1.074-2.398-2.4c0-1.326,1.074-2.4,2.398-2.4h23.984   c1.324,0,2.398,1.074,2.398,2.4C124.371,129.108,123.297,130.182,121.973,130.182z"/>
	<path style="fill:#FFFFFF;" d="M162.984,130.182H139c-1.324,0-2.398-1.074-2.398-2.4c0-1.326,1.074-2.4,2.398-2.4h23.984   c1.324,0,2.398,1.074,2.398,2.4C165.383,129.108,164.308,130.182,162.984,130.182z"/>
	<path style="fill:#FFFFFF;" d="M203.992,130.182h-23.98c-1.324,0-2.398-1.074-2.398-2.4c0-1.326,1.074-2.4,2.398-2.4h23.98   c1.324,0,2.399,1.074,2.399,2.4C206.391,129.108,205.316,130.182,203.992,130.182z"/>
	<path style="fill:#FFFFFF;" d="M245.004,130.182H221.02c-1.324,0-2.398-1.074-2.398-2.4c0-1.326,1.074-2.4,2.398-2.4h23.984   c1.324,0,2.398,1.074,2.398,2.4C247.402,129.108,246.328,130.182,245.004,130.182z"/>
	<path style="fill:#FFFFFF;" d="M286.012,130.182h-23.98c-1.324,0-2.398-1.074-2.398-2.4c0-1.326,1.074-2.4,2.398-2.4h23.98   c1.324,0,2.398,1.074,2.398,2.4C288.41,129.108,287.336,130.182,286.012,130.182z"/>
</g>
<rect x="119.932" y="159.768" style="fill:#64798A;" width="5.512" height="111.408"/>
<circle style="fill:#FCD462;" cx="122.688" cy="239.04" r="12.04"/>
<path style="fill:#F6C358;" d="M130.277,229.785c-1.609,8.147-6.751,15.472-15.465,18.306c2.115,1.846,4.848,3.001,7.876,3.001  c6.648,0,12.036-5.388,12.036-12.036C134.724,235.303,132.969,231.993,130.277,229.785z"/>
<rect x="154.588" y="159.768" style="fill:#64798A;" width="5.512" height="111.408"/>
<circle style="fill:#E56353;" cx="157.36" cy="183.716" r="12.04"/>
<path style="fill:#D15241;" d="M164.933,174.446c-1.609,8.146-6.751,15.472-15.465,18.306c2.115,1.846,4.848,3.001,7.876,3.001  c6.647,0,12.036-5.388,12.036-12.036C169.38,179.963,167.626,176.653,164.933,174.446z"/>
<rect x="189.24" y="159.768" style="fill:#64798A;" width="5.512" height="111.408"/>
<circle style="fill:#EBF0F3;" cx="192" cy="215.584" r="12.04"/>
<path style="fill:#E1E6E9;" d="M199.59,206.314c-1.609,8.146-6.751,15.472-15.465,18.306c2.115,1.846,4.848,3.001,7.876,3.001  c6.647,0,12.036-5.388,12.036-12.036C204.036,211.832,202.282,208.522,199.59,206.314z"/>
<rect x="223.9" y="159.768" style="fill:#64798A;" width="5.512" height="111.408"/>
<circle style="fill:#27A2DB;" cx="226.64" cy="252.12" r="12.04"/>
<path style="fill:#2D93BA;" d="M234.246,242.86c-1.609,8.147-6.751,15.473-15.465,18.306c2.115,1.846,4.848,3.001,7.876,3.001  c6.647,0,12.036-5.388,12.036-12.036C238.693,248.377,236.938,245.068,234.246,242.86z"/>
<rect x="258.56" y="159.768" style="fill:#64798A;" width="5.512" height="111.408"/>
<circle style="fill:#44C4A1;" cx="261.32" cy="192.6" r="12.04"/>
<path style="fill:#3EA69B;" d="M268.902,183.322c-1.609,8.147-6.752,15.473-15.465,18.307c2.115,1.846,4.848,3.001,7.876,3.001  c6.647,0,12.036-5.388,12.036-12.036C273.349,188.84,271.595,185.53,268.902,183.322z"/>
<g>
</g>
<g>
</g>
<g>
</g>
<g>
</g>
<g>
</g>
<g>
</g>
<g>
</g>
<g>
</g>
<g>
</g>
<g>
</g>
<g>
</g>
<g>
</g>
<g>
</g>
<g>
</g>
<g>
</g>
</svg>
