<?xml version="1.0" encoding="iso-8859-1"?>
<!-- Generator: Adobe Illustrator 19.0.0, SVG Export Plug-In . SVG Version: 6.00 Build 0)  -->
<svg xmlns="http://www.w3.org/2000/svg" xmlns:xlink="http://www.w3.org/1999/xlink" version="1.1" id="Capa_1" x="0px" y="0px" viewBox="0 0 384 384" style="enable-background:new 0 0 384 384;" xml:space="preserve">
<circle style="fill:#EA8953;" cx="192" cy="192" r="192"/>
<path style="opacity:0.1;enable-background:new    ;" d="M384,192c0-9.077-0.675-17.992-1.894-26.734L300.6,83.76  c-0.032-0.036-0.075-0.063-0.108-0.098c-0.068-0.071-0.142-0.128-0.214-0.194c-0.44-0.417-0.941-0.771-1.51-1.018  c-0.05-0.022-0.103-0.031-0.154-0.051C297.998,82.153,297.335,82,296.64,82H87.36C84.4,82,82,84.4,82,87.36v209.28  c0,0.71,0.149,1.387,0.406,2.01c0.137,0.338,0.374,0.605,0.574,0.904c0.16,0.239,0.268,0.516,0.461,0.726l0.089,0.089  c0.034,0.035,0.067,0.068,0.102,0.102l0.129,0.129l81.506,81.506C174.008,383.325,182.923,384,192,384  C298.039,384,384,298.039,384,192z"/>
<path style="fill:#3A556A;" d="M296.654,82H87.347C84.394,82,82,84.394,82,87.346v31.274h220V87.346  C302,84.394,299.606,82,296.654,82z"/>
<rect x="90.44" y="94.272" style="fill:#EBF0F3;" width="137.828" height="12.08"/>
<circle style="fill:#FCD462;" cx="245.52" cy="100.32" r="6.04"/>
<circle style="fill:#44C4A1;" cx="267.08" cy="100.32" r="6.04"/>
<circle style="fill:#E56353;" cx="288.6" cy="100.32" r="6.04"/>
<path style="fill:#64798A;" d="M82,118.62v178.034c0,2.952,2.394,5.346,5.347,5.346h50.417V118.62H82z"/>
<path style="fill:#EBF0F3;" d="M137.764,118.62V302h158.89c2.952,0,5.346-2.394,5.346-5.346V118.62H137.764z"/>
<rect x="148.2" y="133.88" style="fill:#44C4A1;" width="140.4" height="50.236"/>
<g>
	<rect x="148.2" y="198.04" style="fill:#D5D6DB;" width="40" height="40"/>
	<rect x="198.4" y="198.04" style="fill:#D5D6DB;" width="40" height="40"/>
	<rect x="248.56" y="198.04" style="fill:#D5D6DB;" width="40" height="40"/>
	<rect x="148.2" y="247.12" style="fill:#D5D6DB;" width="40" height="40"/>
	<rect x="198.4" y="247.12" style="fill:#D5D6DB;" width="40" height="40"/>
	<rect x="248.56" y="247.12" style="fill:#D5D6DB;" width="40" height="40"/>
	<rect x="89.44" y="130.372" style="fill:#D5D6DB;" width="44.12" height="11.176"/>
	<rect x="89.44" y="144.72" style="fill:#D5D6DB;" width="44.12" height="11.176"/>
	<rect x="89.44" y="159.108" style="fill:#D5D6DB;" width="44.12" height="11.176"/>
	<rect x="89.44" y="173.48" style="fill:#D5D6DB;" width="44.12" height="11.176"/>
	<rect x="89.44" y="187.844" style="fill:#D5D6DB;" width="44.12" height="11.176"/>
	<rect x="89.44" y="202.2" style="fill:#D5D6DB;" width="44.12" height="11.176"/>
</g>
<g>
</g>
<g>
</g>
<g>
</g>
<g>
</g>
<g>
</g>
<g>
</g>
<g>
</g>
<g>
</g>
<g>
</g>
<g>
</g>
<g>
</g>
<g>
</g>
<g>
</g>
<g>
</g>
<g>
</g>
</svg>
