<?xml version="1.0" encoding="iso-8859-1"?>
<!-- Generator: Adobe Illustrator 19.0.0, SVG Export Plug-In . SVG Version: 6.00 Build 0)  -->
<svg xmlns="http://www.w3.org/2000/svg" xmlns:xlink="http://www.w3.org/1999/xlink" version="1.1" id="Capa_1" x="0px" y="0px" viewBox="0 0 384 384" style="enable-background:new 0 0 384 384;" xml:space="preserve">
<circle style="fill:#EFC84A;" cx="192" cy="192" r="192"/>
<path style="opacity:0.1;enable-background:new    ;" d="M300.24,83.411l-0.04-0.04c-0.96-0.84-2.2-1.36-3.56-1.36H87.36  c-2.96,0-5.36,2.4-5.36,5.32v209.32c0,1.36,0.52,2.6,1.36,3.56l0.4,0.4l81.494,81.493C173.999,383.324,182.919,384,192,384  c106.039,0,192-85.961,192-192c0-9.072-0.675-17.984-1.892-26.721L300.6,83.771L300.24,83.411z"/>
<path style="fill:#3A556A;" d="M296.654,82H87.347C84.394,82,82,84.394,82,87.346v31.274h220V87.346  C302,84.394,299.606,82,296.654,82z"/>
<circle style="fill:#FCD462;" cx="245.52" cy="100.32" r="6.04"/>
<circle style="fill:#44C4A1;" cx="267.08" cy="100.32" r="6.04"/>
<circle style="fill:#E56353;" cx="288.6" cy="100.32" r="6.04"/>
<path style="fill:#EBF0F3;" d="M130.068,114.62h37.273l-2.194-6.488c-0.361-1.066-1.361-1.784-2.487-1.784h-35.486  c0.077,0.177,0.202,0.321,0.265,0.506L130.068,114.62z"/>
<path style="fill:#64798A;" d="M302,118.62H129.081c-1.126,0-2.126-0.718-2.488-1.784l-2.942-8.703  c-0.36-1.066-1.361-1.784-2.487-1.784H93.969c-1.126,0-2.127,0.718-2.487,1.784l-2.942,8.703c-0.362,1.066-1.362,1.784-2.488,1.784  H82v18.323h220V118.62z"/>
<g>
	<path style="fill:#FFFFFF;" d="M82,296.654c0,2.952,2.394,5.346,5.346,5.346h209.309c2.952,0,5.346-2.394,5.346-5.346V136.943H82   V296.654z"/>
	<path style="fill:#FFFFFF;" d="M121.973,130.182H97.988c-1.324,0-2.398-1.074-2.398-2.4c0-1.326,1.074-2.4,2.398-2.4h23.984   c1.324,0,2.398,1.074,2.398,2.4C124.371,129.108,123.297,130.182,121.973,130.182z"/>
	<path style="fill:#FFFFFF;" d="M162.984,130.182H139c-1.324,0-2.398-1.074-2.398-2.4c0-1.326,1.074-2.4,2.398-2.4h23.984   c1.324,0,2.398,1.074,2.398,2.4C165.383,129.108,164.308,130.182,162.984,130.182z"/>
	<path style="fill:#FFFFFF;" d="M203.992,130.182h-23.98c-1.324,0-2.398-1.074-2.398-2.4c0-1.326,1.074-2.4,2.398-2.4h23.98   c1.324,0,2.399,1.074,2.399,2.4C206.391,129.108,205.316,130.182,203.992,130.182z"/>
	<path style="fill:#FFFFFF;" d="M245.004,130.182H221.02c-1.324,0-2.398-1.074-2.398-2.4c0-1.326,1.074-2.4,2.398-2.4h23.984   c1.324,0,2.398,1.074,2.398,2.4C247.402,129.108,246.328,130.182,245.004,130.182z"/>
	<path style="fill:#FFFFFF;" d="M286.012,130.182h-23.98c-1.324,0-2.398-1.074-2.398-2.4c0-1.326,1.074-2.4,2.398-2.4h23.98   c1.324,0,2.398,1.074,2.398,2.4C288.41,129.108,287.336,130.182,286.012,130.182z"/>
</g>
<g>
	<path style="fill:#E1E6E9;" d="M91.926,239.049h67.981v-81.494H91.926V239.049z M128.51,198.302l27.397-33.182v66.364   L128.51,198.302z M153.66,235.049H98.172l27.744-33.605L153.66,235.049z M125.916,195.16l-27.744-33.605h55.488L125.916,195.16z    M123.322,198.302l-27.397,33.182V165.12L123.322,198.302z"/>
	<path style="fill:#E1E6E9;" d="M168.926,239.049h55.422v-81.494h-55.422V239.049z M199.038,198.302l21.31-32.114v64.228   L199.038,198.302z M218.619,235.049h-43.965l21.982-33.128L218.619,235.049z M196.637,194.683l-21.982-33.128h43.965   L196.637,194.683z M194.235,198.302l-21.31,32.114v-64.228L194.235,198.302z"/>
	<path style="fill:#E1E6E9;" d="M231.922,157.555v81.494h55.422v-81.494H231.922z M257.232,198.302l-21.31,32.114v-64.228   L257.232,198.302z M237.65,161.555h43.965l-21.982,33.128L237.65,161.555z M259.633,201.921l21.982,33.128H237.65L259.633,201.921z    M262.034,198.302l21.31-32.114v64.228L262.034,198.302z"/>
	<rect x="91.924" y="251.08" style="fill:#E1E6E9;" width="67.98" height="4"/>
	<rect x="91.924" y="266.24" style="fill:#E1E6E9;" width="67.98" height="4"/>
	<rect x="91.924" y="281.36" style="fill:#E1E6E9;" width="43.98" height="4"/>
	<rect x="231.92" y="251.08" style="fill:#E1E6E9;" width="55.42" height="4"/>
	<rect x="231.92" y="266.24" style="fill:#E1E6E9;" width="55.42" height="4"/>
	<rect x="231.92" y="281.36" style="fill:#E1E6E9;" width="31.42" height="4"/>
	<rect x="168.92" y="251.08" style="fill:#E1E6E9;" width="55.424" height="4"/>
	<rect x="168.92" y="266.24" style="fill:#E1E6E9;" width="55.424" height="4"/>
	<rect x="168.92" y="281.36" style="fill:#E1E6E9;" width="31.424" height="4"/>
</g>
<g>
</g>
<g>
</g>
<g>
</g>
<g>
</g>
<g>
</g>
<g>
</g>
<g>
</g>
<g>
</g>
<g>
</g>
<g>
</g>
<g>
</g>
<g>
</g>
<g>
</g>
<g>
</g>
<g>
</g>
</svg>
