<?xml version="1.0" encoding="iso-8859-1"?>
<!-- Generator: Adobe Illustrator 19.0.0, SVG Export Plug-In . SVG Version: 6.00 Build 0)  -->
<svg xmlns="http://www.w3.org/2000/svg" xmlns:xlink="http://www.w3.org/1999/xlink" version="1.1" id="Capa_1" x="0px" y="0px" viewBox="0 0 384 384" style="enable-background:new 0 0 384 384;" xml:space="preserve">
<circle style="fill:#45B39C;" cx="192" cy="192" r="192"/>
<path style="opacity:0.1;enable-background:new    ;" d="M300.492,83.662L300.492,83.662c-0.526-0.548-1.16-0.977-1.877-1.263l0,0  C297.998,82.153,297.335,82,296.64,82H87.36C84.4,82,82,84.4,82,87.36v209.28v0.04c0,1.152,0.452,2.167,1.086,3.042  c0.11,0.193,0.206,0.396,0.354,0.558l0.077,0.078c0.043,0.044,0.084,0.085,0.129,0.128l0.114,0.114l81.506,81.506  C174.008,383.325,182.923,384,192,384c106.039,0,192-85.962,192-192c0-9.077-0.675-17.992-1.894-26.734L300.6,83.76  C300.568,83.724,300.525,83.697,300.492,83.662z"/>
<path style="fill:#3A556A;" d="M296.657,82.004H87.35c-2.953,0-5.347,2.394-5.347,5.346v31.274h220V87.35  C302.003,84.397,299.609,82.004,296.657,82.004z"/>
<rect x="90.44" y="94.276" style="fill:#EBF0F3;" width="137.828" height="12.08"/>
<circle style="fill:#FCD462;" cx="245.52" cy="100.32" r="6.04"/>
<circle style="fill:#44C4A1;" cx="267.08" cy="100.32" r="6.04"/>
<circle style="fill:#E56353;" cx="288.6" cy="100.32" r="6.04"/>
<path style="fill:#FFFFFF;" d="M301.997,118.636v178.04c0,2.92-2.4,5.32-5.32,5.32H87.356c-2.96,0-5.359-2.4-5.359-5.32v-178.04  H301.997z"/>
<rect x="177.759" y="143.473" transform="matrix(-0.7071 0.7071 -0.7071 -0.7071 461.2472 234.2965)" style="fill:#44C4A1;" width="8.68" height="138.405"/>
<rect x="183.899" y="137.365" transform="matrix(-0.7071 0.7071 -0.7071 -0.7071 467.4093 219.5267)" style="fill:#3EA69B;" width="8.68" height="138.405"/>
<rect x="190.035" y="131.177" transform="matrix(-0.7071 0.7071 -0.7071 -0.7071 473.5114 204.6244)" style="fill:#31978C;" width="8.684" height="138.405"/>
<rect x="225.243" y="255.025" transform="matrix(-0.7071 0.7071 -0.7071 -0.7071 588.1619 269.4937)" style="fill:#E56353;" width="26.048" height="3.068"/>
<path style="fill:#64798A;" d="M245.669,278.545l4.208-4.208l-13.618-13.618l-6.139,6.139l11.688,11.688  C242.874,279.611,244.603,279.611,245.669,278.545z"/>
<rect x="241.823" y="254.834" transform="matrix(-0.7071 0.7071 -0.7071 -0.7071 607.2341 277.4156)" style="fill:#3A556A;" width="8.684" height="19.26"/>
<path style="fill:#2F4859;" d="M256.017,268.197l4.208-4.208c1.066-1.067,1.066-2.795,0-3.861l-11.688-11.688l-6.139,6.139  L256.017,268.197z"/>
<path style="fill:#FCD462;" d="M148.503,148.405l-16.041-4.76c0.034,1.839-0.639,3.69-2.043,5.094  c-1.404,1.404-3.254,2.077-5.094,2.042l4.76,16.041L148.503,148.405z"/>
<path style="fill:#64798A;" d="M130.418,148.738c1.404-1.404,2.078-3.255,2.043-5.094l-7.743-2.298  c-1.035-0.308-1.998,0.656-1.692,1.691l2.298,7.743C127.165,150.815,129.015,150.142,130.418,148.738z"/>
<rect x="174.162" y="130.542" transform="matrix(-0.7071 -0.7071 0.7071 -0.7071 179.0641 494.8036)" style="fill:#FCD462;" width="35.696" height="159.548"/>
<rect x="188.086" y="130.545" transform="matrix(-0.7071 -0.7071 0.7071 -0.7071 179.0719 494.8088)" style="fill:#F6C358;" width="7.856" height="159.545"/>
<g>
	
		<rect x="253.998" y="166.483" transform="matrix(-0.7071 0.7071 -0.7071 -0.7071 554.4454 108.5385)" style="fill:#DC8744;" width="1.492" height="5.232"/>
	
		<rect x="251.565" y="168.905" transform="matrix(-0.7071 0.7071 -0.7071 -0.7071 552.0049 114.3942)" style="fill:#DC8744;" width="1.492" height="5.232"/>
	
		<rect x="249.164" y="171.338" transform="matrix(-0.7071 0.7071 -0.7071 -0.7071 549.6269 120.2447)" style="fill:#DC8744;" width="1.492" height="5.232"/>
	
		<rect x="245.687" y="171.254" transform="matrix(-0.7071 0.7071 -0.7071 -0.7071 544.6676 125.0601)" style="fill:#DC8744;" width="1.492" height="8.16"/>
	
		<rect x="244.31" y="176.172" transform="matrix(-0.7071 0.7071 -0.7071 -0.7071 544.7609 131.9462)" style="fill:#DC8744;" width="1.492" height="5.232"/>
	
		<rect x="241.891" y="178.6" transform="matrix(-0.7071 0.7071 -0.7071 -0.7071 542.3466 137.7855)" style="fill:#DC8744;" width="1.492" height="5.232"/>
	
		<rect x="239.478" y="181.004" transform="matrix(-0.7071 0.7071 -0.7071 -0.7071 539.9265 143.5945)" style="fill:#DC8744;" width="1.492" height="5.232"/>
	
		<rect x="236.028" y="180.916" transform="matrix(-0.7071 0.7071 -0.7071 -0.7071 535.011 148.3935)" style="fill:#DC8744;" width="1.492" height="8.16"/>
	
		<rect x="234.639" y="185.839" transform="matrix(-0.7071 0.7071 -0.7071 -0.7071 535.0854 155.271)" style="fill:#DC8744;" width="1.492" height="5.232"/>
	
		<rect x="232.251" y="188.262" transform="matrix(-0.7071 0.7071 -0.7071 -0.7071 532.7222 161.0948)" style="fill:#DC8744;" width="1.492" height="5.232"/>
	
		<rect x="229.807" y="190.692" transform="matrix(-0.7071 0.7071 -0.7071 -0.7071 530.2681 166.9721)" style="fill:#DC8744;" width="1.492" height="5.232"/>
	
		<rect x="226.363" y="190.605" transform="matrix(-0.7071 0.7071 -0.7071 -0.7071 525.3638 171.7684)" style="fill:#DC8744;" width="1.492" height="8.16"/>
	
		<rect x="225.01" y="195.495" transform="matrix(-0.7071 0.7071 -0.7071 -0.7071 525.4746 178.5634)" style="fill:#DC8744;" width="1.492" height="5.232"/>
	
		<rect x="222.555" y="197.923" transform="matrix(-0.7071 0.7071 -0.7071 -0.7071 523.0012 184.4441)" style="fill:#DC8744;" width="1.492" height="5.232"/>
	
		<rect x="220.167" y="200.347" transform="matrix(-0.7071 0.7071 -0.7071 -0.7071 520.6374 190.2545)" style="fill:#DC8744;" width="1.492" height="5.232"/>
	
		<rect x="216.694" y="200.278" transform="matrix(-0.7071 0.7071 -0.7071 -0.7071 515.6969 195.1057)" style="fill:#DC8744;" width="1.492" height="8.16"/>
	
		<rect x="215.301" y="205.168" transform="matrix(-0.7071 0.7071 -0.7071 -0.7071 515.7413 201.9425)" style="fill:#DC8744;" width="1.492" height="5.232"/>
	
		<rect x="212.904" y="207.61" transform="matrix(-0.7071 0.7071 -0.7071 -0.7071 513.3759 207.8046)" style="fill:#DC8744;" width="1.492" height="5.232"/>
	
		<rect x="210.471" y="210.003" transform="matrix(-0.7071 0.7071 -0.7071 -0.7071 510.9142 213.6101)" style="fill:#DC8744;" width="1.492" height="5.232"/>
	
		<rect x="207.005" y="209.922" transform="matrix(-0.7071 0.7071 -0.7071 -0.7071 505.9753 218.4231)" style="fill:#DC8744;" width="1.492" height="8.16"/>
	
		<rect x="205.636" y="214.849" transform="matrix(-0.7071 0.7071 -0.7071 -0.7071 506.0876 225.2993)" style="fill:#DC8744;" width="1.492" height="5.232"/>
	
		<rect x="203.245" y="217.262" transform="matrix(-0.7071 0.7071 -0.7071 -0.7071 503.7108 231.1285)" style="fill:#DC8744;" width="1.492" height="5.232"/>
	
		<rect x="200.787" y="219.689" transform="matrix(-0.7071 0.7071 -0.7071 -0.7071 501.2314 236.9922)" style="fill:#DC8744;" width="1.492" height="5.232"/>
	
		<rect x="197.362" y="219.601" transform="matrix(-0.7071 0.7071 -0.7071 -0.7071 496.3583 241.7633)" style="fill:#DC8744;" width="1.492" height="8.16"/>
	
		<rect x="195.985" y="224.527" transform="matrix(-0.7071 0.7071 -0.7071 -0.7071 496.4555 248.6478)" style="fill:#DC8744;" width="1.492" height="5.232"/>
	
		<rect x="193.555" y="226.936" transform="matrix(-0.7071 0.7071 -0.7071 -0.7071 494.01 254.4774)" style="fill:#DC8744;" width="1.492" height="5.232"/>
	
		<rect x="191.159" y="229.354" transform="matrix(-0.7071 0.7071 -0.7071 -0.7071 491.6298 260.301)" style="fill:#DC8744;" width="1.492" height="5.232"/>
	
		<rect x="187.704" y="229.282" transform="matrix(-0.7071 0.7071 -0.7071 -0.7071 486.7169 265.1192)" style="fill:#DC8744;" width="1.492" height="8.16"/>
	
		<rect x="186.333" y="234.181" transform="matrix(-0.7071 0.7071 -0.7071 -0.7071 486.8068 271.9352)" style="fill:#DC8744;" width="1.492" height="5.232"/>
	
		<rect x="183.898" y="236.614" transform="matrix(-0.7071 0.7071 -0.7071 -0.7071 484.3686 277.8276)" style="fill:#DC8744;" width="1.492" height="5.232"/>
	
		<rect x="181.468" y="239.002" transform="matrix(-0.7071 0.7071 -0.7071 -0.7071 481.9079 283.6247)" style="fill:#DC8744;" width="1.492" height="5.232"/>
	
		<rect x="178.026" y="238.929" transform="matrix(-0.7071 0.7071 -0.7071 -0.7071 477.0159 288.4331)" style="fill:#DC8744;" width="1.492" height="8.16"/>
	
		<rect x="176.633" y="243.87" transform="matrix(-0.7071 0.7071 -0.7071 -0.7071 477.096 295.3519)" style="fill:#DC8744;" width="1.492" height="5.232"/>
	
		<rect x="174.247" y="246.286" transform="matrix(-0.7071 0.7071 -0.7071 -0.7071 474.7328 301.1642)" style="fill:#DC8744;" width="1.492" height="5.232"/>
	
		<rect x="171.795" y="248.68" transform="matrix(-0.7071 0.7071 -0.7071 -0.7071 472.2401 306.9846)" style="fill:#DC8744;" width="1.492" height="5.232"/>
	
		<rect x="168.364" y="248.587" transform="matrix(-0.7071 0.7071 -0.7071 -0.7071 467.3489 311.7595)" style="fill:#DC8744;" width="1.492" height="8.16"/>
	
		<rect x="166.985" y="253.5" transform="matrix(-0.7071 0.7071 -0.7071 -0.7071 467.436 318.6129)" style="fill:#DC8744;" width="1.492" height="5.232"/>
	
		<rect x="164.555" y="255.916" transform="matrix(-0.7071 0.7071 -0.7071 -0.7071 464.9973 324.4565)" style="fill:#DC8744;" width="1.492" height="5.232"/>
	
		<rect x="162.167" y="258.346" transform="matrix(-0.7071 0.7071 -0.7071 -0.7071 462.6385 330.2934)" style="fill:#DC8744;" width="1.492" height="5.232"/>
	
		<rect x="158.696" y="258.27" transform="matrix(-0.7071 0.7071 -0.7071 -0.7071 457.6923 335.1279)" style="fill:#DC8744;" width="1.492" height="8.16"/>
	
		<rect x="157.335" y="263.175" transform="matrix(-0.7071 0.7071 -0.7071 -0.7071 457.8043 341.9535)" style="fill:#DC8744;" width="1.492" height="5.232"/>
	
		<rect x="154.898" y="265.586" transform="matrix(-0.7071 0.7071 -0.7071 -0.7071 455.3491 347.7927)" style="fill:#DC8744;" width="1.492" height="5.232"/>
	
		<rect x="152.472" y="268.002" transform="matrix(-0.7071 0.7071 -0.7071 -0.7071 452.9192 353.6149)" style="fill:#DC8744;" width="1.492" height="5.232"/>
	
		<rect x="149.036" y="267.92" transform="matrix(-0.7071 0.7071 -0.7071 -0.7071 448.0239 358.4324)" style="fill:#DC8744;" width="1.492" height="8.16"/>
</g>
<g>
</g>
<g>
</g>
<g>
</g>
<g>
</g>
<g>
</g>
<g>
</g>
<g>
</g>
<g>
</g>
<g>
</g>
<g>
</g>
<g>
</g>
<g>
</g>
<g>
</g>
<g>
</g>
<g>
</g>
</svg>
