<?xml version="1.0" encoding="iso-8859-1"?>
<!-- Generator: Adobe Illustrator 19.0.0, SVG Export Plug-In . SVG Version: 6.00 Build 0)  -->
<svg xmlns="http://www.w3.org/2000/svg" xmlns:xlink="http://www.w3.org/1999/xlink" version="1.1" id="Capa_1" x="0px" y="0px" viewBox="0 0 384 384" style="enable-background:new 0 0 384 384;" xml:space="preserve">
<circle style="fill:#EA8953;" cx="192" cy="192" r="192"/>
<path style="opacity:0.1;enable-background:new    ;" d="M296.64,81.997H87.36c-2.96,0-5.36,2.4-5.36,5.36v209.279  c0,1.36,0.48,2.601,1.32,3.52l0.08,0.08l0.36,0.359l81.538,81.514c8.731,1.216,17.636,1.89,26.702,1.89  c106.039,0,192-85.961,192-192c0-9.067-0.674-17.972-1.89-26.705L300.6,83.757C299.64,82.677,298.2,81.997,296.64,81.997z"/>
<path style="fill:#64798A;" d="M296.654,82H87.347C84.394,82,82,84.394,82,87.346v31.274h220V87.346  C302,84.394,299.606,82,296.654,82z"/>
<circle style="fill:#FCD462;" cx="245.52" cy="100.32" r="6.04"/>
<circle style="fill:#44C4A1;" cx="267.08" cy="100.32" r="6.04"/>
<circle style="fill:#E56353;" cx="288.6" cy="100.32" r="6.04"/>
<path style="fill:#FFFFFF;" d="M129.081,118.62c-1.126,0-2.126-0.718-2.487-1.784l-2.943-8.703  c-0.361-1.067-1.361-1.784-2.487-1.784H93.969c-1.126,0-2.126,0.718-2.487,1.784l-2.942,8.703c-0.361,1.066-1.362,1.784-2.488,1.784  H82v178.034c0,2.952,2.394,5.346,5.346,5.346h209.309c2.952,0,5.346-2.393,5.346-5.346V118.62H129.081z"/>
<path style="fill:#EBF0F3;" d="M130.068,114.62h37.273l-2.194-6.488c-0.361-1.067-1.361-1.784-2.487-1.784h-35.486  c0.077,0.177,0.202,0.321,0.265,0.506L130.068,114.62z"/>
<g>
	<path style="fill:#E56353;" d="M180.368,247.337l-25.364,19.849c-11.647,9.114-28.538,7.052-37.653-4.596   c-9.115-11.648-7.056-28.539,4.59-37.654l25.364-19.848c11.647-9.114,28.541-7.055,37.656,4.594   C194.078,221.33,192.015,238.223,180.368,247.337z M129.338,234.386c-6.436,5.036-7.573,14.371-2.536,20.808   c5.037,6.437,14.372,7.577,20.807,2.541l25.364-19.849c6.439-5.038,7.576-14.373,2.539-20.81   c-5.038-6.437-14.372-7.577-20.81-2.539L129.338,234.386z"/>
	<path style="fill:#E56353;" d="M262.056,183.413l-25.364,19.849c-11.647,9.114-28.537,7.052-37.653-4.596   c-9.115-11.648-7.056-28.539,4.591-37.654l25.364-19.848c11.647-9.114,28.541-7.055,37.656,4.594   C275.765,157.405,273.703,174.299,262.056,183.413z M211.025,170.462c-6.436,5.036-7.573,14.371-2.536,20.808   s14.372,7.577,20.807,2.541l25.364-19.848c6.439-5.039,7.576-14.374,2.539-20.81c-5.038-6.437-14.372-7.577-20.81-2.539   L211.025,170.462z"/>
</g>
<path style="fill:#D15241;" d="M215.064,178.507l-53.521,41.883c-2.61,2.042-3.07,5.813-1.028,8.423  c2.042,2.61,5.814,3.07,8.423,1.028l53.521-41.883c2.61-2.042,3.07-5.813,1.028-8.423  C221.444,176.925,217.673,176.465,215.064,178.507z"/>
<g>
</g>
<g>
</g>
<g>
</g>
<g>
</g>
<g>
</g>
<g>
</g>
<g>
</g>
<g>
</g>
<g>
</g>
<g>
</g>
<g>
</g>
<g>
</g>
<g>
</g>
<g>
</g>
<g>
</g>
</svg>
