<?xml version="1.0" encoding="iso-8859-1"?>
<!-- Generator: Adobe Illustrator 19.0.0, SVG Export Plug-In . SVG Version: 6.00 Build 0)  -->
<svg xmlns="http://www.w3.org/2000/svg" xmlns:xlink="http://www.w3.org/1999/xlink" version="1.1" id="Capa_1" x="0px" y="0px" viewBox="0 0 384 384" style="enable-background:new 0 0 384 384;" xml:space="preserve">
<circle style="fill:#EA8953;" cx="192" cy="192" r="192"/>
<path style="opacity:0.1;enable-background:new    ;" d="M384,192c0-9.082-0.676-18.001-1.895-26.746L300.6,83.749  c-0.96-1.08-2.4-1.76-3.96-1.76H87.36c-2.96,0-5.36,2.4-5.36,5.36v214.64l79.589,79.589C171.497,383.156,181.648,384,192,384  C298.039,384,384,298.039,384,192z"/>
<path style="fill:#3A556A;" d="M296.657,82.003H87.35c-2.953,0-5.347,2.394-5.347,5.346v31.274h220V87.349  C302.003,84.397,299.609,82.003,296.657,82.003z"/>
<rect x="90.44" y="94.276" style="fill:#EBF0F3;" width="137.828" height="12.08"/>
<circle style="fill:#FCD462;" cx="245.52" cy="100.32" r="6.04"/>
<circle style="fill:#44C4A1;" cx="267.08" cy="100.32" r="6.04"/>
<circle style="fill:#E56353;" cx="288.6" cy="100.32" r="6.04"/>
<path style="fill:#FFFFFF;" d="M301.997,118.636v178.04c0,2.92-2.4,5.32-5.32,5.32H87.356c-2.96,0-5.359-2.4-5.359-5.32v-178.04  H301.997z"/>
<path style="fill:#EBF0F3;" d="M81.997,301.997h4.976c-0.849-6.206-0.752-13.294,0.403-20.978c8.152,1.77,16.044,4.455,23.564,7.946  l-6.781,13.033h11.566l4.316-8.295c4.284,2.482,8.384,5.272,12.315,8.295h27.283c4.219-5.465,8.224-11.48,11.9-18.021l23.874,12.423  c-1.194,1.95-2.492,3.798-3.836,5.598h12.434c1.069-1.734,2.149-3.458,3.104-5.293c21.317-40.969,5.328-91.645-35.641-112.963  c-29.703-15.456-64.458-11.223-89.478,7.844v13.437c4.517-4.338,9.53-8.038,14.907-11.041c3.657,5.756,7.721,11.17,12.209,16.158  c-5.386,6.445-10.449,13.824-15.026,21.968l-12.091-6.292v11.567l7.354,3.827c-2.965,6.176-5.384,12.317-7.354,18.356V301.997z   M147.127,301.005c-6.824-6.32-14.337-11.798-22.352-16.402l10.222-19.643l27.446,14.282  C157.834,287.373,152.626,294.696,147.127,301.005z M167.18,270.14l-27.446-14.282l8.669-16.66  c8.606,4.033,17.66,7.122,27.026,9.081C173.45,255.422,170.672,262.797,167.18,270.14z M188.442,210.093  c7.594,8.832,12.891,19.284,15.638,30.416c-5.436,0.181-10.833-0.033-16.162-0.633C189.883,228.959,190.043,218.821,188.442,210.093  z M205.882,250.683c1.246,12.176-0.57,24.753-5.732,36.614l-23.874-12.423c4.044-8.422,7.182-16.805,9.37-24.915  C192.306,250.771,199.072,250.992,205.882,250.683z M177.688,238.281c-8.504-1.766-16.728-4.548-24.552-8.18l17.756-34.123  C178.864,203.775,181.088,219.657,177.688,238.281z M161.789,191.242l-17.756,34.124c-7.465-4.324-14.463-9.462-20.788-15.413  C136.546,196.48,150.83,189.188,161.789,191.242z M106.276,189.617c10.693-4.14,22.292-5.799,33.883-4.649  c-8.066,3.699-16.279,9.647-24.092,17.522C112.517,198.47,109.244,194.173,106.276,189.617z M116.352,217.542  c6.98,6.544,14.705,12.186,22.948,16.92l-8.669,16.66l-27.446-14.282C107.194,229.768,111.639,223.26,116.352,217.542z   M98.448,245.942l27.446,14.282l-10.221,19.642c-8.369-3.925-17.166-6.937-26.258-8.902  C91.429,262.843,94.436,254.379,98.448,245.942z"/>
<g>
	<path style="fill:#E56353;" d="M118.686,224.897c0-2.84,1.918-4.836,4.605-4.836c2.681,0,4.524,1.996,4.524,4.836   c0,2.762-1.762,4.834-4.605,4.834C120.523,229.731,118.686,227.659,118.686,224.897z"/>
	<path style="fill:#E56353;" d="M162.663,227.506c-1.768,0.922-5.68,2.15-10.673,2.15c-11.204,0-18.49-7.598-18.49-18.955   c0-11.435,7.824-19.724,19.952-19.724c3.986,0,7.517,0.997,9.36,1.918l-1.531,5.218c-1.612-0.919-4.149-1.765-7.83-1.765   c-8.517,0-13.122,6.295-13.122,14.044c0,8.595,5.524,13.891,12.891,13.891c3.836,0,6.367-0.997,8.286-1.84L162.663,227.506z"/>
	<path style="fill:#E56353;" d="M203.742,210.01c0,13.734-9.517,19.721-18.496,19.721c-10.054,0-17.802-7.367-17.802-19.108   c0-12.432,8.136-19.72,18.415-19.72C196.524,190.902,203.742,198.65,203.742,210.01z M174.273,210.391   c0,8.136,4.68,14.275,11.278,14.275c6.449,0,11.279-6.061,11.279-14.428c0-6.292-3.143-14.272-11.122-14.272   C177.722,195.967,174.273,203.334,174.273,210.391z"/>
	<path style="fill:#E56353;" d="M212.283,201.797c0-3.837-0.081-6.983-0.312-10.051h5.911l0.306,5.986h0.231   c2.074-3.53,5.524-6.83,11.666-6.83c5.061,0,8.898,3.068,10.51,7.442h0.156c1.15-2.072,2.606-3.684,4.143-4.833   c2.224-1.69,4.68-2.609,8.21-2.609c4.912,0,12.204,3.221,12.204,16.115v21.87h-6.598v-21.027c0-7.136-2.612-11.435-8.061-11.435   c-3.836,0-6.83,2.84-7.979,6.139c-0.306,0.922-0.538,2.15-0.538,3.378v22.945h-6.598v-22.254c0-5.908-2.612-10.207-7.754-10.207   c-4.218,0-7.286,3.377-8.361,6.755c-0.388,0.996-0.537,2.146-0.537,3.299v22.408h-6.599V201.797z"/>
</g>
<g>
</g>
<g>
</g>
<g>
</g>
<g>
</g>
<g>
</g>
<g>
</g>
<g>
</g>
<g>
</g>
<g>
</g>
<g>
</g>
<g>
</g>
<g>
</g>
<g>
</g>
<g>
</g>
<g>
</g>
</svg>
