<?xml version="1.0" encoding="iso-8859-1"?>
<!-- Generator: Adobe Illustrator 19.0.0, SVG Export Plug-In . SVG Version: 6.00 Build 0)  -->
<svg xmlns="http://www.w3.org/2000/svg" xmlns:xlink="http://www.w3.org/1999/xlink" version="1.1" id="Capa_1" x="0px" y="0px" viewBox="0 0 384 384" style="enable-background:new 0 0 384 384;" xml:space="preserve">
<circle style="fill:#EA8953;" cx="192" cy="192" r="192"/>
<path style="opacity:0.1;enable-background:new    ;" d="M300.492,83.662L300.492,83.662c-0.526-0.548-1.16-0.977-1.877-1.263l0,0  C297.998,82.153,297.335,82,296.64,82H87.36C84.4,82,82,84.4,82,87.36v209.28v0.04c0,1.152,0.452,2.167,1.086,3.042  c0.11,0.193,0.206,0.396,0.354,0.558l0.077,0.078c0.043,0.044,0.084,0.085,0.129,0.128l0.114,0.114l81.506,81.506  C174.008,383.325,182.923,384,192,384c106.039,0,192-85.961,192-192c0-9.077-0.675-17.992-1.894-26.734L300.6,83.76  C300.568,83.724,300.525,83.697,300.492,83.662z"/>
<path style="fill:#3A556A;" d="M296.657,82.004H87.35c-2.953,0-5.347,2.394-5.347,5.346v31.274h220V87.35  C302.003,84.397,299.609,82.004,296.657,82.004z"/>
<rect x="90.44" y="94.276" style="fill:#EBF0F3;" width="137.828" height="12.08"/>
<circle style="fill:#FCD462;" cx="245.52" cy="100.32" r="6.04"/>
<circle style="fill:#44C4A1;" cx="267.08" cy="100.32" r="6.04"/>
<circle style="fill:#E56353;" cx="288.6" cy="100.32" r="6.04"/>
<path style="fill:#FFFFFF;" d="M301.997,118.636v178.04c0,2.92-2.4,5.32-5.32,5.32H87.356c-2.96,0-5.359-2.4-5.359-5.32v-178.04  H301.997z"/>
<path style="fill:#E56353;" d="M184.363,250.416c0.677-2.651,1.038-5.429,1.038-8.292c0-2.862-0.361-5.64-1.039-8.292l5.146-4.563  c0.83-0.736,1.027-1.953,0.472-2.912l-5.335-9.24c-0.554-0.96-1.707-1.398-2.758-1.047l-6.539,2.18  c-3.955-3.868-8.866-6.757-14.346-8.288l-1.381-6.747c-0.222-1.086-1.177-1.866-2.286-1.866h-10.67c-1.108,0-2.064,0.78-2.285,1.866  L143,209.961c-5.48,1.531-10.391,4.42-14.346,8.288l-6.54-2.18c-1.051-0.351-2.204,0.087-2.758,1.047l-5.335,9.24  c-0.554,0.96-0.357,2.177,0.473,2.912l5.146,4.563c-0.677,2.652-1.039,5.43-1.039,8.292c0,2.863,0.362,5.641,1.039,8.292  l-5.146,4.563c-0.83,0.735-1.028,1.953-0.473,2.912l5.335,9.24c0.554,0.96,1.707,1.397,2.758,1.047l6.54-2.18  c3.955,3.868,8.866,6.757,14.346,8.288l1.381,6.747c0.222,1.086,1.177,1.866,2.285,1.866h10.67c1.108,0,2.064-0.78,2.286-1.866  l1.381-6.747c5.48-1.531,10.391-4.42,14.346-8.288l6.539,2.18c1.051,0.35,2.204-0.087,2.758-1.047l5.335-9.24  c0.554-0.96,0.357-2.177-0.472-2.912L184.363,250.416z M152.002,267.269c-13.865,0-25.145-11.28-25.145-25.145  s11.28-25.146,25.145-25.146c13.865,0,25.146,11.28,25.146,25.146S165.867,267.269,152.002,267.269z"/>
<g>
	<path style="fill:#D15241;" d="M152.002,216.978c-13.865,0-25.145,11.28-25.145,25.146s11.28,25.145,25.145,25.145   c13.865,0,25.146-11.28,25.146-25.145S165.867,216.978,152.002,216.978z M152.002,264.469c-12.321,0-22.345-10.024-22.345-22.345   c0-12.321,10.024-22.345,22.345-22.345c12.321,0,22.345,10.024,22.345,22.345C174.346,254.444,164.323,264.469,152.002,264.469z"/>
	<circle style="fill:#D15241;" cx="152" cy="242.12" r="11.96"/>
</g>
<path style="fill:#44C4A1;" d="M192.999,176.206c0.524-2.052,0.804-4.202,0.804-6.418c0-2.216-0.28-4.366-0.804-6.418l3.984-3.532  c0.642-0.569,0.795-1.512,0.366-2.254l-4.13-7.152c-0.428-0.743-1.321-1.082-2.134-0.81l-5.062,1.687  c-3.061-2.994-6.862-5.23-11.104-6.415l-1.069-5.222c-0.172-0.84-0.911-1.444-1.769-1.444h-8.259c-0.858,0-1.598,0.604-1.769,1.444  l-1.068,5.222c-4.242,1.185-8.043,3.421-11.104,6.415l-5.062-1.687c-0.814-0.271-1.706,0.067-2.135,0.81l-4.129,7.152  c-0.429,0.743-0.276,1.685,0.366,2.254l3.982,3.532c-0.524,2.052-0.804,4.202-0.804,6.418c0,2.216,0.28,4.366,0.804,6.418  l-3.983,3.532c-0.642,0.569-0.795,1.511-0.366,2.254l4.129,7.152c0.429,0.743,1.321,1.082,2.135,0.81l5.062-1.687  c3.061,2.994,6.862,5.23,11.104,6.415l1.068,5.222c0.172,0.84,0.911,1.444,1.769,1.444h8.259c0.858,0,1.597-0.604,1.769-1.444  l1.069-5.222c4.242-1.185,8.043-3.421,11.104-6.415l5.062,1.687c0.814,0.272,1.706-0.067,2.134-0.81l4.13-7.152  c0.429-0.743,0.276-1.685-0.366-2.254L192.999,176.206z M167.952,189.25c-10.732,0-19.463-8.73-19.463-19.462  c0-10.732,8.731-19.463,19.463-19.463c10.732,0,19.463,8.731,19.463,19.463C187.414,180.52,178.683,189.25,167.952,189.25z"/>
<g>
	<path style="fill:#3EA69B;" d="M167.952,150.325c-10.732,0-19.463,8.731-19.463,19.463c0,10.732,8.731,19.462,19.463,19.462   c10.732,0,19.463-8.73,19.463-19.462C187.414,159.056,178.683,150.325,167.952,150.325z M167.952,187.083   c-9.536,0-17.295-7.759-17.295-17.295c0-9.537,7.758-17.295,17.295-17.295c9.536,0,17.295,7.758,17.295,17.295   C185.247,179.324,177.488,187.083,167.952,187.083z"/>
	<circle style="fill:#3EA69B;" cx="167.952" cy="169.8" r="9.26"/>
</g>
<path style="fill:#27A2DB;" d="M246.983,230.19c0.524-2.052,0.804-4.202,0.804-6.418s-0.28-4.366-0.804-6.418l3.984-3.532  c0.642-0.569,0.795-1.512,0.366-2.254l-4.13-7.152c-0.428-0.743-1.321-1.082-2.134-0.81l-5.062,1.687  c-3.061-2.994-6.862-5.23-11.104-6.415l-1.069-5.222c-0.171-0.84-0.911-1.444-1.769-1.444h-8.259c-0.858,0-1.598,0.604-1.769,1.444  l-1.068,5.222c-4.242,1.185-8.043,3.421-11.104,6.415l-5.062-1.687c-0.814-0.271-1.706,0.067-2.135,0.81l-4.129,7.152  c-0.429,0.743-0.276,1.685,0.366,2.254l3.983,3.532c-0.524,2.052-0.804,4.202-0.804,6.418s0.28,4.366,0.804,6.418l-3.983,3.532  c-0.642,0.569-0.795,1.511-0.366,2.254l4.129,7.152c0.429,0.743,1.321,1.082,2.135,0.81l5.062-1.688  c3.061,2.994,6.862,5.23,11.104,6.415l1.068,5.222c0.172,0.841,0.911,1.444,1.769,1.444h8.259c0.858,0,1.598-0.603,1.769-1.444  l1.069-5.222c4.242-1.185,8.043-3.421,11.104-6.415l5.062,1.688c0.814,0.271,1.706-0.068,2.134-0.81l4.13-7.152  c0.429-0.743,0.276-1.685-0.366-2.254L246.983,230.19z M221.936,243.235c-10.732,0-19.463-8.731-19.463-19.463  s8.731-19.463,19.463-19.463c10.732,0,19.463,8.731,19.463,19.463S232.667,243.235,221.936,243.235z"/>
<g>
	<path style="fill:#2D93BA;" d="M221.936,204.309c-10.732,0-19.463,8.731-19.463,19.463s8.731,19.463,19.463,19.463   c10.732,0,19.463-8.731,19.463-19.463S232.667,204.309,221.936,204.309z M221.936,241.067c-9.536,0-17.295-7.759-17.295-17.295   c0-9.537,7.758-17.295,17.295-17.295c9.537,0,17.295,7.758,17.295,17.295C239.231,233.308,231.472,241.067,221.936,241.067z"/>
	<circle style="fill:#2D93BA;" cx="221.92" cy="223.772" r="9.26"/>
</g>
<g>
</g>
<g>
</g>
<g>
</g>
<g>
</g>
<g>
</g>
<g>
</g>
<g>
</g>
<g>
</g>
<g>
</g>
<g>
</g>
<g>
</g>
<g>
</g>
<g>
</g>
<g>
</g>
<g>
</g>
</svg>
