<?xml version="1.0" encoding="iso-8859-1"?>
<!-- Generator: Adobe Illustrator 19.0.0, SVG Export Plug-In . SVG Version: 6.00 Build 0)  -->
<svg xmlns="http://www.w3.org/2000/svg" xmlns:xlink="http://www.w3.org/1999/xlink" version="1.1" id="Capa_1" x="0px" y="0px" viewBox="0 0 384 384" style="enable-background:new 0 0 384 384;" xml:space="preserve">
<circle style="fill:#EA8953;" cx="192" cy="192" r="192"/>
<path style="opacity:0.1;enable-background:new    ;" d="M384,192c0-9.018-0.669-17.877-1.872-26.564L301.12,84.397  c-0.96-1.44-2.6-2.4-4.48-2.4H87.36c-2.96,0-5.36,2.4-5.36,5.36v209.279c0,1.561,0.68,2.96,1.72,3.92l0.04,0.04l81.509,81.51  C174.01,383.324,182.924,384,192,384C298.039,384,384,298.038,384,192z"/>
<path style="fill:#64798A;" d="M296.654,82H87.347C84.394,82,82,84.394,82,87.346v31.274h220V87.346  C302,84.394,299.606,82,296.654,82z"/>
<circle style="fill:#FCD462;" cx="245.52" cy="100.32" r="6.04"/>
<circle style="fill:#44C4A1;" cx="267.08" cy="100.32" r="6.04"/>
<circle style="fill:#E56353;" cx="288.6" cy="100.32" r="6.04"/>
<path style="fill:#FFFFFF;" d="M129.081,118.62c-1.126,0-2.126-0.718-2.487-1.784l-2.943-8.703  c-0.361-1.067-1.361-1.784-2.487-1.784H93.969c-1.126,0-2.126,0.718-2.487,1.784l-2.942,8.703c-0.361,1.066-1.362,1.784-2.488,1.784  H82v178.034c0,2.952,2.394,5.346,5.346,5.346h209.309c2.952,0,5.346-2.393,5.346-5.346V118.62H129.081z"/>
<path style="fill:#EBF0F3;" d="M130.068,114.62h37.273l-2.194-6.488c-0.361-1.067-1.361-1.784-2.487-1.784h-35.486  c0.077,0.177,0.202,0.321,0.265,0.506L130.068,114.62z"/>
<path style="fill:#3A556A;" d="M192.024,135.969c0,0-21.908,18.638-59.629,20.026c0,0-0.446,102.902,59.629,116.384  c60.076-13.482,59.58-116.384,59.58-116.384C213.885,154.607,192.024,135.969,192.024,135.969z M195.995,148.316  c9.316,5.499,25.457,12.939,47.352,15.132c-0.455,8.235-1.731,22.381-5.236,37.568h-42.115V148.316z M187.995,148.344v52.672  h-42.119c-3.506-15.187-4.776-29.333-5.228-37.568C162.52,161.262,178.659,153.841,187.995,148.344z M147.919,209.015h40.076v53.856  C166.123,254.888,154.308,231.738,147.919,209.015z M195.995,262.896v-53.88h40.072  C229.673,231.762,217.858,254.939,195.995,262.896z"/>
<path style="fill:#FCD462;" d="M187.995,209.015h-40.076c6.39,22.723,18.204,45.872,40.076,53.856V209.015z"/>
<path style="fill:#E56353;" d="M195.995,209.015v53.88c21.863-7.957,33.678-31.133,40.072-53.88H195.995z"/>
<path style="fill:#FCD462;" d="M243.347,163.448c-21.895-2.193-38.035-9.633-47.352-15.132v52.7h42.115  C241.616,185.829,242.892,171.682,243.347,163.448z"/>
<path style="fill:#E56353;" d="M187.995,201.015v-52.672c-9.336,5.497-25.476,12.918-47.348,15.104  c0.452,8.235,1.722,22.381,5.228,37.568H187.995z"/>
<g>
</g>
<g>
</g>
<g>
</g>
<g>
</g>
<g>
</g>
<g>
</g>
<g>
</g>
<g>
</g>
<g>
</g>
<g>
</g>
<g>
</g>
<g>
</g>
<g>
</g>
<g>
</g>
<g>
</g>
</svg>
