<?xml version="1.0" encoding="iso-8859-1"?>
<!-- Generator: Adobe Illustrator 19.0.0, SVG Export Plug-In . SVG Version: 6.00 Build 0)  -->
<svg xmlns="http://www.w3.org/2000/svg" xmlns:xlink="http://www.w3.org/1999/xlink" version="1.1" id="Capa_1" x="0px" y="0px" viewBox="0 0 384 384" style="enable-background:new 0 0 384 384;" xml:space="preserve">
<circle style="fill:#EFC84A;" cx="192" cy="192" r="192"/>
<path style="opacity:0.1;enable-background:new    ;" d="M296.64,81.997H87.36c-2.96,0-5.36,2.4-5.36,5.36v209.279  c0,1.641,0.76,3.12,1.92,4.08l0.04,0.04l81.39,81.36C174.064,383.328,182.952,384,192,384c106.039,0,192-85.961,192-192  c0-9.078-0.675-17.994-1.894-26.737L300.36,83.518C299.4,82.557,298.08,81.997,296.64,81.997z"/>
<path style="fill:#64798A;" d="M296.654,82H87.347C84.394,82,82,84.394,82,87.346v31.274h220V87.346  C302,84.394,299.606,82,296.654,82z"/>
<circle style="fill:#FCD462;" cx="245.52" cy="100.32" r="6.04"/>
<circle style="fill:#44C4A1;" cx="267.08" cy="100.32" r="6.04"/>
<circle style="fill:#E56353;" cx="288.6" cy="100.32" r="6.04"/>
<path style="fill:#FFFFFF;" d="M129.081,118.62c-1.126,0-2.126-0.718-2.487-1.784l-2.943-8.703  c-0.361-1.067-1.361-1.784-2.487-1.784H93.969c-1.126,0-2.126,0.718-2.487,1.784l-2.942,8.703c-0.361,1.066-1.362,1.784-2.488,1.784  H82v178.034c0,2.952,2.394,5.346,5.346,5.346h209.309c2.952,0,5.346-2.393,5.346-5.346V118.62H129.081z"/>
<path style="fill:#EBF0F3;" d="M130.068,114.62h37.273l-2.194-6.488c-0.361-1.067-1.361-1.784-2.487-1.784h-35.486  c0.077,0.177,0.202,0.321,0.265,0.506L130.068,114.62z"/>
<g>
	<polygon style="fill:#27A2DB;" points="140.046,151.296 140.045,151.296 127.845,178.653 166.007,178.653  "/>
	<polygon style="fill:#27A2DB;" points="243.955,151.296 243.875,151.296 217.914,178.653 256.155,178.653 256.155,178.653  "/>
	<polygon style="fill:#27A2DB;" points="166.007,178.653 217.914,178.653 191.96,151.303  "/>
</g>
<g>
	<polygon style="fill:#2D93BA;" points="192,265.21 256.155,178.653 217.914,178.653  "/>
	<polygon style="fill:#2D93BA;" points="127.845,178.653 127.845,178.653 192,265.21 166.007,178.653  "/>
	<polygon style="fill:#2D93BA;" points="191.96,151.303 191.954,151.296 140.046,151.296 166.007,178.653  "/>
	<polygon style="fill:#2D93BA;" points="217.914,178.653 243.875,151.296 191.967,151.296 191.96,151.303  "/>
</g>
<polygon style="fill:#FFFFFF;" points="191.967,151.296 191.954,151.296 191.96,151.303 "/>
<polygon style="fill:#1C75A1;" points="166.007,178.653 192,265.21 217.914,178.653 "/>
<g>
</g>
<g>
</g>
<g>
</g>
<g>
</g>
<g>
</g>
<g>
</g>
<g>
</g>
<g>
</g>
<g>
</g>
<g>
</g>
<g>
</g>
<g>
</g>
<g>
</g>
<g>
</g>
<g>
</g>
</svg>
