<?xml version="1.0" encoding="iso-8859-1"?>
<!-- Generator: Adobe Illustrator 19.0.0, SVG Export Plug-In . SVG Version: 6.00 Build 0)  -->
<svg xmlns="http://www.w3.org/2000/svg" xmlns:xlink="http://www.w3.org/1999/xlink" version="1.1" id="Capa_1" x="0px" y="0px" viewBox="0 0 384 384" style="enable-background:new 0 0 384 384;" xml:space="preserve">
<circle style="fill:#EFC84A;" cx="192" cy="192" r="192"/>
<path style="opacity:0.1;enable-background:new    ;" d="M300.51,83.69c-0.977-1.031-2.338-1.69-3.87-1.69H87.36  C84.4,82,82,84.4,82,87.36v209.28c0,1.304,0.522,2.455,1.296,3.384l-0.058,0.004l0.186,0.186c0.117,0.129,0.233,0.244,0.362,0.362  l81.538,81.538C174.047,383.327,182.943,384,192,384c106.039,0,192-85.961,192-192c0-9.078-0.675-17.995-1.894-26.737L300.52,83.677  L300.51,83.69z"/>
<path style="fill:#64798A;" d="M296.654,82H87.347C84.394,82,82,84.394,82,87.346v35.274h220V87.346  C302,84.394,299.606,82,296.654,82z"/>
<path style="fill:#EBF0F3;" d="M302,122.62H129.081c-1.126,0-2.126-0.718-2.487-1.784l-2.943-8.703  c-0.361-1.066-1.361-1.784-2.487-1.784H93.969c-1.126,0-2.126,0.718-2.487,1.784l-2.942,8.703c-0.361,1.066-1.362,1.784-2.488,1.784  H82v159.246h220V122.62z"/>
<path style="fill:#D5D6DB;" d="M82,281.867v14.787c0,2.952,2.394,5.346,5.346,5.346h209.309c2.952,0,5.346-2.394,5.346-5.346  v-14.788H82z"/>
<circle style="fill:#FCD462;" cx="245.52" cy="96.32" r="6.04"/>
<circle style="fill:#44C4A1;" cx="267.08" cy="96.32" r="6.04"/>
<circle style="fill:#E56353;" cx="288.6" cy="96.32" r="6.04"/>
<path style="fill:#EBF0F3;" d="M130.068,118.62h37.273l-2.194-6.488c-0.361-1.066-1.361-1.784-2.487-1.784h-35.486  c0.077,0.177,0.202,0.321,0.265,0.506L130.068,118.62z"/>
<rect x="82" y="131.892" style="fill:#E1E6E9;" width="220" height="57.3"/>
<circle style="fill:#D5D6DB;" cx="93.924" cy="160.56" r="5.504"/>
<polygon style="fill:#EBF0F3;" points="90.918,160.541 94.664,164.288 94.664,156.795 "/>
<circle style="fill:#D5D6DB;" cx="290.08" cy="160.56" r="5.504"/>
<polygon style="fill:#EBF0F3;" points="293.082,160.541 289.336,164.288 289.336,156.795 "/>
<circle style="fill:#27A2DB;" cx="259" cy="290.44" r="4.16"/>
<circle style="fill:#E56353;" cx="271.896" cy="290.44" r="4.16"/>
<circle style="fill:#44C4A1;" cx="284.8" cy="290.44" r="4.16"/>
<g>
	<rect x="90.92" y="288.44" style="fill:#64798A;" width="59.2" height="4"/>
	<rect x="93.28" y="250.92" style="fill:#64798A;" width="39.588" height="4"/>
	<rect x="93.28" y="266.4" style="fill:#64798A;" width="26.544" height="4"/>
	<rect x="145.88" y="250.92" style="fill:#64798A;" width="39.588" height="4"/>
	<rect x="145.88" y="266.4" style="fill:#64798A;" width="26.544" height="4"/>
	<rect x="198.52" y="250.92" style="fill:#64798A;" width="39.588" height="4"/>
	<rect x="198.52" y="266.4" style="fill:#64798A;" width="26.544" height="4"/>
	<rect x="251.16" y="250.92" style="fill:#64798A;" width="39.588" height="4"/>
	<rect x="251.16" y="266.4" style="fill:#64798A;" width="26.544" height="4"/>
</g>
<path style="fill:#44C4A1;" d="M182.206,198.779h-33.04c-1.808,0-3.274,1.466-3.274,3.274v33.04c0,1.808,1.466,3.274,3.274,3.274  h33.04c1.808,0,3.274-1.466,3.274-3.274v-33.04C185.48,200.245,184.014,198.779,182.206,198.779z"/>
<path style="fill:#FCD462;" d="M129.578,198.779H96.537c-1.808,0-3.274,1.466-3.274,3.274v33.04c0,1.808,1.466,3.274,3.274,3.274  h33.041c1.808,0,3.274-1.466,3.274-3.274v-33.04C132.852,200.245,131.386,198.779,129.578,198.779z"/>
<path style="fill:#E56353;" d="M234.834,198.779h-33.04c-1.808,0-3.274,1.466-3.274,3.274v33.04c0,1.808,1.466,3.274,3.274,3.274  h33.04c1.808,0,3.274-1.466,3.274-3.274v-33.04C238.108,200.245,236.642,198.779,234.834,198.779z"/>
<path style="fill:#27A2DB;" d="M287.463,198.779h-33.041c-1.808,0-3.274,1.466-3.274,3.274v33.04c0,1.808,1.466,3.274,3.274,3.274  h33.041c1.808,0,3.274-1.466,3.274-3.274v-33.04C290.736,200.245,289.27,198.779,287.463,198.779z"/>
<rect x="89.988" y="90.272" style="fill:#EBF0F3;" width="140.48" height="12.08"/>
<g>
</g>
<g>
</g>
<g>
</g>
<g>
</g>
<g>
</g>
<g>
</g>
<g>
</g>
<g>
</g>
<g>
</g>
<g>
</g>
<g>
</g>
<g>
</g>
<g>
</g>
<g>
</g>
<g>
</g>
</svg>
