<?xml version="1.0" encoding="iso-8859-1"?>
<!-- Generator: Adobe Illustrator 19.0.0, SVG Export Plug-In . SVG Version: 6.00 Build 0)  -->
<svg xmlns="http://www.w3.org/2000/svg" xmlns:xlink="http://www.w3.org/1999/xlink" version="1.1" id="Capa_1" x="0px" y="0px" viewBox="0 0 384 384" style="enable-background:new 0 0 384 384;" xml:space="preserve">
<circle style="fill:#EFC84A;" cx="192" cy="192" r="192"/>
<path style="opacity:0.1;enable-background:new    ;" d="M296.64,81.997H87.36c-2.96,0-5.36,2.4-5.36,5.36v209.279  c0,1.48,0.6,2.801,1.52,3.76l0.04,0.041l81.694,81.667C173.999,383.324,182.919,384,192,384c106.039,0,192-85.961,192-192  c0-9.067-0.674-17.972-1.89-26.705L300.6,83.757C299.64,82.677,298.2,81.997,296.64,81.997z"/>
<path style="fill:#64798A;" d="M296.654,82H87.347C84.394,82,82,84.394,82,87.346v31.274h220V87.346  C302,84.394,299.606,82,296.654,82z"/>
<circle style="fill:#FCD462;" cx="245.52" cy="100.32" r="6.04"/>
<circle style="fill:#44C4A1;" cx="267.08" cy="100.32" r="6.04"/>
<circle style="fill:#E56353;" cx="288.6" cy="100.32" r="6.04"/>
<path style="fill:#FFFFFF;" d="M129.081,118.62c-1.126,0-2.126-0.718-2.487-1.784l-2.943-8.703  c-0.361-1.067-1.361-1.784-2.487-1.784H93.969c-1.126,0-2.126,0.718-2.487,1.784l-2.942,8.703c-0.361,1.066-1.362,1.784-2.488,1.784  H82v178.034c0,2.952,2.394,5.346,5.346,5.346h209.309c2.952,0,5.346-2.393,5.346-5.346V118.62H129.081z"/>
<path style="fill:#EBF0F3;" d="M130.068,114.62h37.273l-2.194-6.488c-0.361-1.067-1.361-1.784-2.487-1.784h-35.486  c0.077,0.177,0.202,0.321,0.265,0.506L130.068,114.62z"/>
<path style="fill:#D15241;" d="M154.144,200.741c0.71-7.921,3.836-15.142,8.654-20.914l-10.552-10.551  c-7.482,8.516-12.25,19.434-13.023,31.465H154.144z"/>
<path style="fill:#E56353;" d="M162.798,228.521c-4.818-5.772-7.944-12.993-8.654-20.914h-14.921  c0.774,12.031,5.542,22.949,13.023,31.465L162.798,228.521z"/>
<path style="fill:#CE412D;" d="M167.653,174.972c5.772-4.818,12.992-7.944,20.914-8.654v-14.921  c-12.031,0.774-22.949,5.542-31.465,13.024L167.653,174.972z"/>
<g>
	<path style="fill:#E87269;" d="M195.433,151.397v14.921c7.921,0.71,15.142,3.836,20.914,8.653l10.55-10.55   C218.382,156.939,207.464,152.171,195.433,151.397z"/>
	<path style="fill:#E87269;" d="M229.856,207.607c-0.71,7.922-3.836,15.142-8.654,20.914l10.551,10.551   c7.482-8.516,12.25-19.434,13.024-31.465H229.856z"/>
	<path style="fill:#E87269;" d="M221.202,179.827c4.818,5.772,7.944,12.993,8.654,20.914h14.92   c-0.774-12.031-5.541-22.949-13.023-31.465L221.202,179.827z"/>
	<path style="fill:#E87269;" d="M216.347,233.376c-5.772,4.818-12.993,7.944-20.914,8.653v14.921   c12.031-0.774,22.949-5.542,31.465-13.024L216.347,233.376z"/>
	<path style="fill:#E87269;" d="M188.566,242.03c-7.921-0.71-15.142-3.836-20.914-8.654l-10.551,10.551   c8.516,7.482,19.434,12.25,31.465,13.024V242.03z"/>
</g>
<g>
</g>
<g>
</g>
<g>
</g>
<g>
</g>
<g>
</g>
<g>
</g>
<g>
</g>
<g>
</g>
<g>
</g>
<g>
</g>
<g>
</g>
<g>
</g>
<g>
</g>
<g>
</g>
<g>
</g>
</svg>
