<?xml version="1.0" encoding="iso-8859-1"?>
<!-- Generator: Adobe Illustrator 19.0.0, SVG Export Plug-In . SVG Version: 6.00 Build 0)  -->
<svg xmlns="http://www.w3.org/2000/svg" xmlns:xlink="http://www.w3.org/1999/xlink" version="1.1" id="Capa_1" x="0px" y="0px" viewBox="0 0 384 384" style="enable-background:new 0 0 384 384;" xml:space="preserve">
<circle style="fill:#E05B49;" cx="192" cy="192" r="192"/>
<path style="opacity:0.1;enable-background:new    ;" d="M296.64,81.997H87.36c-2.96,0-5.36,2.4-5.36,5.36v209.279  c0,1.48,0.6,2.84,1.6,3.801l0.16,0.159l81.509,81.51C174.01,383.324,182.924,384,192,384c106.039,0,192-85.962,192-192  c0-9.062-0.674-17.964-1.888-26.691L300.76,83.957C299.8,82.757,298.32,81.997,296.64,81.997z"/>
<path style="fill:#64798A;" d="M296.654,82H87.347C84.394,82,82,84.394,82,87.346v31.274h220V87.346  C302,84.394,299.606,82,296.654,82z"/>
<circle style="fill:#FCD462;" cx="245.52" cy="100.32" r="6.04"/>
<circle style="fill:#44C4A1;" cx="267.08" cy="100.32" r="6.04"/>
<circle style="fill:#E56353;" cx="288.6" cy="100.32" r="6.04"/>
<path style="fill:#FFFFFF;" d="M129.081,118.62c-1.126,0-2.126-0.718-2.487-1.784l-2.943-8.703  c-0.361-1.067-1.361-1.784-2.487-1.784H93.969c-1.126,0-2.126,0.718-2.487,1.784l-2.942,8.703c-0.361,1.066-1.362,1.784-2.488,1.784  H82v178.034c0,2.952,2.394,5.346,5.346,5.346h209.309c2.952,0,5.346-2.393,5.346-5.346V118.62H129.081z"/>
<path style="fill:#EBF0F3;" d="M130.068,114.62h37.273l-2.194-6.488c-0.361-1.067-1.361-1.784-2.487-1.784h-35.486  c0.077,0.177,0.202,0.321,0.265,0.506L130.068,114.62z"/>
<path style="fill:#64798A;" d="M166.262,237.404l-25.332,13.493c-11.632,6.196-26.136,1.772-32.333-9.862  s-1.775-26.138,9.857-32.334l25.332-13.493c11.632-6.196,26.139-1.773,32.336,9.86S177.894,231.208,166.262,237.404z   M123.482,218.139c-6.427,3.423-8.87,11.439-5.446,17.868c3.424,6.429,11.44,8.874,17.867,5.451l25.332-13.493  c6.43-3.425,8.874-11.441,5.449-17.87c-3.424-6.429-11.44-8.874-17.87-5.449L123.482,218.139z"/>
<path style="fill:#3A556A;" d="M183.516,198.179l-3.065-1.475l-26.539,14.136c-2.606,1.388-3.594,4.626-2.206,7.233  c1.388,2.606,4.626,3.594,7.232,2.205l26.669-14.204l-2.545-1.929L183.516,198.179z"/>
<path style="fill:#64798A;" d="M246.226,250.024l-27.014-9.695c-12.404-4.452-18.873-18.167-14.421-30.573  c4.452-12.406,18.166-18.878,30.571-14.426l27.014,9.696c12.405,4.452,18.877,18.168,14.424,30.574  C272.347,248.006,258.63,254.476,246.226,250.024z M231.749,205.396c-6.854-2.46-14.433,1.117-16.893,7.973  c-2.461,6.856,1.114,14.435,7.968,16.895l27.014,9.695c6.858,2.461,14.436-1.116,16.896-7.972c2.46-6.856-1.114-14.435-7.971-16.896  L231.749,205.396z"/>
<path style="fill:#3A556A;" d="M227.602,212.262l-28.7-10.301l0.967,3.261l-4.724,3.673l0.282,3.181l28.563,10.251  c2.78,0.998,5.842-0.447,6.839-3.226C231.826,216.322,230.381,213.26,227.602,212.262z"/>
<g>
	
		<rect x="173.243" y="169.287" transform="matrix(-0.9099 0.4149 -0.4149 -0.9099 408.3347 266.2711)" style="fill:#64798A;" width="4" height="16.408"/>
	
		<rect x="203.381" y="175.468" transform="matrix(-0.4149 0.9099 -0.9099 -0.4149 460.8386 58.5729)" style="fill:#64798A;" width="16.408" height="4"/>
	<rect x="191.42" y="170.692" style="fill:#64798A;" width="4" height="13.572"/>
	
		<rect x="209.607" y="241.791" transform="matrix(-0.9098 0.4149 -0.4149 -0.9098 507.8712 389.6485)" style="fill:#64798A;" width="4" height="16.408"/>
	
		<rect x="167.05" y="247.976" transform="matrix(-0.415 0.9098 -0.9098 -0.415 475.4174 194.2601)" style="fill:#64798A;" width="16.408" height="4"/>
	<rect x="191.42" y="243.2" style="fill:#64798A;" width="4" height="13.572"/>
</g>
<g>
</g>
<g>
</g>
<g>
</g>
<g>
</g>
<g>
</g>
<g>
</g>
<g>
</g>
<g>
</g>
<g>
</g>
<g>
</g>
<g>
</g>
<g>
</g>
<g>
</g>
<g>
</g>
<g>
</g>
</svg>
