<?xml version="1.0" encoding="iso-8859-1"?>
<!-- Generator: Adobe Illustrator 19.0.0, SVG Export Plug-In . SVG Version: 6.00 Build 0)  -->
<svg xmlns="http://www.w3.org/2000/svg" xmlns:xlink="http://www.w3.org/1999/xlink" version="1.1" id="Capa_1" x="0px" y="0px" viewBox="0 0 384 384" style="enable-background:new 0 0 384 384;" xml:space="preserve">
<circle style="fill:#EFC84A;" cx="192" cy="192" r="192"/>
<path style="opacity:0.1;enable-background:new    ;" d="M384,192c0-9.077-0.675-17.992-1.894-26.734L300.6,83.76  c-0.96-1.08-2.4-1.76-3.96-1.76H87.36C84.4,82,82,84.4,82,87.36v209.28c0,1.4,0.56,2.68,1.44,3.64l0.32,0.32l81.506,81.506  C174.008,383.325,182.923,384,192,384C298.039,384,384,298.038,384,192z"/>
<path style="fill:#FFFFFF;" d="M296.654,82H87.347C84.394,82,82,84.394,82,87.346v209.308c0,2.952,2.394,5.346,5.347,5.346h209.308  c2.952,0,5.346-2.394,5.346-5.346V87.346C302,84.394,299.606,82,296.654,82z"/>
<path style="fill:#64798A;" d="M296.654,82H87.347C84.394,82,82,84.394,82,87.346v31.274h220V87.346  C302,84.394,299.606,82,296.654,82z"/>
<rect x="90.44" y="94.272" style="fill:#EBF0F3;" width="137.828" height="12.08"/>
<circle style="fill:#FCD462;" cx="245.52" cy="100.32" r="6.04"/>
<circle style="fill:#44C4A1;" cx="267.08" cy="100.32" r="6.04"/>
<circle style="fill:#E56353;" cx="288.6" cy="100.32" r="6.04"/>
<path style="fill:#FCD462;" d="M190.05,144.322c-24.154,0.987-43.955,21.15-44.536,45.317c-0.299,12.448,4.306,23.798,12.013,32.293  c9.413,10.376,14.391,24.022,14.391,38.03v0.492h40.167v-0.472c0-14.446,5.803-28.034,15.219-38.988  c6.976-8.117,11.197-18.664,11.197-30.212C238.5,164.453,216.62,143.236,190.05,144.322z"/>
<path style="fill:#DC8744;" d="M208.648,178.908c-5.129,0-9.301,4.172-9.301,9.299v5.301h-14.696v-5.301  c0-5.127-4.172-9.299-9.3-9.299c-5.125,0-9.297,4.172-9.297,9.299c0,5.129,4.172,9.301,9.297,9.301h5.434l4.323,63.084l3.992-0.274  l-4.309-62.81h14.414l-4.308,62.81l3.992,0.274l4.323-63.084h5.435c5.129,0,9.301-4.172,9.301-9.301  C217.948,183.08,213.776,178.908,208.648,178.908z M175.351,193.507c-2.922,0-5.297-2.377-5.297-5.301  c0-2.922,2.375-5.299,5.297-5.299c2.922,0,5.3,2.377,5.3,5.299v5.301h-0.14H175.351z M208.648,193.507h-5.16h-0.14v-5.301  c0-2.922,2.379-5.299,5.301-5.299c2.922,0,5.301,2.377,5.301,5.299C213.948,191.13,211.569,193.507,208.648,193.507z"/>
<path style="fill:#64798A;" d="M171.917,260.454v21.234c0,0.726,0.589,1.315,1.315,1.315h37.536c0.727,0,1.316-0.589,1.316-1.315  v-21.234H171.917z"/>
<g>
	<path style="fill:#3A556A;" d="M212.073,260.688l-40.886,5.728c-1.463,0.205-2.483,1.557-2.278,3.02   c0.205,1.463,1.557,2.483,3.02,2.278l40.886-5.728c1.463-0.205,2.483-1.557,2.278-3.02   C214.888,261.503,213.536,260.483,212.073,260.688z"/>
	<path style="fill:#3A556A;" d="M212.073,270.907l-40.886,5.728c-1.463,0.205-2.483,1.557-2.278,3.02s1.557,2.483,3.02,2.278   l40.886-5.728c1.463-0.205,2.483-1.557,2.278-3.02C214.888,271.722,213.536,270.702,212.073,270.907z"/>
	<path style="fill:#3A556A;" d="M181.748,283.003c0,1.856,4.59,3.36,10.252,3.36c5.662,0,10.252-1.504,10.252-3.36H181.748z"/>
</g>
<g>
</g>
<g>
</g>
<g>
</g>
<g>
</g>
<g>
</g>
<g>
</g>
<g>
</g>
<g>
</g>
<g>
</g>
<g>
</g>
<g>
</g>
<g>
</g>
<g>
</g>
<g>
</g>
<g>
</g>
</svg>
