<?xml version="1.0" encoding="iso-8859-1"?>
<!-- Generator: Adobe Illustrator 19.0.0, SVG Export Plug-In . SVG Version: 6.00 Build 0)  -->
<svg xmlns="http://www.w3.org/2000/svg" xmlns:xlink="http://www.w3.org/1999/xlink" version="1.1" id="Capa_1" x="0px" y="0px" viewBox="0 0 384 384" style="enable-background:new 0 0 384 384;" xml:space="preserve">
<circle style="fill:#E05B49;" cx="192" cy="192" r="192"/>
<path style="opacity:0.1;enable-background:new    ;" d="M384,192c0-1.48-0.078-2.94-0.112-4.41L279.84,83.571l-0.2-0.2  c-0.76-0.84-1.88-1.36-3.12-1.36H107.48c-2.4,0-4.32,1.92-4.32,4.32v163.88c0,1.04,0.4,2,1.04,2.761l29.24,29.239H82v8  l92.997,92.998C180.604,383.701,186.266,384,192,384C298.039,384,384,298.039,384,192z"/>
<g>
	<rect x="82" y="282.2" style="fill:#3A556A;" width="220" height="8"/>
	<rect x="188" y="250.84" style="fill:#3A556A;" width="8" height="24.392"/>
</g>
<path style="fill:#64798A;" d="M204.054,270.439h-24.109c-2.058,0-3.726,1.668-3.726,3.726v24.109c0,2.058,1.668,3.726,3.726,3.726  h24.109c2.058,0,3.726-1.668,3.726-3.726v-24.109C207.779,272.107,206.111,270.439,204.054,270.439z"/>
<path style="fill:#3A556A;" d="M276.516,82H107.483c-2.385,0-4.318,1.933-4.318,4.317v25.257h177.668V86.317  C280.833,83.933,278.9,82,276.516,82z"/>
<circle style="fill:#FCD462;" cx="235.24" cy="96.8" r="4.876"/>
<circle style="fill:#44C4A1;" cx="252.6" cy="96.8" r="4.876"/>
<circle style="fill:#E56353;" cx="270" cy="96.8" r="4.876"/>
<path style="fill:#EBF0F3;" d="M141.984,108.344h30.102l-1.772-5.239c-0.292-0.861-1.1-1.441-2.009-1.441h-28.658  c0.062,0.142,0.163,0.259,0.214,0.409L141.984,108.344z"/>
<path style="fill:#64798A;" d="M280.833,111.574H141.187c-0.909,0-1.717-0.58-2.009-1.441l-2.376-7.028  c-0.291-0.862-1.1-1.441-2.009-1.441h-21.962c-0.91,0-1.718,0.58-2.009,1.441l-2.376,7.028c-0.292,0.861-1.099,1.441-2.009,1.441  h-3.272v14.797h177.668V111.574z"/>
<g>
	<path style="fill:#FFFFFF;" d="M103.165,250.192c0,2.384,1.933,4.317,4.317,4.317h169.034c2.384,0,4.317-1.933,4.317-4.317V126.371   H103.165V250.192z"/>
	<path style="fill:#FFFFFF;" d="M135.446,120.911h-19.369c-1.07,0-1.937-0.868-1.937-1.938c0-1.071,0.868-1.939,1.937-1.939h19.369   c1.07,0,1.937,0.868,1.937,1.939C137.383,120.043,136.516,120.911,135.446,120.911z"/>
	<path style="fill:#FFFFFF;" d="M168.566,120.911h-19.369c-1.07,0-1.937-0.868-1.937-1.938c0-1.071,0.867-1.939,1.937-1.939h19.369   c1.07,0,1.937,0.868,1.937,1.939C170.504,120.043,169.636,120.911,168.566,120.911z"/>
	<path style="fill:#FFFFFF;" d="M201.684,120.911h-19.366c-1.07,0-1.937-0.868-1.937-1.938c0-1.071,0.867-1.939,1.937-1.939h19.366   c1.07,0,1.937,0.868,1.937,1.939C203.621,120.043,202.753,120.911,201.684,120.911z"/>
	<path style="fill:#FFFFFF;" d="M234.804,120.911h-19.369c-1.07,0-1.937-0.868-1.937-1.938c0-1.071,0.867-1.939,1.937-1.939h19.369   c1.07,0,1.937,0.868,1.937,1.939C236.741,120.043,235.874,120.911,234.804,120.911z"/>
	<path style="fill:#FFFFFF;" d="M267.922,120.911h-19.366c-1.07,0-1.937-0.868-1.937-1.938c0-1.071,0.867-1.939,1.937-1.939h19.366   c1.069,0,1.937,0.868,1.937,1.939C269.858,120.043,268.991,120.911,267.922,120.911z"/>
</g>
<rect x="158.828" y="178.32" style="fill:#FCD462;" width="66.34" height="57.032"/>
<rect x="158.828" y="178.32" style="fill:#F6C358;" width="66.34" height="4.432"/>
<polygon style="fill:#E56353;" points="191.999,144.308 145.09,178.327 238.908,178.327 "/>
<path style="fill:#F6C358;" d="M191.999,208.519c-4.895,0-8.864,3.968-8.864,8.864v17.976h17.728v-17.976  C200.863,212.487,196.895,208.519,191.999,208.519z"/>
<g>
</g>
<g>
</g>
<g>
</g>
<g>
</g>
<g>
</g>
<g>
</g>
<g>
</g>
<g>
</g>
<g>
</g>
<g>
</g>
<g>
</g>
<g>
</g>
<g>
</g>
<g>
</g>
<g>
</g>
</svg>
