<?xml version="1.0" encoding="iso-8859-1"?>
<!-- Generator: Adobe Illustrator 19.0.0, SVG Export Plug-In . SVG Version: 6.00 Build 0)  -->
<svg xmlns="http://www.w3.org/2000/svg" xmlns:xlink="http://www.w3.org/1999/xlink" version="1.1" id="Capa_1" x="0px" y="0px" viewBox="0 0 384 384" style="enable-background:new 0 0 384 384;" xml:space="preserve">
<circle style="fill:#EFC84A;" cx="192" cy="192" r="192"/>
<path style="opacity:0.1;enable-background:new    ;" d="M82,81.99v220l79.589,79.589C171.496,383.156,181.648,384,192,384  c106.039,0,192-85.961,192-192c0-10.36-0.846-20.52-2.426-30.436L302,81.99H82z"/>
<rect x="82" y="82" style="fill:#64798A;" width="220" height="220"/>
<rect id="SVGCleanerId_0" x="82" y="130.676" style="fill:#EBF0F3;" width="220" height="122.652"/>
<g>
	<rect id="SVGCleanerId_0_1_" x="82" y="130.676" style="fill:#EBF0F3;" width="220" height="122.652"/>
</g>
<g>
	<rect x="261.572" y="93" style="fill:#3A556A;" width="27.828" height="27.832"/>
	<rect x="205.932" y="93" style="fill:#3A556A;" width="27.828" height="27.832"/>
	<rect x="150.252" y="92.984" style="fill:#3A556A;" width="27.828" height="27.832"/>
	<rect x="94.612" y="93" style="fill:#3A556A;" width="27.828" height="27.832"/>
	<rect x="261.572" y="263.156" style="fill:#3A556A;" width="27.828" height="27.828"/>
	<rect x="205.932" y="263.176" style="fill:#3A556A;" width="27.828" height="27.828"/>
	<rect x="150.252" y="263.16" style="fill:#3A556A;" width="27.828" height="27.828"/>
	<rect x="94.612" y="263.156" style="fill:#3A556A;" width="27.828" height="27.828"/>
</g>
<path style="fill:#E56353;" d="M148.47,192c0,24.041,19.488,43.529,43.528,43.529V148.47C167.958,148.47,148.47,167.96,148.47,192z"/>
<path style="fill:#D15241;" d="M191.998,148.47v87.059c24.041,0,43.532-19.488,43.532-43.529  C235.53,167.96,216.039,148.47,191.998,148.47z"/>
<path style="fill:#CE412D;" d="M207.295,191.906l-27.316-22.364c-1.686-1.382-4.222-0.182-4.222,2v44.728  c0,2.182,2.536,3.382,4.222,2l27.316-22.364C208.56,194.872,208.56,192.94,207.295,191.906z"/>
<path style="fill:#FFFFFF;" d="M207.295,188.094l-27.316-22.364c-1.686-1.382-4.222-0.182-4.222,2v44.728  c0,2.182,2.536,3.382,4.222,2l27.316-22.364C208.56,191.06,208.56,189.128,207.295,188.094z"/>
<g>
</g>
<g>
</g>
<g>
</g>
<g>
</g>
<g>
</g>
<g>
</g>
<g>
</g>
<g>
</g>
<g>
</g>
<g>
</g>
<g>
</g>
<g>
</g>
<g>
</g>
<g>
</g>
<g>
</g>
</svg>
