<?xml version="1.0" encoding="iso-8859-1"?>
<!-- Generator: Adobe Illustrator 19.0.0, SVG Export Plug-In . SVG Version: 6.00 Build 0)  -->
<svg xmlns="http://www.w3.org/2000/svg" xmlns:xlink="http://www.w3.org/1999/xlink" version="1.1" id="Capa_1" x="0px" y="0px" viewBox="0 0 384 384" style="enable-background:new 0 0 384 384;" xml:space="preserve">
<circle style="fill:#334D5C;" cx="192" cy="192" r="192"/>
<path style="opacity:0.1;enable-background:new    ;" d="M248.28,77.99v24.88H160.6l-24.88-24.88H78v57.76l24.88,24.88v87.64H78  v57.72l73.719,73.743C164.712,382.508,178.18,384,192,384c106.039,0,192-85.961,192-192c0-13.819-1.492-27.285-4.266-40.276  L306,77.99H248.28z"/>
<path style="fill:#FFFFFF;" d="M306,135.731V78h-57.726v24.864H135.73V78H78v57.731h24.867V248.27H78V306h57.73v-24.863h112.543V306  H306v-57.73h-24.863V135.731H306z M256.274,86H298v41.731h-41.726V86z M86,86h41.73v41.731H86V86z M127.73,298H86v-41.73h41.73V298z   M298,298h-41.726v-41.73H298V298z M273.137,248.27h-24.863v24.867H135.73V248.27h-24.863V135.731h24.863v-24.867h112.543v24.867  h24.863V248.27z"/>
<g>
</g>
<g>
</g>
<g>
</g>
<g>
</g>
<g>
</g>
<g>
</g>
<g>
</g>
<g>
</g>
<g>
</g>
<g>
</g>
<g>
</g>
<g>
</g>
<g>
</g>
<g>
</g>
<g>
</g>
</svg>
