<?xml version="1.0" encoding="iso-8859-1"?>
<!-- Generator: Adobe Illustrator 19.0.0, SVG Export Plug-In . SVG Version: 6.00 Build 0)  -->
<svg xmlns="http://www.w3.org/2000/svg" xmlns:xlink="http://www.w3.org/1999/xlink" version="1.1" id="Capa_1" x="0px" y="0px" viewBox="0 0 384 384" style="enable-background:new 0 0 384 384;" xml:space="preserve">
<circle style="fill:#334D5C;" cx="192" cy="192" r="192"/>
<path style="opacity:0.1;enable-background:new    ;" d="M384,192c0-10.357-0.845-20.514-2.424-30.426L302,81.997h-48.16v20.08  h-103.6l-20.08-20.08H82v48.16l19.88,19.88v103.8H82v48.16l79.541,79.573c9.923,1.582,20.09,2.43,30.459,2.43  C298.039,384,384,298.039,384,192z"/>
<g>
	<path style="fill:#FFFFFF;" d="M302,130.176V82h-48.176v20.087H130.176V82H82v48.176h19.865v123.648H82V302h48.176v-20.088h123.649   V302H302v-48.176h-20.31V130.176H302z M261.824,90H294v32.176h-32.176V90z M90,90h32.176v32.176H90V90z M122.176,294H90v-32.176   h32.176V294z M294,294h-32.176v-32.176H294V294z M273.69,253.824h-19.865v20.088H130.176v-20.088h-20.31V130.176h20.31v-20.088   h123.649v20.088h19.865V253.824z"/>
	<polygon style="fill:#FFFFFF;" points="231.729,179.841 195.494,190.747 184.588,226.982 148.406,143.659  "/>
</g>
<g>
</g>
<g>
</g>
<g>
</g>
<g>
</g>
<g>
</g>
<g>
</g>
<g>
</g>
<g>
</g>
<g>
</g>
<g>
</g>
<g>
</g>
<g>
</g>
<g>
</g>
<g>
</g>
<g>
</g>
</svg>
