<?xml version="1.0" encoding="iso-8859-1"?>
<!-- Generator: Adobe Illustrator 19.0.0, SVG Export Plug-In . SVG Version: 6.00 Build 0)  -->
<svg xmlns="http://www.w3.org/2000/svg" xmlns:xlink="http://www.w3.org/1999/xlink" version="1.1" id="Capa_1" x="0px" y="0px" viewBox="0 0 384 384" style="enable-background:new 0 0 384 384;" xml:space="preserve">
<circle style="fill:#45B39C;" cx="192" cy="192" r="192"/>
<path style="opacity:0.1;enable-background:new    ;" d="M301.12,128.557c-0.2-0.279-0.4-0.56-0.64-0.8l-22.2-22.12l-22.2-22.119  c-0.96-0.961-2.28-1.52-3.64-1.52H144.48c-2.88,0-5.16,2.319-5.16,5.16v3.12l-8-8H82v219.72l79.58,79.579  C171.49,383.154,181.645,384,192,384c99.773,0,181.748-76.109,191.09-173.434l-81.97-81.97V128.557z"/>
<path style="fill:#EBF0F3;" d="M252.441,82H144.473c-2.855,0-5.17,2.308-5.17,5.155v209.413c0,2.847,2.315,5.155,5.17,5.155H296.83  c2.855,0,5.17-2.308,5.17-5.155V131.414c0-1.367-0.545-2.678-1.514-3.645l-44.389-44.26C255.127,82.543,253.812,82,252.441,82z"/>
<path style="fill:#D5D6DB;" d="M259.753,129.279h41.745c-0.254-0.55-0.574-1.074-1.012-1.51l-22.194-22.13l-22.195-22.13  c-0.438-0.436-0.963-0.756-1.514-1.008v41.623C254.582,126.972,256.897,129.279,259.753,129.279z"/>
<path style="fill:#3A556A;" d="M262.761,261.211v6.214h-26.508c11.608-6.043,19.698-17.852,20.477-31.598h5.682v-15.432h-15.477  v15.432h5.462c-0.959,14.987-11.758,27.308-26.01,30.653v-4.611H210.91v4.611c-14.251-3.345-25.05-15.667-26.009-30.653h5.462  v-15.432h-15.477v15.432h5.681c0.78,13.746,8.869,25.555,20.478,31.598h-26.508v-6.214h-15.477v15.43h15.477v-4.895h36.374v5.553  h15.477v-5.553h36.374v4.895h15.477v-15.43H262.761z M251.268,231.506v-6.79h6.81v6.79H251.268z M179.219,231.506v-6.79h6.81v6.79  H179.219z M170.202,272.32h-6.81v-6.788h6.81V272.32z M222.053,272.978h-6.81v-6.788h6.81V272.978z M273.904,272.32h-6.81v-6.788  h6.81V272.32z"/>
<polygon style="fill:#F6C358;" points="236.31,186.131 200.987,186.131 200.088,188.963 237.209,188.963 "/>
<polygon style="fill:#FCD462;" points="237.209,188.963 200.088,188.963 194.486,206.614 218.648,245.69 242.811,206.614 "/>
<path style="fill:#E56353;" d="M186.422,144.824l8.514,38.292c0.391,1.761,1.958,3.014,3.767,3.014h39.892  c1.809,0,3.376-1.253,3.767-3.014l8.514-38.292H186.422z"/>
<polygon style="fill:#D15241;" points="199.084,181.811 233.703,177.978 245.476,149.145 238.213,181.811 "/>
<path style="fill:#DC8744;" d="M223.858,205.511c0-2.868-2.332-5.194-5.21-5.194c-2.877,0-5.21,2.326-5.21,5.194  c0,2.498,1.77,4.581,4.126,5.079v33.348l1.083,1.752l1.084-1.753V210.59C222.088,210.092,223.858,208.009,223.858,205.511z"/>
<rect x="82" y="82.276" style="fill:#FCD462;" width="49.304" height="219.724"/>
<rect x="101.24" y="82.276" style="fill:#F6C358;" width="10.852" height="219.724"/>
<g>
	<rect x="124.08" y="89.912" style="fill:#DC8744;" width="7.224" height="2.052"/>
	<rect x="124.08" y="94.616" style="fill:#DC8744;" width="7.224" height="2.052"/>
	<rect x="124.08" y="99.324" style="fill:#DC8744;" width="7.224" height="2.052"/>
	<rect x="120.04" y="104.04" style="fill:#DC8744;" width="11.272" height="2.052"/>
	<rect x="124.08" y="108.72" style="fill:#DC8744;" width="7.224" height="2.052"/>
	<rect x="124.08" y="113.44" style="fill:#DC8744;" width="7.224" height="2.052"/>
	<rect x="124.08" y="118.156" style="fill:#DC8744;" width="7.224" height="2.052"/>
	<rect x="120.04" y="122.86" style="fill:#DC8744;" width="11.272" height="2.052"/>
	<rect x="124.08" y="127.568" style="fill:#DC8744;" width="7.224" height="2.052"/>
	<rect x="124.08" y="132.28" style="fill:#DC8744;" width="7.224" height="2.052"/>
	<rect x="124.08" y="137" style="fill:#DC8744;" width="7.224" height="2.052"/>
	<rect x="120.04" y="141.68" style="fill:#DC8744;" width="11.272" height="2.052"/>
	<rect x="124.08" y="146.396" style="fill:#DC8744;" width="7.224" height="2.052"/>
	<rect x="124.08" y="151.104" style="fill:#DC8744;" width="7.224" height="2.052"/>
	<rect x="124.08" y="155.808" style="fill:#DC8744;" width="7.224" height="2.052"/>
	<rect x="120.04" y="160.52" style="fill:#DC8744;" width="11.272" height="2.052"/>
	<rect x="124.08" y="165.24" style="fill:#DC8744;" width="7.224" height="2.052"/>
	<rect x="124.08" y="169.92" style="fill:#DC8744;" width="7.224" height="2.052"/>
	<rect x="124.08" y="174.64" style="fill:#DC8744;" width="7.224" height="2.052"/>
	<rect x="120.04" y="179.344" style="fill:#DC8744;" width="11.272" height="2.052"/>
	<rect x="124.08" y="184.04" style="fill:#DC8744;" width="7.224" height="2.052"/>
	<rect x="124.08" y="188.76" style="fill:#DC8744;" width="7.224" height="2.052"/>
	<rect x="124.08" y="193.48" style="fill:#DC8744;" width="7.224" height="2.052"/>
	<rect x="120.04" y="198.16" style="fill:#DC8744;" width="11.272" height="2.052"/>
	<rect x="124.08" y="202.88" style="fill:#DC8744;" width="7.224" height="2.052"/>
	<rect x="124.08" y="207.588" style="fill:#DC8744;" width="7.224" height="2.052"/>
	<rect x="124.08" y="212.28" style="fill:#DC8744;" width="7.224" height="2.052"/>
	<rect x="120.04" y="217" style="fill:#DC8744;" width="11.272" height="2.052"/>
	<rect x="124.08" y="221.72" style="fill:#DC8744;" width="7.224" height="2.052"/>
	<rect x="124.08" y="226.4" style="fill:#DC8744;" width="7.224" height="2.052"/>
	<rect x="124.08" y="231.12" style="fill:#DC8744;" width="7.224" height="2.052"/>
	<rect x="120.04" y="235.828" style="fill:#DC8744;" width="11.272" height="2.052"/>
	<rect x="124.08" y="240.52" style="fill:#DC8744;" width="7.224" height="2.052"/>
	<rect x="124.08" y="245.24" style="fill:#DC8744;" width="7.224" height="2.052"/>
	<rect x="124.08" y="249.96" style="fill:#DC8744;" width="7.224" height="2.052"/>
	<rect x="120.04" y="254.64" style="fill:#DC8744;" width="11.272" height="2.052"/>
	<rect x="124.08" y="259.36" style="fill:#DC8744;" width="7.224" height="2.052"/>
	<rect x="124.08" y="264.08" style="fill:#DC8744;" width="7.224" height="2.052"/>
	<rect x="124.08" y="268.76" style="fill:#DC8744;" width="7.224" height="2.052"/>
	<rect x="120.04" y="273.48" style="fill:#DC8744;" width="11.272" height="2.052"/>
	<rect x="124.08" y="278.2" style="fill:#DC8744;" width="7.224" height="2.052"/>
	<rect x="124.08" y="282.88" style="fill:#DC8744;" width="7.224" height="2.052"/>
	<rect x="124.08" y="287.6" style="fill:#DC8744;" width="7.224" height="2.052"/>
	<rect x="120.04" y="292.32" style="fill:#DC8744;" width="11.272" height="2.052"/>
</g>
<g>
</g>
<g>
</g>
<g>
</g>
<g>
</g>
<g>
</g>
<g>
</g>
<g>
</g>
<g>
</g>
<g>
</g>
<g>
</g>
<g>
</g>
<g>
</g>
<g>
</g>
<g>
</g>
<g>
</g>
</svg>
