<?xml version="1.0" encoding="iso-8859-1"?>
<!-- Generator: Adobe Illustrator 19.0.0, SVG Export Plug-In . SVG Version: 6.00 Build 0)  -->
<svg xmlns="http://www.w3.org/2000/svg" xmlns:xlink="http://www.w3.org/1999/xlink" version="1.1" id="Capa_1" x="0px" y="0px" viewBox="0 0 384 384" style="enable-background:new 0 0 384 384;" xml:space="preserve">
<circle style="fill:#45B39C;" cx="192" cy="192" r="192"/>
<path style="opacity:0.1;enable-background:new    ;" d="M250.16,83.509c-0.96-0.96-2.28-1.52-3.64-1.52h-111.8  c-2.84,0-5.16,2.32-5.16,5.16v142.36H93.92c-3.24,0-5.92,2.64-5.92,5.92v40.641c0,1.52,0.6,2.92,1.52,3.96h0.04l0.2,0.24  l103.726,103.693c97.3-0.741,177.322-73.845,188.993-168.162L294.48,127.83L250.16,83.509z"/>
<path style="fill:#EBF0F3;" d="M246.505,82H134.718c-2.85,0-5.161,2.311-5.161,5.162v209.677c0,2.85,2.311,5.161,5.161,5.161H290.82  c2.851,0,5.162-2.311,5.162-5.161V131.477c0-1.369-0.544-2.682-1.512-3.65l-44.315-44.315C249.187,82.544,247.874,82,246.505,82z"/>
<path style="fill:#D5D6DB;" d="M253.805,129.339h41.675c-0.253-0.551-0.573-1.075-1.01-1.512l-22.158-22.158l-22.158-22.158  c-0.437-0.437-0.961-0.757-1.512-1.01v41.676C248.643,127.028,250.954,129.339,253.805,129.339z"/>
<path style="fill:#3A556A;" d="M157.214,163.697v-7.848h33.384c-14.62,7.633-24.807,22.548-25.789,39.911h-7.155v19.492h19.492  V195.76h-6.879c1.208-18.93,14.807-34.493,32.756-38.718v5.824h19.492v-5.824c17.948,4.225,31.548,19.788,32.756,38.718h-6.879  v19.492h19.492V195.76h-7.155c-0.982-17.363-11.17-32.278-25.789-39.911h33.384v7.848h19.492v-19.489h-19.492v6.183h-45.809v-7.014  h-19.492v7.014h-45.809v-6.183h-19.492v19.489H157.214z M171.688,201.218v8.576h-8.576v-8.576H171.688z M262.426,201.218v8.576  h-8.576v-8.576H262.426z M273.782,149.666h8.576v8.574h-8.576V149.666z M208.481,148.834h8.576v8.573h-8.576V148.834z   M143.18,149.666h8.576v8.574h-8.576V149.666z"/>
<path style="fill:#D5D6DB;" d="M181.79,234.479h-52.234v52.464h52.234c3.26,0,5.902-2.642,5.902-5.903v-40.66  C187.693,237.122,185.05,234.479,181.79,234.479z"/>
<path style="fill:#27A2DB;" d="M176.879,229.519H93.921c-3.26,0-5.903,2.642-5.903,5.901v40.66c0,3.26,2.642,5.903,5.903,5.903  h82.958c3.26,0,5.903-2.642,5.903-5.903v-40.66C182.782,232.161,180.139,229.519,176.879,229.519z"/>
<g>
	<path style="fill:#FFFFFF;" d="M115.284,244.323c1.958,1.637,2.937,4.158,2.937,7.564c0,3.409-0.999,5.904-2.999,7.485   c-1.998,1.582-5.062,2.374-9.191,2.374h-4.99v8.248h-4.748v-28.123h9.656C110.216,241.871,113.326,242.689,115.284,244.323z    M111.925,255.931c0.953-1.005,1.428-2.479,1.428-4.424c0-1.945-0.603-3.32-1.811-4.126c-1.208-0.805-3.098-1.205-5.674-1.205   h-4.826v11.264h5.511C109.181,257.44,110.972,256.939,111.925,255.931z"/>
	<path style="fill:#FFFFFF;" d="M132.324,245.571c-1.382,0-2.514,0.282-3.399,0.844c-0.887,0.563-1.329,1.415-1.329,2.558   c0,1.139,0.442,2.01,1.329,2.613c0.884,0.606,2.767,1.254,5.652,1.952c2.882,0.697,5.056,1.676,6.519,2.937   c1.46,1.261,2.191,3.121,2.191,5.573c0,2.456-0.924,4.446-2.777,5.976c-1.85,1.529-4.276,2.292-7.282,2.292   c-4.398,0-8.3-1.513-11.706-4.545l2.976-3.582c2.842,2.469,5.792,3.703,8.85,3.703c1.529,0,2.744-0.331,3.641-0.986   c0.9-0.658,1.349-1.529,1.349-2.616c0-1.087-0.422-1.932-1.267-2.534c-0.845-0.606-2.302-1.153-4.365-1.65   c-2.066-0.498-3.638-0.953-4.708-1.369c-1.074-0.416-2.027-0.959-2.858-1.63c-1.664-1.261-2.492-3.189-2.492-5.792   s0.943-4.607,2.836-6.015c1.889-1.408,4.23-2.112,7.02-2.112c1.798,0,3.582,0.294,5.35,0.884c1.772,0.589,3.301,1.421,4.588,2.495   l-2.534,3.582c-0.832-0.753-1.958-1.369-3.379-1.853C135.107,245.813,133.706,245.571,132.324,245.571z"/>
	<path style="fill:#FFFFFF;" d="M170.444,245.551c2.711,2.456,4.064,5.868,4.064,10.239c0,4.374-1.313,7.832-3.942,10.383   c-2.629,2.547-6.654,3.821-12.069,3.821h-9.335v-28.123h9.656C163.859,241.871,167.736,243.095,170.444,245.551z M169.72,255.911   c0-6.437-3.687-9.656-11.064-9.656h-4.748v19.273h5.272c3.405,0,6.015-0.812,7.826-2.433   C168.816,261.471,169.72,259.077,169.72,255.911z"/>
</g>
<g>
</g>
<g>
</g>
<g>
</g>
<g>
</g>
<g>
</g>
<g>
</g>
<g>
</g>
<g>
</g>
<g>
</g>
<g>
</g>
<g>
</g>
<g>
</g>
<g>
</g>
<g>
</g>
<g>
</g>
</svg>
