<?xml version="1.0" encoding="iso-8859-1"?>
<!-- Generator: Adobe Illustrator 19.0.0, SVG Export Plug-In . SVG Version: 6.00 Build 0)  -->
<svg xmlns="http://www.w3.org/2000/svg" xmlns:xlink="http://www.w3.org/1999/xlink" version="1.1" id="Capa_1" x="0px" y="0px" viewBox="0 0 384 384" style="enable-background:new 0 0 384 384;" xml:space="preserve">
<circle style="fill:#334D5C;" cx="192" cy="192" r="192"/>
<path style="opacity:0.1;enable-background:new    ;" d="M257.48,81.997v18.28h-24.92l-18.28-18.28h-44.56v18.28H144.8l-18.28-18.28  H82v44.52l17.48,17.48v25.72H82v44.561l17.48,17.48v25.72H82v44.52l79.58,79.58C171.49,383.156,181.645,384,192,384  c106.039,0,192-85.961,192-192c0-10.357-0.846-20.514-2.424-30.428L302,81.997H257.48z"/>
<g>
	<path style="fill:#FFFFFF;" d="M302,126.535V82h-44.535v18.269h-43.199V82h-44.531v18.269h-43.199V82H82v44.535h17.488v43.2H82   v44.531h17.488v43.199H82V302h44.535v-18.27h43.199V302h44.531v-18.27h43.199V302H302v-44.535h-19.047v-43.199H302v-44.531h-19.047   v-43.2H302z M257.465,169.734v44.531h17.488v43.199h-17.488v18.266h-43.199v-18.266h-44.531v18.266h-43.199v-18.266h-19.047   v-43.199h19.047v-44.531h-19.047v-43.2h19.047v-18.266h43.199v18.266h44.531v-18.266h43.199v18.266h17.488v43.2H257.465z    M265.465,90H294v28.535h-28.535V90z M177.734,90h28.531v28.535h-28.531V90z M90,90h28.535v28.535H90V90z M90,177.734h28.535   v28.531H90V177.734z M118.535,294H90v-28.535h28.535V294z M206.266,294h-28.531v-28.535h28.531V294z M294,294h-28.535v-28.535H294   V294z M294,206.266h-28.535v-28.531H294V206.266z"/>
	<polygon style="fill:#FFFFFF;" points="215.75,188 196,188 196,168.25 188,168.25 188,188 168.25,188 168.25,196 188,196    188,215.75 196,215.75 196,196 215.75,196  "/>
</g>
<g>
</g>
<g>
</g>
<g>
</g>
<g>
</g>
<g>
</g>
<g>
</g>
<g>
</g>
<g>
</g>
<g>
</g>
<g>
</g>
<g>
</g>
<g>
</g>
<g>
</g>
<g>
</g>
<g>
</g>
</svg>
