<?xml version="1.0" encoding="iso-8859-1"?>
<!-- Generator: Adobe Illustrator 19.0.0, SVG Export Plug-In . SVG Version: 6.00 Build 0)  -->
<svg xmlns="http://www.w3.org/2000/svg" xmlns:xlink="http://www.w3.org/1999/xlink" version="1.1" id="Capa_1" x="0px" y="0px" viewBox="0 0 384 384" style="enable-background:new 0 0 384 384;" xml:space="preserve">
<circle style="fill:#E05B49;" cx="192" cy="192" r="192"/>
<path style="opacity:0.1;enable-background:new    ;" d="M117.31,117.31c-41.267,41.267-41.266,108.13,0,149.397l113.39,113.391  c74.988-15.348,134.05-74.41,149.397-149.398l-113.39-113.39C225.441,76.043,158.577,76.043,117.31,117.31z"/>
<circle style="fill:#FCD462;" cx="192" cy="192" r="105.636"/>
<g>
	<path style="fill:#F6C358;" d="M139.964,198.459h104.073c4.148,0,6.323-4.925,3.529-7.991l-52.036-57.096   c-1.894-2.078-5.164-2.078-7.058,0l-52.037,57.096C133.64,193.534,135.816,198.459,139.964,198.459z"/>
	<path style="fill:#F6C358;" d="M135.179,217.992v20.085c0,1.753,1.422,3.174,3.174,3.174h106.699c1.753,0,3.174-1.421,3.174-3.174   v-20.085c0-1.753-1.421-3.174-3.174-3.174H138.354C136.601,214.818,135.179,216.239,135.179,217.992z"/>
</g>
<g>
	<path style="fill:#DC8744;" d="M139.964,190.459h104.073c4.148,0,6.323-4.925,3.529-7.991l-52.036-57.096   c-1.894-2.078-5.164-2.078-7.058,0l-52.037,57.096C133.64,185.534,135.816,190.459,139.964,190.459z"/>
	<path style="fill:#DC8744;" d="M135.179,209.992v20.085c0,1.753,1.422,3.174,3.174,3.174h106.699c1.753,0,3.174-1.421,3.174-3.174   v-20.085c0-1.753-1.421-3.174-3.174-3.174H138.354C136.601,206.818,135.179,208.239,135.179,209.992z"/>
</g>
<g>
</g>
<g>
</g>
<g>
</g>
<g>
</g>
<g>
</g>
<g>
</g>
<g>
</g>
<g>
</g>
<g>
</g>
<g>
</g>
<g>
</g>
<g>
</g>
<g>
</g>
<g>
</g>
<g>
</g>
</svg>
