<?xml version="1.0" encoding="iso-8859-1"?>
<!-- Generator: Adobe Illustrator 19.0.0, SVG Export Plug-In . SVG Version: 6.00 Build 0)  -->
<svg xmlns="http://www.w3.org/2000/svg" xmlns:xlink="http://www.w3.org/1999/xlink" version="1.1" id="Capa_1" x="0px" y="0px" viewBox="0 0 384 384" style="enable-background:new 0 0 384 384;" xml:space="preserve">
<circle style="fill:#45B39C;" cx="192" cy="192" r="192"/>
<path style="opacity:0.1;enable-background:new    ;" d="M236.211,100.781C224.936,89.202,209.286,82,192,82  c-34.24,0-62.12,28.2-62.12,62.88v21.52c-7.72,1.88-13.44,8.8-13.44,17.08c0,0.08,0.04,0.16,0.04,0.24h-0.04v100.92  c0,4.6,1.8,8.76,4.72,11.84c0.08,0.12,0.2,0.2,0.32,0.28l86.525,86.524c81.619-6.742,148.738-64.495,169.392-141.333  L236.229,100.784L236.211,100.781z"/>
<g>
	<path style="fill:#3A556A;" d="M116.439,183.716v100.916c0,9.212,7.194,16.674,16.258,17.257V183.716H116.439z"/>
	<path style="fill:#3A556A;" d="M250.193,183.716V302c9.592,0,17.368-7.776,17.368-17.368V183.716H250.193z"/>
</g>
<path style="fill:#64798A;" d="M132.698,183.716v118.172c0.374,0.024,0.73,0.111,1.11,0.111h116.385V183.716H132.698z"/>
<g>
	<path style="fill:#F6C358;" d="M132.698,211.368V201.07c-9.065-0.583-16.259-8.045-16.259-17.257v10.299   C116.439,203.324,123.633,210.786,132.698,211.368z"/>
	<path style="fill:#F6C358;" d="M250.193,201.181v10.299c9.592,0,17.368-7.776,17.368-17.368v-10.299   C267.561,193.404,259.785,201.181,250.193,201.181z"/>
</g>
<path style="fill:#FCD462;" d="M132.698,201.07v10.299c0.374,0.024,0.73,0.111,1.11,0.111h116.385v-10.299H133.808  C133.427,201.181,133.072,201.093,132.698,201.07z"/>
<g>
	<path style="fill:#F6C358;" d="M132.698,301.889V291.59c-9.065-0.583-16.259-8.045-16.259-17.257v10.299   C116.439,293.844,123.633,301.306,132.698,301.889z"/>
	<path style="fill:#F6C358;" d="M250.193,291.701V302c9.592,0,17.368-7.776,17.368-17.368v-10.299   C267.561,283.925,259.785,291.701,250.193,291.701z"/>
</g>
<path style="fill:#FCD462;" d="M132.698,291.59v10.299c0.374,0.023,0.73,0.111,1.11,0.111h116.385v-10.299H133.808  C133.427,291.701,133.072,291.613,132.698,291.59z"/>
<path style="fill:#2F4859;" d="M249.95,201.085h-115.9c-9.726,0-17.611-7.885-17.611-17.611l0,0c0-9.726,7.885-17.611,17.611-17.611  h115.9c9.726,0,17.611,7.885,17.611,17.611l0,0C267.561,193.2,259.676,201.085,249.95,201.085z"/>
<path style="fill:#3A556A;" d="M203.491,239.144c0-6.653-5.393-12.046-12.046-12.046c-6.653,0-12.046,5.393-12.046,12.046  c0,3.795,1.79,7.139,4.533,9.347l-4.533,21.153h24.092l-4.533-21.153C201.701,246.283,203.491,242.94,203.491,239.144z"/>
<path style="fill:#EBF0F3;" d="M192,82c-34.252,0-62.121,28.215-62.121,62.892v39.719h13.924v-39.719  c0-27.002,21.62-48.968,48.197-48.968c26.577,0,48.197,21.967,48.197,48.968h13.924C254.122,110.215,226.253,82,192,82z"/>
<g>
</g>
<g>
</g>
<g>
</g>
<g>
</g>
<g>
</g>
<g>
</g>
<g>
</g>
<g>
</g>
<g>
</g>
<g>
</g>
<g>
</g>
<g>
</g>
<g>
</g>
<g>
</g>
<g>
</g>
</svg>
