<?xml version="1.0" encoding="iso-8859-1"?>
<!-- Generator: Adobe Illustrator 19.0.0, SVG Export Plug-In . SVG Version: 6.00 Build 0)  -->
<svg xmlns="http://www.w3.org/2000/svg" xmlns:xlink="http://www.w3.org/1999/xlink" version="1.1" id="Capa_1" x="0px" y="0px" viewBox="0 0 384 384" style="enable-background:new 0 0 384 384;" xml:space="preserve">
<circle style="fill:#EFC84A;" cx="192" cy="192" r="192"/>
<path style="opacity:0.1;enable-background:new    ;" d="M114.2,114.198c-42.96,43-42.96,112.6,0,155.6l111.27,111.235  c79.199-13.932,141.634-76.368,155.564-155.567L269.8,114.198C226.8,71.238,157.2,71.238,114.2,114.198z"/>
<circle style="fill:#64798A;" cx="192" cy="192" r="110"/>
<circle style="fill:#FFFFFF;" cx="192" cy="192" r="91.176"/>
<g>
	<path style="fill:#3A556A;" d="M192,129.992c-1.504,0-2.72,1.218-2.72,2.721v55.327c0,1.503,1.217,2.721,2.72,2.721   c1.502,0,2.721-1.218,2.721-2.721v-55.327C194.721,131.21,193.502,129.992,192,129.992z"/>
	<path style="fill:#3A556A;" d="M196.362,189.279h-48.526c-1.502,0-2.721,1.219-2.721,2.721c0,1.504,1.219,2.72,2.721,2.72h49.303   C196.83,192.921,196.576,191.106,196.362,189.279z"/>
</g>
<path style="fill:#EBF0F3;" d="M110.104,210.38c-2.279-50.867,44.922-94.191,94.19-94.191c25.389,0,47.592,9.995,64.076,26.028  c-16.273-24.915-44.388-41.393-76.369-41.393c-50.355,0-91.176,40.821-91.176,91.176c0,19.588,6.199,37.718,16.711,52.579  C113.232,233.915,110.641,222.371,110.104,210.38z"/>
<g>
	<circle style="fill:#E56353;" cx="192" cy="111.916" r="5.24"/>
	<circle style="fill:#E56353;" cx="192" cy="272.08" r="5.24"/>
	<circle style="fill:#E56353;" cx="272.08" cy="192" r="5.24"/>
	<circle style="fill:#E56353;" cx="111.916" cy="192" r="5.24"/>
	<ellipse style="fill:#E56353;" cx="232.044" cy="261.357" rx="5.24" ry="5.24"/>
	<ellipse style="fill:#E56353;" cx="151.946" cy="122.657" rx="5.24" ry="5.24"/>
	<ellipse style="fill:#E56353;" cx="122.644" cy="232.053" rx="5.24" ry="5.24"/>
	<ellipse style="fill:#E56353;" cx="261.348" cy="151.951" rx="5.24" ry="5.24"/>
	<ellipse style="fill:#E56353;" cx="232.04" cy="122.667" rx="5.24" ry="5.24"/>
	<ellipse style="fill:#E56353;" cx="151.948" cy="261.341" rx="5.24" ry="5.24"/>
	<ellipse style="fill:#E56353;" cx="261.356" cy="232.055" rx="5.24" ry="5.24"/>
	<ellipse style="fill:#E56353;" cx="122.642" cy="151.943" rx="5.24" ry="5.24"/>
</g>
<circle style="fill:#64798A;" cx="192" cy="192" r="8.336"/>
<circle style="fill:#3A556A;" cx="192" cy="192" r="4.072"/>
<g>
</g>
<g>
</g>
<g>
</g>
<g>
</g>
<g>
</g>
<g>
</g>
<g>
</g>
<g>
</g>
<g>
</g>
<g>
</g>
<g>
</g>
<g>
</g>
<g>
</g>
<g>
</g>
<g>
</g>
</svg>
