<?xml version="1.0" encoding="iso-8859-1"?>
<!-- Generator: Adobe Illustrator 19.0.0, SVG Export Plug-In . SVG Version: 6.00 Build 0)  -->
<svg xmlns="http://www.w3.org/2000/svg" xmlns:xlink="http://www.w3.org/1999/xlink" version="1.1" id="Capa_1" x="0px" y="0px" viewBox="0 0 384 384" style="enable-background:new 0 0 384 384;" xml:space="preserve">
<circle style="fill:#45B39C;" cx="192" cy="192" r="192"/>
<path style="opacity:0.1;enable-background:new    ;" d="M381.032,225.469l-111.251-111.25c-42.964-42.964-112.6-42.964-155.563,0  c-42.964,42.964-42.964,112.6,0,155.563l111.25,111.251C304.668,367.102,367.102,304.668,381.032,225.469z"/>
<circle style="fill:#3A556A;" cx="192" cy="192" r="110"/>
<circle style="fill:#64798A;" cx="192" cy="192" r="104.68"/>
<circle style="fill:#D5D6DB;" cx="192" cy="192" r="44.988"/>
<path style="fill:#FFFFFF;" d="M279.65,177.283h-22.344c0.748,4.044,1.19,8.198,1.19,12.458c0,3.516-0.349,6.943-0.863,10.316  h22.017c6.289,0,11.388-5.098,11.388-11.387S285.939,177.283,279.65,177.283z"/>
<path style="fill:#E1E6E9;" d="M285.499,178.947c-6.331,8.652-13.367,16.392-23.387,21.11h17.538  c6.289,0,11.388-5.098,11.388-11.387C291.037,184.53,288.804,180.94,285.499,178.947z"/>
<circle style="fill:#FFFFFF;" cx="190.36" cy="189.76" r="68.12"/>
<circle style="fill:#EBF0F3;" cx="190.36" cy="189.76" r="57.168"/>
<circle style="fill:#FCD462;" cx="190.36" cy="189.76" r="55.236"/>
<g>
	<path style="fill:#F6C358;" d="M142.533,193.44c0-28.462,23.074-51.537,51.536-51.537c27.838,0,50.462,22.088,51.443,49.687   c0.02-0.62,0.093-1.225,0.093-1.85c0-30.506-24.73-55.236-55.235-55.236c-30.506,0-55.236,24.73-55.236,55.236   s24.729,55.236,55.236,55.236c0.625,0,1.23-0.073,1.85-0.093C164.621,243.902,142.533,221.278,142.533,193.44z"/>
	<circle style="fill:#F6C358;" cx="163.048" cy="173.24" r="3.38"/>
	<circle style="fill:#F6C358;" cx="205.96" cy="164.96" r="2.868"/>
	<circle style="fill:#F6C358;" cx="165.88" cy="199.756" r="2.844"/>
	<circle style="fill:#F6C358;" cx="179.392" cy="220.32" r="1.692"/>
	<circle style="fill:#F6C358;" cx="197.64" cy="187.744" r="2.512"/>
	<circle style="fill:#F6C358;" cx="218.08" cy="216.8" r="1.844"/>
	<circle style="fill:#F6C358;" cx="230.16" cy="179.7" r="1.844"/>
	<circle style="fill:#F6C358;" cx="200.28" cy="220.32" r="1.692"/>
	<circle style="fill:#F6C358;" cx="182.64" cy="153" r="1.564"/>
</g>
<g>
</g>
<g>
</g>
<g>
</g>
<g>
</g>
<g>
</g>
<g>
</g>
<g>
</g>
<g>
</g>
<g>
</g>
<g>
</g>
<g>
</g>
<g>
</g>
<g>
</g>
<g>
</g>
<g>
</g>
</svg>
