<?xml version="1.0" encoding="iso-8859-1"?>
<!-- Generator: Adobe Illustrator 19.0.0, SVG Export Plug-In . SVG Version: 6.00 Build 0)  -->
<svg xmlns="http://www.w3.org/2000/svg" xmlns:xlink="http://www.w3.org/1999/xlink" version="1.1" id="Capa_1" x="0px" y="0px" viewBox="0 0 384 384" style="enable-background:new 0 0 384 384;" xml:space="preserve">
<circle style="fill:#45B39C;" cx="192" cy="192" r="192"/>
<path style="opacity:0.1;enable-background:new    ;" d="M82,251.469v50.52l79.589,79.589C171.496,383.156,181.648,384,192,384  c10.856,0,21.487-0.947,31.852-2.679L94,251.469H82z"/>
<path style="opacity:0.1;enable-background:new    ;" d="M251.48,81.99v12L290,132.51v0.039h0.04l91.285,91.285  C383.054,213.475,384,202.85,384,192c0-10.36-0.846-20.52-2.426-30.436L302,81.99H251.48z"/>
<path style="opacity:0.1;enable-background:new    ;" d="M257.96,130.99c-1.4-1.52-2.88-3-4.4-4.44c-0.12-0.08-0.2-0.16-0.28-0.24  c-3.16-2.96-6.521-5.68-10.04-8.12c-0.04,0-0.04-0.04-0.04-0.04c-5.4-3.72-11.2-6.92-17.36-9.4c-10.44-4.24-21.88-6.6-33.84-6.6  c-11.666,0-22.802,2.246-33.029,6.291L132.52,81.99H82v50.56l26.418,26.418c-4.049,10.227-6.298,21.36-6.298,33.022  c0,25.967,11.048,49.318,28.639,65.709l117.817,117.817c60.544-18.644,108.31-66.416,126.947-126.963L258,131.03  C258,131.03,257.96,131.03,257.96,130.99z"/>
<circle style="fill:#FCD462;" cx="192" cy="192" r="89.864"/>
<path style="fill:#F6C358;" d="M225.825,108.743c14.111,15.872,22.696,36.765,22.696,59.672c0,49.631-40.233,89.864-89.864,89.864  c-11.969,0-23.381-2.359-33.825-6.607c16.46,18.515,40.446,30.191,67.168,30.191c49.63,0,89.864-40.233,89.864-89.864  C281.864,154.339,258.686,122.108,225.825,108.743z"/>
<g>
	<polygon style="fill:#FFFFFF;" points="94,132.544 82,132.544 82,82 132.539,82 132.539,94 94,94  "/>
	<polygon style="fill:#FFFFFF;" points="290,132.544 302,132.544 302,82 251.461,82 251.461,94 290,94  "/>
	<polygon style="fill:#FFFFFF;" points="94,251.457 82,251.457 82,302 132.539,302 132.539,290 94,290  "/>
	<polygon style="fill:#FFFFFF;" points="290,251.457 302,251.457 302,302 251.461,302 251.461,290 290,290  "/>
</g>
<g>
</g>
<g>
</g>
<g>
</g>
<g>
</g>
<g>
</g>
<g>
</g>
<g>
</g>
<g>
</g>
<g>
</g>
<g>
</g>
<g>
</g>
<g>
</g>
<g>
</g>
<g>
</g>
<g>
</g>
</svg>
