<?xml version="1.0" encoding="iso-8859-1"?>
<!-- Generator: Adobe Illustrator 19.0.0, SVG Export Plug-In . SVG Version: 6.00 Build 0)  -->
<svg xmlns="http://www.w3.org/2000/svg" xmlns:xlink="http://www.w3.org/1999/xlink" version="1.1" id="Capa_1" x="0px" y="0px" viewBox="0 0 384 384" style="enable-background:new 0 0 384 384;" xml:space="preserve">
<circle style="fill:#334D5C;" cx="192" cy="192" r="192"/>
<path style="opacity:0.1;enable-background:new    ;" d="M376.442,245.312L262.24,131.11c-11.96-13.8-27.88-24.04-46.04-28.92  L196,81.99h-8v17.08c-48.12,2.04-86.88,40.8-88.92,88.92H82v8l20.2,20.2c4.16,15.6,12.36,29.6,23.32,40.8l119.528,119.528  C308.33,358.354,358.192,308.557,376.442,245.312z"/>
<circle style="fill:#E56353;" cx="192" cy="192" r="32.04"/>
<path style="fill:#D15241;" d="M209.123,164.939c5.748,22.169-6.214,49.672-35.86,49.672c-1.432,0-2.812-0.08-4.162-0.204  c5.819,5.945,13.923,9.646,22.898,9.646c17.701,0,32.051-14.35,32.051-32.052C224.051,180.604,218.085,170.622,209.123,164.939z"/>
<path style="fill:#FFFFFF;" d="M302,188h-17.062c-2.048-48.123-40.814-86.89-88.938-88.937V82h-8v17.063  c-48.123,2.048-86.89,40.814-88.938,88.937H82v8h17.062c2.048,48.123,40.814,86.89,88.938,88.938V302h8v-17.062  c48.123-2.048,86.89-40.814,88.938-88.938H302V188z M276.836,188h-22.278c-1.994-31.41-27.148-56.564-58.558-58.559v-22.278  C239.693,109.211,274.789,144.307,276.836,188z M192,246.762c-30.195,0-54.762-24.566-54.762-54.762  c0-30.195,24.566-54.762,54.762-54.762c30.195,0,54.762,24.566,54.762,54.762C246.762,222.196,222.195,246.762,192,246.762z   M188,107.164v22.278c-31.41,1.995-56.564,27.148-58.558,58.559h-22.278C109.211,144.307,144.307,109.211,188,107.164z M107.164,196  h22.278c1.994,31.411,27.148,56.564,58.558,58.559v22.277C144.307,274.789,109.211,239.693,107.164,196z M196,276.836v-22.277  c31.41-1.995,56.564-27.148,58.558-58.559h22.278C274.789,239.693,239.693,274.789,196,276.836z"/>
<g>
</g>
<g>
</g>
<g>
</g>
<g>
</g>
<g>
</g>
<g>
</g>
<g>
</g>
<g>
</g>
<g>
</g>
<g>
</g>
<g>
</g>
<g>
</g>
<g>
</g>
<g>
</g>
<g>
</g>
</svg>
