<?xml version="1.0" encoding="iso-8859-1"?>
<!-- Generator: Adobe Illustrator 19.0.0, SVG Export Plug-In . SVG Version: 6.00 Build 0)  -->
<svg xmlns="http://www.w3.org/2000/svg" xmlns:xlink="http://www.w3.org/1999/xlink" version="1.1" id="Capa_1" x="0px" y="0px" viewBox="0 0 384 384" style="enable-background:new 0 0 384 384;" xml:space="preserve">
<circle style="fill:#EFC84A;" cx="192" cy="192" r="192"/>
<path style="opacity:0.1;enable-background:new    ;" d="M251.8,82.2l-46.16,8.72c-2.08,0.4-4.04,1.44-5.52,2.92l-115,115  c-4.16,4.16-4.16,10.88,0,15.04l75,75l79.224,79.223c78.398-19.884,137.508-88.003,144.003-170.917L261.28,85.12  C258.8,82.64,255.24,81.52,251.8,82.2z"/>
<path style="fill:#44C4A1;" d="M293.068,178.356l8.746-46.139c0.655-3.456-0.441-7.011-2.928-9.498L261.28,85.114  c-2.487-2.487-6.042-3.583-9.498-2.928l-46.138,8.745c-2.098,0.398-4.027,1.418-5.538,2.928L85.114,208.852  c-4.152,4.152-4.152,10.884,0,15.036l74.998,74.998c4.152,4.152,10.884,4.152,15.036,0L290.14,183.894  C291.651,182.383,292.671,180.454,293.068,178.356z"/>
<g>
	<ellipse style="fill:#3EA69B;" cx="261.436" cy="126.234" rx="12.68" ry="12.68"/>
	
		<rect x="139.814" y="148.689" transform="matrix(-0.7071 -0.7071 0.7071 -0.7071 159.5506 482.1702)" style="fill:#3EA69B;" width="79.644" height="118.705"/>
</g>
<g>
	<ellipse style="fill:#FFFFFF;" cx="261.438" cy="122.562" rx="12.684" ry="12.684"/>
	
		<rect x="139.828" y="145.003" transform="matrix(-0.7071 -0.7071 0.7071 -0.7071 162.1812 475.8875)" style="fill:#FFFFFF;" width="79.644" height="118.705"/>
</g>
<g>
</g>
<g>
</g>
<g>
</g>
<g>
</g>
<g>
</g>
<g>
</g>
<g>
</g>
<g>
</g>
<g>
</g>
<g>
</g>
<g>
</g>
<g>
</g>
<g>
</g>
<g>
</g>
<g>
</g>
</svg>
