<?xml version="1.0" encoding="iso-8859-1"?>
<!-- Generator: Adobe Illustrator 19.0.0, SVG Export Plug-In . SVG Version: 6.00 Build 0)  -->
<svg xmlns="http://www.w3.org/2000/svg" xmlns:xlink="http://www.w3.org/1999/xlink" version="1.1" id="Capa_1" x="0px" y="0px" viewBox="0 0 384 384" style="enable-background:new 0 0 384 384;" xml:space="preserve">
<circle style="fill:#45B39C;" cx="192" cy="192" r="192"/>
<path style="opacity:0.1;enable-background:new    ;" d="M251.8,82.2l-46.16,8.72c-2.08,0.4-4.04,1.44-5.52,2.92l-115,115  c-4.16,4.16-4.16,10.88,0,15.04l75,75l79.223,79.223c78.398-19.884,137.508-88.003,144.004-170.917L261.28,85.12  C258.8,82.64,255.24,81.52,251.8,82.2z"/>
<path style="fill:#FCD462;" d="M165.836,278.147L109.52,221.83l1.834-1.833l-1.834-1.834l83.936-83.936l36.747,36.746  c3.241-0.462,6.526-0.783,9.894-0.783c17.707,0,33.85,6.672,46.18,17.566l3.863-3.864c1.511-1.51,2.531-3.44,2.929-5.538  l8.745-46.138c0.655-3.456-0.442-7.011-2.928-9.497L261.28,85.114c-2.487-2.487-6.042-3.584-9.498-2.928l-46.138,8.746  c-2.098,0.397-4.028,1.417-5.538,2.928L85.114,208.852c-4.151,4.152-4.151,10.884,0,15.036l74.998,74.998  c4.152,4.152,10.884,4.152,15.036,0l12.609-12.61c-4.8-5.434-8.796-11.583-11.735-18.315L165.836,278.147z"/>
<ellipse style="fill:#F6C358;" cx="261.436" cy="126.234" rx="12.68" ry="12.68"/>
<ellipse style="fill:#FFFFFF;" cx="261.435" cy="122.56" rx="12.68" ry="12.68"/>
<path style="fill:#F6C358;" d="M165.836,274.48l-54.482-54.482l-1.834,1.833l56.316,56.316l10.186-10.186  c-0.376-0.861-0.699-1.746-1.042-2.625L165.836,274.48z"/>
<path style="fill:#FFFFFF;" d="M193.456,134.228l-83.936,83.936l1.834,1.834l54.482,54.482l9.144-9.144  c-3.05-7.841-4.79-16.333-4.79-25.239c0-34.075,24.519-62.491,56.832-68.636c1.048-0.199,2.117-0.336,3.181-0.487L193.456,134.228z"/>
<path style="fill:#F6C358;" d="M240.097,170.191c-3.367,0-6.652,0.321-9.894,0.783l19.569,19.569l-1.834,1.834l1.834,1.833  l-73.751,73.751c2.939,6.732,6.935,12.882,11.735,18.315l98.52-98.519C273.947,176.863,257.804,170.191,240.097,170.191z"/>
<g>
	<path style="fill:#DC8744;" d="M176.022,267.961l73.751-73.751l-1.834-1.833l-72.958,72.959   C175.323,266.215,175.646,267.1,176.022,267.961z"/>
	<path style="fill:#DC8744;" d="M247.939,192.377l1.834-1.834l-19.569-19.569c-1.064,0.152-2.133,0.288-3.181,0.487L247.939,192.377   z"/>
</g>
<path style="fill:#EBF0F3;" d="M170.191,240.097c0,8.906,1.739,17.398,4.79,25.239l72.958-72.959l-20.916-20.916  C194.71,177.606,170.191,206.022,170.191,240.097z"/>
<circle style="fill:#E56353;" cx="240.08" cy="240.08" r="61.904"/>
<g>
	<rect x="200.52" y="229.8" style="fill:#FFFFFF;" width="79.156" height="20.628"/>
	<rect x="229.772" y="200.52" style="fill:#FFFFFF;" width="20.628" height="79.156"/>
</g>
<g>
</g>
<g>
</g>
<g>
</g>
<g>
</g>
<g>
</g>
<g>
</g>
<g>
</g>
<g>
</g>
<g>
</g>
<g>
</g>
<g>
</g>
<g>
</g>
<g>
</g>
<g>
</g>
<g>
</g>
</svg>
