<?xml version="1.0" encoding="iso-8859-1"?>
<!-- Generator: Adobe Illustrator 19.0.0, SVG Export Plug-In . SVG Version: 6.00 Build 0)  -->
<svg xmlns="http://www.w3.org/2000/svg" xmlns:xlink="http://www.w3.org/1999/xlink" version="1.1" id="Capa_1" x="0px" y="0px" viewBox="0 0 384 384" style="enable-background:new 0 0 384 384;" xml:space="preserve">
<circle style="fill:#334D5C;" cx="192" cy="192" r="192"/>
<path style="opacity:0.1;enable-background:new    ;" d="M283.2,108.32H100.8c-10.36,0-18.8,8.44-18.8,18.84  c0,4.2,1.4,8.08,3.72,11.2h0.04l0.08,0.12c1.04,1.44,2.36,2.72,3.8,3.8l18.24,18.2c-0.48,0.12-0.92,0.28-1.28,0.52  c-0.2,0.12-0.32,0.24-0.48,0.4l-3.32-3.32h-0.04c-0.08-0.16-0.24-0.32-0.36-0.44c-1.04-1-2.28-1.48-3.76-1.48  c-1.52,0-2.8,0.48-3.8,1.48c-0.84,0.84-1.28,1.8-1.4,2.92H93.4l-7.36-7.4h-2.2v13.16l40.24,40.24H100.8c-10.36,0-18.8,8.4-18.8,18.8  c0,4.92,1.88,9.4,4.96,12.68l1.2,1.2l22.2,22.24c-1.52,0-2.92,0.48-4.12,1.44l0.92,1.32l1.4,1.4c-0.76,0.12-1.44,0.32-1.96,0.68  c-0.16,0.12-0.32,0.24-0.44,0.4h-0.04l-3.72-3.76c-1.04-1-2.28-1.48-3.76-1.48c-1.52,0-2.8,0.48-3.8,1.48  c-0.8,0.8-1.28,1.8-1.4,2.92l-7.4-7.4h-2.2v13.16l112.256,112.256c101.094-2.124,182.97-82.328,187.673-182.767L296.24,113.6  C292.88,110.36,288.28,108.32,283.2,108.32z"/>
<g>
	<path style="fill:#EBF0F3;" d="M283.188,108.339H100.812c-10.39,0-18.812,8.423-18.812,18.812c0,10.39,8.422,18.813,18.812,18.813   h182.376c10.39,0,18.812-8.423,18.812-18.813C302,116.762,293.577,108.339,283.188,108.339z"/>
	<path style="fill:#EBF0F3;" d="M283.188,206.55H100.812c-10.39,0-18.812,8.423-18.812,18.812c0,10.39,8.422,18.812,18.812,18.812   h182.376c10.39,0,18.812-8.423,18.812-18.812C302,214.973,293.577,206.55,283.188,206.55z"/>
</g>
<g>
	<path style="fill:#FFFFFF;" d="M83.827,166.306v-13.152h2.223v11.043h6.004v2.109H83.827z"/>
	<path style="fill:#FFFFFF;" d="M102.382,164.962c-1.004,0.996-2.258,1.496-3.762,1.496c-1.508,0-2.762-0.5-3.766-1.496   c-1.004-1-1.504-2.219-1.504-3.66c0-1.445,0.5-2.664,1.504-3.66c1.004-1,2.258-1.496,3.766-1.496c1.504,0,2.758,0.496,3.762,1.496   c1.004,0.996,1.504,2.215,1.504,3.66C103.886,162.743,103.386,163.962,102.382,164.962z M96.35,163.661   c0.598,0.609,1.352,0.914,2.27,0.914c0.914,0,1.668-0.305,2.266-0.914c0.598-0.61,0.895-1.394,0.895-2.36   c0-0.968-0.297-1.754-0.895-2.363c-0.598-0.609-1.352-0.914-2.266-0.914c-0.918,0-1.672,0.305-2.27,0.914   c-0.598,0.61-0.894,1.395-0.894,2.363C95.456,162.267,95.753,163.052,96.35,163.661z"/>
	<path style="fill:#FFFFFF;" d="M114.39,166.306h-1.922v-1.336c-0.828,0.992-1.937,1.488-3.332,1.488   c-1.039,0-1.902-0.297-2.586-0.887c-0.684-0.59-1.024-1.375-1.024-2.359c0-0.988,0.363-1.723,1.09-2.215   c0.726-0.488,1.711-0.73,2.953-0.73h2.731v-0.379c0-1.328-0.742-1.992-2.223-1.992c-0.926,0-1.894,0.336-2.898,1.016l-0.938-1.32   c1.215-0.965,2.594-1.445,4.137-1.445c1.18,0,2.144,0.297,2.89,0.89c0.746,0.598,1.121,1.535,1.121,2.816V166.306z M112.28,162.579   v-0.848h-2.371c-1.52,0-2.277,0.476-2.277,1.43c0,0.492,0.187,0.863,0.566,1.121c0.375,0.258,0.898,0.386,1.57,0.386   c0.672,0,1.258-0.187,1.758-0.566C112.03,163.728,112.28,163.22,112.28,162.579z"/>
	<path style="fill:#FFFFFF;" d="M118.097,165.024c-0.942-0.953-1.414-2.207-1.414-3.762c0-1.555,0.484-2.797,1.449-3.727   c0.968-0.93,2.117-1.39,3.453-1.39c1.336,0,2.414,0.562,3.231,1.691v-5.496h2.105v13.965h-2.105v-1.504   c-0.782,1.102-1.914,1.656-3.406,1.656C120.14,166.458,119.038,165.982,118.097,165.024z M118.792,161.349   c0,0.957,0.308,1.738,0.922,2.34c0.613,0.606,1.336,0.906,2.164,0.906c0.828,0,1.531-0.305,2.109-0.914   c0.574-0.61,0.863-1.391,0.863-2.344c0-0.953-0.289-1.75-0.863-2.39c-0.578-0.637-1.289-0.957-2.129-0.957s-1.562,0.32-2.164,0.957   C119.093,159.587,118.792,160.388,118.792,161.349z"/>
	<path style="fill:#FFFFFF;" d="M130.104,154.298c-0.266-0.262-0.394-0.574-0.394-0.938c0-0.367,0.129-0.68,0.394-0.942   c0.262-0.266,0.578-0.398,0.942-0.398c0.363,0,0.676,0.133,0.941,0.398c0.262,0.262,0.395,0.574,0.395,0.942   c0,0.363-0.133,0.676-0.395,0.938c-0.266,0.266-0.578,0.398-0.941,0.398C130.683,154.696,130.366,154.564,130.104,154.298z    M132.081,166.306h-2.11v-10.012h2.11V166.306z"/>
	<path style="fill:#FFFFFF;" d="M137.237,160.888v5.418h-2.109v-10.012h2.109v1.824c0.34-0.613,0.805-1.098,1.402-1.449   c0.594-0.348,1.238-0.523,1.926-0.523c1.133,0,2.043,0.344,2.738,1.031c0.699,0.691,1.047,1.688,1.047,2.992v6.137h-2.109v-5.496   c0-1.844-0.766-2.766-2.293-2.766c-0.731,0-1.364,0.242-1.902,0.726C137.507,159.251,137.237,159.958,137.237,160.888z"/>
	<path style="fill:#FFFFFF;" d="M156.542,156.294v8.73c0,1.77-0.476,3.098-1.438,3.98c-0.961,0.887-2.191,1.328-3.699,1.328   c-1.504,0-2.867-0.469-4.082-1.41l0.996-1.602c0.981,0.742,1.969,1.11,2.965,1.11c0.996,0,1.789-0.254,2.371-0.77   c0.582-0.516,0.875-1.336,0.875-2.465v-1.281c-0.313,0.59-0.762,1.062-1.344,1.41c-0.586,0.352-1.242,0.527-1.969,0.527   c-1.328,0-2.422-0.461-3.273-1.39c-0.856-0.93-1.281-2.082-1.281-3.465c0-1.379,0.426-2.531,1.281-3.461   c0.852-0.93,1.941-1.39,3.266-1.39c1.32,0,2.398,0.543,3.226,1.637v-1.488H156.542z M148.733,160.915   c0,0.82,0.254,1.531,0.762,2.125c0.508,0.598,1.191,0.894,2.051,0.894c0.859,0,1.558-0.289,2.09-0.867   c0.535-0.574,0.801-1.293,0.801-2.152c0-0.86-0.27-1.586-0.808-2.184c-0.539-0.598-1.238-0.895-2.09-0.895   c-0.852,0-1.535,0.309-2.043,0.922C148.987,159.376,148.733,160.091,148.733,160.915z"/>
	<path style="fill:#FFFFFF;" d="M159.714,166.044c-0.274-0.277-0.406-0.61-0.406-1c0-0.387,0.133-0.719,0.406-0.988   c0.269-0.27,0.598-0.402,0.984-0.402c0.39,0,0.722,0.133,1,0.402c0.273,0.27,0.414,0.602,0.414,0.988c0,0.39-0.141,0.723-0.414,1   c-0.278,0.273-0.61,0.414-1,0.414C160.312,166.458,159.983,166.317,159.714,166.044z"/>
	<path style="fill:#FFFFFF;" d="M164.983,166.044c-0.273-0.277-0.406-0.61-0.406-1c0-0.387,0.133-0.719,0.406-0.988   c0.27-0.27,0.598-0.402,0.984-0.402c0.391,0,0.723,0.133,1,0.402c0.274,0.27,0.414,0.602,0.414,0.988c0,0.39-0.141,0.723-0.414,1   c-0.277,0.273-0.609,0.414-1,0.414C165.581,166.458,165.253,166.317,164.983,166.044z"/>
	<path style="fill:#FFFFFF;" d="M170.253,166.044c-0.273-0.277-0.406-0.61-0.406-1c0-0.387,0.133-0.719,0.406-0.988   c0.27-0.27,0.598-0.402,0.984-0.402c0.391,0,0.723,0.133,1,0.402c0.274,0.27,0.414,0.602,0.414,0.988c0,0.39-0.14,0.723-0.414,1   c-0.277,0.273-0.609,0.414-1,0.414C170.85,166.458,170.522,166.317,170.253,166.044z"/>
	<path style="fill:#FFFFFF;" d="M83.827,271.634v-13.152h2.223v11.043h6.004v2.109H83.827z"/>
	<path style="fill:#FFFFFF;" d="M102.382,270.29c-1.004,0.996-2.258,1.496-3.762,1.496c-1.508,0-2.762-0.5-3.766-1.496   c-1.004-1-1.504-2.219-1.504-3.66c0-1.446,0.5-2.664,1.504-3.66c1.004-1,2.258-1.496,3.766-1.496c1.504,0,2.758,0.496,3.762,1.496   c1.004,0.996,1.504,2.215,1.504,3.66C103.886,268.071,103.386,269.29,102.382,270.29z M96.35,268.989   c0.598,0.61,1.352,0.914,2.27,0.914c0.914,0,1.668-0.304,2.266-0.914c0.598-0.609,0.895-1.394,0.895-2.359   c0-0.969-0.297-1.754-0.895-2.363c-0.598-0.61-1.352-0.914-2.266-0.914c-0.918,0-1.672,0.305-2.27,0.914   c-0.598,0.609-0.894,1.394-0.894,2.363C95.456,267.595,95.753,268.38,96.35,268.989z"/>
	<path style="fill:#FFFFFF;" d="M114.39,271.634h-1.922v-1.336c-0.828,0.992-1.937,1.488-3.332,1.488   c-1.039,0-1.902-0.297-2.586-0.886c-0.684-0.59-1.024-1.375-1.024-2.36c0-0.988,0.363-1.723,1.09-2.215   c0.726-0.488,1.711-0.73,2.953-0.73h2.731v-0.379c0-1.328-0.742-1.992-2.223-1.992c-0.926,0-1.894,0.336-2.898,1.016l-0.938-1.32   c1.215-0.965,2.594-1.445,4.137-1.445c1.18,0,2.144,0.297,2.89,0.891c0.746,0.598,1.121,1.535,1.121,2.816V271.634z    M112.28,267.907v-0.848h-2.371c-1.52,0-2.277,0.476-2.277,1.43c0,0.492,0.187,0.863,0.566,1.121   c0.375,0.258,0.898,0.387,1.57,0.387c0.672,0,1.258-0.188,1.758-0.566C112.03,269.056,112.28,268.548,112.28,267.907z"/>
	<path style="fill:#FFFFFF;" d="M118.097,270.352c-0.942-0.953-1.414-2.207-1.414-3.762c0-1.555,0.484-2.797,1.449-3.726   c0.968-0.93,2.117-1.391,3.453-1.391c1.336,0,2.414,0.562,3.231,1.692v-5.496h2.105v13.965h-2.105v-1.504   c-0.782,1.102-1.914,1.656-3.406,1.656C120.14,271.786,119.038,271.31,118.097,270.352z M118.792,266.677   c0,0.957,0.308,1.738,0.922,2.34c0.613,0.605,1.336,0.906,2.164,0.906c0.828,0,1.531-0.305,2.109-0.914   c0.574-0.609,0.863-1.391,0.863-2.344c0-0.953-0.289-1.75-0.863-2.391c-0.578-0.637-1.289-0.957-2.129-0.957   s-1.562,0.32-2.164,0.957C119.093,264.915,118.792,265.716,118.792,266.677z"/>
	<path style="fill:#FFFFFF;" d="M130.104,259.626c-0.266-0.262-0.394-0.574-0.394-0.938c0-0.367,0.129-0.68,0.394-0.941   c0.262-0.266,0.578-0.398,0.942-0.398c0.363,0,0.676,0.133,0.941,0.398c0.262,0.262,0.395,0.574,0.395,0.941   c0,0.363-0.133,0.676-0.395,0.938c-0.266,0.266-0.578,0.398-0.941,0.398C130.683,260.024,130.366,259.892,130.104,259.626z    M132.081,271.634h-2.11v-10.012h2.11V271.634z"/>
	<path style="fill:#FFFFFF;" d="M137.237,266.216v5.418h-2.109v-10.012h2.109v1.824c0.34-0.613,0.805-1.098,1.402-1.449   c0.594-0.348,1.238-0.524,1.926-0.524c1.133,0,2.043,0.344,2.738,1.031c0.699,0.692,1.047,1.688,1.047,2.992v6.136h-2.109v-5.496   c0-1.844-0.766-2.766-2.293-2.766c-0.731,0-1.364,0.242-1.902,0.727C137.507,264.579,137.237,265.286,137.237,266.216z"/>
	<path style="fill:#FFFFFF;" d="M156.542,261.622v8.73c0,1.77-0.476,3.098-1.438,3.981c-0.961,0.886-2.191,1.328-3.699,1.328   c-1.504,0-2.867-0.469-4.082-1.41l0.996-1.601c0.981,0.742,1.969,1.109,2.965,1.109c0.996,0,1.789-0.254,2.371-0.77   s0.875-1.336,0.875-2.465v-1.281c-0.313,0.59-0.762,1.062-1.344,1.41c-0.586,0.352-1.242,0.528-1.969,0.528   c-1.328,0-2.422-0.461-3.273-1.391c-0.856-0.93-1.281-2.082-1.281-3.465c0-1.379,0.426-2.531,1.281-3.461   c0.852-0.93,1.941-1.391,3.266-1.391c1.32,0,2.398,0.543,3.226,1.637v-1.488H156.542z M148.733,266.243   c0,0.82,0.254,1.531,0.762,2.125c0.508,0.598,1.191,0.895,2.051,0.895c0.859,0,1.558-0.289,2.09-0.867   c0.535-0.574,0.801-1.293,0.801-2.152c0-0.86-0.27-1.586-0.808-2.184c-0.539-0.598-1.238-0.894-2.09-0.894   c-0.852,0-1.535,0.308-2.043,0.922C148.987,264.704,148.733,265.419,148.733,266.243z"/>
	<path style="fill:#FFFFFF;" d="M159.714,271.372c-0.274-0.277-0.406-0.609-0.406-1c0-0.387,0.133-0.719,0.406-0.988   c0.269-0.269,0.598-0.402,0.984-0.402c0.39,0,0.722,0.133,1,0.402c0.273,0.27,0.414,0.602,0.414,0.988c0,0.391-0.141,0.723-0.414,1   c-0.278,0.274-0.61,0.414-1,0.414C160.312,271.786,159.983,271.646,159.714,271.372z"/>
	<path style="fill:#FFFFFF;" d="M164.983,271.372c-0.273-0.277-0.406-0.609-0.406-1c0-0.387,0.133-0.719,0.406-0.988   c0.27-0.269,0.598-0.402,0.984-0.402c0.391,0,0.723,0.133,1,0.402c0.274,0.27,0.414,0.602,0.414,0.988c0,0.391-0.141,0.723-0.414,1   c-0.277,0.274-0.609,0.414-1,0.414C165.581,271.786,165.253,271.646,164.983,271.372z"/>
	<path style="fill:#FFFFFF;" d="M170.253,271.372c-0.273-0.277-0.406-0.609-0.406-1c0-0.387,0.133-0.719,0.406-0.988   c0.27-0.269,0.598-0.402,0.984-0.402c0.391,0,0.723,0.133,1,0.402c0.274,0.27,0.414,0.602,0.414,0.988c0,0.391-0.14,0.723-0.414,1   c-0.277,0.274-0.609,0.414-1,0.414C170.85,271.786,170.522,271.646,170.253,271.372z"/>
</g>
<path style="fill:#E56353;" d="M100.812,212.548c-7.066,0-12.812,5.746-12.812,12.812c0,7.066,5.746,12.812,12.812,12.812h78.628  v-25.625H100.812z"/>
<path style="fill:#44C4A1;" d="M100.812,114.337c-7.066,0-12.812,5.746-12.812,12.813c0,7.066,5.746,12.812,12.812,12.812H243.93  v-25.625H100.812z"/>
<g>
	<polygon style="fill:#3EA69B;" points="229.701,139.962 223.326,139.962 235.216,114.337 241.59,114.337  "/>
	<polygon style="fill:#3EA69B;" points="210.172,139.962 203.798,139.962 215.687,114.337 222.062,114.337  "/>
	<polygon style="fill:#3EA69B;" points="190.643,139.962 184.268,139.962 196.158,114.337 202.532,114.337  "/>
	<polygon style="fill:#3EA69B;" points="171.114,139.962 164.74,139.962 176.629,114.337 183.004,114.337  "/>
	<polygon style="fill:#3EA69B;" points="151.585,139.962 145.211,139.962 157.1,114.337 163.475,114.337  "/>
	<polygon style="fill:#3EA69B;" points="132.056,139.962 125.682,139.962 137.571,114.337 143.946,114.337  "/>
	<polygon style="fill:#3EA69B;" points="112.528,139.962 106.153,139.962 118.042,114.337 124.417,114.337  "/>
	<path style="fill:#3EA69B;" d="M100.812,114.337c-0.826,0-1.629,0.094-2.411,0.244l-8.719,18.791   c1.036,1.847,2.482,3.419,4.261,4.557l10.946-23.592H100.812z"/>
</g>
<g>
	<polygon style="fill:#D15241;" points="151.585,238.173 145.211,238.173 157.1,212.548 163.475,212.548  "/>
	<polygon style="fill:#D15241;" points="132.056,238.173 125.682,238.173 137.571,212.548 143.946,212.548  "/>
	<polygon style="fill:#D15241;" points="112.528,238.173 106.153,238.173 118.042,212.548 124.417,212.548  "/>
	<polygon style="fill:#D15241;" points="179.44,212.548 176.629,212.548 164.739,238.173 171.114,238.173 179.44,220.228  "/>
	<path style="fill:#D15241;" d="M100.812,212.548c-0.826,0-1.629,0.094-2.411,0.244l-8.719,18.791   c1.036,1.846,2.482,3.419,4.261,4.556l10.946-23.592H100.812z"/>
</g>
<g>
</g>
<g>
</g>
<g>
</g>
<g>
</g>
<g>
</g>
<g>
</g>
<g>
</g>
<g>
</g>
<g>
</g>
<g>
</g>
<g>
</g>
<g>
</g>
<g>
</g>
<g>
</g>
<g>
</g>
</svg>
