<?xml version="1.0" encoding="iso-8859-1"?>
<!-- Generator: Adobe Illustrator 19.0.0, SVG Export Plug-In . SVG Version: 6.00 Build 0)  -->
<svg xmlns="http://www.w3.org/2000/svg" xmlns:xlink="http://www.w3.org/1999/xlink" version="1.1" id="Capa_1" x="0px" y="0px" viewBox="0 0 384 384" style="enable-background:new 0 0 384 384;" xml:space="preserve">
<circle style="fill:#E05B49;" cx="192" cy="192" r="192"/>
<path style="opacity:0.1;enable-background:new    ;" d="M381.038,225.438L269.8,114.2c-3.64-3.6-9.56-3.6-13.2,0l-10.88,10.92  c-1.238,1.238-2.02,2.742-2.416,4.322l-44.665-44.665l-0.004,0.014C196.94,83.07,194.59,82,192,82c-5.12,0-9.32,4.16-9.32,9.32v15.4  c0,3.062,1.52,5.772,3.822,7.474l-0.001,0.006l15.268,15.268c-3.187-0.499-6.443-0.788-9.769-0.788  c-14.113,0-27.106,4.679-37.636,12.491L127.4,114.2c-3.64-3.6-9.56-3.6-13.2,0c-3.6,3.64-3.6,9.56,0,13.2l26.971,26.964  c-7.812,10.53-12.491,23.523-12.491,37.636c0,3.311,0.26,6.56,0.751,9.733l-15.103-15.103l-0.011,0.004  c-1.693-2.388-4.467-3.954-7.597-3.954h-15.4c-5.16,0-9.32,4.16-9.32,9.32c0,2.437,0.963,4.649,2.507,6.315l-0.014,0.004l0.1,0.1  c0.097,0.102,0.195,0.2,0.296,0.296l44.579,44.58c-1.59,0.393-3.104,1.179-4.349,2.424L114.2,256.6c-3.6,3.64-3.6,9.56,0,13.2  l111.238,111.238C304.662,367.116,367.116,304.661,381.038,225.438z"/>
<circle style="fill:#FCD462;" cx="192" cy="192" r="63.304"/>
<g>
	<path style="fill:#F6C358;" d="M221.973,136.238c2.852,8.81,4.572,18.121,5.001,27.709c1.708,38.128-24.104,72.043-57.866,87.023   c7.108,2.761,14.808,4.334,22.892,4.334c34.962,0,63.305-28.343,63.305-63.304C255.305,167.884,241.814,146.926,221.973,136.238z"/>
	<path style="fill:#F6C358;" d="M192,82c-5.14,0-9.307,4.167-9.307,9.307v15.407c0,5.14,4.167,9.307,9.307,9.307   c5.14,0,9.308-4.167,9.308-9.307V91.307C201.307,86.167,197.14,82,192,82z"/>
	<path style="fill:#F6C358;" d="M192,267.979c-5.14,0-9.307,4.167-9.307,9.307v15.407c0,5.14,4.167,9.307,9.307,9.307   c5.14,0,9.308-4.167,9.308-9.307v-15.407C201.307,272.146,197.14,267.979,192,267.979z"/>
	<path style="fill:#F6C358;" d="M302,192c0-5.14-4.167-9.307-9.307-9.307h-15.407c-5.14,0-9.307,4.167-9.307,9.307   c0,5.14,4.167,9.308,9.307,9.308h15.407C297.833,201.307,302,197.14,302,192z"/>
	<path style="fill:#F6C358;" d="M116.021,192c0-5.14-4.167-9.307-9.307-9.307H91.307c-5.14,0-9.307,4.167-9.307,9.307   c0,5.14,4.167,9.308,9.307,9.308h15.407C111.854,201.307,116.021,197.14,116.021,192z"/>
	<path style="fill:#F6C358;" d="M269.782,114.218c-3.634-3.634-9.528-3.634-13.162,0l-10.894,10.894   c-3.634,3.635-3.634,9.528,0,13.162c3.635,3.635,9.528,3.635,13.163,0l10.894-10.894   C273.416,123.746,273.416,117.853,269.782,114.218z"/>
	<path style="fill:#F6C358;" d="M138.274,245.725c-3.634-3.634-9.527-3.634-13.162,0l-10.894,10.894   c-3.635,3.634-3.635,9.528,0,13.162c3.635,3.635,9.528,3.635,13.162,0l10.894-10.894   C141.909,255.253,141.909,249.36,138.274,245.725z"/>
	<path style="fill:#F6C358;" d="M269.782,269.782c3.634-3.634,3.634-9.528,0-13.162l-10.894-10.894   c-3.635-3.634-9.528-3.634-13.162,0c-3.635,3.635-3.635,9.528,0,13.163l10.894,10.894   C260.254,273.416,266.147,273.416,269.782,269.782z"/>
	<path style="fill:#F6C358;" d="M138.275,138.274c3.634-3.634,3.634-9.527,0-13.162l-10.894-10.894   c-3.634-3.635-9.528-3.635-13.162,0c-3.635,3.635-3.635,9.528,0,13.162l10.894,10.894   C128.747,141.909,134.64,141.909,138.275,138.274z"/>
</g>
<g>
</g>
<g>
</g>
<g>
</g>
<g>
</g>
<g>
</g>
<g>
</g>
<g>
</g>
<g>
</g>
<g>
</g>
<g>
</g>
<g>
</g>
<g>
</g>
<g>
</g>
<g>
</g>
<g>
</g>
</svg>
