<?xml version="1.0" encoding="iso-8859-1"?>
<!-- Generator: Adobe Illustrator 19.0.0, SVG Export Plug-In . SVG Version: 6.00 Build 0)  -->
<svg xmlns="http://www.w3.org/2000/svg" xmlns:xlink="http://www.w3.org/1999/xlink" version="1.1" id="Capa_1" x="0px" y="0px" viewBox="0 0 384 384" style="enable-background:new 0 0 384 384;" xml:space="preserve">
<circle style="fill:#45B39C;" cx="192" cy="192" r="192"/>
<path style="opacity:0.1;enable-background:new    ;" d="M288.52,165.35l-35.88-35.88l-0.4,0.4l-5.92-5.92  c-2.2-1.76-4.48-3.4-6.76-4.92l-1.2,1.8l-6.04-6.04c-2.44-1.28-5-2.48-7.6-3.52l-1.4,3.48h-0.28l-6.24-6.24  c-1.64-0.479-3.32-0.92-5-1.32l-19.8-19.8l-8.88,17.96c-34.04,3.48-62.36,26.64-73.32,57.92L82,167.31l22.96,22.96  c0,0.56-0.04,1.16-0.04,1.72c0,2.44,0.12,4.92,0.32,7.32l7.24,7.24l-6.16,1.08c0.48,2.72,1.12,5.48,1.88,8.16l6.48,6.48l-3.8,1.48  c1,2.56,2.16,5.16,3.44,7.64l6.08,6.08l-1.92,1.2c1.48,2.32,3.08,4.64,4.84,6.84l5.92,5.92l-0.48,0.44c0.8,0.84,1.68,1.6,2.52,2.4  L124,296.63l86.468,86.468c80.3-7.666,146.134-64.785,166.762-140.558L302,167.31L288.52,165.35z"/>
<g>
	<path style="fill:#FFFFFF;" d="M112.921,192h-8c0-48.016,39.062-87.082,87.078-87.082v8   C148.394,112.918,112.921,148.395,112.921,192z"/>
	<path style="fill:#FFFFFF;" d="M148.425,267.407c-2.387-1.383-4.754-2.906-7.035-4.535l4.641-6.516   c2.082,1.484,4.234,2.871,6.402,4.129L148.425,267.407z M134.804,257.664c-2.098-1.832-4.133-3.781-6.043-5.801l5.804-5.5   c1.738,1.832,3.59,3.606,5.496,5.27L134.804,257.664z M123.3,245.512c-1.722-2.207-3.348-4.512-4.832-6.852l6.758-4.285   c1.344,2.125,2.82,4.215,4.379,6.215L123.3,245.512z M114.316,231.387c-1.266-2.492-2.418-5.062-3.43-7.645l7.453-2.914   c0.914,2.34,1.961,4.672,3.109,6.934L114.316,231.387z M108.214,215.805c-0.766-2.696-1.402-5.442-1.894-8.168l7.875-1.422   c0.445,2.469,1.023,4.961,1.715,7.402L108.214,215.805z M105.226,199.328c-0.203-2.422-0.305-4.887-0.305-7.328h8   c0,2.223,0.094,4.465,0.274,6.664L105.226,199.328z"/>
	<path style="fill:#FFFFFF;" d="M191.999,279.078c-15.324,0-30.394-4.035-43.574-11.672l4.008-6.922   c11.965,6.93,25.648,10.594,39.566,10.594c43.606,0,79.082-35.472,79.082-79.078h8   C279.081,240.016,240.015,279.078,191.999,279.078z"/>
	<path style="fill:#FFFFFF;" d="M279.081,192h-8c0-0.812-0.012-1.621-0.035-2.426l7.992-0.258   C279.07,190.208,279.081,191.102,279.081,192z M270.448,181.973c-0.312-2.488-0.758-5.008-1.316-7.492l7.805-1.758   c0.617,2.73,1.102,5.508,1.449,8.25L270.448,181.973z M267.093,167.145c-0.781-2.383-1.699-4.766-2.727-7.086l7.313-3.242   c1.136,2.562,2.148,5.195,3.016,7.828L267.093,167.145z M260.952,153.254c-1.226-2.184-2.586-4.352-4.047-6.442l6.562-4.578   c1.606,2.305,3.106,4.691,4.461,7.098L260.952,153.254z M252.261,140.786c-1.66-1.945-3.414-3.816-5.211-5.559l5.57-5.742   c1.977,1.914,3.902,3.969,5.727,6.106L252.261,140.786z M241.347,130.2c-1.996-1.594-4.074-3.098-6.172-4.469l4.375-6.695   c2.309,1.508,4.59,3.16,6.781,4.906L241.347,130.2z M228.605,121.879c-2.223-1.164-4.547-2.238-6.902-3.195l3.008-7.414   c2.594,1.055,5.152,2.238,7.605,3.523L228.605,121.879z M214.527,116.172c-2.442-0.723-4.93-1.328-7.395-1.809l1.524-7.852   c2.715,0.528,5.453,1.196,8.137,1.988L214.527,116.172z M199.605,113.278c-2.52-0.238-5.078-0.359-7.606-0.359v-8   c2.782,0,5.594,0.133,8.364,0.398L199.605,113.278z"/>
</g>
<polygon style="fill:#FCD462;" points="192,87.384 225.992,156.259 302,167.304 247,220.915 259.984,296.616 192,260.875   124.016,296.616 137,220.915 82,167.304 158.008,156.259 "/>
<polygon style="fill:#F6C358;" points="192,136.742 209.955,173.122 250.102,178.955 221.051,207.273 227.909,247.259 192,228.38   156.091,247.259 162.949,207.273 133.898,178.955 174.045,173.122 "/>
<g>
</g>
<g>
</g>
<g>
</g>
<g>
</g>
<g>
</g>
<g>
</g>
<g>
</g>
<g>
</g>
<g>
</g>
<g>
</g>
<g>
</g>
<g>
</g>
<g>
</g>
<g>
</g>
<g>
</g>
</svg>
