<?xml version="1.0" encoding="iso-8859-1"?>
<!-- Generator: Adobe Illustrator 19.0.0, SVG Export Plug-In . SVG Version: 6.00 Build 0)  -->
<svg xmlns="http://www.w3.org/2000/svg" xmlns:xlink="http://www.w3.org/1999/xlink" version="1.1" id="Capa_1" x="0px" y="0px" viewBox="0 0 384 384" style="enable-background:new 0 0 384 384;" xml:space="preserve">
<circle style="fill:#EFC84A;" cx="192" cy="192" r="192"/>
<path style="opacity:0.1;enable-background:new    ;" d="M114.218,114.218c-42.964,42.964-42.964,112.6,0,155.563l111.25,111.251  c79.199-13.93,141.633-76.365,155.564-155.564l-111.251-111.25C226.818,71.254,157.182,71.254,114.218,114.218z"/>
<circle style="fill:#64798A;" cx="192" cy="192" r="110"/>
<circle style="fill:#FFFFFF;" cx="192" cy="192" r="89.796"/>
<path style="fill:#F6C358;" d="M106.9,192h-4.696c0,24.796,10.051,47.245,26.301,63.495l1.032-1.032  c-14.146-15.229-22.864-35.57-22.864-57.993C106.674,194.961,106.823,193.489,106.9,192z"/>
<path style="fill:#FCD462;" d="M144.124,192H106.9c-0.077,1.489-0.226,2.961-0.226,4.47c0,22.424,8.718,42.764,22.864,57.993  l28.61-28.61C149.483,217.188,144.124,205.221,144.124,192z"/>
<path style="fill:#CE412D;" d="M281.796,192H277.1c0.078,1.489,0.226,2.961,0.226,4.47c0,22.424-8.718,42.764-22.863,57.992  l1.033,1.033C271.746,239.245,281.796,216.796,281.796,192z"/>
<path style="fill:#D15241;" d="M277.1,192h-37.225c0,13.22-5.359,25.188-14.022,33.853l28.61,28.609  c14.145-15.228,22.863-35.568,22.863-57.992C277.326,194.961,277.178,193.489,277.1,192z"/>
<path style="fill:#DC8744;" d="M134.007,134.007l-5.502-5.502c-16.25,16.25-26.301,38.7-26.301,63.495h4.696  C108.089,169.105,118.258,148.637,134.007,134.007z"/>
<path style="fill:#F6C358;" d="M106.9,192h37.225c0-13.22,5.359-25.189,14.022-33.854l-24.14-24.14  C118.258,148.637,108.089,169.105,106.9,192z"/>
<path style="fill:#31978C;" d="M249.992,134.008l5.503-5.503c-16.25-16.25-38.699-26.3-63.495-26.3v8.939  C214.424,111.145,234.764,119.862,249.992,134.008z"/>
<path style="fill:#3EA69B;" d="M192,111.144v32.98c13.221,0,25.189,5.36,33.852,14.024l24.14-24.14  C234.764,119.862,214.424,111.145,192,111.144z"/>
<path style="fill:#D15241;" d="M277.1,192h4.696c0-24.796-10.051-47.245-26.301-63.495l-5.503,5.503  C265.742,148.637,275.91,169.105,277.1,192z"/>
<path style="fill:#E56353;" d="M249.992,134.008l-24.14,24.14c8.664,8.663,14.022,20.632,14.022,33.852H277.1  C275.91,169.105,265.742,148.637,249.992,134.008z"/>
<path style="fill:#3EA69B;" d="M192,111.144L192,111.144l0-8.939h0c-24.796,0-47.246,10.05-63.495,26.3l5.502,5.502  C149.236,119.862,169.576,111.144,192,111.144z"/>
<path style="fill:#44C4A1;" d="M192,111.144c-22.424,0-42.764,8.719-57.993,22.863l24.14,24.14  c8.664-8.663,20.633-14.022,33.853-14.022h0L192,111.144L192,111.144z"/>
<path style="fill:#3A556A;" d="M192,125.69c0,0-20.323,51.248-20.323,66.31c0,11.223,9.099,20.322,20.323,20.322  s20.323-9.099,20.323-20.322C212.323,175.673,192,125.69,192,125.69z M192,199.382c-4.078,0-7.384-3.305-7.384-7.382  c0-4.078,3.306-7.384,7.384-7.384s7.383,3.306,7.383,7.384C199.384,196.078,196.078,199.382,192,199.382z"/>
<g>
</g>
<g>
</g>
<g>
</g>
<g>
</g>
<g>
</g>
<g>
</g>
<g>
</g>
<g>
</g>
<g>
</g>
<g>
</g>
<g>
</g>
<g>
</g>
<g>
</g>
<g>
</g>
<g>
</g>
</svg>
