<?xml version="1.0" encoding="iso-8859-1"?>
<!-- Generator: Adobe Illustrator 19.0.0, SVG Export Plug-In . SVG Version: 6.00 Build 0)  -->
<svg xmlns="http://www.w3.org/2000/svg" xmlns:xlink="http://www.w3.org/1999/xlink" version="1.1" id="Capa_1" x="0px" y="0px" viewBox="0 0 384 384" style="enable-background:new 0 0 384 384;" xml:space="preserve">
<circle style="fill:#E05B49;" cx="192" cy="192" r="192"/>
<path style="opacity:0.1;enable-background:new    ;" d="M272.92,122.11c-0.211-0.211-0.48-0.305-0.714-0.474l-0.286-0.286  l0.053,0.132c-2.104-1.356-4.898-1.212-6.773,0.628c-2.12,2.12-2.12,5.56,0,7.64c5.88,5.84,10.72,12.28,14.6,19.12l-66.88-66.88  h-20.36l-65.96,57.4v0.08H89.04c-3.88,0-7.04,3.12-7.04,7v91.08c0,1.84,0.72,3.521,1.96,4.76l-0.04,0.04l139.117,139.117  c78.944-12.836,141.722-73.786,157.245-151.795L276.88,126.31C275.64,124.87,274.28,123.469,272.92,122.11z"/>
<g>
	<path style="fill:#64798A;" d="M236.61,231.223c-1.396,0-2.785-0.528-3.848-1.584c-2.126-2.113-2.126-5.535,0-7.648   c16.642-16.534,16.642-43.448,0-59.982c-2.126-2.113-2.126-5.535,0-7.648c2.126-2.112,5.571-2.112,7.697,0   c20.887,20.752,20.887,54.525,0,75.277C239.396,230.695,238.007,231.223,236.61,231.223z"/>
	<path style="fill:#64798A;" d="M253.188,247.694c-1.396,0-2.786-0.528-3.849-1.584c-2.126-2.113-2.126-5.535,0-7.648   c25.784-25.618,25.784-67.306,0-92.924c-2.126-2.113-2.126-5.535,0-7.648c2.126-2.112,5.571-2.112,7.697,0   c30.03,29.836,30.03,78.382,0,108.219C255.974,247.166,254.584,247.694,253.188,247.694z"/>
	<path style="fill:#64798A;" d="M269.064,263.468c-1.396,0-2.786-0.528-3.848-1.584c-2.126-2.112-2.126-5.535,0-7.648   c34.537-34.315,34.537-90.156,0-124.471c-2.126-2.112-2.126-5.535,0-7.647c2.126-2.113,5.57-2.113,7.697,0   c38.783,38.533,38.783,101.233,0,139.766C271.85,262.94,270.46,263.468,269.064,263.468z"/>
</g>
<rect x="192.56" y="82" style="fill:#D5D6DB;" width="20.344" height="220"/>
<polygon style="fill:#EBF0F3;" points="126.592,244.541 192.574,302 192.574,82 126.592,139.401 "/>
<path style="fill:#64798A;" d="M89.048,139.459c-3.893,0-7.048,3.136-7.048,7.002v91.078c0,3.867,3.156,7.002,7.048,7.002h37.543  V139.459H89.048z"/>
<g>
</g>
<g>
</g>
<g>
</g>
<g>
</g>
<g>
</g>
<g>
</g>
<g>
</g>
<g>
</g>
<g>
</g>
<g>
</g>
<g>
</g>
<g>
</g>
<g>
</g>
<g>
</g>
<g>
</g>
</svg>
