<?xml version="1.0" encoding="iso-8859-1"?>
<!-- Generator: Adobe Illustrator 19.0.0, SVG Export Plug-In . SVG Version: 6.00 Build 0)  -->
<svg xmlns="http://www.w3.org/2000/svg" xmlns:xlink="http://www.w3.org/1999/xlink" version="1.1" id="Capa_1" x="0px" y="0px" viewBox="0 0 384 384" style="enable-background:new 0 0 384 384;" xml:space="preserve">
<circle style="fill:#EFC84A;" cx="192" cy="192" r="192"/>
<path style="opacity:0.1;enable-background:new    ;" d="M251.72,83.316c-0.88-0.84-2.08-1.319-3.36-1.319H87.16  c-2.84,0-5.16,2.48-5.16,5.52v39.24c0,1.559,0.6,2.96,1.6,4l8.48,8.44v3.439h-4.92c-2.84,0-5.16,2.48-5.16,5.52v39.24  c0,1.801,0.8,3.4,2.08,4.4h-0.04l8.04,8.04v3.44h-4.92c-2.84,0-5.16,2.48-5.16,5.52v39.24c0,1.52,0.56,2.88,1.52,3.88  l130.756,130.755c88.227-10.199,158.2-80.174,168.398-168.401L252.04,83.637L251.72,83.316z"/>
<rect x="92.08" y="121.6" style="fill:#64798A;" width="151.388" height="99.432"/>
<g>
	<path style="fill:#EBF0F3;" d="M248.369,82H87.18C84.318,82,82,84.462,82,87.499v39.271c0,3.037,2.318,5.499,5.18,5.499h161.189   c2.86,0,5.18-2.462,5.18-5.499V87.499C253.548,84.462,251.229,82,248.369,82z"/>
	<path style="fill:#EBF0F3;" d="M248.369,203.28H87.18c-2.862,0-5.18,2.462-5.18,5.499v39.271c0,3.037,2.318,5.499,5.18,5.499   h161.189c2.86,0,5.18-2.462,5.18-5.499v-39.271C253.548,205.742,251.229,203.28,248.369,203.28z"/>
	<path style="fill:#EBF0F3;" d="M248.369,142.64H87.18c-2.862,0-5.18,2.462-5.18,5.499v39.271c0,3.037,2.318,5.499,5.18,5.499   h161.189c2.86,0,5.18-2.462,5.18-5.499v-39.271C253.548,145.102,251.229,142.64,248.369,142.64z"/>
</g>
<circle style="fill:#3A556A;" cx="102.22" cy="107.136" r="10.14"/>
<circle style="fill:#64798A;" cx="102.396" cy="106.96" r="6.992"/>
<circle style="fill:#E56353;" cx="126.7" cy="107.136" r="5.112"/>
<circle style="fill:#44C4A1;" cx="147.208" cy="107.136" r="5.112"/>
<circle style="fill:#3A556A;" cx="102.22" cy="167.776" r="10.14"/>
<circle style="fill:#64798A;" cx="102.396" cy="167.6" r="6.992"/>
<circle style="fill:#E56353;" cx="126.7" cy="167.776" r="5.112"/>
<circle style="fill:#44C4A1;" cx="147.208" cy="167.776" r="5.112"/>
<circle style="fill:#3A556A;" cx="102.22" cy="228.4" r="10.14"/>
<circle style="fill:#64798A;" cx="102.396" cy="228.24" r="6.992"/>
<circle style="fill:#E56353;" cx="126.7" cy="228.4" r="5.112"/>
<circle style="fill:#44C4A1;" cx="147.208" cy="228.4" r="5.112"/>
<g>
	<rect x="168.88" y="90.076" style="fill:#D5D6DB;" width="8.528" height="8.528"/>
	<rect x="185.92" y="90.076" style="fill:#D5D6DB;" width="8.528" height="8.528"/>
	<rect x="202.976" y="90.076" style="fill:#D5D6DB;" width="8.528" height="8.528"/>
	<rect x="220.04" y="90.076" style="fill:#D5D6DB;" width="8.528" height="8.528"/>
	<rect x="237.08" y="90.076" style="fill:#D5D6DB;" width="8.528" height="8.528"/>
	<rect x="177.4" y="98.604" style="fill:#D5D6DB;" width="8.528" height="8.528"/>
	<rect x="194.44" y="98.604" style="fill:#D5D6DB;" width="8.528" height="8.528"/>
	<rect x="211.504" y="98.604" style="fill:#D5D6DB;" width="8.528" height="8.528"/>
	<rect x="228.56" y="98.604" style="fill:#D5D6DB;" width="8.528" height="8.528"/>
	<rect x="168.88" y="107.136" style="fill:#D5D6DB;" width="8.528" height="8.528"/>
	<rect x="185.92" y="107.136" style="fill:#D5D6DB;" width="8.528" height="8.528"/>
	<rect x="202.976" y="107.136" style="fill:#D5D6DB;" width="8.528" height="8.528"/>
	<rect x="220.04" y="107.136" style="fill:#D5D6DB;" width="8.528" height="8.528"/>
	<rect x="237.08" y="107.136" style="fill:#D5D6DB;" width="8.528" height="8.528"/>
	<rect x="177.4" y="115.664" style="fill:#D5D6DB;" width="8.528" height="8.528"/>
	<rect x="194.44" y="115.664" style="fill:#D5D6DB;" width="8.528" height="8.528"/>
	<rect x="211.504" y="115.664" style="fill:#D5D6DB;" width="8.528" height="8.528"/>
	<rect x="228.56" y="115.664" style="fill:#D5D6DB;" width="8.528" height="8.528"/>
	<rect x="168.88" y="150.716" style="fill:#D5D6DB;" width="8.528" height="8.528"/>
	<rect x="185.92" y="150.716" style="fill:#D5D6DB;" width="8.528" height="8.528"/>
	<rect x="202.976" y="150.716" style="fill:#D5D6DB;" width="8.528" height="8.528"/>
	<rect x="220.04" y="150.716" style="fill:#D5D6DB;" width="8.528" height="8.528"/>
	<rect x="237.08" y="150.716" style="fill:#D5D6DB;" width="8.528" height="8.528"/>
	<rect x="177.4" y="159.244" style="fill:#D5D6DB;" width="8.528" height="8.528"/>
	<rect x="194.44" y="159.244" style="fill:#D5D6DB;" width="8.528" height="8.528"/>
	<rect x="211.504" y="159.244" style="fill:#D5D6DB;" width="8.528" height="8.528"/>
	<rect x="228.56" y="159.244" style="fill:#D5D6DB;" width="8.528" height="8.528"/>
	<rect x="168.88" y="167.776" style="fill:#D5D6DB;" width="8.528" height="8.528"/>
	<rect x="185.92" y="167.776" style="fill:#D5D6DB;" width="8.528" height="8.528"/>
	<rect x="202.976" y="167.776" style="fill:#D5D6DB;" width="8.528" height="8.528"/>
	<rect x="220.04" y="167.776" style="fill:#D5D6DB;" width="8.528" height="8.528"/>
	<rect x="237.08" y="167.776" style="fill:#D5D6DB;" width="8.528" height="8.528"/>
	<rect x="177.4" y="176.32" style="fill:#D5D6DB;" width="8.528" height="8.528"/>
	<rect x="194.44" y="176.32" style="fill:#D5D6DB;" width="8.528" height="8.528"/>
	<rect x="211.504" y="176.32" style="fill:#D5D6DB;" width="8.528" height="8.528"/>
	<rect x="228.56" y="176.32" style="fill:#D5D6DB;" width="8.528" height="8.528"/>
	<rect x="168.88" y="211.356" style="fill:#D5D6DB;" width="8.528" height="8.528"/>
	<rect x="185.92" y="211.356" style="fill:#D5D6DB;" width="8.528" height="8.528"/>
	<rect x="202.976" y="211.356" style="fill:#D5D6DB;" width="8.528" height="8.528"/>
	<rect x="220.04" y="211.356" style="fill:#D5D6DB;" width="8.528" height="8.528"/>
	<rect x="237.08" y="211.356" style="fill:#D5D6DB;" width="8.528" height="8.528"/>
	<rect x="177.4" y="219.884" style="fill:#D5D6DB;" width="8.528" height="8.528"/>
	<rect x="194.44" y="219.884" style="fill:#D5D6DB;" width="8.528" height="8.528"/>
	<rect x="211.504" y="219.884" style="fill:#D5D6DB;" width="8.528" height="8.528"/>
	<rect x="228.56" y="219.884" style="fill:#D5D6DB;" width="8.528" height="8.528"/>
	<rect x="168.88" y="228.4" style="fill:#D5D6DB;" width="8.528" height="8.528"/>
	<rect x="185.92" y="228.4" style="fill:#D5D6DB;" width="8.528" height="8.528"/>
	<rect x="202.976" y="228.4" style="fill:#D5D6DB;" width="8.528" height="8.528"/>
	<rect x="220.04" y="228.4" style="fill:#D5D6DB;" width="8.528" height="8.528"/>
	<rect x="237.08" y="228.4" style="fill:#D5D6DB;" width="8.528" height="8.528"/>
	<rect x="177.4" y="236.96" style="fill:#D5D6DB;" width="8.528" height="8.528"/>
	<rect x="194.44" y="236.96" style="fill:#D5D6DB;" width="8.528" height="8.528"/>
	<rect x="211.504" y="236.96" style="fill:#D5D6DB;" width="8.528" height="8.528"/>
	<rect x="228.56" y="236.96" style="fill:#D5D6DB;" width="8.528" height="8.528"/>
</g>
<circle style="fill:#E56353;" cx="230.88" cy="230.88" r="71.116"/>
<path style="fill:#FFFFFF;" d="M284.915,226.883h-6.975c-1.914-22.88-20.178-41.156-43.056-43.086v-6.945h-8v6.945  c-22.879,1.931-41.143,20.206-43.057,43.086h-6.975v8h6.978c1.946,22.851,20.198,41.091,43.054,43.02v7.011h8v-7.011  c22.855-1.929,41.107-20.169,43.054-43.02h6.978V226.883z M269.94,226.883h-13.392c-1.718-11.148-10.521-19.962-21.665-21.694  v-13.392C253.356,193.674,268.079,208.409,269.94,226.883z M230.884,248.848c-9.926,0-18-8.074-18-18c0-9.926,8.074-18,18-18  c9.926,0,18,8.074,18,18C248.884,240.774,240.809,248.848,230.884,248.848z M226.884,191.797v13.392  c-11.144,1.732-19.948,10.547-21.665,21.694h-13.392C193.688,208.409,208.411,193.674,226.884,191.797z M191.833,234.883h13.396  c1.744,11.115,10.534,19.895,21.654,21.624v13.396C208.434,268.028,193.724,253.328,191.833,234.883z M234.884,269.903v-13.396  c11.12-1.729,19.91-10.509,21.654-21.624h13.397C268.043,253.328,253.333,268.028,234.884,269.903z"/>
<g>
</g>
<g>
</g>
<g>
</g>
<g>
</g>
<g>
</g>
<g>
</g>
<g>
</g>
<g>
</g>
<g>
</g>
<g>
</g>
<g>
</g>
<g>
</g>
<g>
</g>
<g>
</g>
<g>
</g>
</svg>
