<?xml version="1.0" encoding="iso-8859-1"?>
<!-- Generator: Adobe Illustrator 19.0.0, SVG Export Plug-In . SVG Version: 6.00 Build 0)  -->
<svg xmlns="http://www.w3.org/2000/svg" xmlns:xlink="http://www.w3.org/1999/xlink" version="1.1" id="Capa_1" x="0px" y="0px" viewBox="0 0 384 384" style="enable-background:new 0 0 384 384;" xml:space="preserve">
<circle style="fill:#E05B49;" cx="192" cy="192" r="192"/>
<path style="opacity:0.1;enable-background:new    ;" d="M268.32,81.99v6.4l13.8,13.8h-4.32l-20.2-20.2h-21.2v6.4l13.96,13.96  l-6.24-1.88l-18.48-18.48h-21.2v6.4l19.96,19.96v0.56l-6.72-6.72h-13.24v6.4l15.08,15.08h-15.08v6.4l19.96,19.96v0.56l-6.72-6.72  h-13.24v6.4l9.68,9.68H204l-18.64,30.2c-37.56,1.96-74.68,20.56-103.36,55.84c3.32,4.08,6.72,7.92,10.28,11.52l124.806,124.807  C311.262,370.017,384,289.53,384,192c0-10.361-0.846-20.52-2.426-30.436L302,81.99H268.32z"/>
<polygon style="fill:#64798A;" points="186.074,200.477 180.965,197.329 204.004,159.934 302,159.934 302,165.934 207.356,165.934   "/>
<path style="fill:#FFFFFF;" d="M82,245.986L82,245.986L82,245.986c60.751,74.686,159.248,74.686,219.999,0.001v0v0  C241.249,171.301,142.752,171.301,82,245.986z"/>
<path style="fill:#44C4A1;" d="M224.044,228.98c-8.304,0-15.038-6.733-15.038-15.038c0-3.892,1.518-7.404,3.944-10.074  c-6.316-3.149-13.413-4.964-20.95-4.964c-26.002,0-47.082,21.08-47.082,47.082s21.08,47.082,47.082,47.082  c26.004,0,47.083-21.08,47.083-47.082c0-7.536-1.816-14.634-4.964-20.95C231.448,227.462,227.936,228.98,224.044,228.98z"/>
<circle style="fill:#64798A;" cx="192" cy="246" r="14.58"/>
<circle style="fill:#FFFFFF;" cx="201.72" cy="236.24" r="4.852"/>
<rect x="204.44" y="82" style="fill:#FCD462;" width="21.204" height="6.384"/>
<rect x="236.4" y="82" style="fill:#44C4A1;" width="21.204" height="6.384"/>
<rect x="268.32" y="82" style="fill:#E56353;" width="33.68" height="6.384"/>
<rect x="204.44" y="102.208" style="fill:#64798A;" width="13.22" height="6.384"/>
<rect x="224.4" y="102.584" style="fill:#27A2DB;" width="28.2" height="6.384"/>
<rect x="261.84" y="102.208" style="fill:#FCD462;" width="23.448" height="6.384"/>
<rect x="204.44" y="123.668" style="fill:#E56353;" width="18.712" height="6.384"/>
<g>
	<rect x="232.16" y="123.668" style="fill:#64798A;" width="21.208" height="6.384"/>
	<rect x="257.72" y="123.668" style="fill:#64798A;" width="21.208" height="6.384"/>
	<rect x="283.52" y="123.668" style="fill:#64798A;" width="18.46" height="6.384"/>
	<rect x="204.44" y="143.872" style="fill:#64798A;" width="13.22" height="6.384"/>
</g>
<rect x="224.4" y="144.24" style="fill:#44C4A1;" width="28.2" height="6.384"/>
<rect x="261.84" y="143.872" style="fill:#27A2DB;" width="23.448" height="6.384"/>
<g>
</g>
<g>
</g>
<g>
</g>
<g>
</g>
<g>
</g>
<g>
</g>
<g>
</g>
<g>
</g>
<g>
</g>
<g>
</g>
<g>
</g>
<g>
</g>
<g>
</g>
<g>
</g>
<g>
</g>
</svg>
