<?xml version="1.0" encoding="iso-8859-1"?>
<!-- Generator: Adobe Illustrator 19.0.0, SVG Export Plug-In . SVG Version: 6.00 Build 0)  -->
<svg xmlns="http://www.w3.org/2000/svg" xmlns:xlink="http://www.w3.org/1999/xlink" version="1.1" id="Capa_1" x="0px" y="0px" viewBox="0 0 384 384" style="enable-background:new 0 0 384 384;" xml:space="preserve">
<circle style="fill:#45B39C;" cx="192" cy="192" r="192"/>
<path style="opacity:0.1;enable-background:new    ;" d="M291.72,90.316c-0.08-0.039-0.12-0.119-0.2-0.159  c-5.6-5.08-12.96-8.16-21.12-8.16c-17.44,0-31.56,14.16-31.56,31.6c0,0.2,0.04,0.44,0.04,0.681l-32.08,7.8l-20.16-20.16  c-1.24-1.36-2.52-2.68-3.88-3.92c-0.24-0.24-0.48-0.44-0.76-0.681c-10.6-9.479-24.6-15.319-39.96-15.319  c-33.16,0-60.04,26.88-60.04,60.04c0,14.56,5.2,27.92,13.8,38.279l0.24,0.24c2.24,2.721,4.76,5.24,7.44,7.48l0.2,0.16l19.68,19.68  l-6.92,31.12c-0.92-0.12-1.88-0.16-2.84-0.16c-17.48,0-31.6,14.12-31.6,31.6c0,7.32,2.52,14.039,6.72,19.4  c0.52,0.64,1.04,1.28,1.6,1.88l92.039,92.039c3.194,0.158,6.408,0.244,9.641,0.244c106.039,0,192-85.962,192-192  c0-3.222-0.086-6.423-0.243-9.605L294.12,92.757C293.36,91.917,292.56,91.077,291.72,90.316z"/>
<g>
	<path style="fill:#FFFFFF;" d="M138.685,138.759l-30.176,136.068l165.91-12.984v-156.28L138.685,138.759z M266.419,249.133   L150.331,144.148l116.088-28.392V249.133z M144.47,149.633l43.361,39.215l-9.955,10.167l5.719,5.598l10.176-10.392l67.076,60.661   L123.9,265.597l3.734-3.814l-5.719-5.598l-1.394,1.426L144.47,149.633z"/>
	
		<rect x="200.726" y="169.215" transform="matrix(-0.6995 0.7146 -0.7146 -0.6995 478.5161 145.2175)" style="fill:#FFFFFF;" width="16" height="8"/>
	
		<rect x="245.485" y="123.514" transform="matrix(-0.6993 0.7149 -0.7149 -0.6993 521.8936 35.4739)" style="fill:#FFFFFF;" width="16" height="8"/>
	
		<rect x="223.108" y="146.346" transform="matrix(-0.6995 0.7146 -0.7146 -0.6995 500.2124 90.3625)" style="fill:#FFFFFF;" width="16" height="8"/>
	
		<rect x="155.944" y="214.952" transform="matrix(-0.6993 0.7149 -0.7149 -0.6993 435.1042 254.8592)" style="fill:#FFFFFF;" width="16" height="8"/>
	
		<rect x="133.553" y="237.839" transform="matrix(-0.6995 0.7146 -0.7146 -0.6995 413.3954 309.8432)" style="fill:#FFFFFF;" width="16" height="8"/>
</g>
<circle style="fill:#FCD462;" cx="142.04" cy="142.04" r="60.04"/>
<path style="fill:#F6C358;" d="M176.941,93.236c7.974,10.192,12.769,22.992,12.769,36.936c0,33.167-26.887,60.054-60.055,60.054  c-13.025,0-25.048-4.191-34.887-11.236c10.991,14.052,28.062,23.118,47.285,23.118c33.168,0,60.055-26.887,60.055-60.054  C202.108,121.912,192.157,104.131,176.941,93.236z"/>
<circle style="fill:#E56353;" cx="270.4" cy="113.6" r="31.58"/>
<path style="fill:#D15241;" d="M288.765,87.909c4.193,5.36,6.715,12.091,6.715,19.424c0,17.442-14.14,31.582-31.582,31.582  c-6.85,0-13.172-2.204-18.347-5.909c5.78,7.39,14.758,12.158,24.867,12.158c17.443,0,31.582-14.14,31.582-31.582  C302,102.989,296.767,93.638,288.765,87.909z"/>
<circle style="fill:#27A2DB;" cx="270.4" cy="258.16" r="31.58"/>
<path style="fill:#2D93BA;" d="M288.764,232.472c4.194,5.36,6.716,12.091,6.716,19.424c0,17.442-14.14,31.582-31.582,31.582  c-6.85,0-13.172-2.204-18.347-5.909c5.78,7.39,14.758,12.158,24.867,12.158c17.443,0,31.582-14.14,31.582-31.582  C302,247.552,296.767,238.201,288.764,232.472z"/>
<circle style="fill:#64798A;" cx="113.6" cy="270.4" r="31.58"/>
<path style="fill:#3A556A;" d="M131.928,244.745c4.194,5.36,6.715,12.091,6.715,19.424c0,17.442-14.14,31.582-31.582,31.582  c-6.85,0-13.172-2.204-18.347-5.909c5.78,7.39,14.758,12.158,24.867,12.158c17.442,0,31.582-14.14,31.582-31.582  C145.164,259.826,139.93,250.474,131.928,244.745z"/>
<g>
</g>
<g>
</g>
<g>
</g>
<g>
</g>
<g>
</g>
<g>
</g>
<g>
</g>
<g>
</g>
<g>
</g>
<g>
</g>
<g>
</g>
<g>
</g>
<g>
</g>
<g>
</g>
<g>
</g>
</svg>
