<?xml version="1.0" encoding="iso-8859-1"?>
<!-- Generator: Adobe Illustrator 19.0.0, SVG Export Plug-In . SVG Version: 6.00 Build 0)  -->
<svg xmlns="http://www.w3.org/2000/svg" xmlns:xlink="http://www.w3.org/1999/xlink" version="1.1" id="Capa_1" x="0px" y="0px" viewBox="0 0 384 384" style="enable-background:new 0 0 384 384;" xml:space="preserve">
<circle style="fill:#45B39C;" cx="192" cy="192" r="192"/>
<path style="opacity:0.1;enable-background:new    ;" d="M285.28,99.35l-4.72-2.96l-21.48-13.4l-20.28,32.52l-15.16-15.16  c-0.28-0.48-0.72-0.92-1.24-1.24l-7.44-4.68l-10.88-6.76l-7.48-4.68c-1.88-1.2-4.36-0.6-5.56,1.28l-12.96,20.72l-2.4,3.84  l-91.44,146l-1.52,24.68L82,291.429c-0.04,0.68,0.24,1.28,0.72,1.68l0.2,0.16l89.763,89.763C179.036,383.668,185.479,384,192,384  c106.039,0,192-85.961,192-192c0-0.073-0.005-0.143-0.005-0.216L302,109.79L285.28,99.35z"/>
<polygon style="fill:#CE412D;" points="197.468,122.446 208.355,129.244 116.912,275.22 106.025,268.421 "/>
<polygon style="fill:#D15241;" points="186.581,115.648 197.468,122.446 106.025,268.421 95.138,261.623 "/>
<polygon style="fill:#E56353;" points="175.694,108.849 186.581,115.648 95.138,261.623 84.251,254.824 "/>
<rect x="173.998" y="114.863" transform="matrix(0.8482 0.5297 -0.5297 0.8482 91.3774 -84.5801)" style="fill:#EBF0F3;" width="38.504" height="4.536"/>
<path style="fill:#2F4859;" d="M222.415,99.109l-7.463-4.66l-15.081,24.15l10.886,6.798l12.943-20.726  C224.882,102.78,224.306,100.29,222.415,99.109z"/>
<rect x="187.744" y="96.718" transform="matrix(-0.5297 0.8482 -0.8482 -0.5297 396.4446 -13.555)" style="fill:#3A556A;" width="28.472" height="12.836"/>
<path style="fill:#64798A;" d="M204.065,87.65l-7.463-4.66c-1.892-1.181-4.381-0.606-5.562,1.286l-12.943,20.726l10.886,6.798  L204.065,87.65z"/>
<path style="fill:#FCD462;" d="M84.251,254.824l-1.515,24.69c2.638-0.662,5.528-0.308,8.018,1.247  c2.489,1.554,4.075,3.995,4.638,6.656l21.52-12.198L84.251,254.824z"/>
<path style="fill:#64798A;" d="M90.753,280.762c-2.49-1.555-5.38-1.909-8.018-1.247l-0.732,11.919  c-0.098,1.593,1.61,2.66,2.999,1.873l10.388-5.888C94.828,284.757,93.242,282.316,90.753,280.762z"/>
<rect x="195.347" y="79.232" transform="matrix(-0.8482 -0.5297 0.5297 -0.8482 305.9359 472.3032)" style="fill:#FCD462;" width="50.6" height="226.16"/>
<rect x="215.074" y="79.232" transform="matrix(-0.8482 -0.5297 0.5297 -0.8482 305.9298 472.2981)" style="fill:#F6C358;" width="11.136" height="226.159"/>
<g>
	
		<rect x="293.082" y="111.675" transform="matrix(-0.5296 0.8482 -0.8482 -0.5296 547.7927 -73.0109)" style="fill:#DC8744;" width="2.116" height="7.416"/>
	
		<rect x="290.517" y="115.769" transform="matrix(-0.5297 0.8482 -0.8482 -0.5297 547.3559 -64.5514)" style="fill:#DC8744;" width="2.116" height="7.416"/>
	
		<rect x="287.941" y="119.89" transform="matrix(-0.5297 0.8482 -0.8482 -0.5297 546.9107 -56.0628)" style="fill:#DC8744;" width="2.116" height="7.416"/>
	
		<rect x="283.608" y="120.861" transform="matrix(-0.5297 0.8482 -0.8482 -0.5297 542.871 -47.7204)" style="fill:#DC8744;" width="2.116" height="11.568"/>
	
		<rect x="282.801" y="128.125" transform="matrix(-0.5297 0.8482 -0.8482 -0.5297 546.0333 -39.1063)" style="fill:#DC8744;" width="2.116" height="7.416"/>
	
		<rect x="280.247" y="132.239" transform="matrix(-0.5297 0.8482 -0.8482 -0.5297 545.6166 -30.6479)" style="fill:#DC8744;" width="2.116" height="7.416"/>
	
		<rect x="277.694" y="136.352" transform="matrix(-0.5297 0.8482 -0.8482 -0.5297 545.2 -22.1895)" style="fill:#DC8744;" width="2.116" height="7.416"/>
	
		<rect x="273.356" y="137.285" transform="matrix(-0.5297 0.8482 -0.8482 -0.5297 541.1145 -13.909)" style="fill:#DC8744;" width="2.116" height="11.568"/>
	
		<rect x="272.555" y="144.545" transform="matrix(-0.5296 0.8482 -0.8482 -0.5296 544.2833 -5.308)" style="fill:#DC8744;" width="2.116" height="7.416"/>
	
		<rect x="269.996" y="148.672" transform="matrix(-0.5297 0.8482 -0.8482 -0.5297 543.8739 3.1854)" style="fill:#DC8744;" width="2.116" height="7.416"/>
	
		<rect x="267.421" y="152.82" transform="matrix(-0.5297 0.8482 -0.8482 -0.5297 543.4537 11.7137)" style="fill:#DC8744;" width="2.116" height="7.416"/>
	
		<rect x="263.086" y="153.715" transform="matrix(-0.5297 0.8482 -0.8482 -0.5297 539.3426 19.9355)" style="fill:#DC8744;" width="2.116" height="11.568"/>
	
		<rect x="262.277" y="160.986" transform="matrix(-0.5297 0.8482 -0.8482 -0.5297 542.5104 28.569)" style="fill:#DC8744;" width="2.116" height="7.416"/>
	
		<rect x="259.725" y="165.103" transform="matrix(-0.5297 0.8482 -0.8482 -0.5297 542.0995 37.031)" style="fill:#DC8744;" width="2.116" height="7.416"/>
	
		<rect x="257.136" y="169.216" transform="matrix(-0.5296 0.8482 -0.8482 -0.5296 541.6217 45.5065)" style="fill:#DC8744;" width="2.116" height="7.416"/>
	
		<rect x="252.84" y="170.158" transform="matrix(-0.5297 0.8482 -0.8482 -0.5297 537.6153 53.7875)" style="fill:#DC8744;" width="2.112" height="11.568"/>
	
		<rect x="252.009" y="177.439" transform="matrix(-0.5296 0.8482 -0.8482 -0.5296 540.7514 62.4346)" style="fill:#DC8744;" width="2.112" height="7.416"/>
	
		<rect x="249.454" y="181.567" transform="matrix(-0.5297 0.8482 -0.8482 -0.5297 540.3536 70.9272)" style="fill:#DC8744;" width="2.116" height="7.416"/>
	
		<rect x="246.859" y="185.66" transform="matrix(-0.5297 0.8482 -0.8482 -0.5297 539.8548 79.3887)" style="fill:#DC8744;" width="2.116" height="7.416"/>
	
		<rect x="242.583" y="186.573" transform="matrix(-0.5297 0.8482 -0.8482 -0.5297 535.8487 87.5867)" style="fill:#DC8744;" width="2.116" height="11.568"/>
	
		<rect x="241.76" y="193.887" transform="matrix(-0.5297 0.8482 -0.8482 -0.5297 539.0337 96.2987)" style="fill:#DC8744;" width="2.116" height="7.416"/>
	
		<rect x="239.207" y="197.961" transform="matrix(-0.5297 0.8482 -0.8482 -0.5297 538.5831 104.6959)" style="fill:#DC8744;" width="2.116" height="7.416"/>
	
		<rect x="236.599" y="202.113" transform="matrix(-0.5296 0.8482 -0.8482 -0.5296 538.112 113.2489)" style="fill:#DC8744;" width="2.116" height="7.416"/>
	
		<rect x="232.288" y="203.039" transform="matrix(-0.5297 0.8482 -0.8482 -0.5297 534.0646 121.5096)" style="fill:#DC8744;" width="2.112" height="11.568"/>
	
		<rect x="231.476" y="210.333" transform="matrix(-0.5296 0.8482 -0.8482 -0.5296 537.2495 130.1681)" style="fill:#DC8744;" width="2.116" height="7.416"/>
	
		<rect x="228.934" y="214.428" transform="matrix(-0.5297 0.8482 -0.8482 -0.5297 536.8368 138.5991)" style="fill:#DC8744;" width="2.116" height="7.416"/>
	
		<rect x="226.347" y="218.52" transform="matrix(-0.5297 0.8482 -0.8482 -0.5297 536.3502 147.0538)" style="fill:#DC8744;" width="2.116" height="7.416"/>
	
		<rect x="222.033" y="219.465" transform="matrix(-0.5297 0.8482 -0.8482 -0.5297 532.3137 155.331)" style="fill:#DC8744;" width="2.116" height="11.568"/>
	
		<rect x="221.24" y="226.748" transform="matrix(-0.5297 0.8482 -0.8482 -0.5297 535.517 163.9706)" style="fill:#DC8744;" width="2.116" height="7.416"/>
	
		<rect x="218.666" y="230.895" transform="matrix(-0.5297 0.8482 -0.8482 -0.5297 535.0966 172.4988)" style="fill:#DC8744;" width="2.116" height="7.416"/>
	
		<rect x="216.097" y="234.975" transform="matrix(-0.5296 0.8482 -0.8482 -0.5296 534.6223 180.9082)" style="fill:#DC8744;" width="2.112" height="7.416"/>
	
		<rect x="211.774" y="235.901" transform="matrix(-0.5297 0.8482 -0.8482 -0.5297 530.5588 189.1855)" style="fill:#DC8744;" width="2.112" height="11.568"/>
	
		<rect x="210.97" y="243.202" transform="matrix(-0.5296 0.8482 -0.8482 -0.5296 533.759 197.8413)" style="fill:#DC8744;" width="2.112" height="7.416"/>
	
		<rect x="208.38" y="247.274" transform="matrix(-0.5297 0.8482 -0.8482 -0.5297 533.2551 206.2812)" style="fill:#DC8744;" width="2.116" height="7.416"/>
	
		<rect x="205.827" y="251.381" transform="matrix(-0.5297 0.8482 -0.8482 -0.5297 532.8335 214.7257)" style="fill:#DC8744;" width="2.116" height="7.416"/>
	
		<rect x="201.468" y="252.347" transform="matrix(-0.5297 0.8482 -0.8482 -0.5297 528.7457 223.0732)" style="fill:#DC8744;" width="2.116" height="11.568"/>
	
		<rect x="200.704" y="259.636" transform="matrix(-0.5297 0.8482 -0.8482 -0.5297 532.0001 231.6977)" style="fill:#DC8744;" width="2.116" height="7.416"/>
	
		<rect x="198.113" y="263.744" transform="matrix(-0.5297 0.8482 -0.8482 -0.5297 531.5196 240.1788)" style="fill:#DC8744;" width="2.116" height="7.416"/>
	
		<rect x="195.561" y="267.851" transform="matrix(-0.5297 0.8482 -0.8482 -0.5297 531.1003 248.6259)" style="fill:#DC8744;" width="2.116" height="7.416"/>
	
		<rect x="191.217" y="268.781" transform="matrix(-0.5297 0.8482 -0.8482 -0.5297 527.0045 256.9023)" style="fill:#DC8744;" width="2.116" height="11.568"/>
	
		<rect x="190.447" y="276.076" transform="matrix(-0.5297 0.8482 -0.8482 -0.5297 530.2539 265.5457)" style="fill:#DC8744;" width="2.116" height="7.416"/>
	
		<rect x="187.849" y="280.186" transform="matrix(-0.5297 0.8482 -0.8482 -0.5297 529.7656 274.0354)" style="fill:#DC8744;" width="2.116" height="7.416"/>
	
		<rect x="185.297" y="284.276" transform="matrix(-0.5297 0.8482 -0.8482 -0.5297 529.3315 282.4573)" style="fill:#DC8744;" width="2.116" height="7.416"/>
	
		<rect x="180.948" y="285.208" transform="matrix(-0.5297 0.8482 -0.8482 -0.5297 525.2292 290.7443)" style="fill:#DC8744;" width="2.116" height="11.568"/>
</g>
<g>
</g>
<g>
</g>
<g>
</g>
<g>
</g>
<g>
</g>
<g>
</g>
<g>
</g>
<g>
</g>
<g>
</g>
<g>
</g>
<g>
</g>
<g>
</g>
<g>
</g>
<g>
</g>
<g>
</g>
</svg>
