<?xml version="1.0" encoding="iso-8859-1"?>
<!-- Generator: Adobe Illustrator 19.0.0, SVG Export Plug-In . SVG Version: 6.00 Build 0)  -->
<svg xmlns="http://www.w3.org/2000/svg" xmlns:xlink="http://www.w3.org/1999/xlink" version="1.1" id="Capa_1" x="0px" y="0px" viewBox="0 0 384 384" style="enable-background:new 0 0 384 384;" xml:space="preserve">
<circle style="fill:#334D5C;" cx="192" cy="192" r="192"/>
<path style="opacity:0.1;enable-background:new    ;" d="M301.24,83.19L301,82.95c-0.6-0.6-1.4-0.96-2.28-0.96H274  c-1.8,0-3.28,1.48-3.28,3.28v10.64L256.8,81.99h-49.24v32.68l-17.4-17.4l-1.08-1.08L189,96.11c-0.92-0.68-2.04-1.08-3.24-1.08h-25.4  c-2.64,0-4.88,1.88-5.44,4.439l-3.28,16.04c-13,3.64-24.68,10.521-34.12,19.72l-15.52-5.2c-2.52-0.8-5.24,0.24-6.56,2.519  l-12.68,21.96c-1.32,2.28-0.88,5.16,1.12,6.92l12.24,10.84c-1.64,6.32-2.48,12.92-2.48,19.72c0,6.8,0.84,13.44,2.48,19.72  l-12.24,10.84c-2,1.76-2.44,4.68-1.12,6.96l12.68,21.96c0.12,0.2,0.24,0.36,0.36,0.561l0.04,0.08l1.04,1l128.024,128.024  C315.256,365.52,384,286.813,384,192c0-9.548-0.722-18.925-2.067-28.099L301.44,83.429L301.24,83.19z"/>
<path style="fill:#E56353;" d="M209.315,239.437c-10.072,7.716-22.618,12.356-36.257,12.356c-32.97,0-59.794-26.822-59.794-59.794  s26.824-59.794,59.794-59.794c13.639,0,26.185,4.641,36.257,12.356v-23.195c-4.702-2.417-9.664-4.398-14.852-5.848l-3.284-16.044  c-0.526-2.582-2.799-4.436-5.434-4.436h-25.374c-2.636,0-4.907,1.854-5.435,4.436l-3.283,16.044  c-13.032,3.64-24.71,10.51-34.114,19.708l-15.55-5.184c-2.5-0.834-5.241,0.207-6.558,2.489l-12.687,21.974  c-1.318,2.282-0.848,5.177,1.124,6.925l12.236,10.85c-1.61,6.305-2.47,12.911-2.47,19.718c0,6.808,0.859,13.414,2.471,19.719  l-12.238,10.85c-1.972,1.748-2.442,4.644-1.124,6.925l12.687,21.974c1.317,2.282,4.058,3.323,6.558,2.49l15.55-5.184  c9.404,9.197,21.082,16.068,34.114,19.708l3.283,16.044c0.528,2.582,2.799,4.437,5.435,4.437h25.374  c2.635,0,4.907-1.854,5.434-4.437l3.284-16.044c5.188-1.449,10.15-3.431,14.852-5.848V239.437z"/>
<g>
	<path style="fill:#D15241;" d="M209.315,230.734c-9.506,8.903-22.237,14.4-36.257,14.4c-29.298,0-53.134-23.836-53.134-53.135   s23.836-53.136,53.134-53.136c14.02,0,26.751,5.498,36.257,14.4v-8.702c-10.072-7.716-22.618-12.356-36.257-12.356   c-32.97,0-59.794,26.822-59.794,59.794s26.824,59.794,59.794,59.794c13.639,0,26.185-4.641,36.257-12.356V230.734z"/>
	<circle style="fill:#D15241;" cx="173.04" cy="192" r="28.444"/>
</g>
<rect x="270.72" y="108.8" style="fill:#44C4A1;" width="10.424" height="166.156"/>
<rect x="281.16" y="108.8" style="fill:#3EA69B;" width="10.424" height="166.156"/>
<rect x="291.56" y="108.8" style="fill:#31978C;" width="10.424" height="166.156"/>
<rect x="270.72" y="105.12" style="fill:#E56353;" width="31.268" height="3.684"/>
<path style="fill:#EBF0F3;" d="M274.008,82h7.145v23.122H270.73V85.278C270.73,83.468,272.198,82,274.008,82z"/>
<rect x="281.16" y="82" style="fill:#E1E6E9;" width="10.424" height="23.12"/>
<path style="fill:#D5D6DB;" d="M291.577,82h7.145c1.811,0,3.278,1.468,3.278,3.278v19.844h-10.423V82z"/>
<path style="fill:#FCD462;" d="M302,274.963l-9.576,17.659c-1.532-1.591-3.675-2.59-6.058-2.59c-2.383,0-4.525,0.999-6.058,2.59  l-9.576-17.659H302z"/>
<path style="fill:#64798A;" d="M286.365,290.032c2.384,0,4.526,0.999,6.058,2.59l-4.622,8.524c-0.618,1.14-2.253,1.14-2.872,0  l-4.623-8.524C281.84,291.031,283.982,290.032,286.365,290.032z"/>
<rect x="207.576" y="82" style="fill:#FCD462;" width="49.22" height="220"/>
<rect x="226.76" y="82" style="fill:#F6C358;" width="10.832" height="220"/>
<g>
	<rect x="249.6" y="89.64" style="fill:#DC8744;" width="7.212" height="2.056"/>
	<rect x="249.6" y="94.356" style="fill:#DC8744;" width="7.212" height="2.056"/>
	<rect x="249.6" y="99.072" style="fill:#DC8744;" width="7.212" height="2.056"/>
	<rect x="245.56" y="103.784" style="fill:#DC8744;" width="11.256" height="2.056"/>
	<rect x="249.6" y="108.48" style="fill:#DC8744;" width="7.212" height="2.056"/>
	<rect x="249.6" y="113.2" style="fill:#DC8744;" width="7.212" height="2.056"/>
	<rect x="249.6" y="117.92" style="fill:#DC8744;" width="7.212" height="2.056"/>
	<rect x="245.56" y="122.636" style="fill:#DC8744;" width="11.256" height="2.056"/>
	<rect x="249.6" y="127.348" style="fill:#DC8744;" width="7.212" height="2.056"/>
	<rect x="249.6" y="132.08" style="fill:#DC8744;" width="7.212" height="2.056"/>
	<rect x="249.6" y="136.76" style="fill:#DC8744;" width="7.212" height="2.056"/>
	<rect x="245.56" y="141.48" style="fill:#DC8744;" width="11.256" height="2.056"/>
	<rect x="249.6" y="146.2" style="fill:#DC8744;" width="7.212" height="2.056"/>
	<rect x="249.6" y="150.912" style="fill:#DC8744;" width="7.212" height="2.056"/>
	<rect x="249.6" y="155.628" style="fill:#DC8744;" width="7.212" height="2.056"/>
	<rect x="245.56" y="160.32" style="fill:#DC8744;" width="11.256" height="2.056"/>
	<rect x="249.6" y="165.04" style="fill:#DC8744;" width="7.212" height="2.056"/>
	<rect x="249.6" y="169.76" style="fill:#DC8744;" width="7.212" height="2.056"/>
	<rect x="249.6" y="174.48" style="fill:#DC8744;" width="7.212" height="2.056"/>
	<rect x="245.56" y="179.188" style="fill:#DC8744;" width="11.256" height="2.056"/>
	<rect x="249.6" y="183.904" style="fill:#DC8744;" width="7.212" height="2.056"/>
	<rect x="249.6" y="188.6" style="fill:#DC8744;" width="7.212" height="2.056"/>
	<rect x="249.6" y="193.32" style="fill:#DC8744;" width="7.212" height="2.056"/>
	<rect x="245.56" y="198.04" style="fill:#DC8744;" width="11.256" height="2.056"/>
	<rect x="249.6" y="202.76" style="fill:#DC8744;" width="7.212" height="2.056"/>
	<rect x="249.6" y="207.468" style="fill:#DC8744;" width="7.212" height="2.056"/>
	<rect x="249.6" y="212.2" style="fill:#DC8744;" width="7.212" height="2.056"/>
	<rect x="245.56" y="216.88" style="fill:#DC8744;" width="11.256" height="2.056"/>
	<rect x="249.6" y="221.6" style="fill:#DC8744;" width="7.212" height="2.056"/>
	<rect x="249.6" y="226.32" style="fill:#DC8744;" width="7.212" height="2.056"/>
	<rect x="249.6" y="231.04" style="fill:#DC8744;" width="7.212" height="2.056"/>
	<rect x="245.56" y="235.744" style="fill:#DC8744;" width="11.256" height="2.056"/>
	<rect x="249.6" y="240.44" style="fill:#DC8744;" width="7.212" height="2.056"/>
	<rect x="249.6" y="245.16" style="fill:#DC8744;" width="7.212" height="2.056"/>
	<rect x="249.6" y="249.88" style="fill:#DC8744;" width="7.212" height="2.056"/>
	<rect x="245.56" y="254.6" style="fill:#DC8744;" width="11.256" height="2.056"/>
	<rect x="249.6" y="259.32" style="fill:#DC8744;" width="7.212" height="2.056"/>
	<rect x="249.6" y="264.04" style="fill:#DC8744;" width="7.212" height="2.056"/>
	<rect x="249.6" y="268.72" style="fill:#DC8744;" width="7.212" height="2.056"/>
	<rect x="245.56" y="273.44" style="fill:#DC8744;" width="11.256" height="2.056"/>
	<rect x="249.6" y="278.16" style="fill:#DC8744;" width="7.212" height="2.056"/>
	<rect x="249.6" y="282.88" style="fill:#DC8744;" width="7.212" height="2.056"/>
	<rect x="249.6" y="287.6" style="fill:#DC8744;" width="7.212" height="2.056"/>
	<rect x="245.56" y="292.32" style="fill:#DC8744;" width="11.256" height="2.056"/>
</g>
<g>
</g>
<g>
</g>
<g>
</g>
<g>
</g>
<g>
</g>
<g>
</g>
<g>
</g>
<g>
</g>
<g>
</g>
<g>
</g>
<g>
</g>
<g>
</g>
<g>
</g>
<g>
</g>
<g>
</g>
</svg>
