<?xml version="1.0" encoding="iso-8859-1"?>
<!-- Generator: Adobe Illustrator 19.0.0, SVG Export Plug-In . SVG Version: 6.00 Build 0)  -->
<svg xmlns="http://www.w3.org/2000/svg" xmlns:xlink="http://www.w3.org/1999/xlink" version="1.1" id="Capa_1" x="0px" y="0px" viewBox="0 0 384 384" style="enable-background:new 0 0 384 384;" xml:space="preserve">
<circle style="fill:#E05B49;" cx="192" cy="192" r="192"/>
<path style="opacity:0.1;enable-background:new    ;" d="M381.032,225.469l-111.251-111.25c-42.963-42.964-112.6-42.964-155.563,0  c-42.964,42.964-42.964,112.6,0,155.563l111.251,111.251C304.668,367.102,367.102,304.667,381.032,225.469z"/>
<path style="fill:#2D93BA;" d="M192,82v220c60.752,0,110-49.248,110-110S252.752,82,192,82z"/>
<path style="fill:#27A2DB;" d="M82,192c0,60.752,49.249,110,110,110V82C131.249,82,82,131.248,82,192z"/>
<polygon style="fill:#1C75A1;" points="260.616,194.826 209.921,144.132 209.921,167.636 123.384,167.636 123.384,222.016   209.921,222.016 209.921,245.52 "/>
<polygon style="fill:#FFFFFF;" points="260.616,189.174 209.921,138.48 209.921,161.984 123.384,161.984 123.384,216.364   209.921,216.364 209.921,239.868 "/>
<g>
</g>
<g>
</g>
<g>
</g>
<g>
</g>
<g>
</g>
<g>
</g>
<g>
</g>
<g>
</g>
<g>
</g>
<g>
</g>
<g>
</g>
<g>
</g>
<g>
</g>
<g>
</g>
<g>
</g>
</svg>
