<?xml version="1.0" encoding="iso-8859-1"?>
<!-- Generator: Adobe Illustrator 19.0.0, SVG Export Plug-In . SVG Version: 6.00 Build 0)  -->
<svg xmlns="http://www.w3.org/2000/svg" xmlns:xlink="http://www.w3.org/1999/xlink" version="1.1" id="Capa_1" x="0px" y="0px" viewBox="0 0 384 384" style="enable-background:new 0 0 384 384;" xml:space="preserve">
<circle style="fill:#45B39C;" cx="192" cy="192" r="192"/>
<path style="opacity:0.1;enable-background:new    ;" d="M226.92,128.12L214.4,115.6v44.8l-44.8-44.8l-13.24,11.8L110.96,82  L82,110.96l4,4l-4,4l42.12,42.12l-8.52,8.52l4,4l-4,4l28.8,28.8h-28.8l8,8h-8l8.52,8.52L82,265.04l4,4l-4,4l110.936,110.936  c105.292-0.506,190.534-85.748,191.04-191.04L273.04,82L226.92,128.12z"/>
<g>
	<polygon style="fill:#31978C;" points="214.388,177.612 214.388,123.587 226.912,136.111 273.024,90 302,118.976 255.889,165.088    268.413,177.612  "/>
	<polygon style="fill:#31978C;" points="169.614,177.614 169.614,123.588 157.089,136.112 110.977,90 82,118.977 128.112,165.089    115.588,177.614  "/>
	<polygon style="fill:#31978C;" points="214.388,214.388 214.388,268.413 226.912,255.889 273.024,302 302,273.024 255.889,226.912    268.413,214.388  "/>
	<polygon style="fill:#31978C;" points="169.614,214.386 169.614,268.412 157.089,255.888 110.977,302 82,273.023 128.112,226.911    115.588,214.386  "/>
</g>
<g>
	<polygon style="fill:#FFFFFF;" points="214.388,169.612 214.388,115.587 226.912,128.111 273.024,82 302,110.976 255.889,157.088    268.413,169.612  "/>
	<polygon style="fill:#FFFFFF;" points="169.614,169.614 169.614,115.588 157.089,128.112 110.977,82 82,110.977 128.112,157.089    115.588,169.614  "/>
	<polygon style="fill:#FFFFFF;" points="214.388,206.388 214.388,260.413 226.912,247.889 273.024,294 302,265.024 255.889,218.912    268.413,206.388  "/>
	<polygon style="fill:#FFFFFF;" points="169.614,206.386 169.614,260.412 157.089,247.888 110.977,294 82,265.023 128.112,218.911    115.588,206.386  "/>
</g>
<g>
</g>
<g>
</g>
<g>
</g>
<g>
</g>
<g>
</g>
<g>
</g>
<g>
</g>
<g>
</g>
<g>
</g>
<g>
</g>
<g>
</g>
<g>
</g>
<g>
</g>
<g>
</g>
<g>
</g>
</svg>
