<?xml version="1.0" encoding="iso-8859-1"?>
<!-- Generator: Adobe Illustrator 19.0.0, SVG Export Plug-In . SVG Version: 6.00 Build 0)  -->
<svg xmlns="http://www.w3.org/2000/svg" xmlns:xlink="http://www.w3.org/1999/xlink" version="1.1" id="Capa_1" x="0px" y="0px" viewBox="0 0 384 384" style="enable-background:new 0 0 384 384;" xml:space="preserve">
<circle style="fill:#E05B49;" cx="192" cy="192" r="192"/>
<path style="opacity:0.1;enable-background:new    ;" d="M384,192c0-7.528-0.48-14.941-1.323-22.243L302,89.08l0,0L294.92,82  l-11.44,6.2c-0.36,0.2-0.6,0.52-0.76,0.88l-3,8.12l-76.6,76.6l-80.44-80.44l-25.56-7.6L84.8,82.08c-1.68-0.48-3.2,1.04-2.72,2.72  l3.68,12.32l7.6,25.56l67.76,67.76c0.08,0.6,0.2,1.2,0.44,1.76l-10.44,5.24c-0.8,0.4-1.52,0.92-2.16,1.56L83.6,264.36  c-2.12,2.12-2.12,5.56,0,7.68l28.36,28.36l83.513,83.512C299.903,382.052,384,296.874,384,192z"/>
<rect x="169.275" y="85.472" transform="matrix(-0.7071 0.7071 -0.7071 -0.7071 439.1986 209.5829)" style="fill:#44C4A1;" width="13.836" height="220.561"/>
<rect x="179.079" y="75.714" transform="matrix(-0.7071 0.7071 -0.7071 -0.7071 449.0351 185.9858)" style="fill:#3EA69B;" width="13.836" height="220.559"/>
<rect x="188.846" y="65.947" transform="matrix(-0.7071 0.7071 -0.7071 -0.7071 458.8005 162.4171)" style="fill:#31978C;" width="13.836" height="220.559"/>
<rect x="244.953" y="263.215" transform="matrix(-0.7071 0.7071 -0.7071 -0.7071 641.4391 265.6248)" style="fill:#E56353;" width="41.508" height="4.888"/>
<path style="fill:#64798A;" d="M277.529,300.726l6.706-6.706l-21.702-21.701l-9.783,9.783l18.625,18.625  C273.076,302.425,275.83,302.425,277.529,300.726z"/>
<rect x="271.354" y="262.925" transform="matrix(-0.7071 0.7071 -0.7071 -0.7071 671.8075 278.2713)" style="fill:#3A556A;" width="13.836" height="30.692"/>
<path style="fill:#2F4859;" d="M294.019,284.236l6.706-6.706c1.7-1.7,1.7-4.454,0-6.153L282.1,252.752l-9.783,9.783L294.019,284.236  z"/>
<path style="fill:#FCD462;" d="M122.689,93.34l-25.562-7.586c0.055,2.931-1.018,5.88-3.256,8.118  c-2.237,2.237-5.185,3.309-8.117,3.255l7.586,25.562L122.689,93.34z"/>
<g>
	<path style="fill:#64798A;" d="M93.871,93.872c2.237-2.238,3.31-5.186,3.256-8.118l-12.339-3.662   c-1.649-0.49-3.184,1.045-2.695,2.695l3.662,12.34C88.686,97.181,91.634,96.109,93.871,93.872z"/>
	<path style="fill:#64798A;" d="M191.792,222.454c2.407,0.989,5.274,0.512,7.229-1.444c2.596-2.596,2.596-6.807,0-9.404   l-26.627-26.627c-2.597-2.597-6.807-2.597-9.404,0c-1.955,1.955-2.432,4.822-1.444,7.229l-10.435,5.247   c-0.795,0.4-1.521,0.924-2.15,1.553L83.59,264.379c-2.12,2.12-2.12,5.557,0,7.677l28.354,28.354c2.12,2.12,5.557,2.12,7.677,0   l65.371-65.371c0.629-0.629,1.154-1.355,1.553-2.15L191.792,222.454z"/>
</g>
<path style="fill:#2F4859;" d="M106.377,277.62c-4.023-4.023-4.021-10.567,0.002-14.59l46.9-46.9  c4.023-4.023,10.568-4.025,14.591-0.002c4.023,4.023,4.025,10.571,0.002,14.594l-46.9,46.9  C116.948,281.646,110.4,281.644,106.377,277.62z"/>
<path style="fill:#3A556A;" d="M166.046,217.954c-3.021-3.021-7.921-3.022-10.942,0l-46.9,46.9c-3.022,3.022-3.021,7.921,0,10.942  c3.022,3.022,7.921,3.022,10.942,0l46.9-46.9C169.067,225.875,169.067,220.976,166.046,217.954z"/>
<path style="fill:#E1E6E9;" d="M302,89.081L294.919,82l-11.447,6.216c-0.342,0.186-0.606,0.49-0.742,0.856l-3.019,8.136  l-97.545,97.545l7.081,7.081l97.296-97.296c0.164-0.164,0.361-0.291,0.578-0.371l7.806-2.897c0.366-0.136,0.669-0.399,0.855-0.742  L302,89.081z"/>
<g>
</g>
<g>
</g>
<g>
</g>
<g>
</g>
<g>
</g>
<g>
</g>
<g>
</g>
<g>
</g>
<g>
</g>
<g>
</g>
<g>
</g>
<g>
</g>
<g>
</g>
<g>
</g>
<g>
</g>
</svg>
