<?xml version="1.0" encoding="iso-8859-1"?>
<!-- Generator: Adobe Illustrator 19.0.0, SVG Export Plug-In . SVG Version: 6.00 Build 0)  -->
<svg xmlns="http://www.w3.org/2000/svg" xmlns:xlink="http://www.w3.org/1999/xlink" version="1.1" id="Capa_1" x="0px" y="0px" viewBox="0 0 384 384" style="enable-background:new 0 0 384 384;" xml:space="preserve">
<circle style="fill:#334D5C;" cx="192" cy="192" r="192"/>
<path style="opacity:0.1;enable-background:new    ;" d="M383.864,197.374L282,95.509l-0.4-0.439  c-7.56-8.04-18.28-13.08-30.16-13.08H132.56c-22.8,0-41.28,18.48-41.28,41.32c0,11.84,5,22.52,13,30.041l0.08,0.079l9,9v139.56  l81.927,81.927C298.008,382.185,381.041,299.825,383.864,197.374z"/>
<path style="fill:#E1E6E9;" d="M210.346,127.452h-36.691c-2.086,20.852-19.684,37.134-41.086,37.134  c-6.945,0-13.478-1.734-19.223-4.763V302h157.309V159.823c-5.744,3.03-12.278,4.763-19.225,4.763  C230.029,164.586,212.432,148.304,210.346,127.452z M145.476,183.354v94.135v2.627c0,4.111-3.334,7.443-7.443,7.443  c-4.111,0-7.443-3.332-7.443-7.443v-2.627v-94.135v-2.627c0-4.111,3.332-7.443,7.443-7.443c4.109,0,7.443,3.332,7.443,7.443V183.354  z M181.455,183.354v94.135v2.627c0,4.111-3.334,7.443-7.444,7.443c-4.111,0-7.443-3.332-7.443-7.443v-2.627v-94.135v-2.627  c0-4.111,3.332-7.443,7.443-7.443c4.11,0,7.444,3.332,7.444,7.443V183.354z M217.432,183.354v94.135v2.627  c0,4.111-3.332,7.443-7.443,7.443c-4.11,0-7.444-3.332-7.444-7.443v-2.627v-94.135v-2.627c0-4.111,3.334-7.443,7.444-7.443  c4.111,0,7.443,3.332,7.443,7.443V183.354z M253.41,183.354v94.135v2.627c0,4.111-3.332,7.443-7.443,7.443  c-4.109,0-7.443-3.332-7.443-7.443v-2.627v-94.135v-2.627c0-4.111,3.334-7.443,7.443-7.443c4.111,0,7.443,3.332,7.443,7.443V183.354  z"/>
<path style="fill:#EBF0F3;" d="M292.723,123.293c0-22.806-18.486-41.293-41.293-41.293H132.568  c-22.805,0-41.291,18.488-41.291,41.293c0,15.86,8.951,29.612,22.068,36.53c5.744,3.03,12.278,4.763,19.223,4.763  c21.402,0,39-16.282,41.086-37.134h36.691c2.086,20.852,19.684,37.134,41.084,37.134c6.947,0,13.48-1.734,19.225-4.763  C283.772,152.905,292.723,139.152,292.723,123.293z M132.568,155.938c-18,0-32.644-14.644-32.644-32.646  c0-18,14.644-32.645,32.644-32.645c18.002,0,32.646,14.645,32.646,32.645C165.215,141.294,150.57,155.938,132.568,155.938z   M251.432,155.938c-18.002,0-32.646-14.644-32.646-32.646c0-18,14.644-32.645,32.646-32.645c18,0,32.643,14.645,32.643,32.645  C284.074,141.294,269.432,155.938,251.432,155.938z"/>
<path style="fill:#E1E6E9;" d="M132.568,90.648c-18,0-32.644,14.645-32.644,32.645c0,18.001,14.644,32.646,32.644,32.646  c18.002,0,32.646-14.644,32.646-32.646C165.215,105.293,150.57,90.648,132.568,90.648z M132.568,138.954  c-8.635,0-15.66-7.025-15.66-15.661s7.025-15.661,15.66-15.661c8.637,0,15.662,7.025,15.662,15.661S141.205,138.954,132.568,138.954  z"/>
<circle style="fill:#EBF0F3;" cx="132.56" cy="123.292" r="15.66"/>
<path style="fill:#E1E6E9;" d="M251.432,90.648c-18.002,0-32.646,14.645-32.646,32.645c0,18.001,14.644,32.646,32.646,32.646  c18,0,32.643-14.644,32.643-32.646C284.074,105.293,269.432,90.648,251.432,90.648z M251.43,138.954  c-8.635,0-15.66-7.025-15.66-15.661s7.025-15.661,15.66-15.661s15.662,7.025,15.662,15.661S260.064,138.954,251.43,138.954z"/>
<circle style="fill:#EBF0F3;" cx="251.44" cy="123.292" r="15.66"/>
<path style="fill:#D5D6DB;" d="M138.033,173.283c-4.111,0-7.443,3.332-7.443,7.443v2.627c0-4.111,3.332-7.444,7.443-7.444  c4.109,0,7.443,3.332,7.443,7.444v-2.627C145.476,176.616,142.142,173.283,138.033,173.283z"/>
<path style="fill:#EBF0F3;" d="M138.033,175.91c-4.111,0-7.443,3.332-7.443,7.444v94.135v2.627c0,4.111,3.332,7.443,7.443,7.443  c4.109,0,7.443-3.332,7.443-7.443v-2.627v-94.135C145.476,179.242,142.142,175.91,138.033,175.91z"/>
<path style="fill:#D5D6DB;" d="M174.012,173.283c-4.111,0-7.443,3.332-7.443,7.443v2.627c0-4.111,3.332-7.444,7.443-7.444  c4.11,0,7.444,3.332,7.444,7.444v-2.627C181.455,176.616,178.121,173.283,174.012,173.283z"/>
<path style="fill:#EBF0F3;" d="M174.012,175.91c-4.111,0-7.443,3.332-7.443,7.444v94.135v2.627c0,4.111,3.332,7.443,7.443,7.443  c4.11,0,7.444-3.332,7.444-7.443v-2.627v-94.135C181.455,179.242,178.121,175.91,174.012,175.91z"/>
<path style="fill:#D5D6DB;" d="M209.988,173.283c-4.11,0-7.444,3.332-7.444,7.443v2.627c0-4.111,3.334-7.444,7.444-7.444  c4.111,0,7.443,3.332,7.443,7.444v-2.627C217.432,176.616,214.1,173.283,209.988,173.283z"/>
<path style="fill:#EBF0F3;" d="M209.988,175.91c-4.11,0-7.444,3.332-7.444,7.444v94.135v2.627c0,4.111,3.334,7.443,7.444,7.443  c4.111,0,7.443-3.332,7.443-7.443v-2.627v-94.135C217.432,179.242,214.1,175.91,209.988,175.91z"/>
<path style="fill:#D5D6DB;" d="M245.967,173.283c-4.109,0-7.443,3.332-7.443,7.443v2.627c0-4.111,3.334-7.444,7.443-7.444  c4.111,0,7.443,3.332,7.443,7.444v-2.627C253.41,176.616,250.078,173.283,245.967,173.283z"/>
<path style="fill:#EBF0F3;" d="M245.967,175.91c-4.109,0-7.443,3.332-7.443,7.444v94.135v2.627c0,4.111,3.334,7.443,7.443,7.443  c4.111,0,7.443-3.332,7.443-7.443v-2.627v-94.135C253.41,179.242,250.078,175.91,245.967,175.91z"/>
<g>
</g>
<g>
</g>
<g>
</g>
<g>
</g>
<g>
</g>
<g>
</g>
<g>
</g>
<g>
</g>
<g>
</g>
<g>
</g>
<g>
</g>
<g>
</g>
<g>
</g>
<g>
</g>
<g>
</g>
</svg>
