<?xml version="1.0" encoding="iso-8859-1"?>
<!-- Generator: Adobe Illustrator 19.0.0, SVG Export Plug-In . SVG Version: 6.00 Build 0)  -->
<svg xmlns="http://www.w3.org/2000/svg" xmlns:xlink="http://www.w3.org/1999/xlink" version="1.1" id="Capa_1" x="0px" y="0px" viewBox="0 0 384 384" style="enable-background:new 0 0 384 384;" xml:space="preserve">
<circle style="fill:#EA8953;" cx="192" cy="192" r="192"/>
<path style="opacity:0.1;enable-background:new    ;" d="M300.36,83.477c-0.96-0.92-2.28-1.48-3.72-1.48H87.36  c-2.96,0-5.36,2.4-5.36,5.36v209.279c0,1.52,0.64,2.881,1.64,3.84l0.12,0.12l81.51,81.51C174.01,383.324,182.924,384,192,384  c106.039,0,192-85.961,192-192c0-9.081-0.676-18.001-1.895-26.746L300.44,83.557L300.36,83.477z"/>
<path style="fill:#64798A;" d="M296.654,82H87.347C84.394,82,82,84.394,82,87.346v31.274h220V87.346  C302,84.394,299.606,82,296.654,82z"/>
<circle style="fill:#FCD462;" cx="245.52" cy="100.32" r="6.04"/>
<circle style="fill:#44C4A1;" cx="267.08" cy="100.32" r="6.04"/>
<circle style="fill:#E56353;" cx="288.6" cy="100.32" r="6.04"/>
<path style="fill:#FFFFFF;" d="M129.081,118.62c-1.126,0-2.126-0.718-2.487-1.784l-2.943-8.703  c-0.361-1.067-1.361-1.784-2.487-1.784H93.969c-1.126,0-2.126,0.718-2.487,1.784l-2.942,8.703c-0.361,1.066-1.362,1.784-2.488,1.784  H82v178.034c0,2.952,2.394,5.346,5.346,5.346h209.309c2.952,0,5.346-2.393,5.346-5.346V118.62H129.081z"/>
<path style="fill:#EBF0F3;" d="M130.068,114.62h37.273l-2.194-6.488c-0.361-1.067-1.361-1.784-2.487-1.784h-35.486  c0.077,0.177,0.202,0.321,0.265,0.506L130.068,114.62z"/>
<polygon style="fill:#FCD462;" points="129.343,215.856 138.038,233.474 157.481,236.299 143.412,250.013 146.734,269.378   129.343,260.235 111.953,269.378 115.274,250.013 101.205,236.299 120.648,233.474 "/>
<g>
	<polygon style="fill:#E1E6E9;" points="192,215.856 200.695,233.474 220.138,236.299 206.069,250.013 209.39,269.378 192,260.235    174.61,269.378 177.931,250.013 163.862,236.299 183.305,233.474  "/>
	<polygon style="fill:#E1E6E9;" points="254.657,215.856 263.352,233.474 282.795,236.299 268.726,250.013 272.047,269.378    254.657,260.235 237.266,269.378 240.588,250.013 226.519,236.299 245.962,233.474  "/>
</g>
<g>
	<polygon style="fill:#FCD462;" points="160.672,151.378 169.367,168.997 188.81,171.822 174.741,185.536 178.062,204.9    160.672,195.758 143.281,204.9 146.602,185.536 132.534,171.822 151.976,168.997  "/>
	<polygon style="fill:#FCD462;" points="223.328,151.378 232.024,168.997 251.466,171.822 237.398,185.536 240.719,204.9    223.328,195.758 205.938,204.9 209.259,185.536 195.19,171.822 214.633,168.997  "/>
</g>
<g>
</g>
<g>
</g>
<g>
</g>
<g>
</g>
<g>
</g>
<g>
</g>
<g>
</g>
<g>
</g>
<g>
</g>
<g>
</g>
<g>
</g>
<g>
</g>
<g>
</g>
<g>
</g>
<g>
</g>
</svg>
