<?xml version="1.0" encoding="iso-8859-1"?>
<!-- Generator: Adobe Illustrator 19.0.0, SVG Export Plug-In . SVG Version: 6.00 Build 0)  -->
<svg xmlns="http://www.w3.org/2000/svg" xmlns:xlink="http://www.w3.org/1999/xlink" version="1.1" id="Capa_1" x="0px" y="0px" viewBox="0 0 384 384" style="enable-background:new 0 0 384 384;" xml:space="preserve">
<circle style="fill:#E05B49;" cx="192" cy="192" r="192"/>
<path style="opacity:0.1;enable-background:new    ;" d="M384,192c0-10.36-0.846-20.52-2.426-30.436L302,81.99H82v80.96l17.6,17.6  H82v121.44l79.589,79.589C171.496,383.156,181.648,384,192,384C298.039,384,384,298.039,384,192z"/>
<rect x="82" y="82" style="fill:#44C4A1;" width="47.492" height="40.48"/>
<rect x="129.48" y="82" style="fill:#EBF0F3;" width="172.52" height="40.48"/>
<rect x="82" y="122.48" style="fill:#CE412D;" width="47.492" height="40.48"/>
<rect x="129.48" y="122.48" style="fill:#E1E6E9;" width="172.52" height="40.48"/>
<rect x="82" y="180.56" style="fill:#27A2DB;" width="47.492" height="40.48"/>
<rect x="82" y="221.04" style="fill:#F6C358;" width="47.492" height="40.48"/>
<rect x="129.48" y="221.04" style="fill:#E1E6E9;" width="172.52" height="40.48"/>
<rect x="82" y="261.52" style="fill:#64798A;" width="47.492" height="40.48"/>
<g>
	<rect x="129.48" y="261.52" style="fill:#EBF0F3;" width="172.52" height="40.48"/>
	<polygon style="fill:#EBF0F3;" points="271.871,180.556 260.823,169.528 249.775,180.556 129.493,180.556 129.493,221.037    302,221.037 302,180.556  "/>
</g>
<g>
	<rect x="201.88" y="98.244" style="fill:#64798A;" width="70.388" height="8"/>
	<rect x="201.88" y="138.724" style="fill:#64798A;" width="70.388" height="8"/>
	<rect x="201.88" y="196.8" style="fill:#64798A;" width="70.388" height="8"/>
	<rect x="201.88" y="237.28" style="fill:#64798A;" width="70.388" height="8"/>
	<rect x="201.88" y="277.76" style="fill:#64798A;" width="70.388" height="8"/>
</g>
<g>
	<circle style="fill:#EBF0F3;" cx="105.76" cy="102.24" r="10.12"/>
	<circle style="fill:#EBF0F3;" cx="105.76" cy="142.724" r="10.12"/>
	<circle style="fill:#EBF0F3;" cx="105.76" cy="200.8" r="10.12"/>
	<circle style="fill:#EBF0F3;" cx="105.76" cy="241.28" r="10.12"/>
	<circle style="fill:#EBF0F3;" cx="105.76" cy="281.76" r="10.12"/>
</g>
<g>
</g>
<g>
</g>
<g>
</g>
<g>
</g>
<g>
</g>
<g>
</g>
<g>
</g>
<g>
</g>
<g>
</g>
<g>
</g>
<g>
</g>
<g>
</g>
<g>
</g>
<g>
</g>
<g>
</g>
</svg>
