<?xml version="1.0" encoding="iso-8859-1"?>
<!-- Generator: Adobe Illustrator 19.0.0, SVG Export Plug-In . SVG Version: 6.00 Build 0)  -->
<svg xmlns="http://www.w3.org/2000/svg" xmlns:xlink="http://www.w3.org/1999/xlink" version="1.1" id="Capa_1" x="0px" y="0px" viewBox="0 0 384 384" style="enable-background:new 0 0 384 384;" xml:space="preserve">
<circle style="fill:#334D5C;" cx="192" cy="192" r="192"/>
<path style="opacity:0.1;enable-background:new    ;" d="M255.08,115.358l-0.36-0.32c-13.96-12.04-31.48-20.08-50.72-22.44  l-9.36-9.359v-0.04c-0.64-0.721-1.6-1.2-2.64-1.2c-1.92,0-3.52,1.56-3.52,3.52v6.36c-51.6,1.88-92.88,44.28-92.88,96.36h11.6  l-0.04,0.079H95.6c0,5,1.92,9.561,5.04,13l1.04,1.041l166.113,166.076c54.468-23.43,95.905-71.332,110.491-129.873L264.96,125.238  C261.92,121.677,258.6,118.397,255.08,115.358z"/>
<path style="fill:#EBF0F3;" d="M211.283,302c-12.565,0-22.789-10.224-22.789-22.789V85.506c0-1.936,1.568-3.506,3.506-3.506  c1.938,0,3.506,1.57,3.506,3.506v193.705c0,8.7,7.077,15.777,15.777,15.777c8.7,0,15.777-7.077,15.777-15.777  c0-1.936,1.568-3.506,3.506-3.506c1.938,0,3.506,1.57,3.506,3.506C234.072,291.776,223.848,302,211.283,302z"/>
<path style="fill:#E56353;" d="M192,91.805c-53.249,0-96.414,43.166-96.414,96.414h192.829  C288.414,134.972,245.249,91.805,192,91.805z"/>
<path style="fill:#EBF0F3;" d="M192,91.805c-31.949,0-57.849,43.166-57.849,96.414h115.698  C249.849,134.972,223.949,91.805,192,91.805z"/>
<path style="fill:#E56353;" d="M192,91.805c-10.65,0-19.283,43.166-19.283,96.414h38.566C211.283,134.972,202.65,91.805,192,91.805z  "/>
<path style="fill:#D15241;" d="M134.151,188.319c0,10.65-8.633,19.283-19.283,19.283s-19.283-8.633-19.283-19.283"/>
<path style="fill:#E1E6E9;" d="M172.717,188.319c0,10.65-8.633,19.283-19.283,19.283c-10.65,0-19.283-8.633-19.283-19.283"/>
<path style="fill:#D15241;" d="M211.283,188.319c0,10.65-8.633,19.283-19.283,19.283c-10.65,0-19.283-8.633-19.283-19.283"/>
<path style="fill:#E1E6E9;" d="M249.849,188.319c0,10.65-8.634,19.283-19.283,19.283c-10.65,0-19.283-8.633-19.283-19.283"/>
<path style="fill:#D15241;" d="M288.414,188.319c0,10.65-8.633,19.283-19.283,19.283s-19.283-8.633-19.283-19.283"/>
<g>
</g>
<g>
</g>
<g>
</g>
<g>
</g>
<g>
</g>
<g>
</g>
<g>
</g>
<g>
</g>
<g>
</g>
<g>
</g>
<g>
</g>
<g>
</g>
<g>
</g>
<g>
</g>
<g>
</g>
</svg>
