<?xml version="1.0" encoding="iso-8859-1"?>
<!-- Generator: Adobe Illustrator 19.0.0, SVG Export Plug-In . SVG Version: 6.00 Build 0)  -->
<svg xmlns="http://www.w3.org/2000/svg" xmlns:xlink="http://www.w3.org/1999/xlink" version="1.1" id="Capa_1" x="0px" y="0px" viewBox="0 0 384 384" style="enable-background:new 0 0 384 384;" xml:space="preserve">
<circle style="fill:#EFC84A;" cx="192" cy="192" r="192"/>
<path style="opacity:0.1;enable-background:new    ;" d="M280.92,103.957c-0.96-0.84-2.28-1.36-3.68-1.36H106.76  c-3.16,0-5.72,2.56-5.72,5.72v98.521c0,1.64,0.68,3.12,1.8,4.16l3.4,3.4c-2.96,0.121-5.64,1.24-6.08,2.6l-18.04,53.96  c-0.08,0.2-0.08,0.4-0.08,0.6H82v6.76c0,0.681,0.36,1.28,1,1.761l0.08,0.08l103.71,103.711c1.736,0.046,3.462,0.132,5.21,0.132  c101.175,0,184.012-78.273,191.404-177.56L281,104.037L280.92,103.957z"/>
<path style="fill:#64798A;" d="M277.226,102.581H106.777c-3.166,0-5.734,2.567-5.734,5.734v98.516c0,3.167,2.568,5.734,5.734,5.734  h170.449c3.166,0,5.732-2.567,5.732-5.734v-98.516C282.958,105.148,280.392,102.581,277.226,102.581z"/>
<path style="fill:#EBF0F3;" d="M277.226,214.415H106.777c-3.166,0-6.121,1.157-6.604,2.598l-18.058,53.938  c-0.699,2.088,1.865,3.8,5.735,3.8h208.302c3.87,0,6.433-1.712,5.734-3.8l-18.058-53.938  C283.346,215.572,280.392,214.415,277.226,214.415z"/>
<g>
	<path style="fill:#E1E6E9;" d="M301.962,271.868c-0.209,1.648-2.528,2.884-5.811,2.884H87.851c-3.478,0-5.881-1.387-5.826-3.184   l-0.026-0.001v6.765h0.01c0.033,1.75,2.424,3.086,5.842,3.086h208.301c3.416,0,5.807-1.336,5.84-3.086h0.008v-6.464   L301.962,271.868z"/>
	<path style="fill:#E1E6E9;" d="M273.61,219.236H110.392c-0.123,0-0.236,0.046-0.253,0.102l-7.727,26.11   c-0.02,0.067,0.073,0.122,0.208,0.122h178.762c0.135,0,0.228-0.054,0.208-0.122l-7.727-26.11   C273.846,219.282,273.734,219.236,273.61,219.236z"/>
	<path style="fill:#E1E6E9;" d="M223.321,248.885h-62.64c-2.211,0-4.109,0.909-4.239,2.038l-1.738,15.07   c-0.144,1.252,1.644,2.274,3.995,2.274h66.605c2.351,0,4.139-1.022,3.995-2.274l-1.739-15.07   C227.43,249.794,225.532,248.885,223.321,248.885z"/>
</g>
<path style="fill:#3A556A;" d="M264.455,209.432H119.546c-0.258,0-0.469,0.17-0.469,0.38v7.372c0,0.21,0.211,0.38,0.469,0.38  h144.908c0.258,0,0.469-0.17,0.469-0.38v-7.372C264.924,209.602,264.712,209.432,264.455,209.432z"/>
<circle style="fill:#2F4859;" cx="192" cy="107.756" r="2.368"/>
<circle style="fill:#3A556A;" cx="192" cy="107.756" r="1.088"/>
<rect x="111.596" y="113.12" style="fill:#EBF0F3;" width="160.8" height="88.88"/>
<rect x="111.596" y="113.12" style="fill:#3A556A;" width="160.8" height="10.1"/>
<circle style="fill:#FCD462;" cx="247" cy="118.184" r="2.824"/>
<circle style="fill:#44C4A1;" cx="255.964" cy="118.184" r="2.824"/>
<circle style="fill:#E56353;" cx="264.92" cy="118.184" r="2.824"/>
<rect x="111.596" y="198.48" style="fill:#E1E6E9;" width="160.8" height="3.52"/>
<g>
	<path style="fill:#E56353;" d="M141.646,128.987h6.543v18h-2.886v-15.296h-3.657V128.987z"/>
	<path style="fill:#E56353;" d="M154.058,144.657c-1.218-1.691-1.828-3.953-1.828-6.786s0.61-5.094,1.828-6.786   c1.22-1.69,3.055-2.536,5.511-2.536c2.454,0,4.292,0.846,5.512,2.536c1.218,1.691,1.828,3.953,1.828,6.786s-0.61,5.094-1.828,6.786   c-1.22,1.691-3.057,2.537-5.512,2.537C157.114,147.194,155.278,146.348,154.058,144.657z M156.236,133.004   c-0.712,1.236-1.069,2.858-1.069,4.867s0.356,3.631,1.069,4.867s1.823,1.854,3.334,1.854c1.511,0,2.614-0.613,3.309-1.841   c0.696-1.227,1.044-2.853,1.044-4.88c0-2.026-0.348-3.652-1.044-4.88c-0.696-1.227-1.798-1.841-3.309-1.841   C158.059,131.151,156.948,131.769,156.236,133.004z"/>
	<path style="fill:#E56353;" d="M169.174,128.987h6.542v18h-2.886v-15.296h-3.657V128.987z"/>
	<path style="fill:#E56353;" d="M181.585,144.657c-1.218-1.691-1.828-3.953-1.828-6.786s0.61-5.094,1.828-6.786   c1.22-1.69,3.056-2.536,5.512-2.536c2.454,0,4.292,0.846,5.512,2.536c1.218,1.691,1.827,3.953,1.827,6.786s-0.61,5.094-1.827,6.786   c-1.22,1.691-3.058,2.537-5.512,2.537C184.64,147.194,182.804,146.348,181.585,144.657z M183.762,133.004   c-0.712,1.236-1.069,2.858-1.069,4.867s0.356,3.631,1.069,4.867c0.713,1.236,1.823,1.854,3.334,1.854   c1.511,0,2.613-0.613,3.309-1.841c0.696-1.227,1.044-2.853,1.044-4.88c0-2.026-0.348-3.652-1.044-4.88   c-0.696-1.227-1.798-1.841-3.309-1.841C185.585,131.151,184.475,131.769,183.762,133.004z"/>
	<path style="fill:#E56353;" d="M196.701,128.987h6.543v18h-2.886v-15.296h-3.657V128.987z"/>
	<path style="fill:#E56353;" d="M206.513,128.987h6.542v18h-2.886v-15.296h-3.657V128.987z"/>
	<path style="fill:#E56353;" d="M218.925,144.657c-1.218-1.691-1.827-3.953-1.827-6.786s0.61-5.094,1.827-6.786   c1.22-1.69,3.056-2.536,5.512-2.536c2.454,0,4.292,0.846,5.512,2.536c1.218,1.691,1.828,3.953,1.828,6.786s-0.61,5.094-1.828,6.786   c-1.22,1.691-3.058,2.537-5.512,2.537C221.981,147.194,220.145,146.348,218.925,144.657z M221.103,133.004   c-0.713,1.236-1.069,2.858-1.069,4.867s0.356,3.631,1.069,4.867c0.712,1.236,1.823,1.854,3.334,1.854   c1.511,0,2.613-0.613,3.309-1.841c0.696-1.227,1.044-2.853,1.044-4.88c0-2.026-0.348-3.652-1.044-4.88   c-0.696-1.227-1.798-1.841-3.309-1.841C222.926,131.151,221.815,131.769,221.103,133.004z"/>
	<path style="fill:#E56353;" d="M234.041,128.987h6.543v18h-2.886v-15.296h-3.657V128.987z"/>
	<path style="fill:#E56353;" d="M141.646,153.103h6.543v18.001h-2.886v-15.296h-3.657V153.103z"/>
	<path style="fill:#E56353;" d="M151.458,153.103H158v18.001h-2.886v-15.296h-3.657V153.103z"/>
	<path style="fill:#E56353;" d="M163.868,168.773c-1.218-1.691-1.828-3.954-1.828-6.786c0-2.832,0.61-5.095,1.828-6.786   c1.22-1.69,3.056-2.536,5.512-2.536c2.454,0,4.292,0.846,5.512,2.536c1.218,1.691,1.828,3.954,1.828,6.786   c0,2.832-0.61,5.094-1.828,6.786c-1.22,1.691-3.058,2.537-5.512,2.537C166.924,171.31,165.088,170.464,163.868,168.773z    M166.045,157.12c-0.712,1.236-1.068,2.858-1.068,4.867c0,2.008,0.356,3.631,1.068,4.867c0.713,1.236,1.824,1.854,3.334,1.854   c1.511,0,2.613-0.613,3.309-1.841c0.696-1.227,1.044-2.853,1.044-4.88c0-2.026-0.348-3.652-1.044-4.88   c-0.696-1.227-1.798-1.841-3.309-1.841C167.869,155.267,166.758,155.885,166.045,157.12z"/>
	<path style="fill:#E56353;" d="M178.984,153.103h6.543v18.001h-2.886v-15.296h-3.657V153.103z"/>
	<path style="fill:#E56353;" d="M191.397,168.773c-1.218-1.691-1.828-3.954-1.828-6.786c0-2.832,0.61-5.095,1.828-6.786   c1.22-1.69,3.055-2.536,5.512-2.536c2.454,0,4.292,0.846,5.512,2.536c1.218,1.691,1.827,3.954,1.827,6.786   c0,2.832-0.61,5.094-1.827,6.786c-1.22,1.691-3.058,2.537-5.512,2.537C194.452,171.31,192.616,170.464,191.397,168.773z    M193.574,157.12c-0.712,1.236-1.069,2.858-1.069,4.867c0,2.008,0.356,3.631,1.069,4.867s1.823,1.854,3.334,1.854   c1.511,0,2.613-0.613,3.309-1.841c0.696-1.227,1.044-2.853,1.044-4.88c0-2.026-0.348-3.652-1.044-4.88   c-0.696-1.227-1.798-1.841-3.309-1.841C195.397,155.267,194.286,155.885,193.574,157.12z"/>
	<path style="fill:#E56353;" d="M206.513,153.103h6.542v18.001h-2.886v-15.296h-3.657V153.103z"/>
	<path style="fill:#E56353;" d="M218.925,168.773c-1.218-1.691-1.827-3.954-1.827-6.786c0-2.832,0.61-5.095,1.827-6.786   c1.22-1.69,3.056-2.536,5.512-2.536c2.454,0,4.292,0.846,5.512,2.536c1.218,1.691,1.828,3.954,1.828,6.786   c0,2.832-0.61,5.094-1.828,6.786c-1.22,1.691-3.058,2.537-5.512,2.537C221.981,171.31,220.145,170.464,218.925,168.773z    M221.103,157.12c-0.713,1.236-1.069,2.858-1.069,4.867c0,2.008,0.356,3.631,1.069,4.867c0.712,1.236,1.823,1.854,3.334,1.854   c1.511,0,2.613-0.613,3.309-1.841c0.696-1.227,1.044-2.853,1.044-4.88c0-2.026-0.348-3.652-1.044-4.88   c-0.696-1.227-1.798-1.841-3.309-1.841C222.926,155.267,221.815,155.885,221.103,157.12z"/>
	<path style="fill:#E56353;" d="M234.041,153.103h6.543v18.001h-2.886v-15.296h-3.657V153.103z"/>
	<path style="fill:#E56353;" d="M141.245,192.889c-1.218-1.691-1.827-3.954-1.827-6.786c0-2.832,0.61-5.094,1.827-6.786   c1.22-1.69,3.056-2.536,5.512-2.536c2.454,0,4.292,0.846,5.512,2.536c1.218,1.691,1.828,3.954,1.828,6.786   c0,2.832-0.61,5.095-1.828,6.786c-1.22,1.691-3.058,2.537-5.512,2.537C144.301,195.426,142.465,194.58,141.245,192.889z    M143.423,181.236c-0.713,1.236-1.069,2.859-1.069,4.867c0,2.009,0.356,3.631,1.069,4.867c0.712,1.236,1.823,1.854,3.334,1.854   c1.511,0,2.614-0.613,3.309-1.841c0.696-1.227,1.044-2.853,1.044-4.88c0-2.025-0.348-3.652-1.044-4.88   c-0.696-1.227-1.798-1.841-3.309-1.841C145.246,179.382,144.135,180.001,143.423,181.236z"/>
	<path style="fill:#E56353;" d="M158.962,192.889c-1.218-1.691-1.827-3.954-1.827-6.786c0-2.832,0.61-5.094,1.827-6.786   c1.22-1.69,3.056-2.536,5.512-2.536c2.454,0,4.292,0.846,5.512,2.536c1.218,1.691,1.828,3.954,1.828,6.786   c0,2.832-0.61,5.095-1.828,6.786c-1.22,1.691-3.058,2.537-5.512,2.537C162.018,195.426,160.182,194.58,158.962,192.889z    M161.14,181.236c-0.713,1.236-1.069,2.859-1.069,4.867c0,2.009,0.356,3.631,1.069,4.867c0.712,1.236,1.823,1.854,3.334,1.854   c1.511,0,2.613-0.613,3.309-1.841c0.696-1.227,1.044-2.853,1.044-4.88c0-2.025-0.348-3.652-1.044-4.88   c-0.696-1.227-1.798-1.841-3.309-1.841C162.963,179.382,161.852,180.001,161.14,181.236z"/>
	<path style="fill:#E56353;" d="M176.679,192.889c-1.218-1.691-1.828-3.954-1.828-6.786c0-2.832,0.61-5.094,1.828-6.786   c1.22-1.69,3.056-2.536,5.512-2.536c2.454,0,4.292,0.846,5.512,2.536c1.218,1.691,1.827,3.954,1.827,6.786   c0,2.832-0.61,5.095-1.827,6.786c-1.22,1.691-3.058,2.537-5.512,2.537C179.734,195.426,177.898,194.58,176.679,192.889z    M178.856,181.236c-0.712,1.236-1.069,2.859-1.069,4.867c0,2.009,0.356,3.631,1.069,4.867c0.713,1.236,1.824,1.854,3.334,1.854   s2.613-0.613,3.309-1.841c0.696-1.227,1.044-2.853,1.044-4.88c0-2.025-0.348-3.652-1.044-4.88   c-0.696-1.227-1.798-1.841-3.309-1.841S179.569,180.001,178.856,181.236z"/>
	<path style="fill:#E56353;" d="M191.795,177.219h6.543v18.001h-2.886v-15.296h-3.657V177.219z"/>
	<path style="fill:#E56353;" d="M204.208,192.889c-1.218-1.691-1.828-3.954-1.828-6.786c0-2.832,0.61-5.094,1.828-6.786   c1.22-1.69,3.055-2.536,5.512-2.536c2.454,0,4.292,0.846,5.512,2.536c1.217,1.691,1.827,3.954,1.827,6.786   c0,2.832-0.61,5.095-1.827,6.786c-1.22,1.691-3.058,2.537-5.512,2.537C207.263,195.426,205.427,194.58,204.208,192.889z    M206.385,181.236c-0.712,1.236-1.069,2.859-1.069,4.867c0,2.009,0.356,3.631,1.069,4.867c0.712,1.236,1.823,1.854,3.334,1.854   c1.511,0,2.613-0.613,3.309-1.841c0.696-1.227,1.044-2.853,1.044-4.88c0-2.025-0.348-3.652-1.044-4.88   c-0.696-1.227-1.798-1.841-3.309-1.841C208.208,179.382,207.097,180.001,206.385,181.236z"/>
	<path style="fill:#E56353;" d="M219.324,177.219h6.542v18.001h-2.886v-15.296h-3.657V177.219z"/>
	<path style="fill:#E56353;" d="M231.734,192.889c-1.218-1.691-1.828-3.954-1.828-6.786c0-2.832,0.61-5.094,1.828-6.786   c1.22-1.69,3.056-2.536,5.512-2.536c2.454,0,4.292,0.846,5.512,2.536c1.218,1.691,1.827,3.954,1.827,6.786   c0,2.832-0.61,5.095-1.827,6.786c-1.22,1.691-3.058,2.537-5.512,2.537C234.79,195.426,232.954,194.58,231.734,192.889z    M233.911,181.236c-0.712,1.236-1.069,2.859-1.069,4.867c0,2.009,0.356,3.631,1.069,4.867c0.713,1.236,1.823,1.854,3.334,1.854   c1.511,0,2.613-0.613,3.309-1.841c0.696-1.227,1.044-2.853,1.044-4.88c0-2.025-0.348-3.652-1.044-4.88   c-0.696-1.227-1.798-1.841-3.309-1.841C235.734,179.382,234.624,180.001,233.911,181.236z"/>
</g>
<g>
</g>
<g>
</g>
<g>
</g>
<g>
</g>
<g>
</g>
<g>
</g>
<g>
</g>
<g>
</g>
<g>
</g>
<g>
</g>
<g>
</g>
<g>
</g>
<g>
</g>
<g>
</g>
<g>
</g>
</svg>
