<?xml version="1.0" encoding="iso-8859-1"?>
<!-- Generator: Adobe Illustrator 19.0.0, SVG Export Plug-In . SVG Version: 6.00 Build 0)  -->
<svg xmlns="http://www.w3.org/2000/svg" xmlns:xlink="http://www.w3.org/1999/xlink" version="1.1" id="Capa_1" x="0px" y="0px" viewBox="0 0 384 384" style="enable-background:new 0 0 384 384;" xml:space="preserve">
<circle style="fill:#E05B49;" cx="192" cy="192" r="192"/>
<path style="opacity:0.1;enable-background:new    ;" d="M114,82.509v17.88h-9.84v36.08H88.84c-3.8,0-6.84,3.08-6.84,6.84v101.52  c0,1.72,0.64,3.319,1.76,4.52h-0.04l0.28,0.28l30,30v21.88l82.38,82.38c102.541-2.303,185.196-84.952,187.509-187.491L270,82.509  H114z"/>
<rect x="104.16" y="100.4" style="fill:#2F4859;" width="175.712" height="36.12"/>
<path style="fill:#3A556A;" d="M295.172,136.489H88.826c-3.769,0-6.826,3.056-6.826,6.826v101.499c0,3.77,3.057,6.827,6.826,6.827  h206.346c3.771,0,6.828-3.056,6.828-6.827V143.316C302,139.546,298.943,136.489,295.172,136.489z"/>
<rect x="114" y="82.504" style="fill:#FFFFFF;" width="156" height="53.988"/>
<polygon style="fill:#2F4859;" points="113.998,194.246 107.938,251.641 276.062,251.641 270.002,194.246 "/>
<rect x="113.996" y="194.24" style="fill:#FFFFFF;" width="156" height="107.252"/>
<rect x="127.256" y="194.24" style="fill:#27A2DB;" width="129.488" height="91.376"/>
<path style="fill:#34BDE2;" d="M150.193,194.246c3.135,3.469,7.623,5.689,12.668,5.689c5.043,0,9.531-2.22,12.666-5.689H150.193z"/>
<path style="fill:#4CC3ED;" d="M155.725,194.246c2.076,1.297,4.508,2.079,7.136,2.079c2.627,0,5.059-0.782,7.133-2.079H155.725z"/>
<polygon style="fill:#FCD462;" points="174.566,207.502 127.256,249.105 127.256,285.622 195.041,285.622 212.592,285.622   184.228,227.353 "/>
<polygon style="fill:#DC8744;" points="212.592,285.622 238.556,285.622 184.228,227.353 "/>
<polygon style="fill:#F6C358;" points="211.342,194.246 184.228,227.352 238.557,285.622 256.744,285.622 256.744,212.052   238.789,194.246 "/>
<rect x="127.256" y="293.64" style="fill:#27A2DB;" width="4.988" height="4.988"/>
<rect x="134.528" y="293.64" style="fill:#E56353;" width="4.988" height="4.988"/>
<rect x="141.8" y="293.64" style="fill:#FCD462;" width="4.988" height="4.988"/>
<rect x="149.08" y="293.64" style="fill:#64798A;" width="4.988" height="4.988"/>
<path style="fill:#EBF0F3;" d="M160.597,293.638c-1.366,0-2.475,1.112-2.475,2.476c0,1.365,1.109,2.476,2.475,2.476  s2.475-1.112,2.475-2.476C163.072,294.749,161.963,293.638,160.597,293.638z M160.597,297.515c-0.774,0-1.402-0.628-1.402-1.401  c0-0.773,0.628-1.401,1.402-1.401c0.774,0,1.402,0.628,1.402,1.401C161.999,296.888,161.371,297.515,160.597,297.515z"/>
<polygon style="fill:#E1E6E9;" points="171.543,295.44 169.743,295.44 169.743,293.638 168.39,293.638 168.39,295.44 166.59,295.44   166.59,296.788 168.39,296.788 168.39,298.59 169.743,298.59 169.743,296.788 171.543,296.788 "/>
<rect x="100.96" y="183.516" style="fill:#64798A;" width="182.072" height="25.32"/>
<g>
</g>
<g>
</g>
<g>
</g>
<g>
</g>
<g>
</g>
<g>
</g>
<g>
</g>
<g>
</g>
<g>
</g>
<g>
</g>
<g>
</g>
<g>
</g>
<g>
</g>
<g>
</g>
<g>
</g>
</svg>
