<?xml version="1.0" encoding="iso-8859-1"?>
<!-- Generator: Adobe Illustrator 19.0.0, SVG Export Plug-In . SVG Version: 6.00 Build 0)  -->
<svg xmlns="http://www.w3.org/2000/svg" xmlns:xlink="http://www.w3.org/1999/xlink" version="1.1" id="Capa_1" x="0px" y="0px" viewBox="0 0 384 384" style="enable-background:new 0 0 384 384;" xml:space="preserve">
<circle style="fill:#EFC84A;" cx="192" cy="192" r="192"/>
<path style="opacity:0.1;enable-background:new    ;" d="M117.301,117.301c-41.267,41.267-41.266,108.13,0,149.397l113.399,113.4  c74.988-15.348,134.05-74.41,149.397-149.398L266.699,117.301C225.432,76.034,158.568,76.034,117.301,117.301z"/>
<circle style="fill:#44C4A1;" cx="192" cy="192" r="105.636"/>
<path style="fill:#3EA69B;" d="M158.677,143.964v104.073c0,4.148,4.926,6.323,7.991,3.529l57.096-52.036  c2.078-1.894,2.078-5.164,0-7.058l-57.096-52.037C163.602,137.64,158.677,139.816,158.677,143.964z"/>
<path style="fill:#FFFFFF;" d="M158.677,135.964v104.073c0,4.148,4.926,6.323,7.991,3.529l57.096-52.036  c2.078-1.894,2.078-5.164,0-7.058l-57.096-52.037C163.602,129.64,158.677,131.816,158.677,135.964z"/>
<g>
</g>
<g>
</g>
<g>
</g>
<g>
</g>
<g>
</g>
<g>
</g>
<g>
</g>
<g>
</g>
<g>
</g>
<g>
</g>
<g>
</g>
<g>
</g>
<g>
</g>
<g>
</g>
<g>
</g>
</svg>
