<?xml version="1.0" encoding="iso-8859-1"?>
<!-- Generator: Adobe Illustrator 19.0.0, SVG Export Plug-In . SVG Version: 6.00 Build 0)  -->
<svg xmlns="http://www.w3.org/2000/svg" xmlns:xlink="http://www.w3.org/1999/xlink" version="1.1" id="Capa_1" x="0px" y="0px" viewBox="0 0 384 384" style="enable-background:new 0 0 384 384;" xml:space="preserve">
<circle style="fill:#E05B49;" cx="192" cy="192" r="192"/>
<path style="opacity:0.1;enable-background:new    ;" d="M288.64,109.757c-0.16-0.16-0.32-0.32-0.48-0.48  c-1.36-1.24-3.24-2.04-5.24-2.04h-97.64l-20.72-20.72c-0.72-1.121-1.64-2.041-2.72-2.72c-1.68-1.16-3.72-1.8-5.84-1.8h-54.92  c-4.28,0-7.72,3.44-7.72,7.72v53.96h-3.6c-4.8,0-8.24,3.841-7.72,8.601l10.52,112c0.2,1.8,1.16,3.399,2.52,4.64l15.2,15.2v17.88  l81.996,81.995c101.654-0.143,184.743-79.291,191.263-179.33l-94.658-94.625L288.64,109.757z"/>
<path style="fill:#F6C358;" d="M104.69,122.93v-6.447h174.62v6.447v20.734h11.335v-28.733c0-4.258-3.452-7.71-7.71-7.71h-99.372  c-3.562,0-6.88-1.817-8.797-4.82l-9.95-15.581c-1.918-3.002-5.234-4.82-8.797-4.82h-54.953c-4.258,0-7.71,3.452-7.71,7.71v53.954  h11.334V122.93z"/>
<rect x="104.68" y="116.48" style="fill:#EBF0F3;" width="174.62" height="6.448"/>
<rect x="104.68" y="122.928" style="fill:#FFFFFF;" width="174.62" height="20.732"/>
<path style="fill:#FCD462;" d="M294.255,143.664h-3.61H279.31H104.69H93.356h-3.611c-4.789,0-8.229,3.866-7.689,8.594l10.51,112.028  c0.438,3.831,4.242,6.912,8.5,6.912h181.869c4.258,0,8.062-3.08,8.499-6.912l10.511-112.028  C302.484,147.53,299.044,143.664,294.255,143.664z"/>
<rect x="110.28" y="186.36" style="fill:#FFFFFF;" width="163.44" height="115.648"/>
<rect x="119.84" y="195.916" style="fill:#44C4A1;" width="144.28" height="96.48"/>
<polygon style="fill:#FCD462;" points="119.861,269.766 162.749,226.878 228.27,292.4 119.861,292.418 "/>
<polygon style="fill:#DC8744;" points="228.27,292.418 248.561,292.418 190.719,254.849 "/>
<polygon style="fill:#F6C358;" points="264.137,232.232 232.583,209.616 190.719,254.849 248.561,292.418 264.137,292.418 "/>
<circle style="fill:#FFFFFF;" cx="146.4" cy="215.612" r="9.284"/>
<g>
</g>
<g>
</g>
<g>
</g>
<g>
</g>
<g>
</g>
<g>
</g>
<g>
</g>
<g>
</g>
<g>
</g>
<g>
</g>
<g>
</g>
<g>
</g>
<g>
</g>
<g>
</g>
<g>
</g>
</svg>
