<?xml version="1.0" encoding="iso-8859-1"?>
<!-- Generator: Adobe Illustrator 19.0.0, SVG Export Plug-In . SVG Version: 6.00 Build 0)  -->
<svg xmlns="http://www.w3.org/2000/svg" xmlns:xlink="http://www.w3.org/1999/xlink" version="1.1" id="Capa_1" x="0px" y="0px" viewBox="0 0 384 384" style="enable-background:new 0 0 384 384;" xml:space="preserve">
<circle style="fill:#334D5C;" cx="192" cy="192" r="192"/>
<path style="opacity:0.1;enable-background:new    ;" d="M300.76,83.23c-0.76-0.76-1.8-1.24-2.92-1.24H191.48  c-2.28,0-4.16,1.88-4.16,4.2v69.84c0,1.24,0.56,2.359,1.4,3.12l7.4,7.4H82v135.44l79.589,79.589  C171.497,383.156,181.648,384,192,384c106.039,0,192-85.961,192-192c0-9.356-0.703-18.544-1.996-27.542L300.8,83.23H300.76z"/>
<rect x="81.976" y="166.56" style="fill:#FFFFFF;" width="178.584" height="135.44"/>
<rect x="94.32" y="178.884" style="fill:#82D6F4;" width="153.94" height="110.792"/>
<polygon style="fill:#FCD462;" points="94.321,265.507 140.08,219.747 209.991,289.657 94.321,289.676 "/>
<polygon style="fill:#DC8744;" points="209.991,289.676 231.641,289.676 169.924,249.59 "/>
<polygon style="fill:#F6C358;" points="248.26,225.46 214.592,201.328 169.924,249.59 231.641,289.676 248.26,289.676 "/>
<circle style="fill:#FFFFFF;" cx="121.48" cy="198.52" r="10.144"/>
<path style="fill:#E56353;" d="M297.826,82H191.499c-2.304,0-4.174,1.869-4.174,4.174v69.86c0,2.305,1.869,4.174,4.174,4.174h28.182  c1.648,0,3.229,0.655,4.394,1.82l16.194,16.194c2.427,2.426,6.362,2.426,8.788,0l16.194-16.194c1.165-1.166,2.746-1.82,4.394-1.82  h28.181c2.304,0,4.174-1.868,4.174-4.174V86.174C302,83.869,300.131,82,297.826,82z"/>
<g>
	<rect x="198.04" y="93.992" style="fill:#FFFFFF;" width="93.208" height="4"/>
	<rect x="198.04" y="109.4" style="fill:#FFFFFF;" width="93.208" height="4"/>
	<rect x="198.04" y="124.84" style="fill:#FFFFFF;" width="93.208" height="4"/>
	<rect x="198.04" y="140.24" style="fill:#FFFFFF;" width="93.208" height="4"/>
</g>
<g>
</g>
<g>
</g>
<g>
</g>
<g>
</g>
<g>
</g>
<g>
</g>
<g>
</g>
<g>
</g>
<g>
</g>
<g>
</g>
<g>
</g>
<g>
</g>
<g>
</g>
<g>
</g>
<g>
</g>
</svg>
