<?xml version="1.0" encoding="iso-8859-1"?>
<!-- Generator: Adobe Illustrator 19.0.0, SVG Export Plug-In . SVG Version: 6.00 Build 0)  -->
<svg xmlns="http://www.w3.org/2000/svg" xmlns:xlink="http://www.w3.org/1999/xlink" version="1.1" id="Capa_1" x="0px" y="0px" viewBox="0 0 384 384" style="enable-background:new 0 0 384 384;" xml:space="preserve">
<circle style="fill:#EFC84A;" cx="192" cy="192" r="192"/>
<path style="opacity:0.1;enable-background:new    ;" d="M383.635,203.395L300.04,119.8l-10.36-10.36l-15.12-15.12L264.2,83.96  c-2.64-2.6-6.88-2.6-9.52,0l-28.76,28.8l-5.36,5.32L99.52,239.12L87.8,278.64l-5.64,19.04c-0.36,1.214-0.005,2.371,0.726,3.184  l-0.007,0.007l0.055,0.056c0.046,0.048,0.09,0.093,0.138,0.138l80.874,80.873C173.106,383.28,182.468,384,192,384  C294.21,384,377.735,304.125,383.635,203.395z"/>
<rect x="187.156" y="130.794" transform="matrix(0.7071 0.7071 -0.7071 0.7071 210.9484 -76.5203)" style="fill:#CE412D;" width="21.376" height="171.177"/>
<rect x="172.038" y="115.683" transform="matrix(0.7071 0.7071 -0.7071 0.7071 195.8435 -70.2558)" style="fill:#D15241;" width="21.376" height="171.177"/>
<rect x="156.894" y="100.597" transform="matrix(0.7071 0.7071 -0.7071 0.7071 180.7366 -63.9658)" style="fill:#E56353;" width="21.376" height="171.177"/>
<rect x="213.867" y="134.309" transform="matrix(0.7071 0.7071 -0.7071 0.7071 169.6708 -133.4516)" style="fill:#44C4A1;" width="64.12" height="7.556"/>
<path style="fill:#2F4859;" d="M300.031,119.81l-10.362-10.362l-33.532,33.531l15.116,15.116l28.778-28.778  C302.656,126.692,302.656,122.436,300.031,119.81z"/>
<rect x="241.64" y="107.983" transform="matrix(-0.7071 0.7071 -0.7071 -0.7071 536.895 14.9561)" style="fill:#3A556A;" width="47.42" height="21.38"/>
<path style="fill:#64798A;" d="M274.552,94.332L264.19,83.97c-2.626-2.626-6.882-2.626-9.507,0l-28.778,28.778l15.116,15.116  L274.552,94.332z"/>
<path style="fill:#FCD462;" d="M99.522,239.13l-11.721,39.497c4.529-0.085,9.085,1.573,12.542,5.03  c3.456,3.456,5.114,8.012,5.03,12.542l39.497-11.721L99.522,239.13z"/>
<path style="fill:#64798A;" d="M100.344,283.658c-3.457-3.457-8.013-5.115-12.542-5.03l-5.658,19.066  c-0.757,2.548,1.615,4.92,4.164,4.164l19.066-5.658C105.457,291.669,103.8,287.114,100.344,283.658z"/>
<g>
</g>
<g>
</g>
<g>
</g>
<g>
</g>
<g>
</g>
<g>
</g>
<g>
</g>
<g>
</g>
<g>
</g>
<g>
</g>
<g>
</g>
<g>
</g>
<g>
</g>
<g>
</g>
<g>
</g>
</svg>
