<?xml version="1.0" encoding="iso-8859-1"?>
<!-- Generator: Adobe Illustrator 19.0.0, SVG Export Plug-In . SVG Version: 6.00 Build 0)  -->
<svg xmlns="http://www.w3.org/2000/svg" xmlns:xlink="http://www.w3.org/1999/xlink" version="1.1" id="Capa_1" x="0px" y="0px" viewBox="0 0 384 384" style="enable-background:new 0 0 384 384;" xml:space="preserve">
<circle style="fill:#EFC84A;" cx="192" cy="192" r="192"/>
<path style="opacity:0.1;enable-background:new    ;" d="M375.044,250.052l-74.037-74.037c-0.047-0.05-0.093-0.095-0.142-0.142  l-0.072-0.072l-0.026,0.006c-0.634-0.56-1.447-0.927-2.367-0.927h-31.604l-23.512-23.512l-0.01,0.012  c-0.975-0.922-2.384-1.303-3.714-0.86l-10.4,3.48c-0.671-0.658-1.428-1.224-2.134-1.846l-24.17-24.17l-0.002,0.004  c-0.65-0.542-1.478-0.868-2.374-0.868h-16.96c-1.76,0-3.28,1.24-3.64,2.96l-2.2,10.72c-8.72,2.44-16.56,7.04-22.84,13.2l-10.4-3.48  c-1.68-0.56-3.52,0.16-4.4,1.68l-8.48,14.72c-0.88,1.52-0.56,3.44,0.76,4.64l3.76,3.32h-24.44l-19.36,10.48l-9.36,5.08  c-1.24,0.68-1.24,2.44,0,3.12l177.745,177.745C314.946,350.504,357.378,305.804,375.044,250.052z"/>
<rect x="192.132" y="197.7" style="fill:#44C4A1;" width="80.52" height="11.42"/>
<rect x="192.108" y="186.3" style="fill:#3EA69B;" width="80.52" height="11.42"/>
<rect x="192.12" y="174.86" style="fill:#31978C;" width="80.52" height="11.42"/>
<rect x="272.648" y="174.86" style="fill:#E56353;" width="4.04" height="34.26"/>
<path style="fill:#64798A;" d="M302,205.539v-7.829h-25.333v11.42h21.742C300.392,209.13,302,207.522,302,205.539z"/>
<rect x="276.68" y="186.28" style="fill:#3A556A;" width="25.332" height="11.42"/>
<path style="fill:#2F4859;" d="M302,186.29v-7.828c0-1.984-1.608-3.592-3.591-3.592h-21.742v11.42H302z"/>
<path style="fill:#E56353;" d="M243.502,205.196c1.078-4.22,1.652-8.641,1.652-13.196s-0.574-8.976-1.653-13.196l8.19-7.262  c1.32-1.17,1.635-3.108,0.752-4.635l-8.49-14.706c-0.882-1.527-2.717-2.224-4.39-1.666l-10.407,3.47  c-6.293-6.156-14.109-10.754-22.83-13.19l-2.198-10.737c-0.353-1.728-1.873-2.969-3.637-2.969h-16.982  c-1.764,0-3.284,1.24-3.637,2.969l-2.198,10.737c-8.722,2.436-16.536,7.034-22.831,13.19l-10.406-3.47  c-1.674-0.558-3.508,0.139-4.39,1.666l-8.49,14.706c-0.883,1.527-0.568,3.464,0.753,4.635l8.188,7.262  c-1.078,4.22-1.653,8.641-1.653,13.196s0.575,8.976,1.654,13.197l-8.19,7.261c-1.321,1.17-1.636,3.108-0.753,4.635l8.49,14.706  c0.882,1.527,2.716,2.224,4.39,1.666l10.406-3.47c6.295,6.156,14.11,10.754,22.831,13.19l2.198,10.737  c0.353,1.728,1.873,2.969,3.637,2.969h16.982c1.764,0,3.284-1.24,3.637-2.969l2.198-10.737c8.721-2.436,16.537-7.035,22.83-13.19  l10.407,3.47c1.673,0.558,3.508-0.139,4.39-1.666l8.49-14.706c0.883-1.527,0.568-3.464-0.752-4.635L243.502,205.196z M192,227.033  c-19.317,0-35.033-15.716-35.033-35.033s15.716-35.033,35.033-35.033s35.033,15.716,35.033,35.033S211.318,227.033,192,227.033z"/>
<path style="fill:#D15241;" d="M192,154.845c-20.487,0-37.155,16.667-37.155,37.155s16.668,37.155,37.155,37.155  s37.155-16.667,37.155-37.155S212.487,154.845,192,154.845z M192,222.054c-16.572,0-30.054-13.482-30.054-30.054  s13.482-30.054,30.054-30.054s30.054,13.482,30.054,30.054S208.572,222.054,192,222.054z"/>
<rect x="111.624" y="197.7" style="fill:#44C4A1;" width="80.52" height="11.42"/>
<rect x="111.628" y="186.3" style="fill:#3EA69B;" width="80.52" height="11.42"/>
<rect x="111.616" y="174.86" style="fill:#31978C;" width="80.52" height="11.42"/>
<path style="fill:#FCD462;" d="M111.624,174.87l-19.348,10.492c1.743,1.679,2.838,4.026,2.838,6.638  c0,2.611-1.095,4.958-2.838,6.638l19.348,10.492V174.87z"/>
<path style="fill:#64798A;" d="M95.114,192c0-2.612-1.095-4.96-2.838-6.638l-9.34,5.065c-1.248,0.676-1.248,2.468,0,3.146  l9.34,5.065C94.019,196.958,95.114,194.612,95.114,192z"/>
<g>
</g>
<g>
</g>
<g>
</g>
<g>
</g>
<g>
</g>
<g>
</g>
<g>
</g>
<g>
</g>
<g>
</g>
<g>
</g>
<g>
</g>
<g>
</g>
<g>
</g>
<g>
</g>
<g>
</g>
</svg>
