<?xml version="1.0" encoding="iso-8859-1"?>
<!-- Generator: Adobe Illustrator 19.0.0, SVG Export Plug-In . SVG Version: 6.00 Build 0)  -->
<svg xmlns="http://www.w3.org/2000/svg" xmlns:xlink="http://www.w3.org/1999/xlink" version="1.1" id="Capa_1" x="0px" y="0px" viewBox="0 0 384 384" style="enable-background:new 0 0 384 384;" xml:space="preserve">
<circle style="fill:#334D5C;" cx="192" cy="192" r="192"/>
<path style="opacity:0.1;enable-background:new    ;" d="M382.678,214.234L260.4,91.957c-0.16-0.24-0.4-0.4-0.68-0.48  c-0.56-0.119-1.16,0.32-1.28,1l-0.32,1.801l-3.36,3.84l-14.4-14.36c-0.28-0.52-1-0.72-1.52-0.32l-5.16,3.72l-10.64,7.68  l-10.56,21.92l-33.76-33.8l-30.64,12.359l9.04,22.4l-24.76-24.76l-14.48-10.96l-2.24,18.04l10.32,13.2  c-2.24,1.12-3.84,2.159-3.64,2.64l3.88,9.2l1.24,2.92c-0.8,0.56-1.28,1.04-1.16,1.319l8.64,20.521l1.84,4.32h-14.24  c-7.96,0-14.4,6-14.4,13.36c0,4.119,2.04,7.799,5.2,10.28h0.04l9.96,10l12.2,106.16c0.24,2.16,1.32,4.08,2.92,5.48l0.24,0.239  l82.185,82.158C305.986,369,372.749,300.274,382.678,214.234z"/>
<path style="fill:#64798A;" d="M201.266,252.154l-20.796-49.292l-19.674,8.3l20.796,49.292  C182.225,261.952,201.899,253.652,201.266,252.154z"/>
<polygon style="fill:#FCD462;" points="127.492,115.217 131.24,113.636 134.988,112.055 132.376,92.966 117.894,82 115.642,100.026   "/>
<g>
	<polygon style="fill:#64798A;" points="166.544,196.961 167.713,196.468 176.253,192.865 154.605,141.553 146.066,145.156    144.896,145.649 134.932,149.853 156.579,201.165  "/>
	<path style="fill:#64798A;" d="M149.099,132.606l-10.034-23.785c-0.621-1.474-17.354,5.586-16.733,7.06l10.034,23.785   C131.744,138.191,148.478,131.131,149.099,132.606z"/>
</g>
<path style="fill:#F6C358;" d="M149.672,133.964l-10.034-23.785c-0.621-1.474-17.355,5.586-16.734,7.06l10.034,23.785  C132.317,139.549,149.05,132.49,149.672,133.964z"/>
<path style="fill:#FCD462;" d="M155.197,142.956l-9.257-21.942c-0.73-1.733-20.404,6.567-19.674,8.3l9.257,21.942  C134.793,149.522,154.466,141.222,155.197,142.956z"/>
<path style="fill:#F6C358;" d="M122.261,98.049c0.475,1.127,1.774,1.656,2.902,1.18c1.126-0.475,1.655-1.775,1.18-2.902  c-0.362-0.86-1.204-1.362-2.083-1.346L119.2,82.989L117.894,82l-0.202,1.618l5.062,11.998  C122.126,96.235,121.898,97.188,122.261,98.049z"/>
<g>
	
		<rect x="156.324" y="196.801" transform="matrix(-0.9213 0.3888 -0.3888 -0.9213 398.8457 317.477)" style="fill:#FCD462;" width="21.96" height="4.576"/>
	<path style="fill:#FCD462;" d="M160.915,212.222L160,210.055l20.233-8.536l0.915,2.168   C174.505,206.926,167.763,209.779,160.915,212.222z"/>
</g>
<rect x="159.32" y="201.52" transform="matrix(-0.9214 0.3887 -0.3887 -0.9214 404.3915 325.6762)" style="fill:#F6C358;" width="19.868" height="4.444"/>
<polygon style="fill:#DC8744;" points="158.07,205.478 178.302,196.942 177.543,197.83 159.296,205.528 "/>
<path style="fill:#F6C358;" d="M189.84,259.88l5.26-2.219c0.453-0.191,0.665-0.714,0.474-1.167l-18.891-44.778  c-0.191-0.453-0.714-0.665-1.166-0.474l-5.26,2.219c-0.453,0.191-0.665,0.714-0.474,1.166l18.891,44.778  C188.864,259.858,189.387,260.071,189.84,259.88z"/>
<g>
	
		<rect x="182.96" y="220.338" transform="matrix(0.9214 -0.3887 0.3887 0.9214 -78.6982 90.5443)" style="fill:#3A556A;" width="2.996" height="38.92"/>
	<polygon style="fill:#3A556A;" points="175.009,221.237 177.77,220.072 176.014,212.98 171.155,215.03  "/>
</g>
<path style="fill:#F6C358;" d="M205.89,264.764l-3.224-7.642c0.497,1.176-17.994,8.978-18.491,7.801l3.224,7.642  C187.896,273.741,206.386,265.94,205.89,264.764z"/>
<path style="fill:#FCD462;" d="M204.774,260.469l-3.43-8.13c0.529,1.252-19.145,9.552-19.674,8.3l3.43,8.13  C185.629,270.02,205.303,261.72,204.774,260.469z"/>
<path style="fill:#CE412D;" d="M258.595,97.476c0.585,0.111,1.162-0.34,1.288-1.008l0.679-3.582c0.127-0.668-0.245-1.298-0.83-1.41  c-0.585-0.111-1.162,0.34-1.288,1.008l-0.679,3.582C257.638,96.734,258.011,97.365,258.595,97.476z"/>
<path style="fill:#E56353;" d="M245.946,219.136l20.133-106.209c0.137-0.724,0.08-1.472-0.166-2.167l-5.69-16.081l-2.118-0.402  l-11.18,12.884c-0.483,0.556-0.81,1.231-0.947,1.956l-20.133,106.209L245.946,219.136z"/>
<path style="fill:#3A556A;" d="M217.379,266.637l17.665,3.348c1.233,0.234,2.422-0.576,2.655-1.808l9.26-48.85l-22.128-4.195  l-9.26,48.85C215.338,265.215,216.147,266.404,217.379,266.637z"/>
<path style="fill:#2F4859;" d="M224.752,262.47l4.957,0.94c0.345,0.065,0.679-0.162,0.744-0.507l7.535-39.749  c0.065-0.345-0.162-0.678-0.508-0.744l-4.957-0.94c-0.346-0.066-0.679,0.162-0.744,0.507l-7.535,39.749  C224.179,262.071,224.406,262.404,224.752,262.47z"/>
<g>
	
		<rect x="229.7" y="229.075" transform="matrix(0.9825 0.1863 -0.1863 0.9825 49.5823 -38.713)" style="fill:#EBF0F3;" width="2.12" height="30.732"/>
	<polygon style="fill:#EBF0F3;" points="232.822,227.753 234.904,228.148 236.346,224.104 232.96,223.462  "/>
</g>
<rect x="211.4" y="96.841" transform="matrix(0.9011 0.4336 -0.4336 0.9011 86.814 -78.1815)" style="fill:#44C4A1;" width="6.824" height="108.8"/>
<rect x="205.271" y="93.912" transform="matrix(0.9011 0.4336 -0.4336 0.9011 84.9431 -75.8166)" style="fill:#3EA69B;" width="6.824" height="108.8"/>
<rect x="199.114" y="90.964" transform="matrix(0.9011 0.4336 -0.4336 0.9011 83.0514 -73.4355)" style="fill:#31978C;" width="6.824" height="108.8"/>
<rect x="174.321" y="197.205" transform="matrix(0.9011 0.4336 -0.4336 0.9011 104.28 -60.4019)" style="fill:#E56353;" width="20.476" height="2.412"/>
<path style="fill:#EBF0F3;" d="M184.758,216.656l-4.216-2.029l6.565-13.644l6.15,2.96l-5.634,11.709  C187.108,216.721,185.826,217.17,184.758,216.656z"/>
<rect x="173.174" y="202.949" transform="matrix(-0.4336 0.9011 -0.9011 -0.4336 445.0671 132.9669)" style="fill:#E1E6E9;" width="15.14" height="6.824"/>
<path style="fill:#D5D6DB;" d="M174.39,211.668l-4.216-2.028c-1.068-0.514-1.518-1.797-1.004-2.865l5.634-11.71l6.151,2.959  L174.39,211.668z"/>
<path style="fill:#FCD462;" d="M223.027,94.844l10.664-7.701c0.452,1.374,1.433,2.572,2.84,3.249  c1.406,0.676,2.954,0.695,4.31,0.192l0.637,13.139L223.027,94.844z"/>
<path style="fill:#64798A;" d="M236.531,90.391c-1.407-0.677-2.388-1.875-2.84-3.249l5.148-3.717  c0.688-0.497,1.653-0.033,1.694,0.815l0.308,6.342C239.485,91.086,237.937,91.068,236.531,90.391z"/>
<rect x="174.478" y="83.785" transform="matrix(-0.9275 0.3738 -0.3738 -0.9275 427.0759 232.4458)" style="fill:#EBF0F3;" width="33.044" height="147.692"/>
<rect x="187.362" y="83.783" transform="matrix(-0.9275 0.3737 -0.3737 -0.9275 427.0681 232.4485)" style="fill:#E1E6E9;" width="7.272" height="147.692"/>
<g>
	
		<rect x="176.233" y="88.558" transform="matrix(-0.9275 0.3738 -0.3738 -0.9275 377.7196 105.2476)" style="fill:#D5D6DB;" width="4.844" height="1.38"/>
	
		<rect x="177.402" y="91.516" transform="matrix(-0.9275 0.3738 -0.3738 -0.9275 381.0788 110.5003)" style="fill:#D5D6DB;" width="4.844" height="1.38"/>
	
		<rect x="178.598" y="94.445" transform="matrix(-0.9275 0.3737 -0.3737 -0.9275 384.4779 115.7213)" style="fill:#D5D6DB;" width="4.844" height="1.38"/>
	
		<rect x="177.159" y="97.889" transform="matrix(-0.9275 0.3738 -0.3738 -0.9275 385.6046 122.3855)" style="fill:#D5D6DB;" width="7.556" height="1.38"/>
	
		<rect x="180.962" y="100.336" transform="matrix(-0.9275 0.3738 -0.3738 -0.9275 391.2362 126.1866)" style="fill:#D5D6DB;" width="4.844" height="1.38"/>
	
		<rect x="182.161" y="103.243" transform="matrix(-0.9275 0.3738 -0.3738 -0.9275 394.6348 131.3421)" style="fill:#D5D6DB;" width="4.844" height="1.38"/>
	
		<rect x="183.332" y="106.181" transform="matrix(-0.9275 0.3738 -0.3738 -0.9275 397.9917 136.5582)" style="fill:#D5D6DB;" width="4.844" height="1.38"/>
	
		<rect x="181.923" y="109.633" transform="matrix(-0.9275 0.3738 -0.3738 -0.9275 399.1789 143.243)" style="fill:#D5D6DB;" width="7.556" height="1.38"/>
	
		<rect x="185.676" y="112.046" transform="matrix(-0.9275 0.3738 -0.3738 -0.9275 404.7004 146.9964)" style="fill:#D5D6DB;" width="4.844" height="1.38"/>
	
		<rect x="186.877" y="114.985" transform="matrix(-0.9275 0.3738 -0.3738 -0.9275 408.1144 152.2106)" style="fill:#D5D6DB;" width="4.844" height="1.38"/>
	
		<rect x="188.077" y="117.896" transform="matrix(-0.9275 0.3738 -0.3738 -0.9275 411.5177 157.3571)" style="fill:#D5D6DB;" width="4.844" height="1.38"/>
	
		<rect x="186.641" y="121.369" transform="matrix(-0.9275 0.3738 -0.3738 -0.9275 412.6598 164.0899)" style="fill:#D5D6DB;" width="7.556" height="1.38"/>
	
		<rect x="190.438" y="123.784" transform="matrix(-0.9275 0.3738 -0.3738 -0.9275 418.2665 167.8405)" style="fill:#D5D6DB;" width="4.844" height="1.38"/>
	
		<rect x="191.609" y="126.724" transform="matrix(-0.9275 0.3738 -0.3738 -0.9275 421.6211 173.0715)" style="fill:#D5D6DB;" width="4.844" height="1.38"/>
	
		<rect x="192.79" y="129.638" transform="matrix(-0.9275 0.3738 -0.3738 -0.9275 424.9884 178.2445)" style="fill:#D5D6DB;" width="4.844" height="1.38"/>
	
		<rect x="191.352" y="133.082" transform="matrix(-0.9275 0.3738 -0.3738 -0.9275 426.1172 184.917)" style="fill:#D5D6DB;" width="7.556" height="1.38"/>
	
		<rect x="195.158" y="135.54" transform="matrix(-0.9275 0.3738 -0.3738 -0.9275 431.7629 188.7195)" style="fill:#D5D6DB;" width="4.844" height="1.38"/>
	
		<rect x="196.357" y="138.436" transform="matrix(-0.9275 0.3738 -0.3738 -0.9275 435.1516 193.87)" style="fill:#D5D6DB;" width="4.844" height="1.38"/>
	
		<rect x="197.52" y="141.401" transform="matrix(-0.9275 0.3738 -0.3738 -0.9275 438.5013 199.1511)" style="fill:#D5D6DB;" width="4.844" height="1.38"/>
	
		<rect x="196.082" y="144.846" transform="matrix(-0.9275 0.3738 -0.3738 -0.9275 439.6298 205.8238)" style="fill:#D5D6DB;" width="7.556" height="1.38"/>
	
		<rect x="199.887" y="147.262" transform="matrix(-0.9275 0.3738 -0.3738 -0.9275 445.2592 209.5449)" style="fill:#D5D6DB;" width="4.844" height="1.38"/>
	
		<rect x="201.079" y="150.197" transform="matrix(-0.9275 0.3738 -0.3738 -0.9275 448.6492 214.7744)" style="fill:#D5D6DB;" width="4.844" height="1.38"/>
	
		<rect x="202.234" y="153.115" transform="matrix(-0.9275 0.3738 -0.3738 -0.9275 451.9671 219.9686)" style="fill:#D5D6DB;" width="4.844" height="1.38"/>
	
		<rect x="200.829" y="156.565" transform="matrix(-0.9275 0.3738 -0.3738 -0.9275 453.1609 226.6389)" style="fill:#D5D6DB;" width="7.556" height="1.38"/>
	
		<rect x="204.602" y="159.009" transform="matrix(-0.9275 0.3738 -0.3738 -0.9275 458.7393 230.4247)" style="fill:#D5D6DB;" width="4.844" height="1.38"/>
	
		<rect x="205.793" y="161.921" transform="matrix(-0.9275 0.3738 -0.3738 -0.9275 462.1237 235.5923)" style="fill:#D5D6DB;" width="4.844" height="1.38"/>
	
		<rect x="206.986" y="164.878" transform="matrix(-0.9275 0.3738 -0.3738 -0.9275 465.5226 240.865)" style="fill:#D5D6DB;" width="4.844" height="1.38"/>
	
		<rect x="205.558" y="168.317" transform="matrix(-0.9275 0.3738 -0.3738 -0.9275 466.6691 247.5225)" style="fill:#D5D6DB;" width="7.556" height="1.38"/>
	
		<rect x="209.369" y="170.721" transform="matrix(-0.9275 0.3738 -0.3738 -0.9275 472.3008 251.2364)" style="fill:#D5D6DB;" width="4.844" height="1.38"/>
	
		<rect x="210.519" y="173.664" transform="matrix(-0.9275 0.3738 -0.3738 -0.9275 475.6232 256.4595)" style="fill:#D5D6DB;" width="4.844" height="1.38"/>
	
		<rect x="211.712" y="176.6" transform="matrix(-0.9275 0.3738 -0.3738 -0.9275 479.0125 261.6928)" style="fill:#D5D6DB;" width="4.844" height="1.38"/>
	
		<rect x="210.273" y="180.043" transform="matrix(-0.9275 0.3738 -0.3738 -0.9275 480.139 268.3633)" style="fill:#D5D6DB;" width="7.556" height="1.38"/>
	
		<rect x="214.094" y="182.478" transform="matrix(-0.9275 0.3738 -0.3738 -0.9275 485.8018 272.1327)" style="fill:#D5D6DB;" width="4.844" height="1.38"/>
	
		<rect x="215.257" y="185.398" transform="matrix(-0.9275 0.3738 -0.3738 -0.9275 489.1345 277.33)" style="fill:#D5D6DB;" width="4.844" height="1.38"/>
	
		<rect x="216.444" y="188.36" transform="matrix(-0.9275 0.3738 -0.3738 -0.9275 492.5338 282.5806)" style="fill:#D5D6DB;" width="4.844" height="1.38"/>
	
		<rect x="214.999" y="191.791" transform="matrix(-0.9275 0.3738 -0.3738 -0.9275 493.6401 289.2415)" style="fill:#D5D6DB;" width="7.556" height="1.38"/>
	
		<rect x="218.812" y="194.204" transform="matrix(-0.9275 0.3738 -0.3738 -0.9275 499.2797 292.9719)" style="fill:#D5D6DB;" width="4.844" height="1.38"/>
	
		<rect x="219.992" y="197.16" transform="matrix(-0.9275 0.3738 -0.3738 -0.9275 502.659 298.2284)" style="fill:#D5D6DB;" width="4.844" height="1.38"/>
	
		<rect x="221.158" y="200.083" transform="matrix(-0.9275 0.3737 -0.3737 -0.9275 505.9952 303.4359)" style="fill:#D5D6DB;" width="4.844" height="1.38"/>
	
		<rect x="219.742" y="203.527" transform="matrix(-0.9275 0.3738 -0.3738 -0.9275 507.1681 310.0909)" style="fill:#D5D6DB;" width="7.556" height="1.38"/>
	
		<rect x="223.559" y="205.96" transform="matrix(-0.9275 0.3737 -0.3737 -0.9275 512.8196 313.8654)" style="fill:#D5D6DB;" width="4.844" height="1.38"/>
	
		<rect x="224.714" y="208.872" transform="matrix(-0.9275 0.3738 -0.3738 -0.9275 516.1379 319.0374)" style="fill:#D5D6DB;" width="4.844" height="1.38"/>
	
		<rect x="225.918" y="211.805" transform="matrix(-0.9275 0.3737 -0.3737 -0.9275 519.5517 324.2512)" style="fill:#D5D6DB;" width="4.844" height="1.38"/>
	
		<rect x="224.478" y="215.266" transform="matrix(-0.9275 0.3738 -0.3738 -0.9275 520.6858 330.9476)" style="fill:#D5D6DB;" width="7.556" height="1.38"/>
</g>
<path style="fill:#F6C358;" d="M261.472,154.175H122.529c-7.96,0-14.412,5.973-14.412,13.341c0,7.368,6.452,13.341,14.412,13.341  h138.942c7.959,0,14.412-5.973,14.412-13.341C275.883,160.148,269.431,154.175,261.472,154.175z"/>
<polygon style="fill:#DC8744;" points="261.835,180.857 122.529,180.857 122.552,181.061 259.223,203.58 "/>
<path style="fill:#FCD462;" d="M122.552,181.061l12.976,112.893c0.526,4.575,4.695,8.046,9.665,8.046h93.978  c4.97,0,9.139-3.47,9.665-8.046l10.387-90.374L122.552,181.061z"/>
<path style="fill:#F6C358;" d="M149.589,212.316v73.399c0,2.255,1.974,4.084,4.411,4.084v-81.566  C151.563,208.233,149.589,210.061,149.589,212.316z"/>
<path style="fill:#DC8744;" d="M154,208.233v81.566c2.436,0,4.411-1.828,4.411-4.084v-73.399  C158.411,210.061,156.435,208.233,154,208.233z"/>
<path style="fill:#F6C358;" d="M174.18,212.316v73.399c0,2.255,1.975,4.084,4.411,4.084v-81.566  C176.155,208.233,174.18,210.061,174.18,212.316z"/>
<path style="fill:#DC8744;" d="M178.592,208.233v81.566c2.436,0,4.411-1.828,4.411-4.084v-73.399  C183.003,210.061,181.027,208.233,178.592,208.233z"/>
<path style="fill:#F6C358;" d="M198.772,212.316v73.399c0,2.255,1.975,4.084,4.411,4.084v-81.566  C200.747,208.233,198.772,210.061,198.772,212.316z"/>
<path style="fill:#DC8744;" d="M203.184,208.233v81.566c2.436,0,4.411-1.828,4.411-4.084v-73.399  C207.595,210.061,205.619,208.233,203.184,208.233z"/>
<path style="fill:#F6C358;" d="M223.364,212.316v73.399c0,2.255,1.975,4.084,4.411,4.084v-81.566  C225.339,208.233,223.364,210.061,223.364,212.316z"/>
<path style="fill:#DC8744;" d="M227.776,208.233v81.566c2.436,0,4.411-1.828,4.411-4.084v-73.399  C232.187,210.061,230.211,208.233,227.776,208.233z"/>
<g>
</g>
<g>
</g>
<g>
</g>
<g>
</g>
<g>
</g>
<g>
</g>
<g>
</g>
<g>
</g>
<g>
</g>
<g>
</g>
<g>
</g>
<g>
</g>
<g>
</g>
<g>
</g>
<g>
</g>
</svg>
