<?xml version="1.0" encoding="iso-8859-1"?>
<!-- Generator: Adobe Illustrator 19.0.0, SVG Export Plug-In . SVG Version: 6.00 Build 0)  -->
<svg xmlns="http://www.w3.org/2000/svg" xmlns:xlink="http://www.w3.org/1999/xlink" version="1.1" id="Capa_1" x="0px" y="0px" viewBox="0 0 384 384" style="enable-background:new 0 0 384 384;" xml:space="preserve">
<circle style="fill:#334D5C;" cx="192" cy="192" r="192"/>
<path style="opacity:0.1;enable-background:new    ;" d="M291.59,90.499l-0.013-0.012c-4.877-4.803-9.759-9.035-10.377-8.417  l-4.2,4.16c-0.48-0.28-0.88-0.44-1.04-0.28l-9.12,9.12c0.48-0.48,3.32,1.72,6.76,4.88c-3.52-3.12-6.4-5.24-6.96-4.68l-54.28,54.28  c-0.12-0.12-0.2-0.2-0.32-0.32l-2.44,2.44l1.08,1.08l-4.6,4.6l-1.6-0.52l-4.72,4.72l0.28,0.32l-80.64,80.64  c-0.32,0.32,0.08,1.2,0.88,2.44l-12.08,12.04l-1.52,1.56c-0.52,0.521,1.04,2.76,3.44,5.56l-21.24,12.24L82,301.99l0.022-0.006  l79.601,79.6C171.52,383.158,181.66,384,192,384c106.039,0,192-85.961,192-192c0-3.128-0.088-6.235-0.236-9.326l-90.346-90.347  C292.812,91.712,292.204,91.104,291.59,90.499z"/>
<path style="fill:#64798A;" d="M266.64,95.274l-55.338,55.338l22.087,22.087l55.338-55.339  C290.408,115.678,268.321,93.591,266.64,95.274z"/>
<polygon style="fill:#FCD462;" points="121.724,270.692 117.516,266.484 113.309,262.277 88.882,276.334 82,302 107.667,295.119 "/>
<g>
	<polygon style="fill:#64798A;" points="210.979,172.735 209.666,171.422 200.079,161.835 142.474,219.44 152.061,229.028    153.374,230.34 164.56,241.527 222.166,183.922  "/>
	<path style="fill:#64798A;" d="M133.383,231.832l-26.702,26.702c-1.655,1.654,17.131,20.44,18.786,18.786l26.702-26.702   C150.513,252.272,131.727,233.486,133.383,231.832z"/>
</g>
<path style="fill:#F6C358;" d="M134.908,230.307l-26.702,26.702c-1.655,1.654,17.131,20.44,18.786,18.786l26.702-26.702  C152.038,250.747,133.252,231.962,134.908,230.307z"/>
<path style="fill:#FCD462;" d="M144.048,217.866l-24.633,24.633c-1.946,1.944,20.14,24.031,22.086,22.087l24.634-24.633  C164.188,241.898,142.101,219.811,144.048,217.866z"/>
<path style="fill:#F6C358;" d="M101.342,287.24c1.265-1.265,1.266-3.316,0-4.582c-1.264-1.264-3.317-1.265-4.582,0  c-0.964,0.965-1.182,2.382-0.676,3.564l-13.464,13.464L82,302l2.304-0.617l13.47-13.47  C98.958,288.422,100.376,288.206,101.342,287.24z"/>
<g>
	
		<rect x="210.133" y="154.461" transform="matrix(-0.7071 0.7071 -0.7071 -0.7071 485.0078 140.1451)" style="fill:#FCD462;" width="6.692" height="32.12"/>
	<path style="fill:#FCD462;" d="M234.761,171.954l-2.433,2.434l-22.715-22.715l2.434-2.434   C220.097,156.456,227.677,164.021,234.761,171.954z"/>
</g>
<rect x="215.421" y="150.797" transform="matrix(-0.7071 0.7071 -0.7071 -0.7071 490.2001 127.6111)" style="fill:#F6C358;" width="6.5" height="29.064"/>
<polygon style="fill:#DC8744;" points="227.19,179.526 204.475,156.811 206.096,157.352 226.581,177.836 "/>
<path style="fill:#F6C358;" d="M283.405,106.5l-5.905-5.905c-0.508-0.508-1.334-0.508-1.843,0.001l-50.27,50.271  c-0.508,0.508-0.508,1.334,0,1.842l5.905,5.905c0.508,0.508,1.334,0.508,1.842,0l50.27-50.27  C283.913,107.834,283.913,107.009,283.405,106.5z"/>
<g>
	
		<rect x="257.002" y="96.379" transform="matrix(-0.7072 -0.7071 0.7071 -0.7072 354.2106 396.3945)" style="fill:#3A556A;" width="4.384" height="56.932"/>
	<polygon style="fill:#3A556A;" points="239.211,147.888 236.113,144.79 227.47,151.076 232.924,156.531  "/>
</g>
<path style="fill:#F6C358;" d="M281.181,82.061l-8.579,8.579c1.32-1.322,22.079,19.437,20.759,20.759l8.579-8.579  C303.26,101.498,282.501,80.739,281.181,82.061z"/>
<path style="fill:#FCD462;" d="M275.975,85.939l-9.127,9.128c1.404-1.406,23.491,20.68,22.086,22.087l9.128-9.128  C299.466,106.62,277.38,84.533,275.975,85.939z"/>
<g>
</g>
<g>
</g>
<g>
</g>
<g>
</g>
<g>
</g>
<g>
</g>
<g>
</g>
<g>
</g>
<g>
</g>
<g>
</g>
<g>
</g>
<g>
</g>
<g>
</g>
<g>
</g>
<g>
</g>
</svg>
