<?xml version="1.0" encoding="iso-8859-1"?>
<!-- Generator: Adobe Illustrator 19.0.0, SVG Export Plug-In . SVG Version: 6.00 Build 0)  -->
<svg xmlns="http://www.w3.org/2000/svg" xmlns:xlink="http://www.w3.org/1999/xlink" version="1.1" id="Capa_1" x="0px" y="0px" viewBox="0 0 384 384" style="enable-background:new 0 0 384 384;" xml:space="preserve">
<circle style="fill:#E05B49;" cx="192" cy="192" r="192"/>
<path style="opacity:0.1;enable-background:new    ;" d="M251.32,81.997H132.68c-2.72,0-4.92,2.2-4.92,4.92v210.16  c0,1.16,0.4,2.2,1.08,3.04l0.84,0.84L211.696,383c90.316-9.203,162.112-81.004,171.307-171.323L254.92,83.557  C254,82.597,252.72,81.997,251.32,81.997z"/>
<path style="fill:#64798A;" d="M251.316,82H132.687c-2.721,0-4.927,2.205-4.927,4.926v210.148c0,2.721,2.206,4.926,4.927,4.926  h118.629c2.718,0,4.924-2.206,4.924-4.926V86.926C256.24,84.205,254.034,82,251.316,82z"/>
<g>
	<path style="fill:#3A556A;" d="M238.501,106.553h-93.002c-1.045,0-1.892,0.847-1.892,1.891v27.652c0,1.044,0.847,1.891,1.892,1.891   h93.002c1.045,0,1.892-0.847,1.892-1.891v-27.652C240.393,107.4,239.546,106.553,238.501,106.553z"/>
	<path style="fill:#3A556A;" d="M238.501,150.81h-93.002c-1.045,0-1.892,0.847-1.892,1.891v27.652c0,1.044,0.847,1.891,1.892,1.891   h93.002c1.045,0,1.892-0.847,1.892-1.891v-27.652C240.393,151.657,239.546,150.81,238.501,150.81z"/>
	<path style="fill:#3A556A;" d="M196.84,213.258v-11.284c0-2.673-2.168-4.84-4.84-4.84c-2.674,0-4.84,2.167-4.84,4.84v11.284   c1.54-0.479,3.144-0.811,4.84-0.811C193.696,212.447,195.3,212.779,196.84,213.258z"/>
	<path style="fill:#3A556A;" d="M187.16,244.534v40.93c0,2.673,2.166,4.84,4.84,4.84c2.672,0,4.84-2.167,4.84-4.84v-40.93   c-1.54,0.478-3.144,0.81-4.84,0.81C190.304,245.344,188.7,245.012,187.16,244.534z"/>
</g>
<circle style="fill:#2F4859;" cx="192" cy="228.88" r="11.888"/>
<circle style="fill:#3A556A;" cx="192" cy="228.88" r="4.816"/>
<circle style="fill:#E56353;" cx="192" cy="249.6" r="2.364"/>
<circle style="fill:#44C4A1;" cx="192" cy="260.76" r="2.364"/>
<g>
</g>
<g>
</g>
<g>
</g>
<g>
</g>
<g>
</g>
<g>
</g>
<g>
</g>
<g>
</g>
<g>
</g>
<g>
</g>
<g>
</g>
<g>
</g>
<g>
</g>
<g>
</g>
<g>
</g>
</svg>
