<?xml version="1.0" encoding="iso-8859-1"?>
<!-- Generator: Adobe Illustrator 19.0.0, SVG Export Plug-In . SVG Version: 6.00 Build 0)  -->
<svg xmlns="http://www.w3.org/2000/svg" xmlns:xlink="http://www.w3.org/1999/xlink" version="1.1" id="Capa_1" x="0px" y="0px" viewBox="0 0 384 384" style="enable-background:new 0 0 384 384;" xml:space="preserve">
<circle style="fill:#EFC84A;" cx="192" cy="192" r="192"/>
<path style="opacity:0.1;enable-background:new    ;" d="M287,113.509H97c-2.76,0-5,2.24-5,5v133.72H82v13.841h0.4l-0.08,0.04  l117.688,117.688c97.058-3.986,175.479-80.004,183.294-176.026L290.36,114.83C289.48,113.99,288.28,113.509,287,113.509z"/>
<path style="fill:#3A556A;" d="M286.988,113.515H97.01c-2.761,0-4.999,2.239-4.999,5v133.713h199.978V118.515  C291.989,115.754,289.75,113.515,286.988,113.515z"/>
<rect x="103.708" y="124.232" style="fill:#64798A;" width="176.6" height="117.296"/>
<rect x="82" y="252.24" style="fill:#EBF0F3;" width="220" height="13.848"/>
<g>
	<polygon style="fill:#D5D6DB;" points="301.691,266.093 82.309,266.093 96.754,270.485 287.246,270.485  "/>
	<rect x="177.16" y="257.52" style="fill:#D5D6DB;" width="29.64" height="3.24"/>
</g>
<circle style="fill:#FCD462;" cx="173.44" cy="175.992" r="33.564"/>
<g>
	<path style="fill:#F6C358;" d="M173.434,204.953c-15.969,0-28.959-12.992-28.959-28.96s12.99-28.959,28.959-28.959   s28.959,12.99,28.959,28.959S189.403,204.953,173.434,204.953z M173.434,150.465c-14.076,0-25.528,11.452-25.528,25.528   c0,14.077,11.452,25.53,25.528,25.53c14.076,0,25.528-11.452,25.528-25.53C198.962,161.917,187.51,150.465,173.434,150.465z"/>
	<path style="fill:#F6C358;" d="M172.37,196.076v-3.537c-4.428-0.452-8.402-2.212-11.919-5.28l3.537-4.215   c2.713,2.358,5.504,3.761,8.382,4.215v-9.4c-3.651-0.871-6.324-2.018-8.02-3.44c-1.696-1.421-2.543-3.529-2.543-6.322   s0.974-5.078,2.93-6.857c1.956-1.776,4.499-2.744,7.633-2.906v-2.423h3.099v2.47c3.552,0.26,6.912,1.471,10.078,3.635l-3.15,4.458   c-2.133-1.518-4.44-2.454-6.928-2.811v9.108h0.146c3.714,0.873,6.442,2.052,8.185,3.537c1.747,1.486,2.618,3.643,2.618,6.468   c0,2.827-1.001,5.13-3.004,6.904c-2.003,1.778-4.648,2.746-7.945,2.908v3.488H172.37z M168.951,164.802   c-0.824,0.726-1.234,1.63-1.234,2.713s0.323,1.938,0.97,2.567c0.642,0.631,1.873,1.236,3.682,1.818v-8.382   C170.915,163.647,169.775,164.075,168.951,164.802z M179.152,186.047c0.903-0.741,1.356-1.678,1.356-2.809   c0-1.13-0.355-2.027-1.064-2.689c-0.714-0.662-2.038-1.283-3.974-1.865v8.72C177.018,187.244,178.244,186.79,179.152,186.047z"/>
</g>
<polygon style="fill:#FFFFFF;" points="244.128,196.245 204.749,180.555 220.439,219.934 225.193,207.46 234.744,217.011   241.206,210.55 231.654,200.999 "/>
<g>
</g>
<g>
</g>
<g>
</g>
<g>
</g>
<g>
</g>
<g>
</g>
<g>
</g>
<g>
</g>
<g>
</g>
<g>
</g>
<g>
</g>
<g>
</g>
<g>
</g>
<g>
</g>
<g>
</g>
</svg>
