<?xml version="1.0" encoding="iso-8859-1"?>
<!-- Generator: Adobe Illustrator 19.0.0, SVG Export Plug-In . SVG Version: 6.00 Build 0)  -->
<svg xmlns="http://www.w3.org/2000/svg" xmlns:xlink="http://www.w3.org/1999/xlink" version="1.1" id="Capa_1" x="0px" y="0px" viewBox="0 0 384 384" style="enable-background:new 0 0 384 384;" xml:space="preserve">
<circle style="fill:#45B39C;" cx="192" cy="192" r="192"/>
<path style="opacity:0.1;enable-background:new    ;" d="M273.72,127.84l-22.16-22.16L229.4,83.52c-1-0.96-2.28-1.52-3.68-1.52  H113.96c-2.88,0-5.16,2.32-5.16,5.16v209.68c0,1.485,0.644,2.804,1.651,3.747l-0.034,0.004l83.364,83.364  c90.969-0.83,166.785-64.906,185.658-150.397L273.72,127.84L273.72,127.84z"/>
<path style="fill:#EBF0F3;" d="M225.736,82H113.949c-2.85,0-5.161,2.311-5.161,5.161v209.678c0,2.85,2.311,5.161,5.161,5.161  h156.102c2.85,0,5.161-2.311,5.161-5.161V131.477c0-1.369-0.544-2.682-1.512-3.65l-44.315-44.316  C228.418,82.544,227.105,82,225.736,82z"/>
<path style="fill:#D5D6DB;" d="M233.036,129.339h41.675c-0.253-0.551-0.573-1.075-1.01-1.512l-22.157-22.158l-22.158-22.158  c-0.437-0.437-0.961-0.757-1.512-1.01v41.676C227.874,127.028,230.185,129.339,233.036,129.339z"/>
<g>
	<rect x="124.16" y="151.264" style="fill:#E1E6E9;" width="135.676" height="8"/>
	<rect x="124.16" y="174.66" style="fill:#E1E6E9;" width="135.676" height="8"/>
	<rect x="124.16" y="198.04" style="fill:#E1E6E9;" width="101.856" height="8"/>
</g>
<rect x="193.84" y="268.24" style="fill:#27A2DB;" width="65.98" height="8"/>
<rect x="124.16" y="125.32" style="fill:#44C4A1;" width="65.98" height="8"/>
<g>
	<polygon style="fill:#E1E6E9;" points="240.634,221.444 124.162,221.444 124.162,229.444 235.203,229.444 259.838,229.444    259.838,221.444  "/>
	<polygon style="fill:#E1E6E9;" points="229.451,244.835 124.162,244.835 124.162,252.835 228.49,252.835 259.838,252.835    259.838,244.835  "/>
</g>
<g>
</g>
<g>
</g>
<g>
</g>
<g>
</g>
<g>
</g>
<g>
</g>
<g>
</g>
<g>
</g>
<g>
</g>
<g>
</g>
<g>
</g>
<g>
</g>
<g>
</g>
<g>
</g>
<g>
</g>
</svg>
