<?xml version="1.0" encoding="iso-8859-1"?>
<!-- Generator: Adobe Illustrator 19.0.0, SVG Export Plug-In . SVG Version: 6.00 Build 0)  -->
<svg xmlns="http://www.w3.org/2000/svg" xmlns:xlink="http://www.w3.org/1999/xlink" version="1.1" id="Capa_1" x="0px" y="0px" viewBox="0 0 384 384" style="enable-background:new 0 0 384 384;" xml:space="preserve">
<circle style="fill:#EA8953;" cx="192" cy="192" r="192"/>
<path style="opacity:0.1;enable-background:new    ;" d="M225.68,108.95l-25.16-21.68c-4.88-4.24-12.16-4.24-17.04,0l-25.16,21.68  h-49.88v43.08L82,174.83v112c0,3.04,1.08,5.8,2.8,8.04l2.04,2.08l0.16,0.12l85.986,85.986C179.242,383.671,185.582,384,192,384  c97.953,0,178.714-73.37,190.471-168.139L275.56,108.95H225.68z"/>
<g>
	<polygon style="fill:#F6C358;" points="192,235.6 301.94,174.819 82.06,174.819  "/>
	<path style="fill:#F6C358;" d="M183.466,87.269L82,174.819h0.06H301.94H302l-101.466-87.55   C195.632,83.038,188.369,83.038,183.466,87.269z"/>
</g>
<rect x="108.44" y="108.96" style="fill:#FFFFFF;" width="167.148" height="136.68"/>
<rect x="108.44" y="108.96" style="fill:#E56353;" width="167.148" height="10.744"/>
<g>
	<rect x="121.32" y="141.36" style="fill:#EBF0F3;" width="141.32" height="4"/>
	<rect x="121.32" y="161.68" style="fill:#EBF0F3;" width="141.32" height="4"/>
	<rect x="121.32" y="182.04" style="fill:#EBF0F3;" width="141.32" height="4"/>
	<rect x="121.32" y="202.36" style="fill:#EBF0F3;" width="141.32" height="4"/>
	<rect x="121.32" y="222.68" style="fill:#EBF0F3;" width="141.32" height="4"/>
</g>
<g>
	<path style="fill:#FCD462;" d="M82.06,174.819H82V286.84c0,3.038,1.079,5.797,2.818,8.016L192,235.6L82.06,174.819z"/>
	<path style="fill:#FCD462;" d="M302,174.819h-0.06L192,235.6l107.183,59.256c1.738-2.219,2.817-4.978,2.817-8.016V174.819z"/>
</g>
<path style="fill:#F6C358;" d="M84.818,294.856c2.392,3.052,6.068,5.049,10.246,5.049h193.872c4.178,0,7.855-1.997,10.246-5.049  L192,235.6L84.818,294.856z"/>
<polygon style="fill:#FCD462;" points="82.06,174.819 82,174.819 82,275.882 192,235.6 "/>
<path style="fill:#DC8744;" d="M82,275.882v10.958c0,3.038,1.079,5.797,2.818,8.016L192,235.6L82,275.882z"/>
<g>
</g>
<g>
</g>
<g>
</g>
<g>
</g>
<g>
</g>
<g>
</g>
<g>
</g>
<g>
</g>
<g>
</g>
<g>
</g>
<g>
</g>
<g>
</g>
<g>
</g>
<g>
</g>
<g>
</g>
</svg>
