<?xml version="1.0" encoding="iso-8859-1"?>
<!-- Generator: Adobe Illustrator 19.0.0, SVG Export Plug-In . SVG Version: 6.00 Build 0)  -->
<svg xmlns="http://www.w3.org/2000/svg" xmlns:xlink="http://www.w3.org/1999/xlink" version="1.1" id="Capa_1" x="0px" y="0px" viewBox="0 0 384 384" style="enable-background:new 0 0 384 384;" xml:space="preserve">
<circle style="fill:#45B39C;" cx="192" cy="192" r="192"/>
<path style="opacity:0.1;enable-background:new    ;" d="M300.692,83.959C299.709,82.787,298.289,82,296.64,82H87.36  C84.4,82,82,84.4,82,87.36v209.32c0,1.426,0.586,2.717,1.517,3.676l-0.03,0.011L165.22,382.1c8.756,1.222,17.688,1.9,26.78,1.9  c106.039,0,192-85.961,192-192c0-9.062-0.674-17.962-1.888-26.69l-81.389-81.389L300.692,83.959z"/>
<path style="fill:#3A556A;" d="M296.657,82.004H87.35c-2.953,0-5.347,2.394-5.347,5.346v31.274h220V87.35  C302.003,84.397,299.609,82.004,296.657,82.004z"/>
<rect x="90.44" y="94.276" style="fill:#EBF0F3;" width="137.828" height="12.08"/>
<circle style="fill:#FCD462;" cx="245.52" cy="100.32" r="6.04"/>
<circle style="fill:#44C4A1;" cx="267.08" cy="100.32" r="6.04"/>
<circle style="fill:#E56353;" cx="288.6" cy="100.32" r="6.04"/>
<path style="fill:#FFFFFF;" d="M301.997,118.636v178.04c0,2.92-2.4,5.32-5.32,5.32H87.356c-2.96,0-5.359-2.4-5.359-5.32v-178.04  H301.997z"/>
<g>
	<path style="fill:#2F4859;" d="M234.003,194.696h-9.249c-0.922,0-1.67,0.748-1.67,1.67v19.012h12.589v-19.012   C235.673,195.444,234.926,194.696,234.003,194.696z"/>
	<path style="fill:#2F4859;" d="M159.24,194.696h-9.249c-0.922,0-1.67,0.748-1.67,1.67v19.012h12.589v-19.012   C160.91,195.444,160.162,194.696,159.24,194.696z"/>
	<polygon style="fill:#2F4859;" points="201.774,221.708 250.87,234.201 250.87,230.201 202.112,217.794  "/>
	<polygon style="fill:#2F4859;" points="133.125,234.201 182.219,221.708 181.881,217.794 133.125,230.201  "/>
</g>
<g>
	<polygon style="fill:#3A556A;" points="202.112,217.794 250.87,230.201 250.87,223.417 204.916,185.314  "/>
	<polygon style="fill:#3A556A;" points="133.125,223.417 133.125,230.201 181.881,217.794 179.078,185.315  "/>
	<path style="fill:#3A556A;" d="M197.274,270.506l18.738,6.246v-4.399l-17.258-15.671l-1.06,12.278   C197.652,269.513,197.46,270.01,197.274,270.506z"/>
	<path style="fill:#3A556A;" d="M185.239,256.683l-17.257,15.67v4.399l18.738-6.246c-0.187-0.496-0.379-0.992-0.421-1.546   L185.239,256.683z"/>
</g>
<path style="fill:#64798A;" d="M204.916,185.314l1.222-14.162c0.634-8.238-3.633-27.271-14.142-27.271  c-10.389,0-14.775,19.033-14.142,27.271l1.223,14.163l3.142,36.394l3.02,34.975l1.06,12.277c0.042,0.553,0.234,1.05,0.421,1.546  c0.819,2.174,2.845,3.731,5.276,3.731c2.432,0,4.458-1.558,5.278-3.732c0.186-0.496,0.378-0.992,0.421-1.545l1.06-12.278  l3.019-34.974L204.916,185.314z"/>
<path style="fill:#27A2DB;" d="M181.206,162.275c0.952,2.026,1.425,3.04,2.381,5.066c6.349-3.502,10.478-3.502,16.82,0  c0.955-2.026,1.428-3.04,2.381-5.066C194.65,157.782,189.341,157.782,181.206,162.275z"/>
<rect x="190.852" y="253.6" style="fill:#2F4859;" width="2.288" height="16.392"/>
<g>
</g>
<g>
</g>
<g>
</g>
<g>
</g>
<g>
</g>
<g>
</g>
<g>
</g>
<g>
</g>
<g>
</g>
<g>
</g>
<g>
</g>
<g>
</g>
<g>
</g>
<g>
</g>
<g>
</g>
</svg>
