<?xml version="1.0" encoding="iso-8859-1"?>
<!-- Generator: Adobe Illustrator 19.0.0, SVG Export Plug-In . SVG Version: 6.00 Build 0)  -->
<svg xmlns="http://www.w3.org/2000/svg" xmlns:xlink="http://www.w3.org/1999/xlink" version="1.1" id="Capa_1" x="0px" y="0px" viewBox="0 0 384 384" style="enable-background:new 0 0 384 384;" xml:space="preserve">
<circle style="fill:#EFC84A;" cx="192" cy="192" r="192"/>
<path style="opacity:0.1;enable-background:new    ;" d="M295.6,82.011v4.801l87.561,87.56c-0.392-4.303-0.912-8.566-1.582-12.781  L302,82.011H295.6z"/>
<path style="opacity:0.1;enable-background:new    ;" d="M268.88,82.011h-8.92v4.801l123.174,123.174  c0.398-4.286,0.628-8.618,0.74-12.98L302,115.132L268.88,82.011z"/>
<path style="opacity:0.1;enable-background:new    ;" d="M302,132.93h-0.04l-50.92-50.92h-8.88v4.801l36.6,36.6  c-0.48-0.16-1-0.24-1.52-0.24h-2.84l-41.16-41.16h-6.4v6.4l34.76,34.76h-4.08l-25.88-25.88h-4.8v8.92l16.96,16.96h-4.12l-8.04-8.039  h-4.8v8.039h-5.24l-12.88-12.88h-0.44l-14.16-14.159h-0.48l-14.12-14.121h-14.6v4.36l36.8,36.8h-11.04l-41.16-41.16h-14.6v4.36  l9.76,9.76h-11.04l-14.12-14.121h-14.6v4.36l23.92,23.92h-3.96L96.6,82.011H82v4.36l9.76,9.76H82v4.4l9.76,9.76H82v4.36l19.04,19.04  v12.48H84.8c-1.56,0-2.8,1.28-2.8,2.801v29.279c0,0.658,0.284,1.224,0.67,1.703l-0.03,0.018l0.6,0.6l17.8,17.76v29.08  c0,1.56,0.64,2.96,1.64,4l3.6,3.6c-2.96,0.121-5.68,1.24-6.12,2.6l-18.04,53.92c-0.08,0.2-0.08,0.399-0.08,0.6H82v6.799  c0,0.721,0.44,1.36,1.2,1.881l81.182,81.182c9.022,1.3,18.236,2.006,27.618,2.006c98.693,0,179.953-74.476,190.744-170.284  L302,132.972V132.93z"/>
<path style="opacity:0.1;enable-background:new    ;" d="M286.68,82.011h-8.88v4.801l106.175,106.174  c0.002-0.33,0.025-0.654,0.025-0.985c0-4.444-0.206-8.837-0.503-13.206L302,97.331L286.68,82.011z"/>
<g>
	<polygon style="fill:#EBF0F3;" points="302,157.166 295.601,157.166 295.601,152.365 297.203,152.365 297.203,150.766 302,150.766     "/>
	<path style="fill:#EBF0F3;" d="M286.691,157.166h-8.91v-4.801h8.91V157.166z M268.87,157.166h-8.906v-4.801h8.906V157.166z    M251.054,157.166h-8.91v-4.801h8.91V157.166z"/>
	<polygon style="fill:#EBF0F3;" points="233.234,157.166 226.836,157.166 226.836,150.766 231.632,150.766 231.632,152.365    233.234,152.365  "/>
	<path style="fill:#EBF0F3;" d="M231.632,141.858h-4.797v-8.91h4.797V141.858z M231.632,124.039h-4.797v-8.91h4.797V124.039z    M231.632,106.219h-4.797V97.31h4.797V106.219z"/>
	<polygon style="fill:#EBF0F3;" points="231.632,88.4 226.836,88.4 226.836,82 233.234,82 233.234,86.801 231.632,86.801  "/>
	<path style="fill:#EBF0F3;" d="M286.691,86.801h-8.91V82h8.91V86.801z M268.87,86.801h-8.906V82h8.906V86.801z M251.054,86.801   h-8.91V82h8.91V86.801z"/>
	<polygon style="fill:#EBF0F3;" points="302,88.4 297.203,88.4 297.203,86.801 295.601,86.801 295.601,82 302,82  "/>
	<path style="fill:#EBF0F3;" d="M302,141.856h-4.797v-8.908H302V141.856z M302,124.037h-4.797v-8.91H302V124.037z M302,106.219   h-4.797v-8.91H302V106.219z"/>
</g>
<path style="fill:#E1E6E9;" d="M302,292.45l-2.053-0.042l-16.119-48.147c-0.482-1.441-3.436-2.598-6.602-2.598H106.777  c-3.166,0-6.121,1.157-6.604,2.598l-16.047,47.931L82,292.15v6.765h0.01c0.033,1.75,2.424,3.086,5.842,3.086h208.301  c3.416,0,5.806-1.336,5.84-3.086H302V292.45z"/>
<path style="fill:#64798A;" d="M277.226,123.162H106.777c-3.166,0-5.734,2.567-5.734,5.734v98.516c0,3.167,2.568,5.734,5.734,5.734  h170.449c3.166,0,5.732-2.567,5.732-5.734v-98.516C282.958,125.729,280.392,123.162,277.226,123.162z"/>
<path style="fill:#EBF0F3;" d="M277.226,234.996H106.777c-3.166,0-6.121,1.157-6.604,2.598l-18.058,53.938  c-0.699,2.088,1.866,3.8,5.735,3.8h208.302c3.87,0,6.433-1.712,5.734-3.8l-18.058-53.938  C283.346,236.154,280.392,234.996,277.226,234.996z"/>
<g>
	<path style="fill:#E1E6E9;" d="M273.61,239.818H110.392c-0.123,0-0.236,0.046-0.253,0.102l-7.727,26.11   c-0.02,0.067,0.073,0.122,0.208,0.122h178.762c0.135,0,0.228-0.054,0.208-0.122l-7.727-26.11   C273.846,239.863,273.733,239.818,273.61,239.818z"/>
	<path style="fill:#E1E6E9;" d="M223.321,269.466h-62.64c-2.211,0-4.108,0.91-4.239,2.039l-1.738,15.07   c-0.144,1.252,1.644,2.274,3.995,2.274h66.605c2.351,0,4.139-1.022,3.995-2.274l-1.739-15.07   C227.43,270.376,225.532,269.466,223.321,269.466z"/>
</g>
<path style="fill:#3A556A;" d="M264.455,230.013H119.546c-0.258,0-0.469,0.17-0.469,0.38v7.372c0,0.21,0.211,0.38,0.469,0.38  h144.908c0.258,0,0.468-0.17,0.468-0.38v-7.372C264.923,230.183,264.712,230.013,264.455,230.013z"/>
<circle style="fill:#2F4859;" cx="192" cy="128.32" r="2.368"/>
<circle style="fill:#3A556A;" cx="192" cy="128.32" r="1.088"/>
<rect x="111.596" y="133.72" style="fill:#EBF0F3;" width="160.8" height="88.88"/>
<rect x="111.596" y="219.08" style="fill:#E1E6E9;" width="160.8" height="3.52"/>
<circle style="fill:#FFFFFF;" cx="192" cy="178.16" r="27.624"/>
<g>
	<circle style="fill:#44C4A1;" cx="192" cy="164" r="10.332"/>
	<path style="fill:#44C4A1;" d="M192.001,201.066c8.15,0,15.293-4.32,19.314-10.776c-3.237-7.462-10.663-12.685-19.314-12.685   c-8.651,0-16.078,5.223-19.314,12.685C176.708,196.746,183.851,201.066,192.001,201.066z"/>
</g>
<rect x="101.04" y="150.2" style="fill:#3A556A;" width="10.552" height="34.868"/>
<path style="fill:#E1E6E9;" d="M137.903,185.048c1.544,0,2.796-1.251,2.796-2.795v-29.277c0-1.544-1.252-2.795-2.796-2.795h-26.308  v34.867H137.903z"/>
<path style="fill:#FCD462;" d="M133.903,146.181H84.796c-1.544,0-2.796,1.251-2.796,2.795v29.277c0,1.544,1.252,2.795,2.796,2.795  h49.107c1.544,0,2.796-1.251,2.796-2.795v-29.277C136.699,147.432,135.447,146.181,133.903,146.181z"/>
<g>
	<line style="fill:none;stroke:#DC8744;stroke-miterlimit:10;" x1="87.74" y1="153.68" x2="130.956" y2="153.68"/>
	<line style="fill:none;stroke:#DC8744;stroke-miterlimit:10;" x1="87.74" y1="163.616" x2="130.956" y2="163.616"/>
	<line style="fill:none;stroke:#DC8744;stroke-miterlimit:10;" x1="87.74" y1="173.56" x2="113.12" y2="173.56"/>
</g>
<g>
	<polygon style="fill:#64798A;" points="261.557,191.842 230.035,178.154 243.722,209.676 246.632,200.008 254.949,208.325    260.206,203.068 251.89,194.751  "/>
	<rect x="82" y="82" style="fill:#64798A;" width="14.6" height="4.372"/>
	<rect x="82" y="96.16" style="fill:#64798A;" width="14.6" height="4.372"/>
	<rect x="179.536" y="96.16" style="fill:#64798A;" width="14.6" height="4.372"/>
	<rect x="82" y="110.296" style="fill:#64798A;" width="14.6" height="4.372"/>
</g>
<rect x="160.56" y="110.296" style="fill:#E56353;" width="14.6" height="4.372"/>
<rect x="194.12" y="110.296" style="fill:#27A2DB;" width="14.6" height="4.372"/>
<rect x="104.92" y="82" style="fill:#E56353;" width="14.6" height="4.372"/>
<rect x="134.928" y="82" style="fill:#64798A;" width="14.6" height="4.372"/>
<g>
	<rect x="164.92" y="82" style="fill:#44C4A1;" width="14.6" height="4.372"/>
	<rect x="119.524" y="96.16" style="fill:#44C4A1;" width="38.212" height="4.372"/>
</g>
<rect x="104.92" y="110.296" style="fill:#64798A;" width="42.448" height="4.372"/>
<g>
</g>
<g>
</g>
<g>
</g>
<g>
</g>
<g>
</g>
<g>
</g>
<g>
</g>
<g>
</g>
<g>
</g>
<g>
</g>
<g>
</g>
<g>
</g>
<g>
</g>
<g>
</g>
<g>
</g>
</svg>
