<?xml version="1.0" encoding="iso-8859-1"?>
<!-- Generator: Adobe Illustrator 19.0.0, SVG Export Plug-In . SVG Version: 6.00 Build 0)  -->
<svg xmlns="http://www.w3.org/2000/svg" xmlns:xlink="http://www.w3.org/1999/xlink" version="1.1" id="Capa_1" x="0px" y="0px" viewBox="0 0 384 384" style="enable-background:new 0 0 384 384;" xml:space="preserve">
<circle style="fill:#45B39C;" cx="192" cy="192" r="192"/>
<path style="opacity:0.1;enable-background:new    ;" d="M296.64,81.997H87.36c-2.96,0-5.36,2.4-5.36,5.36v209.279  c0,1.36,0.52,2.601,1.36,3.561l0.4,0.399l81.51,81.51C174.01,383.324,182.924,384,192,384c106.039,0,192-85.962,192-192  c0-9.078-0.675-17.995-1.894-26.737L300.52,83.677C299.56,82.637,298.16,81.997,296.64,81.997z"/>
<path style="fill:#64798A;" d="M296.654,82H87.347C84.394,82,82,84.394,82,87.346v31.274h220V87.346  C302,84.394,299.606,82,296.654,82z"/>
<circle style="fill:#FCD462;" cx="245.52" cy="100.32" r="6.04"/>
<circle style="fill:#44C4A1;" cx="267.08" cy="100.32" r="6.04"/>
<circle style="fill:#E56353;" cx="288.6" cy="100.32" r="6.04"/>
<path style="fill:#FFFFFF;" d="M129.081,118.62c-1.126,0-2.126-0.718-2.487-1.784l-2.943-8.703  c-0.361-1.067-1.361-1.784-2.487-1.784H93.969c-1.126,0-2.126,0.718-2.487,1.784l-2.942,8.703c-0.361,1.066-1.362,1.784-2.488,1.784  H82v178.034c0,2.952,2.394,5.346,5.346,5.346h209.309c2.952,0,5.346-2.393,5.346-5.346V118.62H129.081z"/>
<g>
	<path style="fill:#EBF0F3;" d="M130.068,114.62h37.273l-2.194-6.488c-0.361-1.067-1.361-1.784-2.487-1.784h-35.486   c0.077,0.177,0.202,0.321,0.265,0.506L130.068,114.62z"/>
	<circle style="fill:#EBF0F3;" cx="192" cy="169.4" r="36.36"/>
</g>
<g>
	<circle style="fill:#64798A;" cx="192" cy="150.32" r="13.772"/>
	<path style="fill:#64798A;" d="M192,199.723c10.864,0,20.385-5.758,25.746-14.364c-4.316-9.947-14.214-16.91-25.746-16.91   c-11.532,0-21.432,6.963-25.745,16.909C171.615,193.965,181.136,199.723,192,199.723z"/>
</g>
<g>
	<rect x="137.6" y="223.04" style="fill:#EBF0F3;" width="108.84" height="17.016"/>
	<rect x="137.6" y="255.628" style="fill:#EBF0F3;" width="108.84" height="17.016"/>
</g>
<g>
</g>
<g>
</g>
<g>
</g>
<g>
</g>
<g>
</g>
<g>
</g>
<g>
</g>
<g>
</g>
<g>
</g>
<g>
</g>
<g>
</g>
<g>
</g>
<g>
</g>
<g>
</g>
<g>
</g>
</svg>
