<?xml version="1.0" encoding="iso-8859-1"?>
<!-- Generator: Adobe Illustrator 19.0.0, SVG Export Plug-In . SVG Version: 6.00 Build 0)  -->
<svg xmlns="http://www.w3.org/2000/svg" xmlns:xlink="http://www.w3.org/1999/xlink" version="1.1" id="Capa_1" x="0px" y="0px" viewBox="0 0 384 384" style="enable-background:new 0 0 384 384;" xml:space="preserve">
<circle style="fill:#EFC84A;" cx="192" cy="192" r="192"/>
<path style="opacity:0.1;enable-background:new    ;" d="M299.951,83.21L299.951,83.21c-0.926-0.744-2.083-1.21-3.351-1.21H87.4  c-2.96,0-5.4,2.44-5.4,5.4v170.28c0,1.275,0.459,2.427,1.194,3.347l0,0c0.252,0.316,0.537,0.6,0.852,0.852l121.586,121.586  C305.302,376.466,384,293.45,384,192c0-9.038-0.671-17.914-1.879-26.62L300.79,84.049C300.541,83.739,300.261,83.459,299.951,83.21z  "/>
<path style="fill:#EBF0F3;" d="M296.586,82H87.414C84.424,82,82,84.424,82,87.414v170.26c0,2.99,2.424,5.414,5.414,5.414h209.172  c2.99,0,5.414-2.424,5.414-5.414V87.414C302,84.424,299.576,82,296.586,82z"/>
<rect x="94" y="94" style="fill:#64798A;" width="196" height="135.44"/>
<rect x="106" y="147.932" style="fill:#44C4A1;" width="16.12" height="63.152"/>
<rect x="128.44" y="132.44" style="fill:#FCD462;" width="16.12" height="78.656"/>
<rect x="150.888" y="107.808" style="fill:#27A2DB;" width="16.12" height="103.276"/>
<rect x="173.32" y="145.2" style="fill:#E56353;" width="16.12" height="65.872"/>
<rect x="106" y="211.084" style="fill:#3EA69B;" width="16.12" height="4.548"/>
<rect x="128.44" y="211.084" style="fill:#F6C358;" width="16.12" height="4.548"/>
<rect x="150.888" y="211.084" style="fill:#2D93BA;" width="16.12" height="4.548"/>
<rect x="173.32" y="211.084" style="fill:#D15241;" width="16.12" height="4.548"/>
<g>
	<rect x="212.72" y="111.28" style="fill:#E1E6E9;" width="65.272" height="3.86"/>
	<rect x="212.72" y="121.68" style="fill:#E1E6E9;" width="65.272" height="3.86"/>
	<rect x="212.72" y="132.04" style="fill:#E1E6E9;" width="65.272" height="3.86"/>
	<rect x="231.268" y="163.288" style="fill:#E1E6E9;" width="46.728" height="3.86"/>
	<rect x="231.268" y="178.4" style="fill:#E1E6E9;" width="46.728" height="3.86"/>
	<rect x="231.268" y="193.56" style="fill:#E1E6E9;" width="46.728" height="3.86"/>
	<rect x="231.268" y="208.68" style="fill:#E1E6E9;" width="46.728" height="3.86"/>
	<rect x="212.72" y="142.44" style="fill:#E1E6E9;" width="38.748" height="3.86"/>
</g>
<rect x="212.72" y="160.2" style="fill:#44C4A1;" width="10.032" height="10.032"/>
<rect x="212.72" y="175.332" style="fill:#F6C358;" width="10.032" height="10.032"/>
<rect x="212.72" y="190.48" style="fill:#27A2DB;" width="10.032" height="10.032"/>
<rect x="212.72" y="205.6" style="fill:#E56353;" width="10.032" height="10.032"/>
<circle style="fill:#64798A;" cx="192" cy="245.64" r="8.4"/>
<rect x="149.76" y="263.08" style="fill:#3A556A;" width="84.48" height="25.588"/>
<polygon style="fill:#64798A;" points="234.238,288.676 149.762,288.676 234.238,263.088 "/>
<path style="fill:#3A556A;" d="M251.48,288.576H132.519c-2.318,0-4.196,1.879-4.196,4.196V302h127.354v-9.228  C255.677,290.455,253.798,288.576,251.48,288.576z"/>
<g>
</g>
<g>
</g>
<g>
</g>
<g>
</g>
<g>
</g>
<g>
</g>
<g>
</g>
<g>
</g>
<g>
</g>
<g>
</g>
<g>
</g>
<g>
</g>
<g>
</g>
<g>
</g>
<g>
</g>
</svg>
