<?xml version="1.0" encoding="iso-8859-1"?>
<!-- Generator: Adobe Illustrator 19.0.0, SVG Export Plug-In . SVG Version: 6.00 Build 0)  -->
<svg xmlns="http://www.w3.org/2000/svg" xmlns:xlink="http://www.w3.org/1999/xlink" version="1.1" id="Capa_1" x="0px" y="0px" viewBox="0 0 384 384" style="enable-background:new 0 0 384 384;" xml:space="preserve">
<circle style="fill:#334D5C;" cx="192" cy="192" r="192"/>
<path style="opacity:0.1;enable-background:new    ;" d="M383.821,199.072L266.76,82.011H117.24v56.52H97.6  c-2.88,0-5.24,2.32-5.24,5.2v139.24H82v14.44l84.903,84.903C175.122,383.388,183.488,384,192,384  C295.667,384,380.094,301.829,383.821,199.072z"/>
<path style="fill:#64798A;" d="M291.62,143.747v139.252H92.38V143.747c0-2.89,2.32-5.218,5.2-5.218h188.84  C289.3,138.528,291.62,140.856,291.62,143.747z"/>
<rect x="104.36" y="150.572" style="fill:#EBF0F3;" width="175.244" height="120.4"/>
<rect x="111.244" y="138.528" style="fill:#3A556A;" width="161.52" height="12.04"/>
<rect x="111.244" y="150.572" style="fill:#E1E6E9;" width="161.52" height="57.816"/>
<rect x="117.24" y="82" style="fill:#FFFFFF;" width="149.52" height="120.4"/>
<rect x="82" y="283" style="fill:#EBF0F3;" width="220" height="14.42"/>
<g>
	<polygon style="fill:#D5D6DB;" points="301.679,297.426 82.321,297.426 97.311,302 286.689,302  "/>
	<rect x="176.64" y="288.52" style="fill:#D5D6DB;" width="30.76" height="3.376"/>
</g>
<path style="fill:#E56353;" d="M249.613,93.018c-4.722,0-8.566,3.844-8.566,8.566c0,1.161,0.237,2.266,0.657,3.277l-30.542,22.209  c-1.496-1.276-3.41-2.076-5.525-2.076c-3.001,0-5.637,1.558-7.167,3.902l-25.888-9.193c0.031-0.296,0.09-0.584,0.09-0.888  c0-4.722-3.844-8.566-8.566-8.566c-4.723,0-8.566,3.844-8.566,8.566c0,1.785,0.552,3.442,1.49,4.816l-18.552,20.436  c-1.222-0.671-2.602-1.087-4.091-1.087c-4.723,0-8.566,3.844-8.566,8.566c0,4.722,3.844,8.566,8.566,8.566  c4.722,0,8.566-3.844,8.566-8.566c0-1.786-0.553-3.443-1.491-4.817l18.551-20.436c1.222,0.672,2.603,1.088,4.093,1.088  c3.001,0,5.636-1.559,7.167-3.903l25.887,9.193c-0.031,0.296-0.09,0.585-0.09,0.89c0,4.722,3.844,8.566,8.566,8.566  c4.722,0,8.566-3.844,8.566-8.566c0-1.162-0.238-2.268-0.658-3.279l30.541-22.208c1.497,1.277,3.411,2.077,5.527,2.077  c4.723,0,8.566-3.844,8.566-8.566C258.179,96.862,254.336,93.018,249.613,93.018z M134.386,156.112c-2.52,0-4.566-2.047-4.566-4.566  c0-2.52,2.047-4.566,4.566-4.566c2.52,0,4.566,2.047,4.566,4.566C138.953,154.064,136.906,156.112,134.386,156.112z   M164.105,123.381c-2.52,0-4.566-2.047-4.566-4.566c0-2.519,2.047-4.566,4.566-4.566c2.519,0,4.566,2.047,4.566,4.566  C168.672,121.334,166.624,123.381,164.105,123.381z M205.636,138.127c-2.52,0-4.566-2.047-4.566-4.566  c0-2.52,2.047-4.566,4.566-4.566c2.52,0,4.566,2.047,4.566,4.566C210.203,136.08,208.156,138.127,205.636,138.127z M249.613,106.15  c-2.52,0-4.566-2.047-4.566-4.566c0-2.518,2.047-4.566,4.566-4.566c2.52,0,4.566,2.049,4.566,4.566  C254.179,104.104,252.132,106.15,249.613,106.15z"/>
<rect x="128.8" y="189.92" style="fill:#2D93BA;" width="10.648" height="4.496"/>
<rect x="128.8" y="165.08" style="fill:#27A2DB;" width="10.648" height="24.844"/>
<rect x="159.34" y="140" style="fill:#FCD462;" width="10.648" height="49.928"/>
<rect x="159.34" y="189.92" style="fill:#F6C358;" width="10.648" height="4.496"/>
<rect x="201" y="148.04" style="fill:#64798A;" width="10.648" height="41.88"/>
<rect x="201" y="189.92" style="fill:#3A556A;" width="10.648" height="4.496"/>
<rect x="242.64" y="189.92" style="fill:#3EA69B;" width="10.648" height="4.496"/>
<rect x="242.64" y="119.66" style="fill:#44C4A1;" width="10.648" height="70.276"/>
<rect x="113.52" y="221.16" style="fill:#FCD462;" width="40.788" height="35.368"/>
<rect x="171.604" y="221.16" style="fill:#44C4A1;" width="40.788" height="35.368"/>
<rect x="229.68" y="221.16" style="fill:#E56353;" width="40.788" height="35.368"/>
<rect x="113.52" y="252.4" style="fill:#F6C358;" width="40.788" height="4.132"/>
<rect x="171.604" y="252.4" style="fill:#3EA69B;" width="40.788" height="4.132"/>
<rect x="229.68" y="252.4" style="fill:#D15241;" width="40.788" height="4.132"/>
<g>
</g>
<g>
</g>
<g>
</g>
<g>
</g>
<g>
</g>
<g>
</g>
<g>
</g>
<g>
</g>
<g>
</g>
<g>
</g>
<g>
</g>
<g>
</g>
<g>
</g>
<g>
</g>
<g>
</g>
</svg>
