<?xml version="1.0" encoding="iso-8859-1"?>
<!-- Generator: Adobe Illustrator 19.0.0, SVG Export Plug-In . SVG Version: 6.00 Build 0)  -->
<svg xmlns="http://www.w3.org/2000/svg" xmlns:xlink="http://www.w3.org/1999/xlink" version="1.1" id="Capa_1" x="0px" y="0px" viewBox="0 0 384 384" style="enable-background:new 0 0 384 384;" xml:space="preserve">
<circle style="fill:#E05B49;" cx="192" cy="192" r="192"/>
<path style="opacity:0.1;enable-background:new    ;" d="M384,192c0-4.827-0.238-9.596-0.588-14.334l-82.745-82.745  c-0.422-0.578-0.929-1.085-1.507-1.507l0,0c-1.136-0.829-2.524-1.333-4.039-1.333H88.88c-3.8,0-6.88,3.08-6.88,6.88v148.68  c0,1.895,0.767,3.61,2.006,4.855l0.001,0c0.006,0.006,0.012,0.012,0.018,0.018l19.175,19.175v14.272  c0,1.214,0.366,2.265,0.928,3.155l-0.024,0.007l0.054,0.054c0.441,0.681,1.014,1.231,1.672,1.672l92.98,92.98  C301.689,380.234,384,295.755,384,192z"/>
<path style="fill:#2D93BA;" d="M295.125,98.954H88.875c-3.797,0-6.875,3.078-6.875,6.875v141.798c0,3.797,3.078,6.875,6.875,6.875  h14.33v31.442c0,5.323,6.435,7.989,10.199,4.225l35.667-35.667h146.054c3.797,0,6.875-3.078,6.875-6.875V105.83  C302,102.033,298.922,98.954,295.125,98.954z"/>
<path style="fill:#27A2DB;" d="M295.125,92.068H88.875c-3.797,0-6.875,3.078-6.875,6.876v141.798c0,3.797,3.078,6.875,6.875,6.875  h14.33v31.442c0,5.323,6.435,7.989,10.199,4.225l35.667-35.666h146.054c3.797,0,6.875-3.078,6.875-6.875V98.944  C302,95.146,298.922,92.068,295.125,92.068z"/>
<circle style="fill:#EBF0F3;" cx="126.516" cy="170.36" r="21.688"/>
<path style="fill:#E1E6E9;" d="M139.117,152.718c1.926,15.73-6.978,33.006-26.689,34.1c3.791,3.246,8.705,5.217,14.087,5.217  c11.978,0,21.688-9.711,21.688-21.688C148.202,163.073,144.61,156.652,139.117,152.718z"/>
<circle style="fill:#EBF0F3;" cx="192" cy="170.36" r="21.688"/>
<path style="fill:#E1E6E9;" d="M204.602,152.718c1.927,15.73-6.978,33.006-26.689,34.1c3.791,3.246,8.705,5.217,14.087,5.217  c11.978,0,21.688-9.711,21.688-21.688C213.688,163.073,210.096,156.652,204.602,152.718z"/>
<circle style="fill:#EBF0F3;" cx="257.48" cy="170.36" r="21.688"/>
<path style="fill:#E1E6E9;" d="M270.088,152.718c1.927,15.73-6.978,33.006-26.689,34.1c3.791,3.246,8.705,5.217,14.087,5.217  c11.978,0,21.688-9.711,21.688-21.688C279.174,163.073,275.582,156.652,270.088,152.718z"/>
<g>
</g>
<g>
</g>
<g>
</g>
<g>
</g>
<g>
</g>
<g>
</g>
<g>
</g>
<g>
</g>
<g>
</g>
<g>
</g>
<g>
</g>
<g>
</g>
<g>
</g>
<g>
</g>
<g>
</g>
</svg>
