<?xml version="1.0" encoding="iso-8859-1"?>
<!-- Generator: Adobe Illustrator 19.0.0, SVG Export Plug-In . SVG Version: 6.00 Build 0)  -->
<svg xmlns="http://www.w3.org/2000/svg" xmlns:xlink="http://www.w3.org/1999/xlink" version="1.1" id="Capa_1" x="0px" y="0px" viewBox="0 0 384 384" style="enable-background:new 0 0 384 384;" xml:space="preserve">
<circle style="fill:#EA8953;" cx="192" cy="192" r="192"/>
<path style="opacity:0.1;enable-background:new    ;" d="M298.997,98.798c-2.055-2.228-4.972-3.649-8.237-3.649h-2.632  l-16.022-16.022c-0.105-0.113-0.212-0.22-0.325-0.326l-0.076-0.075l-0.003,0.011c-1.117-1.004-2.584-1.628-4.223-1.628  c-3.48,0-6.32,2.8-6.32,6.32v11.72h-2.115l-15.932-15.932l-0.002,0.012c-1.153-1.295-2.818-2.12-4.71-2.12  c-3.48,0-6.28,2.8-6.28,6.32v11.72h-65.885l-16.08-16.08l-0.002,0.012c-1.143-1.213-2.752-1.973-4.554-1.973  c-3.52,0-6.32,2.8-6.32,6.32v11.72h-2.108l-16.08-16.08l-0.001,0.009c-1.153-1.211-2.772-1.969-4.572-1.969  c-3.52,0-6.32,2.8-6.32,6.32v11.72H93.24c-6.2,0-11.24,5.04-11.24,11.24v189.28c0,2.967,1.176,5.649,3.059,7.66l-0.008,0.002  l0.06,0.06c0.132,0.139,0.267,0.274,0.406,0.406l78.098,78.098C172.88,383.27,182.354,384,192,384c106.039,0,192-85.961,192-192  c0-2.832-0.092-5.642-0.213-8.443l-84.774-84.774L298.997,98.798z"/>
<path style="fill:#EBF0F3;" d="M82,295.674c0,6.2,5.026,11.227,11.226,11.227h197.547c6.2,0,11.227-5.026,11.227-11.227V145.786H82  V295.674z"/>
<path style="fill:#FFFFFF;" d="M82,287.674c0,6.2,5.026,11.227,11.226,11.227h197.547c6.2,0,11.227-5.026,11.227-11.227V145.786H82  V287.674z"/>
<rect x="82" y="137.8" style="fill:#EBF0F3;" width="220" height="8"/>
<path style="fill:#64798A;" d="M290.773,95.158H93.227c-6.2,0-11.227,5.026-11.227,11.226v31.402h220v-31.402  C302,100.185,296.974,95.158,290.773,95.158z"/>
<circle style="fill:#3A556A;" cx="116.52" cy="107.284" r="7.352"/>
<path style="fill:#EBF0F3;" d="M110.192,83.416v22.929c0,3.488,2.828,6.316,6.317,6.316V77.099  C113.02,77.099,110.192,79.928,110.192,83.416z"/>
<path style="fill:#E1E6E9;" d="M116.508,77.099v35.562c3.489,0,6.317-2.828,6.317-6.316V83.416  C122.826,79.928,119.997,77.099,116.508,77.099z"/>
<circle style="fill:#3A556A;" cx="145.6" cy="107.284" r="7.352"/>
<path style="fill:#EBF0F3;" d="M139.265,83.416v22.929c0,3.488,2.828,6.316,6.317,6.316V77.099  C142.093,77.099,139.265,79.928,139.265,83.416z"/>
<path style="fill:#E1E6E9;" d="M145.582,77.099v35.562c3.489,0,6.317-2.828,6.317-6.316V83.416  C151.899,79.928,149.071,77.099,145.582,77.099z"/>
<circle style="fill:#3A556A;" cx="238.4" cy="107.284" r="7.352"/>
<path style="fill:#EBF0F3;" d="M232.101,83.416v22.929c0,3.488,2.828,6.316,6.317,6.316V77.099  C234.93,77.099,232.101,79.928,232.101,83.416z"/>
<path style="fill:#E1E6E9;" d="M238.418,77.099v35.562c3.489,0,6.317-2.828,6.317-6.316V83.416  C244.735,79.928,241.907,77.099,238.418,77.099z"/>
<circle style="fill:#3A556A;" cx="267.48" cy="107.284" r="7.352"/>
<path style="fill:#EBF0F3;" d="M261.174,83.416v22.929c0,3.488,2.828,6.316,6.317,6.316V77.099  C264.003,77.099,261.174,79.928,261.174,83.416z"/>
<path style="fill:#E1E6E9;" d="M267.492,77.099v35.562c3.489,0,6.317-2.828,6.317-6.316V83.416  C273.808,79.928,270.98,77.099,267.492,77.099z"/>
<g>
	<rect x="101.56" y="168.12" style="fill:#EBF0F3;" width="180.84" height="7.452"/>
	<rect x="101.56" y="193.36" style="fill:#EBF0F3;" width="180.84" height="7.452"/>
	<rect x="101.56" y="218.6" style="fill:#EBF0F3;" width="180.84" height="7.452"/>
	<rect x="101.56" y="243.86" style="fill:#EBF0F3;" width="180.84" height="7.452"/>
	<rect x="101.56" y="269.12" style="fill:#EBF0F3;" width="105" height="7.452"/>
</g>
<g>
</g>
<g>
</g>
<g>
</g>
<g>
</g>
<g>
</g>
<g>
</g>
<g>
</g>
<g>
</g>
<g>
</g>
<g>
</g>
<g>
</g>
<g>
</g>
<g>
</g>
<g>
</g>
<g>
</g>
</svg>
