<?xml version="1.0" encoding="iso-8859-1"?>
<!-- Generator: Adobe Illustrator 19.0.0, SVG Export Plug-In . SVG Version: 6.00 Build 0)  -->
<svg xmlns="http://www.w3.org/2000/svg" xmlns:xlink="http://www.w3.org/1999/xlink" version="1.1" id="Capa_1" x="0px" y="0px" viewBox="0 0 384 384" style="enable-background:new 0 0 384 384;" xml:space="preserve">
<circle style="fill:#45B39C;" cx="192" cy="192" r="192"/>
<path style="opacity:0.1;enable-background:new    ;" d="M296.76,130.07l-6.28-4.96l-4.28-3.4c-1.08-0.84-2.68-0.68-3.52,0.44  l-7.04,8.84l-45.36-45.36l-0.32-0.36c-1.8-2-4.44-3.28-7.36-3.28H97.64C89,81.99,82,88.99,82,97.63v188.72  c0,4.88,2.24,9.28,5.76,12.12l84.529,84.529C178.77,383.66,185.345,384,192,384c98.234,0,179.183-73.79,190.575-168.956  l-81.535-81.535L296.76,130.07z"/>
<path style="fill:#DC8744;" d="M222.588,82H97.648C89.006,82,82,89.006,82,97.649v188.704C82,294.994,89.006,302,97.648,302V113.297  l0,0h134.93V91.991C232.578,86.473,228.105,82,222.588,82z"/>
<path style="fill:#FFFFFF;" d="M215.335,87.47H100.354c-7.132,0-12.914,5.782-12.914,12.914c0,7.132,5.782,12.913,12.914,12.913  h123.226V95.714C223.579,91.161,219.888,87.47,215.335,87.47z"/>
<rect x="97.64" y="113.28" style="fill:#F6C358;" width="10.776" height="188.72"/>
<path style="fill:#FCD462;" d="M239.268,113.297H108.423V302h130.844c5.518,0,9.99-4.472,9.99-9.99V123.287  C249.258,117.77,244.785,113.297,239.268,113.297z"/>
<g>
	<rect x="141.4" y="252.08" style="fill:#DC8744;" width="74.908" height="4.168"/>
	<rect x="141.4" y="269.24" style="fill:#DC8744;" width="74.908" height="4.168"/>
</g>
<rect x="231.032" y="124.964" transform="matrix(-0.7838 -0.621 0.621 -0.7838 302.0711 482.499)" style="fill:#E56353;" width="7.992" height="127.403"/>
<rect x="237.292" y="129.969" transform="matrix(-0.7838 -0.621 0.621 -0.7838 310.1309 495.3151)" style="fill:#D15241;" width="7.992" height="127.404"/>
<rect x="243.567" y="134.893" transform="matrix(-0.7838 -0.621 0.621 -0.7838 318.2779 507.9927)" style="fill:#CE412D;" width="7.992" height="127.404"/>
<rect x="269.753" y="141.207" transform="matrix(-0.7838 -0.621 0.621 -0.7838 414.0021 429.3693)" style="fill:#44C4A1;" width="23.976" height="2.824"/>
<path style="fill:#64798A;" d="M286.194,121.722l4.294,3.402l-11.01,13.896l-6.264-4.963l9.449-11.926  C283.526,121.042,285.106,120.86,286.194,121.722z"/>
<rect x="279.245" y="130.551" transform="matrix(-0.621 0.7838 -0.7838 -0.621 572.4795 -7.7295)" style="fill:#3A556A;" width="17.728" height="7.992"/>
<path style="fill:#2F4859;" d="M296.753,130.087l4.294,3.402c1.088,0.862,1.271,2.443,0.409,3.531l-9.449,11.926l-6.264-4.963  L296.753,130.087z"/>
<path style="fill:#F6C358;" d="M211.132,251.021l-14.164,6.052c-0.164-1.686-0.976-3.306-2.408-4.442  c-1.432-1.135-3.195-1.554-4.874-1.328l2.653-15.173L211.132,251.021z"/>
<path style="fill:#64798A;" d="M194.56,252.632c1.433,1.135,2.245,2.756,2.408,4.442l-6.838,2.922  c-0.914,0.391-1.896-0.388-1.726-1.367l1.281-7.324C191.365,251.078,193.128,251.497,194.56,252.632z"/>
<g>
</g>
<g>
</g>
<g>
</g>
<g>
</g>
<g>
</g>
<g>
</g>
<g>
</g>
<g>
</g>
<g>
</g>
<g>
</g>
<g>
</g>
<g>
</g>
<g>
</g>
<g>
</g>
<g>
</g>
</svg>
