<?xml version="1.0" encoding="iso-8859-1"?>
<!-- Generator: Adobe Illustrator 19.0.0, SVG Export Plug-In . SVG Version: 6.00 Build 0)  -->
<svg xmlns="http://www.w3.org/2000/svg" xmlns:xlink="http://www.w3.org/1999/xlink" version="1.1" id="Capa_1" x="0px" y="0px" viewBox="0 0 384 384" style="enable-background:new 0 0 384 384;" xml:space="preserve">
<circle style="fill:#45B39C;" cx="192" cy="192" r="192"/>
<path style="opacity:0.1;enable-background:new    ;" d="M382.795,213.315L251.48,82H132.52l15.72,70.88  c0.32,1.52,1.12,2.8,2.2,3.76l7.24,7.24L147.4,196.4l12.6,20.44l-20.2-20.2h-28.6v28.56l12.36,12.36  c4.76,20.08,18.08,36.84,35.96,46.16h-37.44l-11.52-11.52H82v28.56l81.067,81.067C172.504,383.254,182.164,384,192,384  C290.83,384,372.186,309.317,382.795,213.315z"/>
<polygon style="fill:#F6C358;" points="224.603,158.478 159.397,158.478 157.738,163.721 226.262,163.721 "/>
<polygon style="fill:#FCD462;" points="226.262,163.721 157.738,163.721 147.397,196.4 192,268.744 236.603,196.4 "/>
<path style="fill:#3A556A;" d="M273.43,272.211v11.504h-48.932c21.428-11.188,36.361-33.051,37.8-58.5h10.488v-28.57h-28.57v28.57  h10.082c-1.77,27.747-21.704,50.559-48.012,56.751v-8.536h-28.57v8.536c-26.308-6.193-46.242-29.005-48.012-56.751h10.082v-28.57  h-28.57v28.57h10.488c1.439,25.449,16.372,47.312,37.8,58.5H110.57v-11.504H82v28.566h28.57v-9.062h67.144v10.281h28.57v-10.281  h67.144v9.062H302v-28.566H273.43z M252.215,217.215v-12.57h12.57v12.57H252.215z M119.215,217.215v-12.57h12.57v12.57H119.215z   M102.57,292.778H90v-12.566h12.57V292.778z M198.285,293.996h-12.57V281.43h12.57V293.996z M294,292.778h-12.57v-12.566H294  V292.778z"/>
<path style="fill:#E56353;" d="M132.51,82.004l15.716,70.894c0.722,3.261,3.614,5.581,6.954,5.581h73.639  c3.34,0,6.231-2.32,6.954-5.581l15.717-70.894H132.51z"/>
<polygon style="fill:#D15241;" points="155.886,150.48 219.79,143.384 241.522,90.004 228.116,150.48 "/>
<path style="fill:#DC8744;" d="M201.617,194.358c0-5.311-4.306-9.617-9.617-9.617c-5.311,0-9.617,4.306-9.617,9.617  c0,4.625,3.267,8.481,7.617,9.403v61.74l2,3.243l2-3.245v-61.737C198.35,202.84,201.617,198.983,201.617,194.358z"/>
<g>
</g>
<g>
</g>
<g>
</g>
<g>
</g>
<g>
</g>
<g>
</g>
<g>
</g>
<g>
</g>
<g>
</g>
<g>
</g>
<g>
</g>
<g>
</g>
<g>
</g>
<g>
</g>
<g>
</g>
</svg>
