<?xml version="1.0" encoding="iso-8859-1"?>
<!-- Generator: Adobe Illustrator 19.0.0, SVG Export Plug-In . SVG Version: 6.00 Build 0)  -->
<svg xmlns="http://www.w3.org/2000/svg" xmlns:xlink="http://www.w3.org/1999/xlink" version="1.1" id="Capa_1" x="0px" y="0px" viewBox="0 0 384 384" style="enable-background:new 0 0 384 384;" xml:space="preserve">
<circle style="fill:#EA8953;" cx="192" cy="192" r="192"/>
<path style="opacity:0.1;enable-background:new    ;" d="M117.301,117.301c-41.267,41.267-41.266,108.13,0,149.397l113.399,113.4  c74.988-15.348,134.05-74.41,149.397-149.398L266.699,117.301C225.432,76.034,158.568,76.034,117.301,117.301z"/>
<circle style="fill:#27A2DB;" cx="192" cy="192" r="105.636"/>
<path style="fill:#2D93BA;" d="M257.362,192.471l-57.097-52.037c-3.066-2.794-7.99-0.619-7.99,3.529v35.846l-43.203-39.374  c-3.066-2.794-7.991-0.619-7.991,3.529v104.073c0,4.148,4.925,6.323,7.991,3.529l43.203-39.374v35.845  c0,4.148,4.925,6.323,7.99,3.529l57.097-52.036C259.44,197.635,259.44,194.365,257.362,192.471z"/>
<path style="fill:#FFFFFF;" d="M257.362,184.471l-57.097-52.037c-3.066-2.794-7.99-0.619-7.99,3.529v35.846l-43.203-39.374  c-3.066-2.794-7.991-0.619-7.991,3.529v104.073c0,4.148,4.925,6.323,7.991,3.529l43.203-39.374v35.845  c0,4.148,4.925,6.323,7.99,3.529l57.097-52.036C259.44,189.635,259.44,186.365,257.362,184.471z"/>
<g>
</g>
<g>
</g>
<g>
</g>
<g>
</g>
<g>
</g>
<g>
</g>
<g>
</g>
<g>
</g>
<g>
</g>
<g>
</g>
<g>
</g>
<g>
</g>
<g>
</g>
<g>
</g>
<g>
</g>
</svg>
