<?xml version="1.0" encoding="iso-8859-1"?>
<!-- Generator: Adobe Illustrator 19.0.0, SVG Export Plug-In . SVG Version: 6.00 Build 0)  -->
<svg xmlns="http://www.w3.org/2000/svg" xmlns:xlink="http://www.w3.org/1999/xlink" version="1.1" id="Capa_1" x="0px" y="0px" viewBox="0 0 384 384" style="enable-background:new 0 0 384 384;" xml:space="preserve">
<circle style="fill:#334D5C;" cx="192" cy="192" r="192"/>
<path style="opacity:0.1;enable-background:new    ;" d="M134.8,81.997v110H82v83.6c0,6.72,2.48,12.8,6.6,17.44l0.28,0.279  l1.64,1.641l88.593,88.564C183.377,383.805,187.664,384,192,384c106.039,0,192-85.961,192-192c0-10.357-0.846-20.514-2.424-30.428  L302,81.997H134.8z"/>
<path style="fill:#D5D6DB;" d="M108.404,302L108.404,302C93.822,302,82,290.178,82,275.596V192h52.808v83.596  C134.808,290.178,122.986,302,108.404,302z"/>
<path style="fill:#EBF0F3;" d="M134.808,82v110l0,0v83.596c0,14.582-11.82,26.404-26.404,26.404l0,0h26.404h140.789  C290.178,302,302,290.178,302,275.596V82H134.808z"/>
<path style="fill:#64798A;" d="M104.586,192v83.517c0,2.108,1.71,3.818,3.818,3.818c2.108,0,3.818-1.709,3.818-3.818V192H104.586z"/>
<rect x="142.912" y="93.08" style="fill:#E56353;" width="150.984" height="43.532"/>
<g>
	<path style="fill:#FFFFFF;" d="M173.714,99.225h5.343v31.649h-5.796l-17.93-23.093v23.093h-5.343V99.225h5.343l18.384,23.634   V99.225z"/>
	<path style="fill:#FFFFFF;" d="M210.072,99.225v5.026h-16.888v8.376h15.167v4.753h-15.167v8.468h17.433v5.026h-22.776V99.225   H210.072z"/>
	<path style="fill:#FFFFFF;" d="M227.325,122.001l7.064-22.776h4.798l7.064,22.776l7.97-22.776h5.748l-11.047,31.649h-5.299   l-6.655-21.689h-0.361l-6.658,21.689h-5.295l-11.051-31.649h5.752L227.325,122.001z"/>
	<path style="fill:#FFFFFF;" d="M274.483,103.389c-1.555,0-2.83,0.317-3.825,0.951c-0.998,0.634-1.496,1.592-1.496,2.878   c0,1.282,0.498,2.262,1.496,2.94c0.995,0.682,3.114,1.411,6.36,2.196c3.243,0.785,5.69,1.887,7.337,3.305   c1.643,1.419,2.465,3.512,2.465,6.272c0,2.764-1.039,5.004-3.124,6.725c-2.082,1.721-4.812,2.58-8.195,2.58   c-4.949,0-9.341-1.702-13.173-5.115l3.35-4.031c3.198,2.778,6.518,4.168,9.96,4.168c1.721,0,3.088-0.372,4.098-1.109   c1.013-0.74,1.518-1.721,1.518-2.944c0-1.224-0.475-2.174-1.426-2.852c-0.951-0.682-2.59-1.297-4.912-1.857   c-2.325-0.56-4.094-1.072-5.299-1.54c-1.208-0.468-2.281-1.08-3.217-1.835c-1.872-1.419-2.804-3.589-2.804-6.518   c0-2.93,1.061-5.185,3.191-6.769c2.126-1.584,4.76-2.377,7.9-2.377c2.023,0,4.031,0.332,6.021,0.995   c1.993,0.663,3.714,1.599,5.162,2.808l-2.852,4.031c-0.936-0.848-2.204-1.54-3.803-2.086   C277.615,103.662,276.038,103.389,274.483,103.389z"/>
</g>
<rect x="142.912" y="146.896" style="fill:#27A2DB;" width="45.704" height="52.4"/>
<rect x="142.912" y="192" style="fill:#2D93BA;" width="45.704" height="7.292"/>
<g>
	<rect x="248.2" y="146.896" style="fill:#E1E6E9;" width="45.704" height="5.62"/>
	<rect x="248.2" y="162.796" style="fill:#E1E6E9;" width="45.704" height="5.62"/>
	<rect x="248.2" y="178.7" style="fill:#E1E6E9;" width="45.704" height="5.62"/>
</g>
<rect x="248.2" y="194.6" style="fill:#E56353;" width="45.704" height="5.62"/>
<g>
	<rect x="248.2" y="226.4" style="fill:#E1E6E9;" width="45.704" height="5.62"/>
	<rect x="248.2" y="242.32" style="fill:#E1E6E9;" width="45.704" height="5.62"/>
	<rect x="248.2" y="258.2" style="fill:#E1E6E9;" width="45.704" height="5.62"/>
	<rect x="248.2" y="274.12" style="fill:#E1E6E9;" width="45.704" height="5.62"/>
</g>
<rect id="SVGCleanerId_0" x="142.912" y="210.52" style="fill:#E1E6E9;" width="45.704" height="5.62"/>
<rect x="248.2" y="210.52" style="fill:#E56353;" width="45.704" height="5.62"/>
<g>
	<rect x="195.552" y="146.896" style="fill:#E1E6E9;" width="45.704" height="5.62"/>
	<rect x="195.552" y="162.796" style="fill:#E1E6E9;" width="45.704" height="5.62"/>
	<rect x="195.552" y="178.7" style="fill:#E1E6E9;" width="45.704" height="5.62"/>
	<rect x="195.552" y="194.6" style="fill:#E1E6E9;" width="45.704" height="5.62"/>
	<rect x="195.552" y="226.4" style="fill:#E1E6E9;" width="45.704" height="5.62"/>
	<rect x="195.552" y="242.32" style="fill:#E1E6E9;" width="45.704" height="5.62"/>
	<rect x="195.552" y="258.2" style="fill:#E1E6E9;" width="45.704" height="5.62"/>
	<rect x="195.552" y="274.12" style="fill:#E1E6E9;" width="45.704" height="5.62"/>
	<rect x="195.552" y="210.52" style="fill:#E1E6E9;" width="45.704" height="5.62"/>
</g>
<g>
	<rect id="SVGCleanerId_0_1_" x="142.912" y="210.52" style="fill:#E1E6E9;" width="45.704" height="5.62"/>
</g>
<g>
	<rect x="142.912" y="226.4" style="fill:#E1E6E9;" width="45.704" height="5.62"/>
	<rect x="142.912" y="242.32" style="fill:#E1E6E9;" width="45.704" height="5.62"/>
</g>
<g>
	<rect x="142.912" y="258.2" style="fill:#FCD462;" width="45.704" height="5.62"/>
	<rect x="142.912" y="274.12" style="fill:#FCD462;" width="45.704" height="5.62"/>
</g>
<g>
</g>
<g>
</g>
<g>
</g>
<g>
</g>
<g>
</g>
<g>
</g>
<g>
</g>
<g>
</g>
<g>
</g>
<g>
</g>
<g>
</g>
<g>
</g>
<g>
</g>
<g>
</g>
<g>
</g>
</svg>
