<?xml version="1.0" encoding="iso-8859-1"?>
<!-- Generator: Adobe Illustrator 19.0.0, SVG Export Plug-In . SVG Version: 6.00 Build 0)  -->
<svg xmlns="http://www.w3.org/2000/svg" xmlns:xlink="http://www.w3.org/1999/xlink" version="1.1" id="Capa_1" x="0px" y="0px" viewBox="0 0 384 384" style="enable-background:new 0 0 384 384;" xml:space="preserve">
<circle style="fill:#334D5C;" cx="192" cy="192" r="192"/>
<path style="opacity:0.1;enable-background:new    ;" d="M159.8,82l-18.96,21.04l14.04,20.88h0.04l-4.8,42.32l-0.52,4.56  l-4.24,37.28l-0.36,3.24L143.24,227l-0.52,4.6l-4.04,35.52l1.84,1.84l1.52,1.48l10.76,10.72l2.8,2.8L173.72,302l73.812,73.812  c55.671-16.797,100.645-58.179,122.348-111.532L187.6,82H159.8z"/>
<g>
	<polygon style="fill:#CE412D;" points="245.317,203.755 243.306,224.433 222.61,222.617 171.168,160.687 193.876,141.825  "/>
	<polygon style="fill:#CE412D;" points="192.526,123.936 206.597,103.031 187.611,82 159.806,82 140.821,103.031 154.892,123.936     "/>
</g>
<polygon style="fill:#D15241;" points="208.735,267.113 173.709,302 138.683,267.113 154.906,123.936 192.512,123.936 "/>
<g>
	<polygon style="fill:#FCD462;" points="193.046,128.643 152.409,145.968 151.892,150.538 193.516,132.792  "/>
	<polygon style="fill:#FCD462;" points="195.13,147.038 150.113,166.23 149.596,170.8 195.6,151.187  "/>
	<polygon style="fill:#FCD462;" points="147.3,191.062 197.684,169.581 197.214,165.432 147.818,186.492  "/>
	<polygon style="fill:#FCD462;" points="145.004,211.324 199.769,187.976 199.298,183.827 145.522,206.753  "/>
	<polygon style="fill:#FCD462;" points="142.708,231.586 201.852,206.37 201.382,202.221 143.226,227.016  "/>
	<polygon style="fill:#FCD462;" points="140.413,251.846 203.936,224.763 203.466,220.614 140.931,247.276  "/>
	<polygon style="fill:#FCD462;" points="142.026,270.444 206.02,243.159 205.551,239.01 138.969,267.398  "/>
	<polygon style="fill:#FCD462;" points="155.582,283.946 208.104,261.552 207.635,257.403 152.524,280.9  "/>
	<polygon style="fill:#FCD462;" points="169.141,297.449 185.115,290.639 192.75,283.034 166.083,294.404  "/>
</g>
<g>
</g>
<g>
</g>
<g>
</g>
<g>
</g>
<g>
</g>
<g>
</g>
<g>
</g>
<g>
</g>
<g>
</g>
<g>
</g>
<g>
</g>
<g>
</g>
<g>
</g>
<g>
</g>
<g>
</g>
</svg>
