<?xml version="1.0" encoding="iso-8859-1"?>
<!-- Generator: Adobe Illustrator 19.0.0, SVG Export Plug-In . SVG Version: 6.00 Build 0)  -->
<svg xmlns="http://www.w3.org/2000/svg" xmlns:xlink="http://www.w3.org/1999/xlink" version="1.1" id="Capa_1" x="0px" y="0px" viewBox="0 0 384 384" style="enable-background:new 0 0 384 384;" xml:space="preserve">
<circle style="fill:#EFC84A;" cx="192" cy="192" r="192"/>
<path style="opacity:0.1;enable-background:new    ;" d="M384,192c0-4.6-0.22-9.146-0.538-13.665l-88.868-88.868  C289.996,84.854,283.635,82,276.6,82H107.4C93.36,82,82,93.36,82,107.4v169.2c0,6.596,2.529,12.581,6.644,17.094l0.001,0.001  c0.528,0.579,1.08,1.131,1.659,1.659l88.114,88.114C182.91,383.783,187.428,384,192,384C298.039,384,384,298.038,384,192z"/>
<path style="fill:#44C4A1;" d="M107.39,82C93.367,82,82,93.367,82,107.39V276.61C82,290.633,93.367,302,107.39,302H192V82H107.39z"/>
<path style="fill:#3EA69B;" d="M276.61,82H192v220h84.61c14.022,0,25.39-11.367,25.39-25.39V107.39C302,93.367,290.633,82,276.61,82  z"/>
<path style="fill:#FFFFFF;" d="M156.056,132.965v103.031c-5.189-1.148-11.257-0.966-17.392,0.85  c-14.432,4.27-23.719,15.887-20.742,25.947c2.977,10.061,17.09,14.753,31.522,10.482c12.72-3.764,21.431-13.233,21.283-22.314h0.015  V171.77L192,165.534v-40.311L156.056,132.965z"/>
<path style="fill:#EBF0F3;" d="M192,125.223v40.311l59.949-17.583v64.226c-5.189-1.148-11.256-0.967-17.392,0.849  c-14.433,4.27-23.719,15.888-20.743,25.947c2.977,10.06,17.089,14.754,31.522,10.484c12.72-3.764,21.43-13.234,21.283-22.316h0.015  V109.146L192,125.223z"/>
<g>
</g>
<g>
</g>
<g>
</g>
<g>
</g>
<g>
</g>
<g>
</g>
<g>
</g>
<g>
</g>
<g>
</g>
<g>
</g>
<g>
</g>
<g>
</g>
<g>
</g>
<g>
</g>
<g>
</g>
</svg>
