<?xml version="1.0" encoding="iso-8859-1"?>
<!-- Generator: Adobe Illustrator 19.0.0, SVG Export Plug-In . SVG Version: 6.00 Build 0)  -->
<svg xmlns="http://www.w3.org/2000/svg" xmlns:xlink="http://www.w3.org/1999/xlink" version="1.1" id="Capa_1" x="0px" y="0px" viewBox="0 0 384 384" style="enable-background:new 0 0 384 384;" xml:space="preserve">
<circle style="fill:#EA8953;" cx="192" cy="192" r="192"/>
<path style="opacity:0.1;enable-background:new    ;" d="M288.44,124.957c-1.4-1.44-3.36-2.32-5.52-2.32H185.4l-21.16-21.16  l-1.88-1.88c-1.8-1.399-4-2.2-6.36-2.2h-54.92c-4.28,0-7.72,3.44-7.72,7.72v53.96h-3.6c-4.8,0-8.24,3.84-7.72,8.6l10.52,112  c0.2,1.8,1.16,3.4,2.52,4.64l0.28,0.28l99.369,99.334c95.758-1.34,174.534-72.747,187.388-165.285l-93.238-93.208L288.44,124.957z"/>
<path style="fill:#F6C358;" d="M104.69,138.331v-6.447h174.62v6.447v20.734h11.335v-28.733c0-4.258-3.452-7.71-7.71-7.71h-99.372  c-3.562,0-6.88-1.817-8.797-4.82l-9.95-15.581c-1.918-3.002-5.234-4.82-8.797-4.82h-54.953c-4.258,0-7.71,3.452-7.71,7.711v53.954  h11.334V138.331z"/>
<rect x="104.68" y="131.884" style="fill:#EBF0F3;" width="174.62" height="6.448"/>
<rect x="104.68" y="138.332" style="fill:#FFFFFF;" width="174.62" height="20.732"/>
<path style="fill:#FCD462;" d="M294.255,159.065h-3.61H279.31H104.69H93.356h-3.611c-4.789,0-8.229,3.866-7.689,8.594l10.51,112.028  c0.438,3.831,4.242,6.912,8.5,6.912h181.869c4.258,0,8.062-3.081,8.499-6.912l10.511-112.028  C302.484,162.931,299.044,159.065,294.255,159.065z"/>
<circle style="fill:#F6C358;" cx="192" cy="225.32" r="43.324"/>
<circle style="fill:#FFFFFF;" cx="192" cy="222.84" r="43.324"/>
<path style="fill:#E56353;" d="M219.333,193.451v40.75h-0.062c0.334,3.415-3.019,7.08-8.35,8.808  c-1.811,0.604-3.56,0.875-5.164,0.875c-3.602,0-6.413-1.416-7.246-3.956c-1.208-3.706,2.312-7.934,8.183-9.849  c3.186-1.041,6.184-1.104,8.475-0.375v-21.34l-29.443,7.288v26.879h-0.062c0.333,3.415-3.019,7.08-8.35,8.808  c-1.812,0.604-3.582,0.874-5.185,0.874c-3.582,0-6.393-1.416-7.226-3.956c-1.208-3.706,2.311-7.933,8.183-9.849  c3.186-1.041,6.184-1.104,8.475-0.375v-35.211L219.333,193.451z"/>
<g>
</g>
<g>
</g>
<g>
</g>
<g>
</g>
<g>
</g>
<g>
</g>
<g>
</g>
<g>
</g>
<g>
</g>
<g>
</g>
<g>
</g>
<g>
</g>
<g>
</g>
<g>
</g>
<g>
</g>
</svg>
