<?xml version="1.0" encoding="iso-8859-1"?>
<!-- Generator: Adobe Illustrator 19.0.0, SVG Export Plug-In . SVG Version: 6.00 Build 0)  -->
<svg xmlns="http://www.w3.org/2000/svg" xmlns:xlink="http://www.w3.org/1999/xlink" version="1.1" id="Capa_1" x="0px" y="0px" viewBox="0 0 384 384" style="enable-background:new 0 0 384 384;" xml:space="preserve">
<circle style="fill:#334D5C;" cx="192" cy="192" r="192"/>
<path style="opacity:0.1;enable-background:new    ;" d="M382.714,213.953L262.04,93.31l-1.44-1.48c-6.2-6.12-14.68-9.84-24.08-9.84  h-89.04c-19.04,0-34.48,15.44-34.48,34.52v151c0,9.6,3.96,18.32,10.32,24.561l90.643,90.642  C302.444,372.63,372.635,302.435,382.714,213.953z"/>
<path style="fill:#EBF0F3;" d="M236.507,82.001h-89.014c-19.05,0-34.493,15.443-34.493,34.493v151.013  c0,19.05,15.443,34.494,34.493,34.494h89.014c19.05,0,34.493-15.444,34.493-34.494V116.494  C271,97.444,255.557,82.001,236.507,82.001z"/>
<rect x="190" y="82" style="fill:#E1E6E9;" width="4" height="116"/>
<path style="fill:#D5D6DB;" d="M192,106.493c-7.202,0-13.04,5.839-13.04,13.041v26.524c0,7.202,5.838,13.041,13.04,13.041  c7.202,0,13.041-5.838,13.041-13.041v-26.524C205.04,112.332,199.202,106.493,192,106.493z"/>
<g>
</g>
<g>
</g>
<g>
</g>
<g>
</g>
<g>
</g>
<g>
</g>
<g>
</g>
<g>
</g>
<g>
</g>
<g>
</g>
<g>
</g>
<g>
</g>
<g>
</g>
<g>
</g>
<g>
</g>
</svg>
