<?xml version="1.0" encoding="iso-8859-1"?>
<!-- Generator: Adobe Illustrator 19.0.0, SVG Export Plug-In . SVG Version: 6.00 Build 0)  -->
<svg xmlns="http://www.w3.org/2000/svg" xmlns:xlink="http://www.w3.org/1999/xlink" version="1.1" id="Capa_1" x="0px" y="0px" viewBox="0 0 384 384" style="enable-background:new 0 0 384 384;" xml:space="preserve">
<circle style="fill:#EA8953;" cx="192" cy="192" r="192"/>
<path style="opacity:0.1;enable-background:new    ;" d="M384,192c0-1.898-0.089-3.774-0.143-5.659L301.08,103.59l-0.28-0.32  c-0.96-1.28-2.52-2.08-4.24-2.08H87.44c-3,0-5.44,2.44-5.44,5.44v134.56c0,1.4,0.52,2.64,1.4,3.6l0.48,0.48l136.589,136.616  C313.004,368.129,384,288.363,384,192z"/>
<path style="fill:#FFFFFF;" d="M296.565,101.193H87.434c-3.001,0-5.434,2.434-5.434,5.435v134.565c0,3.001,2.434,5.435,5.434,5.435  h209.131c3.002,0,5.435-2.434,5.435-5.435V106.628C302,103.627,299.567,101.193,296.565,101.193z"/>
<rect x="90" y="109.2" style="fill:#27A2DB;" width="204" height="129.432"/>
<rect x="153.88" y="246.64" style="fill:#EBF0F3;" width="76.24" height="23.42"/>
<path style="fill:#FFFFFF;" d="M240.923,270.049h-97.846c-1.38,0-2.498,1.118-2.498,2.498v10.26h102.842v-10.26  C243.421,271.167,242.303,270.049,240.923,270.049z"/>
<g>
</g>
<g>
</g>
<g>
</g>
<g>
</g>
<g>
</g>
<g>
</g>
<g>
</g>
<g>
</g>
<g>
</g>
<g>
</g>
<g>
</g>
<g>
</g>
<g>
</g>
<g>
</g>
<g>
</g>
</svg>
