<?xml version="1.0" encoding="iso-8859-1"?>
<!-- Generator: Adobe Illustrator 19.0.0, SVG Export Plug-In . SVG Version: 6.00 Build 0)  -->
<svg xmlns="http://www.w3.org/2000/svg" xmlns:xlink="http://www.w3.org/1999/xlink" version="1.1" id="Capa_1" x="0px" y="0px" viewBox="0 0 384 384" style="enable-background:new 0 0 384 384;" xml:space="preserve">
<circle style="fill:#45B39C;" cx="192" cy="192" r="192"/>
<path style="opacity:0.1;enable-background:new    ;" d="M378.562,237.352L276.08,134.892l-1.56-1.601  c-4.96-5.12-10.88-9.36-17.44-12.399l-34.72-34.721l-1.12-1.119c-2.04-1.881-4.72-3.041-7.72-3.041H103.8  c-6.32,0-11.44,5.121-11.44,11.44v197.12c0,3.68,1.72,6.96,4.44,9.04l84.01,84.039c3.705,0.214,7.432,0.35,11.19,0.35  C282.409,384,358.178,321.494,378.562,237.352z"/>
<g>
	<path style="fill:#64798A;" d="M92.352,290.562c0,6.317,5.121,11.438,11.438,11.438h109.715c6.318,0,11.44-5.121,11.44-11.438   v-23.85H92.352V290.562z"/>
	<path style="fill:#64798A;" d="M224.945,93.438c0-6.317-5.122-11.438-11.44-11.438H103.791c-6.317,0-11.438,5.121-11.438,11.438   v12.386h132.593V93.438z"/>
</g>
<rect x="92.36" y="105.84" style="fill:#E1E6E9;" width="132.6" height="160.88"/>
<rect x="100.12" y="105.84" style="fill:#EBF0F3;" width="117.08" height="160.88"/>
<g>
	<path style="fill:#3A556A;" d="M178.361,90.248h-39.425c-1.564,0-2.832,1.268-2.832,2.832s1.268,2.832,2.832,2.832h39.425   c1.564,0,2.832-1.268,2.832-2.832S179.926,90.248,178.361,90.248z"/>
	<circle style="fill:#3A556A;" cx="158.648" cy="284.36" r="10.568"/>
</g>
<path style="fill:#2F4859;" d="M160.18,280.876h-3.062c-1.076,0-1.948,0.873-1.948,1.949v3.062c0,1.076,0.872,1.948,1.948,1.948  h3.063c1.076,0,1.948-0.872,1.948-1.948v-3.063C162.129,281.748,161.256,280.876,160.18,280.876z"/>
<rect x="92.36" y="105.84" style="fill:#E1E6E9;" width="7.756" height="160.88"/>
<path style="fill:#D5D6DB;" d="M217.189,110.946v128.42c2.54,0.576,5.116,1.052,7.757,1.324V109.622  C222.305,109.895,219.729,110.37,217.189,110.946z"/>
<path style="fill:#E1E6E9;" d="M165.871,175.156c0,31.319,21.984,57.552,51.318,64.21v-128.42  C187.856,117.604,165.871,143.838,165.871,175.156z"/>
<path style="fill:#27A2DB;" d="M231.759,115.268c-33.021,0-59.888,26.867-59.888,59.888s26.867,59.888,59.888,59.888  c33.022,0,59.888-26.866,59.888-59.888S264.781,115.268,231.759,115.268z"/>
<path style="fill:#2D93BA;" d="M231.759,115.268c-33.021,0-59.888,26.867-59.888,59.888s26.867,59.888,59.888,59.888  c33.022,0,59.888-26.866,59.888-59.888S264.781,115.268,231.759,115.268z M233.937,151.398c7.6-0.098,15.218-0.705,22.983-1.832  c1.88,7.057,3.008,14.995,3.175,23.412h-26.158V151.398z M233.937,147.032v-27.229c9.13,1.365,17.061,11.223,21.735,25.544  C248.333,146.385,241.128,146.938,233.937,147.032z M229.582,119.803v27.229c-7.189-0.095-14.394-0.648-21.732-1.686  C212.523,131.026,220.453,121.168,229.582,119.803z M229.582,151.398v21.58h-26.156c0.167-8.417,1.295-16.355,3.176-23.413  C214.367,150.692,221.984,151.3,229.582,151.398z M199.071,172.978h-22.789c0.396-10.188,3.549-19.675,8.733-27.745  c5.866,1.481,11.598,2.711,17.227,3.66C200.346,156.174,199.233,164.317,199.071,172.978z M199.071,177.334  c0.161,8.66,1.274,16.802,3.17,24.083c-5.629,0.949-11.36,2.18-17.227,3.662c-5.184-8.07-8.337-17.557-8.733-27.745H199.071z   M203.426,177.334h26.156v21.579c-7.599,0.098-15.216,0.704-22.981,1.832C204.72,193.687,203.593,185.75,203.426,177.334z   M229.582,203.279v27.23c-9.129-1.365-17.06-11.223-21.733-25.544C215.187,203.926,222.392,203.374,229.582,203.279z   M233.937,230.509v-27.23c7.19,0.095,14.395,0.648,21.734,1.686C250.998,219.286,243.067,229.144,233.937,230.509z M233.937,198.912  v-21.579h26.158c-0.167,8.417-1.295,16.355-3.176,23.413C249.154,199.618,241.536,199.011,233.937,198.912z M264.45,177.334h22.787  c-0.396,10.189-3.55,19.676-8.734,27.746c-5.866-1.481-11.596-2.712-17.225-3.661C263.175,194.138,264.288,185.994,264.45,177.334z   M264.45,172.978c-0.162-8.66-1.274-16.803-3.171-24.084c5.629-0.949,11.36-2.18,17.226-3.66c5.184,8.07,8.337,17.556,8.733,27.744  H264.45z M275.819,141.409c-5.358,1.313-10.606,2.408-15.766,3.263c-3.127-9.86-7.75-17.84-13.342-22.987  C258.432,124.967,268.594,131.999,275.819,141.409z M216.808,121.685c-5.592,5.146-10.214,13.127-13.34,22.986  c-5.16-0.854-10.408-1.95-15.767-3.262C194.925,131.999,205.088,124.966,216.808,121.685z M187.7,208.903  c5.359-1.313,10.606-2.409,15.767-3.263c3.127,9.86,7.749,17.84,13.341,22.987C205.088,225.345,194.925,218.313,187.7,208.903z   M246.712,228.627c5.592-5.146,10.215-13.127,13.342-22.986c5.159,0.854,10.406,1.95,15.765,3.263  C268.593,218.314,258.431,225.345,246.712,228.627z"/>
<g>
</g>
<g>
</g>
<g>
</g>
<g>
</g>
<g>
</g>
<g>
</g>
<g>
</g>
<g>
</g>
<g>
</g>
<g>
</g>
<g>
</g>
<g>
</g>
<g>
</g>
<g>
</g>
<g>
</g>
</svg>
