<?xml version="1.0" encoding="iso-8859-1"?>
<!-- Generator: Adobe Illustrator 19.0.0, SVG Export Plug-In . SVG Version: 6.00 Build 0)  -->
<svg xmlns="http://www.w3.org/2000/svg" xmlns:xlink="http://www.w3.org/1999/xlink" version="1.1" id="Capa_1" x="0px" y="0px" viewBox="0 0 384 384" style="enable-background:new 0 0 384 384;" xml:space="preserve">
<circle style="fill:#EA8953;" cx="192" cy="192" r="192"/>
<path style="opacity:0.1;enable-background:new    ;" d="M287.24,137.44l-11.48,3.84c-0.723-0.711-1.54-1.319-2.3-1.991  l-26.504-26.503l-0.011,0.013c-0.742-0.704-1.712-1.159-2.786-1.159h-5.813L211.16,84.452C209.848,82.96,207.947,82,205.8,82H89.16  C85.24,82,82,85.2,82,89.16v205.68c0,1.802,0.694,3.428,1.795,4.685l0.001,0c0.213,0.243,0.438,0.469,0.681,0.681l82.062,82.062  C174.874,383.373,183.362,384,192,384c93.794,0,171.83-67.272,188.614-156.186L292.08,139.28  C291.12,137.6,289.08,136.84,287.24,137.44z"/>
<g>
	<path style="fill:#64798A;" d="M291.577,197.726c1.189-4.653,1.823-9.527,1.823-14.55c0-5.023-0.634-9.898-1.823-14.551l9.03-8.007   c1.455-1.29,1.802-3.426,0.83-5.11l-9.362-16.215c-0.972-1.684-2.996-2.452-4.84-1.837l-11.474,3.825   c-6.94-6.787-15.558-11.857-25.174-14.544l-2.422-11.839c-0.39-1.905-2.066-3.274-4.011-3.274h-18.724   c-1.945,0-3.622,1.368-4.011,3.274l-0.469,2.291v32.695c4.263-1.775,8.936-2.763,13.842-2.763   c19.912,0,36.055,16.142,36.055,36.055s-16.142,36.055-36.055,36.055c-4.906,0-9.579-0.988-13.842-2.763v32.695l0.469,2.291   c0.39,1.905,2.066,3.274,4.011,3.274h18.724c1.945,0,3.622-1.368,4.011-3.274l2.422-11.839c9.617-2.686,18.234-7.756,25.174-14.544   l11.474,3.826c1.845,0.615,3.868-0.152,4.84-1.837l9.362-16.215c0.972-1.684,0.626-3.82-0.83-5.11L291.577,197.726z"/>
	<path style="fill:#64798A;" d="M234.79,201.813c10.293,0,18.637-8.344,18.637-18.637c0-10.293-8.344-18.637-18.637-18.637   c-5.522,0-10.429,2.448-13.842,6.262v24.748C224.361,199.365,229.269,201.813,234.79,201.813z"/>
</g>
<g>
	<path style="fill:#3A556A;" d="M216.154,183.176c0,4.771,1.846,9.077,4.795,12.374v-24.748   C217.999,174.098,216.154,178.404,216.154,183.176z"/>
	<path style="fill:#3A556A;" d="M198.736,183.176c0-15.007,9.172-27.863,22.213-33.292v-32.695l-1.954,9.548   c-9.616,2.686-18.234,7.756-25.174,14.544l-11.475-3.825c-1.845-0.615-3.868,0.153-4.84,1.837l-9.362,16.215   c-0.972,1.684-0.626,3.82,0.83,5.11l9.03,8.007c-1.189,4.653-1.823,9.528-1.823,14.551c0,5.023,0.634,9.898,1.824,14.551   l-9.03,8.007c-1.456,1.29-1.802,3.426-0.83,5.111l9.362,16.215c0.973,1.684,2.996,2.452,4.84,1.837l11.475-3.826   c6.94,6.788,15.557,11.858,25.174,14.544l1.954,9.548v-32.695C207.908,211.039,198.736,198.182,198.736,183.176z"/>
</g>
<path style="fill:#27A2DB;" d="M205.79,82H89.174c-3.954,0-7.159,3.205-7.159,7.159v205.682c0,3.954,3.206,7.159,7.159,7.159H205.79  c3.953,0,7.158-3.205,7.158-7.159V89.159C212.948,85.205,209.743,82,205.79,82z"/>
<rect x="98.016" y="98" style="fill:#EBF0F3;" width="98.932" height="170.352"/>
<rect x="98.016" y="245.6" style="fill:#1C75A1;" width="98.932" height="22.736"/>
<circle style="fill:#EBF0F3;" cx="147.48" cy="286" r="9.088"/>
<g>
	<path style="fill:#FFFFFF;" d="M116.234,249.814h-10.437c-1.196,0-2.166,0.97-2.166,2.166v10.437c0,1.196,0.97,2.166,2.166,2.166   h10.437c1.196,0,2.166-0.97,2.166-2.166V251.98C118.4,250.784,117.43,249.814,116.234,249.814z"/>
	<path style="fill:#FFFFFF;" d="M140.545,249.814h-10.437c-1.196,0-2.166,0.97-2.166,2.166v10.437c0,1.196,0.97,2.166,2.166,2.166   h10.437c1.196,0,2.166-0.97,2.166-2.166V251.98C142.711,250.784,141.741,249.814,140.545,249.814z"/>
	<path style="fill:#FFFFFF;" d="M164.856,249.814h-10.437c-1.196,0-2.166,0.97-2.166,2.166v10.437c0,1.196,0.97,2.166,2.166,2.166   h10.437c1.196,0,2.166-0.97,2.166-2.166V251.98C167.022,250.784,166.052,249.814,164.856,249.814z"/>
	<path style="fill:#FFFFFF;" d="M189.166,249.814H178.73c-1.196,0-2.166,0.97-2.166,2.166v10.437c0,1.196,0.97,2.166,2.166,2.166   h10.437c1.196,0,2.166-0.97,2.166-2.166V251.98C191.332,250.784,190.363,249.814,189.166,249.814z"/>
</g>
<path style="fill:#FCD462;" d="M119.553,221.27h-12.902c-1.479,0-2.678,1.199-2.678,2.678v12.902c0,1.479,1.199,2.677,2.678,2.677  h12.902c1.479,0,2.678-1.198,2.678-2.677v-12.902C122.23,222.468,121.032,221.27,119.553,221.27z"/>
<path style="fill:#27A2DB;" d="M142.473,221.27h-12.902c-1.479,0-2.678,1.199-2.678,2.678v12.902c0,1.479,1.199,2.677,2.678,2.677  h12.902c1.479,0,2.677-1.198,2.677-2.677v-12.902C145.15,222.468,143.952,221.27,142.473,221.27z"/>
<path style="fill:#44C4A1;" d="M165.392,221.27h-12.902c-1.479,0-2.678,1.199-2.678,2.678v12.902c0,1.479,1.199,2.677,2.678,2.677  h12.902c1.479,0,2.678-1.198,2.678-2.677v-12.902C168.07,222.468,166.871,221.27,165.392,221.27z"/>
<g>
	<path style="fill:#E56353;" d="M188.312,221.27H175.41c-1.478,0-2.677,1.199-2.677,2.678v12.902c0,1.479,1.199,2.677,2.677,2.677   h12.902c1.478,0,2.677-1.198,2.677-2.677v-12.902C190.99,222.468,189.791,221.27,188.312,221.27z"/>
	<path style="fill:#E56353;" d="M119.553,195.629h-12.902c-1.479,0-2.678,1.199-2.678,2.678v12.902c0,1.479,1.199,2.677,2.678,2.677   h12.902c1.479,0,2.678-1.198,2.678-2.677v-12.902C122.23,196.828,121.032,195.629,119.553,195.629z"/>
</g>
<path style="fill:#44C4A1;" d="M142.473,196.16h-12.902c-1.479,0-2.678,1.199-2.678,2.678v12.902c0,1.479,1.199,2.677,2.678,2.677  h12.902c1.479,0,2.677-1.198,2.677-2.677v-12.902C145.15,197.359,143.952,196.16,142.473,196.16z"/>
<path style="fill:#FCD462;" d="M165.392,195.629h-12.902c-1.479,0-2.678,1.199-2.678,2.678v12.902c0,1.479,1.199,2.677,2.678,2.677  h12.902c1.479,0,2.678-1.198,2.678-2.677v-12.902C168.07,196.828,166.871,195.629,165.392,195.629z"/>
<path style="fill:#27A2DB;" d="M188.312,195.629H175.41c-1.478,0-2.677,1.199-2.677,2.678v12.902c0,1.479,1.199,2.677,2.677,2.677  h12.902c1.478,0,2.677-1.198,2.677-2.677v-12.902C190.99,196.828,189.791,195.629,188.312,195.629z"/>
<rect x="103.46" y="110.568" style="fill:#FFFFFF;" width="71.152" height="14.084"/>
<rect x="174.62" y="110.588" style="fill:#64798A;" width="16.888" height="14.084"/>
<g>
</g>
<g>
</g>
<g>
</g>
<g>
</g>
<g>
</g>
<g>
</g>
<g>
</g>
<g>
</g>
<g>
</g>
<g>
</g>
<g>
</g>
<g>
</g>
<g>
</g>
<g>
</g>
<g>
</g>
</svg>
