<?xml version="1.0" encoding="iso-8859-1"?>
<!-- Generator: Adobe Illustrator 19.0.0, SVG Export Plug-In . SVG Version: 6.00 Build 0)  -->
<svg xmlns="http://www.w3.org/2000/svg" xmlns:xlink="http://www.w3.org/1999/xlink" version="1.1" id="Capa_1" x="0px" y="0px" viewBox="0 0 384 384" style="enable-background:new 0 0 384 384;" xml:space="preserve">
<circle style="fill:#EFC84A;" cx="192" cy="192" r="192"/>
<path style="opacity:0.1;enable-background:new    ;" d="M255.2,83.957c-1.28-1.24-3-1.96-4.88-1.96H133.68  c-3.96,0-7.16,3.2-7.16,7.16v205.68c0,2.12,0.92,4,2.36,5.28l0.08,0.08l82.796,82.795c90.273-9.228,162.029-80.992,171.241-171.27  L255.68,84.438L255.2,83.957z"/>
<path style="fill:#3A556A;" d="M250.308,90H133.692c-3.954,0-7.159,3.205-7.159,7.159v197.682c0,3.954,3.206,7.158,7.159,7.158  h116.616c3.953,0,7.158-3.205,7.158-7.158V97.159C257.467,93.205,254.262,90,250.308,90z"/>
<path style="fill:#64798A;" d="M250.308,82H133.692c-3.954,0-7.159,3.205-7.159,7.159v197.682c0,3.954,3.206,7.158,7.159,7.158  h116.616c3.953,0,7.158-3.205,7.158-7.158V89.159C257.467,85.205,254.262,82,250.308,82z"/>
<rect x="142.532" y="98" style="fill:#EBF0F3;" width="98.932" height="162.352"/>
<rect x="142.532" y="237.6" style="fill:#D5D6DB;" width="98.932" height="22.736"/>
<circle style="fill:#EBF0F3;" cx="192" cy="278" r="9.088"/>
<path style="fill:#44C4A1;" d="M160.752,241.814h-10.437c-1.196,0-2.166,0.97-2.166,2.166v10.437c0,1.196,0.97,2.166,2.166,2.166  h10.437c1.196,0,2.166-0.97,2.166-2.166V243.98C162.918,242.784,161.948,241.814,160.752,241.814z"/>
<path style="fill:#64798A;" d="M185.063,241.814h-10.437c-1.196,0-2.166,0.97-2.166,2.166v10.437c0,1.196,0.97,2.166,2.166,2.166  h10.437c1.196,0,2.166-0.97,2.166-2.166V243.98C187.229,242.784,186.259,241.814,185.063,241.814z"/>
<path style="fill:#27A2DB;" d="M209.374,241.814h-10.437c-1.196,0-2.166,0.97-2.166,2.166v10.437c0,1.196,0.97,2.166,2.166,2.166  h10.437c1.196,0,2.166-0.97,2.166-2.166V243.98C211.54,242.784,210.57,241.814,209.374,241.814z"/>
<path style="fill:#DC8744;" d="M233.685,241.814h-10.437c-1.196,0-2.166,0.97-2.166,2.166v10.437c0,1.196,0.97,2.166,2.166,2.166  h10.437c1.196,0,2.166-0.97,2.166-2.166V243.98C235.851,242.784,234.881,241.814,233.685,241.814z"/>
<path style="fill:#E56353;" d="M175.892,149.832c0,8.896,7.212,16.108,16.11,16.108v-32.216  C183.105,133.724,175.892,140.936,175.892,149.832z"/>
<path style="fill:#D15241;" d="M192.002,133.724v32.216c8.893,0,16.105-7.212,16.105-16.108  C208.108,140.936,200.895,133.724,192.002,133.724z"/>
<path style="fill:#CE412D;" d="M199.145,150.477l-10.902-7.696c-0.57-0.403-1.359,0.005-1.359,0.704v15.392  c0,0.699,0.79,1.108,1.359,0.704l10.902-7.696C199.632,151.542,199.632,150.82,199.145,150.477z"/>
<path style="fill:#FFFFFF;" d="M199.145,149.128l-10.902-7.696c-0.57-0.403-1.359,0.005-1.359,0.704v15.392  c0,0.699,0.79,1.108,1.359,0.704l10.902-7.696C199.632,150.193,199.632,149.471,199.145,149.128z"/>
<rect x="142.692" y="220.84" style="fill:#D5D6DB;" width="98.616" height="12.08"/>
<path style="fill:#64798A;" d="M234.354,225.427h-84.708c-0.792,0-1.434,0.642-1.434,1.434c0,0.792,0.643,1.435,1.434,1.435h84.708  c0.792,0,1.434-0.642,1.434-1.435C235.788,226.069,235.146,225.427,234.354,225.427z"/>
<path style="fill:#3A556A;" d="M216.071,225.427h-66.425c-0.792,0-1.434,0.642-1.434,1.434c0,0.792,0.643,1.435,1.434,1.435h66.425  c0.792,0,1.434-0.642,1.434-1.435C217.506,226.069,216.863,225.427,216.071,225.427z"/>
<path style="fill:#E56353;" d="M193.867,225.427h-44.221c-0.792,0-1.434,0.642-1.434,1.434c0,0.792,0.643,1.435,1.434,1.435h44.221  c0.792,0,1.434-0.642,1.434-1.435C195.301,226.069,194.658,225.427,193.867,225.427z"/>
<circle style="fill:#64798A;" cx="195.596" cy="226.88" r="2.528"/>
<circle style="fill:#3A556A;" cx="195.596" cy="226.88" r="1.128"/>
<g>
</g>
<g>
</g>
<g>
</g>
<g>
</g>
<g>
</g>
<g>
</g>
<g>
</g>
<g>
</g>
<g>
</g>
<g>
</g>
<g>
</g>
<g>
</g>
<g>
</g>
<g>
</g>
<g>
</g>
</svg>
