<?xml version="1.0" encoding="iso-8859-1"?>
<!-- Generator: Adobe Illustrator 19.0.0, SVG Export Plug-In . SVG Version: 6.00 Build 0)  -->
<svg xmlns="http://www.w3.org/2000/svg" xmlns:xlink="http://www.w3.org/1999/xlink" version="1.1" id="Capa_1" x="0px" y="0px" viewBox="0 0 384 384" style="enable-background:new 0 0 384 384;" xml:space="preserve">
<circle style="fill:#45B39C;" cx="192" cy="192" r="192"/>
<path style="opacity:0.1;enable-background:new    ;" d="M382.679,214.224l-92.239-92.214h-31.08l-35.84-35.84  c-0.32-0.359-0.68-0.72-1.04-1.039c-2-1.961-4.76-3.121-7.8-3.121H104.96c-6.28,0-11.4,5.121-11.4,11.44v197.12  c0,2.64,0.88,5.04,2.4,6.96c0.6,0.84,1.36,1.56,2.2,2.2l84.02,84.021c3.253,0.163,6.526,0.248,9.82,0.248  C290.517,384,371.657,309.787,382.679,214.224z"/>
<g>
	<path style="fill:#64798A;" d="M93.542,290.562c0,6.317,5.121,11.438,11.438,11.438h109.715c6.318,0,11.44-5.121,11.44-11.438   v-23.85H93.542V290.562z"/>
	<path style="fill:#64798A;" d="M226.134,93.438c0-6.317-5.122-11.438-11.44-11.438H104.98c-6.317,0-11.438,5.121-11.438,11.438   v12.386h132.593V93.438z"/>
</g>
<rect x="93.56" y="105.84" style="fill:#E1E6E9;" width="132.6" height="160.88"/>
<rect x="101.28" y="105.84" style="fill:#EBF0F3;" width="117.08" height="160.88"/>
<g>
	<path style="fill:#3A556A;" d="M179.55,90.248h-39.425c-1.564,0-2.832,1.268-2.832,2.832s1.268,2.832,2.832,2.832h39.425   c1.564,0,2.832-1.268,2.832-2.832S181.115,90.248,179.55,90.248z"/>
	<circle style="fill:#3A556A;" cx="159.836" cy="284.36" r="10.568"/>
</g>
<path style="fill:#2F4859;" d="M161.369,280.876h-3.062c-1.076,0-1.948,0.873-1.948,1.949v3.062c0,1.076,0.872,1.948,1.948,1.948  h3.063c1.076,0,1.948-0.872,1.948-1.948v-3.063C163.318,281.748,162.445,280.876,161.369,280.876z"/>
<rect x="218.36" y="130.04" style="fill:#D5D6DB;" width="7.756" height="78.472"/>
<rect x="161.8" y="130.04" style="fill:#E1E6E9;" width="56.56" height="78.472"/>
<rect x="169.8" y="122.032" style="fill:#F6C358;" width="120.64" height="78.472"/>
<polygon style="fill:#FCD462;" points="230.134,154.27 290.458,200.502 169.81,200.502 "/>
<polygon style="fill:#DC8744;" points="230.134,172.536 169.81,122.031 290.458,122.031 "/>
<polygon style="fill:#FCD462;" points="230.134,168.262 169.81,122.031 290.458,122.031 "/>
<g>
</g>
<g>
</g>
<g>
</g>
<g>
</g>
<g>
</g>
<g>
</g>
<g>
</g>
<g>
</g>
<g>
</g>
<g>
</g>
<g>
</g>
<g>
</g>
<g>
</g>
<g>
</g>
<g>
</g>
</svg>
