<?xml version="1.0" encoding="iso-8859-1"?>
<!-- Generator: Adobe Illustrator 19.0.0, SVG Export Plug-In . SVG Version: 6.00 Build 0)  -->
<svg xmlns="http://www.w3.org/2000/svg" xmlns:xlink="http://www.w3.org/1999/xlink" version="1.1" id="Capa_1" x="0px" y="0px" viewBox="0 0 384 384" style="enable-background:new 0 0 384 384;" xml:space="preserve">
<circle style="fill:#EFC84A;" cx="192" cy="192" r="192"/>
<path style="opacity:0.1;enable-background:new    ;" d="M255.36,84.077c-1.32-1.28-3.08-2.08-5.04-2.08H133.68  c-3.96,0-7.16,3.2-7.16,7.16v68.6l-22.44-22.441l-0.08-0.079c-2.24-2.88-5.76-4.72-9.68-4.72c-6.8,0-12.32,5.52-12.32,12.32  c0,3.36,1.32,6.36,3.52,8.6l0.52,0.52l27.08,27.08h-12.84v6l13.92,13.92h-2l-19.92-19.92h-6.76v6l14.76,14.76v5.16l13.56,13.56h-2  l-19.56-19.56h-6.76v6l17.48,17.48l-5.36,6.879c-1.08-0.279-2.16-0.479-3.32-0.479c-6.8,0-12.32,5.52-12.32,12.32  c0,4.12,2,7.76,5.12,10l39.4,39.4v4.28c0,1.84,0.68,3.52,1.84,4.76l0.6,0.601l82.796,82.795  c90.275-9.228,162.033-80.997,171.242-171.277L255.56,84.278L255.36,84.077z"/>
<g>
	<path style="fill:#64798A;" d="M286.369,154.663c1.058,0.297,2.151,0.506,3.303,0.506c6.797,0,12.328-5.531,12.328-12.328   s-5.531-12.324-12.328-12.324c-6.797,0-12.328,5.527-12.328,12.324c0,3.462,1.446,6.584,3.752,8.826l-6.076,7.826h-20.551v6h23.488   L286.369,154.663z M289.672,136.518c3.488,0,6.328,2.836,6.328,6.324s-2.84,6.328-6.328,6.328c-3.488,0-6.328-2.84-6.328-6.328   S286.184,136.518,289.672,136.518z"/>
	<path style="fill:#64798A;" d="M289.672,228.826c-1.152,0-2.245,0.21-3.303,0.506l-8.412-10.831h-23.488v6h20.551l6.076,7.826   c-2.306,2.242-3.752,5.364-3.752,8.826c0,6.797,5.532,12.328,12.328,12.328c6.797,0,12.328-5.532,12.328-12.328   C302,234.357,296.469,228.826,289.672,228.826z M289.672,247.482c-3.488,0-6.328-2.84-6.328-6.328c0-3.488,2.84-6.328,6.328-6.328   c3.488,0,6.328,2.84,6.328,6.328C296,244.642,293.16,247.482,289.672,247.482z"/>
	<rect x="257.48" y="179.028" style="fill:#64798A;" width="26.264" height="6"/>
	<rect x="291.72" y="179.028" style="fill:#64798A;" width="6.752" height="6"/>
	<rect x="257.48" y="198.972" style="fill:#64798A;" width="26.264" height="6"/>
	<rect x="291.72" y="198.972" style="fill:#64798A;" width="6.752" height="6"/>
	<path style="fill:#64798A;" d="M106.043,165.494h23.488v-6H108.98l-6.076-7.826c2.306-2.242,3.752-5.364,3.752-8.826   c0-6.797-5.531-12.324-12.328-12.324c-6.797,0-12.328,5.527-12.328,12.324s5.531,12.328,12.328,12.328   c1.152,0,2.245-0.21,3.303-0.506L106.043,165.494z M100.656,142.842c0,3.488-2.84,6.328-6.328,6.328   c-3.488,0-6.328-2.84-6.328-6.328s2.84-6.324,6.328-6.324C97.816,136.518,100.656,139.353,100.656,142.842z"/>
	<path style="fill:#64798A;" d="M82,241.154c0,6.797,5.531,12.328,12.328,12.328c6.797,0,12.328-5.532,12.328-12.328   c0-3.462-1.446-6.584-3.752-8.826l6.076-7.826h20.551v-6h-23.488l-8.412,10.831c-1.058-0.297-2.151-0.506-3.303-0.506   C87.531,228.826,82,234.357,82,241.154z M88,241.154c0-3.488,2.84-6.328,6.328-6.328c3.488,0,6.328,2.84,6.328,6.328   c0,3.488-2.84,6.328-6.328,6.328C90.84,247.482,88,244.642,88,241.154z"/>
	<rect x="100.28" y="179.028" style="fill:#64798A;" width="26.264" height="6"/>
	<rect x="85.52" y="179.028" style="fill:#64798A;" width="6.752" height="6"/>
	<rect x="100.28" y="198.972" style="fill:#64798A;" width="26.264" height="6"/>
	<rect x="85.52" y="198.972" style="fill:#64798A;" width="6.752" height="6"/>
</g>
<path style="fill:#D5D6DB;" d="M250.308,90H133.692c-3.954,0-7.159,3.205-7.159,7.159v197.682c0,3.954,3.206,7.158,7.159,7.158  h116.616c3.953,0,7.158-3.205,7.158-7.158V97.159C257.467,93.205,254.262,90,250.308,90z"/>
<path style="fill:#EBF0F3;" d="M250.308,82H133.692c-3.954,0-7.159,3.205-7.159,7.159v197.682c0,3.954,3.206,7.158,7.159,7.158  h116.616c3.953,0,7.158-3.205,7.158-7.158V89.159C257.467,85.205,254.262,82,250.308,82z"/>
<rect x="142.532" y="98" style="fill:#64798A;" width="98.932" height="162.352"/>
<rect x="142.532" y="237.6" style="fill:#3A556A;" width="98.932" height="22.736"/>
<path style="fill:#64798A;" d="M191.999,289.104c-6.114,0-11.086-4.974-11.086-11.088c0-6.113,4.972-11.088,11.086-11.088  c6.113,0,11.09,4.975,11.09,11.088C203.089,284.129,198.112,289.104,191.999,289.104z M191.999,270.928  c-3.906,0-7.086,3.18-7.086,7.088c0,3.908,3.18,7.088,7.086,7.088c3.91,0,7.09-3.18,7.09-7.088  C199.089,274.108,195.909,270.928,191.999,270.928z"/>
<path style="fill:#44C4A1;" d="M160.752,241.814h-10.437c-1.196,0-2.166,0.97-2.166,2.166v10.437c0,1.196,0.97,2.166,2.166,2.166  h10.437c1.196,0,2.166-0.97,2.166-2.166V243.98C162.918,242.784,161.948,241.814,160.752,241.814z"/>
<path style="fill:#FCD462;" d="M185.063,241.814h-10.437c-1.196,0-2.166,0.97-2.166,2.166v10.437c0,1.196,0.97,2.166,2.166,2.166  h10.437c1.196,0,2.166-0.97,2.166-2.166V243.98C187.229,242.784,186.259,241.814,185.063,241.814z"/>
<path style="fill:#27A2DB;" d="M209.374,241.814h-10.437c-1.196,0-2.166,0.97-2.166,2.166v10.437c0,1.196,0.97,2.166,2.166,2.166  h10.437c1.196,0,2.166-0.97,2.166-2.166V243.98C211.54,242.784,210.57,241.814,209.374,241.814z"/>
<path style="fill:#DC8744;" d="M233.685,241.814h-10.437c-1.196,0-2.166,0.97-2.166,2.166v10.437c0,1.196,0.97,2.166,2.166,2.166  h10.437c1.196,0,2.166-0.97,2.166-2.166V243.98C235.851,242.784,234.881,241.814,233.685,241.814z"/>
<circle style="fill:#FFFFFF;" cx="192" cy="166.812" r="34.108"/>
<g>
	<circle style="fill:#44C4A1;" cx="192" cy="149.36" r="12.756"/>
	<path style="fill:#44C4A1;" d="M192,195.104c10.063,0,18.883-5.334,23.848-13.306c-3.997-9.214-13.166-15.663-23.848-15.663   c-10.682,0-19.852,6.45-23.848,15.663C173.117,189.77,181.937,195.104,192,195.104z"/>
</g>
<g>
</g>
<g>
</g>
<g>
</g>
<g>
</g>
<g>
</g>
<g>
</g>
<g>
</g>
<g>
</g>
<g>
</g>
<g>
</g>
<g>
</g>
<g>
</g>
<g>
</g>
<g>
</g>
<g>
</g>
</svg>
