<?xml version="1.0" encoding="iso-8859-1"?>
<!-- Generator: Adobe Illustrator 19.0.0, SVG Export Plug-In . SVG Version: 6.00 Build 0)  -->
<svg xmlns="http://www.w3.org/2000/svg" xmlns:xlink="http://www.w3.org/1999/xlink" version="1.1" id="Capa_1" x="0px" y="0px" viewBox="0 0 384 384" style="enable-background:new 0 0 384 384;" xml:space="preserve">
<circle style="fill:#45B39C;" cx="192" cy="192" r="192"/>
<path style="opacity:0.1;enable-background:new    ;" d="M382.99,211.778L255.68,84.438l-0.64-0.64l-0.04-0.04  c-1.24-1.12-2.88-1.76-4.68-1.76H133.68c-3.96,0-7.16,3.2-7.16,7.16v205.68c0,1.88,0.72,3.6,1.92,4.88l0.36,0.36l82.949,82.916  C302.006,373.771,373.754,302.032,382.99,211.778z"/>
<path style="fill:#3A556A;" d="M250.308,90H133.692c-3.954,0-7.159,3.205-7.159,7.159v197.682c0,3.954,3.206,7.158,7.159,7.158  h116.616c3.953,0,7.158-3.205,7.158-7.158V97.159C257.467,93.205,254.262,90,250.308,90z"/>
<path style="fill:#64798A;" d="M250.308,82H133.692c-3.954,0-7.159,3.205-7.159,7.159v197.682c0,3.954,3.206,7.158,7.159,7.158  h116.616c3.953,0,7.158-3.205,7.158-7.158V89.159C257.467,85.205,254.262,82,250.308,82z"/>
<rect x="142.532" y="98" style="fill:#EBF0F3;" width="98.932" height="162.352"/>
<rect x="142.532" y="237.6" style="fill:#D5D6DB;" width="98.932" height="22.736"/>
<circle style="fill:#EBF0F3;" cx="192" cy="278" r="9.088"/>
<path style="fill:#44C4A1;" d="M160.752,241.814h-10.437c-1.196,0-2.166,0.97-2.166,2.166v10.437c0,1.196,0.97,2.166,2.166,2.166  h10.437c1.196,0,2.166-0.97,2.166-2.166V243.98C162.918,242.784,161.948,241.814,160.752,241.814z"/>
<path style="fill:#64798A;" d="M185.063,241.814h-10.437c-1.196,0-2.166,0.97-2.166,2.166v10.437c0,1.196,0.97,2.166,2.166,2.166  h10.437c1.196,0,2.166-0.97,2.166-2.166V243.98C187.229,242.784,186.259,241.814,185.063,241.814z"/>
<path style="fill:#27A2DB;" d="M209.374,241.814h-10.437c-1.196,0-2.166,0.97-2.166,2.166v10.437c0,1.196,0.97,2.166,2.166,2.166  h10.437c1.196,0,2.166-0.97,2.166-2.166V243.98C211.54,242.784,210.57,241.814,209.374,241.814z"/>
<path style="fill:#DC8744;" d="M233.685,241.814h-10.437c-1.196,0-2.166,0.97-2.166,2.166v10.437c0,1.196,0.97,2.166,2.166,2.166  h10.437c1.196,0,2.166-0.97,2.166-2.166V243.98C235.851,242.784,234.881,241.814,233.685,241.814z"/>
<path style="fill:#E56353;" d="M150.385,159.359v-6.576l23.328-10.992v7.057l-15.41,7.103l15.41,7.297v7.104L150.385,159.359z"/>
<path style="fill:#2F4859;" d="M198.67,136.366h6.816l-20.16,44.018h-6.766L198.67,136.366z"/>
<path style="fill:#E56353;" d="M233.615,152.782v6.576l-23.328,10.992v-7.104l15.41-7.297l-15.41-7.103v-7.057L233.615,152.782z"/>
<g>
</g>
<g>
</g>
<g>
</g>
<g>
</g>
<g>
</g>
<g>
</g>
<g>
</g>
<g>
</g>
<g>
</g>
<g>
</g>
<g>
</g>
<g>
</g>
<g>
</g>
<g>
</g>
<g>
</g>
</svg>
