<?xml version="1.0" encoding="iso-8859-1"?>
<!-- Generator: Adobe Illustrator 19.0.0, SVG Export Plug-In . SVG Version: 6.00 Build 0)  -->
<svg xmlns="http://www.w3.org/2000/svg" xmlns:xlink="http://www.w3.org/1999/xlink" version="1.1" id="Capa_1" x="0px" y="0px" viewBox="0 0 384 384" style="enable-background:new 0 0 384 384;" xml:space="preserve">
<circle style="fill:#EA8953;" cx="192" cy="192" r="192"/>
<path style="opacity:0.1;enable-background:new    ;" d="M250.32,81.99H133.68c-3.92,0-7.12,3.2-7.12,7.159v83.32h-22.68  c-3.12,0-5.68,2.52-5.68,5.641v39.64c0,1.6,0.68,3.04,1.76,4.08l26.6,26.56v46.44c0,1.96,0.76,3.72,2.04,5l83.163,83.162  c90.274-9.231,162.03-81.002,171.236-171.283L255.32,84.03C254.04,82.75,252.28,81.99,250.32,81.99z"/>
<path style="fill:#3A556A;" d="M250.315,90H133.7c-3.954,0-7.159,3.205-7.159,7.159v197.682c0,3.954,3.206,7.159,7.159,7.159  h116.616c3.953,0,7.158-3.205,7.158-7.159V97.159C257.474,93.205,254.269,90,250.315,90z"/>
<path style="fill:#64798A;" d="M250.315,82H133.7c-3.954,0-7.159,3.205-7.159,7.159v197.682c0,3.954,3.206,7.159,7.159,7.159  h116.616c3.953,0,7.158-3.205,7.158-7.159V89.159C257.474,85.205,254.269,82,250.315,82z"/>
<g>
	<rect x="142.54" y="98" style="fill:#EBF0F3;" width="98.932" height="162.352"/>
	<path style="fill:#EBF0F3;" d="M192.008,289.104c-6.113,0-11.09-4.975-11.09-11.088c0-6.113,4.977-11.088,11.09-11.088   s11.086,4.975,11.086,11.088C203.094,284.129,198.121,289.104,192.008,289.104z M192.008,270.928c-3.91,0-7.09,3.18-7.09,7.088   c0,3.908,3.18,7.088,7.09,7.088c3.906,0,7.086-3.18,7.086-7.088C199.094,274.108,195.915,270.928,192.008,270.928z"/>
</g>
<rect x="241.48" y="117.44" style="fill:#3A556A;" width="16" height="50.916"/>
<path style="fill:#E1E6E9;" d="M208.384,123.086v39.624c0,3.119,2.527,5.647,5.648,5.647h5.5v12.601  c0,2.224,2.687,3.338,4.262,1.766l14.367-14.367h3.312V117.44h-27.441C210.911,117.44,208.384,119.968,208.384,123.086z"/>
<path style="fill:#FCD462;" d="M280.135,113.309h-66.104c-3.12,0-5.646,2.528-5.646,5.647v39.624c0,3.119,2.527,5.647,5.646,5.647  h5.502v12.602c0,2.224,2.688,3.338,4.261,1.765l14.367-14.367h41.974c3.118,0,5.646-2.528,5.646-5.647v-39.624  C285.781,115.837,283.253,113.309,280.135,113.309z"/>
<g>
	<rect x="217.48" y="127.204" style="fill:#DC8744;" width="59.188" height="4.8"/>
	<rect x="217.48" y="143.204" style="fill:#DC8744;" width="59.188" height="4.8"/>
</g>
<rect x="126.528" y="176.6" style="fill:#3A556A;" width="16" height="50.916"/>
<path style="fill:#E1E6E9;" d="M175.616,182.253v39.624c0,3.118-2.527,5.647-5.648,5.647h-5.5v12.601  c0,2.224-2.687,3.338-4.262,1.766l-14.367-14.367h-3.312v-50.918h27.441C173.089,176.606,175.616,179.134,175.616,182.253z"/>
<path style="fill:#27A2DB;" d="M103.865,172.475h66.104c3.12,0,5.646,2.528,5.646,5.647v39.624c0,3.119-2.527,5.647-5.646,5.647  h-5.502v12.601c0,2.224-2.688,3.338-4.261,1.765l-14.367-14.366h-41.974c-3.118,0-5.646-2.528-5.646-5.647v-39.624  C98.219,175.003,100.747,172.475,103.865,172.475z"/>
<g>
	<rect x="107.324" y="186.752" style="fill:#EBF0F3;" width="59.188" height="4.8"/>
	<rect x="107.324" y="202.76" style="fill:#EBF0F3;" width="59.188" height="4.8"/>
</g>
<g>
</g>
<g>
</g>
<g>
</g>
<g>
</g>
<g>
</g>
<g>
</g>
<g>
</g>
<g>
</g>
<g>
</g>
<g>
</g>
<g>
</g>
<g>
</g>
<g>
</g>
<g>
</g>
<g>
</g>
</svg>
