<?xml version="1.0" encoding="iso-8859-1"?>
<!-- Generator: Adobe Illustrator 19.0.0, SVG Export Plug-In . SVG Version: 6.00 Build 0)  -->
<svg xmlns="http://www.w3.org/2000/svg" xmlns:xlink="http://www.w3.org/1999/xlink" version="1.1" id="Capa_1" x="0px" y="0px" viewBox="0 0 384 384" style="enable-background:new 0 0 384 384;" xml:space="preserve">
<circle style="fill:#EA8953;" cx="192" cy="192" r="192"/>
<path style="opacity:0.1;enable-background:new    ;" d="M384,192c0-0.372-0.026-0.737-0.028-1.108L302,108.92h-66.357  l-24.756-24.756l-0.002,0.004c-1.3-1.335-3.112-2.168-5.126-2.168H89.16C85.2,82,82,85.2,82,89.16v205.68  c0,1.906,0.754,3.624,1.964,4.906l-0.004,0.008l0.06,0.06c0.054,0.056,0.109,0.111,0.165,0.165l82.278,82.279  C174.824,383.37,183.336,384,192,384C298.039,384,384,298.038,384,192z"/>
<path style="fill:#64798A;" d="M205.775,82H89.159C85.206,82,82,85.205,82,89.159v205.682c0,3.954,3.206,7.159,7.159,7.159h116.616  c3.953,0,7.158-3.205,7.158-7.159V89.159C212.934,85.205,209.728,82,205.775,82z"/>
<rect x="98" y="98" style="fill:#EBF0F3;" width="98.932" height="170.352"/>
<rect x="98" y="245.6" style="fill:#1C75A1;" width="98.932" height="22.736"/>
<circle style="fill:#EBF0F3;" cx="147.468" cy="286" r="9.088"/>
<g>
	<path style="fill:#FFFFFF;" d="M116.219,249.814h-10.437c-1.196,0-2.166,0.97-2.166,2.166v10.437c0,1.196,0.97,2.166,2.166,2.166   h10.437c1.196,0,2.166-0.97,2.166-2.166V251.98C118.385,250.784,117.415,249.814,116.219,249.814z"/>
	<path style="fill:#FFFFFF;" d="M140.53,249.814h-10.437c-1.196,0-2.166,0.97-2.166,2.166v10.437c0,1.196,0.97,2.166,2.166,2.166   h10.437c1.196,0,2.166-0.97,2.166-2.166V251.98C142.696,250.784,141.726,249.814,140.53,249.814z"/>
	<path style="fill:#FFFFFF;" d="M164.841,249.814h-10.437c-1.196,0-2.166,0.97-2.166,2.166v10.437c0,1.196,0.97,2.166,2.166,2.166   h10.437c1.196,0,2.166-0.97,2.166-2.166V251.98C167.007,250.784,166.037,249.814,164.841,249.814z"/>
	<path style="fill:#FFFFFF;" d="M189.152,249.814h-10.437c-1.196,0-2.166,0.97-2.166,2.166v10.437c0,1.196,0.97,2.166,2.166,2.166   h10.437c1.196,0,2.166-0.97,2.166-2.166V251.98C191.318,250.784,190.348,249.814,189.152,249.814z"/>
</g>
<path style="fill:#FCD462;" d="M119.538,221.27h-12.902c-1.479,0-2.678,1.199-2.678,2.678v12.902c0,1.479,1.199,2.677,2.678,2.677  h12.902c1.479,0,2.678-1.198,2.678-2.677v-12.902C122.216,222.468,121.017,221.27,119.538,221.27z"/>
<path style="fill:#27A2DB;" d="M132.634,164.919h-12.902c-1.479,0-2.678,1.199-2.678,2.678v12.901c0,1.479,1.199,2.678,2.678,2.678  h12.902c1.479,0,2.677-1.199,2.677-2.678v-12.901C135.311,166.118,134.113,164.919,132.634,164.919z"/>
<path style="fill:#44C4A1;" d="M166.073,195.629h-12.902c-1.478,0-2.677,1.199-2.677,2.678v12.902c0,1.479,1.199,2.677,2.677,2.677  h12.902c1.478,0,2.677-1.198,2.677-2.677v-12.902C168.75,196.828,167.552,195.629,166.073,195.629z"/>
<g>
	<path style="fill:#E56353;" d="M188.297,221.27h-12.902c-1.479,0-2.678,1.199-2.678,2.678v12.902c0,1.479,1.199,2.677,2.678,2.677   h12.902c1.479,0,2.678-1.198,2.678-2.677v-12.902C190.975,222.468,189.776,221.27,188.297,221.27z"/>
	<path style="fill:#E56353;" d="M149.147,132.536h-12.902c-1.479,0-2.678,1.199-2.678,2.678v12.901c0,1.479,1.199,2.678,2.678,2.678   h12.902c1.479,0,2.678-1.199,2.678-2.678v-12.901C151.824,133.735,150.626,132.536,149.147,132.536z"/>
</g>
<path style="fill:#44C4A1;" d="M264.649,150.793h-12.902c-1.479,0-2.678,1.199-2.678,2.678v12.902c0,1.479,1.199,2.677,2.678,2.677  h12.902c1.479,0,2.678-1.198,2.678-2.677V153.47C267.327,151.992,266.128,150.793,264.649,150.793z"/>
<path style="fill:#FCD462;" d="M249.91,195.629h-12.902c-1.479,0-2.678,1.199-2.678,2.678v12.902c0,1.479,1.199,2.677,2.678,2.677  h12.902c1.479,0,2.678-1.198,2.678-2.677v-12.902C252.587,196.828,251.388,195.629,249.91,195.629z"/>
<path style="fill:#27A2DB;" d="M188.297,150.793h-12.902c-1.479,0-2.678,1.199-2.678,2.678v12.902c0,1.479,1.199,2.677,2.678,2.677  h12.902c1.479,0,2.678-1.198,2.678-2.677V153.47C190.975,151.992,189.776,150.793,188.297,150.793z"/>
<rect x="203.764" y="108.92" style="fill:#EBF0F3;" width="79.392" height="15.716"/>
<rect x="283.152" y="108.964" style="fill:#E56353;" width="18.848" height="15.716"/>
<g>
</g>
<g>
</g>
<g>
</g>
<g>
</g>
<g>
</g>
<g>
</g>
<g>
</g>
<g>
</g>
<g>
</g>
<g>
</g>
<g>
</g>
<g>
</g>
<g>
</g>
<g>
</g>
<g>
</g>
</svg>
