<?xml version="1.0" encoding="iso-8859-1"?>
<!-- Generator: Adobe Illustrator 19.0.0, SVG Export Plug-In . SVG Version: 6.00 Build 0)  -->
<svg xmlns="http://www.w3.org/2000/svg" xmlns:xlink="http://www.w3.org/1999/xlink" version="1.1" id="Capa_1" x="0px" y="0px" viewBox="0 0 384 384" style="enable-background:new 0 0 384 384;" xml:space="preserve">
<circle style="fill:#334D5C;" cx="192" cy="192" r="192"/>
<path style="opacity:0.1;enable-background:new    ;" d="M384,192c0-0.252-0.018-0.498-0.019-0.75L274.72,81.99H173.28v15.12  l-19.24,44.72v41.6h-62.2c-1,0-1.8,0.8-1.8,1.8v9.76c0,0.44,0.16,0.84,0.44,1.12c0.04,0.08,0.12,0.16,0.2,0.2l6.52,6.52l-6,7.6  c-0.72,0.96-1.16,2.12-1.16,3.32v82.88c0,1.44,0.56,2.72,1.44,3.68l0.12,0.12l82.76,82.731c5.813,0.53,11.689,0.84,17.64,0.84  C298.039,384,384,298.039,384,192z"/>
<path style="fill:#3EA69B;" d="M255.469,141.823V302h33.668c2.654,0,4.806-2.152,4.806-4.806V141.823H255.469z"/>
<path style="fill:#44C4A1;" d="M255.469,141.823H154.04v33.605h10.728c5.398,0,9.789,4.391,9.789,9.789v9.762  c0,3.492-1.84,6.566-4.602,8.297l1.738,2.203c1.848,2.359,2.863,5.289,2.863,8.27v82.89c0,1.909-0.417,3.718-1.142,5.362h82.054  V141.823z"/>
<polygon style="fill:#3EA69B;" points="255.47,141.823 154.04,141.823 173.276,97.096 274.706,97.096 "/>
<g>
	<polygon style="fill:#31978C;" points="274.706,97.096 293.943,141.823 255.47,141.823  "/>
	<rect x="173.28" y="82" style="fill:#31978C;" width="101.432" height="15.096"/>
</g>
<ellipse style="fill:#FFFFFF;" cx="204.76" cy="205.68" rx="21.288" ry="26.752"/>
<path style="fill:#3EA69B;" d="M174.557,213.748c0-2.98-1.016-5.91-2.863-8.27l-1.738-2.203c2.762-1.73,4.602-4.805,4.602-8.297  v-9.762c0-5.398-4.391-9.789-9.789-9.789H154.04v121.766c0,2.654,2.152,4.806,4.806,4.806h14.57  c0.724-1.644,1.142-3.452,1.142-5.362V213.748z"/>
<path style="fill:#FCD462;" d="M159.136,202.472H97.478l-6.271,7.96c-0.745,0.946-1.15,2.114-1.15,3.318v82.889  c0,2.961,2.4,5.361,5.361,5.361h65.778c2.961,0,5.361-2.4,5.361-5.361V213.75c0-1.204-0.405-2.372-1.15-3.318L159.136,202.472z"/>
<polyline style="fill:#F6C358;" points="97.478,202.472 97.478,191.062 159.136,191.062 159.136,202.472 "/>
<path style="fill:#E56353;" d="M164.768,183.428H91.846c-0.988,0-1.79,0.801-1.79,1.79v9.761c0,0.988,0.802,1.789,1.79,1.789h72.921  c0.988,0,1.79-0.801,1.79-1.789v-9.761C166.557,184.229,165.756,183.428,164.768,183.428z"/>
<g>
	<rect x="93" y="185.52" style="fill:#D15241;" width="1.472" height="9.156"/>
	<rect x="96.64" y="185.52" style="fill:#D15241;" width="1.472" height="9.156"/>
	<rect x="100.28" y="185.52" style="fill:#D15241;" width="1.472" height="9.156"/>
	<rect x="103.908" y="185.52" style="fill:#D15241;" width="1.472" height="9.156"/>
	<rect x="107.548" y="185.52" style="fill:#D15241;" width="1.472" height="9.156"/>
	<rect x="111.188" y="185.52" style="fill:#D15241;" width="1.472" height="9.156"/>
	<rect x="114.828" y="185.52" style="fill:#D15241;" width="1.472" height="9.156"/>
	<rect x="118.468" y="185.52" style="fill:#D15241;" width="1.472" height="9.156"/>
	<rect x="122.112" y="185.52" style="fill:#D15241;" width="1.472" height="9.156"/>
	<rect x="125.76" y="185.52" style="fill:#D15241;" width="1.472" height="9.156"/>
	<rect x="129.4" y="185.52" style="fill:#D15241;" width="1.472" height="9.156"/>
	<rect x="133.04" y="185.52" style="fill:#D15241;" width="1.472" height="9.156"/>
	<rect x="136.68" y="185.52" style="fill:#D15241;" width="1.472" height="9.156"/>
	<rect x="140.32" y="185.52" style="fill:#D15241;" width="1.472" height="9.156"/>
	<rect x="143.956" y="185.52" style="fill:#D15241;" width="1.472" height="9.156"/>
	<rect x="147.596" y="185.52" style="fill:#D15241;" width="1.472" height="9.156"/>
	<rect x="151.236" y="185.52" style="fill:#D15241;" width="1.472" height="9.156"/>
	<rect x="154.876" y="185.52" style="fill:#D15241;" width="1.472" height="9.156"/>
	<rect x="158.516" y="185.52" style="fill:#D15241;" width="1.472" height="9.156"/>
	<rect x="162.16" y="185.52" style="fill:#D15241;" width="1.472" height="9.156"/>
</g>
<g>
</g>
<g>
</g>
<g>
</g>
<g>
</g>
<g>
</g>
<g>
</g>
<g>
</g>
<g>
</g>
<g>
</g>
<g>
</g>
<g>
</g>
<g>
</g>
<g>
</g>
<g>
</g>
<g>
</g>
</svg>
