<?xml version="1.0" encoding="iso-8859-1"?>
<!-- Generator: Adobe Illustrator 19.0.0, SVG Export Plug-In . SVG Version: 6.00 Build 0)  -->
<svg xmlns="http://www.w3.org/2000/svg" xmlns:xlink="http://www.w3.org/1999/xlink" version="1.1" id="Capa_1" x="0px" y="0px" viewBox="0 0 384 384" style="enable-background:new 0 0 384 384;" xml:space="preserve">
<circle style="fill:#E05B49;" cx="192" cy="192" r="192"/>
<path style="opacity:0.1;enable-background:new    ;" d="M377.112,242.952L226.52,92.36C220.44,85.44,206.2,82,192,82  c-14.2,0-28.44,3.44-34.52,10.36c-11.28,12.76-17.36,43.4-17.44,73.44l-10.343-0.029l-5.682-5.681  c-0.066-0.071-0.136-0.137-0.205-0.205l-0.086-0.086l-0.003,0.011c-1.052-0.987-2.445-1.609-4.002-1.609c-3.24,0-5.92,2.6-5.96,5.8  c-0.28,34.08,7.88,68.2,26.08,84.88l34.668,34.668c-17.278,1.226-31.188,4.302-31.188,9.292V302l79.505,79.505  C297.325,369.478,357.434,314.596,377.112,242.952z"/>
<path style="fill:#E1E6E9;" d="M226.536,92.376C220.431,85.459,206.216,82,192,82v161.459c13.91,0,27.82-3.074,34.536-9.223  C250.88,211.946,248.668,117.454,226.536,92.376z"/>
<path style="fill:#EBF0F3;" d="M157.464,92.376c-22.131,25.078-24.344,119.57,0,141.859c6.716,6.149,20.626,9.223,34.536,9.223V82  C177.785,82,163.569,85.459,157.464,92.376z"/>
<path style="fill:#DC8744;" d="M192.064,177.367c-17.46,0-34.938-1.261-52.321-3.775l-16.482-0.004v-7.848l17.329,0.046  c34.198,4.974,68.788,4.974,102.818,0l0.567-0.042l16.892-0.004v7.848l-16.608,0.004  C226.964,176.106,209.524,177.367,192.064,177.367z"/>
<g>
	<path style="fill:#64798A;" d="M244.144,248.882c18.233-16.692,26.367-50.784,26.088-84.865c-0.026-3.229-2.71-5.808-5.938-5.808   l0,0c-3.333,0-5.962,2.742-5.934,6.074c0.254,30.904-6.636,61.698-22.164,75.915c-12.872,11.788-33.213,13.547-44.196,13.547   c-10.979,0-31.324-1.759-44.196-13.547c-15.526-14.217-22.416-45.012-22.162-75.915c0.028-3.333-2.602-6.074-5.934-6.074h0   c-3.229,0-5.912,2.58-5.939,5.808c-0.278,34.081,7.856,68.172,26.087,84.865c12.076,11.057,28.714,14.92,41.559,16.132v18.151   c-20.347,0.822-38.109,4.036-38.109,9.661V302h38.109h21.172h38.11v-9.174c0-5.624-17.763-8.839-38.11-9.661v-18.151   C215.433,263.802,232.07,259.94,244.144,248.882z"/>
	<circle style="fill:#64798A;" cx="164.48" cy="105.6" r="3.036"/>
	<circle style="fill:#64798A;" cx="178.24" cy="105.6" r="3.036"/>
	<circle style="fill:#64798A;" cx="192" cy="105.6" r="3.036"/>
	<circle style="fill:#64798A;" cx="205.76" cy="105.6" r="3.036"/>
	<circle style="fill:#64798A;" cx="219.512" cy="105.6" r="3.036"/>
	<circle style="fill:#64798A;" cx="171.364" cy="116.6" r="3.036"/>
	<circle style="fill:#64798A;" cx="185.12" cy="116.6" r="3.036"/>
	<circle style="fill:#64798A;" cx="198.88" cy="116.6" r="3.036"/>
	<circle style="fill:#64798A;" cx="212.64" cy="116.6" r="3.036"/>
	<circle style="fill:#64798A;" cx="171.364" cy="94.6" r="3.036"/>
	<circle style="fill:#64798A;" cx="185.12" cy="94.6" r="3.036"/>
	<circle style="fill:#64798A;" cx="198.88" cy="94.6" r="3.036"/>
	<circle style="fill:#64798A;" cx="212.64" cy="94.6" r="3.036"/>
	<circle style="fill:#64798A;" cx="164.48" cy="127.8" r="3.036"/>
	<circle style="fill:#64798A;" cx="178.24" cy="127.8" r="3.036"/>
	<circle style="fill:#64798A;" cx="192" cy="127.8" r="3.036"/>
	<circle style="fill:#64798A;" cx="205.76" cy="127.8" r="3.036"/>
	<circle style="fill:#64798A;" cx="219.512" cy="127.8" r="3.036"/>
	<circle style="fill:#64798A;" cx="171.364" cy="138.804" r="3.036"/>
	<circle style="fill:#64798A;" cx="185.12" cy="138.804" r="3.036"/>
	<circle style="fill:#64798A;" cx="198.88" cy="138.804" r="3.036"/>
	<circle style="fill:#64798A;" cx="212.64" cy="138.804" r="3.036"/>
	<circle style="fill:#64798A;" cx="164.48" cy="150" r="3.036"/>
	<circle style="fill:#64798A;" cx="178.24" cy="150" r="3.036"/>
	<circle style="fill:#64798A;" cx="192" cy="150" r="3.036"/>
	<circle style="fill:#64798A;" cx="205.76" cy="150" r="3.036"/>
	<circle style="fill:#64798A;" cx="219.512" cy="150" r="3.036"/>
	<circle style="fill:#64798A;" cx="171.364" cy="161" r="3.036"/>
	<circle style="fill:#64798A;" cx="158.4" cy="116.6" r="3.036"/>
	<circle style="fill:#64798A;" cx="151.54" cy="127.8" r="3.036"/>
	<circle style="fill:#64798A;" cx="158.4" cy="138.804" r="3.036"/>
	<circle style="fill:#64798A;" cx="151.54" cy="150" r="3.036"/>
	<circle style="fill:#64798A;" cx="158.4" cy="161" r="3.036"/>
	<circle style="fill:#64798A;" cx="185.12" cy="161" r="3.036"/>
	<circle style="fill:#64798A;" cx="198.88" cy="161" r="3.036"/>
	<circle style="fill:#64798A;" cx="212.64" cy="161" r="3.036"/>
	<circle style="fill:#64798A;" cx="227.256" cy="116.6" r="3.036"/>
	<circle style="fill:#64798A;" cx="234.12" cy="127.8" r="3.036"/>
	<circle style="fill:#64798A;" cx="227.256" cy="138.804" r="3.036"/>
	<circle style="fill:#64798A;" cx="234.12" cy="150" r="3.036"/>
	<circle style="fill:#64798A;" cx="227.256" cy="161" r="3.036"/>
	<path style="fill:#64798A;" d="M174.402,216.403c-2.737,0-4.957,2.22-4.957,4.957v19.022c3.064,0.938,6.401,1.658,9.914,2.162   V221.36C179.358,218.623,177.139,216.403,174.402,216.403z"/>
	<path style="fill:#64798A;" d="M192,216.403c-2.737,0-4.957,2.22-4.957,4.957v21.961c1.644,0.088,3.3,0.138,4.957,0.138   c1.657,0,3.313-0.05,4.957-0.138V221.36C196.957,218.623,194.738,216.403,192,216.403z"/>
	<path style="fill:#64798A;" d="M209.599,216.403c-2.737,0-4.957,2.22-4.957,4.957v21.184c3.513-0.504,6.85-1.224,9.914-2.162   V221.36C214.556,218.623,212.336,216.403,209.599,216.403z"/>
</g>
<g>
</g>
<g>
</g>
<g>
</g>
<g>
</g>
<g>
</g>
<g>
</g>
<g>
</g>
<g>
</g>
<g>
</g>
<g>
</g>
<g>
</g>
<g>
</g>
<g>
</g>
<g>
</g>
<g>
</g>
</svg>
