<?xml version="1.0" encoding="iso-8859-1"?>
<!-- Generator: Adobe Illustrator 19.0.0, SVG Export Plug-In . SVG Version: 6.00 Build 0)  -->
<svg xmlns="http://www.w3.org/2000/svg" xmlns:xlink="http://www.w3.org/1999/xlink" version="1.1" id="Capa_1" x="0px" y="0px" viewBox="0 0 384 384" style="enable-background:new 0 0 384 384;" xml:space="preserve">
<circle style="fill:#45B39C;" cx="192" cy="192" r="192"/>
<path style="opacity:0.1;enable-background:new    ;" d="M226.6,96.31c-6.52,0-12.72-2.56-17.32-7.16  c-4.76-4.76-11.04-7.16-17.28-7.16c-6.24,0-12.52,2.4-17.28,7.16c-4.6,4.6-10.8,7.16-17.28,7.16h-0.04  c-13.48,0-24.44,10.96-24.44,24.48c0,6.48-2.56,12.68-7.16,17.28c-4.76,4.8-7.16,11.04-7.16,17.28c0,6.28,2.4,12.52,7.16,17.28  c4.6,4.6,7.16,10.84,7.16,17.32c0,4.68,1.32,9,3.6,12.72c2.24,3.68,5.48,6.76,9.32,8.8l-34.52,70.32l101.113,101.112  c80.982-8.586,146.905-67.515,165.94-144.9L243.88,103.469C239.44,99.03,233.36,96.31,226.6,96.31z"/>
<polygon style="fill:#E56353;" points="186.87,211.224 231.408,302 245.128,277.851 207.477,201.114 "/>
<g>
	<polygon style="fill:#D15241;" points="207.477,201.114 245.128,277.851 272.625,281.778 228.086,191.002  "/>
	<polygon style="fill:#D15241;" points="197.13,211.224 152.592,302 138.872,277.851 176.523,201.114  "/>
</g>
<polygon style="fill:#E56353;" points="176.523,201.114 138.872,277.851 111.375,281.778 155.914,191.002 "/>
<path style="fill:#FCD462;" d="M258.194,138.066L258.194,138.066c-4.586-4.586-7.162-10.805-7.162-17.29v-0.001  c0-13.504-10.948-24.451-24.451-24.451h-0.001c-6.484,0-12.704-2.576-17.29-7.161l-0.001-0.001c-9.549-9.549-25.03-9.548-34.579,0  l0,0c-4.586,4.586-10.805,7.162-17.29,7.162h-0.001c-13.504,0-24.451,10.947-24.451,24.451v0.001c0,6.485-2.576,12.705-7.162,17.29  l-0.001,0c-9.549,9.549-9.549,25.031,0,34.58l0.001,0.001c4.586,4.586,7.162,10.805,7.162,17.29v0.001  c0,13.504,10.947,24.451,24.451,24.451h0.001c6.484,0,12.704,2.576,17.29,7.162v0c9.549,9.549,25.03,9.549,34.579,0l0.001-0.001  c4.586-4.585,10.805-7.161,17.29-7.161h0.001c13.504,0,24.451-10.947,24.451-24.451v-0.001c0-6.485,2.576-12.704,7.162-17.29v-0.001  C267.744,163.098,267.743,147.616,258.194,138.066z"/>
<path style="fill:#DC8744;" d="M192,207.758c-28.894,0-52.402-23.506-52.402-52.4s23.508-52.402,52.402-52.402  c28.895,0,52.402,23.508,52.402,52.402S220.895,207.758,192,207.758z M192,110.955c-24.484,0-44.402,19.918-44.402,44.402  c0,24.482,19.918,44.4,44.402,44.4c24.484,0,44.402-19.918,44.402-44.4C236.402,130.873,216.484,110.955,192,110.955z"/>
<g>
</g>
<g>
</g>
<g>
</g>
<g>
</g>
<g>
</g>
<g>
</g>
<g>
</g>
<g>
</g>
<g>
</g>
<g>
</g>
<g>
</g>
<g>
</g>
<g>
</g>
<g>
</g>
<g>
</g>
</svg>
