<?xml version="1.0" encoding="iso-8859-1"?>
<!-- Generator: Adobe Illustrator 19.0.0, SVG Export Plug-In . SVG Version: 6.00 Build 0)  -->
<svg xmlns="http://www.w3.org/2000/svg" xmlns:xlink="http://www.w3.org/1999/xlink" version="1.1" id="Capa_1" x="0px" y="0px" viewBox="0 0 384 384" style="enable-background:new 0 0 384 384;" xml:space="preserve">
<circle style="fill:#EA8953;" cx="192" cy="192" r="192"/>
<path style="opacity:0.1;enable-background:new    ;" d="M384,192c0-10.356-0.845-20.512-2.424-30.424L302,82l-29.56,7.52  l-19.12,4.8l-0.04,0.04l-24.64,6.24L155.32,82L82,100.6V302l79.576,79.576C171.488,383.155,181.644,384,192,384  C298.039,384,384,298.038,384,192z"/>
<polygon style="fill:#44C4A1;" points="155.324,283.39 81.99,302 81.99,100.61 155.324,82 "/>
<polygon style="fill:#3EA69B;" points="155.324,283.39 228.657,302 228.657,100.61 155.324,82 "/>
<polygon style="fill:#44C4A1;" points="301.99,283.39 228.657,302 228.657,100.61 301.99,82 "/>
<polygon style="fill:#FCD462;" points="302.01,268.33 302.01,283.369 300.489,283.77 228.65,211.97 182.289,165.57 155.33,186.81   82.01,244.57 82.01,229.33 155.33,171.57 228.65,113.77 253.33,94.33 281.97,87.09 228.65,129.05 191.77,158.09 "/>
<g>
</g>
<g>
</g>
<g>
</g>
<g>
</g>
<g>
</g>
<g>
</g>
<g>
</g>
<g>
</g>
<g>
</g>
<g>
</g>
<g>
</g>
<g>
</g>
<g>
</g>
<g>
</g>
<g>
</g>
</svg>
