<?xml version="1.0" encoding="iso-8859-1"?>
<!-- Generator: Adobe Illustrator 19.0.0, SVG Export Plug-In . SVG Version: 6.00 Build 0)  -->
<svg xmlns="http://www.w3.org/2000/svg" xmlns:xlink="http://www.w3.org/1999/xlink" version="1.1" id="Capa_1" x="0px" y="0px" viewBox="0 0 384 384" style="enable-background:new 0 0 384 384;" xml:space="preserve">
<circle style="fill:#E05B49;" cx="192" cy="192" r="192"/>
<path style="opacity:0.1;enable-background:new    ;" d="M384,192c0-9.306-0.698-18.447-1.978-27.399L300.76,83.316  c-0.8-0.799-1.92-1.319-3.16-1.319H86.4c-2.44,0-4.4,1.96-4.4,4.4v46.801c0,1.119,0.4,2.119,1.08,2.88l0.4,0.4l34.64,34.64H86.4  c-2.44,0-4.4,1.96-4.4,4.4v46.799c0,1.121,0.4,2.16,1.12,2.921h-0.04l42.44,42.439H82v34.32l79.579,79.579  C171.49,383.154,181.645,384,192,384C298.039,384,384,298.038,384,192z"/>
<g>
	<path style="fill:#FFFFFF;" d="M297.6,82H86.401C83.971,82,82,83.97,82,86.401v46.805c0,2.43,1.971,4.401,4.401,4.401H297.6   c2.43,0,4.4-1.971,4.4-4.401V86.401C302,83.97,300.029,82,297.6,82z"/>
	<path style="fill:#FFFFFF;" d="M297.6,171.108H86.401c-2.43,0-4.401,1.97-4.401,4.401v46.805c0,2.431,1.971,4.401,4.401,4.401   H297.6c2.43,0,4.4-1.97,4.4-4.401v-46.805C302,173.078,300.029,171.108,297.6,171.108z"/>
</g>
<rect x="82" y="267.672" style="fill:#64798A;" width="220" height="34.328"/>
<g>
	<polygon style="fill:#FFFFFF;" points="170.231,277.297 168.058,277.297 168.058,290.188 176.114,290.188 176.114,288.123    170.231,288.123  "/>
	<path style="fill:#FFFFFF;" d="M182.549,280.23c-1.47,0-2.701,0.489-3.686,1.468c-0.984,0.976-1.477,2.173-1.477,3.587   s0.492,2.608,1.477,3.587c0.984,0.976,2.215,1.465,3.686,1.465c1.477,0,2.708-0.489,3.692-1.465   c0.984-0.978,1.477-2.173,1.477-3.587s-0.492-2.611-1.477-3.587C185.256,280.719,184.026,280.23,182.549,280.23z M184.776,287.598   c-0.588,0.594-1.326,0.894-2.227,0.894c-0.894,0-1.633-0.3-2.221-0.894c-0.582-0.597-0.876-1.368-0.876-2.314   c0-0.948,0.294-1.72,0.876-2.314c0.588-0.598,1.326-0.895,2.221-0.895c0.901,0,1.639,0.297,2.227,0.895   c0.582,0.594,0.876,1.366,0.876,2.314C185.652,286.23,185.358,287.001,184.776,287.598z"/>
	<path style="fill:#FFFFFF;" d="M197.064,281.835c-0.81-1.072-1.867-1.606-3.164-1.606c-1.296,0-2.359,0.456-3.199,1.366   c-0.834,0.909-1.255,2.041-1.255,3.392c0,1.354,0.42,2.485,1.255,3.395c0.84,0.909,1.909,1.366,3.212,1.366   c0.714,0,1.356-0.174,1.927-0.516c0.57-0.345,1.008-0.807,1.321-1.384v1.255c0,1.104-0.288,1.909-0.859,2.413   c-0.576,0.504-1.35,0.756-2.323,0.756c-0.979,0-1.945-0.363-2.906-1.087l-0.978,1.567c1.194,0.922,2.527,1.384,4.004,1.384   c1.471,0,2.683-0.435,3.62-1.3c0.942-0.867,1.411-2.167,1.411-3.902v-8.557h-2.065V281.835z M196.284,287.016   c-0.522,0.567-1.206,0.849-2.047,0.849c-0.846,0-1.513-0.291-2.011-0.876c-0.498-0.582-0.75-1.279-0.75-2.083   c0-0.804,0.252-1.51,0.75-2.113c0.498-0.6,1.165-0.904,1.999-0.904c0.834,0,1.519,0.294,2.047,0.876   c0.528,0.585,0.792,1.297,0.792,2.14C197.064,285.746,196.806,286.452,196.284,287.016z"/>
	<rect x="202.12" y="280.36" style="fill:#FFFFFF;" width="2.064" height="9.812"/>
	<path style="fill:#FFFFFF;" d="M203.169,276.192c-0.354,0-0.666,0.129-0.924,0.387c-0.258,0.258-0.384,0.564-0.384,0.922   c0,0.357,0.126,0.663,0.384,0.921c0.258,0.258,0.57,0.387,0.924,0.387s0.666-0.129,0.924-0.387   c0.258-0.258,0.384-0.564,0.384-0.921c0-0.357-0.126-0.664-0.384-0.922S203.523,276.192,203.169,276.192z"/>
	<path style="fill:#FFFFFF;" d="M215.187,281.244c-0.684-0.675-1.579-1.014-2.684-1.014c-0.678,0-1.308,0.174-1.891,0.516   c-0.588,0.345-1.044,0.82-1.375,1.42v-1.789h-2.065v9.812h2.065v-5.31c0-0.912,0.264-1.603,0.792-2.077   c0.528-0.471,1.147-0.708,1.861-0.708c1.501,0,2.251,0.904,2.251,2.71v5.385h2.065v-6.012   C216.208,282.898,215.866,281.919,215.187,281.244z"/>
</g>
<g>
	<rect x="98.34" y="105.8" style="fill:#D5D6DB;" width="130.264" height="8"/>
	<rect x="100.32" y="191.196" style="fill:#D5D6DB;" width="4" height="15.432"/>
	
		<rect x="94.601" y="196.92" transform="matrix(-0.8661 0.4999 -0.4999 -0.8661 290.3749 320.0494)" style="fill:#D5D6DB;" width="15.432" height="4"/>
	
		<rect x="100.33" y="191.191" transform="matrix(-0.5001 0.866 -0.866 -0.5001 325.7525 209.7611)" style="fill:#D5D6DB;" width="4" height="15.432"/>
	<rect x="128.16" y="191.196" style="fill:#D5D6DB;" width="4" height="15.432"/>
	
		<rect x="122.465" y="196.915" transform="matrix(-0.8661 0.4999 -0.4999 -0.8661 342.3685 306.1087)" style="fill:#D5D6DB;" width="15.432" height="4"/>
	
		<rect x="128.168" y="191.21" transform="matrix(-0.5001 0.866 -0.866 -0.5001 367.5286 185.6825)" style="fill:#D5D6DB;" width="4" height="15.432"/>
	<rect x="156.04" y="191.196" style="fill:#D5D6DB;" width="4" height="15.432"/>
	
		<rect x="150.326" y="196.923" transform="matrix(-0.8661 0.4999 -0.4999 -0.8661 394.3627 292.196)" style="fill:#D5D6DB;" width="15.432" height="4"/>
	
		<rect x="156.034" y="191.199" transform="matrix(-0.5001 0.866 -0.866 -0.5001 409.3202 161.5336)" style="fill:#D5D6DB;" width="4" height="15.432"/>
	<rect x="183.908" y="191.196" style="fill:#D5D6DB;" width="4" height="15.432"/>
	
		<rect x="178.204" y="196.929" transform="matrix(-0.8661 0.4999 -0.4999 -0.8661 446.3882 278.2708)" style="fill:#D5D6DB;" width="15.432" height="4"/>
	
		<rect x="183.908" y="191.194" transform="matrix(-0.5001 0.866 -0.866 -0.5001 451.1276 137.3822)" style="fill:#D5D6DB;" width="4" height="15.432"/>
	<rect x="211.772" y="191.196" style="fill:#D5D6DB;" width="4" height="15.432"/>
	
		<rect x="206.047" y="196.927" transform="matrix(-0.8661 0.4999 -0.4999 -0.8661 498.3451 264.348)" style="fill:#D5D6DB;" width="15.432" height="4"/>
	
		<rect x="211.785" y="191.216" transform="matrix(-0.5001 0.866 -0.866 -0.5001 492.9652 113.2807)" style="fill:#D5D6DB;" width="4" height="15.432"/>
</g>
<g>
</g>
<g>
</g>
<g>
</g>
<g>
</g>
<g>
</g>
<g>
</g>
<g>
</g>
<g>
</g>
<g>
</g>
<g>
</g>
<g>
</g>
<g>
</g>
<g>
</g>
<g>
</g>
<g>
</g>
</svg>
