<?xml version="1.0" encoding="iso-8859-1"?>
<!-- Generator: Adobe Illustrator 19.0.0, SVG Export Plug-In . SVG Version: 6.00 Build 0)  -->
<svg xmlns="http://www.w3.org/2000/svg" xmlns:xlink="http://www.w3.org/1999/xlink" version="1.1" id="Capa_1" x="0px" y="0px" viewBox="0 0 384 384" style="enable-background:new 0 0 384 384;" xml:space="preserve">
<circle style="fill:#334D5C;" cx="192" cy="192" r="192"/>
<path style="opacity:0.1;enable-background:new    ;" d="M377.317,242.233L236.76,101.676c-0.87-0.931-1.774-1.822-2.698-2.697  l-1.024-1.024l-0.009,0.064C222.088,88.089,207.742,82,192,82c-34.16,0-61.96,28.44-61.96,63.36V159h-0.92  c-9.92,0-17.96,8-17.96,17.92v107.16c0,5.035,2.104,9.575,5.465,12.834l-0.009,0.009l86.717,86.717  C286.956,378.768,356.179,320.392,377.317,242.233z"/>
<path style="fill:#EBF0F3;" d="M111.178,176.91v107.162c0,9.901,8.027,17.928,17.928,17.928h124.842V176.91H111.178z"/>
<path style="fill:#E1E6E9;" d="M253.948,176.91V302h0.945c9.902,0,17.928-8.027,17.928-17.928V176.91H253.948z"/>
<path style="fill:#D5D6DB;" d="M254.894,158.982H129.106c-9.902,0-17.928,8.027-17.928,17.928l0,0  c0,9.901,8.026,17.928,17.928,17.928h125.787c9.902,0,17.928-8.026,17.928-17.928l0,0  C272.822,167.009,264.795,158.982,254.894,158.982z"/>
<g>
	<path style="fill:#64798A;" d="M253.949,176.072h-12v-30.717c0-28.318-22.414-51.356-49.965-51.356   c-27.547,0-49.961,23.037-49.961,51.356v30.717h-12v-30.717c0-34.934,27.797-63.356,61.961-63.356   c34.168,0,61.965,28.422,61.965,63.356V176.072z"/>
	<path style="fill:#64798A;" d="M205.991,235.642c0-7.727-6.264-13.991-13.99-13.991c-7.727,0-13.991,6.264-13.991,13.991   c0,5.064,2.717,9.46,6.748,11.915l-4.834,22.16h24.697l-4.892-22.423C203.499,244.789,205.991,240.51,205.991,235.642z"/>
</g>
<g>
</g>
<g>
</g>
<g>
</g>
<g>
</g>
<g>
</g>
<g>
</g>
<g>
</g>
<g>
</g>
<g>
</g>
<g>
</g>
<g>
</g>
<g>
</g>
<g>
</g>
<g>
</g>
<g>
</g>
</svg>
