<?xml version="1.0" encoding="iso-8859-1"?>
<!-- Generator: Adobe Illustrator 19.0.0, SVG Export Plug-In . SVG Version: 6.00 Build 0)  -->
<svg xmlns="http://www.w3.org/2000/svg" xmlns:xlink="http://www.w3.org/1999/xlink" version="1.1" id="Capa_1" x="0px" y="0px" viewBox="0 0 384 384" style="enable-background:new 0 0 384 384;" xml:space="preserve">
<circle style="fill:#45B39C;" cx="192" cy="192" r="192"/>
<path style="opacity:0.1;enable-background:new    ;" d="M192,82c-30.36,0-57.88,12.32-77.8,32.2C94.32,134.12,82,161.64,82,192  s12.32,57.88,32.2,77.8l111.238,111.238c79.223-13.921,141.679-76.377,155.6-155.6L269.8,114.2C249.88,94.32,222.36,82,192,82z"/>
<g>
	<path style="fill:#FFFFFF;" d="M192,269.782V302c30.376,0,57.876-12.312,77.782-32.218L247,247   C232.924,261.076,213.479,269.782,192,269.782z"/>
	<path style="fill:#FFFFFF;" d="M269.782,192H302c0-30.376-12.312-57.876-32.218-77.782L247,137   C261.076,151.076,269.782,170.521,269.782,192z"/>
</g>
<g>
	<path style="fill:#E56353;" d="M137,247l-22.782,22.782C134.124,289.688,161.624,302,192,302v-32.218   C170.521,269.782,151.076,261.076,137,247z"/>
	<path style="fill:#E56353;" d="M302,192h-32.218c0,21.479-8.706,40.924-22.782,55l22.782,22.782   C289.688,249.876,302,222.376,302,192z"/>
	<path style="fill:#E56353;" d="M247,137l22.782-22.782C249.876,94.312,222.376,82,192,82v32.218   C213.479,114.218,232.924,122.924,247,137z"/>
</g>
<g>
	<path style="fill:#FFFFFF;" d="M192,114.218V82c-30.376,0-57.876,12.312-77.782,32.218L137,137   C151.076,122.924,170.521,114.218,192,114.218z"/>
	<path style="fill:#FFFFFF;" d="M114.218,192H82c0,30.376,12.312,57.876,32.218,77.782L137,247   C122.924,232.924,114.218,213.479,114.218,192z"/>
</g>
<path style="fill:#E56353;" d="M137,137l-22.782-22.782C94.312,134.124,82,161.624,82,192h32.218  C114.218,170.521,122.924,151.076,137,137z"/>
<g>
	<path style="fill:#EBF0F3;" d="M240.517,143.483c12.417,12.416,20.097,29.57,20.097,48.517h9.168c0-21.479-8.706-40.924-22.782-55   L240.517,143.483z"/>
	<path style="fill:#EBF0F3;" d="M192,260.614v9.168c21.479,0,40.924-8.706,55-22.782l-6.483-6.482   C228.101,252.934,210.947,260.614,192,260.614z"/>
</g>
<g>
	<path style="fill:#D15241;" d="M143.483,240.517L137,247c14.076,14.076,33.521,22.782,55,22.782v-9.168   C173.053,260.614,155.9,252.934,143.483,240.517z"/>
	<path style="fill:#D15241;" d="M240.517,240.518L247,247c14.076-14.076,22.782-33.521,22.782-55h-9.168   C260.614,210.947,252.934,228.101,240.517,240.518z"/>
</g>
<g>
	<path style="fill:#EBF0F3;" d="M123.386,192h-9.168c0,21.479,8.706,40.924,22.782,55l6.483-6.483   C131.066,228.101,123.386,210.947,123.386,192z"/>
	<path style="fill:#EBF0F3;" d="M192,123.386v-9.168c-21.479,0-40.924,8.706-55,22.782l6.483,6.483   C155.899,131.066,173.053,123.386,192,123.386z"/>
</g>
<g>
	<path style="fill:#D15241;" d="M143.483,143.483L137,137c-14.076,14.076-22.782,33.521-22.782,55h9.168   C123.386,173.053,131.066,155.899,143.483,143.483z"/>
	<path style="fill:#D15241;" d="M240.517,143.483L247,137c-14.076-14.076-33.521-22.782-55-22.782v9.168   C210.947,123.386,228.101,131.066,240.517,143.483z"/>
</g>
<g>
</g>
<g>
</g>
<g>
</g>
<g>
</g>
<g>
</g>
<g>
</g>
<g>
</g>
<g>
</g>
<g>
</g>
<g>
</g>
<g>
</g>
<g>
</g>
<g>
</g>
<g>
</g>
<g>
</g>
</svg>
