<?xml version="1.0" encoding="iso-8859-1"?>
<!-- Generator: Adobe Illustrator 19.0.0, SVG Export Plug-In . SVG Version: 6.00 Build 0)  -->
<svg xmlns="http://www.w3.org/2000/svg" xmlns:xlink="http://www.w3.org/1999/xlink" version="1.1" id="Capa_1" x="0px" y="0px" viewBox="0 0 384 384" style="enable-background:new 0 0 384 384;" xml:space="preserve">
<circle style="fill:#45B39C;" cx="192" cy="192" r="192"/>
<path style="opacity:0.1;enable-background:new    ;" d="M383.302,207.772L290.72,115.19c-0.88-1.04-2.24-1.68-3.72-1.68H97  c-2.76,0-5,2.24-5,5v133.72H82v13.84l117.735,117.734C296.918,379.949,375.48,303.884,383.302,207.772z"/>
<path style="fill:#3A556A;" d="M286.988,113.515H97.01c-2.761,0-4.999,2.239-4.999,5v133.713h199.978V118.515  C291.989,115.754,289.75,113.515,286.988,113.515z"/>
<rect x="103.708" y="124.232" style="fill:#64798A;" width="176.6" height="117.296"/>
<rect x="82" y="252.24" style="fill:#EBF0F3;" width="220" height="13.848"/>
<g>
	<polygon style="fill:#D5D6DB;" points="301.691,266.093 82.309,266.093 96.754,270.485 287.246,270.485  "/>
	<rect x="177.16" y="257.52" style="fill:#D5D6DB;" width="29.64" height="3.24"/>
</g>
<ellipse style="fill:#2F4859;" cx="192" cy="219.828" rx="41.536" ry="4.58"/>
<path style="fill:#3EA69B;" d="M191.999,141.334v83.074c22.94,0,41.538-18.597,41.538-41.537S214.94,141.334,191.999,141.334z"/>
<path style="fill:#44C4A1;" d="M150.462,182.871c0,22.94,18.597,41.537,41.537,41.537v-83.074  C169.059,141.334,150.462,159.931,150.462,182.871z"/>
<polygon style="fill:#31978C;" points="183.116,207.446 163.3,187.628 171.844,179.085 183.116,190.356 212.155,161.318   220.698,169.861 "/>
<polygon style="fill:#FFFFFF;" points="183.116,204.425 163.3,184.607 171.844,176.064 183.116,187.335 212.155,158.297   220.698,166.84 "/>
<g>
</g>
<g>
</g>
<g>
</g>
<g>
</g>
<g>
</g>
<g>
</g>
<g>
</g>
<g>
</g>
<g>
</g>
<g>
</g>
<g>
</g>
<g>
</g>
<g>
</g>
<g>
</g>
<g>
</g>
</svg>
