<?xml version="1.0" encoding="iso-8859-1"?>
<!-- Generator: Adobe Illustrator 19.0.0, SVG Export Plug-In . SVG Version: 6.00 Build 0)  -->
<svg xmlns="http://www.w3.org/2000/svg" xmlns:xlink="http://www.w3.org/1999/xlink" version="1.1" id="Capa_1" x="0px" y="0px" viewBox="0 0 384 384" style="enable-background:new 0 0 384 384;" xml:space="preserve">
<circle style="fill:#45B39C;" cx="192" cy="192" r="192"/>
<path style="opacity:0.1;enable-background:new    ;" d="M288.069,141.662c-0.936-0.922-2.232-1.502-3.669-1.502h-31.336  l-26.05-26.05l-0.004,0.014c-0.662-0.658-1.634-0.935-2.57-0.644l-7.08,2.4c-0.365-0.355-0.776-0.656-1.155-0.995l-16.639-16.639  l-0.007,0.018c-0.462-0.451-1.074-0.744-1.759-0.744h-11.6c-1.2,0-2.24,0.84-2.48,2l-1.48,7.36c-5.96,1.64-11.32,4.8-15.6,9  l-7.08-2.4c-1.16-0.36-2.4,0.12-3,1.16l-5.8,10.04c-0.6,1.04-0.4,2.36,0.52,3.16l5.56,4.96c-0.6,2.36-0.88,4.8-1,7.36H99.6  c-2.84,0-5.08,2.16-5.08,4.88v118.2H82v18.08l102.49,102.49c2.495,0.096,4.991,0.19,7.51,0.19  c91.921,0,168.712-64.613,187.541-150.887l-91.461-91.461L288.069,141.662z"/>
<path style="fill:#2F4859;" d="M284.388,140.141H99.585c-2.82,0-5.077,2.17-5.077,4.903v118.198h195V145.044  C289.508,142.31,287.208,140.141,284.388,140.141z M277.489,251.222H106.484V152.16h171.004V251.222z"/>
<polygon style="fill:#E1E6E9;" points="227.404,152.143 106.501,152.143 106.501,251.227 277.497,251.227 277.497,188.44   277.497,152.143 "/>
<rect x="82" y="263.24" style="fill:#64798A;" width="220" height="18.1"/>
<g>
	<polygon style="fill:#3A556A;" points="94,286.489 290,286.489 302,281.33 82,281.33  "/>
	<rect x="170.96" y="270.36" style="fill:#3A556A;" width="42.076" height="3.8"/>
</g>
<path style="fill:#E56353;" d="M227.143,150.798c0.736-2.879,1.128-5.896,1.128-9.005s-0.393-6.126-1.128-9.005l5.589-4.955  c0.9-0.799,1.115-2.12,0.513-3.163l-5.794-10.035c-0.602-1.042-1.854-1.517-2.996-1.137l-7.101,2.368  c-4.295-4.201-9.628-7.338-15.58-9.001l-1.499-7.327c-0.241-1.179-1.279-2.026-2.482-2.026h-11.588  c-1.204,0-2.241,0.847-2.482,2.026l-1.499,7.327c-5.951,1.662-11.284,4.8-15.579,9.001l-7.102-2.368  c-1.142-0.38-2.394,0.095-2.996,1.137l-5.794,10.035c-0.602,1.042-0.387,2.364,0.513,3.163l5.588,4.955  c-0.736,2.88-1.128,5.896-1.128,9.005s0.392,6.126,1.128,9.005l-5.589,4.955c-0.9,0.798-1.115,2.12-0.513,3.163l5.794,10.035  c0.602,1.043,1.854,1.518,2.996,1.137l7.102-2.368c4.295,4.2,9.628,7.338,15.579,9.001l1.499,7.327  c0.241,1.179,1.279,2.026,2.482,2.026h11.588c1.203,0,2.241-0.847,2.482-2.026l1.499-7.327c5.952-1.662,11.285-4.8,15.58-9.001  l7.102,2.367c1.142,0.381,2.394-0.094,2.996-1.137l5.794-10.035c0.602-1.042,0.387-2.364-0.513-3.163L227.143,150.798z"/>
<circle style="fill:#FFFFFF;" cx="192" cy="141.8" r="25.668"/>
<g>
	<path style="fill:#D15241;" d="M192,169.1c-15.057,0-27.308-12.25-27.308-27.308c0-15.058,12.25-27.308,27.308-27.308   c15.057,0,27.308,12.25,27.308,27.308C219.307,156.85,207.056,169.1,192,169.1z M192,117.526c-13.38,0-24.266,10.886-24.266,24.266   c0,13.381,10.886,24.266,24.266,24.266c13.38,0,24.266-10.886,24.266-24.266C216.266,128.412,205.38,117.526,192,117.526z"/>
	<circle style="fill:#D15241;" cx="192" cy="141.8" r="12.992"/>
</g>
<g>
</g>
<g>
</g>
<g>
</g>
<g>
</g>
<g>
</g>
<g>
</g>
<g>
</g>
<g>
</g>
<g>
</g>
<g>
</g>
<g>
</g>
<g>
</g>
<g>
</g>
<g>
</g>
<g>
</g>
</svg>
