<?xml version="1.0" encoding="iso-8859-1"?>
<!-- Generator: Adobe Illustrator 19.0.0, SVG Export Plug-In . SVG Version: 6.00 Build 0)  -->
<svg xmlns="http://www.w3.org/2000/svg" xmlns:xlink="http://www.w3.org/1999/xlink" version="1.1" id="Capa_1" x="0px" y="0px" viewBox="0 0 384 384" style="enable-background:new 0 0 384 384;" xml:space="preserve">
<circle style="fill:#E05B49;" cx="192" cy="192" r="192"/>
<path style="opacity:0.1;enable-background:new    ;" d="M297.64,134.63H86.36c-2.4,0-4.36,1.92-4.36,4.32v106.08  c0,1.2,0.48,2.28,1.28,3.08L217.441,382.27c85.669-11.349,153.47-79.146,164.828-164.812L300.88,136.07  C300.08,135.19,298.92,134.63,297.64,134.63z"/>
<path style="fill:#D5D6DB;" d="M297.651,134.612H86.349c-2.402,0-4.349,1.946-4.349,4.348v106.08c0,2.402,1.947,4.349,4.349,4.349  h211.302c2.402,0,4.349-1.947,4.349-4.349V138.96C302,136.558,300.054,134.612,297.651,134.612z"/>
<g>
	<path style="fill:#64798A;" d="M102.031,156.307H89.184c-0.403,0-0.729,0.326-0.729,0.726v5.386c0,0.402,0.326,0.728,0.729,0.728   h12.846c0.403,0,0.729-0.326,0.729-0.728v-5.386C102.76,156.633,102.434,156.307,102.031,156.307z"/>
	<path style="fill:#64798A;" d="M121.309,156.307h-12.846c-0.403,0-0.729,0.326-0.729,0.726v5.386c0,0.402,0.326,0.728,0.729,0.728   h12.846c0.403,0,0.729-0.326,0.729-0.728v-5.386C122.038,156.633,121.712,156.307,121.309,156.307z"/>
	<path style="fill:#64798A;" d="M140.588,156.307h-12.846c-0.403,0-0.729,0.326-0.729,0.726v5.386c0,0.402,0.326,0.728,0.729,0.728   h12.846c0.403,0,0.729-0.326,0.729-0.728v-5.386C141.316,156.633,140.991,156.307,140.588,156.307z"/>
	<path style="fill:#64798A;" d="M159.866,156.307H147.02c-0.403,0-0.728,0.326-0.728,0.726v5.386c0,0.402,0.326,0.728,0.728,0.728   h12.847c0.403,0,0.728-0.326,0.728-0.728v-5.386C160.595,156.633,160.269,156.307,159.866,156.307z"/>
	<path style="fill:#64798A;" d="M179.145,156.307h-12.846c-0.403,0-0.729,0.326-0.729,0.726v5.386c0,0.402,0.326,0.728,0.729,0.728   h12.846c0.403,0,0.729-0.326,0.729-0.728v-5.386C179.874,156.633,179.548,156.307,179.145,156.307z"/>
	<path style="fill:#64798A;" d="M198.423,156.307h-12.846c-0.403,0-0.729,0.326-0.729,0.726v5.386c0,0.402,0.326,0.728,0.729,0.728   h12.846c0.403,0,0.729-0.326,0.729-0.728v-5.386C199.152,156.633,198.826,156.307,198.423,156.307z"/>
	<path style="fill:#64798A;" d="M217.702,156.307h-12.846c-0.403,0-0.729,0.326-0.729,0.726v5.386c0,0.402,0.326,0.728,0.729,0.728   h12.846c0.403,0,0.729-0.326,0.729-0.728v-5.386C218.43,156.633,218.105,156.307,217.702,156.307z"/>
	<path style="fill:#64798A;" d="M236.98,156.307h-12.847c-0.403,0-0.728,0.326-0.728,0.726v5.386c0,0.402,0.326,0.728,0.728,0.728   h12.847c0.403,0,0.728-0.326,0.728-0.728v-5.386C237.709,156.633,237.383,156.307,236.98,156.307z"/>
	<path style="fill:#64798A;" d="M256.259,156.307h-12.846c-0.403,0-0.729,0.326-0.729,0.726v5.386c0,0.402,0.326,0.728,0.729,0.728   h12.846c0.403,0,0.729-0.326,0.729-0.728v-5.386C256.988,156.633,256.662,156.307,256.259,156.307z"/>
	<path style="fill:#64798A;" d="M275.537,156.307h-12.846c-0.403,0-0.729,0.326-0.729,0.726v5.386c0,0.402,0.326,0.728,0.729,0.728   h12.846c0.403,0,0.729-0.326,0.729-0.728v-5.386C276.266,156.633,275.94,156.307,275.537,156.307z"/>
	<path style="fill:#64798A;" d="M294.816,156.307h-12.846c-0.403,0-0.728,0.326-0.728,0.726v5.386c0,0.402,0.325,0.728,0.728,0.728   h12.846c0.403,0,0.729-0.326,0.729-0.728v-5.386C295.544,156.633,295.219,156.307,294.816,156.307z"/>
	<path style="fill:#64798A;" d="M102.658,170.412h-13.44c-0.422,0-0.762,0.326-0.762,0.726v11.31c0,0.402,0.34,0.728,0.762,0.728   h13.44c0.422,0,0.762-0.326,0.762-0.728v-11.31C103.42,170.738,103.079,170.412,102.658,170.412z"/>
	<path style="fill:#64798A;" d="M122.826,170.412h-13.44c-0.422,0-0.762,0.326-0.762,0.726v11.31c0,0.402,0.341,0.728,0.762,0.728   h13.44c0.422,0,0.762-0.326,0.762-0.728v-11.31C123.589,170.738,123.248,170.412,122.826,170.412z"/>
	<path style="fill:#64798A;" d="M142.995,170.412h-13.44c-0.422,0-0.762,0.326-0.762,0.726v11.31c0,0.402,0.341,0.728,0.762,0.728   h13.44c0.422,0,0.762-0.326,0.762-0.728v-11.31C143.758,170.738,143.417,170.412,142.995,170.412z"/>
	<path style="fill:#64798A;" d="M163.164,170.412h-13.44c-0.422,0-0.762,0.326-0.762,0.726v11.31c0,0.402,0.341,0.728,0.762,0.728   h13.44c0.422,0,0.762-0.326,0.762-0.728v-11.31C163.927,170.738,163.586,170.412,163.164,170.412z"/>
	<path style="fill:#64798A;" d="M183.333,170.412h-13.44c-0.422,0-0.762,0.326-0.762,0.726v11.31c0,0.402,0.34,0.728,0.762,0.728   h13.44c0.422,0,0.762-0.326,0.762-0.728v-11.31C184.096,170.738,183.755,170.412,183.333,170.412z"/>
	<path style="fill:#64798A;" d="M203.502,170.412h-13.44c-0.422,0-0.762,0.326-0.762,0.726v11.31c0,0.402,0.34,0.728,0.762,0.728   h13.44c0.422,0,0.762-0.326,0.762-0.728v-11.31C204.264,170.738,203.924,170.412,203.502,170.412z"/>
	<path style="fill:#64798A;" d="M223.671,170.412h-13.44c-0.422,0-0.762,0.326-0.762,0.726v11.31c0,0.402,0.341,0.728,0.762,0.728   h13.44c0.422,0,0.762-0.326,0.762-0.728v-11.31C224.433,170.738,224.092,170.412,223.671,170.412z"/>
	<path style="fill:#64798A;" d="M243.84,170.412H230.4c-0.422,0-0.762,0.326-0.762,0.726v11.31c0,0.402,0.341,0.728,0.762,0.728   h13.44c0.422,0,0.762-0.326,0.762-0.728v-11.31C244.602,170.738,244.262,170.412,243.84,170.412z"/>
	<path style="fill:#64798A;" d="M264.009,170.412h-13.44c-0.422,0-0.762,0.326-0.762,0.726v11.31c0,0.402,0.341,0.728,0.762,0.728   h13.44c0.422,0,0.762-0.326,0.762-0.728v-11.31C264.771,170.738,264.43,170.412,264.009,170.412z"/>
	<path style="fill:#64798A;" d="M294.816,170.412h-24.846c-0.403,0-0.728,0.326-0.728,0.726v11.31c0,0.402,0.325,0.728,0.728,0.728   h24.846c0.403,0,0.729-0.326,0.729-0.728v-11.31C295.544,170.738,295.219,170.412,294.816,170.412z"/>
	<path style="fill:#64798A;" d="M102.658,225.008h-13.44c-0.422,0-0.762,0.326-0.762,0.727v14.848c0,0.402,0.34,0.728,0.762,0.728   h13.44c0.422,0,0.762-0.326,0.762-0.728v-14.848C103.42,225.333,103.079,225.008,102.658,225.008z"/>
	<path style="fill:#64798A;" d="M122.826,225.008h-13.44c-0.422,0-0.762,0.326-0.762,0.727v14.848c0,0.402,0.341,0.728,0.762,0.728   h13.44c0.422,0,0.762-0.326,0.762-0.728v-14.848C123.589,225.333,123.248,225.008,122.826,225.008z"/>
	<path style="fill:#64798A;" d="M203.502,225.008h-73.946c-0.422,0-0.762,0.326-0.762,0.727v14.848c0,0.402,0.341,0.728,0.762,0.728   h73.946c0.422,0,0.762-0.326,0.762-0.728v-14.848C204.264,225.333,203.924,225.008,203.502,225.008z"/>
	<path style="fill:#64798A;" d="M223.671,225.008h-13.44c-0.422,0-0.762,0.326-0.762,0.727v14.848c0,0.402,0.341,0.728,0.762,0.728   h13.44c0.422,0,0.762-0.326,0.762-0.728v-14.848C224.433,225.333,224.092,225.008,223.671,225.008z"/>
	<path style="fill:#64798A;" d="M242.151,225.008h-13.44c-0.422,0-0.762,0.326-0.762,0.727v14.848c0,0.402,0.34,0.728,0.762,0.728   h13.44c0.422,0,0.762-0.326,0.762-0.728v-14.848C242.914,225.333,242.573,225.008,242.151,225.008z"/>
	<path style="fill:#64798A;" d="M259.945,234.201h-13.44c-0.422,0-0.762,0.326-0.762,0.726v5.655c0,0.402,0.34,0.728,0.762,0.728   h13.44c0.422,0,0.762-0.326,0.762-0.728v-5.655C260.708,234.526,260.367,234.201,259.945,234.201z"/>
	<path style="fill:#64798A;" d="M294.782,234.201h-13.44c-0.422,0-0.762,0.326-0.762,0.726v5.655c0,0.402,0.341,0.728,0.762,0.728   h13.44c0.422,0,0.762-0.326,0.762-0.728v-5.655C295.544,234.526,295.204,234.201,294.782,234.201z"/>
	<path style="fill:#64798A;" d="M277.152,234.201h-13.44c-0.422,0-0.762,0.326-0.762,0.726v5.655c0,0.402,0.34,0.728,0.762,0.728   h13.44c0.422,0,0.762-0.326,0.762-0.728v-5.655C277.914,234.526,277.574,234.201,277.152,234.201z"/>
	<path style="fill:#64798A;" d="M277.152,225.734h-13.44c-0.422,0-0.762,0.326-0.762,0.726v5.655c0,0.402,0.34,0.728,0.762,0.728   h13.44c0.422,0,0.762-0.326,0.762-0.728v-5.655C277.914,226.06,277.574,225.734,277.152,225.734z"/>
	<path style="fill:#64798A;" d="M281.342,201.534h13.44c0.422,0,0.762-0.326,0.762-0.726v-11.311c0-0.402-0.34-0.728-0.762-0.728   h-13.44c-0.422,0-0.762,0.326-0.762,0.728v11.311C280.58,201.209,280.921,201.534,281.342,201.534z"/>
	<path style="fill:#64798A;" d="M261.174,201.534h13.44c0.422,0,0.762-0.326,0.762-0.726v-11.311c0-0.402-0.341-0.728-0.762-0.728   h-13.44c-0.422,0-0.762,0.326-0.762,0.728v11.311C260.411,201.209,260.752,201.534,261.174,201.534z"/>
	<path style="fill:#64798A;" d="M241.005,201.534h13.44c0.422,0,0.762-0.326,0.762-0.726v-11.311c0-0.402-0.341-0.728-0.762-0.728   h-13.44c-0.422,0-0.762,0.326-0.762,0.728v11.311C240.242,201.209,240.583,201.534,241.005,201.534z"/>
	<path style="fill:#64798A;" d="M220.836,201.534h13.44c0.422,0,0.762-0.326,0.762-0.726v-11.311c0-0.402-0.341-0.728-0.762-0.728   h-13.44c-0.422,0-0.762,0.326-0.762,0.728v11.311C220.073,201.209,220.414,201.534,220.836,201.534z"/>
	<path style="fill:#64798A;" d="M200.667,201.534h13.44c0.422,0,0.762-0.326,0.762-0.726v-11.311c0-0.402-0.34-0.728-0.762-0.728   h-13.44c-0.422,0-0.762,0.326-0.762,0.728v11.311C199.904,201.209,200.245,201.534,200.667,201.534z"/>
	<path style="fill:#64798A;" d="M180.498,201.534h13.44c0.422,0,0.762-0.326,0.762-0.726v-11.311c0-0.402-0.34-0.728-0.762-0.728   h-13.44c-0.422,0-0.762,0.326-0.762,0.728v11.311C179.736,201.209,180.076,201.534,180.498,201.534z"/>
	<path style="fill:#64798A;" d="M160.329,201.534h13.44c0.422,0,0.762-0.326,0.762-0.726v-11.311c0-0.402-0.341-0.728-0.762-0.728   h-13.44c-0.422,0-0.762,0.326-0.762,0.728v11.311C159.567,201.209,159.908,201.534,160.329,201.534z"/>
	<path style="fill:#64798A;" d="M140.16,201.534h13.44c0.422,0,0.762-0.326,0.762-0.726v-11.311c0-0.402-0.341-0.728-0.762-0.728   h-13.44c-0.422,0-0.762,0.326-0.762,0.728v11.311C139.398,201.209,139.738,201.534,140.16,201.534z"/>
	<path style="fill:#64798A;" d="M119.991,201.534h13.44c0.422,0,0.762-0.326,0.762-0.726v-11.311c0-0.402-0.341-0.728-0.762-0.728   h-13.44c-0.422,0-0.762,0.326-0.762,0.728v11.311C119.229,201.209,119.57,201.534,119.991,201.534z"/>
	<path style="fill:#64798A;" d="M89.184,201.534h24.846c0.403,0,0.729-0.326,0.729-0.726v-11.311c0-0.402-0.326-0.728-0.729-0.728   H89.184c-0.403,0-0.729,0.326-0.729,0.728v11.311C88.456,201.209,88.781,201.534,89.184,201.534z"/>
	<path style="fill:#64798A;" d="M248.748,219.892h13.44c0.422,0,0.762-0.326,0.762-0.726v-11.311c0-0.402-0.341-0.728-0.762-0.728   h-13.44c-0.422,0-0.762,0.326-0.762,0.728v11.311C247.985,219.567,248.326,219.892,248.748,219.892z"/>
	<path style="fill:#64798A;" d="M228.579,219.892h13.44c0.422,0,0.762-0.326,0.762-0.726v-11.311c0-0.402-0.34-0.728-0.762-0.728   h-13.44c-0.422,0-0.762,0.326-0.762,0.728v11.311C227.816,219.567,228.157,219.892,228.579,219.892z"/>
	<path style="fill:#64798A;" d="M208.41,219.892h13.44c0.422,0,0.762-0.326,0.762-0.726v-11.311c0-0.402-0.34-0.728-0.762-0.728   h-13.44c-0.422,0-0.762,0.326-0.762,0.728v11.311C207.648,219.567,207.988,219.892,208.41,219.892z"/>
	<path style="fill:#64798A;" d="M188.241,219.892h13.44c0.422,0,0.762-0.326,0.762-0.726v-11.311c0-0.402-0.341-0.728-0.762-0.728   h-13.44c-0.422,0-0.762,0.326-0.762,0.728v11.311C187.479,219.567,187.819,219.892,188.241,219.892z"/>
	<path style="fill:#64798A;" d="M168.072,219.892h13.44c0.422,0,0.762-0.326,0.762-0.726v-11.311c0-0.402-0.341-0.728-0.762-0.728   h-13.44c-0.422,0-0.762,0.326-0.762,0.728v11.311C167.31,219.567,167.65,219.892,168.072,219.892z"/>
	<path style="fill:#64798A;" d="M147.903,219.892h13.44c0.422,0,0.762-0.326,0.762-0.726v-11.311c0-0.402-0.341-0.728-0.762-0.728   h-13.44c-0.422,0-0.762,0.326-0.762,0.728v11.311C147.141,219.567,147.482,219.892,147.903,219.892z"/>
	<path style="fill:#64798A;" d="M127.734,219.892h13.44c0.422,0,0.762-0.326,0.762-0.726v-11.311c0-0.402-0.34-0.728-0.762-0.728   h-13.44c-0.422,0-0.762,0.326-0.762,0.728v11.311C126.972,219.567,127.313,219.892,127.734,219.892z"/>
	<path style="fill:#64798A;" d="M89.184,219.892h32.846c0.403,0,0.729-0.326,0.729-0.726v-11.311c0-0.402-0.326-0.728-0.729-0.728   H89.184c-0.403,0-0.729,0.326-0.729,0.728v11.311C88.456,219.567,88.781,219.892,89.184,219.892z"/>
	<path style="fill:#64798A;" d="M269.969,219.892h24.846c0.403,0,0.729-0.326,0.729-0.726v-11.311c0-0.402-0.326-0.728-0.729-0.728   h-24.846c-0.403,0-0.728,0.326-0.728,0.728v11.311C269.241,219.567,269.566,219.892,269.969,219.892z"/>
</g>
<g>
</g>
<g>
</g>
<g>
</g>
<g>
</g>
<g>
</g>
<g>
</g>
<g>
</g>
<g>
</g>
<g>
</g>
<g>
</g>
<g>
</g>
<g>
</g>
<g>
</g>
<g>
</g>
<g>
</g>
</svg>
