<?xml version="1.0" encoding="iso-8859-1"?>
<!-- Generator: Adobe Illustrator 19.0.0, SVG Export Plug-In . SVG Version: 6.00 Build 0)  -->
<svg xmlns="http://www.w3.org/2000/svg" xmlns:xlink="http://www.w3.org/1999/xlink" version="1.1" id="Capa_1" x="0px" y="0px" viewBox="0 0 384 384" style="enable-background:new 0 0 384 384;" xml:space="preserve">
<circle style="fill:#EA8953;" cx="192" cy="192" r="192"/>
<path style="opacity:0.1;enable-background:new    ;" d="M164.2,81.99v14.92h4.28v61.76c-29.08,9.84-50.08,37.32-50.08,69.72  c0,17.76,6.28,34.04,16.72,46.72l0.08,0.08c3,3.64,6.36,7,10,10l93.165,93.139c68.202-16.917,122.02-70.263,139.554-138.219  L219.8,81.99H164.2z"/>
<path style="fill:#EBF0F3;" d="M215.511,158.686V82h-47.02v76.686c-29.11,9.818-50.099,37.284-50.099,69.706  c0,40.653,32.956,73.608,73.609,73.608c40.652,0,73.608-32.956,73.608-73.608C265.608,195.97,244.62,168.504,215.511,158.686z"/>
<path style="fill:#E56353;" d="M127.02,203.557c-2.976,7.778-4.629,16.154-4.629,24.834c0,38.383,31.226,69.61,69.609,69.61  c38.379,0,69.606-31.227,69.606-69.61c0-8.68-1.651-17.056-4.629-24.834H127.02z"/>
<path style="fill:#D15241;" d="M256.978,203.557H235.99c0.746,4.075,1.311,8.209,1.501,12.433  c1.68,37.506-27.274,70.33-62.214,79.894c5.368,1.332,10.949,2.116,16.724,2.116c38.379,0,69.606-31.227,69.606-69.61  C261.606,219.711,259.955,211.335,256.978,203.557z"/>
<rect x="164.2" y="82" style="fill:#E1E6E9;" width="55.628" height="14.924"/>
<g>
	<circle style="fill:#D15241;" cx="161.72" cy="238.24" r="5.976"/>
	<circle style="fill:#D15241;" cx="216.24" cy="237.76" r="3.588"/>
	<circle style="fill:#D15241;" cx="178.16" cy="269.56" r="2.884"/>
	<circle style="fill:#D15241;" cx="177.8" cy="183.132" r="2.528"/>
	<circle style="fill:#D15241;" cx="199.972" cy="142.12" r="2.628"/>
	<circle style="fill:#D15241;" cx="209.36" cy="180.68" r="2.46"/>
	<circle style="fill:#D15241;" cx="187.3" cy="117" r="2.868"/>
</g>
<g>
</g>
<g>
</g>
<g>
</g>
<g>
</g>
<g>
</g>
<g>
</g>
<g>
</g>
<g>
</g>
<g>
</g>
<g>
</g>
<g>
</g>
<g>
</g>
<g>
</g>
<g>
</g>
<g>
</g>
</svg>
