<?xml version="1.0" encoding="iso-8859-1"?>
<!-- Generator: Adobe Illustrator 19.0.0, SVG Export Plug-In . SVG Version: 6.00 Build 0)  -->
<svg xmlns="http://www.w3.org/2000/svg" xmlns:xlink="http://www.w3.org/1999/xlink" version="1.1" id="Capa_1" x="0px" y="0px" viewBox="0 0 384 384" style="enable-background:new 0 0 384 384;" xml:space="preserve">
<circle style="fill:#EFC84A;" cx="192" cy="192" r="192"/>
<path style="opacity:0.1;enable-background:new    ;" d="M114.56,82v220l81.888,81.888c102.494-2.338,185.102-84.947,187.44-187.44  L269.44,82H114.56z"/>
<rect x="114.572" y="82" style="fill:#E1E6E9;" width="154.86" height="220"/>
<rect x="114.572" y="82" style="fill:#FFFFFF;" width="154.86" height="212"/>
<path style="fill:#E56353;" d="M142.566,149.906v-5.025c-6.291-0.644-11.937-3.142-16.934-7.506l5.024-5.988  c3.854,3.35,7.82,5.35,11.909,5.988v-13.354c-5.187-1.238-8.985-2.862-11.394-4.885c-2.408-2.016-3.613-5.013-3.613-8.985  c0-3.966,1.384-7.215,4.162-9.736c2.778-2.526,6.391-3.904,10.845-4.134v-3.439h4.403v3.512c5.047,0.364,9.82,2.09,14.318,5.159  l-4.476,6.335c-3.03-2.156-6.308-3.49-9.842-3.994v12.94h0.207c5.277,1.238,9.153,2.918,11.629,5.024  c2.482,2.112,3.72,5.176,3.72,9.192s-1.423,7.282-4.268,9.808c-2.846,2.52-6.604,3.898-11.287,4.128v4.957H142.566z M137.71,105.474  c-1.171,1.03-1.753,2.319-1.753,3.854c0,1.54,0.459,2.75,1.378,3.647c0.913,0.896,2.661,1.759,5.232,2.582v-11.909  C140.499,103.832,138.88,104.443,137.71,105.474z M152.201,135.655c1.283-1.053,1.927-2.386,1.927-3.994  c0-1.602-0.505-2.879-1.512-3.82c-1.014-0.935-2.896-1.82-5.646-2.649v12.39C149.17,137.352,150.913,136.714,152.201,135.655z"/>
<g>
	<rect x="174.4" y="103.688" style="fill:#EBF0F3;" width="81.592" height="4"/>
	<rect x="174.4" y="122.228" style="fill:#EBF0F3;" width="81.592" height="4"/>
	<rect x="174.4" y="140.76" style="fill:#EBF0F3;" width="81.592" height="4"/>
	<rect x="125.64" y="159.32" style="fill:#EBF0F3;" width="130.348" height="4"/>
	<rect x="125.64" y="177.88" style="fill:#EBF0F3;" width="130.348" height="4"/>
	<rect x="125.64" y="196.4" style="fill:#EBF0F3;" width="83.06" height="4"/>
	<rect x="125.64" y="214.96" style="fill:#EBF0F3;" width="130.348" height="4"/>
	<rect x="125.64" y="233.48" style="fill:#EBF0F3;" width="130.348" height="4"/>
	<rect x="125.64" y="252.04" style="fill:#EBF0F3;" width="130.348" height="4"/>
	<rect x="125.64" y="270.6" style="fill:#EBF0F3;" width="54.316" height="4"/>
</g>
<g>
</g>
<g>
</g>
<g>
</g>
<g>
</g>
<g>
</g>
<g>
</g>
<g>
</g>
<g>
</g>
<g>
</g>
<g>
</g>
<g>
</g>
<g>
</g>
<g>
</g>
<g>
</g>
<g>
</g>
</svg>
