<?xml version="1.0" encoding="iso-8859-1"?>
<!-- Generator: Adobe Illustrator 19.0.0, SVG Export Plug-In . SVG Version: 6.00 Build 0)  -->
<svg xmlns="http://www.w3.org/2000/svg" xmlns:xlink="http://www.w3.org/1999/xlink" version="1.1" id="Capa_1" x="0px" y="0px" viewBox="0 0 384 384" style="enable-background:new 0 0 384 384;" xml:space="preserve">
<circle style="fill:#EA8953;" cx="192" cy="192" r="192"/>
<path style="opacity:0.1;enable-background:new    ;" d="M268.287,115.082C248.513,94.832,221.634,82,192,82  c-60.36,0-109.36,53.16-109.96,114.04H82v64.32c0,8.64,2.88,16.44,7.6,22.12c0.91,1.104,1.904,2.097,2.94,3.026l0.004,0.027  l98.442,98.442c0.34,0.002,0.675,0.026,1.015,0.026c93.92,0,172.037-67.452,188.678-156.545l-112.371-112.37L268.287,115.082z"/>
<g>
	<rect x="82" y="196.04" style="fill:#EBF0F3;" width="8.74" height="64.32"/>
	<rect x="293.26" y="196.08" style="fill:#EBF0F3;" width="8.74" height="64.32"/>
</g>
<path style="fill:#2F4859;" d="M192,82c-60.751,0-110,53.803-110,115.186h8.682c0-50.708,45.362-95.155,101.318-95.155  c55.957,0,101.318,44.447,101.318,95.155H302C302,135.803,252.752,82,192,82z"/>
<path style="fill:#64798A;" d="M192,102.031c-55.956,0-101.318,44.447-101.318,95.155h0.059  c0.038-40.765,45.335-77.846,101.207-77.846c55.873,0,101.169,37.081,101.208,77.846h0.162  C293.318,146.478,247.957,102.031,192,102.031z"/>
<path style="fill:#F6C358;" d="M108.047,260.37v36.648c0,2.752,2.208,4.982,4.931,4.982h6.522v-41.63H108.047z"/>
<path style="fill:#FCD462;" d="M119.5,218.74h-6.522c-2.724,0-4.931,2.232-4.931,4.982v36.648H119.5V218.74z"/>
<path style="fill:#3A556A;" d="M119.5,302h16.067c2.723,0,4.931-2.231,4.931-4.982V260.37H119.5V302z"/>
<g>
	<path style="fill:#64798A;" d="M135.567,218.74H119.5v41.63h20.998v-36.648C140.498,220.972,138.29,218.74,135.567,218.74z"/>
	<path style="fill:#64798A;" d="M82,260.37h25.877v-31.283C93.586,229.087,82,243.092,82,260.37z"/>
</g>
<path style="fill:#3A556A;" d="M82,260.371c0,17.276,11.586,31.282,25.877,31.282V260.37L82,260.371L82,260.371z"/>
<path style="fill:#FCD462;" d="M271.022,218.74H264.5v41.63h11.454v-36.648C275.954,220.972,273.746,218.74,271.022,218.74z"/>
<path style="fill:#F6C358;" d="M264.5,302h6.522c2.724,0,4.932-2.231,4.932-4.982V260.37H264.5V302z"/>
<path style="fill:#64798A;" d="M264.5,218.74h-16.066c-2.724,0-4.932,2.232-4.932,4.982v36.648H264.5V218.74z"/>
<g>
	<path style="fill:#3A556A;" d="M243.502,260.37v36.648c0,2.752,2.208,4.982,4.932,4.982H264.5v-41.63H243.502z"/>
	<path style="fill:#3A556A;" d="M276.123,260.37v31.283c14.292,0,25.877-14.006,25.877-31.282v-0.001H276.123z"/>
</g>
<path style="fill:#64798A;" d="M276.123,229.087v31.283H302C302,243.092,290.414,229.087,276.123,229.087z"/>
<g>
</g>
<g>
</g>
<g>
</g>
<g>
</g>
<g>
</g>
<g>
</g>
<g>
</g>
<g>
</g>
<g>
</g>
<g>
</g>
<g>
</g>
<g>
</g>
<g>
</g>
<g>
</g>
<g>
</g>
</svg>
