<?xml version="1.0" encoding="iso-8859-1"?>
<!-- Generator: Adobe Illustrator 19.0.0, SVG Export Plug-In . SVG Version: 6.00 Build 0)  -->
<svg xmlns="http://www.w3.org/2000/svg" xmlns:xlink="http://www.w3.org/1999/xlink" version="1.1" id="Capa_1" x="0px" y="0px" viewBox="0 0 384 384" style="enable-background:new 0 0 384 384;" xml:space="preserve">
<circle style="fill:#EA8953;" cx="192" cy="192" r="192"/>
<path style="opacity:0.1;enable-background:new    ;" d="M293.4,194.75h-0.242l-89.794-89.794l-0.002,0.005  c-8.943-9.72-21.727-15.851-35.963-15.851c-17.08,0-32.08,8.72-40.84,22h-17.52c-15.72,0-28.12,13.32-26.96,29l8.2,129.76  c0.535,7.264,3.92,13.665,8.996,18.185l95.866,95.866c78.075-1.258,144.832-49.068,173.653-116.929l-69.833-69.833  C297.588,195.687,295.618,194.75,293.4,194.75z"/>
<path style="fill:#3A556A;" d="M142.394,186.43V294.9h37.598c5.106,0,9.246-4.14,9.246-9.246v-97.506  c-6.585,3.297-13.99,5.198-21.856,5.198C158.24,193.346,149.715,190.793,142.394,186.43z"/>
<path style="fill:#64798A;" d="M118.44,144.404c0-12.884,5.017-24.569,13.155-33.309h-22.558c-15.714,0-28.117,13.351-26.963,29.022  l8.212,129.734c1.04,14.122,12.802,25.049,26.962,25.049h25.146V186.43C128.068,177.893,118.44,162.292,118.44,144.404z"/>
<g>
	<path style="fill:#2F4859;" d="M142.394,111.096v75.335c7.321,4.363,15.847,6.915,24.988,6.915c7.865,0,15.27-1.901,21.856-5.198   v-77.052H142.394z"/>
	<path style="fill:#2F4859;" d="M142.394,186.43v-75.335h-10.798c-8.138,8.74-13.155,20.425-13.155,33.309   C118.44,162.292,128.068,177.893,142.394,186.43z"/>
</g>
<circle style="fill:#FFFFFF;" cx="167.38" cy="138.04" r="48.94"/>
<path style="fill:#EBF0F3;" d="M167.38,175.85c-20.227,0-36.685-16.961-36.685-37.808s16.458-37.808,36.685-37.808  c20.23,0,36.688,16.961,36.688,37.808S187.61,175.85,167.38,175.85z"/>
<ellipse style="fill:#3A556A;" cx="167.38" cy="138.04" rx="28.24" ry="29.12"/>
<ellipse style="fill:#6E8696;" cx="167.38" cy="138.04" rx="19.82" ry="20.428"/>
<path style="fill:#64798A;" d="M177.176,120.305c4.694,14.208-2.678,32.944-22.099,32.944c-0.322,0-0.618-0.036-0.934-0.046  c3.514,3.262,8.147,5.267,13.237,5.267c10.93,0,19.824-9.165,19.824-20.429C187.204,130.451,183.156,123.827,177.176,120.305z"/>
<ellipse style="fill:#27A2DB;" cx="179.388" cy="129.68" rx="4" ry="4.136"/>
<ellipse style="fill:#D5D6DB;" cx="157.44" cy="146.712" rx="3.044" ry="3.136"/>
<path style="fill:#3A556A;" d="M293.405,194.747h-82.308c-4.144,0-7.503,3.253-7.503,7.265v74.418c0,4.012,3.359,7.266,7.503,7.266  h82.308c4.144,0,7.503-3.253,7.503-7.266v-74.418C300.908,198,297.549,194.747,293.405,194.747z"/>
<path style="fill:#EBF0F3;" d="M265.416,232.351h-26.331c-3.794,0-6.87,3.076-6.87,6.87c0,3.794,3.076,6.87,6.87,6.87h26.331  c3.794,0,6.87-3.076,6.87-6.87C272.286,235.427,269.211,232.351,265.416,232.351z"/>
<rect x="189.24" y="222.04" style="fill:#64798A;" width="14.356" height="35.228"/>
<path style="fill:#2F4859;" d="M165.742,276.056l-5.039-15.726c-0.572-1.786-2.232-2.997-4.108-2.997h-27.608  c-1.876,0-3.536,1.212-4.108,2.997l-5.038,15.726c-0.892,2.783,1.184,5.629,4.107,5.629h37.687  C164.557,281.686,166.634,278.84,165.742,276.056z"/>
<path style="fill:#EBF0F3;" d="M165.742,273.008l-5.039-15.726c-0.572-1.786-2.232-2.997-4.108-2.997h-27.608  c-1.876,0-3.536,1.212-4.108,2.997l-5.038,15.726c-0.892,2.783,1.184,5.629,4.107,5.629h37.687  C164.557,278.637,166.634,275.791,165.742,273.008z"/>
<path style="fill:#2F4859;" d="M301.02,228.905h-7.608c-0.54,0-0.978,0.439-0.978,0.98v18.673c0,0.54,0.438,0.979,0.978,0.979h7.608  c0.541,0,0.98-0.439,0.98-0.979v-18.673C302,229.344,301.562,228.905,301.02,228.905z"/>
<path style="fill:#3A556A;" d="M142.789,249.856h-18.101c-3.887,0-7.047-3.712-7.047-8.275V201.03c0-4.559,3.16-8.271,7.047-8.271  h18.101v3.98h-18.101c-1.664,0-3.067,1.967-3.067,4.291v40.552c0,2.328,1.403,4.295,3.067,4.295h18.101V249.856z"/>
<g>
</g>
<g>
</g>
<g>
</g>
<g>
</g>
<g>
</g>
<g>
</g>
<g>
</g>
<g>
</g>
<g>
</g>
<g>
</g>
<g>
</g>
<g>
</g>
<g>
</g>
<g>
</g>
<g>
</g>
</svg>
