<?xml version="1.0" encoding="iso-8859-1"?>
<!-- Generator: Adobe Illustrator 19.0.0, SVG Export Plug-In . SVG Version: 6.00 Build 0)  -->
<svg xmlns="http://www.w3.org/2000/svg" xmlns:xlink="http://www.w3.org/1999/xlink" version="1.1" id="Capa_1" x="0px" y="0px" viewBox="0 0 384 384" style="enable-background:new 0 0 384 384;" xml:space="preserve">
<circle style="fill:#EA8953;" cx="192" cy="192" r="192"/>
<path style="opacity:0.1;enable-background:new    ;" d="M121.56,92.518l-10.52-10.52H82v29.04l10.52,10.52v180.44l81.107,81.108  C179.676,383.679,185.8,384,192,384c106.039,0,192-85.961,192-192c0-6.202-0.321-12.327-0.896-18.379L302,92.518H121.56z"/>
<polygon style="fill:#3A556A;" points="302,92.52 111.04,92.52 111.04,81.999 82,81.999 82,111.041 92.52,111.041 92.52,302   100.52,302 100.52,111.041 111.04,111.041 111.04,100.52 302,100.52 "/>
<g>
	<path style="fill:#FCD462;" d="M134.028,151.055c-9.914,0-17.981-8.066-17.981-17.98c0-9.918,8.066-17.984,17.981-17.984   c9.918,0,17.984,8.066,17.984,17.984C152.012,142.989,143.946,151.055,134.028,151.055z M134.028,119.09   c-7.707,0-13.981,6.273-13.981,13.984c0,7.707,6.274,13.98,13.981,13.98c7.711,0,13.984-6.274,13.984-13.98   C148.012,125.364,141.739,119.09,134.028,119.09z"/>
	<circle style="fill:#FCD462;" cx="134.04" cy="133.08" r="8.372"/>
</g>
<polygon style="fill:#FFFFFF;" points="297.86,214.62 239.064,232.316 221.368,291.113 162.658,155.911 "/>
<g>
</g>
<g>
</g>
<g>
</g>
<g>
</g>
<g>
</g>
<g>
</g>
<g>
</g>
<g>
</g>
<g>
</g>
<g>
</g>
<g>
</g>
<g>
</g>
<g>
</g>
<g>
</g>
<g>
</g>
</svg>
