<?xml version="1.0" encoding="iso-8859-1"?>
<!-- Generator: Adobe Illustrator 19.0.0, SVG Export Plug-In . SVG Version: 6.00 Build 0)  -->
<svg xmlns="http://www.w3.org/2000/svg" xmlns:xlink="http://www.w3.org/1999/xlink" version="1.1" id="Capa_1" x="0px" y="0px" viewBox="0 0 384 384" style="enable-background:new 0 0 384 384;" xml:space="preserve">
<circle style="fill:#E05B49;" cx="192" cy="192" r="192"/>
<path style="opacity:0.1;enable-background:new    ;" d="M300.1,167.601c-1.215-1.239-2.906-2.012-4.78-2.012h-58.373l-70.84-70.84  l-0.005,0.006c-6.589-7.798-16.458-12.766-27.502-12.766c-19.84,0-35.92,16-35.92,35.72c0,10,4.134,19.006,10.786,25.476  l-0.01,0.004l13.383,13.383v9.017H88.68c-3.68,0-6.68,2.96-6.68,6.64v123.16c0,1.766,0.715,3.362,1.861,4.547l-0.008,0.004  l0.067,0.067c0.028,0.028,0.054,0.055,0.082,0.082l82.127,82.126C174.596,383.357,183.221,384,192,384  c87.922,0,161.986-59.12,184.746-139.758l-76.643-76.643L300.1,167.601z"/>
<path style="fill:#F6C358;" d="M295.334,173.548H88.666c-3.682,0-6.666,2.967-6.666,6.626v115.199c0,3.66,2.984,6.626,6.666,6.626  h206.668c3.682,0,6.666-2.966,6.666-6.626V180.175C302,176.515,299.016,173.548,295.334,173.548z"/>
<path style="fill:#FCD462;" d="M295.334,165.596H88.666c-3.682,0-6.666,2.967-6.666,6.626v115.199c0,3.66,2.984,6.626,6.666,6.626  h206.668c3.682,0,6.666-2.966,6.666-6.626V172.222C302,168.563,299.016,165.596,295.334,165.596z"/>
<ellipse style="fill:#F6C358;" cx="138.584" cy="229.84" rx="36" ry="35.792"/>
<ellipse style="fill:#DC8744;" cx="138.584" cy="229.84" rx="14.712" ry="14.624"/>
<path style="fill:#64798A;" d="M126.835,137.259v83.844v17.438c2.683,3.566,6.926,5.906,11.75,5.906c4.824,0,9.067-2.34,11.75-5.906  v-17.438v-83.844H126.835z"/>
<ellipse style="fill:#3A556A;" cx="138.584" cy="117.72" rx="35.924" ry="35.708"/>
<path style="fill:#2F4859;" d="M159.31,99.876c5.466,5.433,7.618,12.101,4.809,14.894c-2.809,2.793-9.517,0.652-14.983-4.781  c-5.466-5.433-7.618-12.101-4.809-14.894C147.136,92.303,153.844,94.443,159.31,99.876z"/>
<ellipse style="fill:#EBF0F3;" cx="210.4" cy="199.82" rx="21.936" ry="21.804"/>
<ellipse style="fill:#27A2DB;" cx="210.4" cy="199.82" rx="18.836" ry="18.724"/>
<ellipse style="fill:#EBF0F3;" cx="268.32" cy="199.82" rx="21.936" ry="21.804"/>
<ellipse style="fill:#44C4A1;" cx="268.32" cy="199.82" rx="18.836" ry="18.724"/>
<ellipse style="fill:#EBF0F3;" cx="210.4" cy="254.12" rx="21.936" ry="21.804"/>
<ellipse style="fill:#E56353;" cx="210.4" cy="254.12" rx="18.836" ry="18.724"/>
<ellipse style="fill:#EBF0F3;" cx="268.32" cy="254.12" rx="21.936" ry="21.804"/>
<ellipse style="fill:#DC8744;" cx="268.32" cy="254.12" rx="18.836" ry="18.724"/>
<g>
</g>
<g>
</g>
<g>
</g>
<g>
</g>
<g>
</g>
<g>
</g>
<g>
</g>
<g>
</g>
<g>
</g>
<g>
</g>
<g>
</g>
<g>
</g>
<g>
</g>
<g>
</g>
<g>
</g>
</svg>
