<?xml version="1.0" encoding="iso-8859-1"?>
<!-- Generator: Adobe Illustrator 19.0.0, SVG Export Plug-In . SVG Version: 6.00 Build 0)  -->
<svg xmlns="http://www.w3.org/2000/svg" xmlns:xlink="http://www.w3.org/1999/xlink" version="1.1" id="Capa_1" x="0px" y="0px" viewBox="0 0 384 384" style="enable-background:new 0 0 384 384;" xml:space="preserve">
<circle style="fill:#45B39C;" cx="192" cy="192" r="192"/>
<path style="opacity:0.1;enable-background:new    ;" d="M140.64,206.4l-46.12,46.08L82,239.96V302l79.577,79.576  C171.488,383.155,181.644,384,192,384c36.159,0,69.973-10.011,98.851-27.39L169.6,235.36L140.64,206.4z"/>
<path style="opacity:0.1;enable-background:new    ;" d="M298,243.96L136.04,82H82v62.04l211.146,211.146  c25.152-15.623,46.417-36.888,62.04-62.04L302,239.96L298,243.96z"/>
<path style="opacity:0.1;enable-background:new    ;" d="M381.576,161.577L302,82h-54.04l8,8h-8l8.52,8.52l-42.08,42.12l4,4l-4,4  L356.611,290.85C373.99,261.973,384,228.159,384,192C384,181.644,383.155,171.488,381.576,161.577z"/>
<g>
	<polygon style="fill:#31978C;" points="302,90 302,144.025 289.476,131.501 243.364,177.612 214.388,148.636 260.499,102.524    247.975,90  "/>
	<polygon style="fill:#31978C;" points="82,90 82,144.026 94.525,131.502 140.637,177.614 169.614,148.637 123.502,102.524    136.026,90  "/>
	<polygon style="fill:#31978C;" points="302,302 302,247.975 289.476,260.499 243.364,214.388 214.388,243.364 260.499,289.476    247.975,302  "/>
	<polygon style="fill:#31978C;" points="82,302 82,247.974 94.525,260.498 140.637,214.386 169.614,243.363 123.502,289.476    136.026,302  "/>
</g>
<g>
	<polygon style="fill:#FFFFFF;" points="302,82 302,136.025 289.476,123.501 243.364,169.612 214.388,140.636 260.499,94.524    247.975,82  "/>
	<polygon style="fill:#FFFFFF;" points="82,82 82,136.026 94.525,123.502 140.637,169.614 169.614,140.637 123.502,94.524    136.026,82  "/>
	<polygon style="fill:#FFFFFF;" points="302,294 302,239.975 289.476,252.499 243.364,206.388 214.388,235.364 260.499,281.476    247.975,294  "/>
	<polygon style="fill:#FFFFFF;" points="82,294 82,239.974 94.525,252.498 140.637,206.386 169.614,235.363 123.502,281.476    136.026,294  "/>
</g>
<g>
</g>
<g>
</g>
<g>
</g>
<g>
</g>
<g>
</g>
<g>
</g>
<g>
</g>
<g>
</g>
<g>
</g>
<g>
</g>
<g>
</g>
<g>
</g>
<g>
</g>
<g>
</g>
<g>
</g>
</svg>
