<?xml version="1.0" encoding="iso-8859-1"?>
<!-- Generator: Adobe Illustrator 19.0.0, SVG Export Plug-In . SVG Version: 6.00 Build 0)  -->
<svg xmlns="http://www.w3.org/2000/svg" xmlns:xlink="http://www.w3.org/1999/xlink" version="1.1" id="Capa_1" x="0px" y="0px" viewBox="0 0 384 384" style="enable-background:new 0 0 384 384;" xml:space="preserve">
<circle style="fill:#334D5C;" cx="192" cy="192" r="192"/>
<path style="opacity:0.1;enable-background:new    ;" d="M240.44,105.07h-11.48l-1.92-1.88l-19.8-19.84  c-0.88-0.88-2.04-1.36-3.28-1.36H103.88c-2.52,0-4.6,2.08-4.6,4.64v187.68c0,1.346,0.595,2.535,1.507,3.383l-0.013,0.012  L206.47,383.401c82.824-6.178,151.014-64.846,171.335-142.886L243.72,106.429C242.84,105.549,241.68,105.07,240.44,105.07z"/>
<path style="fill:#E1E6E9;" d="M203.958,82H103.893c-2.552,0-4.62,2.069-4.62,4.62v187.691c0,2.552,2.069,4.62,4.62,4.62h139.734  c2.552,0,4.62-2.069,4.62-4.62V126.289c0-1.225-0.487-2.4-1.353-3.267l-39.668-39.669C206.359,82.487,205.184,82,203.958,82z"/>
<g>
	<path style="fill:#D5D6DB;" d="M210.492,124.375h37.306c-0.227-0.493-0.513-0.962-0.904-1.353l-19.834-19.834l-19.834-19.834   c-0.391-0.391-0.86-0.677-1.353-0.904v37.306C205.872,122.307,207.941,124.375,210.492,124.375z"/>
	<rect x="113.04" y="144" style="fill:#D5D6DB;" width="121.448" height="7.16"/>
	<rect x="113.04" y="164.96" style="fill:#D5D6DB;" width="121.448" height="7.16"/>
	<rect x="113.04" y="185.88" style="fill:#D5D6DB;" width="91.176" height="7.16"/>
	<rect x="113.04" y="248.72" style="fill:#D5D6DB;" width="59.064" height="7.16"/>
	<polygon style="fill:#D5D6DB;" points="113.036,227.761 113.036,234.922 206.422,234.922 234.485,234.922 234.485,227.761    207.284,227.761  "/>
	<polygon style="fill:#D5D6DB;" points="217.294,206.823 113.036,206.823 113.036,213.984 212.432,213.984 234.485,213.984    234.485,206.823  "/>
</g>
<path style="fill:#EBF0F3;" d="M240.439,105.068H140.374c-2.552,0-4.62,2.069-4.62,4.62V297.38c0,2.552,2.068,4.62,4.62,4.62  h139.734c2.552,0,4.62-2.068,4.62-4.62V149.357c0-1.225-0.487-2.4-1.353-3.267l-39.668-39.669  C242.84,105.555,241.664,105.068,240.439,105.068z"/>
<g>
	<path style="fill:#D5D6DB;" d="M246.973,147.444h37.305c-0.227-0.493-0.513-0.962-0.904-1.353l-19.834-19.834l-19.834-19.834   c-0.391-0.391-0.86-0.677-1.353-0.904v37.306C242.353,145.375,244.422,147.444,246.973,147.444z"/>
	<rect x="149.52" y="167.072" style="fill:#D5D6DB;" width="121.448" height="7.16"/>
	<rect x="149.52" y="188" style="fill:#D5D6DB;" width="121.448" height="7.16"/>
	<rect x="149.52" y="208.96" style="fill:#D5D6DB;" width="91.176" height="7.16"/>
	<rect x="149.52" y="271.772" style="fill:#D5D6DB;" width="59.064" height="7.16"/>
	<polygon style="fill:#D5D6DB;" points="149.516,250.829 149.516,257.99 242.903,257.99 270.966,257.99 270.966,250.829    243.764,250.829  "/>
	<polygon style="fill:#D5D6DB;" points="253.774,229.891 149.516,229.891 149.516,237.052 248.913,237.052 270.966,237.052    270.966,229.891  "/>
</g>
<g>
</g>
<g>
</g>
<g>
</g>
<g>
</g>
<g>
</g>
<g>
</g>
<g>
</g>
<g>
</g>
<g>
</g>
<g>
</g>
<g>
</g>
<g>
</g>
<g>
</g>
<g>
</g>
<g>
</g>
</svg>
