<?xml version="1.0" encoding="iso-8859-1"?>
<!-- Generator: Adobe Illustrator 19.0.0, SVG Export Plug-In . SVG Version: 6.00 Build 0)  -->
<svg xmlns="http://www.w3.org/2000/svg" xmlns:xlink="http://www.w3.org/1999/xlink" version="1.1" id="Capa_1" x="0px" y="0px" viewBox="0 0 384 384" style="enable-background:new 0 0 384 384;" xml:space="preserve">
<circle style="fill:#334D5C;" cx="192" cy="192" r="192"/>
<path style="opacity:0.1;enable-background:new    ;" d="M225.72,81.99H113.96c-2.88,0-5.16,2.32-5.16,5.159V296.83  c0,1.56,0.68,2.96,1.8,3.88l83.219,83.244c90.955-0.848,166.754-64.921,185.622-150.404L229.4,83.509  C228.4,82.549,227.12,81.99,225.72,81.99z"/>
<path style="fill:#EBF0F3;" d="M225.736,82H113.949c-2.85,0-5.161,2.311-5.161,5.162v209.677c0,2.85,2.311,5.161,5.161,5.161  h156.102c2.85,0,5.161-2.311,5.161-5.161V131.477c0-1.369-0.544-2.682-1.512-3.65l-44.315-44.315  C228.418,82.544,227.105,82,225.736,82z"/>
<path style="fill:#D5D6DB;" d="M233.036,129.339h41.675c-0.253-0.551-0.573-1.075-1.01-1.512l-22.157-22.158l-22.158-22.158  c-0.437-0.437-0.961-0.757-1.512-1.01v41.676C227.874,127.028,230.185,129.339,233.036,129.339z"/>
<path style="fill:#E56353;" d="M144.848,276.398c-3.758,0-6.832-2.092-8.301-3.676c-4.684-5.391-4.734-10.19-3.969-13.283  c0.668-2.688,2.32-5.154,4.656-6.947c3.441-2.645,13.363-9.734,28.012-15.768c7.695-13.971,12.906-25.33,16.43-34.375  c-6.121-11.482-8.129-20.98-8.777-25.619c-0.547-3.89-0.246-7.607,0.891-11.047c2.879-8.732,8.766-9.133,11.242-8.892  c0.504,0.058,10.242,1.392,11.848,15.107c0.082,0.549,1.148,9.248-6.41,29.846c4.625,7.884,11.406,16.642,21.34,25.271  c9.719-0.109,20.07,0.953,30.938,3.709c2.547,0.646,4.75,1.955,6.379,3.781c2.746,3.076,3.402,6.91,1.84,10.795  c0-0.002,0-0.004,0.004-0.004c0.012,0-0.645,1.99-2.09,3.982c-3.074,4.242-8.883,5.606-13.539,3.16  c-10.426-5.467-19.121-11.356-26.375-17.36c-14.621,0.547-27.539,3.906-38.086,7.982c-4.766,8.514-10.39,17.902-17.035,28.238  c-1.308,2.037-3.109,3.547-5.199,4.367h-0.004C147.328,276.183,146.051,276.398,144.848,276.398z M158.426,248.66  c-8.289,4.277-13.945,8.353-16.316,10.176c-0.906,0.697-1.535,1.596-1.766,2.529c-0.453,1.822,0.274,3.846,2.152,6.012  c0.039,0.027,1.551,1.498,3.23,0.842h-0.004c0.512-0.199,1.004-0.642,1.394-1.246C151.29,260.484,155.043,254.388,158.426,248.66z   M222.602,235.406c4.894,3.412,10.359,6.752,16.457,9.949c1.141,0.607,2.586,0.27,3.344-0.774c0.699-0.965,1.035-1.976,1.039-1.986  c0.52-1.322,0.418-1.974-0.289-2.766c-0.555-0.625-1.398-1.103-2.375-1.351C234.532,236.894,228.457,235.908,222.602,235.406z   M186.832,210.927c-2.684,6.35-6.066,13.57-10.328,21.738c7.316-2.271,15.449-4.092,24.25-5.01  C195.032,221.994,190.469,216.333,186.832,210.927z M184.04,164.736c-0.977,0-1.899,1.158-2.652,3.453  c-0.75,2.266-0.938,4.766-0.566,7.432c0.449,3.193,1.609,8.92,4.602,16.066c4.047-13.066,3.531-18.69,3.519-18.805  c-0.863-7.344-4.742-8.135-4.781-8.14C184.122,164.738,184.078,164.736,184.04,164.736z"/>
<g>
</g>
<g>
</g>
<g>
</g>
<g>
</g>
<g>
</g>
<g>
</g>
<g>
</g>
<g>
</g>
<g>
</g>
<g>
</g>
<g>
</g>
<g>
</g>
<g>
</g>
<g>
</g>
<g>
</g>
</svg>
