<?xml version="1.0" encoding="iso-8859-1"?>
<!-- Generator: Adobe Illustrator 19.0.0, SVG Export Plug-In . SVG Version: 6.00 Build 0)  -->
<svg xmlns="http://www.w3.org/2000/svg" xmlns:xlink="http://www.w3.org/1999/xlink" version="1.1" id="Capa_1" x="0px" y="0px" viewBox="0 0 384 384" style="enable-background:new 0 0 384 384;" xml:space="preserve">
<circle style="fill:#E05B49;" cx="192" cy="192" r="192"/>
<path style="opacity:0.1;enable-background:new    ;" d="M300.701,83.194l-0.082-0.082l-0.009,0.02  C299.856,82.447,298.883,82,297.8,82h-69.56c-2.32,0-4.24,1.92-4.24,4.28v80.8H98.16c-2.56,0-4.68,2.04-4.68,4.52v108.96H81.96  v16.68l85.094,85.093C175.225,383.394,183.54,384,192,384c106.039,0,192-85.962,192-192c0-9.34-0.702-18.514-1.991-27.497  l-81.161-81.161C300.799,83.29,300.752,83.243,300.701,83.194z"/>
<rect x="81.952" y="280.56" style="fill:#64798A;" width="202.808" height="16.688"/>
<g>
	<polygon style="fill:#3A556A;" points="93.015,302 273.696,302 284.759,297.245 81.952,297.245  "/>
	<path style="fill:#3A556A;" d="M262.171,269.494H104.539v-91.34h111.454v-11.063H98.18c-2.597,0-4.702,2.015-4.702,4.499v108.967   h179.756v-68.943h-11.062V269.494z"/>
</g>
<path style="fill:#EBF0F3;" d="M104.539,269.494h157.632v-57.88h-33.913c-6.762,0-12.266-5.504-12.266-12.268v-21.192H104.539  V269.494z"/>
<rect x="163.96" y="287.16" style="fill:#3A556A;" width="38.788" height="3.504"/>
<path style="fill:#44C4A1;" d="M166.914,207.043c4.277-4.277,9.818-6.479,15.428-6.714v5.392l18.202-7.904  c-12.005-8.044-28.442-6.778-39.039,3.819c-10.596,10.596-11.863,27.034-3.818,39.039l5.561-5.562  C158.111,226.221,159.316,214.641,166.914,207.043z"/>
<path style="fill:#E56353;" d="M199.797,239.926c-4.277,4.277-9.818,6.479-15.428,6.714v-5.391l-18.202,7.904  c12.005,8.044,28.442,6.778,39.039-3.818c10.596-10.597,11.863-27.034,3.818-39.039l-5.562,5.561  C208.6,220.748,207.396,232.328,199.797,239.926z"/>
<path style="fill:#2F4859;" d="M268.532,167.092h-52.539v11.063h46.179v33.46h11.062v-40.024  C273.233,169.106,271.128,167.092,268.532,167.092z"/>
<path style="fill:#E1E6E9;" d="M228.258,211.614h33.913v-33.46h-46.179v21.192C215.992,206.111,221.496,211.614,228.258,211.614z"/>
<path style="fill:#64798A;" d="M297.78,82h-69.521c-2.357,0-4.268,1.911-4.268,4.268v113.079c0,2.357,1.911,4.268,4.268,4.268  h69.521c2.357,0,4.268-1.911,4.268-4.268V86.268C302.048,83.911,300.137,82,297.78,82z"/>
<rect x="233.52" y="91.536" style="fill:#EBF0F3;" width="58.98" height="92"/>
<rect x="233.52" y="170" style="fill:#E1E6E9;" width="58.98" height="13.556"/>
<circle style="fill:#EBF0F3;" cx="263" cy="194.08" r="5.416"/>
<path style="fill:#E56353;" d="M244.391,172.504h-6.222c-0.713,0-1.292,0.578-1.292,1.291v6.222c0,0.713,0.578,1.291,1.292,1.291  h6.222c0.713,0,1.291-0.578,1.291-1.291v-6.222C245.682,173.082,245.104,172.504,244.391,172.504z"/>
<path style="fill:#44C4A1;" d="M258.884,172.504h-6.222c-0.713,0-1.291,0.578-1.291,1.291v6.222c0,0.713,0.578,1.291,1.291,1.291  h6.222c0.713,0,1.291-0.578,1.291-1.291v-6.222C260.175,173.082,259.597,172.504,258.884,172.504z"/>
<path style="fill:#27A2DB;" d="M273.377,172.504h-6.222c-0.713,0-1.291,0.578-1.291,1.291v6.222c0,0.713,0.578,1.291,1.291,1.291  h6.222c0.713,0,1.291-0.578,1.291-1.291v-6.222C274.668,173.082,274.09,172.504,273.377,172.504z"/>
<path style="fill:#F6C358;" d="M287.87,172.504h-6.222c-0.713,0-1.291,0.578-1.291,1.291v6.222c0,0.713,0.578,1.291,1.291,1.291  h6.222c0.713,0,1.292-0.578,1.292-1.291v-6.222C289.161,173.082,288.583,172.504,287.87,172.504z"/>
<ellipse style="fill:#E1E6E9;" cx="263" cy="149.76" rx="18.112" ry="1.992"/>
<circle style="fill:#44C4A1;" cx="263" cy="133.64" r="18.112"/>
<path style="fill:#FFFFFF;" d="M259.207,141.279c-0.026,0-0.054-0.001-0.082-0.002c-0.347-0.024-0.666-0.198-0.876-0.477  l-5.021-6.737c-0.394-0.529-0.284-1.275,0.244-1.669c0.526-0.392,1.274-0.288,1.67,0.244l4.187,5.62l11.672-11.906  c0.466-0.467,1.22-0.479,1.686-0.016c0.47,0.461,0.48,1.216,0.018,1.686l-12.647,12.901  C259.833,141.151,259.526,141.279,259.207,141.279z"/>
<g>
</g>
<g>
</g>
<g>
</g>
<g>
</g>
<g>
</g>
<g>
</g>
<g>
</g>
<g>
</g>
<g>
</g>
<g>
</g>
<g>
</g>
<g>
</g>
<g>
</g>
<g>
</g>
<g>
</g>
</svg>
