<?xml version="1.0" encoding="iso-8859-1"?>
<!-- Generator: Adobe Illustrator 19.0.0, SVG Export Plug-In . SVG Version: 6.00 Build 0)  -->
<svg xmlns="http://www.w3.org/2000/svg" xmlns:xlink="http://www.w3.org/1999/xlink" version="1.1" id="Capa_1" x="0px" y="0px" viewBox="0 0 384 384" style="enable-background:new 0 0 384 384;" xml:space="preserve">
<circle style="fill:#334D5C;" cx="192" cy="192" r="192"/>
<path style="opacity:0.1;enable-background:new    ;" d="M277.56,96.797c-0.76-1.08-2-1.76-3.4-1.76h-64.64l-9-7.76  c-4.88-4.24-12.16-4.24-17.04,0l-9,7.76h-64.64c-2.32,0-4.2,1.88-4.2,4.2v55.2L82,174.837v112c0,3.04,1.08,5.8,2.8,8l2.04,2.08  l0.16,0.12l86.022,86.022C179.266,383.671,185.594,384,192,384c102.376,0,186.014-80.131,191.672-181.091L277.64,96.877  L277.56,96.797z"/>
<g>
	<polygon style="fill:#F6C358;" points="192,235.6 301.94,174.819 82.06,174.819  "/>
	<path style="fill:#F6C358;" d="M183.466,87.268L82,174.819h0.06H301.94H302l-101.466-87.55   C195.632,83.037,188.369,83.037,183.466,87.268z"/>
</g>
<path style="fill:#FCD462;" d="M82.06,174.819H82V286.84c0,3.038,1.079,5.797,2.818,8.016L192,235.6L82.06,174.819z"/>
<path style="fill:#64798A;" d="M274.164,95.03H109.836c-2.318,0-4.198,1.879-4.198,4.197v27.694h172.722V99.227  C278.361,96.909,276.482,95.03,274.164,95.03z"/>
<path style="fill:#FFFFFF;" d="M278.361,126.921H142.602c-0.884,0-1.669-0.564-1.952-1.401l-2.31-6.833  c-0.283-0.838-1.069-1.401-1.953-1.401h-21.351c-0.884,0-1.67,0.563-1.953,1.401l-2.31,6.833c-0.283,0.837-1.069,1.401-1.953,1.401  h-3.181v125.025h172.722V126.921z"/>
<path style="fill:#D5D6DB;" d="M105.639,251.946v11.61c0,2.318,1.879,4.197,4.197,4.197h164.329c2.318,0,4.197-1.879,4.197-4.197  v-11.61H105.639z"/>
<circle style="fill:#FCD462;" cx="234.04" cy="106.264" r="4.74"/>
<circle style="fill:#44C4A1;" cx="250.92" cy="106.264" r="4.74"/>
<circle style="fill:#E56353;" cx="267.832" cy="106.264" r="4.74"/>
<path style="fill:#EBF0F3;" d="M143.377,123.78h29.264l-1.722-5.093c-0.283-0.838-1.069-1.401-1.953-1.401h-27.86  c0.06,0.138,0.159,0.252,0.208,0.397L143.377,123.78z"/>
<rect x="105.64" y="134.2" style="fill:#E1E6E9;" width="172.72" height="44.988"/>
<circle style="fill:#D5D6DB;" cx="115" cy="156.68" r="4.32"/>
<polygon style="fill:#EBF0F3;" points="112.64,156.693 115.582,159.634 115.582,153.752 "/>
<circle style="fill:#D5D6DB;" cx="269" cy="156.68" r="4.32"/>
<polygon style="fill:#EBF0F3;" points="271.36,156.693 268.418,159.634 268.418,153.752 "/>
<circle style="fill:#27A2DB;" cx="244.6" cy="258.68" r="3.264"/>
<circle style="fill:#E56353;" cx="254.72" cy="258.68" r="3.264"/>
<circle style="fill:#44C4A1;" cx="264.88" cy="258.68" r="3.264"/>
<g>
	<rect x="112.64" y="257.12" style="fill:#64798A;" width="46.476" height="3.14"/>
	<rect x="114.48" y="227.66" style="fill:#64798A;" width="31.08" height="3.14"/>
	<rect x="114.48" y="239.804" style="fill:#64798A;" width="20.84" height="3.14"/>
	<rect x="155.8" y="227.66" style="fill:#64798A;" width="31.08" height="3.14"/>
	<rect x="155.8" y="239.804" style="fill:#64798A;" width="20.84" height="3.14"/>
	<rect x="197.12" y="227.66" style="fill:#64798A;" width="31.08" height="3.14"/>
	<rect x="197.12" y="239.804" style="fill:#64798A;" width="20.84" height="3.14"/>
	<rect x="238.44" y="227.66" style="fill:#64798A;" width="31.08" height="3.14"/>
	<rect x="238.44" y="239.804" style="fill:#64798A;" width="20.84" height="3.14"/>
</g>
<path style="fill:#44C4A1;" d="M184.311,186.713h-25.94c-1.42,0-2.571,1.151-2.571,2.57v25.94c0,1.42,1.151,2.57,2.571,2.57h25.94  c1.42,0,2.57-1.151,2.57-2.57v-25.94C186.881,187.864,185.73,186.713,184.311,186.713z"/>
<path style="fill:#F6C358;" d="M142.992,186.713h-25.94c-1.419,0-2.57,1.151-2.57,2.57v25.94c0,1.42,1.151,2.57,2.57,2.57h25.94  c1.419,0,2.57-1.151,2.57-2.57v-25.94C145.562,187.864,144.412,186.713,142.992,186.713z"/>
<path style="fill:#E56353;" d="M225.629,186.713h-25.94c-1.42,0-2.57,1.151-2.57,2.57v25.94c0,1.42,1.151,2.57,2.57,2.57h25.94  c1.42,0,2.571-1.151,2.571-2.57v-25.94C228.2,187.864,227.049,186.713,225.629,186.713z"/>
<path style="fill:#27A2DB;" d="M266.948,186.713h-25.94c-1.419,0-2.57,1.151-2.57,2.57v25.94c0,1.42,1.151,2.57,2.57,2.57h25.94  c1.419,0,2.57-1.151,2.57-2.57v-25.94C269.518,187.864,268.367,186.713,266.948,186.713z"/>
<rect x="111.908" y="101.52" style="fill:#EBF0F3;" width="110.276" height="9.48"/>
<path style="fill:#FCD462;" d="M302,174.819h-0.06L192,235.6l107.183,59.256c1.738-2.219,2.817-4.978,2.817-8.016V174.819z"/>
<path style="fill:#F6C358;" d="M84.818,294.856c2.392,3.052,6.068,5.049,10.246,5.049h193.872c4.178,0,7.855-1.997,10.246-5.049  L192,235.6L84.818,294.856z"/>
<polygon style="fill:#FCD462;" points="82.06,174.819 82,174.819 82,275.882 192,235.6 "/>
<path style="fill:#DC8744;" d="M82,275.882v10.958c0,3.038,1.079,5.797,2.818,8.016L192,235.6L82,275.882z"/>
<g>
</g>
<g>
</g>
<g>
</g>
<g>
</g>
<g>
</g>
<g>
</g>
<g>
</g>
<g>
</g>
<g>
</g>
<g>
</g>
<g>
</g>
<g>
</g>
<g>
</g>
<g>
</g>
<g>
</g>
</svg>
