<?xml version="1.0" encoding="iso-8859-1"?>
<!-- Generator: Adobe Illustrator 19.0.0, SVG Export Plug-In . SVG Version: 6.00 Build 0)  -->
<svg xmlns="http://www.w3.org/2000/svg" xmlns:xlink="http://www.w3.org/1999/xlink" version="1.1" id="Capa_1" x="0px" y="0px" viewBox="0 0 384 384" style="enable-background:new 0 0 384 384;" xml:space="preserve">
<circle style="fill:#334D5C;" cx="192" cy="192" r="192"/>
<path style="opacity:0.1;enable-background:new    ;" d="M233.04,83.397c-3.48,0.961-5.56,4.64-4.64,8.2l-0.2-0.76  c0,0-3.52,4.32-9.44,10.44l-18.24-16.04c-4.88-4.32-12.16-4.32-17.04,0L82.04,174.477H82v114.2c0,3.12,1.08,5.92,2.8,8.16l2.36,2.36  l83.608,83.607C177.743,383.572,184.82,384,192,384c94.246,0,172.576-67.926,188.844-157.478L239.52,85.198  C237.92,83.477,235.44,82.717,233.04,83.397z"/>
<path style="fill:#F6C358;" d="M200.534,85.235c-4.902-4.313-12.165-4.313-17.068,0L82,174.485h0.06L192,236.446l109.94-61.962H302  L200.534,85.235z"/>
<path style="fill:#E1E6E9;" d="M233.052,83.378c-3.533,0.984-5.616,4.7-4.651,8.3l26.072,97.317c0.964,3.6,4.611,5.722,8.144,4.738  c3.534-0.984,5.616-4.7,4.651-8.3l-26.072-97.317C240.232,84.516,236.586,82.394,233.052,83.378z"/>
<path style="fill:#FFFFFF;" d="M228.19,90.856l26.512,98.957c0,0-41.112-14.94-76.124-10.496l-10.703-39.951  C200.241,125.05,228.19,90.856,228.19,90.856z"/>
<path style="fill:#64798A;" d="M183.26,196.832l-6.214,1.73l6.506,24.286l6.214-1.73c2.592-0.722,4.119-3.447,3.412-6.088  l-3.944-14.722C188.526,197.666,185.852,196.11,183.26,196.832z"/>
<path style="fill:#EBF0F3;" d="M208.426,251.072c0.564,3.007-1.487,5.9-4.385,6.708l-26.502,7.378  c-2.179,0.606-4.468-0.486-5.404-2.581l-30.687-68.642l29.449-8.199l29.344,61.2l1.157-0.322c1.494-0.416,3.032-0.184,4.29,0.547  C207.067,247.964,208.101,249.338,208.426,251.072z"/>
<path style="fill:#D15241;" d="M132.952,189.576l-6.648,1.851c-1.865,0.519-3.79-0.601-4.3-2.502l-7.646-28.542  c-0.51-1.902,0.59-3.864,2.455-4.383l6.648-1.851L132.952,189.576z"/>
<path style="fill:#E56353;" d="M138.789,195.944l34.341-9.561c3.773-1.05,5.996-5.02,4.965-8.866l-9.746-36.377  c-1.03-3.846-4.924-6.112-8.696-5.062l-34.341,9.561c-3.773,1.05-5.996,5.02-4.966,8.865l9.746,36.378  C131.123,194.728,135.016,196.994,138.789,195.944z"/>
<path style="fill:#64798A;" d="M249.926,120.698l8.614,32.154c8.714-2.426,13.85-11.591,11.471-20.47  C267.632,123.502,258.639,118.271,249.926,120.698z"/>
<g>
	<path style="fill:#FCD462;" d="M82.06,174.485H82v114.196c0,3.097,1.079,5.91,2.818,8.171L192,236.446L82.06,174.485z"/>
	<path style="fill:#FCD462;" d="M302,174.485h-0.06L192,236.446l107.183,60.406c1.738-2.262,2.817-5.074,2.817-8.171V174.485z"/>
</g>
<path style="fill:#F6C358;" d="M84.818,296.853C87.21,299.964,90.887,302,95.064,302h193.872c4.178,0,7.855-2.036,10.246-5.147  L192,236.446L84.818,296.853z"/>
<polygon style="fill:#FCD462;" points="82.06,174.485 82,174.485 82,277.511 192,236.446 "/>
<path style="fill:#DC8744;" d="M82,277.511v11.171c0,3.097,1.079,5.91,2.818,8.171L192,236.446L82,277.511z"/>
<g>
</g>
<g>
</g>
<g>
</g>
<g>
</g>
<g>
</g>
<g>
</g>
<g>
</g>
<g>
</g>
<g>
</g>
<g>
</g>
<g>
</g>
<g>
</g>
<g>
</g>
<g>
</g>
<g>
</g>
</svg>
