<?xml version="1.0" encoding="iso-8859-1"?>
<!-- Generator: Adobe Illustrator 19.0.0, SVG Export Plug-In . SVG Version: 6.00 Build 0)  -->
<svg xmlns="http://www.w3.org/2000/svg" xmlns:xlink="http://www.w3.org/1999/xlink" version="1.1" id="Capa_1" x="0px" y="0px" viewBox="0 0 384 384" style="enable-background:new 0 0 384 384;" xml:space="preserve">
<circle style="fill:#EA8953;" cx="192" cy="192" r="192"/>
<path style="opacity:0.1;enable-background:new    ;" d="M384,192c0-3.197-0.086-6.372-0.241-9.531L292.64,91.35  c-12.48-12.48-32.76-12.48-45.24,0l-29.08,29.08l-5.32-5.32c-0.56-0.56-1.44-0.56-2,0l-11.16,11.12c-0.56,0.56-0.56,1.48,0,2  l5.36,5.36l-96.92,96.92c-4.08,4.08-6.72,9.36-7.48,15.04L98,265.87c-0.76,5.72-3.4,11-7.48,15.04l-5.92,5.96  c-3.48,3.44-3.48,9.08,0,12.52l83.016,83.016C175.607,383.418,183.733,384,192,384C298.039,384,384,298.039,384,192z"/>
<path style="fill:#3A556A;" d="M268.895,171.004l-55.899-55.899c-0.555-0.554-1.454-0.554-2.008,0l-11.134,11.134  c-0.554,0.554-0.554,1.454,0,2.008l55.899,55.899c0.554,0.555,1.453,0.554,2.008,0l11.134-11.134  C269.449,172.457,269.45,171.559,268.895,171.004z"/>
<path style="fill:#64798A;" d="M292.634,91.366L292.634,91.366c-12.488-12.488-32.736-12.488-45.224,0l-29.076,29.076l45.225,45.225  l29.076-29.076C305.122,124.103,305.122,103.855,292.634,91.366z"/>
<path style="fill:#FFFFFF;" d="M205.191,133.584l-96.93,96.93c-4.064,4.065-6.688,9.348-7.47,15.043l-2.789,20.323  c-0.782,5.695-3.405,10.978-7.47,15.043l-5.934,5.934c-3.464,3.464-3.464,9.081,0,12.545c3.464,3.464,9.081,3.464,12.545,0  l5.934-5.934c4.065-4.065,9.348-6.688,15.042-7.47l20.323-2.789c5.695-0.782,10.978-3.405,15.042-7.47l96.93-96.93L205.191,133.584z  "/>
<path style="fill:#E56353;" d="M111.686,233.939c-3.298,3.297-5.462,7.658-6.097,12.277l-2.789,20.322  c-0.919,6.702-4.059,13.026-8.843,17.81l-5.934,5.934c-1.571,1.57-1.571,4.126,0,5.696c1.57,1.571,4.126,1.571,5.696,0l5.934-5.934  c4.784-4.783,11.108-7.924,17.81-8.843l20.321-2.789c4.622-0.635,8.982-2.8,12.278-6.096l63.666-63.666h-76.753L111.686,233.939z"/>
<g>
</g>
<g>
</g>
<g>
</g>
<g>
</g>
<g>
</g>
<g>
</g>
<g>
</g>
<g>
</g>
<g>
</g>
<g>
</g>
<g>
</g>
<g>
</g>
<g>
</g>
<g>
</g>
<g>
</g>
</svg>
