<?xml version="1.0" encoding="iso-8859-1"?>
<!-- Generator: Adobe Illustrator 19.0.0, SVG Export Plug-In . SVG Version: 6.00 Build 0)  -->
<svg xmlns="http://www.w3.org/2000/svg" xmlns:xlink="http://www.w3.org/1999/xlink" version="1.1" id="Capa_1" x="0px" y="0px" viewBox="0 0 384 384" style="enable-background:new 0 0 384 384;" xml:space="preserve">
<circle style="fill:#334D5C;" cx="192" cy="192" r="192"/>
<path style="opacity:0.1;enable-background:new    ;" d="M380.197,230.148l-147.201-147.2c-0.002-0.002-0.005-0.004-0.007-0.007  l-0.121-0.122l-0.01,0.019c-0.473-0.5-1.124-0.838-1.898-0.838h-77.52c-1.76,0-3.08,1.72-2.56,3.44l0.68,2.24  c6.12,20.4,3.8,42.04-4.64,61.6c-3.6,8.4-4.96,18.04-3.2,28.12c3.44,19.56,18.96,35.48,38.48,39.28c0.96,0.16,1.92,0.24,2.92,0.4  v62.08c-15.28,1.08-26.72,5.72-26.72,11.28c0,1.406,0.762,2.746,2.092,3.99l-0.015,0.008l82.631,82.631  C312.316,357.996,365.873,301.198,380.197,230.148z"/>
<path style="fill:#D5D6DB;" d="M198.894,282.074c0.002,0.007,2.004,5.558,7.617,8.64c-4.132,0.957-9.109,1.516-14.465,1.518h-0.092  c-5.358-0.003-10.337-0.561-14.47-1.52c5.616-3.082,7.617-8.64,7.617-8.64h0.003v-2.915c-15.253,1.093-26.713,5.735-26.713,11.299  c0,6.376,15.047,11.544,33.609,11.544c18.562,0,33.609-5.168,33.609-11.544c0-5.564-11.461-10.206-26.713-11.299v2.917H198.894z"/>
<path style="fill:#EBF0F3;" d="M185.104,217.064v62.093v2.915h-0.003c0,0-2.001,5.558-7.617,8.64  c4.133,0.959,9.112,1.518,14.47,1.52h0.092c5.356-0.003,10.333-0.561,14.465-1.518c-5.613-3.082-7.616-8.634-7.617-8.64h0.002  v-2.917v-62.04C194.464,217.741,189.834,217.707,185.104,217.064z"/>
<path style="fill:#FFFFFF;" d="M238.212,152.188c-7.641-21.413-8.455-44.649-4.634-67.067c0.278-1.634-0.952-3.121-2.609-3.121  h-77.518c-1.791,0-3.076,1.726-2.561,3.442l0.672,2.238c6.122,20.407,3.788,42.05-4.639,61.618  c-3.617,8.398-4.95,18.016-3.19,28.085c3.418,19.565,18.964,35.508,38.464,39.284c0.978,0.19,1.938,0.264,2.908,0.396  c4.73,0.643,9.36,0.677,13.791,0.053c23.815-3.354,42.142-23.797,42.142-48.535C241.038,162.827,240.04,157.31,238.212,152.188z"/>
<path style="fill:#FCD462;" d="M228.385,127.024h-70.683c-1.346,7.963-3.702,15.955-7.106,23.857  c-3.457,8.031-4.469,16.961-2.922,25.816c3.16,18.086,17.34,32.57,35.293,36.043c0.547,0.109,1.094,0.168,1.637,0.23l1.035,0.129  c2.281,0.309,4.539,0.465,6.719,0.465c2.039,0,4.054-0.137,5.98-0.406c22.062-3.11,38.699-22.274,38.699-44.578  c0-5.168-0.871-10.23-2.59-15.047C231.471,145.19,229.483,136.282,228.385,127.024z"/>
<g>
	<path style="fill:#F6C358;" d="M234.448,153.533c-2.914-8.166-4.866-16.88-5.978-25.928c-3.135,19.656-10.672,39.19-21.1,55.663   c-8.03,12.685-17.763,22.024-29.171,28.232c1.559,0.49,3.142,0.925,4.768,1.24c0.547,0.109,1.094,0.168,1.637,0.23l1.035,0.129   c2.281,0.309,4.539,0.465,6.719,0.465c2.039,0,4.054-0.137,5.98-0.406c22.062-3.11,38.699-22.274,38.699-44.578   C237.038,163.412,236.166,158.35,234.448,153.533z"/>
	<circle style="fill:#F6C358;" cx="168.92" cy="141.32" r="3.388"/>
	<circle style="fill:#F6C358;" cx="201.92" cy="143.008" r="1.696"/>
	<circle style="fill:#F6C358;" cx="173.88" cy="159.804" r="1.544"/>
	<circle style="fill:#F6C358;" cx="172.32" cy="185.16" r="4.188"/>
	<circle style="fill:#F6C358;" cx="205.32" cy="181.68" r="1.696"/>
	<circle style="fill:#F6C358;" cx="208.24" cy="159.304" r="2.94"/>
	<circle style="fill:#F6C358;" cx="193.76" cy="168.52" r="3.888"/>
	<circle style="fill:#F6C358;" cx="173.8" cy="107.124" r="2.692"/>
	<circle style="fill:#F6C358;" cx="208.64" cy="106.08" r="1.644"/>
	<circle style="fill:#F6C358;" cx="221.32" cy="94.216" r="1.544"/>
	<circle style="fill:#F6C358;" cx="189.16" cy="114.7" r="0.696"/>
</g>
<g>
</g>
<g>
</g>
<g>
</g>
<g>
</g>
<g>
</g>
<g>
</g>
<g>
</g>
<g>
</g>
<g>
</g>
<g>
</g>
<g>
</g>
<g>
</g>
<g>
</g>
<g>
</g>
<g>
</g>
</svg>
