<?xml version="1.0" encoding="iso-8859-1"?>
<!-- Generator: Adobe Illustrator 19.0.0, SVG Export Plug-In . SVG Version: 6.00 Build 0)  -->
<svg xmlns="http://www.w3.org/2000/svg" xmlns:xlink="http://www.w3.org/1999/xlink" version="1.1" id="Capa_1" x="0px" y="0px" viewBox="0 0 384 384" style="enable-background:new 0 0 384 384;" xml:space="preserve">
<circle style="fill:#EA8953;" cx="192" cy="192" r="192"/>
<path style="opacity:0.1;enable-background:new    ;" d="M381.032,225.469L269.786,114.223c-42.963-42.964-112.6-42.964-155.563,0  c-42.964,42.964-42.964,112.6,0,155.563l111.246,111.246C304.668,367.102,367.102,304.667,381.032,225.469z"/>
<path style="fill:#3EA69B;" d="M192,82v220c60.752,0,110-49.248,110-110S252.752,82,192,82z"/>
<path style="fill:#44C4A1;" d="M82,192c0,60.752,49.249,110,110,110V82C131.249,82,82,131.248,82,192z"/>
<polygon style="fill:#31978C;" points="168.475,257.078 115.998,204.598 138.623,181.973 168.475,211.82 245.377,134.922   268.002,157.547 "/>
<polygon style="fill:#FFFFFF;" points="168.475,249.078 115.998,196.598 138.623,173.973 168.475,203.82 245.377,126.922   268.002,149.547 "/>
<g>
</g>
<g>
</g>
<g>
</g>
<g>
</g>
<g>
</g>
<g>
</g>
<g>
</g>
<g>
</g>
<g>
</g>
<g>
</g>
<g>
</g>
<g>
</g>
<g>
</g>
<g>
</g>
<g>
</g>
</svg>
