<?xml version="1.0" encoding="iso-8859-1"?>
<!-- Generator: Adobe Illustrator 19.0.0, SVG Export Plug-In . SVG Version: 6.00 Build 0)  -->
<svg xmlns="http://www.w3.org/2000/svg" xmlns:xlink="http://www.w3.org/1999/xlink" version="1.1" id="Capa_1" x="0px" y="0px" viewBox="0 0 384 384" style="enable-background:new 0 0 384 384;" xml:space="preserve">
<circle style="fill:#EA8953;" cx="192" cy="192" r="192"/>
<path style="opacity:0.1;enable-background:new    ;" d="M264.2,117.1c-2.6,5.8-8.4,9.9-15.1,9.9H115.7L82,167.3L192,300l70.6,70.6  c61-24.1,106.7-78.6,118.4-144.9L265.7,110.3L264.2,117.1z"/>
<polygon style="fill:#27A2DB;" points="115.7,126.9 82,167.3 154.6,167.3 "/>
<polygon style="fill:#2D93BA;" points="82,167.3 192,300 154.6,167.3 "/>
<polygon style="fill:#27A2DB;" points="229.4,167.3 192.2,126.9 154.6,167.3 "/>
<polygon style="fill:#2D93BA;" points="192,300 302,167.3 229.4,167.3 "/>
<g>
	<polygon style="fill:#27A2DB;" points="229.4,167.3 302,167.3 268.3,126.9  "/>
	<polygon style="fill:#27A2DB;" points="154.6,167.3 192,300 229.4,167.3  "/>
</g>
<g>
	<polygon style="fill:#2D93BA;" points="268.3,126.9 192.2,126.9 229.4,167.3  "/>
	<polygon style="fill:#2D93BA;" points="192.2,126.9 115.7,126.9 154.6,167.3  "/>
</g>
<g>
	<path style="fill:#27A2DB;" d="M192,104.6c-0.8,0-1.5-0.7-1.5-1.5V84c0-0.8,0.7-1.5,1.5-1.5s1.5,0.7,1.5,1.5v19.1   C193.5,103.9,192.8,104.6,192,104.6z"/>
	<path style="fill:#27A2DB;" d="M233.8,107.1c-0.3,0-0.5-0.1-0.8-0.2c-0.7-0.4-0.9-1.4-0.5-2.1l10-16.2c0.4-0.7,1.4-0.9,2.1-0.5   s0.9,1.4,0.5,2.1l-10,16.2C234.8,106.9,234.3,107.1,233.8,107.1z"/>
	<path style="fill:#27A2DB;" d="M280.6,124.8c-0.3,0-0.5-0.1-0.8-0.2c-0.7-0.4-0.9-1.4-0.5-2.1l10-16.2c0.4-0.7,1.4-0.9,2.1-0.5   s0.9,1.4,0.5,2.1l-10,16.2C281.6,124.5,281.1,124.8,280.6,124.8z"/>
	<path style="fill:#27A2DB;" d="M150.2,107.1c-0.5,0-1-0.3-1.3-0.7l-10-16.2c-0.4-0.7-0.2-1.6,0.5-2.1c0.7-0.4,1.6-0.2,2.1,0.5   l10,16.2c0.4,0.7,0.2,1.6-0.5,2.1C150.7,107.1,150.5,107.1,150.2,107.1z"/>
	<path style="fill:#27A2DB;" d="M103.4,124.8c-0.5,0-1-0.3-1.3-0.7l-10-16.2c-0.4-0.7-0.2-1.6,0.5-2.1c0.7-0.4,1.6-0.2,2.1,0.5   l10,16.2c0.4,0.7,0.2,1.6-0.5,2.1C103.9,124.7,103.6,124.8,103.4,124.8z"/>
</g>
<path style="fill:#EBF0F3;" d="M265.7,143.5L265.7,143.5c0-9.2-7.4-16.6-16.6-16.6l0,0c9.2,0,16.6-7.4,16.6-16.6l0,0  c0,9.2,7.4,16.6,16.6,16.6l0,0C273.1,126.9,265.7,134.3,265.7,143.5z"/>
<path style="fill:#FFFFFF;" d="M155.8,183.9L155.8,183.9c0-9.2-7.4-16.6-16.6-16.6l0,0c9.2,0,16.6-7.4,16.6-16.6l0,0  c0,9.2,7.4,16.6,16.6,16.6l0,0C163.2,167.3,155.8,174.7,155.8,183.9z"/>
<g>
</g>
<g>
</g>
<g>
</g>
<g>
</g>
<g>
</g>
<g>
</g>
<g>
</g>
<g>
</g>
<g>
</g>
<g>
</g>
<g>
</g>
<g>
</g>
<g>
</g>
<g>
</g>
<g>
</g>
</svg>
