<?xml version="1.0" encoding="iso-8859-1"?>
<!-- Generator: Adobe Illustrator 19.0.0, SVG Export Plug-In . SVG Version: 6.00 Build 0)  -->
<svg xmlns="http://www.w3.org/2000/svg" xmlns:xlink="http://www.w3.org/1999/xlink" version="1.1" id="Capa_1" x="0px" y="0px" viewBox="0 0 384 384" style="enable-background:new 0 0 384 384;" xml:space="preserve">
<circle style="fill:#45B39C;" cx="192" cy="192" r="192"/>
<path style="opacity:0.1;enable-background:new    ;" d="M383.298,207.819L266.4,90.92c-39.44-11.52-71.4,11.52-110.88,0V87.2  c0-2.88-2.32-5.2-5.2-5.2c-2.88,0-5.2,2.32-5.2,5.2v195.24H117.6V302l81.812,81.812  C296.728,380.113,375.446,304.015,383.298,207.819z"/>
<rect x="117.6" y="282.44" style="fill:#3A556A;" width="65.468" height="19.572"/>
<path style="fill:#EBF0F3;" d="M150.326,82c-2.878,0-5.21,2.332-5.21,5.21v195.218h10.42V87.21  C155.536,84.332,153.203,82,150.326,82z"/>
<path style="fill:#E56353;" d="M266.408,161.527c-39.458-11.518-71.414,11.518-110.872,0c0.005-28.241,0.005-42.363,0-70.6  c39.458,11.519,71.414-11.516,110.872,0C266.409,119.164,266.408,133.286,266.408,161.527z"/>
<path style="fill:#D15241;" d="M209.34,142.633c-10.595,7.858-20.695,15.59-31.638,22.18c29.934,0.592,56.882-12.575,88.706-3.285  c0-25.886,0.002-39.939,0-63.844C250.138,115.684,226.941,129.579,209.34,142.633z"/>
<g>
</g>
<g>
</g>
<g>
</g>
<g>
</g>
<g>
</g>
<g>
</g>
<g>
</g>
<g>
</g>
<g>
</g>
<g>
</g>
<g>
</g>
<g>
</g>
<g>
</g>
<g>
</g>
<g>
</g>
</svg>
