<?xml version="1.0" encoding="iso-8859-1"?>
<!-- Generator: Adobe Illustrator 19.0.0, SVG Export Plug-In . SVG Version: 6.00 Build 0)  -->
<svg xmlns="http://www.w3.org/2000/svg" xmlns:xlink="http://www.w3.org/1999/xlink" version="1.1" id="Capa_1" x="0px" y="0px" viewBox="0 0 384 384" style="enable-background:new 0 0 384 384;" xml:space="preserve">
<circle style="fill:#334D5C;" cx="192" cy="192" r="192"/>
<path style="opacity:0.1;enable-background:new    ;" d="M383.514,204.99L296.8,118.278h-96.4l-36.28-36.28L87.2,235.877  l144.086,144.086C314.363,362.687,377.712,291.723,383.514,204.99z"/>
<path style="fill:#FCD462;" d="M296.802,118.29H191.22l26.962,53.922c27.614,8.54,47.94,33.654,49.498,63.656h29.122V118.29z"/>
<path style="fill:#F6C358;" d="M218.182,172.212L191.22,118.29h-8.943l25.846,51.692  C211.554,170.509,214.93,171.206,218.182,172.212z"/>
<path style="fill:#44C4A1;" d="M182.276,118.29L164.132,82L87.198,235.867h39.931c1.606-30.925,23.185-56.584,52.095-64.325  c5.811-1.556,11.885-2.464,18.18-2.464c3.653,0,7.214,0.365,10.718,0.904L182.276,118.29z"/>
<path style="fill:#F6C358;" d="M218.182,172.212l31.828,63.656h17.67C266.121,205.866,245.796,180.752,218.182,172.212z"/>
<path style="fill:#DC8744;" d="M241.066,235.867h8.944l-31.828-63.656c-3.252-1.005-6.627-1.702-10.059-2.23L241.066,235.867z"/>
<path style="fill:#3EA69B;" d="M208.122,169.982c-3.504-0.538-7.065-0.904-10.718-0.904c-6.295,0-12.369,0.908-18.18,2.464  c-28.91,7.741-50.489,33.4-52.095,64.325h52.095h61.842L208.122,169.982z"/>
<circle style="fill:#E56353;" cx="197.4" cy="239.54" r="62.46"/>
<g>
</g>
<g>
</g>
<g>
</g>
<g>
</g>
<g>
</g>
<g>
</g>
<g>
</g>
<g>
</g>
<g>
</g>
<g>
</g>
<g>
</g>
<g>
</g>
<g>
</g>
<g>
</g>
<g>
</g>
</svg>
