<?xml version="1.0" encoding="iso-8859-1"?>
<!-- Generator: Adobe Illustrator 19.0.0, SVG Export Plug-In . SVG Version: 6.00 Build 0)  -->
<svg xmlns="http://www.w3.org/2000/svg" xmlns:xlink="http://www.w3.org/1999/xlink" version="1.1" id="Capa_1" x="0px" y="0px" viewBox="0 0 384 384" style="enable-background:new 0 0 384 384;" xml:space="preserve">
<circle style="fill:#EA8953;" cx="192" cy="192" r="192"/>
<path style="opacity:0.1;enable-background:new    ;" d="M384,192c0-2.815-0.092-5.608-0.212-8.393l-84.756-84.756  c-0.231-0.254-0.471-0.493-0.724-0.724l0-0.001c-1.999-1.825-4.633-2.967-7.548-2.967h-2.592l-16.126-16.126  c-0.061-0.064-0.122-0.125-0.185-0.186l-0.115-0.115l-0.004,0.016c-1.12-1.027-2.602-1.67-4.257-1.67c-3.48,0-6.32,2.84-6.32,6.32  v11.76h-2.08l-16.083-16.083c-0.086-0.091-0.173-0.178-0.264-0.264l-0.078-0.078l-0.002,0.011c-1.12-1.024-2.599-1.665-4.251-1.665  c-3.48,0-6.28,2.84-6.28,6.32v11.76h-65.882l-16.05-16.05c-0.108-0.117-0.218-0.226-0.334-0.334l-0.059-0.059l-0.001,0.009  c-1.112-1.012-2.571-1.646-4.194-1.646c-3.52,0-6.32,2.84-6.32,6.32v11.76h-2.099l-16.054-16.054  c-0.101-0.108-0.204-0.211-0.312-0.312l-0.077-0.077l-0.003,0.01c-1.122-1.013-2.591-1.647-4.214-1.647c-3.48,0-6.32,2.84-6.32,6.32  v11.76H93.24c-6.2,0-11.24,5.04-11.24,11.24v189.28c0,2.32,0.72,4.48,1.92,6.28c0.8,1.2,1.84,2.2,3.04,3.04l76.932,76.932  C173.069,383.278,182.449,384,192,384C298.039,384,384,298.038,384,192z"/>
<path style="fill:#E1E6E9;" d="M82,295.674c0,6.2,5.026,11.226,11.227,11.226h197.547c6.2,0,11.226-5.026,11.226-11.226V145.786H82  V295.674z"/>
<rect x="82" y="137.8" style="fill:#EBF0F3;" width="220" height="8"/>
<path style="fill:#64798A;" d="M290.773,95.158H93.227c-6.2,0-11.227,5.026-11.227,11.227v31.401h220v-31.401  C302,100.184,296.974,95.158,290.773,95.158z"/>
<circle style="fill:#3A556A;" cx="116.52" cy="107.284" r="7.352"/>
<path style="fill:#EBF0F3;" d="M110.192,83.416v22.929c0,3.488,2.828,6.316,6.317,6.316V77.099  C113.02,77.099,110.192,79.927,110.192,83.416z"/>
<path style="fill:#E1E6E9;" d="M116.509,77.099v35.562c3.489,0,6.317-2.828,6.317-6.316V83.416  C122.826,79.927,119.998,77.099,116.509,77.099z"/>
<circle style="fill:#3A556A;" cx="145.6" cy="107.284" r="7.352"/>
<path style="fill:#EBF0F3;" d="M139.265,83.416v22.929c0,3.488,2.828,6.316,6.317,6.316V77.099  C142.093,77.099,139.265,79.927,139.265,83.416z"/>
<path style="fill:#E1E6E9;" d="M145.582,77.099v35.562c3.489,0,6.317-2.828,6.317-6.316V83.416  C151.899,79.927,149.071,77.099,145.582,77.099z"/>
<circle style="fill:#3A556A;" cx="238.4" cy="107.284" r="7.352"/>
<path style="fill:#EBF0F3;" d="M232.101,83.416v22.929c0,3.488,2.828,6.316,6.317,6.316V77.099  C234.93,77.099,232.101,79.927,232.101,83.416z"/>
<path style="fill:#E1E6E9;" d="M238.418,77.099v35.562c3.489,0,6.317-2.828,6.317-6.316V83.416  C244.735,79.927,241.907,77.099,238.418,77.099z"/>
<circle style="fill:#3A556A;" cx="267.48" cy="107.284" r="7.352"/>
<path style="fill:#EBF0F3;" d="M261.175,83.416v22.929c0,3.488,2.828,6.316,6.317,6.316V77.099  C264.003,77.099,261.175,79.927,261.175,83.416z"/>
<path style="fill:#E1E6E9;" d="M267.492,77.099v35.562c3.489,0,6.317-2.828,6.317-6.316V83.416  C273.808,79.927,270.98,77.099,267.492,77.099z"/>
<path style="fill:#FFFFFF;" d="M302,145.786H82v149.889c0,6.2,5.026,11.226,11.226,11.226h153.377L302,251.504V145.786z"/>
<path style="fill:#EBF0F3;" d="M302,251.504h-44.17c-6.2,0-11.226,5.026-11.226,11.226v44.17L302,251.504z"/>
<g>
	<path style="fill:#E56353;" d="M132.577,179.416h34.115v93.855h-15.047v-79.759h-19.068V179.416z"/>
	<path style="fill:#E56353;" d="M225.099,235.266v-17.178h15.036v17.178h11.288v14.369h-11.288v23.636h-15.036v-23.636h-40.278   V235.67l34.508-56.254h17.32l-33.973,55.85H225.099z"/>
</g>
<g>
</g>
<g>
</g>
<g>
</g>
<g>
</g>
<g>
</g>
<g>
</g>
<g>
</g>
<g>
</g>
<g>
</g>
<g>
</g>
<g>
</g>
<g>
</g>
<g>
</g>
<g>
</g>
<g>
</g>
</svg>
