<?xml version="1.0" encoding="iso-8859-1"?>
<!-- Generator: Adobe Illustrator 19.0.0, SVG Export Plug-In . SVG Version: 6.00 Build 0)  -->
<svg xmlns="http://www.w3.org/2000/svg" xmlns:xlink="http://www.w3.org/1999/xlink" version="1.1" id="Capa_1" x="0px" y="0px" viewBox="0 0 384 384" style="enable-background:new 0 0 384 384;" xml:space="preserve">
<circle style="fill:#E05B49;" cx="192" cy="192" r="192"/>
<path style="opacity:0.1;enable-background:new    ;" d="M279.16,89.852l-0.04-0.04c-5.48-4.84-12.68-7.801-20.56-7.801  c-16.04,0-29.2,12.16-30.8,27.801h-21.44c-5.76,0-10.44,4.64-10.44,10.399v3.48l-10.16-10.12l-0.84-0.88  c-1.88-1.8-4.4-2.88-7.2-2.88H92.4c-5.72,0-10.4,4.64-10.4,10.399v171.36c0,3.4,1.6,6.4,4.12,8.32l82.689,82.665  C176.417,383.474,184.145,384,192,384c105.158,0,190.522-84.552,191.934-189.374L281.56,92.251L279.16,89.852z"/>
<g>
	<path style="fill:#64798A;" d="M82,291.59c0,5.749,4.66,10.41,10.41,10.41h85.284c5.749,0,10.41-4.661,10.41-10.41v-21.704H82   V291.59z"/>
	<path style="fill:#64798A;" d="M188.104,120.201c0-5.749-4.661-10.409-10.41-10.409H92.41c-5.749,0-10.41,4.66-10.41,10.409v11.271   h106.104V120.201z"/>
</g>
<rect x="82" y="131.472" style="fill:#E1E6E9;" width="106.104" height="138.412"/>
<rect x="89.04" y="131.472" style="fill:#EBF0F3;" width="91.988" height="138.412"/>
<g>
	<path style="fill:#3A556A;" d="M152.991,117.298h-35.878c-1.423,0-2.577,1.154-2.577,2.577c0,1.423,1.154,2.577,2.577,2.577h35.878   c1.424,0,2.577-1.154,2.577-2.577C155.568,118.452,154.414,117.298,152.991,117.298z"/>
	<circle style="fill:#3A556A;" cx="135.052" cy="285.96" r="9.62"/>
</g>
<path style="fill:#2F4859;" d="M136.444,282.776h-2.786c-0.979,0-1.773,0.794-1.773,1.774v2.787c0,0.979,0.794,1.773,1.773,1.773  h2.788c0.979,0,1.773-0.794,1.773-1.773v-2.787C138.218,283.57,137.424,282.776,136.444,282.776z"/>
<g>
	<path style="fill:#64798A;" d="M195.896,291.59c0,5.749,4.66,10.41,10.409,10.41h85.284c5.749,0,10.41-4.661,10.41-10.41v-21.704   H195.896V291.59z"/>
	<path style="fill:#64798A;" d="M302,120.201c0-5.749-4.661-10.409-10.41-10.409h-85.284c-5.749,0-10.409,4.66-10.409,10.409v11.271   H302V120.201z"/>
</g>
<rect x="195.896" y="131.472" style="fill:#E1E6E9;" width="106.104" height="138.412"/>
<rect x="202.956" y="131.472" style="fill:#EBF0F3;" width="91.988" height="138.412"/>
<g>
	<path style="fill:#3A556A;" d="M266.887,117.298h-35.878c-1.423,0-2.577,1.154-2.577,2.577c0,1.423,1.154,2.577,2.577,2.577h35.878   c1.424,0,2.577-1.154,2.577-2.577C269.464,118.452,268.311,117.298,266.887,117.298z"/>
	<circle style="fill:#3A556A;" cx="248.96" cy="285.96" r="9.62"/>
</g>
<path style="fill:#2F4859;" d="M250.341,282.776h-2.786c-0.979,0-1.773,0.794-1.773,1.774v2.787c0,0.979,0.794,1.773,1.773,1.773  h2.788c0.979,0,1.773-0.794,1.773-1.773v-2.787C252.115,283.57,251.32,282.776,250.341,282.776z"/>
<circle style="fill:#27A2DB;" cx="135.052" cy="200.68" r="30.98"/>
<circle style="fill:#E56353;" cx="248.96" cy="200.68" r="30.98"/>
<g>
	<path style="fill:#FFFFFF;" d="M126.65,209.823l-3.36,7.633h-6.047l14.785-33.553h6.047l14.785,33.553h-6.051l-3.359-7.633H126.65z    M141.146,204.592l-6.094-13.824l-6.098,13.824H141.146z"/>
	<path style="fill:#FFFFFF;" d="M250.243,217.456h-14.688v-33.553h13.055c2.273,0,4.234,0.274,5.883,0.816   c1.644,0.545,2.871,1.281,3.672,2.209c1.535,1.726,2.301,3.68,2.301,5.855c0,2.625-0.832,4.576-2.496,5.856   c-0.606,0.449-1.024,0.728-1.246,0.84c-0.223,0.113-0.625,0.297-1.199,0.552c2.078,0.449,3.734,1.385,4.969,2.809   c1.23,1.424,1.848,3.191,1.848,5.303c0,2.336-0.801,4.4-2.402,6.193C258.052,216.416,254.817,217.456,250.243,217.456z    M241.22,197.823h7.199c4.098,0,6.144-1.391,6.144-4.176c0-1.6-0.496-2.752-1.488-3.455c-0.992-0.703-2.528-1.057-4.61-1.057   h-7.246V197.823z M241.22,212.223h8.879c2.082,0,3.672-0.328,4.778-0.984c1.102-0.654,1.656-1.894,1.656-3.719   c0-2.976-2.386-4.465-7.152-4.465h-8.16V212.223z"/>
</g>
<circle style="fill:#44C4A1;" cx="258.56" cy="112.96" r="30.98"/>
<path style="fill:#FFFFFF;" d="M250.469,128.015c-0.105,0-0.207-0.004-0.312-0.012c-1.062-0.084-2.047-0.588-2.738-1.398  l-9.472-11.154c-1.43-1.684-1.223-4.209,0.461-5.639c1.688-1.426,4.207-1.226,5.641,0.459l6.867,8.088l22.613-19.446  c1.684-1.432,4.203-1.252,5.64,0.426c1.442,1.676,1.25,4.201-0.422,5.64l-25.668,22.068  C252.348,127.673,251.422,128.015,250.469,128.015z"/>
<g>
</g>
<g>
</g>
<g>
</g>
<g>
</g>
<g>
</g>
<g>
</g>
<g>
</g>
<g>
</g>
<g>
</g>
<g>
</g>
<g>
</g>
<g>
</g>
<g>
</g>
<g>
</g>
<g>
</g>
</svg>
