<?xml version="1.0" encoding="iso-8859-1"?>
<!-- Generator: Adobe Illustrator 19.0.0, SVG Export Plug-In . SVG Version: 6.00 Build 0)  -->
<svg xmlns="http://www.w3.org/2000/svg" xmlns:xlink="http://www.w3.org/1999/xlink" version="1.1" id="Capa_1" x="0px" y="0px" viewBox="0 0 384 384" style="enable-background:new 0 0 384 384;" xml:space="preserve">
<circle style="fill:#E05B49;" cx="192" cy="192" r="192"/>
<path style="opacity:0.1;enable-background:new    ;" d="M369.778,264.536l-87.098-87.099c-1.6-1.801-3.32-3.52-5.12-5.121  l-65.64-65.64c-13.64-15.159-33.36-24.68-55.36-24.68c-41.16,0-74.56,33.4-74.56,74.56c0,19.28,7.32,36.801,19.36,50.04l5.12,5.12  l65.6,65.6c1.84,2.08,3.8,4,5.88,5.881l86.58,86.58C312.222,350.3,350.302,312.219,369.778,264.536z"/>
<path style="fill:#E1E6E9;" d="M230.342,166.093c-0.972-0.046-1.93-0.147-2.912-0.147c-33.957,0-61.484,27.527-61.484,61.484  c0,0.983,0.102,1.94,0.146,2.912c1.532,32.594,28.364,58.572,61.338,58.572c33.957,0,61.484-27.528,61.484-61.484  C288.914,194.456,262.938,167.624,230.342,166.093z"/>
<path style="fill:#EBF0F3;" d="M165.945,227.43c0-33.957,27.528-61.484,61.484-61.484c0.982,0,1.94,0.101,2.912,0.147  c0.041,0.002,0.08,0.01,0.121,0.012c0.4-3.129,0.676-6.296,0.676-9.534c0-1.192-0.121-2.353-0.178-3.532  C229.106,113.506,196.56,82,156.568,82C115.385,82,82,115.386,82,156.57c0,39.992,31.506,72.535,71.037,74.392  c1.18,0.056,2.34,0.179,3.531,0.179c3.238,0,6.406-0.276,9.535-0.677c-0.002-0.041-0.01-0.08-0.012-0.122  C166.047,229.37,165.945,228.413,165.945,227.43z"/>
<path style="fill:#E1E6E9;" d="M230.463,166.104c-4.291,33.541-30.818,60.068-64.359,64.359c1.594,32.537,28.392,58.45,61.326,58.45  c33.957,0,61.484-27.528,61.484-61.484C288.914,194.497,263,167.696,230.463,166.104z"/>
<path style="fill:#D5D6DB;" d="M230.463,166.104c-0.041-0.002-0.08-0.01-0.121-0.012c-0.972-0.046-1.93-0.147-2.912-0.147  c-33.957,0-61.484,27.527-61.484,61.484c0,0.983,0.102,1.94,0.146,2.912c0.002,0.041,0.01,0.081,0.012,0.122  C199.644,226.172,226.172,199.646,230.463,166.104z"/>
<path style="fill:#64798A;" d="M230.961,153.038c-1.178-0.056-2.34-0.178-3.531-0.178c-41.186,0-74.57,33.386-74.57,74.57  c0,1.192,0.123,2.354,0.178,3.532c1.857,39.532,34.4,71.038,74.392,71.038c41.184,0,74.57-33.386,74.57-74.57  C302,187.438,270.494,154.894,230.961,153.038z M227.43,288.914c-32.974,0-59.806-25.977-61.338-58.572  c-0.045-0.972-0.146-1.929-0.146-2.912c0-33.957,27.528-61.484,61.484-61.484c0.982,0,1.94,0.101,2.912,0.147  c32.596,1.531,58.572,28.363,58.572,61.337C288.914,261.386,261.387,288.914,227.43,288.914z"/>
<g>
</g>
<g>
</g>
<g>
</g>
<g>
</g>
<g>
</g>
<g>
</g>
<g>
</g>
<g>
</g>
<g>
</g>
<g>
</g>
<g>
</g>
<g>
</g>
<g>
</g>
<g>
</g>
<g>
</g>
</svg>
