<?xml version="1.0" encoding="iso-8859-1"?>
<!-- Generator: Adobe Illustrator 19.0.0, SVG Export Plug-In . SVG Version: 6.00 Build 0)  -->
<svg xmlns="http://www.w3.org/2000/svg" xmlns:xlink="http://www.w3.org/1999/xlink" version="1.1" id="Capa_1" x="0px" y="0px" viewBox="0 0 384 384" style="enable-background:new 0 0 384 384;" xml:space="preserve">
<circle style="fill:#EFC84A;" cx="192" cy="192" r="192"/>
<path style="opacity:0.1;enable-background:new    ;" d="M114.223,114.213c-42.964,42.964-42.964,112.599,0,155.564l111.254,111.254  c79.197-13.934,141.63-76.371,155.557-155.57L269.786,114.213C226.822,71.248,157.187,71.249,114.223,114.213z"/>
<path style="fill:#E56353;" d="M82,192c0,60.752,49.249,110,110,110V82C131.249,82,82,131.249,82,192z"/>
<path style="fill:#D15241;" d="M192,82v220c60.751,0,110-49.248,110-110C302,131.249,252.751,82,192,82z"/>
<polygon style="fill:#CE412D;" points="224.096,134.334 192,166.429 159.905,134.334 130.334,163.905 162.429,196 130.334,228.096   159.904,257.666 192,225.571 224.095,257.666 253.666,228.095 221.571,196 253.666,163.904 "/>
<polygon style="fill:#FFFFFF;" points="224.096,126.334 192,158.429 159.905,126.334 130.334,155.905 162.429,188 130.334,220.096   159.904,249.666 192,217.571 224.095,249.666 253.666,220.095 221.571,188 253.666,155.904 "/>
<g>
</g>
<g>
</g>
<g>
</g>
<g>
</g>
<g>
</g>
<g>
</g>
<g>
</g>
<g>
</g>
<g>
</g>
<g>
</g>
<g>
</g>
<g>
</g>
<g>
</g>
<g>
</g>
<g>
</g>
</svg>
