<?xml version="1.0" encoding="iso-8859-1"?>
<!-- Generator: Adobe Illustrator 19.0.0, SVG Export Plug-In . SVG Version: 6.00 Build 0)  -->
<svg xmlns="http://www.w3.org/2000/svg" xmlns:xlink="http://www.w3.org/1999/xlink" version="1.1" id="Capa_1" x="0px" y="0px" viewBox="0 0 384 384" style="enable-background:new 0 0 384 384;" xml:space="preserve">
<circle style="fill:#45B39C;" cx="192" cy="192" r="192"/>
<path style="opacity:0.1;enable-background:new    ;" d="M297.823,85.243l-0.045-0.045l-0.003,0.006  c-2.212-1.97-5.096-3.203-8.295-3.203H94.52C87.6,82,82,87.6,82,94.52v194.96c0,3.327,1.317,6.328,3.43,8.57l-0.016,0.009  l0.139,0.139c0.082,0.084,0.164,0.167,0.249,0.249l84.269,84.269C177.272,383.536,184.58,384,192,384c106.039,0,192-85.961,192-192  c0-7.394-0.46-14.678-1.274-21.854l-83.969-83.969C298.461,85.848,298.152,85.539,297.823,85.243z"/>
<path style="fill:#D15241;" d="M289.485,82H192v220h97.485c6.912,0,12.515-5.602,12.515-12.514V94.514  C302,87.603,296.398,82,289.485,82z"/>
<path style="fill:#E56353;" d="M94.515,82C87.602,82,82,87.603,82,94.514v194.972C82,296.398,87.602,302,94.515,302H192V82H94.515z"/>
<path style="fill:#CE412D;" d="M290.438,243.975h-28V123.563H142.025v-28h-20.463v28h-28v20.463h28v120.412h120.412v28h20.463v-28  h28V243.975z M142.025,243.975v-99.949h99.95v99.949H142.025z"/>
<polygon style="fill:#E1E6E9;" points="93.562,119.562 93.562,140.026 241.975,140.026 241.975,288.438 262.438,288.438   262.438,119.562 "/>
<polygon style="fill:#FFFFFF;" points="290.438,260.438 290.438,239.974 142.025,239.974 142.025,91.562 121.562,91.562   121.562,260.438 "/>
<g>
</g>
<g>
</g>
<g>
</g>
<g>
</g>
<g>
</g>
<g>
</g>
<g>
</g>
<g>
</g>
<g>
</g>
<g>
</g>
<g>
</g>
<g>
</g>
<g>
</g>
<g>
</g>
<g>
</g>
</svg>
