<?xml version="1.0" encoding="iso-8859-1"?>
<!-- Generator: Adobe Illustrator 19.0.0, SVG Export Plug-In . SVG Version: 6.00 Build 0)  -->
<svg xmlns="http://www.w3.org/2000/svg" xmlns:xlink="http://www.w3.org/1999/xlink" version="1.1" id="Capa_1" x="0px" y="0px" viewBox="0 0 384 384" style="enable-background:new 0 0 384 384;" xml:space="preserve">
<circle style="fill:#334D5C;" cx="192" cy="192" r="192"/>
<path style="opacity:0.1;enable-background:new    ;" d="M384,192c0-4.73-0.23-9.403-0.567-14.047L300.96,95.48l-4.72-3.72  l-6.84-5.44l-4.72-3.72c-1.2-0.96-2.92-0.76-3.88,0.44l-10.32,13.08l-1.92,2.4l-4.666,5.894L241.48,82H134.76L82,134.76V302  l79.577,79.576C171.488,383.155,181.644,384,192,384C298.039,384,384,298.039,384,192z"/>
<polygon style="fill:#E1E6E9;" points="134.757,90 82,142.757 82,302 241.461,302 241.461,90 "/>
<polygon style="fill:#EBF0F3;" points="134.757,82 82,134.757 82,294 241.461,294 241.461,82 "/>
<g>
	<polygon style="fill:#D5D6DB;" points="134.757,134.757 134.757,82 82,134.757  "/>
	<rect x="149.08" y="106.38" style="fill:#D5D6DB;" width="78.448" height="4"/>
	<rect x="149.08" y="127.108" style="fill:#D5D6DB;" width="78.448" height="4"/>
	<rect x="95.94" y="147.832" style="fill:#D5D6DB;" width="131.58" height="4"/>
	<rect x="95.94" y="168.56" style="fill:#D5D6DB;" width="131.58" height="4"/>
	<rect x="95.94" y="189.28" style="fill:#D5D6DB;" width="131.58" height="4"/>
	<rect x="95.94" y="210" style="fill:#D5D6DB;" width="131.58" height="4"/>
	<rect x="95.94" y="230.76" style="fill:#D5D6DB;" width="131.58" height="4"/>
	<rect x="95.94" y="251.472" style="fill:#D5D6DB;" width="131.58" height="4"/>
	<rect x="95.94" y="272.2" style="fill:#D5D6DB;" width="131.58" height="4"/>
</g>
<rect x="224.275" y="86.177" transform="matrix(-0.7838 -0.621 0.621 -0.7838 311.016 420.2017)" style="fill:#E56353;" width="8.756" height="139.569"/>
<rect x="231.11" y="91.588" transform="matrix(-0.7838 -0.621 0.621 -0.7838 319.8405 434.0989)" style="fill:#D15241;" width="8.756" height="139.568"/>
<rect x="237.988" y="97.038" transform="matrix(-0.7838 -0.621 0.621 -0.7838 328.742 448.087)" style="fill:#CE412D;" width="8.756" height="139.568"/>
<rect x="266.678" y="103.918" transform="matrix(-0.7838 -0.621 0.621 -0.7838 433.6292 361.8953)" style="fill:#44C4A1;" width="26.264" height="3.096"/>
<path style="fill:#64798A;" d="M284.686,82.596l4.704,3.727l-12.061,15.222l-6.862-5.437l10.351-13.064  C281.762,81.852,283.494,81.651,284.686,82.596z"/>
<rect x="277.082" y="92.279" transform="matrix(-0.621 0.7838 -0.7838 -0.621 540.6527 -68.1058)" style="fill:#3A556A;" width="19.42" height="8.756"/>
<path style="fill:#2F4859;" d="M296.252,91.76l4.704,3.727c1.192,0.944,1.392,2.676,0.448,3.868l-10.351,13.064l-6.862-5.437  L296.252,91.76z"/>
<path style="fill:#FCD462;" d="M202.459,224.237l-15.516,6.63c-0.179-1.846-1.068-3.622-2.638-4.866  c-1.569-1.243-3.5-1.702-5.34-1.455l2.907-16.621L202.459,224.237z"/>
<path style="fill:#64798A;" d="M184.305,226.002c1.57,1.244,2.459,3.019,2.638,4.866l-7.49,3.201  c-1.001,0.428-2.078-0.425-1.89-1.498l1.403-8.023C180.804,224.3,182.736,224.759,184.305,226.002z"/>
<g>
</g>
<g>
</g>
<g>
</g>
<g>
</g>
<g>
</g>
<g>
</g>
<g>
</g>
<g>
</g>
<g>
</g>
<g>
</g>
<g>
</g>
<g>
</g>
<g>
</g>
<g>
</g>
<g>
</g>
</svg>
