<?xml version="1.0" encoding="iso-8859-1"?>
<!-- Generator: Adobe Illustrator 19.0.0, SVG Export Plug-In . SVG Version: 6.00 Build 0)  -->
<svg xmlns="http://www.w3.org/2000/svg" xmlns:xlink="http://www.w3.org/1999/xlink" version="1.1" id="Capa_1" x="0px" y="0px" viewBox="0 0 384 384" style="enable-background:new 0 0 384 384;" xml:space="preserve">
<circle style="fill:#EFC84A;" cx="192" cy="192" r="192"/>
<path style="opacity:0.1;enable-background:new    ;" d="M384,192c0-5.525-0.287-10.981-0.745-16.388L300.88,93.27l-1-1  c-0.96-0.8-2.2-1.28-3.52-1.28H163.8c-3.12,0-5.64,2.52-5.64,5.6v64.48H87.64c-3.12,0-5.64,2.52-5.64,5.64v90.88  c0,1.8,0.84,3.36,2.12,4.4l19.2,19.2v7.52c0,1.56,0.76,2.8,1.84,3.52l91.623,91.65C300.604,381.332,384,296.435,384,192z"/>
<path style="fill:#EBF0F3;" d="M87.636,161.075h132.569c3.112,0,5.634,2.522,5.634,5.634v90.89c0,3.112-2.522,5.634-5.634,5.634  h-79.778c-0.758,0-1.486,0.302-2.023,0.838l-27.68,27.681c-2.726,2.726-7.388,0.796-7.388-3.06v-22.597  c0-1.58-1.28-2.862-2.862-2.862H87.636c-3.112,0-5.636-2.523-5.636-5.635V166.71C82,163.598,84.522,161.075,87.636,161.075z"/>
<path style="fill:#E1E6E9;" d="M220.204,161.075h-70.043v26.421c0,7.518,6.117,13.633,13.633,13.633h62.045v-34.42  C225.839,163.597,223.317,161.075,220.204,161.075z"/>
<path style="fill:#64798A;" d="M296.364,90.972H163.795c-3.112,0-5.634,2.522-5.634,5.634v90.89c0,3.112,2.522,5.634,5.634,5.634  h79.778c0.758,0,1.486,0.301,2.023,0.838l27.68,27.681c2.726,2.726,7.388,0.796,7.388-3.06v-22.597c0-1.581,1.28-2.862,2.862-2.862  h12.838c3.112,0,5.636-2.523,5.636-5.636V96.607C302,93.495,299.478,90.972,296.364,90.972z"/>
<g>
	<circle style="fill:#E56353;" cx="109.84" cy="213.8" r="12.668"/>
	<circle style="fill:#E56353;" cx="153.92" cy="213.8" r="12.668"/>
	<circle style="fill:#E56353;" cx="198" cy="213.8" r="12.668"/>
</g>
<path style="fill:#FFFFFF;" d="M224.876,178.108c-8.386-7.182-35.746-31.856-35.746-47.807c0-14.562,11.848-26.41,26.41-26.41  c5.266,0,10.285,1.539,14.539,4.361c4.258-2.822,9.277-4.361,14.543-4.361c14.562,0,26.41,11.848,26.41,26.41  c0,16.695-27.426,40.865-35.828,47.875l-5.196,4.33L224.876,178.108z"/>
<path style="fill:#E56353;" d="M244.621,111.892c-5.919,0-11.172,2.806-14.54,7.148c-3.368-4.342-8.621-7.148-14.542-7.148  c-10.168,0-18.409,8.242-18.409,18.41c0,13.509,32.95,41.732,32.95,41.732s32.95-27.483,32.95-41.732  C263.031,120.134,254.788,111.892,244.621,111.892z"/>
<g>
</g>
<g>
</g>
<g>
</g>
<g>
</g>
<g>
</g>
<g>
</g>
<g>
</g>
<g>
</g>
<g>
</g>
<g>
</g>
<g>
</g>
<g>
</g>
<g>
</g>
<g>
</g>
<g>
</g>
</svg>
