<?xml version="1.0" encoding="iso-8859-1"?>
<!-- Generator: Adobe Illustrator 19.0.0, SVG Export Plug-In . SVG Version: 6.00 Build 0)  -->
<svg xmlns="http://www.w3.org/2000/svg" xmlns:xlink="http://www.w3.org/1999/xlink" version="1.1" id="Capa_1" x="0px" y="0px" viewBox="0 0 384 384" style="enable-background:new 0 0 384 384;" xml:space="preserve">
<circle style="fill:#EA8953;" cx="192" cy="192" r="192"/>
<path style="opacity:0.1;enable-background:new    ;" d="M374.784,250.823l-74.468-74.468c-0.032-0.034-0.042-0.081-0.075-0.115  l-5.92-5.88l-14.48-14.48c-0.749-0.769-1.742-1.142-2.734-1.134L247.48,125.12L204.36,82H82.64v220l79.715,79.716  C172.019,383.213,181.917,384,192,384C277.515,384,349.938,328.08,374.784,250.823z"/>
<polygon style="fill:#E1E6E9;" points="204.35,82 82.66,82 82.66,302 247.475,302 247.475,125.126 "/>
<polygon style="fill:#FFFFFF;" points="204.35,82 82.66,82 82.66,294 247.475,294 247.475,125.126 "/>
<polygon style="fill:#EBF0F3;" points="204.35,125.126 247.475,125.126 204.35,82 "/>
<polygon style="fill:#E1E6E9;" points="204.35,125.126 247.475,153.099 247.475,125.126 "/>
<rect x="128.88" y="121.12" style="fill:#27A2DB;" width="72.36" height="6.596"/>
<g>
	<rect x="101.984" y="149.8" style="fill:#E1E6E9;" width="126.168" height="6.596"/>
	<rect x="101.984" y="170.4" style="fill:#E1E6E9;" width="126.168" height="6.596"/>
	<rect x="101.984" y="190.964" style="fill:#E1E6E9;" width="126.168" height="6.596"/>
	<rect x="101.984" y="211.548" style="fill:#E1E6E9;" width="126.168" height="6.596"/>
	<rect x="101.984" y="232.12" style="fill:#E1E6E9;" width="126.168" height="6.596"/>
</g>
<rect x="101.984" y="252.72" style="fill:#E56353;" width="42.76" height="6.596"/>
<rect x="231.834" y="180.748" transform="matrix(0.7071 0.7071 -0.7071 0.7071 236.1072 -99.2952)" style="fill:#44C4A1;" width="12.156" height="109.216"/>
<rect x="223.23" y="172.142" transform="matrix(0.7071 0.7071 -0.7071 0.7071 227.49 -95.7317)" style="fill:#3EA69B;" width="12.156" height="109.217"/>
<rect x="214.642" y="163.578" transform="matrix(0.7071 0.7071 -0.7071 0.7071 218.9284 -92.1671)" style="fill:#31978C;" width="12.156" height="109.216"/>
<rect x="251.213" y="184.496" transform="matrix(0.7071 0.7071 -0.7071 0.7071 210.8964 -135.8611)" style="fill:#E56353;" width="36.468" height="4.296"/>
<path style="fill:#64798A;" d="M300.22,176.241l-5.892-5.892l-19.066,19.066l8.595,8.595l16.364-16.364  C301.713,180.154,301.713,177.734,300.22,176.241z"/>
<rect x="267.007" y="169.517" transform="matrix(-0.7071 0.7071 -0.7071 -0.7071 602.9891 101.4247)" style="fill:#3A556A;" width="26.964" height="12.156"/>
<path style="fill:#2F4859;" d="M285.733,161.753l-5.892-5.892c-1.493-1.493-3.913-1.493-5.406,0l-16.363,16.364l8.595,8.595  L285.733,161.753z"/>
<path style="fill:#FCD462;" d="M177.806,252.491l-6.665,22.458c2.575-0.048,5.166,0.894,7.132,2.86  c1.965,1.965,2.908,4.555,2.86,7.131l22.459-6.665L177.806,252.491z"/>
<path style="fill:#64798A;" d="M178.273,277.81c-1.966-1.966-4.557-2.909-7.132-2.86l-3.217,10.841  c-0.43,1.449,0.918,2.798,2.368,2.368l10.841-3.217C181.18,282.365,180.238,279.775,178.273,277.81z"/>
<g>
</g>
<g>
</g>
<g>
</g>
<g>
</g>
<g>
</g>
<g>
</g>
<g>
</g>
<g>
</g>
<g>
</g>
<g>
</g>
<g>
</g>
<g>
</g>
<g>
</g>
<g>
</g>
<g>
</g>
</svg>
