<?xml version="1.0" encoding="iso-8859-1"?>
<!-- Generator: Adobe Illustrator 19.0.0, SVG Export Plug-In . SVG Version: 6.00 Build 0)  -->
<svg xmlns="http://www.w3.org/2000/svg" xmlns:xlink="http://www.w3.org/1999/xlink" version="1.1" id="Capa_1" x="0px" y="0px" viewBox="0 0 384 384" style="enable-background:new 0 0 384 384;" xml:space="preserve">
<circle style="fill:#334D5C;" cx="192" cy="192" r="192"/>
<path style="opacity:0.1;enable-background:new    ;" d="M254.04,137.95l-49.16-37.52c-3.8-2.92-9.2-2.2-12.12,1.601l-7.48,9.8  l-27-27c-1.56-1.36-3.56-2.24-5.76-2.24H90.68c-4.76,0-8.6,3.88-8.6,8.64v157.96c-0.08,0.52-0.08,1,0,1.52v20.12  c0,2.68,1.2,5.08,3.12,6.68l0.12,0.08l106.404,106.403c0.093,0,0.184,0.007,0.276,0.007c83.33,0,154.235-53.098,180.794-127.296  L255.6,139.509L254.04,137.95z"/>
<path style="fill:#D5D6DB;" d="M301.866,259.875l-10.804-60.888c-0.833-4.695-5.314-7.826-10.01-6.992l-176.827,31.382  c-4.696,0.833-7.826,5.315-6.993,10.01l10.804,60.888c0.833,4.695,5.314,7.826,10.01,6.992l176.828-31.382  C299.568,269.052,302.699,264.57,301.866,259.875z"/>
<path style="fill:#44C4A1;" d="M256.853,207.194l20.803-3.692c1.768-0.314,3.456,0.865,3.77,2.634l8.932,50.343  c0.314,1.768-0.865,3.456-2.634,3.77l-20.803,3.692c-1.768,0.314-3.456-0.865-3.77-2.634l-8.932-50.343  C253.905,209.196,255.084,207.508,256.853,207.194z"/>
<path style="fill:#3EA69B;" d="M216.926,214.28l20.803-3.692c1.768-0.314,3.456,0.865,3.77,2.634l8.933,50.343  c0.314,1.768-0.866,3.456-2.634,3.77l-20.803,3.692c-1.768,0.314-3.456-0.865-3.77-2.634l-8.933-50.343  C213.978,216.282,215.158,214.594,216.926,214.28z"/>
<g>
	<path style="fill:#31978C;" d="M176.999,221.366l20.803-3.692c1.768-0.314,3.456,0.865,3.77,2.634l8.932,50.343   c0.314,1.768-0.866,3.456-2.634,3.77l-20.803,3.692c-1.768,0.314-3.456-0.866-3.77-2.634l-8.932-50.343   C174.052,223.368,175.231,221.68,176.999,221.366z"/>
	<path style="fill:#31978C;" d="M137.073,228.452l20.803-3.692c1.768-0.314,3.456,0.865,3.77,2.634l8.932,50.343   c0.314,1.768-0.865,3.456-2.634,3.77l-20.803,3.692c-1.768,0.314-3.456-0.865-3.77-2.634l-8.932-50.343   C134.125,230.454,135.304,228.766,137.073,228.452z"/>
</g>
<path style="fill:#64798A;" d="M133.533,258.347c-1.149-6.475-7.33-10.794-13.806-9.644c-6.476,1.15-10.794,7.331-9.646,13.806  c1.149,6.475,7.33,10.794,13.806,9.644C130.364,271.004,134.682,264.822,133.533,258.347z M114.074,261.8  c-0.758-4.271,2.09-8.347,6.361-9.105c4.27-0.758,8.347,2.09,9.105,6.36c0.758,4.271-2.09,8.348-6.361,9.106  S114.832,266.071,114.074,261.8z"/>
<path style="fill:#E1E6E9;" d="M254.026,137.948l-49.145-37.535c-3.79-2.894-9.208-2.168-12.102,1.621L83.773,244.756  c-2.894,3.79-2.168,9.208,1.621,12.102l49.145,37.535c3.79,2.894,9.208,2.169,12.102-1.621l109.005-142.722  C258.541,146.261,257.815,140.842,254.026,137.948z"/>
<path style="fill:#FCD462;" d="M185.237,129.598l12.824-16.791c1.09-1.427,3.131-1.7,4.558-0.61l40.634,31.034  c1.427,1.09,1.701,3.131,0.61,4.558l-12.824,16.791c-1.09,1.427-3.131,1.701-4.558,0.61l-40.634-31.034  C184.42,133.066,184.147,131.025,185.237,129.598z"/>
<path style="fill:#F6C358;" d="M160.624,161.824l12.824-16.791c1.09-1.427,3.131-1.7,4.558-0.61l40.634,31.034  c1.427,1.09,1.701,3.131,0.61,4.558l-12.824,16.791c-1.09,1.427-3.131,1.701-4.558,0.61l-40.634-31.034  C159.807,165.292,159.534,163.251,160.624,161.824z"/>
<path style="fill:#DC8744;" d="M136.011,194.049l12.824-16.791c1.09-1.427,3.131-1.7,4.558-0.61l40.634,31.034  c1.427,1.09,1.701,3.131,0.61,4.558l-12.824,16.791c-1.09,1.427-3.131,1.701-4.558,0.61l-40.634-31.034  C135.194,197.518,134.921,195.477,136.011,194.049z"/>
<g>
	<path style="fill:#64798A;" d="M111.398,226.275l12.824-16.791c1.09-1.427,3.131-1.7,4.558-0.61l40.634,31.034   c1.427,1.09,1.701,3.131,0.61,4.558l-12.824,16.791c-1.09,1.427-3.131,1.701-4.558,0.61l-40.634-31.034   C110.582,229.744,110.308,227.703,111.398,226.275z"/>
	<path style="fill:#64798A;" d="M129.014,250.687c-5.226-3.992-12.7-2.991-16.692,2.236c-3.992,5.227-2.991,12.701,2.235,16.693   c5.226,3.992,12.7,2.991,16.692-2.236C135.242,262.152,134.241,254.678,129.014,250.687z M117.019,266.392   c-3.447-2.633-4.107-7.562-1.474-11.009c2.633-3.447,7.562-4.107,11.009-1.474c3.447,2.633,4.107,7.562,1.474,11.009   S120.466,269.025,117.019,266.392z"/>
</g>
<path style="fill:#EBF0F3;" d="M152.535,82.599h-61.84c-4.768,0-8.634,3.866-8.634,8.634v179.586c0,4.769,3.866,8.634,8.634,8.634  h61.84c4.768,0,8.634-3.866,8.634-8.634V91.233C161.169,86.464,157.304,82.599,152.535,82.599z"/>
<path style="fill:#E56353;" d="M92.798,117.715V96.587c0-1.796,1.456-3.252,3.252-3.252h51.13c1.796,0,3.252,1.456,3.252,3.252  v21.128c0,1.796-1.456,3.252-3.252,3.252H96.05C94.254,120.967,92.798,119.511,92.798,117.715z"/>
<path style="fill:#D15241;" d="M92.798,158.265v-21.128c0-1.796,1.456-3.252,3.252-3.252h51.13c1.796,0,3.252,1.456,3.252,3.252  v21.128c0,1.796-1.456,3.252-3.252,3.252H96.05C94.254,161.517,92.798,160.061,92.798,158.265z"/>
<path style="fill:#CE412D;" d="M92.798,198.814v-21.128c0-1.796,1.456-3.252,3.252-3.252h51.13c1.796,0,3.252,1.456,3.252,3.252  v21.128c0,1.796-1.456,3.252-3.252,3.252H96.05C94.254,202.066,92.798,200.61,92.798,198.814z"/>
<path style="fill:#DC8744;" d="M92.798,239.364v-21.128c0-1.796,1.456-3.252,3.252-3.252h51.13c1.796,0,3.252,1.456,3.252,3.252  v21.128c0,1.796-1.456,3.252-3.252,3.252H96.05C94.254,242.616,92.798,241.16,92.798,239.364z"/>
<path style="fill:#64798A;" d="M121.615,248.072c-6.576,0-11.908,5.331-11.908,11.908c0,6.577,5.332,11.909,11.908,11.909  s11.908-5.332,11.908-11.909C133.524,253.403,128.192,248.072,121.615,248.072z M121.615,267.834c-4.338,0-7.854-3.516-7.854-7.854  c0-4.337,3.516-7.854,7.854-7.854s7.854,3.516,7.854,7.854C129.469,264.318,125.953,267.834,121.615,267.834z"/>
<g>
</g>
<g>
</g>
<g>
</g>
<g>
</g>
<g>
</g>
<g>
</g>
<g>
</g>
<g>
</g>
<g>
</g>
<g>
</g>
<g>
</g>
<g>
</g>
<g>
</g>
<g>
</g>
<g>
</g>
</svg>
