<?xml version="1.0" encoding="iso-8859-1"?>
<!-- Generator: Adobe Illustrator 19.0.0, SVG Export Plug-In . SVG Version: 6.00 Build 0)  -->
<svg xmlns="http://www.w3.org/2000/svg" xmlns:xlink="http://www.w3.org/1999/xlink" version="1.1" id="Capa_1" x="0px" y="0px" viewBox="0 0 384 384" style="enable-background:new 0 0 384 384;" xml:space="preserve">
<circle style="fill:#334D5C;" cx="192" cy="192" r="192"/>
<path style="opacity:0.1;enable-background:new    ;" d="M376.267,245.93L238.67,108.333l-0.028,0.061  C226.871,95.66,210.076,87.64,191.36,87.64c-35.56,0-64.4,28.84-64.4,64.44c0,6.16,0.92,12.12,2.52,17.76  C102.12,177.28,82,202.24,82,231.92c0,18.034,7.42,34.312,19.35,46.007l-0.012,0.009L206.78,383.378  C287.532,377.223,354.284,321.155,376.267,245.93z"/>
<path style="fill:#FCD462;" d="M192,186.395c11.66-11.671,27.774-18.892,45.576-18.892c5.447,0,10.707,0.749,15.759,2.022  c1.562-5.557,2.458-11.395,2.458-17.452c0-35.581-28.844-64.424-64.424-64.424c-35.58,0-64.424,28.844-64.424,64.424  c0,6.166,0.918,12.109,2.536,17.756c5.407-1.473,11.07-2.327,16.944-2.327C164.226,167.503,180.34,174.724,192,186.395z"/>
<path style="fill:#44C4A1;" d="M175.609,214.475c-22.228-5.6-39.842-22.698-46.129-44.645C102.134,177.278,82,202.22,82,231.927  c0,35.58,28.844,64.424,64.424,64.424c17.801,0,33.916-7.221,45.576-18.892c-11.646-11.656-18.848-27.752-18.848-45.531  C173.152,225.87,174.046,220.032,175.609,214.475z"/>
<path style="fill:#3EA69B;" d="M175.609,214.475c3.024-10.755,8.712-20.394,16.391-28.08c-11.66-11.671-27.774-18.892-45.576-18.892  c-5.874,0-11.537,0.854-16.944,2.327C135.767,191.777,153.381,208.875,175.609,214.475z"/>
<path style="fill:#E56353;" d="M253.334,169.525c-6.102,21.699-23.251,38.715-45.022,44.645c1.618,5.648,2.536,11.59,2.536,17.757  c0,17.779-7.202,33.875-18.848,45.531c11.66,11.672,27.774,18.892,45.576,18.892c35.581,0,64.424-28.843,64.424-64.424  C302,201.794,281.282,176.566,253.334,169.525z"/>
<path style="fill:#F6C358;" d="M192,186.395c7.606,7.614,13.266,17.142,16.312,27.775c21.771-5.93,38.921-22.946,45.022-44.645  c-5.052-1.273-10.312-2.022-15.759-2.022C219.774,167.503,203.66,174.724,192,186.395z"/>
<path style="fill:#D15241;" d="M208.312,214.17c-3.046-10.633-8.706-20.161-16.312-27.775c-7.678,7.686-13.367,17.325-16.391,28.08  c-1.563,5.558-2.457,11.396-2.457,17.452c0,17.779,7.202,33.875,18.848,45.531c11.646-11.656,18.848-27.752,18.848-45.531  C210.848,225.76,209.93,219.818,208.312,214.17z"/>
<g>
</g>
<g>
</g>
<g>
</g>
<g>
</g>
<g>
</g>
<g>
</g>
<g>
</g>
<g>
</g>
<g>
</g>
<g>
</g>
<g>
</g>
<g>
</g>
<g>
</g>
<g>
</g>
<g>
</g>
</svg>
