<?xml version="1.0" encoding="iso-8859-1"?>
<!-- Generator: Adobe Illustrator 19.0.0, SVG Export Plug-In . SVG Version: 6.00 Build 0)  -->
<svg xmlns="http://www.w3.org/2000/svg" xmlns:xlink="http://www.w3.org/1999/xlink" version="1.1" id="Capa_1" x="0px" y="0px" viewBox="0 0 384 384" style="enable-background:new 0 0 384 384;" xml:space="preserve">
<circle style="fill:#45B39C;" cx="192" cy="192" r="192"/>
<path style="opacity:0.1;enable-background:new    ;" d="M229.4,83.509c-1-0.96-2.28-1.52-3.68-1.52H113.96  c-2.88,0-5.16,2.32-5.16,5.159V296.83c0,1.24,0.44,2.36,1.16,3.24l0.6,0.6l83.285,83.284c90.943-0.86,166.73-64.93,185.596-150.404  L273.72,127.83L229.4,83.509z"/>
<path style="fill:#EBF0F3;" d="M225.736,82H113.949c-2.85,0-5.161,2.311-5.161,5.162v209.677c0,2.85,2.311,5.161,5.161,5.161  h156.102c2.85,0,5.161-2.311,5.161-5.161V131.477c0-1.369-0.544-2.682-1.512-3.65l-44.315-44.315  C228.418,82.544,227.105,82,225.736,82z"/>
<path style="fill:#D5D6DB;" d="M233.036,129.339h41.675c-0.253-0.551-0.573-1.075-1.01-1.512l-22.157-22.158l-22.158-22.158  c-0.437-0.437-0.961-0.757-1.512-1.01v41.676C227.874,127.028,230.185,129.339,233.036,129.339z"/>
<g>
	<path style="fill:#E56353;" d="M121.821,215.574l47.971-22.24v10.572l-36.303,15.854v0.203l36.303,15.752v10.572l-47.971-22.138   V215.574z"/>
	<path style="fill:#E56353;" d="M177.1,250.274l21.347-72.294h10.068l-21.339,72.294H177.1z"/>
	<path style="fill:#E56353;" d="M262.179,224.449l-47.963,21.838v-10.47l37.099-15.854v-0.203l-37.099-15.854v-10.572l47.963,21.94   V224.449z"/>
</g>
<g>
</g>
<g>
</g>
<g>
</g>
<g>
</g>
<g>
</g>
<g>
</g>
<g>
</g>
<g>
</g>
<g>
</g>
<g>
</g>
<g>
</g>
<g>
</g>
<g>
</g>
<g>
</g>
<g>
</g>
</svg>
