<?xml version="1.0" encoding="iso-8859-1"?>
<!-- Generator: Adobe Illustrator 19.0.0, SVG Export Plug-In . SVG Version: 6.00 Build 0)  -->
<svg xmlns="http://www.w3.org/2000/svg" xmlns:xlink="http://www.w3.org/1999/xlink" version="1.1" id="Capa_1" x="0px" y="0px" viewBox="0 0 384 384" style="enable-background:new 0 0 384 384;" xml:space="preserve">
<circle style="fill:#E05B49;" cx="192" cy="192" r="192"/>
<path style="opacity:0.1;enable-background:new    ;" d="M250.16,83.509c-0.96-0.96-2.28-1.52-3.64-1.52h-111.8  c-2.84,0-5.16,2.32-5.16,5.16v142.36H93.92c-3.24,0-5.92,2.64-5.92,5.92v40.641c0,1.479,0.52,2.8,1.44,3.84l104.053,104.053  c97.288-0.744,177.302-73.834,188.983-168.137L294.48,127.83L250.16,83.509z"/>
<path style="fill:#EBF0F3;" d="M246.505,82H134.718c-2.85,0-5.161,2.311-5.161,5.162v209.677c0,2.85,2.311,5.161,5.161,5.161H290.82  c2.851,0,5.162-2.311,5.162-5.161V131.477c0-1.369-0.544-2.682-1.512-3.65l-44.315-44.315C249.187,82.544,247.874,82,246.505,82z"/>
<g>
	<path style="fill:#D5D6DB;" d="M253.805,129.339h41.675c-0.253-0.551-0.573-1.075-1.01-1.512l-22.158-22.158l-22.158-22.158   c-0.437-0.437-0.961-0.757-1.512-1.01v41.676C248.643,127.028,250.954,129.339,253.805,129.339z"/>
	<path style="fill:#D5D6DB;" d="M181.79,234.479h-52.234v52.464h52.234c3.26,0,5.902-2.642,5.902-5.903v-40.66   C187.693,237.122,185.05,234.479,181.79,234.479z"/>
</g>
<path style="fill:#3A556A;" d="M176.879,229.519H93.921c-3.26,0-5.903,2.642-5.903,5.901v40.66c0,3.26,2.642,5.903,5.903,5.903  h82.958c3.26,0,5.903-2.642,5.903-5.903v-40.66C182.782,232.161,180.139,229.519,176.879,229.519z"/>
<g>
	<path style="fill:#FFFFFF;" d="M114.007,264.131c1.378,0,2.565-0.232,3.562-0.696c0.994-0.464,2.035-1.204,3.123-2.223l2.576,2.648   c-2.51,2.78-5.558,4.172-9.143,4.172c-3.587,0-6.561-1.152-8.924-3.46c-2.364-2.308-3.545-5.224-3.545-8.753   c0-3.529,1.204-6.47,3.614-8.822c2.408-2.352,5.451-3.529,9.126-3.529s6.746,1.356,9.212,4.07l-2.543,2.784   c-1.132-1.085-2.201-1.845-3.208-2.273c-1.005-0.431-2.187-0.646-3.546-0.646c-2.397,0-4.41,0.776-6.039,2.325   c-1.629,1.549-2.444,3.529-2.444,5.937c0,2.411,0.809,4.424,2.427,6.042C109.873,263.322,111.79,264.131,114.007,264.131z"/>
	<path style="fill:#FFFFFF;" d="M135.164,247.166c-1.165,0-2.121,0.238-2.866,0.712c-0.748,0.475-1.121,1.193-1.121,2.157   c0,0.961,0.372,1.695,1.121,2.203c0.746,0.511,2.333,1.058,4.766,1.646c2.43,0.588,4.264,1.414,5.498,2.477   c1.232,1.063,1.848,2.632,1.848,4.7c0,2.071-0.779,3.75-2.342,5.039c-1.56,1.29-3.606,1.933-6.141,1.933   c-3.708,0-7-1.276-9.872-3.833l2.51-3.021c2.397,2.082,4.885,3.123,7.464,3.123c1.29,0,2.314-0.279,3.071-0.831   c0.759-0.555,1.138-1.29,1.138-2.206s-0.356-1.629-1.069-2.137c-0.712-0.511-1.941-0.972-3.681-1.392   c-1.742-0.42-3.068-0.804-3.97-1.154c-0.906-0.351-1.709-0.809-2.411-1.375c-1.403-1.063-2.101-2.689-2.101-4.884   c0-2.195,0.795-3.885,2.391-5.072c1.593-1.188,3.568-1.781,5.92-1.781c1.516,0,3.021,0.248,4.512,0.746   c1.494,0.497,2.784,1.198,3.869,2.104l-2.138,3.021c-0.701-0.635-1.651-1.154-2.85-1.563   C137.511,247.37,136.329,247.166,135.164,247.166z"/>
	<path style="fill:#FFFFFF;" d="M149.362,267.762v-23.716h4.004v10.28h11.774v-10.28h4.004v23.716h-4.004v-9.703h-11.774v9.703   H149.362z"/>
</g>
<g>
	<path style="fill:#64798A;" d="M173.014,149.245c-3.424,0-5.129,1.577-5.129,4.724v17.967c0,3.868-1.826,6.133-5.466,6.793   c3.639,0.606,5.466,2.844,5.466,6.706v19.463c0,1.436,0.398,2.426,1.2,2.979c0.795,0.553,2.332,0.829,4.596,0.829v7.703h-2.817   c-7.508,0-11.261-3.646-11.261-10.931v-17.886c0-1.826-0.33-3.107-0.998-3.855c-0.66-0.741-1.712-1.112-3.147-1.112h-1.981v-7.703   h1.981c1.436,0,2.487-0.384,3.147-1.159c0.667-0.775,0.998-2.103,0.998-3.976V152.56c0-7.285,3.754-10.931,11.261-10.931h2.817   v7.703C173.513,149.278,173.29,149.245,173.014,149.245z"/>
	<path style="fill:#64798A;" d="M185.232,203.159c-1.186-1.213-1.779-2.676-1.779-4.387c0-1.712,0.593-3.161,1.779-4.347   c1.186-1.186,2.635-1.786,4.347-1.786c1.712,0,3.174,0.6,4.394,1.786c1.213,1.186,1.82,2.635,1.82,4.347   c0,1.712-0.606,3.174-1.82,4.387c-1.22,1.213-2.682,1.82-4.394,1.82C187.867,204.979,186.418,204.372,185.232,203.159z"/>
	<path style="fill:#64798A;" d="M208.416,203.159c-1.186-1.213-1.779-2.676-1.779-4.387c0-1.712,0.593-3.161,1.779-4.347   s2.635-1.786,4.347-1.786c1.712,0,3.174,0.6,4.394,1.786c1.213,1.186,1.82,2.635,1.82,4.347c0,1.712-0.606,3.174-1.82,4.387   c-1.22,1.213-2.682,1.82-4.394,1.82C211.051,204.979,209.602,204.372,208.416,203.159z"/>
	<path style="fill:#64798A;" d="M231.606,203.159c-1.186-1.213-1.779-2.676-1.779-4.387c0-1.712,0.593-3.161,1.779-4.347   c1.186-1.186,2.635-1.786,4.347-1.786c1.712,0,3.174,0.6,4.394,1.786c1.213,1.186,1.82,2.635,1.82,4.347   c0,1.712-0.606,3.174-1.82,4.387c-1.22,1.213-2.682,1.82-4.394,1.82C234.24,204.979,232.792,204.372,231.606,203.159z"/>
	<path style="fill:#64798A;" d="M254.674,216.409h-2.817v-7.703c2.264,0,3.794-0.276,4.596-0.829s1.2-1.543,1.2-2.979v-19.463   c0-3.862,1.82-6.099,5.466-6.706c-3.646-0.66-5.466-2.925-5.466-6.793v-17.967c0-1.712-0.451-2.938-1.368-3.686   c-0.91-0.748-1.806-1.119-2.689-1.119h-0.25l-1.489,0.168v-7.703h2.817c7.508,0,11.262,3.646,11.262,10.931v17.226   c0,1.874,0.33,3.201,0.991,3.976c0.667,0.775,1.712,1.159,3.147,1.159h1.988v7.703h-1.988c-1.436,0-2.48,0.371-3.147,1.112   c-0.66,0.748-0.991,2.029-0.991,3.855v17.886C265.936,212.763,262.182,216.409,254.674,216.409z"/>
</g>
<g>
</g>
<g>
</g>
<g>
</g>
<g>
</g>
<g>
</g>
<g>
</g>
<g>
</g>
<g>
</g>
<g>
</g>
<g>
</g>
<g>
</g>
<g>
</g>
<g>
</g>
<g>
</g>
<g>
</g>
</svg>
