<?xml version="1.0" encoding="iso-8859-1"?>
<!-- Generator: Adobe Illustrator 19.0.0, SVG Export Plug-In . SVG Version: 6.00 Build 0)  -->
<svg xmlns="http://www.w3.org/2000/svg" xmlns:xlink="http://www.w3.org/1999/xlink" version="1.1" id="Capa_1" x="0px" y="0px" viewBox="0 0 384 384" style="enable-background:new 0 0 384 384;" xml:space="preserve">
<circle style="fill:#E05B49;" cx="192" cy="192" r="192"/>
<path style="opacity:0.1;enable-background:new    ;" d="M281.08,126.557l-0.48-0.48l-0.08-0.08c-1.6-1.44-3.92-2-6.08-1.32  l-13,3.841c-9.04-9.841-20.12-17.76-32.6-23.08L206.8,83.397l-0.12-0.08c-1.08-0.84-2.439-1.319-3.84-1.319h-21.68  c-2.96,0-5.56,2.04-6.28,4.92l-3.16,13.2c-19.24,4.24-36.28,14.36-49.16,28.4l-13-3.841c-2.84-0.88-5.92,0.36-7.4,2.92l-10.84,18.8  c-1.48,2.56-1,5.841,1.16,7.881l9.68,9.68c-2.76,8.84-4.24,18.28-4.24,28.04c0,9.88,1.52,19.44,4.36,28.4l-9.8,9.32  c-2.16,2.04-2.64,5.32-1.16,7.88l10.84,18.8c0.16,0.32,0.36,0.6,0.6,0.841l1.08,1.079l122.521,122.557  c78.477-14.188,140.323-76.032,154.512-154.508l-99.512-99.488L281.08,126.557z"/>
<g>
	<path style="fill:#FFFFFF;" d="M137.333,193.293v-8.636l30.645-14.44v9.267l-20.243,9.334l20.243,9.58v9.334L137.333,193.293z"/>
	<path style="fill:#FFFFFF;" d="M200.762,163.09h8.954l-26.483,57.82h-8.888L200.762,163.09z"/>
	<path style="fill:#FFFFFF;" d="M246.667,184.657v8.636l-30.645,14.44v-9.334l20.243-9.58l-20.243-9.334v-9.267L246.667,184.657z"/>
</g>
<path style="fill:#27A2DB;" d="M281.716,220.393c2.833-8.96,4.37-18.496,4.37-28.393c0-9.897-1.537-19.433-4.37-28.394l9.822-9.328  c2.16-2.051,2.632-5.315,1.143-7.894l-10.836-18.768c-1.489-2.579-4.552-3.802-7.408-2.957l-13.012,3.849  c-12.845-14.038-29.894-24.149-49.151-28.38l-3.172-13.191c-0.696-2.896-3.287-4.937-6.265-4.937h-21.672  c-2.978,0-5.569,2.041-6.265,4.937l-3.172,13.191c-19.257,4.231-36.306,14.342-49.151,28.38l-13.013-3.849  c-2.856-0.845-5.919,0.378-7.408,2.957l-10.836,18.768c-1.488,2.58-1.016,5.843,1.144,7.894l9.822,9.328  c-2.834,8.96-4.371,18.496-4.371,28.394c0,9.897,1.537,19.433,4.371,28.394l-9.822,9.328c-2.16,2.051-2.632,5.315-1.144,7.894  l10.836,18.768c1.489,2.58,4.552,3.802,7.408,2.957l13.013-3.849c12.844,14.037,29.894,24.149,49.151,28.38l3.172,13.191  c0.696,2.896,3.286,4.937,6.265,4.937h21.672c2.978,0,5.569-2.041,6.265-4.937l3.172-13.191c19.256-4.231,36.305-14.342,49.15-28.38  l13.013,3.849c2.856,0.845,5.919-0.378,7.408-2.957l10.836-18.768c1.489-2.579,1.016-5.843-1.143-7.894L281.716,220.393z   M192,266.561c-41.179,0-74.562-33.382-74.562-74.561s33.383-74.562,74.562-74.562c41.18,0,74.562,33.383,74.562,74.562  S233.179,266.561,192,266.561z"/>
<path style="fill:#2D93BA;" d="M192,117.438c-41.179,0-74.562,33.383-74.562,74.562s33.383,74.561,74.562,74.561  c41.18,0,74.562-33.382,74.562-74.561S233.179,117.438,192,117.438z M192,258.316c-36.625,0-66.315-29.691-66.315-66.316  c0-36.626,29.69-66.316,66.315-66.316c36.626,0,66.316,29.69,66.316,66.316C258.316,228.625,228.626,258.316,192,258.316z"/>
<g>
</g>
<g>
</g>
<g>
</g>
<g>
</g>
<g>
</g>
<g>
</g>
<g>
</g>
<g>
</g>
<g>
</g>
<g>
</g>
<g>
</g>
<g>
</g>
<g>
</g>
<g>
</g>
<g>
</g>
</svg>
