<?xml version="1.0" encoding="iso-8859-1"?>
<!-- Generator: Adobe Illustrator 19.0.0, SVG Export Plug-In . SVG Version: 6.00 Build 0)  -->
<svg xmlns="http://www.w3.org/2000/svg" xmlns:xlink="http://www.w3.org/1999/xlink" version="1.1" id="Capa_1" x="0px" y="0px" viewBox="0 0 384 384" style="enable-background:new 0 0 384 384;" xml:space="preserve">
<circle style="fill:#EFC84A;" cx="192" cy="192" r="192"/>
<path style="opacity:0.1;enable-background:new    ;" d="M380.165,230.328L252.103,102.266c-0.153-0.156-0.309-0.308-0.463-0.463  l-0.463-0.463l-0.017,0.014C239.038,89.402,222.427,82,204.04,82c-22.32,0-42.04,10.92-54.28,27.64c-5.2-2.2-10.88-3.44-16.88-3.44  c-23.8,0-43.08,19.28-43.08,43.08c0,9.08,2.8,17.48,7.56,24.4C88.08,180.12,82,190.8,82,202.96c0,10.285,4.392,19.522,11.372,26.015  l26.745,26.745h-3.477l36,46.28l78.091,78.091C305.827,364.709,364.938,305.481,380.165,230.328z"/>
<path style="fill:#FFFFFF;" d="M270.329,138.102C264.991,106.276,237.388,82,204.045,82c-22.317,0-42.038,10.91-54.279,27.638  c-5.186-2.212-10.892-3.441-16.887-3.441c-23.799,0-43.093,19.294-43.093,43.094c0,9.057,2.808,17.452,7.581,24.389  C88.088,180.1,82,190.805,82,202.942c0,19.65,15.93,35.58,35.58,35.58h132.084c28.905,0,52.337-23.432,52.337-52.337  C302,164.622,288.953,146.119,270.329,138.102z"/>
<polygon style="fill:#E56353;" points="152.647,302 116.632,255.734 133.33,255.734 133.33,176.757 171.964,176.757   171.964,255.734 188.662,255.734 "/>
<polygon style="fill:#44C4A1;" points="231.353,176.757 267.368,223.023 250.67,223.023 250.67,302 212.036,302 212.036,223.023   195.338,223.023 "/>
<g>
</g>
<g>
</g>
<g>
</g>
<g>
</g>
<g>
</g>
<g>
</g>
<g>
</g>
<g>
</g>
<g>
</g>
<g>
</g>
<g>
</g>
<g>
</g>
<g>
</g>
<g>
</g>
<g>
</g>
</svg>
