<?xml version="1.0" encoding="iso-8859-1"?>
<!-- Generator: Adobe Illustrator 19.0.0, SVG Export Plug-In . SVG Version: 6.00 Build 0)  -->
<svg xmlns="http://www.w3.org/2000/svg" xmlns:xlink="http://www.w3.org/1999/xlink" version="1.1" id="Capa_1" x="0px" y="0px" viewBox="0 0 384 384" style="enable-background:new 0 0 384 384;" xml:space="preserve">
<circle style="fill:#E05B49;" cx="192" cy="192" r="192"/>
<path style="opacity:0.1;enable-background:new    ;" d="M205.92,81.997c-17.76,0-33.88,7.2-45.52,18.8  c-4.6-2.12-9.64-3.36-15.04-3.36c-19.6,0-35.52,15.92-35.52,35.52c0,2.92,0.4,5.68,1.04,8.4c-16.44,3.08-28.88,17.52-28.88,34.88  c0,9.479,3.76,18.12,9.8,24.479l34.12,34.12v16.2c0,1.16,0.44,2.2,1.16,2.96l0.28,0.28l6.32,6.359v2.641h-3.76c-2.2,0-4,1.88-4,4.24  v30.24c0,1.16,0.44,2.2,1.16,2.96l0.28,0.28l82.143,82.173c85.228-7.707,154.374-71.075,170.778-153.488l-126.8-126.765  C241.68,90.037,224.76,81.997,205.92,81.997z"/>
<path style="fill:#FFFFFF;" d="M270.201,140.894C267.324,107.897,239.666,82,205.922,82c-17.774,0-33.865,7.187-45.541,18.807  c-4.562-2.134-9.637-3.36-15.008-3.36c-19.621,0-35.528,15.906-35.528,35.526c0,2.887,0.383,5.679,1.031,8.367  C94.438,144.455,82,158.877,82,176.223c0,19.621,15.904,35.527,35.525,35.527h148.948c19.621,0,35.527-15.906,35.527-35.527  C302,157.862,288.068,142.759,270.201,140.894z"/>
<g>
	<path style="fill:#EBF0F3;" d="M106.364,159.878l12.387-2.348l-1.262-5.23l-4.377,0.83c-6.424,1.217-11.764,5.042-15.168,10.204   C100.454,161.692,103.272,160.464,106.364,159.878z"/>
	<path style="fill:#EBF0F3;" d="M268.956,152.829l-9.848-1.029l-0.859-9.863c-2.348-26.881-25.332-47.938-52.328-47.938   c-13.984,0-27.152,5.438-37.074,15.312l-5.945,5.918l-7.602-3.552c-3.164-1.481-6.504-2.231-9.926-2.231   c-8.209,0-15.44,4.233-19.65,10.625c3.707-2.444,8.138-3.876,12.902-3.876c3.422,0,6.762,0.75,9.926,2.23l7.602,3.553l5.945-5.918   c9.922-9.875,23.09-15.312,37.074-15.312c26.996,0,49.98,21.057,52.328,47.938l0.859,9.863l9.848,1.029   c11.996,1.252,21.043,11.309,21.043,23.395c0,4.763-1.434,9.193-3.875,12.901c6.391-4.21,10.623-11.44,10.623-19.649   C289.999,164.138,280.952,154.081,268.956,152.829z"/>
</g>
<rect x="133.68" y="208.56" style="fill:#64798A;" width="116.64" height="54.712"/>
<g>
	<path style="fill:#EBF0F3;" d="M254.1,169.827H129.908c-2.205,0-3.991,1.897-3.991,4.236v30.257c0,2.34,1.786,4.236,3.991,4.236   H254.1c2.204,0,3.991-1.896,3.991-4.236v-30.257C258.09,171.724,256.303,169.827,254.1,169.827z"/>
	<path style="fill:#EBF0F3;" d="M254.1,263.27H129.908c-2.205,0-3.991,1.897-3.991,4.236v30.257c0,2.34,1.786,4.237,3.991,4.237   H254.1c2.204,0,3.991-1.897,3.991-4.237v-30.257C258.09,265.166,256.303,263.27,254.1,263.27z"/>
	<path style="fill:#EBF0F3;" d="M254.1,216.548H129.908c-2.205,0-3.991,1.897-3.991,4.236v30.257c0,2.34,1.786,4.237,3.991,4.237   H254.1c2.204,0,3.991-1.897,3.991-4.237v-30.257C258.09,218.445,256.303,216.548,254.1,216.548z"/>
</g>
<circle style="fill:#3A556A;" cx="141.48" cy="189.2" r="7.812"/>
<circle style="fill:#64798A;" cx="141.64" cy="189.04" r="5.384"/>
<circle style="fill:#E56353;" cx="160.36" cy="189.2" r="3.94"/>
<circle style="fill:#44C4A1;" cx="176.16" cy="189.2" r="3.94"/>
<circle style="fill:#3A556A;" cx="141.48" cy="235.912" r="7.812"/>
<circle style="fill:#64798A;" cx="141.64" cy="235.78" r="5.384"/>
<circle style="fill:#E56353;" cx="160.36" cy="235.912" r="3.94"/>
<circle style="fill:#44C4A1;" cx="176.16" cy="235.912" r="3.94"/>
<circle style="fill:#3A556A;" cx="141.48" cy="282.64" r="7.812"/>
<circle style="fill:#64798A;" cx="141.64" cy="282.48" r="5.384"/>
<circle style="fill:#E56353;" cx="160.36" cy="282.64" r="3.94"/>
<circle style="fill:#44C4A1;" cx="176.16" cy="282.64" r="3.94"/>
<g>
	<rect x="192.84" y="176.04" style="fill:#D5D6DB;" width="6.572" height="6.572"/>
	<rect x="206" y="176.04" style="fill:#D5D6DB;" width="6.572" height="6.572"/>
	<rect x="219.124" y="176.04" style="fill:#D5D6DB;" width="6.572" height="6.572"/>
	<rect x="232.28" y="176.04" style="fill:#D5D6DB;" width="6.572" height="6.572"/>
	<rect x="245.4" y="176.04" style="fill:#D5D6DB;" width="6.572" height="6.572"/>
	<rect x="199.412" y="182.64" style="fill:#D5D6DB;" width="6.572" height="6.572"/>
	<rect x="212.56" y="182.64" style="fill:#D5D6DB;" width="6.572" height="6.572"/>
	<rect x="225.68" y="182.64" style="fill:#D5D6DB;" width="6.572" height="6.572"/>
	<rect x="238.84" y="182.64" style="fill:#D5D6DB;" width="6.572" height="6.572"/>
	<rect x="192.84" y="189.2" style="fill:#D5D6DB;" width="6.572" height="6.572"/>
	<rect x="206" y="189.2" style="fill:#D5D6DB;" width="6.572" height="6.572"/>
	<rect x="219.124" y="189.2" style="fill:#D5D6DB;" width="6.572" height="6.572"/>
	<rect x="232.28" y="189.2" style="fill:#D5D6DB;" width="6.572" height="6.572"/>
	<rect x="245.4" y="189.2" style="fill:#D5D6DB;" width="6.572" height="6.572"/>
	<rect x="199.412" y="195.764" style="fill:#D5D6DB;" width="6.572" height="6.572"/>
	<rect x="212.56" y="195.764" style="fill:#D5D6DB;" width="6.572" height="6.572"/>
	<rect x="225.68" y="195.764" style="fill:#D5D6DB;" width="6.572" height="6.572"/>
	<rect x="238.84" y="195.764" style="fill:#D5D6DB;" width="6.572" height="6.572"/>
	<rect x="192.84" y="222.76" style="fill:#D5D6DB;" width="6.572" height="6.572"/>
	<rect x="206" y="222.76" style="fill:#D5D6DB;" width="6.572" height="6.572"/>
	<rect x="219.124" y="222.76" style="fill:#D5D6DB;" width="6.572" height="6.572"/>
	<rect x="232.28" y="222.76" style="fill:#D5D6DB;" width="6.572" height="6.572"/>
	<rect x="245.4" y="222.76" style="fill:#D5D6DB;" width="6.572" height="6.572"/>
	<rect x="199.412" y="229.36" style="fill:#D5D6DB;" width="6.572" height="6.572"/>
	<rect x="212.56" y="229.36" style="fill:#D5D6DB;" width="6.572" height="6.572"/>
	<rect x="225.68" y="229.36" style="fill:#D5D6DB;" width="6.572" height="6.572"/>
	<rect x="238.84" y="229.36" style="fill:#D5D6DB;" width="6.572" height="6.572"/>
	<rect x="192.84" y="235.912" style="fill:#D5D6DB;" width="6.572" height="6.572"/>
	<rect x="206" y="235.912" style="fill:#D5D6DB;" width="6.572" height="6.572"/>
	<rect x="219.124" y="235.912" style="fill:#D5D6DB;" width="6.572" height="6.572"/>
	<rect x="232.28" y="235.912" style="fill:#D5D6DB;" width="6.572" height="6.572"/>
	<rect x="245.4" y="235.912" style="fill:#D5D6DB;" width="6.572" height="6.572"/>
	<rect x="199.412" y="242.48" style="fill:#D5D6DB;" width="6.572" height="6.572"/>
	<rect x="212.56" y="242.48" style="fill:#D5D6DB;" width="6.572" height="6.572"/>
	<rect x="225.68" y="242.48" style="fill:#D5D6DB;" width="6.572" height="6.572"/>
	<rect x="238.84" y="242.48" style="fill:#D5D6DB;" width="6.572" height="6.572"/>
	<rect x="192.84" y="269.48" style="fill:#D5D6DB;" width="6.572" height="6.572"/>
	<rect x="206" y="269.48" style="fill:#D5D6DB;" width="6.572" height="6.572"/>
	<rect x="219.124" y="269.48" style="fill:#D5D6DB;" width="6.572" height="6.572"/>
	<rect x="232.28" y="269.48" style="fill:#D5D6DB;" width="6.572" height="6.572"/>
	<rect x="245.4" y="269.48" style="fill:#D5D6DB;" width="6.572" height="6.572"/>
	<rect x="199.412" y="276.08" style="fill:#D5D6DB;" width="6.572" height="6.572"/>
	<rect x="212.56" y="276.08" style="fill:#D5D6DB;" width="6.572" height="6.572"/>
	<rect x="225.68" y="276.08" style="fill:#D5D6DB;" width="6.572" height="6.572"/>
	<rect x="238.84" y="276.08" style="fill:#D5D6DB;" width="6.572" height="6.572"/>
	<rect x="192.84" y="282.64" style="fill:#D5D6DB;" width="6.572" height="6.572"/>
	<rect x="206" y="282.64" style="fill:#D5D6DB;" width="6.572" height="6.572"/>
	<rect x="219.124" y="282.64" style="fill:#D5D6DB;" width="6.572" height="6.572"/>
	<rect x="232.28" y="282.64" style="fill:#D5D6DB;" width="6.572" height="6.572"/>
	<rect x="245.4" y="282.64" style="fill:#D5D6DB;" width="6.572" height="6.572"/>
	<rect x="199.412" y="289.2" style="fill:#D5D6DB;" width="6.572" height="6.572"/>
	<rect x="212.56" y="289.2" style="fill:#D5D6DB;" width="6.572" height="6.572"/>
	<rect x="225.68" y="289.2" style="fill:#D5D6DB;" width="6.572" height="6.572"/>
	<rect x="238.84" y="289.2" style="fill:#D5D6DB;" width="6.572" height="6.572"/>
</g>
<g>
</g>
<g>
</g>
<g>
</g>
<g>
</g>
<g>
</g>
<g>
</g>
<g>
</g>
<g>
</g>
<g>
</g>
<g>
</g>
<g>
</g>
<g>
</g>
<g>
</g>
<g>
</g>
<g>
</g>
</svg>
