<?xml version="1.0" encoding="iso-8859-1"?>
<!-- Generator: Adobe Illustrator 19.0.0, SVG Export Plug-In . SVG Version: 6.00 Build 0)  -->
<svg xmlns="http://www.w3.org/2000/svg" xmlns:xlink="http://www.w3.org/1999/xlink" version="1.1" id="Capa_1" x="0px" y="0px" viewBox="0 0 384 384" style="enable-background:new 0 0 384 384;" xml:space="preserve">
<circle style="fill:#EFC84A;" cx="192" cy="192" r="192"/>
<path style="opacity:0.1;enable-background:new    ;" d="M227.32,110.6c-4.244,0-8.306,0.66-12.165,1.809l-12.274-12.275  l-0.004,0.016C192.6,89.008,177.915,82,161.56,82c-31.08,0-56.28,25.2-56.28,56.28c0,4.2,0.52,8.24,1.36,12.16  C92.48,154.12,82,167,82,182.32c0,8.26,3.062,15.791,8.084,21.576l-0.004,0.002l0.064,0.064c0.986,1.129,2.046,2.19,3.175,3.175  l69.962,69.962v21.862c0,0.572,0.565,1.054,1.464,1.464l77.025,77.025c65.716-17.594,117.5-69.166,135.416-134.749L259.172,124.687  C251.294,116.038,239.947,110.6,227.32,110.6z"/>
<path style="fill:#FFFFFF;" d="M270.192,149.406c-2.159-21.78-20.528-38.793-42.876-38.793c-5.391,0-10.528,1.034-15.285,2.842  C202.85,94.839,183.738,82,161.579,82c-31.083,0-56.281,25.198-56.281,56.281c0,4.181,0.49,8.243,1.355,12.164  C92.48,154.134,82,166.981,82,182.309c0,18.204,14.758,32.962,32.962,32.962h154.076c18.205,0,32.962-14.758,32.962-32.962  C302,164.494,287.858,150.018,270.192,149.406z"/>
<g>
	<path style="fill:#EBF0F3;" d="M102.994,163.86l7.453-1.941l-0.873-3.968l-0.907,0.236c-5.793,1.508-10.62,5.008-13.932,9.612   C97.182,166.037,99.942,164.654,102.994,163.86z"/>
	<path style="fill:#EBF0F3;" d="M269.913,157.402l-6.996-0.242l-0.688-6.965c-1.781-18.006-16.793-31.582-34.914-31.582   c-4.207,0-8.394,0.781-12.441,2.32l-6.801,2.584l-3.219-6.524C196.644,100.343,180.062,90,161.578,90   c-14.75,0-27.957,6.666-36.82,17.125c8.415-7.129,19.28-11.452,31.147-11.452c18.484,0,35.066,10.344,43.277,26.994l3.219,6.523   l6.801-2.584c4.047-1.539,8.234-2.32,12.441-2.32c18.121,0,33.133,13.576,34.914,31.582l0.688,6.965l6.996,0.242   c13.508,0.467,24.086,11.408,24.086,24.908c0,5.436-1.766,10.456-4.728,14.56c6.286-4.537,10.4-11.905,10.4-20.232   C293.999,168.81,283.421,157.869,269.913,157.402z"/>
</g>
<path style="fill:#3A556A;" d="M176.324,135.12c-19.943,0-36.11,16.167-36.11,36.111c0,19.943,16.167,36.11,36.11,36.11  c19.944,0,36.111-16.167,36.111-36.11C212.435,151.287,196.268,135.12,176.324,135.12z M176.324,204.484  c-18.366,0-33.254-14.888-33.254-33.254c0-18.365,14.888-33.254,33.254-33.254c18.366,0,33.254,14.889,33.254,33.254  C209.578,189.596,194.69,204.484,176.324,204.484z"/>
<circle style="opacity:0.35;fill:#27A2DB;enable-background:new    ;" cx="176.32" cy="171.232" r="33.252"/>
<path style="fill:#64798A;" d="M221.497,171.23c0-24.948-20.224-45.172-45.172-45.172c-24.948,0-45.173,20.224-45.173,45.173  c0,22.496,16.462,41.097,37.985,44.547v13.744h14.376l0-13.744C205.036,212.328,221.497,193.726,221.497,171.23z M176.324,207.341  c-19.943,0-36.11-16.167-36.11-36.11c0-19.944,16.167-36.111,36.111-36.111c19.943,0,36.11,16.167,36.11,36.111  C212.435,191.174,196.268,207.341,176.324,207.341z"/>
<path style="fill:#3A556A;" d="M163.26,225.751l0,73.219c0,4.04,26.128,4.04,26.128,0l0-73.219  C189.388,221.711,163.26,221.711,163.26,225.751z"/>
<g>
	<rect x="163.26" y="229.2" style="fill:#FCD462;" width="26.128" height="4.78"/>
	<rect x="163.26" y="290.76" style="fill:#FCD462;" width="26.128" height="4.78"/>
</g>
<g>
</g>
<g>
</g>
<g>
</g>
<g>
</g>
<g>
</g>
<g>
</g>
<g>
</g>
<g>
</g>
<g>
</g>
<g>
</g>
<g>
</g>
<g>
</g>
<g>
</g>
<g>
</g>
<g>
</g>
</svg>
