<?xml version="1.0" encoding="iso-8859-1"?>
<!-- Generator: Adobe Illustrator 19.0.0, SVG Export Plug-In . SVG Version: 6.00 Build 0)  -->
<svg xmlns="http://www.w3.org/2000/svg" xmlns:xlink="http://www.w3.org/1999/xlink" version="1.1" id="Capa_1" x="0px" y="0px" viewBox="0 0 384 384" style="enable-background:new 0 0 384 384;" xml:space="preserve">
<circle style="fill:#45B39C;" cx="192" cy="192" r="192"/>
<path style="opacity:0.1;enable-background:new    ;" d="M255.6,105.358c-11.8-14.28-29.68-23.36-49.68-23.36  c-17.76,0-33.88,7.2-45.52,18.8c-4.6-2.12-9.64-3.36-15.04-3.36c-19.601,0-35.52,15.92-35.52,35.52c0,2.92,0.4,5.68,1.04,8.4  c-16.44,3.08-28.88,17.52-28.88,34.88c0,9.2,3.52,17.6,9.28,23.92l19,19v82.84l81.996,81.995  c92.91-0.131,170.337-66.254,187.95-154.009L255.68,105.438L255.6,105.358z"/>
<path style="fill:#FFFFFF;" d="M270.201,140.894C267.324,107.897,239.666,82,205.922,82c-17.774,0-33.865,7.187-45.541,18.807  c-4.562-2.134-9.637-3.36-15.008-3.36c-19.621,0-35.528,15.906-35.528,35.526c0,2.887,0.383,5.679,1.031,8.367  C94.438,144.455,82,158.877,82,176.223c0,19.621,15.904,35.527,35.525,35.527h148.948c19.621,0,35.527-15.906,35.527-35.527  C302,157.862,288.068,142.759,270.201,140.894z"/>
<g>
	<path style="fill:#EBF0F3;" d="M106.364,159.878l12.387-2.348l-1.262-5.23l-4.377,0.83c-6.424,1.217-11.764,5.042-15.168,10.204   C100.454,161.692,103.272,160.464,106.364,159.878z"/>
	<path style="fill:#EBF0F3;" d="M268.956,152.829l-9.848-1.029l-0.859-9.863c-2.348-26.881-25.332-47.938-52.328-47.938   c-13.984,0-27.152,5.438-37.074,15.312l-5.945,5.918l-7.602-3.552c-3.164-1.481-6.504-2.231-9.926-2.231   c-8.209,0-15.44,4.233-19.65,10.625c3.707-2.444,8.138-3.876,12.902-3.876c3.422,0,6.762,0.75,9.926,2.23l7.602,3.553l5.945-5.918   c9.922-9.875,23.09-15.312,37.074-15.312c26.996,0,49.98,21.057,52.328,47.938l0.859,9.863l9.848,1.029   c11.996,1.252,21.043,11.309,21.043,23.395c0,4.763-1.434,9.193-3.875,12.901c6.391-4.21,10.623-11.44,10.623-19.649   C289.999,164.138,280.952,154.081,268.956,152.829z"/>
	<rect x="110.28" y="186.36" style="fill:#EBF0F3;" width="163.44" height="115.648"/>
</g>
<rect x="119.84" y="195.916" style="fill:#27A2DB;" width="144.28" height="96.48"/>
<polygon style="fill:#FCD462;" points="119.861,269.766 162.749,226.878 228.27,292.4 119.861,292.418 "/>
<polygon style="fill:#DC8744;" points="228.27,292.418 248.561,292.418 190.719,254.849 "/>
<polygon style="fill:#F6C358;" points="264.137,232.232 232.583,209.616 190.719,254.849 248.561,292.418 264.137,292.418 "/>
<circle style="fill:#FFFFFF;" cx="146.4" cy="215.612" r="9.284"/>
<g>
</g>
<g>
</g>
<g>
</g>
<g>
</g>
<g>
</g>
<g>
</g>
<g>
</g>
<g>
</g>
<g>
</g>
<g>
</g>
<g>
</g>
<g>
</g>
<g>
</g>
<g>
</g>
<g>
</g>
</svg>
