<?xml version="1.0" encoding="iso-8859-1"?>
<!-- Generator: Adobe Illustrator 19.0.0, SVG Export Plug-In . SVG Version: 6.00 Build 0)  -->
<svg xmlns="http://www.w3.org/2000/svg" xmlns:xlink="http://www.w3.org/1999/xlink" version="1.1" id="Capa_1" x="0px" y="0px" viewBox="0 0 384 384" style="enable-background:new 0 0 384 384;" xml:space="preserve">
<circle style="fill:#EA8953;" cx="192" cy="192" r="192"/>
<path style="opacity:0.1;enable-background:new    ;" d="M205.92,81.997c-17.76,0-33.88,7.2-45.52,18.8  c-4.6-2.12-9.64-3.36-15.04-3.36c-19.6,0-35.52,15.92-35.52,35.52c0,2.92,0.4,5.68,1.04,8.4c-16.44,3.08-28.88,17.52-28.88,34.88  c0,8.479,3,16.239,7.96,22.359c1.56,1.96,3.36,3.761,5.36,5.36l52.64,52.64v42.04c0,0.92,0.4,1.801,1.04,2.4l79.435,79.466  c76.415-14.685,136.708-74.638,151.857-150.887L251.8,101.157C240.08,89.316,223.88,81.997,205.92,81.997z"/>
<path style="fill:#FFFFFF;" d="M270.201,140.894C267.324,107.897,239.666,82,205.922,82c-17.774,0-33.865,7.187-45.541,18.807  c-4.562-2.134-9.637-3.36-15.008-3.36c-19.621,0-35.528,15.906-35.528,35.526c0,2.887,0.383,5.679,1.031,8.367  C94.438,144.455,82,158.877,82,176.223c0,19.621,15.904,35.527,35.525,35.527h148.948c19.621,0,35.527-15.906,35.527-35.527  C302,157.862,288.068,142.759,270.201,140.894z"/>
<g>
	<path style="fill:#EBF0F3;" d="M106.364,159.878l12.387-2.348l-1.262-5.23l-4.377,0.83c-6.424,1.217-11.764,5.042-15.168,10.204   C100.454,161.692,103.272,160.464,106.364,159.878z"/>
	<path style="fill:#EBF0F3;" d="M268.956,152.829l-9.848-1.029l-0.859-9.863c-2.348-26.881-25.332-47.938-52.328-47.938   c-13.984,0-27.152,5.438-37.074,15.312l-5.945,5.918l-7.602-3.552c-3.164-1.481-6.504-2.231-9.926-2.231   c-8.209,0-15.44,4.233-19.65,10.625c3.707-2.444,8.138-3.876,12.902-3.876c3.422,0,6.762,0.75,9.926,2.23l7.602,3.553l5.945-5.918   c9.922-9.875,23.09-15.312,37.074-15.312c26.996,0,49.98,21.057,52.328,47.938l0.859,9.863l9.848,1.029   c11.996,1.252,21.043,11.309,21.043,23.395c0,4.763-1.434,9.193-3.875,12.901c6.391-4.21,10.623-11.44,10.623-19.649   C289.999,164.138,280.952,154.081,268.956,152.829z"/>
</g>
<path style="fill:#64798A;" d="M232.666,151.17h-81.33c-1.865,0-3.378,1.512-3.378,3.377v144.075c0,1.866,1.512,3.378,3.378,3.378  h81.33c1.864,0,3.376-1.512,3.376-3.378V154.548C236.042,152.682,234.53,151.17,232.666,151.17z"/>
<g>
	<path style="fill:#3A556A;" d="M223.88,168.004H160.12c-0.716,0-1.297,0.58-1.297,1.297v18.958c0,0.716,0.581,1.296,1.297,1.296   h63.761c0.716,0,1.297-0.58,1.297-1.296v-18.958C225.178,168.584,224.597,168.004,223.88,168.004z"/>
	<path style="fill:#3A556A;" d="M223.88,198.346H160.12c-0.716,0-1.297,0.58-1.297,1.296v18.958c0,0.716,0.581,1.296,1.297,1.296   h63.761c0.716,0,1.297-0.58,1.297-1.296v-18.958C225.178,198.926,224.597,198.346,223.88,198.346z"/>
	<path style="fill:#3A556A;" d="M195.318,241.159v-7.736c0-1.833-1.486-3.318-3.318-3.318c-1.833,0-3.318,1.486-3.318,3.318v7.736   c1.056-0.328,2.156-0.556,3.318-0.556C193.162,240.604,194.262,240.831,195.318,241.159z"/>
	<path style="fill:#3A556A;" d="M188.682,262.602v28.061c0,1.832,1.485,3.318,3.318,3.318c1.832,0,3.318-1.486,3.318-3.318v-28.061   c-1.056,0.328-2.156,0.556-3.318,0.556C190.838,263.158,189.738,262.93,188.682,262.602z"/>
</g>
<circle style="fill:#2F4859;" cx="192" cy="251.88" r="8.148"/>
<circle style="fill:#3A556A;" cx="192" cy="251.88" r="3.3"/>
<circle style="fill:#E56353;" cx="192" cy="266.08" r="1.62"/>
<circle style="fill:#44C4A1;" cx="192" cy="273.72" r="1.62"/>
<g>
</g>
<g>
</g>
<g>
</g>
<g>
</g>
<g>
</g>
<g>
</g>
<g>
</g>
<g>
</g>
<g>
</g>
<g>
</g>
<g>
</g>
<g>
</g>
<g>
</g>
<g>
</g>
<g>
</g>
</svg>
