<?xml version="1.0" encoding="iso-8859-1"?>
<!-- Generator: Adobe Illustrator 19.0.0, SVG Export Plug-In . SVG Version: 6.00 Build 0)  -->
<svg xmlns="http://www.w3.org/2000/svg" xmlns:xlink="http://www.w3.org/1999/xlink" version="1.1" id="Capa_1" x="0px" y="0px" viewBox="0 0 384 384" style="enable-background:new 0 0 384 384;" xml:space="preserve">
<circle style="fill:#EFC84A;" cx="192" cy="192" r="192"/>
<path style="opacity:0.1;enable-background:new    ;" d="M205.92,100.757c-17.76,0-33.88,7.2-45.52,18.8  c-4.6-2.119-9.64-3.359-15.04-3.359c-19.6,0-35.52,15.92-35.52,35.519c0,2.88,0.4,5.68,1.04,8.36  c-16.44,3.12-28.88,17.56-28.88,34.92c0,10.12,4.24,19.28,11.08,25.72l0.56,0.561l51.24,51.279c0,1.08,0.2,2.08,0.52,3.08  c0.28,0.92,0.68,1.801,1.2,2.601c0.36,0.56,0.76,1.079,1.2,1.56l96.836,96.837c63.623-18.106,113.743-68.169,131.93-131.757  L254.2,122.477C242.36,109.157,225.12,100.757,205.92,100.757z"/>
<path style="fill:#FFFFFF;" d="M270.201,159.649c-2.877-32.998-30.535-58.894-64.279-58.894c-17.774,0-33.865,7.187-45.541,18.807  c-4.562-2.134-9.637-3.36-15.008-3.36c-19.621,0-35.528,15.906-35.528,35.526c0,2.887,0.383,5.679,1.031,8.367  C94.438,163.21,82,177.632,82,194.978c0,19.621,15.904,35.527,35.525,35.527h148.948c19.621,0,35.527-15.906,35.527-35.527  C302,176.617,288.068,161.514,270.201,159.649z"/>
<g>
	<path style="fill:#EBF0F3;" d="M106.364,178.633l12.387-2.348l-1.262-5.23l-4.377,0.83c-6.424,1.217-11.764,5.042-15.168,10.204   C100.454,180.447,103.272,179.219,106.364,178.633z"/>
	<path style="fill:#EBF0F3;" d="M268.956,171.584l-9.848-1.029l-0.859-9.863c-2.348-26.881-25.332-47.938-52.328-47.938   c-13.984,0-27.152,5.438-37.074,15.313l-5.945,5.918l-7.602-3.552c-3.164-1.481-6.504-2.231-9.926-2.231   c-8.209,0-15.44,4.233-19.65,10.625c3.707-2.444,8.138-3.876,12.902-3.876c3.422,0,6.762,0.75,9.926,2.23l7.602,3.553l5.945-5.918   c9.922-9.875,23.09-15.312,37.074-15.312c26.996,0,49.98,21.057,52.328,47.938l0.859,9.863l9.848,1.029   c11.996,1.252,21.043,11.309,21.043,23.395c0,4.763-1.434,9.193-3.875,12.901c6.391-4.21,10.623-11.44,10.623-19.649   C289.999,182.893,280.952,172.836,268.956,171.584z"/>
</g>
<g>
	<path style="fill:#3A556A;" d="M144.868,209.464v62.948c0,5.746,4.487,10.4,10.141,10.764v-73.712H144.868z"/>
	<path style="fill:#3A556A;" d="M228.299,209.464v73.781c5.983,0,10.833-4.851,10.833-10.834v-62.948H228.299z"/>
</g>
<path style="fill:#64798A;" d="M155.009,209.464v73.712c0.233,0.015,0.455,0.07,0.692,0.07h72.597v-73.781H155.009z"/>
<g>
	<path style="fill:#F6C358;" d="M155.009,226.712v-6.424c-5.654-0.364-10.142-5.018-10.142-10.764v6.424   C144.868,221.694,149.355,226.349,155.009,226.712z"/>
	<path style="fill:#F6C358;" d="M228.298,220.358v6.424c5.984,0,10.834-4.85,10.834-10.834v-6.424   C239.132,215.507,234.282,220.358,228.298,220.358z"/>
</g>
<path style="fill:#FCD462;" d="M155.009,220.288v6.424c0.234,0.014,0.455,0.069,0.692,0.069h72.597v-6.424h-72.597  C155.464,220.358,155.243,220.303,155.009,220.288z"/>
<g>
	<path style="fill:#F6C358;" d="M155.009,283.176v-6.424c-5.654-0.364-10.142-5.018-10.142-10.764v6.424   C144.868,278.158,149.355,282.812,155.009,283.176z"/>
	<path style="fill:#F6C358;" d="M228.298,276.821v6.424c5.984,0,10.834-4.851,10.834-10.834v-6.424   C239.132,271.97,234.282,276.821,228.298,276.821z"/>
</g>
<path style="fill:#FCD462;" d="M155.009,276.752v6.424c0.234,0.014,0.455,0.07,0.692,0.07h72.597v-6.424h-72.597  C155.464,276.821,155.243,276.766,155.009,276.752z"/>
<path style="fill:#2F4859;" d="M228.147,220.298h-72.294c-6.067,0-10.985-4.918-10.985-10.985l0,0  c0-6.067,4.918-10.985,10.985-10.985h72.294c6.067,0,10.985,4.918,10.985,10.985l0,0  C239.132,215.38,234.214,220.298,228.147,220.298z"/>
<path style="fill:#3A556A;" d="M199.168,244.038c0-4.15-3.364-7.514-7.514-7.514c-4.15,0-7.514,3.364-7.514,7.514  c0,2.367,1.117,4.453,2.828,5.83l-2.828,13.195h15.028l-2.828-13.195C198.051,248.491,199.168,246.405,199.168,244.038z"/>
<path style="fill:#64798A;" d="M192,146.017c-21.365,0-38.749,17.6-38.749,39.23v24.775h8.685v-24.775  c0-14.738,10.325-27.07,24.012-29.924c1.954-0.407,3.979-0.622,6.051-0.622c2.072,0,4.096,0.214,6.052,0.622  c13.686,2.853,24.012,15.186,24.012,29.924v24.775h8.685v-24.775C230.75,163.616,213.366,146.017,192,146.017z"/>
<g>
</g>
<g>
</g>
<g>
</g>
<g>
</g>
<g>
</g>
<g>
</g>
<g>
</g>
<g>
</g>
<g>
</g>
<g>
</g>
<g>
</g>
<g>
</g>
<g>
</g>
<g>
</g>
<g>
</g>
</svg>
