<?xml version="1.0" encoding="iso-8859-1"?>
<!-- Generator: Adobe Illustrator 19.0.0, SVG Export Plug-In . SVG Version: 6.00 Build 0)  -->
<svg xmlns="http://www.w3.org/2000/svg" xmlns:xlink="http://www.w3.org/1999/xlink" version="1.1" id="Capa_1" x="0px" y="0px" viewBox="0 0 384 384" style="enable-background:new 0 0 384 384;" xml:space="preserve">
<circle style="fill:#EA8953;" cx="192" cy="192" r="192"/>
<path style="opacity:0.1;enable-background:new    ;" d="M205.92,81.997c-17.76,0-33.88,7.2-45.52,18.8  c-4.6-2.12-9.64-3.36-15.04-3.36c-19.6,0-35.52,15.92-35.52,35.52c0,2.92,0.4,5.68,1.04,8.4c-16.44,3.08-28.88,17.52-28.88,34.88  c0,9.8,3.96,18.68,10.4,25.079l18.36,18.36v35.681c-11.08,1.92-19.52,11.52-19.52,23.16c0,5.879,2.2,11.24,5.76,15.36l0.36,0.36  l1.52,1.56l0.4,0.36l87.716,87.716c1.668,0.043,3.325,0.127,5.004,0.127c93.152,0,170.788-66.346,188.287-154.356L251.12,100.477  C239.48,89.037,223.52,81.997,205.92,81.997z"/>
<g>
	<polygon style="fill:#64798A;" points="268.87,283.693 152.19,283.693 152.19,206.792 160.19,206.792 160.19,275.693    268.87,275.693  "/>
	<rect x="110.752" y="202.6" style="fill:#64798A;" width="8" height="75.912"/>
</g>
<path style="fill:#FFFFFF;" d="M270.201,140.894C267.324,107.897,239.666,82,205.922,82c-17.774,0-33.865,7.187-45.541,18.807  c-4.562-2.134-9.637-3.36-15.008-3.36c-19.621,0-35.528,15.906-35.528,35.526c0,2.887,0.383,5.679,1.031,8.367  C94.438,144.455,82,158.877,82,176.223c0,19.621,15.904,35.527,35.525,35.527h148.948c19.621,0,35.527-15.906,35.527-35.527  C302,157.862,288.068,142.759,270.201,140.894z"/>
<g>
	<path style="fill:#EBF0F3;" d="M106.364,159.878l12.387-2.348l-1.262-5.23l-4.377,0.83c-6.424,1.217-11.764,5.042-15.168,10.204   C100.454,161.692,103.272,160.464,106.364,159.878z"/>
	<path style="fill:#EBF0F3;" d="M268.956,152.829l-9.848-1.029l-0.859-9.863c-2.348-26.881-25.332-47.938-52.328-47.938   c-13.984,0-27.152,5.438-37.074,15.312l-5.945,5.918l-7.602-3.552c-3.164-1.481-6.504-2.231-9.926-2.231   c-8.209,0-15.44,4.233-19.65,10.625c3.707-2.444,8.138-3.876,12.902-3.876c3.422,0,6.762,0.75,9.926,2.23l7.602,3.553l5.945-5.918   c9.922-9.875,23.09-15.312,37.074-15.312c26.996,0,49.98,21.057,52.328,47.938l0.859,9.863l9.848,1.029   c11.996,1.252,21.043,11.309,21.043,23.395c0,4.763-1.434,9.193-3.875,12.901c6.391-4.21,10.623-11.44,10.623-19.649   C289.999,164.138,280.952,154.081,268.956,152.829z"/>
</g>
<circle style="fill:#FCD462;" cx="114.752" cy="278.48" r="23.5"/>
<path style="fill:#F6C358;" d="M129.141,259.947c7.131,14.185,0.34,35.807-20.369,35.807c-5.41,0-9.85-1.494-13.359-3.921  c4.24,6.138,11.316,10.167,19.34,10.167c12.979,0,23.5-10.522,23.5-23.5C138.252,270.948,134.676,264.247,129.141,259.947z"/>
<circle style="fill:#E56353;" cx="204.76" cy="278.48" r="23.5"/>
<path style="fill:#D15241;" d="M219.154,259.947c7.131,14.185,0.34,35.807-20.369,35.807c-5.41,0-9.85-1.494-13.36-3.921  c4.24,6.138,11.316,10.167,19.34,10.167c12.978,0,23.5-10.522,23.5-23.5C228.266,270.948,224.69,264.247,219.154,259.947z"/>
<circle style="fill:#44C4A1;" cx="278.48" cy="278.48" r="23.5"/>
<path style="fill:#3EA69B;" d="M292.887,259.947c7.131,14.185,0.34,35.807-20.369,35.807c-5.41,0-9.85-1.494-13.36-3.921  c4.24,6.138,11.316,10.167,19.34,10.167c12.978,0,23.5-10.522,23.5-23.5C301.999,270.948,298.422,264.247,292.887,259.947z"/>
<g>
</g>
<g>
</g>
<g>
</g>
<g>
</g>
<g>
</g>
<g>
</g>
<g>
</g>
<g>
</g>
<g>
</g>
<g>
</g>
<g>
</g>
<g>
</g>
<g>
</g>
<g>
</g>
<g>
</g>
</svg>
