<?xml version="1.0" encoding="iso-8859-1"?>
<!-- Generator: Adobe Illustrator 19.0.0, SVG Export Plug-In . SVG Version: 6.00 Build 0)  -->
<svg xmlns="http://www.w3.org/2000/svg" xmlns:xlink="http://www.w3.org/1999/xlink" version="1.1" id="Capa_1" x="0px" y="0px" viewBox="0 0 384 384" style="enable-background:new 0 0 384 384;" xml:space="preserve">
<circle style="fill:#EFC84A;" cx="192" cy="192" r="192"/>
<path style="opacity:0.1;enable-background:new    ;" d="M248.4,97.997l-0.2-0.2c-11.28-9.84-26.08-15.8-42.28-15.8  c-17.76,0-33.88,7.2-45.52,18.8c-4.6-2.12-9.64-3.36-15.04-3.36c-19.6,0-35.52,15.92-35.52,35.52c0,2.92,0.4,5.68,1.04,8.4  c-16.44,3.08-28.88,17.52-28.88,34.88c0,9.52,3.76,18.159,9.88,24.52l1.16,1.16l21.76,21.76v2.92l6.96,6.96v1.04l-13.16-13.159  H96.12v5.159l7,7v22.12l23,23c-0.12,0.6-0.2,1.24-0.28,1.88l-10.4-10.399l-0.24-0.24c-2.24-2.28-5.36-3.44-9.32-3.44  c-4.68,0-8.2,1.6-10.52,4.799c-2.32,3.24-3.48,7.561-3.48,12.921c0,5.399,1.16,9.72,3.48,12.92c0.24,0.32,0.48,0.64,0.76,0.96  l1.2,1.16l84.446,84.445c3.39,0.179,6.8,0.277,10.234,0.277c93.081,0,170.673-66.243,188.251-154.152L254.6,104.198  C252.68,101.957,250.6,99.877,248.4,97.997z"/>
<path style="fill:#FFFFFF;" d="M270.201,140.894C267.324,107.897,239.666,82,205.922,82c-17.774,0-33.865,7.187-45.541,18.807  c-4.562-2.134-9.637-3.36-15.008-3.36c-19.621,0-35.528,15.906-35.528,35.526c0,2.887,0.383,5.679,1.031,8.367  C94.438,144.455,82,158.877,82,176.223c0,19.621,15.904,35.527,35.525,35.527h148.948c19.621,0,35.527-15.906,35.527-35.527  C302,157.862,288.068,142.759,270.201,140.894z"/>
<g>
	<path style="fill:#EBF0F3;" d="M106.364,159.878l12.387-2.348l-1.262-5.23l-4.377,0.83c-6.424,1.217-11.764,5.042-15.168,10.204   C100.454,161.692,103.272,160.464,106.364,159.878z"/>
	<path style="fill:#EBF0F3;" d="M268.956,152.829l-9.848-1.029l-0.859-9.863c-2.348-26.881-25.332-47.938-52.328-47.938   c-13.984,0-27.152,5.438-37.074,15.312l-5.945,5.918l-7.602-3.552c-3.164-1.481-6.504-2.231-9.926-2.231   c-8.209,0-15.44,4.233-19.65,10.625c3.707-2.444,8.138-3.876,12.902-3.876c3.422,0,6.762,0.75,9.926,2.23l7.602,3.553l5.945-5.918   c9.922-9.875,23.09-15.312,37.074-15.312c26.996,0,49.98,21.057,52.328,47.938l0.859,9.863l9.848,1.029   c11.996,1.252,21.043,11.309,21.043,23.395c0,4.763-1.434,9.193-3.875,12.901c6.391-4.21,10.623-11.44,10.623-19.649   C289.999,164.138,280.952,154.081,268.956,152.829z"/>
</g>
<g>
	<path style="fill:#E56353;" d="M96.139,175.522h12.455v34.268h-5.494V180.67h-6.962V175.522z"/>
	<path style="fill:#E56353;" d="M119.769,205.353c-2.318-3.22-3.479-7.526-3.479-12.918c0-5.392,1.161-9.698,3.479-12.918   c2.322-3.218,5.817-4.828,10.492-4.828c4.672,0,8.17,1.61,10.492,4.828c2.318,3.219,3.479,7.526,3.479,12.918   c0,5.392-1.161,9.698-3.479,12.918c-2.322,3.22-5.821,4.829-10.492,4.829C125.586,210.182,122.091,208.573,119.769,205.353z    M123.914,183.17c-1.356,2.354-2.035,5.442-2.035,9.266c0,3.824,0.678,6.912,2.035,9.266c1.356,2.354,3.471,3.529,6.347,3.529   c2.876,0,4.975-1.167,6.299-3.505c1.324-2.336,1.987-5.432,1.987-9.29c0-3.856-0.662-6.952-1.987-9.289   c-1.324-2.336-3.423-3.505-6.299-3.505C127.385,179.641,125.27,180.818,123.914,183.17z"/>
	<path style="fill:#E56353;" d="M148.545,175.522H161v34.268h-5.494V180.67h-6.962V175.522z"/>
	<path style="fill:#E56353;" d="M172.17,205.353c-2.318-3.22-3.479-7.526-3.479-12.918c0-5.392,1.161-9.698,3.479-12.918   c2.322-3.218,5.817-4.828,10.492-4.828c4.672,0,8.17,1.61,10.492,4.828c2.318,3.219,3.479,7.526,3.479,12.918   c0,5.392-1.161,9.698-3.479,12.918c-2.322,3.22-5.82,4.829-10.492,4.829C177.987,210.182,174.492,208.573,172.17,205.353z    M176.316,183.17c-1.356,2.354-2.035,5.442-2.035,9.266c0,3.824,0.678,6.912,2.035,9.266c1.356,2.354,3.471,3.529,6.347,3.529   s4.975-1.167,6.299-3.505c1.324-2.336,1.987-5.432,1.987-9.29c0-3.856-0.662-6.952-1.987-9.289   c-1.324-2.336-3.423-3.505-6.299-3.505S177.672,180.818,176.316,183.17z"/>
	<path style="fill:#E56353;" d="M200.946,175.522h12.455v34.268h-5.494V180.67h-6.962V175.522z"/>
	<path style="fill:#E56353;" d="M219.625,175.522h12.455v34.268h-5.493V180.67h-6.962V175.522z"/>
	<path style="fill:#E56353;" d="M243.254,205.353c-2.318-3.22-3.479-7.526-3.479-12.918c0-5.392,1.161-9.698,3.479-12.918   c2.322-3.218,5.817-4.828,10.492-4.828c4.672,0,8.17,1.61,10.492,4.828c2.318,3.219,3.479,7.526,3.479,12.918   c0,5.392-1.161,9.698-3.479,12.918c-2.322,3.22-5.821,4.829-10.492,4.829C249.071,210.182,245.576,208.573,243.254,205.353z    M247.4,183.17c-1.356,2.354-2.034,5.442-2.034,9.266c0,3.824,0.678,6.912,2.034,9.266c1.356,2.354,3.471,3.529,6.347,3.529   s4.975-1.167,6.3-3.505c1.324-2.336,1.986-5.432,1.986-9.29c0-3.856-0.662-6.952-1.986-9.289c-1.325-2.336-3.423-3.505-6.3-3.505   S248.756,180.818,247.4,183.17z"/>
	<path style="fill:#E56353;" d="M272.03,175.522h12.455v34.268h-5.494V180.67h-6.962V175.522z"/>
	<path style="fill:#E56353;" d="M96.139,221.431h12.455v34.267h-5.494v-29.119h-6.962V221.431z"/>
	<path style="fill:#E56353;" d="M114.818,221.431h12.455v34.267h-5.494v-29.119h-6.962V221.431z"/>
	<path style="fill:#E56353;" d="M138.444,251.262c-2.318-3.22-3.479-7.526-3.479-12.918s1.161-9.698,3.479-12.918   c2.322-3.217,5.816-4.827,10.492-4.827c4.672,0,8.17,1.61,10.492,4.827c2.318,3.22,3.479,7.526,3.479,12.918   s-1.161,9.698-3.479,12.918c-2.322,3.219-5.82,4.829-10.492,4.829C144.26,256.091,140.765,254.481,138.444,251.262z    M142.588,229.078c-1.356,2.354-2.034,5.442-2.034,9.266s0.678,6.912,2.034,9.266c1.356,2.354,3.471,3.529,6.347,3.529   s4.975-1.167,6.3-3.505c1.324-2.336,1.987-5.432,1.987-9.29c0-3.856-0.662-6.952-1.987-9.29c-1.324-2.336-3.423-3.504-6.3-3.504   S143.945,226.727,142.588,229.078z"/>
	<path style="fill:#E56353;" d="M167.22,221.431h12.455v34.267h-5.493v-29.119h-6.962V221.431z"/>
	<path style="fill:#E56353;" d="M190.849,251.262c-2.318-3.22-3.479-7.526-3.479-12.918s1.161-9.698,3.479-12.918   c2.322-3.217,5.816-4.827,10.492-4.827c4.672,0,8.17,1.61,10.492,4.827c2.318,3.22,3.479,7.526,3.479,12.918   s-1.161,9.698-3.479,12.918c-2.322,3.219-5.821,4.829-10.492,4.829C196.666,256.091,193.171,254.481,190.849,251.262z    M194.994,229.078c-1.356,2.354-2.034,5.442-2.034,9.266s0.678,6.912,2.034,9.266c1.356,2.354,3.471,3.529,6.347,3.529   s4.975-1.167,6.3-3.505c1.324-2.336,1.987-5.432,1.987-9.29c0-3.856-0.662-6.952-1.987-9.29c-1.325-2.336-3.423-3.504-6.3-3.504   S196.35,226.727,194.994,229.078z"/>
	<path style="fill:#E56353;" d="M219.625,221.431h12.455v34.267h-5.493v-29.119h-6.962V221.431z"/>
	<path style="fill:#E56353;" d="M243.254,251.262c-2.318-3.22-3.479-7.526-3.479-12.918s1.161-9.698,3.479-12.918   c2.322-3.217,5.817-4.827,10.492-4.827c4.672,0,8.17,1.61,10.492,4.827c2.318,3.22,3.479,7.526,3.479,12.918   s-1.161,9.698-3.479,12.918c-2.322,3.219-5.821,4.829-10.492,4.829C249.071,256.091,245.576,254.481,243.254,251.262z    M247.4,229.078c-1.356,2.354-2.034,5.442-2.034,9.266s0.678,6.912,2.034,9.266c1.356,2.354,3.471,3.529,6.347,3.529   s4.975-1.167,6.3-3.505c1.324-2.336,1.986-5.432,1.986-9.29c0-3.856-0.662-6.952-1.986-9.29c-1.325-2.336-3.423-3.504-6.3-3.504   S248.756,226.727,247.4,229.078z"/>
	<path style="fill:#E56353;" d="M272.03,221.431h12.455v34.267h-5.494v-29.119h-6.962V221.431z"/>
	<path style="fill:#E56353;" d="M95.377,297.17c-2.318-3.219-3.479-7.526-3.479-12.918c0-5.392,1.161-9.698,3.479-12.918   c2.322-3.218,5.817-4.827,10.492-4.827c4.672,0,8.17,1.61,10.492,4.827c2.318,3.22,3.479,7.526,3.479,12.918   c0,5.392-1.161,9.698-3.479,12.918c-2.322,3.22-5.821,4.83-10.492,4.83C101.194,302,97.699,300.39,95.377,297.17z M99.522,274.987   c-1.356,2.354-2.035,5.442-2.035,9.266s0.678,6.912,2.035,9.266c1.356,2.354,3.471,3.528,6.347,3.528s4.975-1.167,6.299-3.505   c1.325-2.336,1.987-5.432,1.987-9.289c0-3.856-0.662-6.952-1.987-9.29c-1.324-2.336-3.423-3.505-6.299-3.505   S100.879,272.636,99.522,274.987z"/>
	<path style="fill:#E56353;" d="M129.104,297.17c-2.318-3.219-3.479-7.526-3.479-12.918c0-5.392,1.161-9.698,3.479-12.918   c2.322-3.218,5.817-4.827,10.492-4.827c4.672,0,8.17,1.61,10.492,4.827c2.318,3.22,3.479,7.526,3.479,12.918   c0,5.392-1.161,9.698-3.479,12.918c-2.322,3.22-5.821,4.83-10.492,4.83C134.921,302,131.426,300.39,129.104,297.17z    M133.249,274.987c-1.356,2.354-2.034,5.442-2.034,9.266s0.678,6.912,2.034,9.266c1.356,2.354,3.471,3.528,6.347,3.528   c2.876,0,4.975-1.167,6.3-3.505c1.324-2.336,1.986-5.432,1.986-9.289c0-3.856-0.662-6.952-1.986-9.29   c-1.325-2.336-3.423-3.505-6.3-3.505C136.72,271.458,134.606,272.636,133.249,274.987z"/>
	<path style="fill:#E56353;" d="M162.831,297.17c-2.318-3.219-3.479-7.526-3.479-12.918c0-5.392,1.161-9.698,3.479-12.918   c2.322-3.218,5.816-4.827,10.492-4.827c4.672,0,8.17,1.61,10.492,4.827c2.318,3.22,3.479,7.526,3.479,12.918   c0,5.392-1.161,9.698-3.479,12.918c-2.322,3.22-5.82,4.83-10.492,4.83C168.648,302,165.153,300.39,162.831,297.17z    M166.976,274.987c-1.356,2.354-2.034,5.442-2.034,9.266s0.678,6.912,2.034,9.266c1.356,2.354,3.471,3.528,6.347,3.528   s4.975-1.167,6.3-3.505c1.324-2.336,1.987-5.432,1.987-9.289c0-3.856-0.662-6.952-1.987-9.29c-1.324-2.336-3.423-3.505-6.3-3.505   S168.332,272.636,166.976,274.987z"/>
	<path style="fill:#E56353;" d="M191.607,267.34h12.455v34.267h-5.493v-29.119h-6.962V267.34z"/>
	<path style="fill:#E56353;" d="M215.237,297.17c-2.318-3.219-3.479-7.526-3.479-12.918c0-5.392,1.161-9.698,3.479-12.918   c2.322-3.218,5.816-4.827,10.492-4.827c4.672,0,8.17,1.61,10.492,4.827c2.318,3.22,3.479,7.526,3.479,12.918   c0,5.392-1.161,9.698-3.479,12.918c-2.322,3.22-5.821,4.83-10.492,4.83C221.053,302,217.558,300.39,215.237,297.17z    M219.382,274.987c-1.356,2.354-2.034,5.442-2.034,9.266s0.678,6.912,2.034,9.266c1.356,2.354,3.471,3.528,6.347,3.528   s4.975-1.167,6.3-3.505c1.324-2.336,1.986-5.432,1.986-9.289c0-3.856-0.662-6.952-1.986-9.29c-1.325-2.336-3.423-3.505-6.3-3.505   S220.738,272.636,219.382,274.987z"/>
	<path style="fill:#E56353;" d="M244.012,267.34h12.455v34.267h-5.494v-29.119h-6.962V267.34z"/>
	<path style="fill:#E56353;" d="M267.638,297.17c-2.318-3.219-3.479-7.526-3.479-12.918c0-5.392,1.161-9.698,3.479-12.918   c2.322-3.218,5.817-4.827,10.492-4.827c4.672,0,8.17,1.61,10.492,4.827c2.318,3.22,3.479,7.526,3.479,12.918   c0,5.392-1.161,9.698-3.479,12.918c-2.322,3.22-5.821,4.83-10.492,4.83C273.455,302,269.96,300.39,267.638,297.17z    M271.783,274.987c-1.356,2.354-2.035,5.442-2.035,9.266s0.678,6.912,2.035,9.266c1.356,2.354,3.471,3.528,6.347,3.528   s4.975-1.167,6.299-3.505c1.325-2.336,1.987-5.432,1.987-9.289c0-3.856-0.662-6.952-1.987-9.29   c-1.324-2.336-3.423-3.505-6.299-3.505S273.14,272.636,271.783,274.987z"/>
</g>
<g>
</g>
<g>
</g>
<g>
</g>
<g>
</g>
<g>
</g>
<g>
</g>
<g>
</g>
<g>
</g>
<g>
</g>
<g>
</g>
<g>
</g>
<g>
</g>
<g>
</g>
<g>
</g>
<g>
</g>
</svg>
