<?xml version="1.0" encoding="iso-8859-1"?>
<!-- Generator: Adobe Illustrator 19.0.0, SVG Export Plug-In . SVG Version: 6.00 Build 0)  -->
<svg xmlns="http://www.w3.org/2000/svg" xmlns:xlink="http://www.w3.org/1999/xlink" version="1.1" id="Capa_1" x="0px" y="0px" viewBox="0 0 384 384" style="enable-background:new 0 0 384 384;" xml:space="preserve">
<circle style="fill:#45B39C;" cx="192" cy="192" r="192"/>
<path style="opacity:0.1;enable-background:new    ;" d="M264.24,108.037h-14.48l-10.08-10.08c-0.84-0.84-2-1.36-3.32-1.36h-23.8  l-8.8-8.76l-0.2-0.24l-2.36-2.359l-0.04-0.04c-2.52-2-5.68-3.2-9.16-3.2c-6.96,0-12.8,4.84-14.4,11.319  c-0.48,1.881-2.08,3.28-4.04,3.28h-25.92c-2.6,0-4.68,2.08-4.68,4.641v6.8h-23.2c-4.32,0-7.8,3.48-7.8,7.76v178.44  c0,2.159,0.88,4.12,2.32,5.52l84.082,84.082c92.874-3.03,169.061-71.972,183.246-161.594L270.16,110.797  C268.76,109.117,266.64,108.037,264.24,108.037z"/>
<path style="fill:#DC8744;" d="M264.256,108.041H119.744c-4.294,0-7.774,3.481-7.774,7.774v178.41c0,4.294,3.48,7.775,7.774,7.775  h144.512c4.294,0,7.774-3.481,7.774-7.775v-178.41C272.03,111.522,268.55,108.041,264.256,108.041z"/>
<rect x="125" y="122.48" style="fill:#D5D6DB;" width="134.012" height="167.9"/>
<rect x="125" y="114.348" style="fill:#EBF0F3;" width="134.012" height="172.16"/>
<rect x="142.968" y="114.348" style="fill:#3A556A;" width="98.06" height="9.144"/>
<g>
	<path style="fill:#64798A;" d="M236.373,96.592h-25.922c-1.958,0-3.58-1.383-4.046-3.285C204.817,86.818,198.98,82,192,82   c-6.98,0-12.818,4.818-14.405,11.308c-0.465,1.902-2.088,3.285-4.046,3.285h-25.922c-2.572,0-4.657,2.085-4.657,4.657v13.1h98.061   V101.25C241.03,98.678,238.945,96.592,236.373,96.592z M192,105.479c-4.568,0-8.272-3.702-8.272-8.272   c0-4.569,3.704-8.271,8.272-8.271c4.569,0,8.272,3.702,8.272,8.271C200.272,101.776,196.568,105.479,192,105.479z"/>
	<rect x="135.992" y="136.48" style="fill:#64798A;" width="27.712" height="4"/>
	<rect x="178.16" y="136.48" style="fill:#64798A;" width="27.712" height="4"/>
	<rect x="220.28" y="136.48" style="fill:#64798A;" width="27.712" height="4"/>
	<rect x="135.992" y="149.84" style="fill:#64798A;" width="27.712" height="4"/>
	<rect x="178.16" y="149.84" style="fill:#64798A;" width="27.712" height="4"/>
	<rect x="220.28" y="149.84" style="fill:#64798A;" width="27.712" height="4"/>
	<rect x="135.992" y="163.208" style="fill:#64798A;" width="27.712" height="4"/>
	<rect x="178.16" y="163.208" style="fill:#64798A;" width="27.712" height="4"/>
	<rect x="220.28" y="163.208" style="fill:#64798A;" width="27.712" height="4"/>
	<rect x="135.992" y="176.56" style="fill:#64798A;" width="27.712" height="4"/>
	<rect x="178.16" y="176.56" style="fill:#64798A;" width="27.712" height="4"/>
	<rect x="220.28" y="176.56" style="fill:#64798A;" width="27.712" height="4"/>
	<rect x="135.992" y="189.92" style="fill:#64798A;" width="27.712" height="4"/>
	<rect x="178.16" y="189.92" style="fill:#64798A;" width="27.712" height="4"/>
	<rect x="220.28" y="189.92" style="fill:#64798A;" width="27.712" height="4"/>
	<rect x="135.992" y="203.3" style="fill:#64798A;" width="27.712" height="4"/>
	<rect x="178.16" y="203.3" style="fill:#64798A;" width="27.712" height="4"/>
	<rect x="220.28" y="203.3" style="fill:#64798A;" width="27.712" height="4"/>
	<rect x="135.992" y="216.68" style="fill:#64798A;" width="27.712" height="4"/>
	<rect x="178.16" y="216.68" style="fill:#64798A;" width="27.712" height="4"/>
	<rect x="220.28" y="216.68" style="fill:#64798A;" width="27.712" height="4"/>
	<rect x="135.992" y="230.04" style="fill:#64798A;" width="27.712" height="4"/>
	<rect x="178.16" y="230.04" style="fill:#64798A;" width="27.712" height="4"/>
	<rect x="220.28" y="230.04" style="fill:#64798A;" width="27.712" height="4"/>
	<rect x="135.992" y="243.4" style="fill:#64798A;" width="27.712" height="4"/>
	<rect x="178.16" y="243.4" style="fill:#64798A;" width="27.712" height="4"/>
	<rect x="220.28" y="243.4" style="fill:#64798A;" width="27.712" height="4"/>
	<rect x="135.992" y="256.76" style="fill:#64798A;" width="27.712" height="4"/>
	<rect x="178.16" y="256.76" style="fill:#64798A;" width="27.712" height="4"/>
	<rect x="220.28" y="256.76" style="fill:#64798A;" width="27.712" height="4"/>
	<rect x="135.992" y="270.12" style="fill:#64798A;" width="27.712" height="4"/>
	<rect x="178.16" y="270.12" style="fill:#64798A;" width="27.712" height="4"/>
	<rect x="220.28" y="270.12" style="fill:#64798A;" width="27.712" height="4"/>
</g>
<g>
</g>
<g>
</g>
<g>
</g>
<g>
</g>
<g>
</g>
<g>
</g>
<g>
</g>
<g>
</g>
<g>
</g>
<g>
</g>
<g>
</g>
<g>
</g>
<g>
</g>
<g>
</g>
<g>
</g>
</svg>
