<?xml version="1.0" encoding="iso-8859-1"?>
<!-- Generator: Adobe Illustrator 19.0.0, SVG Export Plug-In . SVG Version: 6.00 Build 0)  -->
<svg xmlns="http://www.w3.org/2000/svg" xmlns:xlink="http://www.w3.org/1999/xlink" version="1.1" id="Capa_1" x="0px" y="0px" viewBox="0 0 384 384" style="enable-background:new 0 0 384 384;" xml:space="preserve">
<circle style="fill:#EFC84A;" cx="192" cy="192" r="192"/>
<path style="opacity:0.1;enable-background:new    ;" d="M250.28,81.997v14.92l-14.92-14.92h-10.48v14.92l-14.92-14.92h-10.48v14.96  l-14.96-14.96h-10.48v14.92l-14.92-14.92h-10.48v14.92l-14.92-14.92h-10.48v21.48h-8.6l-11.16,11.16v8.601H82v10.479l14.92,14.92H82  v10.48l14.96,14.96H82v10.44l14.96,14.959H82v10.48l14.92,14.92H82v10.48l14.92,14.92H82v10.48l41.24,41.24l81.533,81.533  c95.852-6.304,172.457-82.91,178.757-178.763L260.76,81.997H250.28z"/>
<path style="fill:#3A556A;" d="M269.358,103.472H114.642c-4.362,4.362-6.808,6.808-11.169,11.169v154.717  c4.361,4.362,6.807,6.807,11.169,11.169h154.717c4.362-4.362,6.807-6.808,11.169-11.169V114.641  C276.165,110.28,273.72,107.834,269.358,103.472z"/>
<path style="fill:#EBF0F3;" d="M235.17,122.414H122.414v139.173h139.173V148.83C251.27,138.513,245.486,132.73,235.17,122.414z"/>
<path style="fill:#E1E6E9;" d="M221.425,144.57H144.57v94.86h94.859v-76.854C232.398,155.544,228.456,151.602,221.425,144.57z"/>
<g>
	<rect x="123.236" y="82" style="fill:#EBF0F3;" width="10.468" height="21.472"/>
	<rect x="148.64" y="82" style="fill:#EBF0F3;" width="10.472" height="21.472"/>
	<rect x="174.04" y="82" style="fill:#EBF0F3;" width="10.468" height="21.472"/>
	<rect x="199.472" y="82" style="fill:#EBF0F3;" width="10.468" height="21.472"/>
	<rect x="250.28" y="82" style="fill:#EBF0F3;" width="10.468" height="21.472"/>
	<rect x="224.88" y="82" style="fill:#EBF0F3;" width="10.472" height="21.472"/>
	<rect x="123.236" y="280.52" style="fill:#EBF0F3;" width="10.468" height="21.472"/>
	<rect x="148.64" y="280.52" style="fill:#EBF0F3;" width="10.472" height="21.472"/>
	<rect x="174.04" y="280.52" style="fill:#EBF0F3;" width="10.468" height="21.472"/>
	<rect x="199.472" y="280.52" style="fill:#EBF0F3;" width="10.468" height="21.472"/>
	<rect x="250.28" y="280.52" style="fill:#EBF0F3;" width="10.468" height="21.472"/>
	<rect x="224.88" y="280.52" style="fill:#EBF0F3;" width="10.472" height="21.472"/>
	<rect x="280.528" y="123.248" style="fill:#EBF0F3;" width="21.472" height="10.472"/>
	<rect x="280.54" y="148.64" style="fill:#EBF0F3;" width="21.472" height="10.472"/>
	<rect x="280.528" y="174.072" style="fill:#EBF0F3;" width="21.472" height="10.472"/>
	<rect x="280.528" y="199.48" style="fill:#EBF0F3;" width="21.472" height="10.472"/>
	<rect x="280.528" y="250.304" style="fill:#EBF0F3;" width="21.472" height="10.472"/>
	<rect x="280.548" y="224.892" style="fill:#EBF0F3;" width="21.472" height="10.472"/>
	<rect x="82.008" y="123.236" style="fill:#EBF0F3;" width="21.472" height="10.472"/>
	<rect x="81.98" y="148.648" style="fill:#EBF0F3;" width="21.472" height="10.472"/>
	<rect x="82.008" y="174.06" style="fill:#EBF0F3;" width="21.472" height="10.472"/>
	<rect x="82.008" y="199.468" style="fill:#EBF0F3;" width="21.472" height="10.472"/>
	<rect x="82.008" y="250.292" style="fill:#EBF0F3;" width="21.472" height="10.472"/>
	<rect x="81.988" y="224.9" style="fill:#EBF0F3;" width="21.472" height="10.472"/>
</g>
<g>
</g>
<g>
</g>
<g>
</g>
<g>
</g>
<g>
</g>
<g>
</g>
<g>
</g>
<g>
</g>
<g>
</g>
<g>
</g>
<g>
</g>
<g>
</g>
<g>
</g>
<g>
</g>
<g>
</g>
</svg>
