<?xml version="1.0" encoding="iso-8859-1"?>
<!-- Generator: Adobe Illustrator 19.0.0, SVG Export Plug-In . SVG Version: 6.00 Build 0)  -->
<svg xmlns="http://www.w3.org/2000/svg" xmlns:xlink="http://www.w3.org/1999/xlink" version="1.1" id="Capa_1" x="0px" y="0px" viewBox="0 0 384 384" style="enable-background:new 0 0 384 384;" xml:space="preserve">
<circle style="fill:#45B39C;" cx="192" cy="192" r="192"/>
<path style="opacity:0.1;enable-background:new    ;" d="M383.822,199.033L300.72,115.93c-1-1.159-2.48-1.92-4.12-1.92h-6.84l-32-32  H126.24v32H87.4c-2.96,0-5.4,2.4-5.4,5.4v146.28c0,1.6,0.72,3.04,1.84,4.04h0.04l114.117,114.117  C298.913,380.745,380.187,299.813,383.822,199.033z"/>
<path style="fill:#3A556A;" d="M296.586,114H87.414c-2.99,0-5.414,2.424-5.414,5.414v146.26c0,2.99,2.424,5.414,5.414,5.414h209.172  c2.99,0,5.414-2.424,5.414-5.414v-146.26C302,116.424,299.576,114,296.586,114z"/>
<rect x="94" y="126" style="fill:#EBF0F3;" width="196" height="119.44"/>
<g>
	<circle style="fill:#2F4859;" cx="192" cy="258.32" r="8.4"/>
	<rect x="149.76" y="271.08" style="fill:#2F4859;" width="84.48" height="21.588"/>
</g>
<polygon style="fill:#64798A;" points="234.238,292.676 149.762,292.676 234.238,271.088 "/>
<path style="fill:#3A556A;" d="M251.48,292.576H132.519c-2.318,0-4.196,1.879-4.196,4.196V302h127.354v-5.228  C255.677,294.454,253.798,292.576,251.48,292.576z"/>
<polygon style="fill:#2F4859;" points="267.624,126.001 268.614,114 115.386,114 116.375,126.001 "/>
<polygon style="fill:#E1E6E9;" points="126.226,245.439 257.773,245.439 267.624,126.001 116.375,126.001 "/>
<rect x="126.224" y="82" style="fill:#FFFFFF;" width="131.548" height="163.44"/>
<rect x="126.224" y="82" style="fill:#64798A;" width="131.548" height="13.764"/>
<circle style="fill:#FCD462;" cx="225.12" cy="88.88" r="3.464"/>
<circle style="fill:#44C4A1;" cx="236.4" cy="88.88" r="3.464"/>
<circle style="fill:#E56353;" cx="247.688" cy="88.88" r="3.464"/>
<g>
	<rect x="175.04" y="114.224" style="fill:#64798A;" width="70.452" height="4"/>
	<rect x="175.04" y="128.2" style="fill:#64798A;" width="70.452" height="4"/>
</g>
<path style="fill:#E56353;" d="M145.965,133.158c-0.047,0-0.094-0.002-0.145-0.006c-0.578-0.041-1.109-0.33-1.457-0.793  l-6.711-8.945c-0.66-0.885-0.48-2.139,0.402-2.801c0.883-0.66,2.133-0.486,2.801,0.398l5.328,7.103l14.301-14.266  c0.782-0.777,2.043-0.781,2.832,0.004c0.778,0.781,0.778,2.049-0.004,2.828l-15.934,15.893  C147,132.949,146.492,133.158,145.965,133.158z"/>
<g>
	<rect x="175.04" y="154.732" style="fill:#64798A;" width="70.452" height="4"/>
	<rect x="175.04" y="168.72" style="fill:#64798A;" width="70.452" height="4"/>
</g>
<path style="fill:#E56353;" d="M145.965,173.666c-0.047,0-0.094-0.002-0.145-0.006c-0.578-0.041-1.109-0.33-1.457-0.793  l-6.711-8.946c-0.66-0.885-0.48-2.138,0.402-2.801c0.883-0.66,2.133-0.486,2.801,0.399l5.328,7.103l14.301-14.266  c0.782-0.777,2.043-0.781,2.832,0.004c0.778,0.781,0.778,2.049-0.004,2.828l-15.934,15.893  C147,173.457,146.492,173.666,145.965,173.666z"/>
<g>
	<rect x="175.04" y="195.24" style="fill:#64798A;" width="70.452" height="4"/>
	<rect x="175.04" y="209.2" style="fill:#64798A;" width="70.452" height="4"/>
</g>
<path style="fill:#E56353;" d="M145.965,214.174c-0.047,0-0.094-0.002-0.145-0.006c-0.578-0.041-1.109-0.33-1.457-0.793  l-6.711-8.946c-0.66-0.885-0.48-2.138,0.402-2.801c0.883-0.66,2.133-0.486,2.801,0.398l5.328,7.104l14.301-14.266  c0.782-0.777,2.043-0.781,2.832,0.004c0.778,0.781,0.778,2.049-0.004,2.828l-15.934,15.893  C147,213.965,146.492,214.174,145.965,214.174z"/>
<g>
</g>
<g>
</g>
<g>
</g>
<g>
</g>
<g>
</g>
<g>
</g>
<g>
</g>
<g>
</g>
<g>
</g>
<g>
</g>
<g>
</g>
<g>
</g>
<g>
</g>
<g>
</g>
<g>
</g>
</svg>
