<?xml version="1.0" encoding="iso-8859-1"?>
<!-- Generator: Adobe Illustrator 19.0.0, SVG Export Plug-In . SVG Version: 6.00 Build 0)  -->
<svg xmlns="http://www.w3.org/2000/svg" xmlns:xlink="http://www.w3.org/1999/xlink" version="1.1" id="Capa_1" x="0px" y="0px" viewBox="0 0 384 384" style="enable-background:new 0 0 384 384;" xml:space="preserve">
<circle style="fill:#EA8953;" cx="192" cy="192" r="192"/>
<path style="opacity:0.1;enable-background:new    ;" d="M246.76,81.997H137.24c-5.04,0-9.08,4.08-9.08,9.08v201.84  c0,2.96,1.4,5.56,3.56,7.24l82.52,82.52c88.288-10.19,158.306-80.238,168.45-168.54L253.44,84.917  C251.76,83.117,249.4,81.997,246.76,81.997z"/>
<path style="fill:#E1E6E9;" d="M246.776,90H137.224c-5.006,0-9.064,4.058-9.064,9.064v193.871c0,5.006,4.058,9.065,9.064,9.065  h109.553c5.007,0,9.064-4.058,9.064-9.065V99.064C255.841,94.058,251.783,90,246.776,90z"/>
<path style="fill:#EBF0F3;" d="M246.776,82H137.224c-5.006,0-9.064,4.058-9.064,9.064v193.871c0,5.006,4.058,9.065,9.064,9.065  h109.553c5.007,0,9.064-4.058,9.064-9.065V91.064C255.841,86.058,251.783,82,246.776,82z"/>
<rect x="144.16" y="98" style="fill:#64798A;" width="95.684" height="82.66"/>
<circle style="fill:#D5D6DB;" cx="192" cy="236.24" r="40.28"/>
<circle style="fill:#E1E6E9;" cx="192" cy="236.24" r="19.536"/>
<path style="fill:#D5D6DB;" d="M187.534,228.006v16.429c0,1.67,1.948,2.582,3.23,1.512l9.843-8.214c0.943-0.787,0.943-2.236,0-3.023  l-9.843-8.215C189.482,225.425,187.534,226.336,187.534,228.006z"/>
<g>
	<circle style="fill:#E1E6E9;" cx="192" cy="205.52" r="4.24"/>
	<circle style="fill:#E1E6E9;" cx="192" cy="266.92" r="4.24"/>
	<circle style="fill:#E1E6E9;" cx="222.72" cy="236.24" r="4.24"/>
	<circle style="fill:#E1E6E9;" cx="161.28" cy="236.24" r="4.24"/>
</g>
<g>
</g>
<g>
</g>
<g>
</g>
<g>
</g>
<g>
</g>
<g>
</g>
<g>
</g>
<g>
</g>
<g>
</g>
<g>
</g>
<g>
</g>
<g>
</g>
<g>
</g>
<g>
</g>
<g>
</g>
</svg>
