<?xml version="1.0" encoding="iso-8859-1"?>
<!-- Generator: Adobe Illustrator 19.0.0, SVG Export Plug-In . SVG Version: 6.00 Build 0)  -->
<svg xmlns="http://www.w3.org/2000/svg" xmlns:xlink="http://www.w3.org/1999/xlink" version="1.1" id="Capa_1" x="0px" y="0px" viewBox="0 0 384 384" style="enable-background:new 0 0 384 384;" xml:space="preserve">
<circle style="fill:#334D5C;" cx="192" cy="192" r="192"/>
<path style="opacity:0.1;enable-background:new    ;" d="M384,192c0-10.361-0.846-20.521-2.426-30.437L302,81.989H82v220  l79.589,79.589C171.497,383.156,181.648,384,192,384C298.039,384,384,298.039,384,192z"/>
<rect x="82" y="174.4" style="fill:#D5D6DB;" width="220" height="127.604"/>
<rect id="SVGCleanerId_0" x="82" y="158.36" style="fill:#EBF0F3;" width="220" height="127.604"/>
<g>
	<rect id="SVGCleanerId_0_1_" x="82" y="158.36" style="fill:#EBF0F3;" width="220" height="127.604"/>
</g>
<g>
	<path style="fill:#44C4A1;" d="M280.999,275.593h-178v-3.456c0-5.717-4.039-10.367-9-10.367h-3v-79.224h3c4.961,0,9-4.65,9-10.367   v-3.456h178v3.456c0,5.717,4.039,10.367,9,10.367h3v79.224h-3c-4.961,0-9,4.65-9,10.367V275.593z M108.698,268.681H275.3   c1.195-6.761,5.832-12.097,11.699-13.476v-66.094c-5.867-1.379-10.504-6.716-11.699-13.477H108.698   c-1.195,6.761-5.832,12.098-11.699,13.477v66.094C102.866,256.584,107.503,261.92,108.698,268.681z"/>
	<ellipse style="fill:#44C4A1;" cx="192" cy="222.16" rx="24.58" ry="37.644"/>
</g>
<rect x="82" y="148.24" style="fill:#D5D6DB;" width="220" height="127.604"/>
<rect id="SVGCleanerId_1" x="82" y="132.2" style="fill:#EBF0F3;" width="220" height="127.604"/>
<g>
	<rect id="SVGCleanerId_1_1_" x="82" y="132.2" style="fill:#EBF0F3;" width="220" height="127.604"/>
</g>
<g>
	<path style="fill:#44C4A1;" d="M280.999,249.435h-178v-3.456c0-5.717-4.039-10.367-9-10.367h-3v-79.224h3c4.961,0,9-4.65,9-10.367   v-3.456h178v3.456c0,5.717,4.039,10.367,9,10.367h3v79.224h-3c-4.961,0-9,4.65-9,10.367V249.435z M108.698,242.524H275.3   c1.195-6.761,5.832-12.098,11.699-13.476v-66.094c-5.867-1.379-10.504-6.716-11.699-13.476H108.698   c-1.195,6.761-5.832,12.097-11.699,13.476v66.094C102.866,230.426,107.503,235.763,108.698,242.524z"/>
	<ellipse style="fill:#44C4A1;" cx="192" cy="196" rx="24.58" ry="37.644"/>
</g>
<rect x="82" y="122.08" style="fill:#D5D6DB;" width="220" height="127.604"/>
<rect id="SVGCleanerId_2" x="82" y="106.04" style="fill:#EBF0F3;" width="220" height="127.604"/>
<g>
	<rect id="SVGCleanerId_2_1_" x="82" y="106.04" style="fill:#EBF0F3;" width="220" height="127.604"/>
</g>
<g>
	<path style="fill:#44C4A1;" d="M280.999,223.278h-178v-3.456c0-5.717-4.039-10.367-9-10.367h-3v-79.224h3c4.961,0,9-4.65,9-10.367   v-3.456h178v3.456c0,5.717,4.039,10.367,9,10.367h3v79.224h-3c-4.961,0-9,4.65-9,10.367V223.278z M108.698,216.367H275.3   c1.195-6.761,5.832-12.098,11.699-13.477v-66.094c-5.867-1.379-10.504-6.716-11.699-13.476H108.698   c-1.195,6.761-5.832,12.097-11.699,13.476v66.094C102.866,204.269,107.503,209.606,108.698,216.367z"/>
	<ellipse style="fill:#44C4A1;" cx="192" cy="160.08" rx="24.58" ry="32.68"/>
</g>
<rect x="82" y="95.924" style="fill:#D5D6DB;" width="220" height="127.604"/>
<g>
	<rect x="82" y="82" style="fill:#EBF0F3;" width="220" height="110.776"/>
	<rect x="82" y="82" style="fill:#EBF0F3;" width="220" height="120.88"/>
</g>
<g>
	<path style="fill:#44C4A1;" d="M281,188.821H103v-3c0-4.963-4.039-9-9-9h-3v-68.775h3c4.961,0,9-4.037,9-9v-3h178v3   c0,4.963,4.039,9,9,9h3v68.775h-3c-4.961,0-9,4.037-9,9V188.821z M108.699,182.821h166.602c1.195-5.869,5.832-10.502,11.699-11.699   v-57.377c-5.867-1.198-10.504-5.83-11.699-11.699H108.699c-1.195,5.869-5.832,10.502-11.699,11.699v57.377   C102.867,172.319,107.504,176.952,108.699,182.821z"/>
	<ellipse style="fill:#44C4A1;" cx="192" cy="142.432" rx="24.58" ry="32.68"/>
</g>
<rect x="175.056" y="202.88" style="fill:#F6C358;" width="33.884" height="99.132"/>
<rect x="175.056" y="82" style="fill:#FCD462;" width="33.884" height="120.88"/>
<g>
</g>
<g>
</g>
<g>
</g>
<g>
</g>
<g>
</g>
<g>
</g>
<g>
</g>
<g>
</g>
<g>
</g>
<g>
</g>
<g>
</g>
<g>
</g>
<g>
</g>
<g>
</g>
<g>
</g>
</svg>
