<?xml version="1.0" encoding="iso-8859-1"?>
<!-- Generator: Adobe Illustrator 19.0.0, SVG Export Plug-In . SVG Version: 6.00 Build 0)  -->
<svg xmlns="http://www.w3.org/2000/svg" xmlns:xlink="http://www.w3.org/1999/xlink" version="1.1" id="Capa_1" x="0px" y="0px" viewBox="0 0 384 384" style="enable-background:new 0 0 384 384;" xml:space="preserve">
<circle style="fill:#334D5C;" cx="192" cy="192" r="192"/>
<path style="opacity:0.1;enable-background:new    ;" d="M384,192c0-7.434-0.466-14.755-1.288-21.968l-83.847-83.847l-0.026,0.024  C296.566,83.648,293.287,82,289.6,82H94.4C87.56,82,82,87.56,82,94.4v195.2c0,3.283,1.304,6.251,3.392,8.471l0,0  c0.174,0.185,0.351,0.362,0.536,0.536l84.105,84.104C177.246,383.534,184.567,384,192,384C298.039,384,384,298.038,384,192z"/>
<path style="fill:#EBF0F3;" d="M289.604,82H94.396C87.551,82,82,87.55,82,94.396v195.208C82,296.45,87.551,302,94.396,302h195.208  c6.847,0,12.396-5.55,12.396-12.396V94.396C302,87.55,296.451,82,289.604,82z"/>
<path style="fill:#D5D6DB;" d="M283.12,96.944h-21.258c-2.107,0-3.815,1.708-3.815,3.816v21.259c0,2.107,1.708,3.815,3.815,3.815  h21.258c2.107,0,3.815-1.708,3.815-3.815v-21.259C286.936,98.652,285.228,96.944,283.12,96.944z"/>
<rect x="82" y="148.6" style="fill:#E56353;" width="220" height="86.82"/>
<path style="fill:#E1E6E9;" d="M192,260.009c20.5,0,38.714-9.642,50.47-24.599H141.53C153.286,250.368,171.5,260.009,192,260.009z"/>
<path style="fill:#D15241;" d="M127.789,195.798c0,14.963,5.161,28.695,13.741,39.612H242.47  c8.58-10.916,13.741-24.649,13.741-39.612c0-18.696-8.04-35.474-20.793-47.208h-86.836  C135.829,160.325,127.789,177.102,127.789,195.798z"/>
<g>
	<circle style="fill:#FFFFFF;" cx="192" cy="192" r="64.2"/>
	<path style="fill:#FFFFFF;" d="M192,131.588c-16.766,0-31.982,6.479-43.418,17.002h86.836   C223.982,138.066,208.766,131.588,192,131.588z"/>
</g>
<path style="fill:#EBF0F3;" d="M191.998,241.606c-26.538,0-48.131-22.252-48.131-49.604c0-27.352,21.593-49.604,48.131-49.604  c26.542,0,48.135,22.252,48.135,49.604C240.133,219.353,218.54,241.606,191.998,241.606z"/>
<path style="fill:#3A556A;" d="M191.998,230.205c-20.441,0-37.068-17.138-37.068-38.203c0-21.065,16.627-38.204,37.068-38.204  c20.441,0,37.072,17.138,37.072,38.204C229.07,213.066,212.439,230.205,191.998,230.205z"/>
<ellipse style="fill:#6E8696;" cx="192" cy="192" rx="26.008" ry="26.804"/>
<path style="fill:#64798A;" d="M204.85,168.73c6.158,18.642-3.514,43.223-28.994,43.223c-0.422,0-0.812-0.047-1.225-0.06  c4.61,4.28,10.688,6.91,17.367,6.91c14.34,0,26.009-12.024,26.009-26.802C218.007,182.042,212.695,173.351,204.85,168.73z"/>
<ellipse style="fill:#27A2DB;" cx="207.752" cy="181.04" rx="5.268" ry="5.428"/>
<ellipse style="fill:#D5D6DB;" cx="178.952" cy="203.38" rx="3.992" ry="4.116"/>
<path style="fill:#FFFFFF;" d="M283.12,95.454h-21.258c-2.107,0-3.815,1.709-3.815,3.816v21.259c0,2.107,1.708,3.815,3.815,3.815  h21.258c2.107,0,3.815-1.708,3.815-3.815V99.269C286.936,97.162,285.228,95.454,283.12,95.454z"/>
<circle style="fill:#E56353;" cx="104.8" cy="109.9" r="8.74"/>
<g>
	<rect x="262.32" y="99.348" style="fill:#D5D6DB;" width="20.308" height="4"/>
	<rect x="262.32" y="107.9" style="fill:#D5D6DB;" width="20.308" height="4"/>
	<rect x="262.32" y="116.44" style="fill:#D5D6DB;" width="20.308" height="4"/>
</g>
<g>
</g>
<g>
</g>
<g>
</g>
<g>
</g>
<g>
</g>
<g>
</g>
<g>
</g>
<g>
</g>
<g>
</g>
<g>
</g>
<g>
</g>
<g>
</g>
<g>
</g>
<g>
</g>
<g>
</g>
</svg>
