<?xml version="1.0" encoding="iso-8859-1"?>
<!-- Generator: Adobe Illustrator 19.0.0, SVG Export Plug-In . SVG Version: 6.00 Build 0)  -->
<svg xmlns="http://www.w3.org/2000/svg" xmlns:xlink="http://www.w3.org/1999/xlink" version="1.1" id="Capa_1" x="0px" y="0px" viewBox="0 0 384 384" style="enable-background:new 0 0 384 384;" xml:space="preserve">
<circle style="fill:#334D5C;" cx="192" cy="192" r="192"/>
<path style="opacity:0.1;enable-background:new    ;" d="M257.978,85.099l-0.001-0.001c-1.942-1.919-4.615-3.108-7.577-3.108H133.6  c-5.96,0-10.76,4.8-10.76,10.72v198.56c0,3.027,1.266,5.748,3.288,7.698l-0.008,0.008l84.138,84.138  c91.466-8.632,164.235-81.408,172.857-172.877L258.046,85.168C258.024,85.145,258.001,85.122,257.978,85.099z"/>
<path style="fill:#D5D6DB;" d="M250.418,82H133.582c-5.924,0-10.728,4.803-10.728,10.728v198.545  c0,5.925,4.804,10.727,10.728,10.727h116.837c5.925,0,10.728-4.802,10.728-10.727V92.728C261.146,86.803,256.343,82,250.418,82z"/>
<path style="fill:#EBF0F3;" d="M250.418,82H133.582c-5.924,0-10.728,4.803-10.728,10.728v190.545  c0,5.925,4.804,10.727,10.728,10.727h116.837c5.925,0,10.728-4.802,10.728-10.727V92.728C261.146,86.803,256.343,82,250.418,82z"/>
<rect x="134.852" y="94" style="fill:#27A2DB;" width="114.292" height="50.864"/>
<rect x="134.852" y="133.96" style="fill:#2D93BA;" width="114.292" height="10.9"/>
<path style="fill:#FCD462;" d="M156.193,161.299h-18.781c-0.993,0-1.799,0.806-1.799,1.799v9.708c0,0.993,0.806,1.798,1.799,1.798  h18.781c0.993,0,1.799-0.805,1.799-1.798v-9.708C157.992,162.105,157.186,161.299,156.193,161.299z"/>
<g>
	<path style="fill:#64798A;" d="M156.193,185.092h-18.781c-0.993,0-1.799,0.805-1.799,1.798v18.787c0,0.993,0.806,1.799,1.799,1.799   h18.781c0.993,0,1.799-0.806,1.799-1.799V186.89C157.992,185.897,157.186,185.092,156.193,185.092z"/>
	<path style="fill:#64798A;" d="M156.193,221.094h-18.781c-0.993,0-1.799,0.805-1.799,1.798v18.787c0,0.993,0.806,1.799,1.799,1.799   h18.781c0.993,0,1.799-0.806,1.799-1.799v-18.787C157.992,221.898,157.186,221.094,156.193,221.094z"/>
	<path style="fill:#64798A;" d="M156.193,257.095h-18.781c-0.993,0-1.799,0.806-1.799,1.799v18.787c0,0.993,0.806,1.798,1.799,1.798   h18.781c0.993,0,1.799-0.805,1.799-1.798v-18.787C157.992,257.9,157.186,257.095,156.193,257.095z"/>
	<path style="fill:#64798A;" d="M186.325,185.092h-18.781c-0.993,0-1.799,0.805-1.799,1.798v18.787c0,0.993,0.806,1.799,1.799,1.799   h18.781c0.993,0,1.798-0.806,1.798-1.799V186.89C188.122,185.897,187.318,185.092,186.325,185.092z"/>
	<path style="fill:#64798A;" d="M186.325,221.094h-18.781c-0.993,0-1.799,0.805-1.799,1.798v18.787c0,0.993,0.806,1.799,1.799,1.799   h18.781c0.993,0,1.798-0.806,1.798-1.799v-18.787C188.122,221.898,187.318,221.094,186.325,221.094z"/>
	<path style="fill:#64798A;" d="M186.325,257.095h-18.781c-0.993,0-1.799,0.806-1.799,1.799v18.787c0,0.993,0.806,1.798,1.799,1.798   h18.781c0.993,0,1.798-0.805,1.798-1.798v-18.787C188.122,257.9,187.318,257.095,186.325,257.095z"/>
	<path style="fill:#64798A;" d="M216.456,185.092h-18.781c-0.993,0-1.799,0.805-1.799,1.798v18.787c0,0.993,0.806,1.799,1.799,1.799   h18.781c0.993,0,1.799-0.806,1.799-1.799V186.89C218.255,185.897,217.45,185.092,216.456,185.092z"/>
	<path style="fill:#64798A;" d="M216.456,221.094h-18.781c-0.993,0-1.799,0.805-1.799,1.798v18.787c0,0.993,0.806,1.799,1.799,1.799   h18.781c0.993,0,1.799-0.806,1.799-1.799v-18.787C218.255,221.898,217.45,221.094,216.456,221.094z"/>
	<path style="fill:#64798A;" d="M216.456,257.095h-18.781c-0.993,0-1.799,0.806-1.799,1.799v18.787c0,0.993,0.806,1.798,1.799,1.798   h18.781c0.993,0,1.799-0.805,1.799-1.798v-18.787C218.255,257.9,217.45,257.095,216.456,257.095z"/>
	<path style="fill:#64798A;" d="M246.588,185.092h-18.781c-0.993,0-1.798,0.805-1.798,1.798v18.787c0,0.993,0.805,1.799,1.798,1.799   h18.781c0.993,0,1.799-0.806,1.799-1.799V186.89C248.387,185.897,247.582,185.092,246.588,185.092z"/>
</g>
<g>
	<path style="fill:#E56353;" d="M246.588,221.094h-18.781c-0.993,0-1.798,0.805-1.798,1.798v54.789c0,0.993,0.805,1.798,1.798,1.798   h18.781c0.993,0,1.799-0.805,1.799-1.798v-54.789C248.387,221.898,247.582,221.094,246.588,221.094z"/>
	<path style="fill:#E56353;" d="M186.325,161.299h-18.781c-0.993,0-1.799,0.806-1.799,1.799v9.708c0,0.993,0.806,1.798,1.799,1.798   h18.781c0.993,0,1.798-0.805,1.798-1.798v-9.708C188.122,162.105,187.318,161.299,186.325,161.299z"/>
</g>
<path style="fill:#44C4A1;" d="M216.456,161.299h-18.781c-0.993,0-1.799,0.806-1.799,1.799v9.708c0,0.993,0.806,1.798,1.799,1.798  h18.781c0.993,0,1.799-0.805,1.799-1.798v-9.708C218.255,162.105,217.45,161.299,216.456,161.299z"/>
<path style="fill:#27A2DB;" d="M246.588,161.299h-18.781c-0.993,0-1.798,0.806-1.798,1.799v9.708c0,0.993,0.805,1.798,1.798,1.798  h18.781c0.993,0,1.799-0.805,1.799-1.798v-9.708C248.387,162.105,247.582,161.299,246.588,161.299z"/>
<g>
</g>
<g>
</g>
<g>
</g>
<g>
</g>
<g>
</g>
<g>
</g>
<g>
</g>
<g>
</g>
<g>
</g>
<g>
</g>
<g>
</g>
<g>
</g>
<g>
</g>
<g>
</g>
<g>
</g>
</svg>
