<?xml version="1.0" encoding="iso-8859-1"?>
<!-- Generator: Adobe Illustrator 19.0.0, SVG Export Plug-In . SVG Version: 6.00 Build 0)  -->
<svg xmlns="http://www.w3.org/2000/svg" xmlns:xlink="http://www.w3.org/1999/xlink" version="1.1" id="Capa_1" x="0px" y="0px" viewBox="0 0 384 384" style="enable-background:new 0 0 384 384;" xml:space="preserve">
<circle style="fill:#334D5C;" cx="192" cy="192" r="192"/>
<path style="opacity:0.1;enable-background:new    ;" d="M384,192c0-0.376-0.026-0.744-0.028-1.119L290.4,97.31  c-8.36-9.4-20.56-15.32-34.12-15.32H127.72c-25.24,0-45.72,20.48-45.72,45.72c0,11.08,3.96,21.24,10.52,29.16  c1.84,2.24,3.88,4.28,6.12,6.12l47.56,47.56h-18.48c-25.24,0-45.72,20.481-45.72,45.72c0,11.08,4,21.24,10.56,29.16h-0.04l0.36,0.36  c1.76,2.08,3.64,4.04,5.76,5.76l92.395,92.426c0.323,0.002,0.642,0.024,0.965,0.024C298.039,384,384,298.039,384,192z"/>
<path style="fill:#FFFFFF;" d="M127.716,210.569h128.568c25.249,0,45.716,20.467,45.716,45.715C302,281.533,281.533,302,256.284,302  H127.716C102.467,302,82,281.533,82,256.284C82,231.036,102.467,210.569,127.716,210.569z"/>
<path style="fill:#EBF0F3;" d="M256.283,286c16.386,0,29.718-13.33,29.718-29.715c0-16.387-13.332-29.717-29.718-29.717H127.716  c-16.387,0-29.715,13.33-29.715,29.717c0,16.385,13.328,29.715,29.715,29.715H256.283z"/>
<path style="fill:#64798A;" d="M98,256.285c0,16.385,13.33,29.714,29.715,29.715V226.57C111.331,226.57,98,239.9,98,256.285z"/>
<path style="fill:#3A556A;" d="M127.717,226.569l-0.002,0.001V286l0.002,0.001c16.381,0,29.711-13.33,29.711-29.716  C157.428,239.898,144.098,226.569,127.717,226.569z"/>
<path style="fill:#FFFFFF;" d="M256.284,82H127.716C102.467,82,82,102.467,82,127.715c0,25.248,20.467,45.716,45.716,45.716h128.568  c25.249,0,45.716-20.468,45.716-45.716C302,102.467,281.533,82,256.284,82z"/>
<path style="fill:#EBF0F3;" d="M127.717,157.431c-16.386,0-29.718-13.33-29.718-29.715c0-16.386,13.332-29.717,29.718-29.717  h128.566c16.387,0,29.715,13.33,29.715,29.717c0,16.385-13.328,29.715-29.715,29.715H127.717z"/>
<path style="fill:#D15241;" d="M256.282,98c-16.381,0-29.711,13.33-29.711,29.716s13.33,29.716,29.711,29.716h0.004V98H256.282z"/>
<path style="fill:#E56353;" d="M285.999,127.716c0-16.385-13.328-29.714-29.713-29.716v59.432  C272.67,157.43,285.999,144.102,285.999,127.716z"/>
<g>
</g>
<g>
</g>
<g>
</g>
<g>
</g>
<g>
</g>
<g>
</g>
<g>
</g>
<g>
</g>
<g>
</g>
<g>
</g>
<g>
</g>
<g>
</g>
<g>
</g>
<g>
</g>
<g>
</g>
</svg>
