<?xml version="1.0" encoding="iso-8859-1"?>
<!-- Generator: Adobe Illustrator 19.0.0, SVG Export Plug-In . SVG Version: 6.00 Build 0)  -->
<svg xmlns="http://www.w3.org/2000/svg" xmlns:xlink="http://www.w3.org/1999/xlink" version="1.1" id="Capa_1" x="0px" y="0px" viewBox="0 0 384 384" style="enable-background:new 0 0 384 384;" xml:space="preserve">
<circle style="fill:#EFC84A;" cx="192" cy="192" r="192"/>
<path style="opacity:0.1;enable-background:new    ;" d="M207.88,83.397L207,82.518c-0.56-0.4-1.28-0.6-2-0.48  c-17.8,2.32-24.68,18.56-26.44,30c-2.84-0.8-5.68-1.28-8.64-1.32l-20.96-20.96c-3.96-3.92-9.16-6.84-15.96-7.72  c-1.6-0.24-3.08,0.92-3.28,2.52c-0.16,1.08,0.28,2.08,1.08,2.721l0.12,0.08l21.96,21.959c0.44,1.841,0.72,3.481,0.88,4.801  c-7.16,3.28-13.8,8.76-19.6,16.04c-0.68,0.64-1.4,1.2-2.04,1.84c-7,7-11.96,15.2-14.96,23.96l-3.24-3.2l-0.04-0.04  c-0.16-0.199-0.36-0.359-0.6-0.519l-16.04-10.12c-1.36-0.88-3.2-0.48-4.04,0.92c-0.68,1.08-0.6,2.4,0.16,3.36l0.04,0.039l0.32,0.32  l20.6,20.561c-2.76,8.68-4.32,18.119-4.32,28.039c0,1.08,0.08,2.121,0.12,3.16l-11.8,5.4l-12.96-1.92c-1.6-0.24-3.08,0.88-3.32,2.52  c-0.12,0.801,0.12,1.56,0.56,2.16l0.64,0.641l29.24,29.24c-3.6,6.52-2.84,14.92-2,19.52c-5.88,1.56-11.08,6.4-11.76,7.04  c-1.16,1.12-1.2,2.96-0.08,4.16l115.428,115.462c75.864-8.687,138.274-61.558,160.846-132.262L208,83.557L207.88,83.397z"/>
<g>
	<path style="fill:#2F4859;" d="M119.304,173.046c0.438,0,0.882-0.098,1.303-0.305c1.458-0.721,2.058-2.489,1.337-3.949   l-7.588-15.393c-0.24-0.487-0.608-0.898-1.066-1.188l-16.036-10.148c-1.376-0.87-3.196-0.46-4.065,0.917   c-0.871,1.376-0.46,3.198,0.915,4.069l15.336,9.703l7.222,14.649C117.174,172.442,118.219,173.046,119.304,173.046z"/>
	<path style="fill:#2F4859;" d="M98.743,209.871c0.42,0,0.838-0.09,1.224-0.266l13.796-6.303c1.481-0.677,2.133-2.426,1.456-3.908   c-0.675-1.48-2.419-2.13-3.904-1.458l-13.004,5.942l-12.935-1.904c-1.615-0.252-3.107,0.876-3.345,2.488   c-0.236,1.611,0.876,3.109,2.486,3.346l13.796,2.031C98.457,209.86,98.599,209.871,98.743,209.871z"/>
	<path style="fill:#2F4859;" d="M100.767,268.156c0.727,0,1.456-0.268,2.026-0.807c1.74-1.647,7.149-5.922,11.25-5.922   c0.925,0,1.796-0.434,2.352-1.173c0.558-0.739,0.734-1.696,0.481-2.586c-0.048-0.167-4.719-17.14,4.782-22.315   c1.429-0.778,1.958-2.568,1.18-3.999c-0.775-1.43-2.568-1.959-3.996-1.18c-10.564,5.752-9.495,19.525-8.358,25.858   c-5.872,1.582-11.074,6.396-11.751,7.04c-1.178,1.121-1.224,2.984-0.106,4.165C99.207,267.847,99.986,268.156,100.767,268.156z"/>
	<path style="fill:#2F4859;" d="M218.061,173.046c-0.438,0-0.882-0.098-1.302-0.305c-1.458-0.721-2.058-2.489-1.337-3.949   l7.588-15.393c0.24-0.487,0.608-0.898,1.067-1.188l16.036-10.148c1.375-0.87,3.196-0.46,4.064,0.917   c0.871,1.376,0.46,3.198-0.915,4.069l-15.336,9.703l-7.222,14.649C220.192,172.442,219.146,173.046,218.061,173.046z"/>
	<path style="fill:#2F4859;" d="M238.622,209.871c-0.42,0-0.838-0.09-1.224-0.266l-13.796-6.303   c-1.481-0.677-2.133-2.426-1.456-3.908c0.675-1.48,2.419-2.13,3.904-1.458l13.004,5.942l12.935-1.904   c1.615-0.252,3.108,0.876,3.345,2.488c0.236,1.611-0.876,3.109-2.486,3.346l-13.796,2.031   C238.908,209.86,238.766,209.871,238.622,209.871z"/>
	<path style="fill:#2F4859;" d="M236.598,268.156c-0.727,0-1.456-0.268-2.026-0.807c-1.74-1.647-7.149-5.922-11.25-5.922   c-0.925,0-1.796-0.434-2.352-1.173c-0.558-0.739-0.735-1.696-0.482-2.586c0.048-0.167,4.719-17.14-4.782-22.315   c-1.429-0.778-1.959-2.568-1.18-3.999c0.775-1.43,2.569-1.959,3.996-1.18c10.564,5.752,9.495,19.525,8.358,25.858   c5.872,1.582,11.074,6.396,11.751,7.04c1.178,1.121,1.224,2.984,0.106,4.165C238.158,267.847,237.379,268.156,236.598,268.156z"/>
	<path style="fill:#2F4859;" d="M181.038,120.069c-0.029,0-0.056-0.001-0.082-0.001c-1.627-0.045-2.908-1.397-2.864-3.024   c0.286-10.922,6.278-32.296,26.911-35.02c1.613-0.21,3.094,0.923,3.307,2.538c0.213,1.615-0.922,3.097-2.536,3.31   c-20.782,2.742-21.76,28.247-21.793,29.332C183.934,118.802,182.626,120.069,181.038,120.069z"/>
	<path style="fill:#2F4859;" d="M156.979,120.071c-1.59,0-2.898-1.268-2.942-2.867l0,0c-0.033-1.085-1.009-26.589-21.791-29.332   c-1.613-0.213-2.749-1.695-2.536-3.31c0.213-1.613,1.7-2.749,3.307-2.538c20.632,2.724,26.625,24.098,26.909,35.02   c0.044,1.628-1.241,2.982-2.868,3.024C157.033,120.071,157.006,120.071,156.979,120.071z"/>
</g>
<path style="fill:#E56353;" d="M123.005,148.314C114.876,161.185,110,177.528,110,195.328c0,41.482,26.419,75.109,59.009,75.109  c32.59,0,59.008-33.628,59.008-75.109c0-17.8-4.875-34.144-13.004-47.015H123.005z"/>
<g>
	<path style="fill:#3A556A;" d="M169.01,110.688c-18.606,0-35.19,14.692-46.004,37.625h92.008   C204.198,125.381,187.615,110.688,169.01,110.688z"/>
	<path style="fill:#3A556A;" d="M162.75,270.013c2.057,0.276,4.145,0.424,6.26,0.424c2.115,0,4.202-0.148,6.259-0.424l-6.259-93.106   L162.75,270.013z"/>
	<circle style="fill:#3A556A;" cx="198.76" cy="162.948" r="1.916"/>
	<circle style="fill:#3A556A;" cx="188.8" cy="203.068" r="3.704"/>
	<circle style="fill:#3A556A;" cx="215.092" cy="189.28" r="3.96"/>
	<circle style="fill:#3A556A;" cx="200.52" cy="229.4" r="5.732"/>
	<circle style="fill:#3A556A;" cx="136.96" cy="221.72" r="3.192"/>
	<circle style="fill:#3A556A;" cx="125.08" cy="192.48" r="5.364"/>
	<circle style="fill:#3A556A;" cx="145.24" cy="164.08" r="3.064"/>
	<circle style="fill:#3A556A;" cx="152.08" cy="193.04" r="3.768"/>
	<circle style="fill:#3A556A;" cx="176.48" cy="164.88" r="3.768"/>
	<circle style="fill:#3A556A;" cx="142.252" cy="243.892" r="3.64"/>
</g>
<circle style="fill:#2F4859;" cx="151.644" cy="129.6" r="6.46"/>
<circle style="fill:#64798A;" cx="151.644" cy="129.6" r="3.932"/>
<circle style="fill:#2F4859;" cx="186.36" cy="129.6" r="6.46"/>
<circle style="fill:#64798A;" cx="186.36" cy="129.6" r="3.932"/>
<path style="fill:#3A556A;" d="M141.132,141.006c-19.818,19.834-19.818,51.99,0,71.824c19.818,19.834,51.95,19.834,71.768,0  c19.818-19.834,19.818-51.991,0-71.824C193.082,121.172,160.95,121.172,141.132,141.006z M210.062,209.989  c-18.25,18.265-47.84,18.265-66.091,0s-18.251-47.878,0-66.142c18.25-18.264,47.84-18.264,66.091,0  C228.312,162.112,228.312,191.724,210.062,209.989z"/>
<path style="opacity:0.35;fill:#FFFFFF;enable-background:new    ;" d="M143.971,143.847c-18.251,18.265-18.25,47.878,0,66.142  s47.84,18.265,66.091,0c18.251-18.265,18.251-47.878,0-66.142C191.811,125.582,162.221,125.582,143.971,143.847z"/>
<path style="fill:#64798A;" d="M221.906,131.994c-24.792-24.811-64.987-24.811-89.779,0c-24.792,24.811-24.792,65.038,0,89.849  c22.354,22.372,57.198,24.5,82.015,6.527l13.657,13.668l14.286-14.297l-13.657-13.669  C246.387,189.236,244.261,154.366,221.906,131.994z M212.9,212.83c-19.818,19.834-51.95,19.834-71.768,0  c-19.818-19.834-19.818-51.991,0-71.824c19.818-19.834,51.95-19.834,71.769,0C232.719,160.84,232.719,192.996,212.9,212.83z"/>
<path style="fill:#3A556A;" d="M218.213,244.131l57.403,57.448c4.014,4.018,29.979-21.967,25.964-25.984l-57.402-57.448  C240.162,214.129,214.198,240.114,218.213,244.131z"/>
<g>
	
		<rect x="218.619" y="233.534" transform="matrix(-0.7068 0.7074 -0.7074 -0.7068 572.0676 236.6988)" style="fill:#FCD462;" width="36.732" height="6.72"/>
	
		<rect x="264.446" y="279.452" transform="matrix(-0.7068 0.7074 -0.7074 -0.7068 682.7689 282.6618)" style="fill:#FCD462;" width="36.732" height="6.72"/>
</g>
<g>
</g>
<g>
</g>
<g>
</g>
<g>
</g>
<g>
</g>
<g>
</g>
<g>
</g>
<g>
</g>
<g>
</g>
<g>
</g>
<g>
</g>
<g>
</g>
<g>
</g>
<g>
</g>
<g>
</g>
</svg>
