<?xml version="1.0" encoding="iso-8859-1"?>
<!-- Generator: Adobe Illustrator 19.0.0, SVG Export Plug-In . SVG Version: 6.00 Build 0)  -->
<svg xmlns="http://www.w3.org/2000/svg" xmlns:xlink="http://www.w3.org/1999/xlink" version="1.1" id="Capa_1" x="0px" y="0px" viewBox="0 0 384 384" style="enable-background:new 0 0 384 384;" xml:space="preserve">
<circle style="fill:#EA8953;" cx="192" cy="192" r="192"/>
<path style="opacity:0.1;enable-background:new    ;" d="M380.888,226.278L260.8,106.19c-14.76-14.96-35.28-24.2-57.92-24.2  c-42.48,0-77.36,32.52-81.16,74c-0.16,1.72-0.84,3.4-2.16,4.52c-2,1.72-3.2,3.76-3.2,6c0,1.72,0.72,3.4,2,4.84  c1.96,2.2,2.52,5.36,1.12,7.96l-19.08,35.84c-1.72,3.2-0.48,6.88,2.2,8.64l17.32,17.32c-0.72,1.64-1.84,3.2-3.56,4.6  c0,0-1.64,2.12,0,3.96l0.4,0.4l2.76,2.76c-2.12,1.24-5.08,3.48-3.16,5.4l5.76,5.76l-1.56,5.48c-1.12,4,0.36,7.88,3.2,10.28  l0.16,0.12l101.221,101.222C304.225,367.323,366.656,305.202,380.888,226.278z"/>
<path style="fill:#FCD462;" d="M269.226,241.273c-1.123-4.391-0.7-9.022,1.176-13.148c9.262-20.372,13.975-44.421,13.975-64.631  c0-45.008-36.486-81.494-81.493-81.494c-42.476,0-77.355,32.496-81.147,73.982c-0.158,1.724-0.849,3.399-2.168,4.521  c-2.015,1.716-3.198,3.778-3.198,6.002c0,1.743,0.724,3.387,2.008,4.843c1.958,2.22,2.491,5.349,1.1,7.962l-19.07,35.842  c-2.351,4.42,0.851,9.753,5.859,9.753h7.465c2.922,0,5.511,1.896,6.351,4.692c1.367,4.55,2.071,11.428-3.713,16.1  c0,0-3.585,4.66,5.02,6.095c0,0-7.887,3.585-5.02,6.452c0,0,3.945,0.359,6.454,3.226l-2.25,7.999  c-1.956,6.954,3.985,13.58,11.111,12.392l25.786-4.298c10.644-1.774,20.764,5.254,22.821,15.847l1.666,8.588l93.872-34.886  L269.226,241.273z"/>
<path style="fill:#E56353;" d="M190.267,187.586c2.04-1.329,3.95-2.932,5.674-4.807c1.724-1.875,3.159-3.913,4.312-6.058l6.119,0.11  c0.986,0.018,1.848-0.661,2.063-1.623l2.069-9.266c0.215-0.962-0.277-1.943-1.176-2.346l-5.596-2.51  c-0.262-4.915-1.739-9.765-4.408-14.068l3.158-5.251c0.509-0.845,0.352-1.931-0.374-2.598l-6.99-6.425  c-0.726-0.667-1.822-0.732-2.62-0.154l-4.967,3.589c-4.512-2.297-9.469-3.361-14.388-3.209l-2.972-5.366  c-0.478-0.862-1.496-1.27-2.437-0.975l-9.059,2.841c-0.941,0.295-1.545,1.211-1.444,2.193l0.623,6.087  c-2.04,1.329-3.95,2.932-5.673,4.807s-3.16,3.913-4.312,6.058l-6.118-0.11c-0.986-0.018-1.849,0.661-2.063,1.623l-2.069,9.266  c-0.215,0.962,0.277,1.943,1.177,2.346l5.596,2.509c0.262,4.915,1.739,9.765,4.408,14.068l-3.158,5.252  c-0.508,0.845-0.352,1.931,0.374,2.598l6.99,6.425c0.726,0.667,1.821,0.732,2.62,0.154l4.967-3.589  c4.512,2.297,9.469,3.361,14.389,3.209l2.971,5.365c0.478,0.863,1.496,1.27,2.437,0.975l9.059-2.841  c0.941-0.295,1.545-1.211,1.444-2.192L190.267,187.586z M158.92,179.142c-9.083-8.348-9.681-22.53-1.332-31.614  c8.349-9.083,22.53-9.68,31.614-1.332c9.083,8.348,9.681,22.53,1.332,31.613C182.184,186.893,168.002,187.49,158.92,179.142z"/>
<g>
	<path style="fill:#D15241;" d="M189.201,146.196c-9.083-8.348-23.265-7.751-31.614,1.332c-8.349,9.083-7.751,23.265,1.332,31.614   c9.083,8.348,23.265,7.751,31.614-1.332C198.882,168.726,198.284,154.544,189.201,146.196z M160.605,177.307   c-8.072-7.419-8.602-20.021-1.184-28.093c7.419-8.072,20.021-8.603,28.093-1.184c8.071,7.419,8.602,20.021,1.184,28.092   C181.28,184.194,168.677,184.726,160.605,177.307z"/>
	<ellipse style="fill:#D15241;" cx="174.044" cy="162.692" rx="10.644" ry="10.644"/>
</g>
<path style="fill:#44C4A1;" d="M240.608,144.172c1.579-1.029,3.057-2.269,4.391-3.72c1.334-1.452,2.446-3.029,3.338-4.689  l4.736,0.085c0.764,0.014,1.431-0.512,1.597-1.256l1.601-7.172c0.166-0.745-0.214-1.504-0.911-1.816l-4.332-1.942  c-0.203-3.804-1.346-7.558-3.412-10.888l2.444-4.065c0.394-0.654,0.272-1.494-0.289-2.011l-5.41-4.973  c-0.562-0.517-1.41-0.567-2.028-0.119l-3.844,2.777c-3.492-1.778-7.329-2.602-11.137-2.483l-2.3-4.153  c-0.37-0.668-1.158-0.983-1.886-0.754l-7.012,2.199c-0.728,0.228-1.196,0.938-1.117,1.697l0.482,4.712  c-1.579,1.029-3.057,2.269-4.391,3.72c-1.334,1.452-2.446,3.028-3.338,4.689l-4.736-0.085c-0.763-0.014-1.431,0.512-1.597,1.256  l-1.602,7.172c-0.166,0.745,0.214,1.504,0.911,1.816l4.332,1.942c0.203,3.804,1.346,7.558,3.412,10.888l-2.444,4.064  c-0.393,0.654-0.272,1.495,0.29,2.011l5.41,4.973c0.562,0.517,1.41,0.566,2.028,0.119l3.844-2.778  c3.492,1.778,7.329,2.602,11.137,2.484l2.3,4.153c0.37,0.668,1.158,0.983,1.886,0.755l7.012-2.199  c0.728-0.228,1.196-0.938,1.118-1.697L240.608,144.172z M216.345,137.635c-7.03-6.462-7.493-17.438-1.031-24.469  c6.462-7.031,17.439-7.493,24.469-1.031c7.03,6.462,7.493,17.438,1.031,24.469C234.352,143.635,223.375,144.097,216.345,137.635z"/>
<g>
	<path style="fill:#3EA69B;" d="M239.783,112.135c-7.03-6.462-18.007-6-24.469,1.031c-6.462,7.03-5.999,18.007,1.031,24.469   c7.03,6.462,18.007,6,24.469-1.031C247.276,129.574,246.813,118.597,239.783,112.135z M217.65,136.216   c-6.247-5.742-6.658-15.497-0.916-21.744c5.742-6.248,15.496-6.659,21.744-0.916c6.247,5.742,6.658,15.496,0.916,21.744   C233.651,141.546,223.897,141.958,217.65,136.216z"/>
	<ellipse style="fill:#3EA69B;" cx="228.071" cy="124.848" rx="8.24" ry="8.24"/>
</g>
<path style="fill:#27A2DB;" d="M243.468,212.042c1.579-1.029,3.057-2.269,4.391-3.72c1.334-1.452,2.446-3.028,3.338-4.689  l4.736,0.085c0.764,0.014,1.431-0.512,1.597-1.256l1.601-7.172c0.166-0.745-0.214-1.504-0.911-1.816l-4.332-1.942  c-0.202-3.804-1.346-7.558-3.412-10.888l2.444-4.064c0.394-0.654,0.272-1.495-0.29-2.011l-5.41-4.973  c-0.562-0.516-1.409-0.566-2.028-0.119l-3.845,2.778c-3.492-1.778-7.329-2.602-11.137-2.484l-2.3-4.153  c-0.37-0.668-1.158-0.983-1.886-0.754l-7.012,2.199c-0.728,0.228-1.196,0.938-1.117,1.697l0.482,4.712  c-1.579,1.029-3.057,2.269-4.391,3.72c-1.334,1.452-2.446,3.029-3.338,4.689l-4.736-0.084c-0.764-0.014-1.431,0.511-1.597,1.256  l-1.602,7.172c-0.167,0.745,0.214,1.504,0.911,1.816l4.332,1.942c0.203,3.804,1.346,7.558,3.412,10.888l-2.444,4.065  c-0.393,0.654-0.272,1.494,0.29,2.011l5.41,4.973c0.562,0.516,1.41,0.566,2.028,0.119l3.844-2.778  c3.492,1.778,7.329,2.601,11.137,2.483l2.3,4.153c0.37,0.668,1.158,0.983,1.886,0.754l7.012-2.199  c0.728-0.228,1.196-0.938,1.118-1.697L243.468,212.042z M219.205,205.506c-7.03-6.462-7.493-17.439-1.031-24.469  c6.462-7.03,17.439-7.493,24.469-1.031c7.03,6.462,7.493,17.439,1.031,24.469C237.212,211.505,226.235,211.967,219.205,205.506z"/>
<g>
	<path style="fill:#2D93BA;" d="M242.643,180.005c-7.03-6.462-18.007-5.999-24.469,1.031c-6.462,7.03-5.999,18.007,1.031,24.469   c7.03,6.462,18.007,5.999,24.469-1.031C250.136,197.444,249.673,186.467,242.643,180.005z M220.51,204.086   c-6.247-5.742-6.658-15.496-0.916-21.744c5.742-6.247,15.496-6.658,21.744-0.916c6.247,5.742,6.658,15.496,0.916,21.744   C236.512,209.416,226.758,209.828,220.51,204.086z"/>
	<ellipse style="fill:#2D93BA;" cx="230.926" cy="192.772" rx="8.24" ry="8.24"/>
</g>
<g>
</g>
<g>
</g>
<g>
</g>
<g>
</g>
<g>
</g>
<g>
</g>
<g>
</g>
<g>
</g>
<g>
</g>
<g>
</g>
<g>
</g>
<g>
</g>
<g>
</g>
<g>
</g>
<g>
</g>
</svg>
