<?xml version="1.0" encoding="iso-8859-1"?>
<!-- Generator: Adobe Illustrator 19.0.0, SVG Export Plug-In . SVG Version: 6.00 Build 0)  -->
<svg xmlns="http://www.w3.org/2000/svg" xmlns:xlink="http://www.w3.org/1999/xlink" version="1.1" id="Capa_1" x="0px" y="0px" viewBox="0 0 384 384" style="enable-background:new 0 0 384 384;" xml:space="preserve">
<circle style="fill:#E05B49;" cx="192" cy="192" r="192"/>
<path style="opacity:0.1;enable-background:new    ;" d="M381.038,225.438L269.8,114.2h-27.32v6l8.56,8.56l-6.16,6.12l-33.56-33.56  L192,82l-19.32,19.32l4.24,4.24L189,117.64v4.76l11.28,11.28c-0.04,0-0.04,0-0.08,0l-0.84,5.92l27.56,27.56l-1.76-0.72l-33.32-33.32  c-2.8,0-5.64,0.2-8.4,0.6l0.88,5.96l16.96,16.96l-8.32-3.4l-17.72-17.72c-2.68,0.8-5.32,1.8-7.84,2.96l1.36,2.96l-27.24-27.24H114.2  v27.32l27.76,27.76l-3.6-1.64c-1.16,2.56-2.12,5.2-2.92,7.88l18.76,18.76v4.56l-1.96-1.64l-12.6-12.6l-5.96-0.84  c-0.36,2.72-0.56,5.48-0.56,8.24v0.12l21.08,21.08v1l-14.56-14.56l-5.76,0.84L122.4,189h-4.76l-12.08-12.08l-4.24-4.24L82,192  l19.32,19.32l33.56,33.56l-6.16,6.12l-8.52-8.52h-6v27.32l111.238,111.238C304.662,367.117,367.117,304.661,381.038,225.438z"/>
<polygon style="fill:#F6C358;" points="154.18,168.366 154.18,215.634 192,231.173 192,183.906 "/>
<polygon style="fill:#DC8744;" points="192,183.906 192,183.906 192,231.173 192,231.173 229.82,215.634 229.82,168.366 "/>
<polygon style="fill:#FCD462;" points="192,183.906 229.82,168.366 192,152.827 154.18,168.366 192,183.906 "/>
<g>
	<path style="fill:#3A556A;" d="M192.064,250.89l-0.008-6c2.523-0.002,5.054-0.184,7.527-0.537l0.852,5.938   C197.682,250.687,194.865,250.888,192.064,250.89z M183.686,250.31c-2.762-0.393-5.524-0.986-8.207-1.768l1.68-5.762   c2.406,0.703,4.886,1.236,7.371,1.588L183.686,250.31z M208.642,248.509l-1.695-5.758c2.406-0.707,4.781-1.596,7.062-2.64   l2.5,5.453C213.967,246.73,211.322,247.72,208.642,248.509z M167.592,245.613c-2.55-1.164-5.031-2.518-7.375-4.026l3.242-5.047   c2.106,1.354,4.332,2.568,6.625,3.611L167.592,245.613z M223.873,241.529l-3.25-5.043c2.102-1.353,4.133-2.877,6.027-4.525   l3.938,4.531C228.475,238.326,226.213,240.021,223.873,241.529z M153.49,236.562c-2.117-1.83-4.117-3.824-5.949-5.93l4.531-3.938   c1.644,1.892,3.441,3.686,5.34,5.328L153.49,236.562z M236.518,230.554l-4.531-3.934c1.644-1.892,3.168-3.924,4.523-6.035   l5.047,3.246C240.045,226.183,238.35,228.445,236.518,230.554z M142.502,223.923c-1.524-2.359-2.883-4.834-4.043-7.359l5.453-2.504   c1.039,2.266,2.262,4.488,3.629,6.606L142.502,223.923z M245.592,216.46l-5.461-2.488c1.047-2.289,1.934-4.67,2.637-7.074   l5.758,1.687C247.74,211.263,246.752,213.914,245.592,216.46z M135.51,208.699c-0.789-2.672-1.39-5.434-1.789-8.207l5.938-0.856   c0.359,2.488,0.898,4.967,1.609,7.364L135.51,208.699z M250.299,200.372l-5.938-0.852c0.352-2.467,0.531-4.998,0.531-7.521   l4.719-0.18l1.278,0.035C250.892,194.806,250.693,197.622,250.299,200.372z M133.108,192.115V192c0-2.756,0.195-5.532,0.574-8.254   l5.945,0.836c-0.344,2.445-0.519,4.941-0.519,7.418L133.108,192.115z M244.334,184.259c-0.363-2.482-0.91-4.959-1.625-7.363   l5.75-1.711c0.797,2.678,1.406,5.438,1.813,8.203L244.334,184.259z M141.201,177.208l-5.758-1.68   c0.778-2.672,1.758-5.322,2.914-7.877l5.468,2.477C142.783,172.425,141.9,174.806,141.201,177.208z M240.041,169.837   c-1.047-2.266-2.274-4.484-3.641-6.596l5.031-3.266c1.527,2.35,2.891,4.822,4.055,7.35L240.041,169.837z M147.428,163.503   l-5.054-3.234c1.504-2.348,3.195-4.613,5.019-6.732l4.547,3.918C150.295,159.361,148.779,161.396,147.428,163.503z    M231.858,157.224c-1.652-1.887-3.453-3.676-5.356-5.316l3.914-4.547c2.121,1.826,4.125,3.816,5.957,5.918L231.858,157.224z    M157.268,152.111l-3.945-4.524c2.109-1.836,4.363-3.537,6.707-5.053l3.258,5.035C161.186,148.933,159.158,150.46,157.268,152.111z    M220.44,147.4c-2.117-1.354-4.348-2.565-6.625-3.598l2.477-5.465c2.539,1.15,5.023,2.5,7.383,4.008L220.44,147.4z    M169.889,143.933l-2.508-5.45c2.539-1.172,5.184-2.166,7.86-2.959l1.703,5.754C174.545,141.99,172.17,142.882,169.889,143.933z    M206.736,141.187c-2.402-0.695-4.883-1.224-7.371-1.572l0.828-5.942c2.77,0.385,5.535,0.975,8.215,1.752L206.736,141.187z    M184.31,139.662l-0.859-5.938c2.754-0.4,5.57-0.607,8.371-0.615l0.016,6C189.322,139.117,186.791,139.302,184.31,139.662z"/>
	<polygon style="fill:#3A556A;" points="211.303,101.304 192.002,82 172.697,101.304 176.94,105.547 189.002,93.484 189.002,122.39    195.002,122.39 195.002,93.485 207.06,105.547  "/>
	<polygon style="fill:#3A556A;" points="172.697,282.696 191.998,302 211.303,282.696 207.06,278.453 194.998,290.516    194.998,261.61 188.998,261.61 188.998,290.515 176.94,278.453  "/>
	<polygon style="fill:#3A556A;" points="282.696,211.303 302,192.002 282.696,172.697 278.453,176.94 290.516,189.002    261.61,189.002 261.61,195.002 290.515,195.002 278.453,207.06  "/>
	<polygon style="fill:#3A556A;" points="101.304,172.697 82,191.998 101.304,211.303 105.547,207.06 93.484,194.998 122.39,194.998    122.39,188.998 93.485,188.998 105.547,176.94  "/>
	<polygon style="fill:#3A556A;" points="269.78,141.518 269.783,114.22 242.482,114.22 242.482,120.219 259.541,120.219    239.102,140.658 243.344,144.901 263.783,124.462 263.781,141.518  "/>
	<polygon style="fill:#3A556A;" points="114.22,242.482 114.217,269.78 141.518,269.78 141.518,263.781 124.459,263.781    144.898,243.342 140.656,239.099 120.217,259.538 120.219,242.482  "/>
	<polygon style="fill:#3A556A;" points="242.482,269.78 269.78,269.783 269.78,242.482 263.781,242.482 263.781,259.541    243.342,239.102 239.099,243.344 259.538,263.783 242.482,263.781  "/>
	<polygon style="fill:#3A556A;" points="141.518,114.22 114.22,114.217 114.22,141.518 120.219,141.518 120.219,124.459    140.658,144.898 144.901,140.656 124.462,120.217 141.518,120.219  "/>
</g>
<g>
</g>
<g>
</g>
<g>
</g>
<g>
</g>
<g>
</g>
<g>
</g>
<g>
</g>
<g>
</g>
<g>
</g>
<g>
</g>
<g>
</g>
<g>
</g>
<g>
</g>
<g>
</g>
<g>
</g>
</svg>
