<?xml version="1.0" encoding="iso-8859-1"?>
<!-- Generator: Adobe Illustrator 19.0.0, SVG Export Plug-In . SVG Version: 6.00 Build 0)  -->
<svg xmlns="http://www.w3.org/2000/svg" xmlns:xlink="http://www.w3.org/1999/xlink" version="1.1" id="Capa_1" x="0px" y="0px" viewBox="0 0 384 384" style="enable-background:new 0 0 384 384;" xml:space="preserve">
<circle style="fill:#334D5C;" cx="192" cy="192" r="192"/>
<path style="opacity:0.1;enable-background:new    ;" d="M256.32,85.238c-1.84-2-4.44-3.24-7.36-3.24H124  c-8.64,0-15.64,7-15.64,15.64v188.721c0,4.359,1.8,8.279,4.68,11.08l-0.04,0.039l86.338,86.338  c95.964-3.612,173.91-77.61,183.633-171.887L256.68,85.637L256.32,85.238z"/>
<path style="fill:#DC8744;" d="M248.958,82h-124.94c-8.642,0-15.648,7.006-15.648,15.649v188.703  c0,8.642,7.006,15.648,15.648,15.648V113.296l0,0h134.93V91.991C258.949,86.473,254.476,82,248.958,82z"/>
<path style="fill:#FFFFFF;" d="M241.706,87.469H126.724c-7.132,0-12.913,5.782-12.913,12.914c0,7.132,5.781,12.913,12.913,12.913  H249.95V95.714C249.95,91.16,246.259,87.469,241.706,87.469z"/>
<rect x="124" y="113.28" style="fill:#F6C358;" width="10.776" height="188.72"/>
<path style="fill:#FCD462;" d="M265.639,113.296H134.794V302h130.845c5.517,0,9.99-4.473,9.99-9.99V123.287  C275.629,117.77,271.156,113.296,265.639,113.296z"/>
<g>
	<rect x="167.756" y="252.08" style="fill:#DC8744;" width="74.908" height="4.168"/>
	<rect x="167.756" y="269.24" style="fill:#DC8744;" width="74.908" height="4.168"/>
</g>
<circle style="fill:#FFFFFF;" cx="205.2" cy="185.4" r="36.52"/>
<polygon style="fill:#44C4A1;" points="194.49,179.33 194.49,209.983 215.934,209.983 215.934,179.33 223.763,179.33   205.212,160.779 186.66,179.33 "/>
<g>
</g>
<g>
</g>
<g>
</g>
<g>
</g>
<g>
</g>
<g>
</g>
<g>
</g>
<g>
</g>
<g>
</g>
<g>
</g>
<g>
</g>
<g>
</g>
<g>
</g>
<g>
</g>
<g>
</g>
</svg>
