<?xml version="1.0" encoding="iso-8859-1"?>
<!-- Generator: Adobe Illustrator 19.0.0, SVG Export Plug-In . SVG Version: 6.00 Build 0)  -->
<svg xmlns="http://www.w3.org/2000/svg" xmlns:xlink="http://www.w3.org/1999/xlink" version="1.1" id="Capa_1" x="0px" y="0px" viewBox="0 0 384 384" style="enable-background:new 0 0 384 384;" xml:space="preserve">
<circle style="fill:#E05B49;" cx="192" cy="192" r="192"/>
<path style="opacity:0.1;enable-background:new    ;" d="M256.32,85.278l-0.004,0.003c-1.832-2.013-4.42-3.283-7.356-3.283H124  c-8.64,0-15.64,7-15.64,15.64v188.721c0,3.959,1.48,7.6,3.96,10.319l-0.04,0.04l0.68,0.68l86.447,86.416  c95.933-3.645,173.843-77.63,183.564-171.885L256.68,85.637L256.32,85.278z"/>
<path style="fill:#1C75A1;" d="M248.958,82h-124.94c-8.642,0-15.648,7.006-15.648,15.649v188.703  c0,8.642,7.006,15.648,15.648,15.648V113.296l0,0h134.93V91.991C258.949,86.473,254.476,82,248.958,82z"/>
<path style="fill:#FFFFFF;" d="M241.706,87.469H126.724c-7.132,0-12.913,5.782-12.913,12.914c0,7.132,5.781,12.913,12.913,12.913  H249.95V95.714C249.95,91.16,246.259,87.469,241.706,87.469z"/>
<rect x="124" y="113.28" style="fill:#2D93BA;" width="10.776" height="188.72"/>
<path style="fill:#27A2DB;" d="M265.639,113.296H134.794V302h130.845c5.517,0,9.99-4.473,9.99-9.99V123.287  C275.629,117.77,271.156,113.296,265.639,113.296z"/>
<g>
	<rect x="167.756" y="252.08" style="fill:#EBF0F3;" width="74.908" height="4.168"/>
	<rect x="167.756" y="269.24" style="fill:#EBF0F3;" width="74.908" height="4.168"/>
</g>
<circle style="fill:#FFFFFF;" cx="205.2" cy="185.4" r="36.52"/>
<polygon style="fill:#E56353;" points="215.934,191.432 215.934,160.779 194.49,160.779 194.49,191.432 186.66,191.432   205.211,209.983 223.763,191.432 "/>
<g>
</g>
<g>
</g>
<g>
</g>
<g>
</g>
<g>
</g>
<g>
</g>
<g>
</g>
<g>
</g>
<g>
</g>
<g>
</g>
<g>
</g>
<g>
</g>
<g>
</g>
<g>
</g>
<g>
</g>
</svg>
