<?xml version="1.0" encoding="iso-8859-1"?>
<!-- Generator: Adobe Illustrator 19.0.0, SVG Export Plug-In . SVG Version: 6.00 Build 0)  -->
<svg xmlns="http://www.w3.org/2000/svg" xmlns:xlink="http://www.w3.org/1999/xlink" version="1.1" id="Capa_1" x="0px" y="0px" viewBox="0 0 384 384" style="enable-background:new 0 0 384 384;" xml:space="preserve">
<circle style="fill:#EA8953;" cx="192" cy="192" r="192"/>
<path style="opacity:0.1;enable-background:new    ;" d="M273.599,137.718l-0.022-0.023l-0.006,0.004  c-0.721-0.698-1.694-1.138-2.771-1.138H86c-2.2,0-4,1.8-4,4v102.88c0,1.08,0.442,2.056,1.144,2.778l-0.006,0.001l0.021,0.02  c0.014,0.014,0.027,0.028,0.042,0.042l135.792,135.792c76.733-10.801,138.884-66.932,158.502-140.462L273.642,137.76  C273.628,137.746,273.614,137.732,273.599,137.718z"/>
<path style="fill:#EBF0F3;" d="M270.806,136.559H85.983c-2.2,0-3.984,1.784-3.984,3.984v102.914c0,2.2,1.784,3.984,3.984,3.984  h184.823c2.2,0,3.984-1.783,3.984-3.984V140.543C274.79,138.343,273.006,136.559,270.806,136.559z"/>
<path style="fill:#64798A;" d="M297.051,167.998h-14.26v48.004h14.26c2.732,0,4.949-2.216,4.949-4.949v-38.106  C302,170.214,299.784,167.998,297.051,167.998z"/>
<rect x="274.8" y="168" style="fill:#3A556A;" width="8" height="48"/>
<rect x="185.64" y="148.72" style="fill:#44C4A1;" width="31.796" height="86.596"/>
<rect x="140.88" y="148.72" style="fill:#F6C358;" width="31.796" height="86.596"/>
<rect x="94.592" y="148.72" style="fill:#FCD462;" width="34.9" height="86.596"/>
<rect x="230.4" y="148.72" style="fill:#E56353;" width="31.796" height="86.596"/>
<rect x="185.64" y="227.772" style="fill:#3EA69B;" width="31.796" height="7.528"/>
<rect x="140.88" y="227.772" style="fill:#DC8744;" width="31.796" height="7.528"/>
<rect x="94.592" y="227.772" style="fill:#F6C358;" width="34.9" height="7.528"/>
<rect x="230.4" y="227.772" style="fill:#D15241;" width="31.796" height="7.528"/>
<g>
</g>
<g>
</g>
<g>
</g>
<g>
</g>
<g>
</g>
<g>
</g>
<g>
</g>
<g>
</g>
<g>
</g>
<g>
</g>
<g>
</g>
<g>
</g>
<g>
</g>
<g>
</g>
<g>
</g>
</svg>
