<?xml version="1.0" encoding="iso-8859-1"?>
<!-- Generator: Adobe Illustrator 19.0.0, SVG Export Plug-In . SVG Version: 6.00 Build 0)  -->
<svg xmlns="http://www.w3.org/2000/svg" xmlns:xlink="http://www.w3.org/1999/xlink" version="1.1" id="Capa_1" x="0px" y="0px" viewBox="0 0 384 384" style="enable-background:new 0 0 384 384;" xml:space="preserve">
<circle style="fill:#334D5C;" cx="192" cy="192" r="192"/>
<path style="opacity:0.1;enable-background:new    ;" d="M369.88,264.28L229.36,123.76l-10.72,8.32l57.68,74.4  c0.96,1.2,1.84,2.48,2.64,3.76L164.92,96.2c-16.64-16.96-43.76-19.16-63-4.24C81.16,108,77.4,137.92,93.44,158.68l91.8,118.4  c1.32,1.68,2.68,3.32,4.16,4.84v0.04l0.88,0.88l83.078,83.078C316.991,345.47,351.647,309.103,369.88,264.28z"/>
<path style="fill:#FFFFFF;" d="M287.026,198.184l-57.672-74.408l-10.702,8.295l57.672,74.408  c17.179,22.162,13.122,54.169-9.04,71.347c-22.163,17.178-54.169,13.122-71.348-9.04l-91.783-118.418  c-11.489-14.823-8.78-36.229,6.043-47.717c14.822-11.489,36.23-8.776,47.719,6.046l91.24,117.718c6.1,7.87,4.66,19.23-3.209,25.329  c-7.87,6.098-19.229,4.66-25.328-3.21l-57.13-73.707l-10.702,8.295l57.129,73.707c10.671,13.768,30.558,16.287,44.325,5.616  c13.767-10.671,16.286-30.558,5.616-44.324l-91.241-117.718c-16.062-20.725-45.992-24.517-66.716-8.454  c-20.724,16.063-24.513,45.99-8.45,66.713l91.784,118.419c21.752,28.064,62.279,33.199,90.344,11.447  C303.642,266.776,308.778,226.247,287.026,198.184z"/>
<g>
</g>
<g>
</g>
<g>
</g>
<g>
</g>
<g>
</g>
<g>
</g>
<g>
</g>
<g>
</g>
<g>
</g>
<g>
</g>
<g>
</g>
<g>
</g>
<g>
</g>
<g>
</g>
<g>
</g>
</svg>
