<?xml version="1.0" encoding="iso-8859-1"?>
<!-- Generator: Adobe Illustrator 19.0.0, SVG Export Plug-In . SVG Version: 6.00 Build 0)  -->
<svg xmlns="http://www.w3.org/2000/svg" xmlns:xlink="http://www.w3.org/1999/xlink" version="1.1" id="Capa_1" x="0px" y="0px" viewBox="0 0 384 384" style="enable-background:new 0 0 384 384;" xml:space="preserve">
<circle style="fill:#EFC84A;" cx="192" cy="192" r="192"/>
<path style="opacity:0.1;enable-background:new    ;" d="M269.16,98.837c-3.48-3.2-8.04-5.16-13.12-5.16  c-10.72,0-19.44,8.72-19.44,19.44c0,4.6,1.6,8.8,4.28,12.12l-4.28,11.84l26.48,26.48l-0.48,0.6l-35.16-35.16l-1.16-1.16l-0.24-0.2  c-1.12-0.84-2.52-1.32-4-1.32c-3.8,0-6.88,3.041-6.92,6.841v-0.8c0,0-36.52,25.52-72.56,31.08l-3.08-3.08  c-1.28-1.36-3.12-2.2-5.12-2.2H96.68c-3.92,0-7.08,3.159-7.08,7.08v0.8h-4.08c-1.96,0-3.52,1.56-3.52,3.48v30.52  c0,0.96,0.4,1.84,1.04,2.48l19,19l10.52,64.76c0.16,0.96,0.56,1.8,1.24,2.48v0.04l0.36,0.36l94.107,94.108  c91.628-7.694,164.945-79.686,174.627-170.733L269.76,99.397L269.16,98.837z"/>
<path style="fill:#E1E6E9;" d="M222.025,126.334c-3.816,0-6.91,3.092-6.91,6.906v103.099c0,3.814,3.094,6.906,6.91,6.906  c3.816,0,6.909-3.092,6.909-6.906V133.24C228.934,129.426,225.841,126.334,222.025,126.334z"/>
<path style="fill:#FFFFFF;" d="M215.125,132.371v104.837c0,0-37.296-26.014-73.68-31.243V163.64  C177.829,158.411,215.125,132.371,215.125,132.371z"/>
<path style="fill:#64798A;" d="M141.435,224.518h-6.71v25.729h6.71c2.799,0,5.068-2.268,5.068-5.066v-15.597  C146.503,226.786,144.234,224.518,141.435,224.518z"/>
<path style="fill:#EBF0F3;" d="M152.123,284.9c-0.243,3.119-3.084,5.409-6.214,5.409h-28.621c-2.354,0-4.36-1.706-4.737-4.028  l-12.359-76.096h31.804l13.013,68.391h1.249c1.613,0,3.097,0.65,4.164,1.717C151.594,281.462,152.263,283.101,152.123,284.9z"/>
<path style="fill:#D15241;" d="M92.827,203.556h-7.326c-1.934,0-3.501-1.568-3.501-3.501v-30.531c0-1.934,1.567-3.501,3.501-3.501  h7.326V203.556z"/>
<path style="fill:#E56353;" d="M96.683,211.436h37.68c3.911,0,7.081-3.17,7.081-7.081v-39.131c0-3.911-3.17-7.081-7.081-7.081  h-37.68c-3.911,0-7.081,3.17-7.081,7.081v39.131C89.602,208.266,92.772,211.436,96.683,211.436z"/>
<path style="fill:#64798A;" d="M228.935,167.757v34.064c9.411,0,17.04-7.626,17.04-17.032  C245.975,175.382,238.345,167.757,228.935,167.757z"/>
<path style="fill:#27A2DB;" d="M256.046,93.691c-10.733,0-19.435,8.702-19.435,19.435c0,4.592,1.602,8.804,4.264,12.129  l-4.264,11.818l11.812-6.068c2.341,1,4.917,1.556,7.624,1.556c10.734,0,19.436-8.701,19.436-19.435  C275.481,102.393,266.78,93.691,256.046,93.691z"/>
<path style="fill:#44C4A1;" d="M289.276,137.933c-10.072-3.709-21.245,1.449-24.954,11.522c-1.586,4.309-1.54,8.815-0.19,12.856  l-8.085,9.616l13.18-1.612c1.852,1.747,4.077,3.159,6.617,4.094c10.072,3.709,21.245-1.449,24.954-11.522  C304.507,152.814,299.348,141.642,289.276,137.933z"/>
<g>
	<path style="fill:#FFFFFF;" d="M255.83,105.079v1.575h5.008v3.219h-5.008v15.814h-4.006v-15.814h-2.396v-3.219h2.396v-1.467   c0-2.003,0.602-3.596,1.805-4.776c1.206-1.181,2.661-1.77,4.364-1.77c1.707,0,3.264,0.632,4.67,1.895l-1.645,2.827   c-0.789-0.836-1.61-1.254-2.469-1.254c-0.859,0-1.526,0.269-2.003,0.805C256.069,103.452,255.83,104.174,255.83,105.079z"/>
	<path style="fill:#FFFFFF;" d="M276.448,162.514l4.268-13.761h2.898l4.268,13.761l4.816-13.761h3.473l-6.675,19.122h-3.201   l-4.021-13.104h-0.218l-4.023,13.104h-3.199l-6.677-19.122h3.475L276.448,162.514z"/>
</g>
<g>
</g>
<g>
</g>
<g>
</g>
<g>
</g>
<g>
</g>
<g>
</g>
<g>
</g>
<g>
</g>
<g>
</g>
<g>
</g>
<g>
</g>
<g>
</g>
<g>
</g>
<g>
</g>
<g>
</g>
</svg>
