<?xml version="1.0" encoding="iso-8859-1"?>
<!-- Generator: Adobe Illustrator 19.0.0, SVG Export Plug-In . SVG Version: 6.00 Build 0)  -->
<svg xmlns="http://www.w3.org/2000/svg" xmlns:xlink="http://www.w3.org/1999/xlink" version="1.1" id="Capa_1" x="0px" y="0px" viewBox="0 0 384 384" style="enable-background:new 0 0 384 384;" xml:space="preserve">
<circle style="fill:#45B39C;" cx="192" cy="192" r="192"/>
<path style="opacity:0.1;enable-background:new    ;" d="M383.789,200.349L283.72,100.28c-24.4-24.36-63.96-24.36-88.32,0  c-13.8,13.8-19.8,32.44-18,50.48L89.48,251.64c-0.92,1.04-1.72,2.12-2.44,3.28c-0.16,0.24-0.32,0.48-0.48,0.72  c-0.72,1.16-1.36,2.32-1.92,3.52c0,0.04,0,0.04,0,0.08c-0.56,1.24-1,2.52-1.4,3.84c-0.04,0.12-0.08,0.28-0.12,0.4  c-0.36,1.36-0.64,2.72-0.84,4.08c-0.12,1.08-0.2,2.16-0.24,3.24v0.44c0,0.96,0,1.92,0.08,2.84c0.04,0.2,0.04,0.36,0.04,0.52  c0.12,1.04,0.28,2.08,0.48,3.08v0.16c0.24,1.12,0.52,2.2,0.88,3.28c0.04,0.04,0.04,0.08,0.08,0.12c0.32,0.96,0.68,1.92,1.08,2.84  c0.12,0.28,0.28,0.52,0.4,0.8c0.36,0.72,0.72,1.4,1.12,2.08c0.16,0.32,0.36,0.6,0.56,0.92c0.4,0.64,0.84,1.28,1.32,1.92  c0.2,0.24,0.4,0.52,0.6,0.8c0.68,0.84,1.44,1.68,2.24,2.48c0.759,0.761,1.553,1.466,2.37,2.13l88.516,88.516  C185.183,383.903,188.58,384,192,384C295.239,384,379.414,302.511,383.789,200.349z"/>
<path style="fill:#D5D6DB;" d="M179.09,148.825L89.484,251.624c-10.501,12.048-9.881,30.17,1.421,41.472  c11.302,11.302,29.424,11.922,41.472,1.42l102.799-89.606L179.09,148.825z"/>
<path style="fill:#EBF0F3;" d="M235.176,204.91l-56.085-56.085L89.484,251.624c-4.056,4.653-6.434,10.214-7.197,15.938  C124.851,276.947,187.976,239.492,235.176,204.91z"/>
<path style="fill:#E1E6E9;" d="M90.904,293.096c11.302,11.302,29.424,11.922,41.472,1.42l102.799-89.606  c-47.2,34.582-110.325,72.037-152.889,62.651C81.074,276.655,83.968,286.16,90.904,293.096z"/>
<ellipse style="fill:#64798A;" cx="239.537" cy="144.447" rx="62.456" ry="62.456"/>
<path style="fill:#3A556A;" d="M147.18,236.82c-5.177-5.177-5.177-13.6,0.003-18.78l19.599-19.598c5.177-5.177,13.6-5.177,18.777,0  c5.177,5.177,5.177,13.6,0,18.777l-19.598,19.599C160.78,241.997,152.357,241.997,147.18,236.82z"/>
<path style="fill:#64798A;" d="M182.618,201.382c-3.561-3.561-9.334-3.561-12.895,0l-19.601,19.601  c-3.561,3.561-3.562,9.335-0.001,12.896c3.561,3.561,9.335,3.56,12.896,0l19.601-19.601  C186.179,210.716,186.179,204.943,182.618,201.382z"/>
<path style="fill:#3A556A;" d="M288.375,183.356l-87.732-87.732c-1.815,1.449-3.58,2.987-5.261,4.668  c-1.68,1.68-3.218,3.446-4.668,5.261l87.732,87.732c1.815-1.449,3.58-2.987,5.261-4.668  C285.388,186.937,286.926,185.171,288.375,183.356z"/>
<g>
</g>
<g>
</g>
<g>
</g>
<g>
</g>
<g>
</g>
<g>
</g>
<g>
</g>
<g>
</g>
<g>
</g>
<g>
</g>
<g>
</g>
<g>
</g>
<g>
</g>
<g>
</g>
<g>
</g>
</svg>
