<?xml version="1.0" encoding="iso-8859-1"?>
<!-- Generator: Adobe Illustrator 19.0.0, SVG Export Plug-In . SVG Version: 6.00 Build 0)  -->
<svg xmlns="http://www.w3.org/2000/svg" xmlns:xlink="http://www.w3.org/1999/xlink" version="1.1" id="Capa_1" x="0px" y="0px" viewBox="0 0 384 384" style="enable-background:new 0 0 384 384;" xml:space="preserve">
<circle style="fill:#EA8953;" cx="192" cy="192" r="192"/>
<path style="opacity:0.1;enable-background:new    ;" d="M384,192c0-9.077-0.675-17.992-1.894-26.734L300.6,83.76  c-0.032-0.036-0.075-0.063-0.108-0.098l0,0c-0.526-0.548-1.159-0.977-1.877-1.262l0,0C297.998,82.153,297.335,82,296.64,82H87.36  C84.4,82,82,84.4,82,87.36v209.28v0.04c0,0.607,0.136,1.171,0.348,1.702c0.172,0.495,0.436,0.923,0.739,1.341  c0.11,0.192,0.205,0.396,0.353,0.557l0.077,0.078l0.001,0c0.043,0.044,0.084,0.085,0.128,0.128l0.114,0.114l81.506,81.506  C174.008,383.325,182.923,384,192,384C298.039,384,384,298.039,384,192z"/>
<path style="fill:#3A556A;" d="M296.657,82.004H87.35c-2.953,0-5.347,2.394-5.347,5.346v31.274h220V87.35  C302.003,84.397,299.609,82.004,296.657,82.004z"/>
<rect x="90.44" y="94.276" style="fill:#EBF0F3;" width="137.828" height="12.08"/>
<circle style="fill:#FCD462;" cx="245.52" cy="100.32" r="6.04"/>
<circle style="fill:#44C4A1;" cx="267.08" cy="100.32" r="6.04"/>
<circle style="fill:#E56353;" cx="288.6" cy="100.32" r="6.04"/>
<path style="fill:#FFFFFF;" d="M301.997,118.636v178.04c0,2.92-2.4,5.32-5.32,5.32H87.356c-2.96,0-5.359-2.4-5.359-5.32v-178.04  H301.997z"/>
<circle style="fill:#EBF0F3;" cx="191.996" cy="210.32" r="60.36"/>
<circle style="fill:#27A2DB;" cx="191.996" cy="210.32" r="36.82"/>
<circle style="fill:#64798A;" cx="191.996" cy="210.32" r="14.672"/>
<circle style="fill:#FFFFFF;" cx="200.88" cy="201.44" r="5.776"/>
<g>
</g>
<g>
</g>
<g>
</g>
<g>
</g>
<g>
</g>
<g>
</g>
<g>
</g>
<g>
</g>
<g>
</g>
<g>
</g>
<g>
</g>
<g>
</g>
<g>
</g>
<g>
</g>
<g>
</g>
</svg>
