<?xml version="1.0" encoding="iso-8859-1"?>
<!-- Generator: Adobe Illustrator 19.0.0, SVG Export Plug-In . SVG Version: 6.00 Build 0)  -->
<svg xmlns="http://www.w3.org/2000/svg" xmlns:xlink="http://www.w3.org/1999/xlink" version="1.1" id="Capa_1" x="0px" y="0px" viewBox="0 0 384 384" style="enable-background:new 0 0 384 384;" xml:space="preserve">
<circle style="fill:#EA8953;" cx="192" cy="192" r="192"/>
<path style="opacity:0.1;enable-background:new    ;" d="M384,192c0-9.072-0.675-17.984-1.892-26.721L300.56,83.731  c-0.96-1.04-2.36-1.72-3.92-1.72H87.36c-2.96,0-5.36,2.4-5.36,5.32v209.32c0,1.36,0.48,2.6,1.32,3.52l0.44,0.44l81.493,81.493  C173.998,383.324,182.918,384,192,384C298.039,384,384,298.039,384,192z"/>
<path style="fill:#3A556A;" d="M296.654,82H87.347C84.394,82,82,84.394,82,87.346v31.274h220V87.346  C302,84.394,299.606,82,296.654,82z"/>
<circle style="fill:#FCD462;" cx="245.52" cy="100.32" r="6.04"/>
<circle style="fill:#44C4A1;" cx="267.08" cy="100.32" r="6.04"/>
<circle style="fill:#E56353;" cx="288.6" cy="100.32" r="6.04"/>
<path style="fill:#EBF0F3;" d="M130.068,114.62h37.273l-2.194-6.488c-0.361-1.066-1.361-1.784-2.487-1.784h-35.486  c0.077,0.177,0.202,0.321,0.265,0.506L130.068,114.62z"/>
<path style="fill:#64798A;" d="M302,118.62H129.081c-1.126,0-2.126-0.718-2.488-1.784l-2.942-8.703  c-0.36-1.066-1.361-1.784-2.487-1.784H93.969c-1.126,0-2.127,0.718-2.487,1.784l-2.942,8.703c-0.362,1.066-1.362,1.784-2.488,1.784  H82v18.323h220V118.62z"/>
<path style="fill:#EBF0F3;" d="M82,296.654c0,2.952,2.394,5.346,5.346,5.346h209.309c2.952,0,5.346-2.394,5.346-5.346V136.943H82  V296.654z"/>
<g>
	<path style="fill:#FFFFFF;" d="M82,288.654c0,2.952,2.394,5.346,5.346,5.346h209.309c2.952,0,5.346-2.394,5.346-5.346V136.943H82   V288.654z"/>
	<path style="fill:#FFFFFF;" d="M121.973,130.182H97.988c-1.324,0-2.398-1.074-2.398-2.4c0-1.326,1.074-2.4,2.398-2.4h23.984   c1.324,0,2.398,1.074,2.398,2.4C124.371,129.108,123.297,130.182,121.973,130.182z"/>
	<path style="fill:#FFFFFF;" d="M162.984,130.182H139c-1.324,0-2.398-1.074-2.398-2.4c0-1.326,1.074-2.4,2.398-2.4h23.984   c1.324,0,2.398,1.074,2.398,2.4C165.383,129.108,164.308,130.182,162.984,130.182z"/>
	<path style="fill:#FFFFFF;" d="M203.992,130.182h-23.98c-1.324,0-2.398-1.074-2.398-2.4c0-1.326,1.074-2.4,2.398-2.4h23.98   c1.324,0,2.399,1.074,2.399,2.4C206.391,129.108,205.316,130.182,203.992,130.182z"/>
	<path style="fill:#FFFFFF;" d="M245.004,130.182H221.02c-1.324,0-2.398-1.074-2.398-2.4c0-1.326,1.074-2.4,2.398-2.4h23.984   c1.324,0,2.398,1.074,2.398,2.4C247.402,129.108,246.328,130.182,245.004,130.182z"/>
	<path style="fill:#FFFFFF;" d="M286.012,130.182h-23.98c-1.324,0-2.398-1.074-2.398-2.4c0-1.326,1.074-2.4,2.398-2.4h23.98   c1.324,0,2.398,1.074,2.398,2.4C288.41,129.108,287.336,130.182,286.012,130.182z"/>
</g>
<g>
	<path style="fill:#E56353;" d="M115.664,220.511v14.613h-5.686v-37.598h5.686v15.526c0.809-1.656,2.036-2.959,3.675-3.906   c1.644-0.946,3.411-1.42,5.306-1.42c3.043,0,5.504,0.931,7.379,2.791c1.879,1.86,2.816,4.548,2.816,8.066v16.542h-5.682v-14.816   c0-4.974-2.064-7.459-6.19-7.459c-1.961,0-3.671,0.652-5.124,1.953C116.391,216.105,115.664,218.008,115.664,220.511z"/>
	<path style="fill:#E56353;" d="M149.759,212.696v13.7c0,1.286,0.338,2.308,1.016,3.07c0.677,0.76,1.623,1.142,2.841,1.142   c1.218,0,2.382-0.593,3.501-1.776l2.333,4.007c-1.994,1.794-4.204,2.69-6.623,2.69c-2.416,0-4.48-0.838-6.19-2.512   c-1.706-1.674-2.56-3.933-2.56-6.774v-13.548h-3.398v-4.565h3.398v-8.475h5.682v8.475h7.102v4.565H149.759z"/>
	<path style="fill:#E56353;" d="M170.966,212.696v13.7c0,1.286,0.339,2.308,1.016,3.07c0.677,0.76,1.623,1.142,2.841,1.142   s2.382-0.593,3.502-1.776l2.333,4.007c-1.994,1.794-4.204,2.69-6.623,2.69c-2.416,0-4.48-0.838-6.19-2.512   c-1.705-1.674-2.56-3.933-2.56-6.774v-13.548h-3.398v-4.565h3.398v-8.475h5.682v8.475h7.102v4.565H170.966z"/>
	<path style="fill:#E56353;" d="M199.635,207.725c3.621,0,6.714,1.251,9.286,3.756c2.572,2.502,3.857,5.834,3.857,9.994   c0,4.16-1.276,7.544-3.832,10.148c-2.552,2.606-5.529,3.908-8.927,3.908c-3.402,0-6.454-1.488-9.158-4.466v13.903h-5.686v-36.836   h5.686v4.718C193.09,209.432,196.018,207.725,199.635,207.725z M190.757,221.677c0,2.572,0.776,4.678,2.333,6.318   c1.557,1.641,3.452,2.461,5.686,2.461c2.229,0,4.174-0.812,5.834-2.436c1.656-1.623,2.486-3.728,2.486-6.316   c0-2.589-0.813-4.736-2.436-6.446c-1.623-1.707-3.568-2.562-5.835-2.562c-2.267,0-4.179,0.855-5.736,2.562   C191.534,216.968,190.757,219.107,190.757,221.677z"/>
	<path style="fill:#E56353;" d="M219.905,221.983c-0.727-0.743-1.09-1.641-1.09-2.69c0-1.047,0.363-1.935,1.09-2.664   c0.727-0.726,1.614-1.09,2.663-1.09c1.049,0,1.945,0.364,2.688,1.09c0.743,0.729,1.119,1.617,1.119,2.664   c0,1.049-0.376,1.947-1.119,2.69c-0.743,0.743-1.639,1.115-2.688,1.115C221.519,223.098,220.632,222.726,219.905,221.983z    M219.905,234.414c-0.727-0.743-1.09-1.641-1.09-2.69c0-1.047,0.363-1.935,1.09-2.664c0.727-0.726,1.614-1.09,2.663-1.09   c1.049,0,1.945,0.364,2.688,1.09c0.743,0.729,1.119,1.617,1.119,2.664c0,1.049-0.376,1.947-1.119,2.69   c-0.743,0.743-1.639,1.117-2.688,1.117C221.519,235.53,220.632,235.157,219.905,234.414z"/>
	<path style="fill:#E56353;" d="M253.421,193.975h5.075l-21.971,47.085h-5.075L253.421,193.975z"/>
	<path style="fill:#E56353;" d="M268.947,193.975h5.075L252.05,241.06h-5.075L268.947,193.975z"/>
</g>
<g>
</g>
<g>
</g>
<g>
</g>
<g>
</g>
<g>
</g>
<g>
</g>
<g>
</g>
<g>
</g>
<g>
</g>
<g>
</g>
<g>
</g>
<g>
</g>
<g>
</g>
<g>
</g>
<g>
</g>
</svg>
