<?xml version="1.0" encoding="iso-8859-1"?>
<!-- Generator: Adobe Illustrator 19.0.0, SVG Export Plug-In . SVG Version: 6.00 Build 0)  -->
<svg xmlns="http://www.w3.org/2000/svg" xmlns:xlink="http://www.w3.org/1999/xlink" version="1.1" id="Capa_1" x="0px" y="0px" viewBox="0 0 384 384" style="enable-background:new 0 0 384 384;" xml:space="preserve">
<circle style="fill:#45B39C;" cx="192" cy="192" r="192"/>
<path style="opacity:0.1;enable-background:new    ;" d="M384,192c0-9.072-0.675-17.984-1.892-26.721L300.56,83.731  c-0.96-1.04-2.36-1.72-3.92-1.72H87.36c-2.96,0-5.36,2.4-5.36,5.32v209.32c0,1.36,0.48,2.6,1.32,3.52l0.44,0.44l81.493,81.493  C173.998,383.324,182.918,384,192,384C298.039,384,384,298.038,384,192z"/>
<path style="fill:#3A556A;" d="M296.654,82H87.347C84.394,82,82,84.394,82,87.346v31.274h220V87.346  C302,84.394,299.606,82,296.654,82z"/>
<circle style="fill:#FCD462;" cx="245.52" cy="100.32" r="6.04"/>
<circle style="fill:#44C4A1;" cx="267.08" cy="100.32" r="6.04"/>
<circle style="fill:#E56353;" cx="288.6" cy="100.32" r="6.04"/>
<path style="fill:#EBF0F3;" d="M130.068,114.62h37.273l-2.194-6.488c-0.361-1.066-1.361-1.784-2.487-1.784h-35.486  c0.077,0.177,0.202,0.321,0.265,0.506L130.068,114.62z"/>
<path style="fill:#64798A;" d="M302,118.62H129.081c-1.126,0-2.126-0.718-2.488-1.784l-2.942-8.703  c-0.36-1.066-1.361-1.784-2.487-1.784H93.969c-1.126,0-2.127,0.718-2.487,1.784l-2.942,8.703c-0.362,1.066-1.362,1.784-2.488,1.784  H82v18.323h220V118.62z"/>
<path style="fill:#EBF0F3;" d="M82,296.654c0,2.952,2.394,5.346,5.346,5.346h209.309c2.952,0,5.346-2.394,5.346-5.346V136.943H82  V296.654z"/>
<g>
	<path style="fill:#FFFFFF;" d="M82,288.654c0,2.952,2.394,5.346,5.346,5.346h209.309c2.952,0,5.346-2.394,5.346-5.346V136.943H82   V288.654z"/>
	<path style="fill:#FFFFFF;" d="M121.973,130.182H97.988c-1.324,0-2.398-1.074-2.398-2.4c0-1.326,1.074-2.4,2.398-2.4h23.984   c1.324,0,2.398,1.074,2.398,2.4C124.371,129.108,123.297,130.182,121.973,130.182z"/>
	<path style="fill:#FFFFFF;" d="M162.984,130.182H139c-1.324,0-2.398-1.074-2.398-2.4c0-1.326,1.074-2.4,2.398-2.4h23.984   c1.324,0,2.398,1.074,2.398,2.4C165.383,129.108,164.308,130.182,162.984,130.182z"/>
	<path style="fill:#FFFFFF;" d="M203.992,130.182h-23.98c-1.324,0-2.398-1.074-2.398-2.4c0-1.326,1.074-2.4,2.398-2.4h23.98   c1.324,0,2.399,1.074,2.399,2.4C206.391,129.108,205.316,130.182,203.992,130.182z"/>
	<path style="fill:#FFFFFF;" d="M245.004,130.182H221.02c-1.324,0-2.398-1.074-2.398-2.4c0-1.326,1.074-2.4,2.398-2.4h23.984   c1.324,0,2.398,1.074,2.398,2.4C247.402,129.108,246.328,130.182,245.004,130.182z"/>
	<path style="fill:#FFFFFF;" d="M286.012,130.182h-23.98c-1.324,0-2.398-1.074-2.398-2.4c0-1.326,1.074-2.4,2.398-2.4h23.98   c1.324,0,2.398,1.074,2.398,2.4C288.41,129.108,287.336,130.182,286.012,130.182z"/>
</g>
<path style="fill:#EBF0F3;" d="M138.19,145.454H95.034c-2.675,0-4.844,2.169-4.844,4.844v130.346c0,2.675,2.169,4.844,4.844,4.844  h43.156c2.675,0,4.844-2.169,4.844-4.844V150.298C143.034,147.623,140.865,145.454,138.19,145.454z"/>
<circle style="fill:#E56353;" cx="115.804" cy="170.44" r="15.888"/>
<g>
	<rect x="97.44" y="201.96" style="fill:#D5D6DB;" width="38.36" height="4"/>
	<rect x="97.44" y="216.04" style="fill:#D5D6DB;" width="38.36" height="4"/>
	<rect x="97.44" y="230.12" style="fill:#D5D6DB;" width="38.36" height="4"/>
	<rect x="97.44" y="244.2" style="fill:#D5D6DB;" width="38.36" height="4"/>
	<rect x="97.44" y="258.28" style="fill:#D5D6DB;" width="38.36" height="4"/>
	<rect x="97.44" y="272.36" style="fill:#D5D6DB;" width="38.36" height="4"/>
</g>
<rect x="161.92" y="149.36" style="fill:#FCD462;" width="35.3" height="35.3"/>
<rect x="161.92" y="194.816" style="fill:#27A2DB;" width="35.3" height="35.3"/>
<circle style="fill:#64798A;" cx="265.64" cy="266" r="21.616"/>
<g>
	<circle style="fill:#EBF0F3;" cx="265.64" cy="254.92" r="8.08"/>
	<path style="fill:#EBF0F3;" d="M265.66,283.932c6.378,0,11.967-3.38,15.114-8.433c-2.533-5.839-8.344-9.927-15.114-9.927   c-6.77,0-12.582,4.088-15.114,9.927C253.692,280.551,259.282,283.932,265.66,283.932z"/>
</g>
<circle style="fill:#FCD462;" cx="183.536" cy="266" r="21.616"/>
<g>
	<circle style="fill:#DC8744;" cx="183.536" cy="254.92" r="8.08"/>
	<path style="fill:#DC8744;" d="M183.537,283.932c6.378,0,11.968-3.38,15.114-8.433c-2.534-5.839-8.344-9.927-15.114-9.927   c-6.77,0-12.582,4.088-15.114,9.927C171.57,280.551,177.16,283.932,183.537,283.932z"/>
</g>
<g>
	<rect x="209.32" y="152.52" style="fill:#D5D6DB;" width="80.24" height="4"/>
	<rect x="209.32" y="165" style="fill:#D5D6DB;" width="80.24" height="4"/>
	<rect x="209.32" y="177.52" style="fill:#D5D6DB;" width="56.36" height="4"/>
	<rect x="209.32" y="197.96" style="fill:#D5D6DB;" width="80.24" height="4"/>
	<rect x="209.32" y="210.48" style="fill:#D5D6DB;" width="80.24" height="4"/>
	<rect x="209.32" y="222.96" style="fill:#D5D6DB;" width="56.36" height="4"/>
</g>
<g>
</g>
<g>
</g>
<g>
</g>
<g>
</g>
<g>
</g>
<g>
</g>
<g>
</g>
<g>
</g>
<g>
</g>
<g>
</g>
<g>
</g>
<g>
</g>
<g>
</g>
<g>
</g>
<g>
</g>
</svg>
