<?xml version="1.0" encoding="iso-8859-1"?>
<!-- Generator: Adobe Illustrator 19.0.0, SVG Export Plug-In . SVG Version: 6.00 Build 0)  -->
<svg xmlns="http://www.w3.org/2000/svg" xmlns:xlink="http://www.w3.org/1999/xlink" version="1.1" id="Capa_1" x="0px" y="0px" viewBox="0 0 384 384" style="enable-background:new 0 0 384 384;" xml:space="preserve">
<g>
	<circle style="fill:#E05B49;" cx="192" cy="192" r="192"/>
	<rect x="116.6" y="160.32" style="fill:#E05B49;" width="11.512" height="6.692"/>
	<rect x="138" y="160.32" style="fill:#E05B49;" width="129.4" height="6.692"/>
	<rect x="116.6" y="217.08" style="fill:#E05B49;" width="11.512" height="6.692"/>
	<rect x="138" y="217.08" style="fill:#E05B49;" width="129.4" height="6.692"/>
</g>
<path style="opacity:0.1;enable-background:new    ;" d="M383.479,205.45l-93.359-93.359l-0.04-0.039  c-0.96-0.92-2.24-1.48-3.68-1.48H97.6c-2.88,0-5.24,2.32-5.24,5.2v138.72H82v14.4l114.983,114.982  C296.213,381.339,376.681,303.563,383.479,205.45z"/>
<path style="fill:#3A556A;" d="M291.62,115.753v138.76H92.38v-138.76c0-2.88,2.32-5.2,5.2-5.2h188.84  C289.3,110.553,291.62,112.873,291.62,115.753z"/>
<rect x="82" y="254.52" style="fill:#EBF0F3;" width="220" height="14.372"/>
<g>
	<polygon style="fill:#D5D6DB;" points="301.679,268.889 82.321,268.889 97.311,273.447 286.689,273.447  "/>
	<rect x="176.64" y="260" style="fill:#D5D6DB;" width="30.76" height="3.364"/>
</g>
<rect x="104.52" y="121.68" style="fill:#64798A;" width="174.996" height="21.128"/>
<rect x="111.216" y="127.436" style="fill:#EBF0F3;" width="109.636" height="9.604"/>
<circle style="fill:#FCD462;" cx="234.6" cy="132.24" r="4.804"/>
<circle style="fill:#44C4A1;" cx="251.708" cy="132.24" r="4.804"/>
<circle style="fill:#E56353;" cx="268.84" cy="132.24" r="4.804"/>
<rect x="104.48" y="142.812" style="fill:#FFFFFF;" width="174.996" height="98.756"/>
<g>
	<path style="fill:#64798A;" d="M142.178,204.807h-6.145l-8.832-25.535h5.57l6.336,19.295l6.336-19.295h5.566l6.336,19.295   l6.336-19.295h5.566l-8.832,25.535h-6.14l-6.051-17.473L142.178,204.807z"/>
	<path style="fill:#64798A;" d="M185.951,204.807h-6.144l-8.832-25.535h5.57l6.336,19.295l6.336-19.295h5.566l6.336,19.295   l6.336-19.295h5.566l-8.832,25.535h-6.141l-6.051-17.473L185.951,204.807z"/>
	<path style="fill:#64798A;" d="M229.729,204.807h-6.145l-8.832-25.535h5.57l6.336,19.295l6.336-19.295h5.566l6.336,19.295   l6.336-19.295h5.566l-8.832,25.535h-6.14l-6.051-17.473L229.729,204.807z"/>
</g>
<g>
</g>
<g>
</g>
<g>
</g>
<g>
</g>
<g>
</g>
<g>
</g>
<g>
</g>
<g>
</g>
<g>
</g>
<g>
</g>
<g>
</g>
<g>
</g>
<g>
</g>
<g>
</g>
<g>
</g>
</svg>
