<?xml version="1.0" encoding="iso-8859-1"?>
<!-- Generator: Adobe Illustrator 19.0.0, SVG Export Plug-In . SVG Version: 6.00 Build 0)  -->
<svg xmlns="http://www.w3.org/2000/svg" xmlns:xlink="http://www.w3.org/1999/xlink" version="1.1" id="Capa_1" x="0px" y="0px" viewBox="0 0 384 384" style="enable-background:new 0 0 384 384;" xml:space="preserve">
<circle style="fill:#E05B49;" cx="192" cy="192" r="192"/>
<path style="opacity:0.1;enable-background:new    ;" d="M236,86.171c-2.12-2.56-5.28-4.16-8.84-4.16H93.44  c-6.32,0-11.44,5.121-11.44,11.44v197.12c0,2.84,1.04,5.44,2.76,7.44l1.4,1.4l83.247,83.22C176.822,383.502,184.351,384,192,384  c92.908,0,170.394-65.993,188.162-153.658L236.12,86.331L236,86.171z"/>
<g>
	<path style="fill:#64798A;" d="M82,290.562C82,296.879,87.121,302,93.438,302h133.715c6.318,0,11.44-5.121,11.44-11.438v-23.85H82   V290.562z"/>
	<path style="fill:#64798A;" d="M238.593,93.438c0-6.317-5.122-11.438-11.44-11.438H93.438C87.121,82,82,87.121,82,93.438v12.386   h156.593V93.438z"/>
</g>
<rect x="82" y="105.84" style="fill:#E1E6E9;" width="156.6" height="160.88"/>
<rect x="89.756" y="105.84" style="fill:#EBF0F3;" width="141.08" height="160.88"/>
<g>
	<path style="fill:#3A556A;" d="M180.009,90.248h-39.425c-1.564,0-2.832,1.268-2.832,2.832s1.268,2.832,2.832,2.832h39.425   c1.564,0,2.832-1.268,2.832-2.832S181.573,90.248,180.009,90.248z"/>
	<circle style="fill:#3A556A;" cx="160.28" cy="284.36" r="10.568"/>
</g>
<path style="fill:#2F4859;" d="M161.827,280.876h-3.062c-1.076,0-1.948,0.873-1.948,1.949v3.062c0,1.076,0.872,1.948,1.948,1.948  h3.063c1.076,0,1.948-0.872,1.948-1.948v-3.062C163.776,281.748,162.903,280.876,161.827,280.876z"/>
<rect x="82" y="105.84" style="fill:#E1E6E9;" width="7.756" height="160.88"/>
<g>
	<path style="fill:#3A556A;" d="M238.593,290.562v-23.85h-7.757h-24.219v27.577c0,2.859,0.885,5.512,2.388,7.712h18.148   C233.471,302,238.593,296.879,238.593,290.562z"/>
	<rect x="230.84" y="147.696" style="fill:#3A556A;" width="7.756" height="119.016"/>
</g>
<rect x="99.204" y="186.28" style="fill:#27A2DB;" width="46.932" height="69.756"/>
<rect x="99.204" y="250.36" style="fill:#2D93BA;" width="46.932" height="5.664"/>
<polygon style="fill:#D5D6DB;" points="206.617,190.015 221.389,190.015 221.389,194.015 206.617,194.015 206.617,219.148   221.389,219.148 221.389,223.148 206.617,223.148 206.617,233.71 221.389,233.71 221.389,237.71 206.617,237.71 206.617,266.711   230.836,266.711 230.836,179.962 206.617,179.962 "/>
<path style="fill:#FCD462;" d="M89.756,116.847v57.451h116.861v-12.892c0-7.558,6.152-13.711,13.711-13.711h10.508v26.603h0v-57.451  H89.756z"/>
<g>
	<path style="fill:#F6C358;" d="M230.836,147.694h-10.508c-7.558,0-13.711,6.152-13.711,13.711v12.892h24.219V147.694z"/>
	<rect x="89.756" y="174.28" style="fill:#F6C358;" width="116.88" height="5.664"/>
	<rect x="230.84" y="174.28" style="fill:#F6C358;" width="0" height="5.664"/>
</g>
<rect x="206.6" y="174.28" style="fill:#DC8744;" width="24.2" height="5.664"/>
<rect x="153" y="190" style="fill:#D5D6DB;" width="53.604" height="4"/>
<rect x="206.6" y="190" style="fill:#64798A;" width="14.772" height="4"/>
<g>
	<rect x="153" y="204.6" style="fill:#D5D6DB;" width="28.728" height="4"/>
	<rect x="153" y="219.148" style="fill:#D5D6DB;" width="53.604" height="4"/>
</g>
<rect x="206.6" y="219.148" style="fill:#64798A;" width="14.772" height="4"/>
<rect x="153" y="233.72" style="fill:#D5D6DB;" width="53.604" height="4"/>
<rect x="206.6" y="233.72" style="fill:#64798A;" width="14.772" height="4"/>
<rect x="153" y="248.28" style="fill:#D5D6DB;" width="43.292" height="4"/>
<g>
	<path style="fill:#64798A;" d="M212.617,294.289c0,4.258,3.452,7.711,7.711,7.711h73.961c4.259,0,7.712-3.452,7.712-7.711v-16.078   h-89.383V294.289z"/>
	<path style="fill:#64798A;" d="M302,161.405c0-4.259-3.453-7.711-7.712-7.711h-73.961c-4.259,0-7.711,3.452-7.711,7.711v8.349H302   V161.405z"/>
</g>
<rect x="212.6" y="169.76" style="fill:#E1E6E9;" width="89.384" height="108.44"/>
<rect x="217.84" y="169.76" style="fill:#EBF0F3;" width="78.924" height="108.44"/>
<g>
	<path style="fill:#3A556A;" d="M270.597,159.254H244.02c-1.054,0-1.909,0.854-1.909,1.909c0,1.054,0.855,1.909,1.909,1.909h26.577   c1.055,0,1.909-0.855,1.909-1.909C272.506,160.108,271.652,159.254,270.597,159.254z"/>
	<circle style="fill:#3A556A;" cx="257.32" cy="290.12" r="7.124"/>
</g>
<path style="fill:#2F4859;" d="M258.34,287.76h-2.064c-0.726,0-1.314,0.588-1.314,1.314v2.064c0,0.726,0.588,1.314,1.314,1.314  h2.065c0.725,0,1.313-0.588,1.313-1.313v-2.065C259.654,288.348,259.066,287.76,258.34,287.76z"/>
<rect x="212.6" y="169.76" style="fill:#E1E6E9;" width="5.228" height="108.44"/>
<rect x="217.84" y="175.064" style="fill:#FCD462;" width="78.924" height="44.08"/>
<rect x="217.84" y="215.192" style="fill:#F6C358;" width="78.924" height="3.956"/>
<rect x="223.132" y="227.752" style="fill:#27A2DB;" width="26.256" height="39.024"/>
<rect x="223.132" y="263.608" style="fill:#2D93BA;" width="26.256" height="3.168"/>
<g>
	<rect x="253.24" y="229.84" style="fill:#D5D6DB;" width="38.252" height="2.236"/>
	<rect x="253.24" y="238" style="fill:#D5D6DB;" width="16.08" height="2.236"/>
	<rect x="253.24" y="246.16" style="fill:#D5D6DB;" width="38.252" height="2.236"/>
	<rect x="253.24" y="254.28" style="fill:#D5D6DB;" width="38.252" height="2.236"/>
	<rect x="253.24" y="262.44" style="fill:#D5D6DB;" width="24.2" height="2.236"/>
</g>
<g>
</g>
<g>
</g>
<g>
</g>
<g>
</g>
<g>
</g>
<g>
</g>
<g>
</g>
<g>
</g>
<g>
</g>
<g>
</g>
<g>
</g>
<g>
</g>
<g>
</g>
<g>
</g>
<g>
</g>
</svg>
