<?xml version="1.0" encoding="iso-8859-1"?>
<!-- Generator: Adobe Illustrator 19.0.0, SVG Export Plug-In . SVG Version: 6.00 Build 0)  -->
<svg xmlns="http://www.w3.org/2000/svg" xmlns:xlink="http://www.w3.org/1999/xlink" version="1.1" id="Capa_1" x="0px" y="0px" viewBox="0 0 384 384" style="enable-background:new 0 0 384 384;" xml:space="preserve">
<circle style="fill:#EA8953;" cx="192" cy="192" r="192"/>
<path style="opacity:0.1;enable-background:new    ;" d="M286.4,110.251H97.6c-2.88,0-5.24,2.36-5.24,5.24v139.24H82v14.4  L196.748,383.88c99.425-2.422,180.072-80.377,186.75-178.689l-93.258-93.26C289.32,110.892,287.92,110.251,286.4,110.251z"/>
<path style="fill:#64798A;" d="M291.62,115.482v139.252H92.38V115.482c0-2.89,2.32-5.218,5.2-5.218h188.84  C289.3,110.264,291.62,112.592,291.62,115.482z"/>
<rect x="82" y="254.72" style="fill:#EBF0F3;" width="220" height="14.42"/>
<g>
	<polygon style="fill:#D5D6DB;" points="301.679,269.162 82.321,269.162 97.311,273.736 286.689,273.736  "/>
	<rect x="176.64" y="260.24" style="fill:#D5D6DB;" width="30.76" height="3.376"/>
</g>
<path style="fill:#2F4859;" d="M275.363,122.307H108.636c-2.352,0-4.259,1.906-4.259,4.258v16.912h175.244v-16.912  C279.622,124.213,277.715,122.307,275.363,122.307z"/>
<circle style="fill:#FCD462;" cx="234.64" cy="132.88" r="4.808"/>
<circle style="fill:#44C4A1;" cx="251.792" cy="132.88" r="4.808"/>
<circle style="fill:#E56353;" cx="268.92" cy="132.88" r="4.808"/>
<path style="fill:#EBF0F3;" d="M142.667,140.291h29.69l-1.747-5.168c-0.288-0.85-1.084-1.422-1.982-1.422h-28.267  c0.062,0.141,0.161,0.256,0.211,0.404L142.667,140.291z"/>
<path style="fill:#3A556A;" d="M279.622,143.477H141.881c-0.897,0-1.694-0.572-1.982-1.421l-2.344-6.932  c-0.287-0.85-1.084-1.422-1.981-1.422h-21.663c-0.897,0-1.694,0.572-1.982,1.422l-2.344,6.932c-0.288,0.849-1.084,1.421-1.981,1.421  h-3.228v14.595h175.244V143.477z"/>
<g>
	<path style="fill:#FFFFFF;" d="M136.218,152.686h-19.105c-1.055,0-1.91-0.856-1.91-1.912s0.856-1.912,1.91-1.912h19.105   c1.055,0,1.91,0.856,1.91,1.912S137.273,152.686,136.218,152.686z"/>
	<path style="fill:#FFFFFF;" d="M168.887,152.686h-19.105c-1.055,0-1.91-0.856-1.91-1.912s0.856-1.912,1.91-1.912h19.105   c1.055,0,1.91,0.856,1.91,1.912S169.942,152.686,168.887,152.686z"/>
	<path style="fill:#FFFFFF;" d="M201.552,152.686H182.45c-1.055,0-1.91-0.856-1.91-1.912s0.856-1.912,1.91-1.912h19.102   c1.055,0,1.911,0.856,1.911,1.912S202.607,152.686,201.552,152.686z"/>
	<path style="fill:#FFFFFF;" d="M234.22,152.686h-19.105c-1.055,0-1.911-0.856-1.911-1.912s0.856-1.912,1.911-1.912h19.105   c1.055,0,1.911,0.856,1.911,1.912S235.275,152.686,234.22,152.686z"/>
	<path style="fill:#FFFFFF;" d="M266.886,152.686h-19.102c-1.055,0-1.91-0.856-1.91-1.912s0.856-1.912,1.91-1.912h19.102   c1.055,0,1.91,0.856,1.91,1.912S267.941,152.686,266.886,152.686z"/>
	<rect x="104.36" y="158.08" style="fill:#FFFFFF;" width="175.244" height="84.64"/>
</g>
<path style="fill:#E56353;" d="M140.967,222.844c-1.068,4.181-1.638,8.562-1.638,13.076c0,2.296,0.154,4.555,0.44,6.772h13.201  c-0.382-2.206-0.622-4.46-0.622-6.772c0-21.865,17.788-39.653,39.653-39.653s39.653,17.788,39.653,39.653  c0,2.313-0.24,4.567-0.622,6.772h13.2c0.286-2.218,0.44-4.476,0.44-6.772c0-4.514-0.57-8.895-1.638-13.076l8.115-7.196  c1.307-1.159,1.62-3.079,0.745-4.593l-8.412-14.572c-0.875-1.514-2.692-2.204-4.35-1.651l-10.312,3.438  c-6.236-6.1-13.98-10.656-22.622-13.07l-2.177-10.64c-0.351-1.712-1.857-2.942-3.604-2.942h-16.827c-1.748,0-3.254,1.23-3.606,2.942  l-2.176,10.64c-8.642,2.414-16.386,6.97-22.624,13.07l-10.312-3.438c-1.657-0.553-3.476,0.137-4.349,1.651l-8.414,14.572  c-0.874,1.513-0.562,3.433,0.746,4.592L140.967,222.844z"/>
<path style="fill:#D15241;" d="M160.106,242.693c-0.464-2.186-0.717-4.45-0.717-6.772c0-17.982,14.629-32.611,32.611-32.611  s32.611,14.629,32.611,32.611c0,2.323-0.253,4.586-0.717,6.772h7.137c0.382-2.206,0.622-4.46,0.622-6.772  c0-21.865-17.788-39.653-39.653-39.653s-39.653,17.788-39.653,39.653c0,2.313,0.24,4.567,0.622,6.772H160.106z"/>
<path style="fill:#CE412D;" d="M209.558,242.693c0.814-2.108,1.305-4.378,1.305-6.772c0-10.418-8.445-18.864-18.863-18.864  c-10.418,0-18.864,8.446-18.864,18.864c0,2.394,0.492,4.664,1.305,6.772H209.558z"/>
<g>
</g>
<g>
</g>
<g>
</g>
<g>
</g>
<g>
</g>
<g>
</g>
<g>
</g>
<g>
</g>
<g>
</g>
<g>
</g>
<g>
</g>
<g>
</g>
<g>
</g>
<g>
</g>
<g>
</g>
</svg>
