<?xml version="1.0" encoding="iso-8859-1"?>
<!-- Generator: Adobe Illustrator 19.0.0, SVG Export Plug-In . SVG Version: 6.00 Build 0)  -->
<svg xmlns="http://www.w3.org/2000/svg" xmlns:xlink="http://www.w3.org/1999/xlink" version="1.1" id="Capa_1" x="0px" y="0px" viewBox="0 0 384 384" style="enable-background:new 0 0 384 384;" xml:space="preserve">
<circle style="fill:#334D5C;" cx="192" cy="192" r="192"/>
<path style="opacity:0.1;enable-background:new    ;" d="M380.806,226.737L276.64,122.571c-1.52-2.16-4.32-3.16-6.92-2.28l-17,5.681  c-1.36-1.32-2.76-2.6-4.2-3.84l-38.08-38.041l-0.24-0.239c-1.08-1.16-2.64-1.841-4.32-1.841h-27.76c-2.88,0-5.36,2-5.96,4.841  l-3.56,17.56c-14.28,3.96-27.04,11.48-37.32,21.56l-17-5.681c-2.76-0.92-5.76,0.24-7.2,2.72L93.2,147.052c-1.28,2.199-1,5,0.6,6.879  l0.64,0.681l13.12,13.08c-1.6,6.52-2.44,13.36-2.44,20.36c0,7.44,0.96,14.68,2.72,21.6l-13.4,11.84c-2.16,1.92-2.68,5.08-1.24,7.6  l2.76,4.761h-8.24c-3.16,0-5.72,2.56-5.72,5.72v56.68c0,1.641,0.72,3.16,1.84,4.2l0.04,0.04l81.648,81.648  c8.658,1.194,17.485,1.86,26.472,1.86C286.171,384,364.451,316.184,380.806,226.737z"/>
<path style="fill:#E56353;" d="M276.177,209.631c1.761-6.897,2.702-14.123,2.702-21.569s-0.941-14.672-2.702-21.569l13.385-11.869  c2.157-1.912,2.672-5.079,1.229-7.576l-13.876-24.035c-1.443-2.496-4.44-3.635-7.176-2.723l-17.009,5.67  c-10.286-10.061-23.06-17.577-37.315-21.559l-3.592-17.55c-0.579-2.824-3.063-4.852-5.945-4.852h-27.756  c-2.883,0-5.368,2.028-5.947,4.852l-3.59,17.55c-14.255,3.982-27.029,11.498-37.317,21.559l-17.009-5.67  c-2.734-0.912-5.733,0.227-7.174,2.723l-13.88,24.036c-1.441,2.497-0.926,5.663,1.231,7.576l13.385,11.869  c-1.761,6.897-2.702,14.123-2.702,21.569s0.941,14.672,2.702,21.569L94.438,221.5c-2.156,1.913-2.672,5.079-1.231,7.576  l13.88,24.036c1.441,2.497,4.44,3.635,7.174,2.724l17.009-5.671c10.288,10.061,23.062,17.577,37.317,21.558l3.59,17.55  c0.579,2.824,3.064,4.852,5.947,4.852h27.756c2.882,0,5.366-2.028,5.945-4.852l3.592-17.55  c14.254-3.982,27.027-11.497,37.315-21.558l17.009,5.67c2.736,0.912,5.733-0.226,7.176-2.723l13.876-24.036  c1.443-2.497,0.928-5.663-1.229-7.576L276.177,209.631z M192.001,253.469c-36.065,0-65.406-29.34-65.406-65.407  c0-36.066,29.341-65.406,65.406-65.406c36.065,0,65.406,29.34,65.406,65.406C257.407,224.128,228.066,253.469,192.001,253.469z"/>
<path style="fill:#27A2DB;" d="M192,120.692c-37.147,0-67.371,30.224-67.371,67.371s30.224,67.371,67.371,67.371  c37.147,0,67.371-30.224,67.371-67.371S229.147,120.692,192,120.692z"/>
<path style="fill:#2D93BA;" d="M192,120.692c-37.147,0-67.371,30.224-67.371,67.371s30.224,67.371,67.371,67.371  c37.147,0,67.371-30.224,67.371-67.371S229.147,120.692,192,120.692z M194.45,161.337c8.549-0.11,17.119-0.793,25.854-2.061  c2.115,7.939,3.384,16.869,3.572,26.337H194.45V161.337z M194.45,156.425v-30.632c10.271,1.536,19.193,12.625,24.45,28.736  C210.645,155.697,202.539,156.318,194.45,156.425z M189.55,125.794v30.631c-8.088-0.107-16.192-0.729-24.448-1.896  C170.36,138.418,179.281,127.33,189.55,125.794z M189.55,161.336v24.276h-29.424c0.188-9.469,1.457-18.399,3.572-26.338  C172.435,160.543,181.003,161.226,189.55,161.336z M155.228,185.612h-25.636c0.445-11.461,3.992-22.133,9.824-31.212  c6.6,1.666,13.047,3.05,19.379,4.117C156.661,166.709,155.41,175.87,155.228,185.612z M155.228,190.512  c0.182,9.742,1.434,18.901,3.567,27.092c-6.333,1.068-12.78,2.452-19.379,4.12c-5.832-9.078-9.379-19.751-9.824-31.212H155.228z   M160.126,190.512h29.424v24.274c-8.548,0.11-17.117,0.793-25.852,2.061C161.583,208.909,160.314,199.98,160.126,190.512z   M189.55,219.699v30.632c-10.269-1.536-19.191-12.626-24.448-28.736C173.357,220.428,181.462,219.806,189.55,219.699z   M194.45,250.331v-30.632c8.088,0.107,16.194,0.729,24.45,1.897C213.642,237.706,204.72,248.795,194.45,250.331z M194.45,214.787  v-24.275h29.426c-0.188,9.469-1.457,18.398-3.572,26.338C211.568,215.581,202.999,214.898,194.45,214.787z M228.775,190.512h25.634  c-0.445,11.462-3.993,22.134-9.825,31.213c-6.599-1.666-13.046-3.051-19.377-4.119C227.341,209.416,228.593,200.255,228.775,190.512  z M228.775,185.612c-0.182-9.742-1.434-18.902-3.568-27.093c6.332-1.067,12.78-2.452,19.378-4.118  c5.832,9.078,9.379,19.75,9.824,31.211H228.775z M241.565,150.1c-6.028,1.477-11.931,2.709-17.736,3.67  c-3.518-11.091-8.718-20.069-15.009-25.859C222.005,131.603,233.438,139.514,241.565,150.1z M175.18,127.91  c-6.29,5.79-11.49,14.767-15.007,25.858c-5.805-0.961-11.708-2.193-17.737-3.67C150.563,139.513,161.996,131.602,175.18,127.91z   M142.435,226.026c6.028-1.477,11.932-2.71,17.737-3.671c3.517,11.091,8.717,20.07,15.008,25.859  C161.996,244.523,150.563,236.612,142.435,226.026z M208.82,248.214c6.291-5.79,11.491-14.767,15.008-25.858  c5.804,0.961,11.707,2.194,17.735,3.67C233.436,236.612,222.004,244.522,208.82,248.214z"/>
<path style="fill:#EBF0F3;" d="M296.262,233.852H87.738c-3.169,0-5.738,2.569-5.738,5.738v56.672c0,3.169,2.569,5.738,5.738,5.738  h208.525c3.169,0,5.738-2.569,5.738-5.738V239.59C302,236.421,299.431,233.852,296.262,233.852z"/>
<circle style="fill:#44C4A1;" cx="246.8" cy="289.04" r="5.076"/>
<g>
	<circle style="fill:#E56353;" cx="265" cy="289.04" r="5.076"/>
	<circle style="fill:#E56353;" cx="283.24" cy="289.04" r="5.076"/>
</g>
<g>
</g>
<g>
</g>
<g>
</g>
<g>
</g>
<g>
</g>
<g>
</g>
<g>
</g>
<g>
</g>
<g>
</g>
<g>
</g>
<g>
</g>
<g>
</g>
<g>
</g>
<g>
</g>
<g>
</g>
</svg>
