<?xml version="1.0" encoding="iso-8859-1"?>
<!-- Generator: Adobe Illustrator 19.0.0, SVG Export Plug-In . SVG Version: 6.00 Build 0)  -->
<svg xmlns="http://www.w3.org/2000/svg" xmlns:xlink="http://www.w3.org/1999/xlink" version="1.1" id="Capa_1" x="0px" y="0px" viewBox="0 0 384 384" style="enable-background:new 0 0 384 384;" xml:space="preserve">
<circle style="fill:#E05B49;" cx="192" cy="192" r="192"/>
<path style="opacity:0.1;enable-background:new    ;" d="M384,192c0-3.666-0.126-7.302-0.329-10.917L284.6,82.011H87.36  c-2.96,0-5.36,2.4-5.36,5.32v209.32c0,1.44,0.56,2.76,1.52,3.72l0.24,0.24l81.494,81.493C173.999,383.324,182.919,384,192,384  C298.039,384,384,298.039,384,192z"/>
<path style="fill:#FFFFFF;" d="M87.346,82h133.285c2.953,0,5.347,2.394,5.347,5.346v209.308c0,2.952-2.394,5.346-5.347,5.346H87.346  c-2.952,0-5.346-2.394-5.346-5.346V87.346C82,84.394,84.394,82,87.346,82z"/>
<path style="fill:#64798A;" d="M87.346,82h133.285c2.953,0,5.347,2.394,5.347,5.346v31.274H82V87.346C82,84.394,84.394,82,87.346,82  z"/>
<rect x="155.74" y="94.288" style="fill:#EBF0F3;" width="61.808" height="12.08"/>
<circle style="fill:#FCD462;" cx="138.468" cy="100.32" r="6.04"/>
<circle style="fill:#44C4A1;" cx="116.92" cy="100.32" r="6.04"/>
<circle style="fill:#E56353;" cx="95.412" cy="100.32" r="6.04"/>
<g>
	<rect x="94.308" y="138.16" style="fill:#64798A;" width="18.588" height="6.072"/>
	<rect x="94.308" y="160.52" style="fill:#64798A;" width="18.588" height="6.072"/>
	<rect x="221" y="160.52" style="fill:#64798A;" width="18.584" height="6.072"/>
	<rect x="94.308" y="182.896" style="fill:#64798A;" width="18.588" height="6.072"/>
</g>
<rect x="196.88" y="182.896" style="fill:#E56353;" width="18.588" height="6.072"/>
<rect x="239.588" y="182.896" style="fill:#27A2DB;" width="18.588" height="6.072"/>
<g>
	<rect x="94.308" y="205.24" style="fill:#64798A;" width="18.588" height="6.072"/>
	<rect x="94.308" y="227.62" style="fill:#64798A;" width="18.588" height="6.072"/>
	<rect x="94.308" y="250" style="fill:#64798A;" width="18.588" height="6.072"/>
	<rect x="94.308" y="272.36" style="fill:#64798A;" width="18.588" height="6.072"/>
</g>
<rect x="196.88" y="272.36" style="fill:#E56353;" width="18.588" height="6.072"/>
<rect x="242.64" y="272.36" style="fill:#FCD462;" width="18.588" height="6.072"/>
<rect x="126" y="138.16" style="fill:#E56353;" width="18.588" height="6.072"/>
<rect x="164.2" y="138.16" style="fill:#64798A;" width="18.584" height="6.072"/>
<g>
	<rect x="202.4" y="138.16" style="fill:#44C4A1;" width="18.588" height="6.072"/>
	<rect x="144.6" y="160.52" style="fill:#44C4A1;" width="48.648" height="6.072"/>
</g>
<rect x="126" y="182.896" style="fill:#64798A;" width="54.04" height="6.072"/>
<rect x="143.74" y="205.24" style="fill:#44C4A1;" width="18.588" height="6.072"/>
<rect x="180.04" y="205.24" style="fill:#DC8744;" width="55.956" height="6.072"/>
<rect x="126" y="227.62" style="fill:#E56353;" width="18.588" height="6.072"/>
<rect x="164.2" y="227.62" style="fill:#64798A;" width="18.584" height="6.072"/>
<rect x="202.4" y="227.62" style="fill:#FCD462;" width="55.756" height="6.072"/>
<g>
	<rect x="126" y="250" style="fill:#64798A;" width="18.588" height="6.072"/>
	<rect x="248.88" y="250" style="fill:#64798A;" width="18.584" height="6.072"/>
</g>
<rect x="164.2" y="250" style="fill:#27A2DB;" width="61.764" height="6.072"/>
<rect x="126" y="272.36" style="fill:#DC8744;" width="54.04" height="6.072"/>
<path style="fill:#64798A;" d="M204.863,257.04c-9.316,0-16.895-7.579-16.895-16.892v-96.295c0-9.314,7.579-16.892,16.895-16.892  h80.246c9.312,0,16.891,7.579,16.891,16.892v96.295c0,9.314-7.579,16.892-16.891,16.892H204.863z"/>
<path style="fill:#3A556A;" d="M285.108,135.31h-80.246c-4.719,0-8.543,3.825-8.543,8.542v96.296c0,4.718,3.824,8.542,8.543,8.542  h80.246c4.717,0,8.542-3.825,8.542-8.542v-96.296C293.65,139.134,289.825,135.31,285.108,135.31z"/>
<circle style="fill:#EBF0F3;" cx="245" cy="192" r="18.772"/>
<g>
	<circle style="fill:#FCD462;" cx="245" cy="161.8" r="7.808"/>
	<circle style="fill:#FCD462;" cx="245" cy="222.2" r="7.808"/>
</g>
<circle style="fill:#27A2DB;" cx="275.16" cy="192" r="7.808"/>
<g>
	<circle style="fill:#E56353;" cx="214.8" cy="192" r="7.808"/>
	<ellipse style="fill:#E56353;" cx="266.325" cy="170.672" rx="7.808" ry="7.808"/>
</g>
<ellipse style="fill:#44C4A1;" cx="223.649" cy="213.371" rx="7.808" ry="7.808"/>
<ellipse style="fill:#64798A;" cx="266.337" cy="213.351" rx="7.808" ry="7.808"/>
<ellipse style="fill:#27A2DB;" cx="223.642" cy="170.652" rx="7.808" ry="7.808"/>
<g>
	<path style="fill:#3A556A;" d="M284.588,105.782V82h-79.207v23.782c0,1.484-0.074,2.966-0.224,4.442l-1.692,16.735h83.039   l-1.692-16.735C284.662,108.749,284.588,107.266,284.588,105.782z"/>
	<path style="fill:#3A556A;" d="M205.381,278.218V302h79.207v-23.782c0-1.484,0.074-2.966,0.224-4.442l1.692-16.735h-83.039   l1.692,16.735C205.306,275.251,205.381,276.734,205.381,278.218z"/>
</g>
<g>
</g>
<g>
</g>
<g>
</g>
<g>
</g>
<g>
</g>
<g>
</g>
<g>
</g>
<g>
</g>
<g>
</g>
<g>
</g>
<g>
</g>
<g>
</g>
<g>
</g>
<g>
</g>
<g>
</g>
</svg>
