<?xml version="1.0" encoding="iso-8859-1"?>
<!-- Generator: Adobe Illustrator 19.0.0, SVG Export Plug-In . SVG Version: 6.00 Build 0)  -->
<svg xmlns="http://www.w3.org/2000/svg" xmlns:xlink="http://www.w3.org/1999/xlink" version="1.1" id="Capa_1" x="0px" y="0px" viewBox="0 0 384 384" style="enable-background:new 0 0 384 384;" xml:space="preserve">
<circle style="fill:#334D5C;" cx="192" cy="192" r="192"/>
<path style="opacity:0.1;enable-background:new    ;" d="M300.84,83.812c-0.92-1.08-2.28-1.801-3.84-1.801H186.36  c-0.4,0-0.76,0.121-1.12,0.2C127.72,85.731,82,133.611,82,192.011c0,28.68,11,54.841,29.12,74.44c2.16,2.4,4.48,4.72,6.92,6.92  l0.04,0.04l107.556,107.592C315.627,365.091,384,286.556,384,192c0-9.136-0.681-18.108-1.915-26.904L300.84,83.852V83.812z"/>
<path style="fill:#27A2DB;" d="M192,82c-60.652,0-110,49.348-110,110s49.348,110,110,110c60.652,0,110-49.348,110-110  S252.652,82,192,82z"/>
<path style="fill:#2D93BA;" d="M192,82c-60.652,0-110,49.348-110,110s49.348,110,110,110c60.652,0,110-49.348,110-110  S252.652,82,192,82z M196,148.364c13.959-0.18,27.951-1.295,42.214-3.365c3.453,12.962,5.525,27.542,5.832,43.002H196V148.364z   M196,140.344V90.33c16.77,2.508,31.338,20.614,39.922,46.919C222.442,139.155,209.208,140.17,196,140.344z M188,90.331v50.013  c-13.205-0.175-26.438-1.19-39.917-3.096C156.667,110.944,171.232,92.839,188,90.331z M188,148.363V188h-48.042  c0.307-15.46,2.379-30.041,5.833-43.004C160.055,147.067,174.045,148.182,188,148.363z M131.96,188H90.102  c0.726-18.713,6.518-36.139,16.041-50.961c10.776,2.72,21.303,4.98,31.642,6.722C134.301,157.136,132.257,172.092,131.96,188z   M131.96,196c0.296,15.906,2.341,30.861,5.823,44.235c-10.339,1.743-20.866,4.004-31.641,6.726  C96.62,232.138,90.828,214.713,90.102,196H131.96z M139.958,196H188v39.634c-13.958,0.18-27.948,1.294-42.21,3.365  C142.336,226.037,140.265,211.459,139.958,196z M188,243.655v50.014c-16.768-2.508-31.334-20.614-39.918-46.919  C161.56,244.844,174.794,243.83,188,243.655z M196,293.67v-50.014c13.206,0.175,26.44,1.19,39.921,3.098  C227.336,273.057,212.77,291.162,196,293.67z M196,235.635V196h48.046c-0.307,15.46-2.379,30.04-5.833,43.004  C223.949,236.932,209.958,235.816,196,235.635z M252.044,196h41.854c-0.726,18.714-6.52,36.14-16.042,50.963  c-10.774-2.72-21.3-4.981-31.638-6.724C249.703,226.864,251.747,211.908,252.044,196z M252.044,188  c-0.297-15.907-2.341-30.863-5.825-44.236c10.339-1.743,20.866-4.003,31.639-6.724c9.522,14.822,15.314,32.247,16.04,50.96H252.044z   M272.927,130.016c-9.842,2.411-19.48,4.424-28.958,5.992c-5.743-18.11-14.234-32.768-24.505-42.222  C240.99,99.815,259.657,112.732,272.927,130.016z M164.537,93.787c-10.27,9.453-18.76,24.111-24.503,42.22  c-9.478-1.569-19.117-3.581-28.96-5.992C124.344,112.731,143.011,99.814,164.537,93.787z M111.073,253.985  c9.843-2.412,19.482-4.424,28.96-5.993c5.743,18.11,14.233,32.769,24.504,42.222C143.011,284.186,124.344,271.269,111.073,253.985z   M219.464,290.213c10.271-9.453,18.762-24.111,24.505-42.219c9.476,1.569,19.114,3.582,28.956,5.993  C259.655,271.27,240.989,284.185,219.464,290.213z"/>
<path style="fill:#FCD462;" d="M297,82H186.37c-2.761,0-4.999,2.238-4.999,4.999v66.443c0,2.761,2.238,4.999,4.999,4.999h15.377  c1.216,0,2.202,0.986,2.202,2.202v19.664c0,1.962,2.372,2.944,3.759,1.557l22.777-22.777c0.413-0.413,0.973-0.645,1.557-0.645H297  c2.761,0,5-2.238,5-4.999V86.999C302,84.238,299.762,82,297,82z"/>
<g>
	<path style="fill:#E56353;" d="M195.851,105.401l2.905,11.801c0.636,2.59,1.227,4.988,1.637,7.387h0.133   c0.499-2.348,1.227-4.844,1.951-7.34l3.588-11.848h3.355l3.407,11.609c0.816,2.782,1.452,5.231,1.951,7.578h0.136   c0.362-2.348,0.95-4.797,1.678-7.531l3.13-11.656h3.95l-7.08,23.219h-3.633l-3.355-11.082c-0.772-2.59-1.408-4.895-1.955-7.629   h-0.089c-0.543,2.785-1.227,5.183-1.995,7.676l-3.54,11.035h-3.632l-6.626-23.219H195.851z"/>
	<path style="fill:#E56353;" d="M229.814,105.401l2.904,11.801c0.636,2.59,1.227,4.988,1.634,7.387h0.136   c0.499-2.348,1.227-4.844,1.951-7.34l3.588-11.848h3.356l3.407,11.609c0.817,2.782,1.452,5.231,1.951,7.578h0.133   c0.366-2.348,0.953-4.797,1.681-7.531l3.13-11.656h3.95l-7.08,23.219h-3.632l-3.355-11.082c-0.772-2.59-1.408-4.895-1.951-7.629   h-0.092c-0.543,2.785-1.227,5.183-1.996,7.676l-3.54,11.035h-3.632l-6.626-23.219H229.814z"/>
	<path style="fill:#E56353;" d="M263.782,105.401l2.904,11.801c0.636,2.59,1.227,4.988,1.633,7.387h0.137   c0.499-2.348,1.227-4.844,1.951-7.34l3.588-11.848h3.356l3.407,11.609c0.817,2.782,1.452,5.231,1.951,7.578h0.133   c0.366-2.348,0.953-4.797,1.681-7.531l3.13-11.656h3.95l-7.08,23.219h-3.632l-3.355-11.082c-0.772-2.59-1.408-4.895-1.951-7.629   h-0.092c-0.543,2.785-1.227,5.183-1.996,7.676l-3.54,11.035h-3.632l-6.626-23.219H263.782z"/>
</g>
<g>
</g>
<g>
</g>
<g>
</g>
<g>
</g>
<g>
</g>
<g>
</g>
<g>
</g>
<g>
</g>
<g>
</g>
<g>
</g>
<g>
</g>
<g>
</g>
<g>
</g>
<g>
</g>
<g>
</g>
</svg>
