<?xml version="1.0" encoding="iso-8859-1"?>
<!-- Generator: Adobe Illustrator 19.0.0, SVG Export Plug-In . SVG Version: 6.00 Build 0)  -->
<svg xmlns="http://www.w3.org/2000/svg" xmlns:xlink="http://www.w3.org/1999/xlink" version="1.1" id="Capa_1" x="0px" y="0px" viewBox="0 0 384 384" style="enable-background:new 0 0 384 384;" xml:space="preserve">
<circle style="fill:#45B39C;" cx="192" cy="192" r="192"/>
<path style="opacity:0.1;enable-background:new    ;" d="M261.84,82.011H86.48c-2.48,0-4.48,2-4.48,4.48v175.32  c0,1.24,0.48,2.32,1.28,3.119l118.803,118.805c98.016-5.072,176.589-83.648,181.653-181.668L264.92,83.251  C264.12,82.491,263.04,82.011,261.84,82.011z"/>
<g>
	<path style="fill:#FFFFFF;" d="M197.451,255.035c-0.108-0.684-0.161-1.376-0.242-2.065h-9.014v-5.345h8.643   c-0.005-0.302-0.035-0.603-0.035-0.906c0-2.414,0.195-4.818,0.518-7.2h-40.47v-5.345h36.032c-3.03-3.544-3.6-8.703-1.22-12.828   l5.041-8.731h-24.645v-5.345h28.026c2.099-2.49,5.164-4.037,8.48-4.037c1.199,0,2.387,0.191,3.527,0.572l4.488,1.496   c3.836-3.103,8.108-5.627,12.636-7.56v-3.922h2.401l0.299-1.455c1.055-5.17,5.652-8.926,10.934-8.926h14.469   c3.642,0,6.928,1.811,8.983,4.616v-75.375H82v149.145c0,2.474,2.005,4.479,4.478,4.479h103.724c0.064-3.038,1.334-6.022,3.722-8.14   L197.451,255.035z M174.694,220.72v5.345H156.85v-5.345H174.694z M184.726,185.71h-46.705v-5.345h46.705V185.71z M206.039,199.163   h-17.844v-5.345h17.844V199.163z M193.528,172.258v-5.345h17.844v5.345H193.528z M229.216,185.71h-17.844v-5.345h17.844V185.71z    M206.524,123.538h5.437v32.211h-5.437V123.538z M175.006,123.538h11.06c4.886,0,8.449,0.938,10.692,2.809   c2.242,1.876,3.363,4.763,3.363,8.663c0,3.904-1.144,6.762-3.436,8.573c-2.287,1.811-5.797,2.719-10.526,2.719h-5.716v9.447h-5.437   V123.538z M174.694,172.258H156.85v-5.345h17.844V172.258z M150.535,123.538h5.806l14.194,32.211h-5.809l-3.224-7.328h-16.131   l-3.225,7.328h-5.806L150.535,123.538z M120.178,166.913h17.844v5.345h-17.844V166.913z M120.178,193.818h51.881v5.345h-51.881   V193.818z M155.039,207.269v5.345h-17.843v-5.345H155.039z M120.178,220.72h17.844v5.345h-17.844V220.72z M120.178,234.174h17.844   v5.345h-17.844V234.174z M110.27,252.97H92.426v-5.345h17.844V252.97z M110.27,239.519H92.426v-5.345h17.844V239.519z    M110.27,226.065H92.426v-5.345h17.844V226.065z M110.27,212.614H92.426v-5.345h17.844V212.614z M110.27,199.163H92.426v-5.345   h17.844V199.163z M110.27,185.71H92.426v-5.345h17.844V185.71z M110.27,172.258H92.426v-5.345h17.844V172.258z M172.058,252.97   h-51.881v-5.345h51.881V252.97z"/>
	<polygon style="fill:#FFFFFF;" points="153.438,130.128 147.584,143.4 159.289,143.4  "/>
	<path style="fill:#FFFFFF;" d="M192.91,139.642c1.091-1.151,1.635-2.839,1.635-5.067c0-2.227-0.69-3.802-2.074-4.725   c-1.384-0.923-3.548-1.38-6.499-1.38h-5.528v12.901h6.313C189.766,141.371,191.818,140.797,192.91,139.642z"/>
</g>
<path style="fill:#64798A;" d="M266.302,86.478c0-2.473-2.005-4.478-4.479-4.478H86.478C84.005,82,82,84.005,82,86.478v26.2h184.302  V86.478z M93.235,102.398c-2.794,0-5.058-2.265-5.058-5.058c0-2.794,2.264-5.059,5.058-5.059s5.059,2.265,5.059,5.059  C98.294,100.133,96.029,102.398,93.235,102.398z M111.27,102.398c-2.793,0-5.059-2.265-5.059-5.058c0-2.794,2.266-5.059,5.059-5.059  c2.794,0,5.058,2.265,5.058,5.059C116.328,100.133,114.064,102.398,111.27,102.398z M129.305,102.398  c-2.794,0-5.059-2.265-5.059-5.058c0-2.794,2.265-5.059,5.059-5.059c2.793,0,5.058,2.265,5.058,5.059  C134.363,100.133,132.098,102.398,129.305,102.398z M259.232,102.398H143.768V92.28h115.465V102.398z"/>
<rect x="143.768" y="92.28" style="fill:#EBF0F3;" width="115.464" height="10.116"/>
<circle style="fill:#FCD462;" cx="129.32" cy="97.32" r="5.06"/>
<circle style="fill:#44C4A1;" cx="111.268" cy="97.32" r="5.06"/>
<circle style="fill:#E56353;" cx="93.24" cy="97.32" r="5.06"/>
<g>
	<rect x="92.44" y="166.912" style="fill:#64798A;" width="17.844" height="5.344"/>
	<rect x="92.44" y="180.36" style="fill:#64798A;" width="17.844" height="5.344"/>
	<rect x="211.372" y="180.36" style="fill:#64798A;" width="17.844" height="5.344"/>
	<rect x="92.44" y="193.8" style="fill:#64798A;" width="17.844" height="5.344"/>
</g>
<rect x="188.2" y="193.8" style="fill:#E56353;" width="17.844" height="5.344"/>
<path style="fill:#27A2DB;" d="M229.216,197.74c0.585-0.25,1.157-0.526,1.751-0.755l0.65-3.168h-2.401V197.74z"/>
<g>
	<rect x="92.44" y="207.268" style="fill:#64798A;" width="17.844" height="5.344"/>
	<rect x="92.44" y="220.72" style="fill:#64798A;" width="17.844" height="5.344"/>
	<rect x="92.44" y="234.16" style="fill:#64798A;" width="17.844" height="5.344"/>
	<rect x="92.44" y="247.624" style="fill:#64798A;" width="17.844" height="5.344"/>
</g>
<g>
	<path style="fill:#E56353;" d="M188.195,252.97h9.014c-0.208-1.772-0.341-3.554-0.371-5.345h-8.643V252.97z"/>
	<rect x="120.16" y="166.912" style="fill:#E56353;" width="17.844" height="5.344"/>
</g>
<rect x="156.84" y="166.912" style="fill:#64798A;" width="17.844" height="5.344"/>
<g>
	<rect x="193.52" y="166.912" style="fill:#44C4A1;" width="17.844" height="5.344"/>
	<rect x="138.04" y="180.36" style="fill:#44C4A1;" width="46.704" height="5.344"/>
</g>
<rect x="120.16" y="193.8" style="fill:#64798A;" width="51.88" height="5.344"/>
<rect x="137.2" y="207.268" style="fill:#44C4A1;" width="17.844" height="5.344"/>
<path style="fill:#DC8744;" d="M172.058,212.614h24.645l2.193-3.8c0.33-0.572,0.77-1.049,1.188-1.545h-28.026V212.614z"/>
<rect x="120.16" y="220.72" style="fill:#E56353;" width="17.844" height="5.344"/>
<g>
	<rect x="156.84" y="220.72" style="fill:#64798A;" width="17.844" height="5.344"/>
	<rect x="120.16" y="234.16" style="fill:#64798A;" width="17.844" height="5.344"/>
</g>
<path style="fill:#27A2DB;" d="M156.85,239.519h40.47c0.051-0.371,0.073-0.747,0.131-1.117l-3.527-3.125  c-0.384-0.341-0.715-0.721-1.042-1.103H156.85V239.519z"/>
<rect x="120.16" y="247.624" style="fill:#DC8744;" width="51.88" height="5.344"/>
<g>
	<path style="fill:#E56353;" d="M145.371,148.421h16.131l3.224,7.328h5.809l-14.194-32.211h-5.806l-14.194,32.211h5.806   L145.371,148.421z M153.438,130.128l5.851,13.272h-11.705L153.438,130.128z"/>
	<path style="fill:#E56353;" d="M180.443,146.302h5.716c4.73,0,8.239-0.908,10.526-2.719c2.292-1.812,3.436-4.669,3.436-8.573   c0-3.9-1.121-6.788-3.363-8.663c-2.243-1.871-5.806-2.809-10.692-2.809h-11.06v32.211h5.437V146.302z M180.443,128.47h5.528   c2.951,0,5.115,0.458,6.499,1.38c1.384,0.922,2.074,2.498,2.074,4.725c0,2.228-0.544,3.916-1.635,5.067   c-1.092,1.155-3.144,1.729-6.154,1.729h-6.313V128.47z"/>
	<rect x="206.52" y="123.54" style="fill:#E56353;" width="5.436" height="32.2"/>
</g>
<path style="fill:#EBF0F3;" d="M266.302,261.823v-73.77c-2.056-2.805-5.341-4.616-8.983-4.616H242.85  c-5.281,0-9.879,3.756-10.934,8.926l-0.299,1.455h15.441v5.345h-17.842v-1.423c-4.528,1.933-8.8,4.457-12.636,7.56l-4.488-1.496  c-1.14-0.381-2.328-0.572-3.527-0.572c-3.315,0-6.381,1.547-8.48,4.037h25.696v5.345h-29.077l-5.041,8.731  c-2.38,4.126-1.81,9.284,1.22,12.828h23.268v5.345H197.32c-0.322,2.382-0.518,4.785-0.518,7.2c0,0.303,0.03,0.604,0.035,0.906h9.201  v5.345h-8.83c0.081,0.688,0.135,1.381,0.242,2.065l-3.527,3.127c-2.388,2.118-3.658,5.102-3.722,8.14h71.62  C264.297,266.302,266.302,264.296,266.302,261.823z M193.528,226.065v-5.345h53.53v5.345H193.528z M249.976,252.97h-17.844v-5.345  h17.844V252.97z M255.98,239.519h-17.844v-5.345h17.844V239.519z"/>
<path style="fill:#3EA69B;" d="M229.216,197.74v1.423h17.842v-5.345h-15.441l-0.65,3.168  C230.373,197.214,229.801,197.491,229.216,197.74z"/>
<path style="fill:#D15241;" d="M206.039,252.97v-5.345h-9.201c0.03,1.792,0.163,3.573,0.371,5.345H206.039z"/>
<rect x="232.12" y="247.624" style="fill:#CE412D;" width="17.844" height="5.344"/>
<path style="fill:#C9773F;" d="M196.703,212.614h29.077v-5.345h-25.696c-0.418,0.496-0.858,0.973-1.188,1.545L196.703,212.614z"/>
<rect x="193.52" y="220.72" style="fill:#3EA69B;" width="53.528" height="5.344"/>
<rect x="238.12" y="234.16" style="fill:#CE412D;" width="17.844" height="5.344"/>
<path style="fill:#2D93BA;" d="M197.451,238.402c-0.058,0.37-0.08,0.746-0.131,1.117h18.829v-5.345h-23.268  c0.327,0.382,0.658,0.762,1.042,1.103L197.451,238.402z"/>
<path style="fill:#E56353;" d="M293.959,257.96c0.918-3.595,1.408-7.361,1.408-11.242c0-3.881-0.49-7.647-1.408-11.242l6.976-6.186  c1.124-0.997,1.392-2.647,0.641-3.949l-7.233-12.528c-0.752-1.301-2.314-1.894-3.74-1.419l-8.865,2.956  c-5.362-5.244-12.02-9.162-19.449-11.237l-1.872-9.147c-0.302-1.472-1.597-2.529-3.099-2.529h-14.467  c-1.503,0-2.798,1.057-3.1,2.529l-1.871,9.147c-7.43,2.075-14.088,5.992-19.45,11.237l-8.865-2.956  c-1.425-0.475-2.988,0.118-3.739,1.419l-7.234,12.528c-0.751,1.301-0.482,2.952,0.642,3.948l6.976,6.186  c-0.918,3.595-1.408,7.361-1.408,11.242c0,3.881,0.49,7.647,1.408,11.242l-6.976,6.186c-1.124,0.997-1.393,2.647-0.642,3.948  l7.234,12.528c0.751,1.302,2.314,1.894,3.739,1.42l8.865-2.956c5.362,5.244,12.02,9.162,19.45,11.237l1.871,9.148  c0.302,1.472,1.597,2.529,3.1,2.529h14.467c1.502,0,2.797-1.057,3.099-2.529l1.872-9.148c7.43-2.075,14.087-5.992,19.449-11.237  l8.865,2.956c1.426,0.475,2.988-0.118,3.74-1.419l7.233-12.528c0.752-1.302,0.483-2.952-0.641-3.948L293.959,257.96z   M250.085,280.809c-18.798,0-34.091-15.292-34.091-34.091c0-18.798,15.293-34.091,34.091-34.091  c18.798,0,34.091,15.292,34.091,34.091C284.176,265.517,268.882,280.809,250.085,280.809z"/>
<path style="fill:#D15241;" d="M250.085,212.627c-18.798,0-34.091,15.292-34.091,34.091c0,18.799,15.293,34.091,34.091,34.091  c18.798,0,34.091-15.292,34.091-34.091C284.176,227.92,268.882,212.627,250.085,212.627z M250.085,274.756  c-15.46,0-28.037-12.578-28.037-28.038c0-15.46,12.577-28.037,28.037-28.037c15.46,0,28.037,12.578,28.037,28.037  C278.122,262.178,265.544,274.756,250.085,274.756z"/>
<circle style="fill:#CE412D;" cx="250.08" cy="246.72" r="16.216"/>
<g>
</g>
<g>
</g>
<g>
</g>
<g>
</g>
<g>
</g>
<g>
</g>
<g>
</g>
<g>
</g>
<g>
</g>
<g>
</g>
<g>
</g>
<g>
</g>
<g>
</g>
<g>
</g>
<g>
</g>
</svg>
