<?xml version="1.0" encoding="iso-8859-1"?>
<!-- Generator: Adobe Illustrator 19.0.0, SVG Export Plug-In . SVG Version: 6.00 Build 0)  -->
<svg xmlns="http://www.w3.org/2000/svg" xmlns:xlink="http://www.w3.org/1999/xlink" version="1.1" id="Capa_1" x="0px" y="0px" viewBox="0 0 384 384" style="enable-background:new 0 0 384 384;" xml:space="preserve">
<circle style="fill:#EA8953;" cx="192" cy="192" r="192"/>
<path style="opacity:0.1;enable-background:new    ;" d="M300.24,83.411l-0.04-0.04c-0.96-0.84-2.2-1.36-3.56-1.36H87.36  c-2.96,0-5.36,2.4-5.36,5.32v209.32c0,1.72,0.84,3.279,2.12,4.24l0.04,0.039l81.185,81.186C174.062,383.327,182.95,384,192,384  c106.039,0,192-85.962,192-192c0-9.062-0.674-17.964-1.888-26.692L300.6,83.771L300.24,83.411z"/>
<path style="fill:#3A556A;" d="M296.654,82H87.347C84.394,82,82,84.394,82,87.346v31.274h220V87.346  C302,84.394,299.606,82,296.654,82z"/>
<circle style="fill:#FCD462;" cx="245.52" cy="100.32" r="6.04"/>
<circle style="fill:#44C4A1;" cx="267.08" cy="100.32" r="6.04"/>
<circle style="fill:#E56353;" cx="288.6" cy="100.32" r="6.04"/>
<path style="fill:#EBF0F3;" d="M130.068,114.62h37.273l-2.194-6.488c-0.361-1.066-1.361-1.784-2.487-1.784h-35.486  c0.077,0.177,0.202,0.321,0.265,0.506L130.068,114.62z"/>
<path style="fill:#64798A;" d="M302,118.62H129.081c-1.126,0-2.126-0.718-2.488-1.784l-2.942-8.703  c-0.36-1.066-1.361-1.784-2.487-1.784H93.969c-1.126,0-2.127,0.718-2.487,1.784l-2.942,8.703c-0.362,1.066-1.362,1.784-2.488,1.784  H82v18.323h220V118.62z"/>
<g>
	<path style="fill:#FFFFFF;" d="M82,296.654c0,2.952,2.394,5.346,5.346,5.346h209.309c2.952,0,5.346-2.394,5.346-5.346V136.943H82   V296.654z"/>
	<path style="fill:#FFFFFF;" d="M121.973,130.182H97.988c-1.324,0-2.398-1.074-2.398-2.4c0-1.326,1.074-2.4,2.398-2.4h23.984   c1.324,0,2.398,1.074,2.398,2.4C124.371,129.108,123.297,130.182,121.973,130.182z"/>
	<path style="fill:#FFFFFF;" d="M162.984,130.182H139c-1.324,0-2.398-1.074-2.398-2.4c0-1.326,1.074-2.4,2.398-2.4h23.984   c1.324,0,2.398,1.074,2.398,2.4C165.383,129.108,164.308,130.182,162.984,130.182z"/>
	<path style="fill:#FFFFFF;" d="M203.992,130.182h-23.98c-1.324,0-2.398-1.074-2.398-2.4c0-1.326,1.074-2.4,2.398-2.4h23.98   c1.324,0,2.399,1.074,2.399,2.4C206.391,129.108,205.316,130.182,203.992,130.182z"/>
	<path style="fill:#FFFFFF;" d="M245.004,130.182H221.02c-1.324,0-2.398-1.074-2.398-2.4c0-1.326,1.074-2.4,2.398-2.4h23.984   c1.324,0,2.398,1.074,2.398,2.4C247.402,129.108,246.328,130.182,245.004,130.182z"/>
	<path style="fill:#FFFFFF;" d="M286.012,130.182h-23.98c-1.324,0-2.398-1.074-2.398-2.4c0-1.326,1.074-2.4,2.398-2.4h23.98   c1.324,0,2.398,1.074,2.398,2.4C288.41,129.108,287.336,130.182,286.012,130.182z"/>
</g>
<path style="fill:#64798A;" d="M254.44,273.107L247.877,284c-3.014,5.002-9.536,6.618-14.538,3.604  c-5.002-3.014-6.62-9.536-3.606-14.537l6.564-10.892c3.014-5.002,9.536-6.62,14.538-3.606  C255.837,261.582,257.454,268.105,254.44,273.107z M233.791,275.512c-1.665,2.764-0.771,6.368,1.994,8.033  c2.764,1.666,6.368,0.772,8.034-1.991l6.563-10.892c1.666-2.765,0.772-6.369-1.992-8.035s-6.369-0.772-8.035,1.992L233.791,275.512z  "/>
<path style="fill:#3A556A;" d="M252.079,254.267l-1.501,0.136l-6.876,11.412c-0.676,1.121-0.314,2.577,0.806,3.252  c1.12,0.675,2.577,0.314,3.252-0.806l6.91-11.468l-1.406-0.154L252.079,254.267z"/>
<path style="fill:#64798A;" d="M287.718,259.718l-12.478,2.458c-5.73,1.129-11.309-2.615-12.438-8.345  c-1.129-5.73,2.614-11.31,8.344-12.439l12.477-2.458c5.73-1.128,11.31,2.615,12.439,8.345  C297.191,253.008,293.447,258.589,287.718,259.718z M272.062,246.04c-3.166,0.624-5.234,3.708-4.61,6.874  c0.624,3.166,3.707,5.236,6.873,4.612l12.477-2.458c3.168-0.624,5.236-3.708,4.612-6.874c-0.624-3.166-3.707-5.236-6.874-4.612  L272.062,246.04z"/>
<path style="fill:#3A556A;" d="M272.046,249.594l-13.256,2.612l1.109,1.02l-0.961,2.471l0.831,1.146l13.193-2.599  c1.284-0.253,2.12-1.498,1.867-2.782C274.576,250.177,273.33,249.342,272.046,249.594z"/>
<g>
	
		<rect x="243.356" y="244.628" transform="matrix(-0.5678 0.8232 -0.8232 -0.5678 587.287 188.185)" style="fill:#64798A;" width="1.772" height="7.272"/>
	
		<rect x="257.157" y="236.358" transform="matrix(-0.9938 0.111 -0.111 -0.9938 541.1307 449.8586)" style="fill:#64798A;" width="1.772" height="7.268"/>
	
		<rect x="250.236" y="241.112" transform="matrix(-0.8581 0.5135 -0.5135 -0.8581 591.9594 324.6547)" style="fill:#64798A;" width="1.772" height="6.012"/>
	
		<rect x="273.643" y="263.946" transform="matrix(-0.5678 0.8232 -0.8232 -0.5678 650.6736 193.5421)" style="fill:#64798A;" width="1.772" height="7.272"/>
	
		<rect x="259.835" y="272.2" transform="matrix(-0.9938 0.111 -0.111 -0.9938 550.448 521.0228)" style="fill:#64798A;" width="1.772" height="7.268"/>
	
		<rect x="266.77" y="268.697" transform="matrix(-0.8583 0.5132 -0.5132 -0.8583 636.8154 367.5359)" style="fill:#64798A;" width="1.772" height="6.012"/>
	<path style="fill:#64798A;" d="M142.631,181.791h-9.711c0.063,0.9,0.473,1.625,1.234,2.176c0.762,0.553,1.629,0.828,2.61,0.828   c1.551,0,2.73-0.49,3.539-1.467l1.488,1.629c-1.332,1.383-3.074,2.072-5.215,2.072c-1.738,0-3.219-0.578-4.438-1.734   c-1.219-1.156-1.828-2.709-1.828-4.658c0-1.947,0.621-3.496,1.863-4.644c1.242-1.15,2.707-1.725,4.391-1.725   c1.684,0,3.117,0.51,4.297,1.526c1.18,1.018,1.77,2.418,1.77,4.203V181.791z M132.92,179.74h7.102c0-1.039-0.324-1.84-0.976-2.398   c-0.652-0.559-1.457-0.838-2.41-0.838c-0.957,0-1.812,0.291-2.574,0.873C133.299,177.959,132.92,178.748,132.92,179.74z"/>
	<path style="fill:#64798A;" d="M151.99,176.9c-1.289,0-2.258,0.418-2.91,1.256c-0.652,0.84-0.977,1.965-0.977,3.377v5.311h-2.609   v-12.389h2.609v2.49c0.418-0.775,0.988-1.412,1.711-1.908c0.722-0.498,1.484-0.754,2.293-0.77l0.024,2.633   C152.084,176.9,152.037,176.9,151.99,176.9z"/>
	<path style="fill:#64798A;" d="M161.236,176.9c-1.289,0-2.258,0.418-2.91,1.256c-0.652,0.84-0.977,1.965-0.977,3.377v5.311h-2.609   v-12.389h2.609v2.49c0.418-0.775,0.988-1.412,1.711-1.908c0.722-0.498,1.484-0.754,2.293-0.77l0.024,2.633   C161.33,176.9,161.283,176.9,161.236,176.9z"/>
	<path style="fill:#64798A;" d="M174.116,185.178c-1.242,1.234-2.793,1.852-4.656,1.852c-1.863,0-3.418-0.617-4.66-1.852   c-1.242-1.234-1.864-2.742-1.864-4.529c0-1.785,0.621-3.295,1.864-4.529c1.242-1.234,2.797-1.852,4.66-1.852   c1.863,0,3.414,0.617,4.656,1.852c1.242,1.234,1.863,2.744,1.863,4.529C175.979,182.436,175.358,183.944,174.116,185.178z    M166.65,183.572c0.738,0.752,1.672,1.129,2.809,1.129c1.133,0,2.066-0.377,2.805-1.129c0.738-0.754,1.105-1.727,1.105-2.924   c0-1.195-0.367-2.168-1.105-2.922c-0.738-0.754-1.672-1.129-2.805-1.129c-1.137,0-2.07,0.375-2.809,1.129   c-0.738,0.754-1.105,1.726-1.105,2.922C165.545,181.846,165.912,182.818,166.65,183.572z"/>
	<path style="fill:#64798A;" d="M185.432,176.9c-1.289,0-2.258,0.418-2.91,1.256c-0.652,0.84-0.976,1.965-0.976,3.377v5.311h-2.61   v-12.389h2.61v2.49c0.418-0.775,0.988-1.412,1.711-1.908c0.723-0.498,1.484-0.754,2.293-0.77l0.023,2.633   C185.526,176.9,185.479,176.9,185.432,176.9z"/>
	<path style="fill:#64798A;" d="M103.147,260.596c0.801,0.67,1.203,1.701,1.203,3.096c0,1.392-0.41,2.414-1.226,3.062   c-0.816,0.646-2.07,0.971-3.762,0.971h-2.043v3.375h-1.941v-11.508h3.949C101.072,259.592,102.346,259.926,103.147,260.596z    M101.772,265.346c0.391-0.412,0.586-1.016,0.586-1.812c0-0.795-0.246-1.357-0.742-1.688c-0.492-0.328-1.266-0.492-2.32-0.492   h-1.977v4.609h2.258C100.65,265.963,101.385,265.758,101.772,265.346z"/>
	<path style="fill:#64798A;" d="M113.307,271.1h-1.68v-1.17c-0.723,0.867-1.695,1.301-2.914,1.301c-0.91,0-1.664-0.258-2.262-0.773   c-0.602-0.516-0.898-1.203-0.898-2.066c0-0.862,0.316-1.506,0.953-1.934c0.637-0.428,1.5-0.643,2.586-0.643h2.387v-0.33   c0-1.162-0.648-1.744-1.942-1.744c-0.812,0-1.656,0.297-2.535,0.888l-0.824-1.152c1.066-0.846,2.273-1.268,3.621-1.268   c1.031,0,1.875,0.26,2.527,0.781c0.652,0.521,0.98,1.342,0.98,2.463V271.1z M111.463,267.84v-0.74h-2.074   c-1.328,0-1.992,0.416-1.992,1.25c0,0.428,0.164,0.756,0.492,0.98c0.332,0.225,0.789,0.338,1.375,0.338   c0.59,0,1.102-0.166,1.539-0.494C111.244,268.844,111.463,268.4,111.463,267.84z"/>
	<path style="fill:#64798A;" d="M123.975,262.34v7.64c0,1.547-0.418,2.707-1.258,3.482c-0.84,0.774-1.918,1.16-3.238,1.16   c-1.316,0-2.508-0.412-3.57-1.234l0.871-1.4c0.855,0.648,1.722,0.972,2.594,0.972s1.566-0.226,2.074-0.676   c0.512-0.451,0.766-1.17,0.766-2.156v-1.121c-0.274,0.518-0.668,0.928-1.176,1.236c-0.512,0.307-1.086,0.461-1.722,0.461   c-1.164,0-2.117-0.406-2.864-1.219c-0.746-0.812-1.121-1.822-1.121-3.029c0-1.207,0.375-2.217,1.121-3.03   c0.746-0.812,1.699-1.218,2.856-1.218c1.16,0,2.102,0.476,2.824,1.432v-1.301H123.975z M117.143,266.383   c0,0.719,0.223,1.34,0.668,1.86c0.441,0.521,1.043,0.783,1.793,0.783c0.754,0,1.36-0.252,1.828-0.758   c0.465-0.504,0.699-1.133,0.699-1.885c0-0.752-0.234-1.389-0.707-1.91c-0.473-0.522-1.082-0.781-1.828-0.781   c-0.746,0-1.344,0.268-1.785,0.806C117.366,265.035,117.143,265.664,117.143,266.383z"/>
	<path style="fill:#64798A;" d="M134.795,267.527h-6.867c0.043,0.637,0.336,1.149,0.875,1.539c0.535,0.389,1.152,0.584,1.844,0.584   c1.098,0,1.93-0.346,2.5-1.037l1.054,1.152c-0.945,0.977-2.172,1.465-3.687,1.465c-1.231,0-2.274-0.408-3.137-1.226   c-0.863-0.816-1.293-1.914-1.293-3.293c0-1.377,0.438-2.47,1.316-3.283c0.879-0.812,1.914-1.218,3.106-1.218   c1.192,0,2.203,0.359,3.035,1.078c0.836,0.719,1.254,1.709,1.254,2.973V267.527z M127.928,266.078h5.023   c0-0.736-0.23-1.301-0.691-1.695c-0.461-0.396-1.031-0.594-1.707-0.594c-0.672,0-1.281,0.207-1.816,0.617   C128.198,264.818,127.928,265.375,127.928,266.078z"/>
	<path style="fill:#64798A;" d="M143.17,266.358v4.742h-1.844v-8.76h1.844v1.598c0.297-0.537,0.707-0.961,1.227-1.268   c0.523-0.307,1.086-0.461,1.691-0.461c0.984,0,1.785,0.302,2.395,0.906c0.609,0.604,0.914,1.475,0.914,2.617v5.367h-1.844v-4.808   c0-1.614-0.672-2.42-2.012-2.42c-0.637,0-1.188,0.213-1.66,0.635C143.408,264.928,143.17,265.545,143.17,266.358z"/>
	<path style="fill:#64798A;" d="M159.291,269.922c-0.879,0.873-1.976,1.308-3.293,1.308c-1.316,0-2.414-0.436-3.293-1.308   c-0.879-0.873-1.316-1.94-1.316-3.201c0-1.264,0.438-2.33,1.316-3.203c0.879-0.873,1.977-1.308,3.293-1.308   c1.316,0,2.414,0.435,3.293,1.308s1.316,1.94,1.316,3.203C160.608,267.982,160.17,269.049,159.291,269.922z M154.014,268.787   c0.523,0.531,1.184,0.797,1.984,0.797c0.801,0,1.461-0.266,1.984-0.797c0.519-0.533,0.781-1.223,0.781-2.066   c0-0.846-0.262-1.535-0.781-2.066c-0.524-0.533-1.184-0.799-1.984-0.799c-0.801,0-1.461,0.266-1.984,0.799   c-0.52,0.531-0.781,1.221-0.781,2.066C153.233,267.564,153.494,268.254,154.014,268.787z"/>
	<path style="fill:#64798A;" d="M164.838,263.822v4.445c0,0.418,0.11,0.75,0.328,0.996c0.223,0.248,0.528,0.371,0.922,0.371   c0.398,0,0.778-0.193,1.137-0.576l0.758,1.301c-0.649,0.582-1.364,0.871-2.149,0.871c-0.785,0-1.453-0.271-2.008-0.814   c-0.555-0.543-0.832-1.275-0.832-2.197v-4.396h-1.102v-1.482h1.102v-2.748h1.844v2.748h2.305v1.482H164.838z"/>
	<path style="fill:#64798A;" d="M176.233,261.615v0.725h2.304v1.482h-2.304v7.277h-1.844v-7.277h-1.102v-1.482h1.102v-0.674   c0-0.922,0.277-1.656,0.832-2.199c0.555-0.543,1.223-0.814,2.008-0.814s1.5,0.291,2.148,0.873l-0.758,1.301   c-0.359-0.385-0.738-0.576-1.136-0.576c-0.395,0-0.7,0.123-0.922,0.369C176.342,260.867,176.233,261.199,176.233,261.615z"/>
	<path style="fill:#64798A;" d="M187.428,269.922c-0.879,0.873-1.977,1.308-3.293,1.308c-1.316,0-2.414-0.436-3.293-1.308   c-0.879-0.873-1.316-1.94-1.316-3.201c0-1.264,0.438-2.33,1.316-3.203s1.976-1.308,3.293-1.308c1.316,0,2.414,0.435,3.293,1.308   c0.879,0.873,1.316,1.94,1.316,3.203C188.744,267.982,188.307,269.049,187.428,269.922z M182.15,268.787   c0.524,0.531,1.184,0.797,1.984,0.797c0.801,0,1.461-0.266,1.984-0.797c0.52-0.533,0.781-1.223,0.781-2.066   c0-0.846-0.262-1.535-0.781-2.066c-0.523-0.533-1.184-0.799-1.984-0.799c-0.801,0-1.461,0.266-1.984,0.799   c-0.519,0.531-0.781,1.221-0.781,2.066C181.369,267.564,181.631,268.254,182.15,268.787z"/>
	<path style="fill:#64798A;" d="M196.959,267.082v-4.742h1.844v8.76h-1.844v-1.598c-0.297,0.539-0.703,0.961-1.226,1.268   c-0.52,0.308-1.082,0.461-1.688,0.461c-0.988,0-1.785-0.301-2.395-0.904c-0.609-0.604-0.914-1.477-0.914-2.619v-5.367h1.844v4.808   c0,1.613,0.672,2.42,2.008,2.42c0.637,0,1.192-0.211,1.664-0.635C196.725,268.512,196.959,267.894,196.959,267.082z"/>
	<path style="fill:#64798A;" d="M203.315,266.358v4.742h-1.844v-8.76h1.844v1.598c0.297-0.537,0.707-0.961,1.226-1.268   c0.524-0.307,1.086-0.461,1.692-0.461c0.984,0,1.785,0.302,2.394,0.906c0.609,0.604,0.914,1.475,0.914,2.617v5.367h-1.844v-4.808   c0-1.614-0.672-2.42-2.012-2.42c-0.636,0-1.187,0.213-1.66,0.635C203.553,264.928,203.315,265.545,203.315,266.358z"/>
	<path style="fill:#64798A;" d="M212.783,269.98c-0.824-0.834-1.234-1.932-1.234-3.293s0.422-2.447,1.269-3.26   c0.844-0.812,1.852-1.218,3.02-1.218s2.11,0.494,2.824,1.482v-4.809h1.844V271.1h-1.844v-1.316c-0.68,0.965-1.676,1.447-2.98,1.447   C214.572,271.23,213.608,270.814,212.783,269.98z M213.393,266.762c0,0.84,0.27,1.522,0.808,2.049   c0.535,0.527,1.168,0.791,1.891,0.791c0.726,0,1.34-0.266,1.844-0.799c0.508-0.531,0.758-1.215,0.758-2.049   c0-0.836-0.25-1.531-0.758-2.092c-0.504-0.56-1.125-0.84-1.859-0.84s-1.367,0.279-1.894,0.84   C213.658,265.223,213.393,265.922,213.393,266.762z"/>
</g>
<g>
	<path style="fill:#E56353;" d="M122.149,228.631v-8.47h7.414v8.47h5.558v7.082h-5.558v11.647h-7.414v-11.647h-19.852v-6.883   l17.008-27.728h8.535l-16.742,27.529H122.149z"/>
	<path style="fill:#E56353;" d="M146.301,241.371c-3.133-4.346-4.695-10.158-4.695-17.438s1.562-13.092,4.695-17.438   c3.133-4.346,7.856-6.519,14.164-6.519c6.308,0,11.027,2.174,14.16,6.519c3.133,4.346,4.699,10.158,4.699,17.438   s-1.566,13.092-4.699,17.438c-3.133,4.346-7.852,6.518-14.16,6.518C154.156,247.889,149.434,245.717,146.301,241.371z    M151.895,211.426c-1.832,3.176-2.746,7.346-2.746,12.508c0,5.16,0.914,9.33,2.746,12.506c1.828,3.178,4.688,4.766,8.57,4.766   c3.879,0,6.715-1.576,8.504-4.732c1.785-3.152,2.68-7.334,2.68-12.539s-0.895-9.387-2.68-12.541   c-1.789-3.154-4.625-4.732-8.504-4.732C156.582,206.66,153.723,208.248,151.895,211.426z"/>
	<path style="fill:#E56353;" d="M205.532,228.631v-8.47h7.414v8.47h5.558v7.082h-5.558v11.647h-7.414v-11.647H185.68v-6.883   l17.008-27.728h8.535l-16.742,27.529H205.532z"/>
</g>
<g>
</g>
<g>
</g>
<g>
</g>
<g>
</g>
<g>
</g>
<g>
</g>
<g>
</g>
<g>
</g>
<g>
</g>
<g>
</g>
<g>
</g>
<g>
</g>
<g>
</g>
<g>
</g>
<g>
</g>
</svg>
