<?xml version="1.0" encoding="iso-8859-1"?>
<!-- Generator: Adobe Illustrator 19.0.0, SVG Export Plug-In . SVG Version: 6.00 Build 0)  -->
<svg xmlns="http://www.w3.org/2000/svg" xmlns:xlink="http://www.w3.org/1999/xlink" version="1.1" id="Capa_1" x="0px" y="0px" viewBox="0 0 384 384" style="enable-background:new 0 0 384 384;" xml:space="preserve">
<circle style="fill:#EFC84A;" cx="192" cy="192" r="192"/>
<path style="opacity:0.1;enable-background:new    ;" d="M300.24,83.411l-0.04-0.04c-0.96-0.84-2.2-1.36-3.56-1.36H192v28H87.36  c-2.96,0-5.36,2.4-5.36,5.32v181.32c0,1.44,0.56,2.76,1.52,3.72l0.24,0.24l81.494,81.493C173.999,383.324,182.919,384,192,384  c106.039,0,192-85.962,192-192c0-9.062-0.674-17.963-1.888-26.69L300.6,83.771L300.24,83.411z"/>
<path style="fill:#3A556A;" d="M88.539,144.836l2.942-8.703c0.36-1.067,1.361-1.784,2.487-1.784h27.195  c1.126,0,2.127,0.718,2.487,1.784l2.942,8.703c0.362,1.066,1.362,1.784,2.488,1.784H192V110H87.347  c-2.953,0-5.347,2.394-5.347,5.346v31.274h4.052C87.178,146.62,88.178,145.902,88.539,144.836z"/>
<g>
	<path style="fill:#64798A;" d="M192,158.182h-11.988c-1.324,0-2.398-1.074-2.398-2.4c0-1.326,1.074-2.4,2.398-2.4H192v-6.761   h-62.919h-43.03H82v18.322h110V158.182z M121.973,158.182H97.988c-1.324,0-2.398-1.074-2.398-2.4c0-1.326,1.074-2.4,2.398-2.4   h23.984c1.324,0,2.398,1.074,2.398,2.4C124.371,157.108,123.297,158.182,121.973,158.182z M162.984,158.182H139   c-1.324,0-2.398-1.074-2.398-2.4c0-1.326,1.074-2.4,2.398-2.4h23.984c1.324,0,2.398,1.074,2.398,2.4   C165.383,157.108,164.308,158.182,162.984,158.182z"/>
	<path style="fill:#64798A;" d="M126.594,144.836l-2.942-8.703c-0.36-1.067-1.361-1.784-2.487-1.784H93.969   c-1.126,0-2.127,0.718-2.487,1.784l-2.942,8.703c-0.362,1.066-1.362,1.784-2.488,1.784h43.03   C127.955,146.62,126.955,145.902,126.594,144.836z"/>
</g>
<g>
	<path style="fill:#FFFFFF;" d="M82,164.943v131.711c0,2.952,2.394,5.346,5.346,5.346H192V164.943H82z"/>
	<path style="fill:#FFFFFF;" d="M121.973,153.381H97.988c-1.324,0-2.398,1.074-2.398,2.4c0,1.326,1.074,2.4,2.398,2.4h23.984   c1.324,0,2.398-1.074,2.398-2.4C124.371,154.455,123.297,153.381,121.973,153.381z"/>
	<path style="fill:#FFFFFF;" d="M162.984,153.381H139c-1.324,0-2.398,1.074-2.398,2.4c0,1.326,1.074,2.4,2.398,2.4h23.984   c1.324,0,2.398-1.074,2.398-2.4C165.383,154.455,164.308,153.381,162.984,153.381z"/>
	<path style="fill:#FFFFFF;" d="M177.613,155.782c0,1.326,1.074,2.4,2.398,2.4H192v-4.801h-11.988   C178.688,153.381,177.613,154.455,177.613,155.782z"/>
</g>
<path style="fill:#3A556A;" d="M295.461,116.836l-2.942-8.703c-0.36-1.067-1.361-1.784-2.487-1.784h-27.195  c-1.126,0-2.127,0.718-2.487,1.784l-2.942,8.703c-0.362,1.066-1.362,1.784-2.488,1.784H192V82h104.653  c2.953,0,5.347,2.394,5.347,5.346v31.274h-4.052C296.822,118.62,295.822,117.902,295.461,116.836z"/>
<g>
	<path style="fill:#64798A;" d="M192,136.943h110V118.62h-4.052h-43.03H192v6.761h11.988c1.324,0,2.398,1.074,2.398,2.4   c0,1.326-1.074,2.4-2.398,2.4H192V136.943z M259.629,127.781c0-1.326,1.074-2.4,2.398-2.4h23.984c1.324,0,2.398,1.074,2.398,2.4   c0,1.326-1.074,2.4-2.398,2.4h-23.984C260.703,130.182,259.629,129.108,259.629,127.781z M218.617,127.781   c0-1.326,1.074-2.4,2.398-2.4H245c1.324,0,2.398,1.074,2.398,2.4c0,1.326-1.074,2.4-2.398,2.4h-23.984   C219.692,130.182,218.617,129.108,218.617,127.781z"/>
	<path style="fill:#64798A;" d="M257.406,116.836l2.942-8.703c0.36-1.067,1.361-1.784,2.487-1.784h27.195   c1.126,0,2.127,0.718,2.487,1.784l2.942,8.703c0.362,1.066,1.362,1.784,2.488,1.784h-43.03   C256.045,118.62,257.045,117.902,257.406,116.836z"/>
</g>
<path style="fill:#EBF0F3;" d="M302,136.943v131.711c0,2.952-2.394,5.346-5.346,5.346H192V136.943H302z"/>
<g>
	<path style="fill:#FFFFFF;" d="M262.027,125.381h23.984c1.324,0,2.398,1.074,2.398,2.4c0,1.326-1.074,2.4-2.398,2.4h-23.984   c-1.324,0-2.398-1.074-2.398-2.4C259.629,126.455,260.703,125.381,262.027,125.381z"/>
	<path style="fill:#FFFFFF;" d="M221.016,125.381H245c1.324,0,2.398,1.074,2.398,2.4c0,1.326-1.074,2.4-2.398,2.4h-23.984   c-1.324,0-2.398-1.074-2.398-2.4C218.617,126.455,219.692,125.381,221.016,125.381z"/>
	<path style="fill:#FFFFFF;" d="M206.387,127.781c0,1.326-1.074,2.4-2.398,2.4H192v-4.801h11.988   C205.312,125.381,206.387,126.455,206.387,127.781z"/>
</g>
<path style="fill:#FCD462;" d="M219.846,205.927c-2.336-2.695-5.471-4.466-9.404-5.316c1.087-0.484,1.848-0.832,2.27-1.046  c0.421-0.21,1.212-0.739,2.358-1.59c3.149-2.421,4.724-6.114,4.724-11.082c0-4.118-1.449-7.815-4.354-11.082  c-1.516-1.756-3.837-3.15-6.95-4.181c-3.12-1.028-6.831-1.545-11.134-1.545H192v9.903h5.083c3.94,0,6.846,0.669,8.724,2  c1.878,1.331,2.817,3.512,2.817,6.539c0,5.272-3.874,7.904-11.63,7.904H192v9.903h6.813c9.02,0,13.537,2.817,13.537,8.45  c0,3.453-1.05,5.8-3.135,7.038c-2.092,1.242-5.101,1.863-9.042,1.863H192v9.903h8.447c8.657,0,14.779-1.966,18.35-5.903  c3.031-3.394,4.547-7.301,4.547-11.722C223.343,211.967,222.175,208.622,219.846,205.927z"/>
<polygon style="fill:#44C4A1;" points="166.807,240.016 179.801,210.557 192,238.232 192,208.991 186.244,195.927 173.358,195.927   141.852,267.427 154.737,267.427 161.896,251.162 192,251.162 192,240.016 "/>
<g>
</g>
<g>
</g>
<g>
</g>
<g>
</g>
<g>
</g>
<g>
</g>
<g>
</g>
<g>
</g>
<g>
</g>
<g>
</g>
<g>
</g>
<g>
</g>
<g>
</g>
<g>
</g>
<g>
</g>
</svg>
