<?xml version="1.0" encoding="iso-8859-1"?>
<!-- Generator: Adobe Illustrator 19.0.0, SVG Export Plug-In . SVG Version: 6.00 Build 0)  -->
<svg xmlns="http://www.w3.org/2000/svg" xmlns:xlink="http://www.w3.org/1999/xlink" version="1.1" id="Capa_1" x="0px" y="0px" viewBox="0 0 384 384" style="enable-background:new 0 0 384 384;" xml:space="preserve">
<circle style="fill:#334D5C;" cx="192" cy="192" r="192"/>
<path style="opacity:0.1;enable-background:new    ;" d="M384,192c0-6.055-0.315-12.034-0.863-17.946L298.44,89.331  c-2.28-2.359-5.48-3.8-9-3.8c-5.88,0-10.8,4.08-12.16,9.52H220l-12.36-12.36h-30.76v12.36H109.2l-5.4-5.4l-0.12-0.12  c-2.28-2.48-5.52-4-9.12-4c-6.92,0-12.56,5.64-12.56,12.56c0,2.721,0.88,5.24,2.36,7.28l0.04,0.04c0.76,1.08,1.68,2,2.72,2.72  l26.72,26.72c-8.84,12.04-14.96,26.239-17.48,41.76h-13.4v30.76l23.04,23.04l-2.52,1.12c1.08,2.44,2.24,4.8,3.52,7.08l5.68,5.68  l-1.6,1.08c1.44,2.2,3,4.36,4.6,6.4l5.6,5.6l-0.48,0.44c1.8,1.92,3.68,3.8,5.6,5.56l114.363,114.363  C323.183,356.153,384,281.186,384,192z"/>
<path style="fill:#E56353;" d="M243.033,205.076c1.068-4.181,1.638-8.562,1.638-13.076s-0.57-8.895-1.638-13.076l8.115-7.196  c1.307-1.159,1.62-3.079,0.745-4.593l-8.412-14.571c-0.875-1.514-2.692-2.204-4.351-1.651l-10.312,3.438  c-6.236-6.1-13.98-10.656-22.622-13.07l-2.178-10.64c-0.351-1.712-1.857-2.942-3.604-2.942h-16.827c-1.748,0-3.254,1.23-3.605,2.942  l-2.176,10.64c-8.642,2.414-16.386,6.97-22.624,13.07l-10.312-3.438c-1.657-0.552-3.476,0.138-4.349,1.651l-8.415,14.572  c-0.873,1.514-0.561,3.433,0.746,4.593l8.115,7.196c-1.068,4.181-1.638,8.562-1.638,13.076s0.57,8.895,1.638,13.076l-8.115,7.196  c-1.307,1.16-1.62,3.079-0.746,4.593l8.415,14.572c0.874,1.514,2.692,2.204,4.349,1.652l10.312-3.438  c6.237,6.1,13.982,10.656,22.624,13.07l2.176,10.64c0.351,1.712,1.857,2.942,3.605,2.942h16.827c1.747,0,3.253-1.23,3.604-2.942  l2.178-10.64c8.642-2.414,16.385-6.97,22.622-13.07l10.312,3.438c1.658,0.553,3.476-0.137,4.351-1.651l8.412-14.572  c0.875-1.514,0.562-3.433-0.745-4.593L243.033,205.076z M192.001,231.653c-21.865,0-39.653-17.788-39.653-39.653  c0-21.865,17.788-39.653,39.653-39.653c21.864,0,39.652,17.788,39.652,39.653C231.653,213.865,213.865,231.653,192.001,231.653z"/>
<path style="fill:#D15241;" d="M192.001,152.347c-21.865,0-39.653,17.788-39.653,39.653c0,21.866,17.788,39.653,39.653,39.653  c21.864,0,39.652-17.788,39.652-39.653C231.653,170.134,213.865,152.347,192.001,152.347z M192.001,224.611  c-17.982,0-32.611-14.63-32.611-32.612s14.629-32.611,32.611-32.611c17.982,0,32.611,14.629,32.611,32.611  S209.983,224.611,192.001,224.611z"/>
<circle style="fill:#CE412D;" cx="192" cy="192" r="18.864"/>
<g>
	<path style="fill:#FFFFFF;" d="M225.422,101.086h51.877c1.358,5.464,6.268,9.542,12.146,9.542c6.924,0,12.555-5.631,12.555-12.551   c0-6.922-5.631-12.554-12.555-12.554c-5.878,0-10.789,4.078-12.146,9.544h-69.667V82.703h-30.746v12.364h-70.189   c-1.357-5.466-6.268-9.544-12.146-9.544C87.631,85.523,82,91.154,82,98.076c0,6.92,5.631,12.551,12.551,12.551   c5.878,0,10.788-4.078,12.146-9.542h51.879c-32.13,11.875-56.589,40.345-62.208,75.544H82.96v30.744h13.339   c0.078,0.492,0.141,0.99,0.227,1.479l5.925-1.042c-0.025-0.145-0.042-0.292-0.066-0.437h11.321v-30.744h-11.233   c6.53-38.262,36.847-67.857,74.413-74.217v11.035h30.746v-10.962c37.326,6.542,67.392,36.057,73.896,74.144h-10.716v30.744h10.8   c-0.023,0.144-0.041,0.291-0.066,0.435l5.925,1.042c0.086-0.488,0.149-0.986,0.227-1.477h13.856v-30.744h-13.922   C282.011,141.431,257.55,112.961,225.422,101.086z M289.445,91.542c3.605,0,6.536,2.931,6.536,6.534   c0,3.601-2.931,6.532-6.536,6.532c-3.601,0-6.532-2.931-6.532-6.532C282.912,94.473,285.844,91.542,289.445,91.542z    M94.551,104.608c-3.601,0-6.532-2.931-6.532-6.532c0-3.603,2.931-6.534,6.532-6.534c3.602,0,6.532,2.931,6.532,6.534   C101.084,101.678,98.153,104.608,94.551,104.608z M107.687,201.354H88.979v-18.706h18.708V201.354z M201.612,88.722v6.848   c-3.169-0.316-6.372-0.504-9.612-0.504c-3.062,0-6.096,0.148-9.095,0.432v-6.776H201.612z M201.612,107.428h-18.708v-5.858   c2.998-0.302,6.028-0.484,9.095-0.484c3.246,0,6.444,0.218,9.612,0.556V107.428z M295.534,201.354h-18.704v-18.706h18.704V201.354z   "/>
	<path style="fill:#FFFFFF;" d="M120.818,257.802c1.783,1.928,3.668,3.807,5.6,5.582l4.076-4.432   c-1.814-1.666-3.582-3.427-5.255-5.238L120.818,257.802z"/>
	<path style="fill:#FFFFFF;" d="M160.114,283.569c2.492,0.866,5.04,1.638,7.575,2.292l1.505-5.827   c-2.375-0.613-4.765-1.336-7.097-2.151L160.114,283.569z"/>
	<path style="fill:#FFFFFF;" d="M132.452,268.492c2.081,1.618,4.24,3.168,6.426,4.604l3.308-5.031   c-2.054-1.346-4.083-2.802-6.035-4.322L132.452,268.492z"/>
	<path style="fill:#FFFFFF;" d="M104.042,215.092l-5.823,1.536c0.678,2.557,1.454,5.096,2.316,7.551l5.682-1.995   C105.406,219.881,104.673,217.495,104.042,215.092z"/>
	<path style="fill:#FFFFFF;" d="M111.068,245.372c1.462,2.208,3.017,4.365,4.624,6.413l4.734-3.715   c-1.505-1.922-2.966-3.948-4.342-6.021L111.068,245.372z"/>
	<path style="fill:#FFFFFF;" d="M108.956,229.062l-5.494,2.465c1.089,2.426,2.277,4.806,3.523,7.077l5.274-2.9   C111.088,233.577,109.979,231.341,108.956,229.062z"/>
	<path style="fill:#FFFFFF;" d="M145.662,277.168c2.316,1.262,4.702,2.439,7.093,3.497l2.438-5.502   c-2.238-0.993-4.479-2.096-6.654-3.282L145.662,277.168z"/>
	<path style="fill:#FFFFFF;" d="M253.726,258.754l4.083,4.42c1.908-1.765,3.778-3.64,5.556-5.574l-4.428-4.076   C257.269,255.341,255.513,257.1,253.726,258.754z"/>
	<path style="fill:#FFFFFF;" d="M271.811,235.562l5.282,2.892c1.246-2.279,2.422-4.654,3.492-7.058l-5.494-2.449   C274.084,231.2,272.982,233.428,271.811,235.562z"/>
	<path style="fill:#FFFFFF;" d="M277.818,222.089l5.682,1.983c0.866-2.48,1.638-5.012,2.296-7.526l-5.823-1.524   C279.358,217.381,278.629,219.76,277.818,222.089z"/>
	<path style="fill:#FFFFFF;" d="M263.711,247.897l4.749,3.696c1.622-2.087,3.166-4.238,4.585-6.394l-5.032-3.307   C266.685,243.916,265.235,245.936,263.711,247.897z"/>
	<path style="fill:#FFFFFF;" d="M229.2,274.981l2.469,5.49c2.378-1.07,4.749-2.252,7.038-3.511l-2.9-5.274   C233.655,272.869,231.433,273.978,229.2,274.981z"/>
	<path style="fill:#FFFFFF;" d="M242.119,267.867l3.323,5.02c2.175-1.442,4.322-2.992,6.38-4.608l-3.715-4.734   C246.175,265.061,244.161,266.515,242.119,267.867z"/>
	<path style="fill:#FFFFFF;" d="M215.304,279.903l1.544,5.819c2.532-0.672,5.063-1.454,7.516-2.322l-2.006-5.674   C220.054,278.541,217.683,279.274,215.304,279.903z"/>
	<path style="fill:#FFFFFF;" d="M208.062,281.504c-0.143,0.025-0.288,0.042-0.431,0.067v-11.018h-30.746v11.104   c-0.144-0.024-0.291-0.04-0.435-0.066l-1.027,5.929c0.483,0.084,0.976,0.144,1.462,0.22v13.556h30.746V287.66   c0.493-0.08,0.989-0.144,1.481-0.232L208.062,281.504z M201.612,295.278h-18.708v-18.706h18.708V295.278z"/>
</g>
<g>
</g>
<g>
</g>
<g>
</g>
<g>
</g>
<g>
</g>
<g>
</g>
<g>
</g>
<g>
</g>
<g>
</g>
<g>
</g>
<g>
</g>
<g>
</g>
<g>
</g>
<g>
</g>
<g>
</g>
</svg>
