<?xml version="1.0" encoding="iso-8859-1"?>
<!-- Generator: Adobe Illustrator 19.0.0, SVG Export Plug-In . SVG Version: 6.00 Build 0)  -->
<svg xmlns="http://www.w3.org/2000/svg" xmlns:xlink="http://www.w3.org/1999/xlink" version="1.1" id="Capa_1" x="0px" y="0px" viewBox="0 0 384 384" style="enable-background:new 0 0 384 384;" xml:space="preserve">
<circle style="fill:#45B39C;" cx="192" cy="192" r="192"/>
<path style="opacity:0.1;enable-background:new    ;" d="M278.44,115.677l-16.84-16.84h-1.44l-16.84-16.84h-139.2v186.36  l113.817,113.85c85.256-11.52,152.716-78.963,164.263-164.211l-102.32-102.32H278.44z"/>
<rect x="104.12" y="82" style="fill:#D5D6DB;" width="139.228" height="186.344"/>
<rect x="122.384" y="98.828" style="fill:#E1E6E9;" width="139.228" height="186.344"/>
<rect x="140.68" y="115.656" style="fill:#64798A;" width="139.228" height="11.308"/>
<rect x="140.68" y="126.964" style="fill:#EBF0F3;" width="139.228" height="175.036"/>
<circle style="fill:#E56353;" cx="151.58" cy="121.32" r="3.256"/>
<circle style="fill:#44C4A1;" cx="161.68" cy="121.32" r="3.256"/>
<circle style="fill:#FCD462;" cx="171.772" cy="121.32" r="3.256"/>
<rect x="154.836" y="143.62" style="fill:#64798A;" width="20.2" height="6"/>
<rect x="154.836" y="161.92" style="fill:#E56353;" width="53.1" height="6"/>
<rect x="179.76" y="178.24" style="fill:#44C4A1;" width="28.16" height="6"/>
<g>
	<rect x="181.4" y="194.56" style="fill:#64798A;" width="26.552" height="6"/>
	<rect x="154.836" y="227.852" style="fill:#64798A;" width="20.2" height="6"/>
</g>
<rect x="154.836" y="246.16" style="fill:#27A2DB;" width="53.1" height="6"/>
<rect x="179.76" y="262.48" style="fill:#E56353;" width="28.16" height="6"/>
<g>
	<rect x="181.4" y="278.8" style="fill:#44C4A1;" width="26.552" height="6"/>
	<rect x="223.264" y="161.92" style="fill:#44C4A1;" width="26.556" height="6"/>
</g>
<rect x="223.268" y="178.24" style="fill:#E56353;" width="44.36" height="6"/>
<rect x="223.264" y="194.56" style="fill:#FCD462;" width="26.556" height="6"/>
<rect x="223.264" y="246.16" style="fill:#E56353;" width="26.556" height="6"/>
<rect x="223.268" y="262.48" style="fill:#FCD462;" width="42.704" height="6"/>
<rect x="223.264" y="278.8" style="fill:#64798A;" width="26.556" height="6"/>
<g>
</g>
<g>
</g>
<g>
</g>
<g>
</g>
<g>
</g>
<g>
</g>
<g>
</g>
<g>
</g>
<g>
</g>
<g>
</g>
<g>
</g>
<g>
</g>
<g>
</g>
<g>
</g>
<g>
</g>
</svg>
