<?xml version="1.0" encoding="iso-8859-1"?>
<!-- Generator: Adobe Illustrator 19.0.0, SVG Export Plug-In . SVG Version: 6.00 Build 0)  -->
<svg xmlns="http://www.w3.org/2000/svg" xmlns:xlink="http://www.w3.org/1999/xlink" version="1.1" id="Capa_1" x="0px" y="0px" viewBox="0 0 384 384" style="enable-background:new 0 0 384 384;" xml:space="preserve">
<circle style="fill:#334D5C;" cx="192" cy="192" r="192"/>
<path style="opacity:0.1;enable-background:new    ;" d="M229.4,83.518c-1-0.961-2.28-1.52-3.68-1.52H113.96  c-2.88,0-5.16,2.319-5.16,5.16v209.68c0,1.28,0.44,2.44,1.24,3.32l83.796,83.796c90.945-0.856,166.734-64.923,185.602-150.397  L273.72,127.837L229.4,83.518z"/>
<path style="fill:#EBF0F3;" d="M225.736,82H113.949c-2.85,0-5.161,2.311-5.161,5.161v209.677c0,2.85,2.311,5.162,5.161,5.162  h156.102c2.85,0,5.161-2.311,5.161-5.162V131.477c0-1.369-0.544-2.682-1.512-3.65l-44.315-44.315  C228.418,82.544,227.105,82,225.736,82z"/>
<circle style="fill:#E1E6E9;" cx="192" cy="220.88" r="51.876"/>
<path style="fill:#D5D6DB;" d="M233.036,129.339h41.675c-0.253-0.551-0.573-1.075-1.01-1.512l-22.157-22.158l-22.158-22.158  c-0.437-0.437-0.961-0.757-1.512-1.01v41.676C227.874,127.028,230.185,129.339,233.036,129.339z"/>
<circle style="fill:#E56353;" cx="192" cy="217.28" r="51.876"/>
<g>
	<path style="fill:#FFFFFF;" d="M152.246,218.079v-7.589l22.279-13.134v6.868l-16.651,9.575v0.667l16.651,9.815v6.868   L152.246,218.079z"/>
	<path style="fill:#FFFFFF;" d="M199.922,189.34h4.73l-20.481,55.91h-4.73L199.922,189.34z"/>
	<path style="fill:#FFFFFF;" d="M231.754,210.49v7.589l-22.279,13.07v-6.868l16.648-9.815v-0.667l-16.648-9.575v-6.868   L231.754,210.49z"/>
</g>
<rect x="123.024" y="144.76" style="fill:#64798A;" width="22.272" height="8"/>
<rect x="160.76" y="144.76" style="fill:#44C4A1;" width="33.596" height="8"/>
<rect x="204.64" y="144.76" style="fill:#E56353;" width="16.16" height="8"/>
<rect x="231.756" y="144.76" style="fill:#F6C358;" width="26.804" height="8"/>
<rect x="123.024" y="279.56" style="fill:#64798A;" width="22.272" height="8"/>
<rect x="160.76" y="279.56" style="fill:#E56353;" width="33.596" height="8"/>
<rect x="204.64" y="279.56" style="fill:#F6C358;" width="16.16" height="8"/>
<rect x="231.756" y="279.56" style="fill:#44C4A1;" width="26.804" height="8"/>
<g>
</g>
<g>
</g>
<g>
</g>
<g>
</g>
<g>
</g>
<g>
</g>
<g>
</g>
<g>
</g>
<g>
</g>
<g>
</g>
<g>
</g>
<g>
</g>
<g>
</g>
<g>
</g>
<g>
</g>
</svg>
