<?xml version="1.0" encoding="iso-8859-1"?>
<!-- Generator: Adobe Illustrator 19.0.0, SVG Export Plug-In . SVG Version: 6.00 Build 0)  -->
<svg xmlns="http://www.w3.org/2000/svg" xmlns:xlink="http://www.w3.org/1999/xlink" version="1.1" id="Capa_1" x="0px" y="0px" viewBox="0 0 384 384" style="enable-background:new 0 0 384 384;" xml:space="preserve">
<circle style="fill:#E05B49;" cx="192" cy="192" r="192"/>
<path style="opacity:0.1;enable-background:new    ;" d="M281.24,104.238c-1.04-1-2.44-1.641-4-1.641H106.76  c-3.16,0-5.72,2.56-5.72,5.72v98.521c0,1.6,0.64,3.04,1.72,4.08l3.48,3.48c-2.96,0.121-5.64,1.24-6.08,2.6l-18.04,53.96  c-0.08,0.2-0.08,0.4-0.08,0.6H82v6.76c0,0.441,0.16,0.881,0.48,1.28l104.27,104.27c1.75,0.047,3.489,0.133,5.25,0.133  c101.188,0,184.033-78.293,191.406-177.596L281.28,104.278L281.24,104.238z"/>
<path style="fill:#E1E6E9;" d="M302,271.869l-2.053-0.042l-16.119-48.147c-0.482-1.441-3.436-2.598-6.602-2.598H106.777  c-3.166,0-6.121,1.157-6.604,2.598l-16.047,47.931L82,271.568v6.765h0.01c0.033,1.75,2.424,3.086,5.842,3.086h208.301  c3.416,0,5.806-1.336,5.84-3.086H302V271.869z"/>
<path style="fill:#64798A;" d="M277.226,102.581H106.777c-3.166,0-5.734,2.567-5.734,5.734v98.516c0,3.167,2.568,5.734,5.734,5.734  h170.449c3.166,0,5.732-2.567,5.732-5.734v-98.516C282.958,105.148,280.392,102.581,277.226,102.581z"/>
<path style="fill:#EBF0F3;" d="M277.226,214.415H106.777c-3.166,0-6.121,1.157-6.604,2.598l-18.058,53.938  c-0.699,2.088,1.866,3.8,5.735,3.8h208.302c3.87,0,6.433-1.712,5.734-3.8l-18.058-53.938  C283.346,215.572,280.392,214.415,277.226,214.415z"/>
<g>
	<path style="fill:#E1E6E9;" d="M273.61,219.236H110.392c-0.123,0-0.236,0.046-0.253,0.102l-7.727,26.11   c-0.02,0.067,0.073,0.122,0.208,0.122h178.762c0.135,0,0.228-0.054,0.208-0.122l-7.727-26.11   C273.846,219.282,273.733,219.236,273.61,219.236z"/>
	<path style="fill:#E1E6E9;" d="M223.321,248.885h-62.64c-2.211,0-4.108,0.91-4.239,2.039l-1.738,15.07   c-0.144,1.252,1.644,2.274,3.995,2.274h66.605c2.351,0,4.139-1.022,3.995-2.274l-1.739-15.07   C227.43,249.794,225.532,248.885,223.321,248.885z"/>
</g>
<path style="fill:#3A556A;" d="M264.455,209.432H119.546c-0.258,0-0.469,0.17-0.469,0.38v7.372c0,0.21,0.211,0.38,0.469,0.38  h144.908c0.258,0,0.468-0.17,0.468-0.38v-7.372C264.923,209.602,264.712,209.432,264.455,209.432z"/>
<circle style="fill:#2F4859;" cx="192" cy="107.756" r="2.368"/>
<circle style="fill:#3A556A;" cx="192" cy="107.756" r="1.088"/>
<rect x="111.596" y="113.12" style="fill:#EBF0F3;" width="160.8" height="88.88"/>
<rect x="111.596" y="113.12" style="fill:#3A556A;" width="160.8" height="10.1"/>
<circle style="fill:#FCD462;" cx="247" cy="118.184" r="2.824"/>
<circle style="fill:#44C4A1;" cx="255.964" cy="118.184" r="2.824"/>
<circle style="fill:#E56353;" cx="264.92" cy="118.184" r="2.824"/>
<rect x="111.596" y="198.48" style="fill:#E1E6E9;" width="160.8" height="3.52"/>
<g>
	<rect x="125" y="134.04" style="fill:#E56353;" width="134.016" height="4.328"/>
	<rect x="125" y="185.04" style="fill:#E56353;" width="134.016" height="4.328"/>
</g>
<g>
	<path style="fill:#64798A;" d="M141.386,144.769c2.27,0,4.476,0.43,6.621,1.297c2.145,0.863,4.035,2.062,5.664,3.598l-2.301,2.93   c-2.754-2.816-6.066-4.226-9.938-4.226c-3.809,0-7.039,1.289-9.695,3.867c-2.656,2.574-3.984,5.703-3.984,9.383   c0,3.68,1.336,6.808,4.008,9.383c2.672,2.578,5.895,3.863,9.672,3.863c3.774,0,7.086-1.344,9.938-4.031l2.352,2.64   c-3.68,3.457-7.844,5.184-12.481,5.184c-4.832,0-8.937-1.648-12.312-4.945c-3.375-3.293-5.062-7.324-5.062-12.094   c0-4.703,1.703-8.688,5.109-11.953C132.386,146.402,136.519,144.769,141.386,144.769z"/>
	<path style="fill:#64798A;" d="M174.265,144.769c4.898,0,9.051,1.633,12.457,4.894c3.406,3.266,5.113,7.266,5.113,12   c0,4.738-1.707,8.754-5.113,12.047c-3.406,3.297-7.559,4.945-12.457,4.945c-4.926,0-9.094-1.648-12.504-4.945   c-3.406-3.293-5.109-7.308-5.109-12.047c0-4.734,1.703-8.734,5.109-12C165.171,146.402,169.339,144.769,174.265,144.769z    M174.265,148.418c-3.777,0-7.008,1.289-9.695,3.863c-2.688,2.574-4.031,5.703-4.031,9.383c0,3.68,1.344,6.816,4.031,9.41   c2.687,2.59,5.918,3.887,9.695,3.887c3.746,0,6.953-1.297,9.625-3.887c2.672-2.594,4.008-5.73,4.008-9.41   c0-3.68-1.336-6.809-4.008-9.383C181.218,149.706,178.011,148.418,174.265,148.418z"/>
	<path style="fill:#64798A;" d="M198.843,144.863h13.582c4.895,0,9,1.609,12.313,4.824c3.312,3.218,4.969,7.211,4.969,11.976   c0,4.77-1.664,8.762-4.992,11.976s-7.473,4.824-12.434,4.824h-13.438V144.863z M202.683,148.562v26.254h9.789   c3.777,0,6.945-1.246,9.504-3.742c2.563-2.496,3.84-5.617,3.84-9.363c0-3.742-1.305-6.871-3.91-9.383   c-2.61-2.512-5.801-3.766-9.578-3.766H202.683z"/>
	<path style="fill:#64798A;" d="M259.511,148.562h-18.957v11.039h16.941v3.695h-16.941v11.52h19.582v3.648h-23.422v-33.602h22.797   V148.562z"/>
</g>
<g>
</g>
<g>
</g>
<g>
</g>
<g>
</g>
<g>
</g>
<g>
</g>
<g>
</g>
<g>
</g>
<g>
</g>
<g>
</g>
<g>
</g>
<g>
</g>
<g>
</g>
<g>
</g>
<g>
</g>
</svg>
