<?xml version="1.0" encoding="iso-8859-1"?>
<!-- Generator: Adobe Illustrator 19.0.0, SVG Export Plug-In . SVG Version: 6.00 Build 0)  -->
<svg xmlns="http://www.w3.org/2000/svg" xmlns:xlink="http://www.w3.org/1999/xlink" version="1.1" id="Capa_1" x="0px" y="0px" viewBox="0 0 384 384" style="enable-background:new 0 0 384 384;" xml:space="preserve">
<circle style="fill:#45B39C;" cx="192" cy="192" r="192"/>
<path style="opacity:0.1;enable-background:new    ;" d="M296.64,81.997H87.36c-2.96,0-5.36,2.4-5.36,5.36v209.279  c0,1.561,0.68,2.96,1.72,3.92l81.55,81.55C174.01,383.324,182.924,384,192,384c106.039,0,192-85.962,192-192  c0-9.078-0.675-17.994-1.894-26.736L300.4,83.557C299.44,82.597,298.12,81.997,296.64,81.997z"/>
<path style="fill:#64798A;" d="M296.654,82H87.347C84.394,82,82,84.394,82,87.346v31.274h220V87.346  C302,84.394,299.606,82,296.654,82z"/>
<circle style="fill:#FCD462;" cx="245.52" cy="100.32" r="6.04"/>
<circle style="fill:#44C4A1;" cx="267.08" cy="100.32" r="6.04"/>
<circle style="fill:#E56353;" cx="288.6" cy="100.32" r="6.04"/>
<path style="fill:#FFFFFF;" d="M129.081,118.62c-1.126,0-2.126-0.718-2.487-1.784l-2.943-8.703  c-0.361-1.067-1.361-1.784-2.487-1.784H93.969c-1.126,0-2.126,0.718-2.487,1.784l-2.942,8.703c-0.361,1.066-1.362,1.784-2.488,1.784  H82v178.034c0,2.952,2.394,5.346,5.346,5.346h209.309c2.952,0,5.346-2.393,5.346-5.346V118.62H129.081z"/>
<path style="fill:#EBF0F3;" d="M130.068,114.62h37.273l-2.194-6.488c-0.361-1.067-1.361-1.784-2.487-1.784h-35.486  c0.077,0.177,0.202,0.321,0.265,0.506L130.068,114.62z"/>
<rect x="192" y="256.12" style="fill:#FCD462;" width="21.324" height="21.324"/>
<rect x="235.724" y="256.12" style="fill:#64798A;" width="21.324" height="21.324"/>
<rect x="192" y="181.96" style="fill:#27A2DB;" width="96.44" height="21.324"/>
<rect x="192" y="219.04" style="fill:#E56353;" width="96.44" height="21.324"/>
<rect x="192" y="144.92" style="fill:#FCD462;" width="21.324" height="21.324"/>
<rect x="229.56" y="144.92" style="fill:#44C4A1;" width="21.324" height="21.324"/>
<rect x="267.12" y="144.92" style="fill:#FCD462;" width="21.324" height="21.324"/>
<rect x="91.428" y="132.48" style="fill:#EBF0F3;" width="59.476" height="151.468"/>
<rect x="91.428" y="132.48" style="fill:#64798A;" width="59.476" height="18.828"/>
<g>
	<rect x="100.36" y="161.72" style="fill:#D5D6DB;" width="41.612" height="4"/>
	<rect x="100.36" y="180.44" style="fill:#D5D6DB;" width="41.612" height="4"/>
	<rect x="100.36" y="199.144" style="fill:#D5D6DB;" width="41.612" height="4"/>
	<rect x="100.36" y="217.84" style="fill:#D5D6DB;" width="41.612" height="4"/>
	<rect x="100.36" y="236.56" style="fill:#D5D6DB;" width="41.612" height="4"/>
	<rect x="100.36" y="255.24" style="fill:#D5D6DB;" width="41.612" height="4"/>
</g>
<polygon style="fill:#64798A;" points="181.082,157.564 181.082,153.564 161.769,153.564 161.769,268.798 181.082,268.798   181.082,264.798 165.769,264.798 165.769,231.72 181.082,231.72 181.082,227.72 165.769,227.72 165.769,194.642 181.082,194.642   181.082,190.642 165.769,190.642 165.769,157.564 "/>
<g>
</g>
<g>
</g>
<g>
</g>
<g>
</g>
<g>
</g>
<g>
</g>
<g>
</g>
<g>
</g>
<g>
</g>
<g>
</g>
<g>
</g>
<g>
</g>
<g>
</g>
<g>
</g>
<g>
</g>
</svg>
