<?xml version="1.0" encoding="iso-8859-1"?>
<!-- Generator: Adobe Illustrator 19.0.0, SVG Export Plug-In . SVG Version: 6.00 Build 0)  -->
<svg xmlns="http://www.w3.org/2000/svg" xmlns:xlink="http://www.w3.org/1999/xlink" version="1.1" id="Capa_1" x="0px" y="0px" viewBox="0 0 384 384" style="enable-background:new 0 0 384 384;" xml:space="preserve">
<circle style="fill:#EFC84A;" cx="192" cy="192" r="192"/>
<path style="opacity:0.1;enable-background:new    ;" d="M296.64,81.997H87.36c-2.96,0-5.36,2.4-5.36,5.36v209.279  c0,1.36,0.48,2.601,1.32,3.52l0.08,0.08l0.36,0.359l81.542,81.514c8.73,1.216,17.634,1.89,26.698,1.89c106.039,0,192-85.962,192-192  c0-9.094-0.677-18.025-1.9-26.783l-81.58-81.58C299.52,82.637,298.16,81.997,296.64,81.997z"/>
<path style="fill:#64798A;" d="M296.654,82H87.347C84.394,82,82,84.394,82,87.346v31.274h220V87.346  C302,84.394,299.606,82,296.654,82z"/>
<circle style="fill:#FCD462;" cx="245.52" cy="100.32" r="6.04"/>
<circle style="fill:#44C4A1;" cx="267.08" cy="100.32" r="6.04"/>
<circle style="fill:#E56353;" cx="288.6" cy="100.32" r="6.04"/>
<path style="fill:#FFFFFF;" d="M129.081,118.62c-1.126,0-2.126-0.718-2.487-1.784l-2.943-8.703  c-0.361-1.067-1.361-1.784-2.487-1.784H93.969c-1.126,0-2.126,0.718-2.487,1.784l-2.942,8.703c-0.361,1.066-1.362,1.784-2.488,1.784  H82v178.034c0,2.952,2.394,5.346,5.346,5.346h209.309c2.952,0,5.346-2.393,5.346-5.346V118.62H129.081z"/>
<path style="fill:#EBF0F3;" d="M130.068,114.62h37.273l-2.194-6.488c-0.361-1.067-1.361-1.784-2.487-1.784h-35.486  c0.077,0.177,0.202,0.321,0.265,0.506L130.068,114.62z"/>
<path style="fill:#FCD462;" d="M150.714,211.701l51.651-21.4c-8.403-20.256-28.355-34.512-51.651-34.512  c-30.88,0-55.913,25.033-55.913,55.912c0,30.88,25.033,55.912,55.913,55.912c20.786,0,38.884-11.368,48.519-28.201L150.714,211.701z  "/>
<path style="fill:#F6C358;" d="M157.874,257.319c-30.607,0-56.435-25.828-56.435-56.435c0-8.669,2.154-16.939,5.854-24.381  c-7.802,9.612-12.493,21.852-12.493,35.197c0,30.88,25.033,55.912,55.913,55.912c20.786,0,38.884-11.368,48.519-28.201l-0.446-0.255  C188.394,250.23,173.774,257.319,157.874,257.319z"/>
<circle style="fill:#DC8744;" cx="168.52" cy="181.4" r="7.008"/>
<circle style="fill:#E56353;" cx="217.24" cy="216.44" r="9.704"/>
<path style="fill:#D15241;" d="M220.689,207.377c4.489,5.508,2.106,16.181-7.156,16.181c-1.29,0-2.414-0.248-3.437-0.619  c1.774,1.947,4.307,3.19,7.149,3.19c5.36,0,9.705-4.345,9.705-9.706C226.95,212.281,224.343,208.77,220.689,207.377z"/>
<circle style="fill:#E56353;" cx="248.36" cy="216.44" r="9.704"/>
<path style="fill:#D15241;" d="M251.813,207.377c4.489,5.508,2.106,16.181-7.155,16.181c-1.29,0-2.414-0.248-3.438-0.619  c1.774,1.947,4.307,3.19,7.15,3.19c5.36,0,9.705-4.345,9.705-9.706C258.075,212.281,255.467,208.77,251.813,207.377z"/>
<circle style="fill:#E56353;" cx="279.48" cy="216.44" r="9.704"/>
<path style="fill:#D15241;" d="M282.937,207.377c4.489,5.508,2.106,16.181-7.155,16.181c-1.291,0-2.414-0.248-3.438-0.619  c1.774,1.947,4.307,3.19,7.15,3.19c5.36,0,9.705-4.345,9.705-9.706C289.199,212.281,286.592,208.77,282.937,207.377z"/>
<g>
</g>
<g>
</g>
<g>
</g>
<g>
</g>
<g>
</g>
<g>
</g>
<g>
</g>
<g>
</g>
<g>
</g>
<g>
</g>
<g>
</g>
<g>
</g>
<g>
</g>
<g>
</g>
<g>
</g>
</svg>
