<?xml version="1.0" encoding="iso-8859-1"?>
<!-- Generator: Adobe Illustrator 19.0.0, SVG Export Plug-In . SVG Version: 6.00 Build 0)  -->
<svg xmlns="http://www.w3.org/2000/svg" xmlns:xlink="http://www.w3.org/1999/xlink" version="1.1" id="Capa_1" x="0px" y="0px" viewBox="0 0 384 384" style="enable-background:new 0 0 384 384;" xml:space="preserve">
<circle style="fill:#EFC84A;" cx="192" cy="192" r="192"/>
<path style="opacity:0.1;enable-background:new    ;" d="M383.53,204.77L260.76,82H123.24v73.64H99.6c-2.84,0-5.08,2.2-5.08,4.92  v118.16H82v18.12l85.558,85.558C175.568,383.416,183.713,384,192,384C293.743,384,376.952,304.849,383.53,204.77z"/>
<rect x="82" y="278.72" style="fill:#64798A;" width="220" height="18.104"/>
<g>
	<polygon style="fill:#3A556A;" points="94,302 290,302 302,296.842 82,296.842  "/>
	<rect x="170.96" y="285.88" style="fill:#3A556A;" width="42.076" height="3.8"/>
	<path style="fill:#3A556A;" d="M284.388,155.652h-13.564l-1.088,12.003h7.761v36.297v62.787H106.501v-0.005h-0.016v-99.062h0.016   v-0.017h7.763l-1.088-12.003H99.585c-2.82,0-5.076,2.17-5.076,4.903v118.198h195V160.555   C289.508,157.822,287.208,155.652,284.388,155.652z"/>
</g>
<g>
	<polygon style="fill:#E1E6E9;" points="277.489,167.672 269.735,167.672 260.773,266.563 123.227,266.563 114.265,167.672    106.501,167.672 106.501,266.734 277.489,266.734  "/>
	<rect x="106.5" y="167.656" style="fill:#E1E6E9;" width="7.764" height="0.016"/>
	<polygon style="fill:#E1E6E9;" points="277.489,167.672 277.489,266.734 106.501,266.734 106.501,266.738 277.498,266.738    277.498,203.952 277.498,167.655 269.736,167.655 269.735,167.672  "/>
</g>
<polygon style="fill:#2F4859;" points="227.404,167.655 269.736,167.655 270.824,155.652 113.176,155.652 114.264,167.655 "/>
<polygon style="fill:#D5D6DB;" points="260.773,266.563 269.735,167.672 114.265,167.672 123.227,266.563 "/>
<g>
	<polygon style="fill:#FFFFFF;" points="114.264,167.655 114.265,167.672 269.735,167.672 269.736,167.655 227.404,167.655  "/>
	<rect x="123.228" y="82" style="fill:#FFFFFF;" width="137.544" height="184.56"/>
</g>
<rect x="123.228" y="250.28" style="fill:#64798A;" width="137.544" height="16.28"/>
<rect x="123.228" y="108.76" style="fill:#27A2DB;" width="137.544" height="49.86"/>
<rect x="123.228" y="82" style="fill:#64798A;" width="137.544" height="16.904"/>
<rect x="129.52" y="86.7" style="fill:#EBF0F3;" width="92.2" height="7.504"/>
<circle style="fill:#E56353;" cx="252.6" cy="90.452" r="3.752"/>
<circle style="fill:#44C4A1;" cx="241.64" cy="90.452" r="3.752"/>
<circle style="fill:#FCD462;" cx="230.64" cy="90.452" r="3.752"/>
<g>
	<circle style="fill:#FFFFFF;" cx="236.56" cy="257.88" r="3.356"/>
	<circle style="fill:#FFFFFF;" cx="248.44" cy="257.88" r="3.36"/>
</g>
<rect x="129.16" y="254.52" style="fill:#3A556A;" width="29.276" height="3.904"/>
<g>
	<rect x="132.36" y="166.12" style="fill:#D5D6DB;" width="31.8" height="31.8"/>
	<rect x="176.12" y="166.12" style="fill:#D5D6DB;" width="31.8" height="31.8"/>
	<rect x="219.844" y="166.12" style="fill:#D5D6DB;" width="31.8" height="31.8"/>
	<rect x="132.36" y="207.304" style="fill:#D5D6DB;" width="31.8" height="4"/>
	<rect x="132.36" y="217.12" style="fill:#D5D6DB;" width="31.8" height="4"/>
	<rect x="132.36" y="226.96" style="fill:#D5D6DB;" width="31.8" height="4"/>
</g>
<rect x="132.36" y="236.8" style="fill:#E56353;" width="17.444" height="4"/>
<g>
	<rect x="176.08" y="207.304" style="fill:#D5D6DB;" width="31.8" height="4"/>
	<rect x="176.08" y="217.12" style="fill:#D5D6DB;" width="31.8" height="4"/>
	<rect x="176.08" y="226.96" style="fill:#D5D6DB;" width="31.8" height="4"/>
</g>
<rect x="176.08" y="236.8" style="fill:#E56353;" width="17.444" height="4"/>
<g>
	<rect x="219.844" y="207.304" style="fill:#D5D6DB;" width="31.8" height="4"/>
	<rect x="219.844" y="217.12" style="fill:#D5D6DB;" width="31.8" height="4"/>
	<rect x="219.844" y="226.96" style="fill:#D5D6DB;" width="31.8" height="4"/>
</g>
<rect x="219.844" y="236.8" style="fill:#E56353;" width="17.444" height="4"/>
<g>
	<path style="fill:#1C75A1;" d="M134.119,137.685c-0.258,0-0.512-0.098-0.707-0.293l-3-3.004c-0.391-0.39-0.391-1.023,0-1.414   l3-3.002c0.39-0.386,1.023-0.394,1.414,0c0.39,0.391,0.39,1.024,0,1.414l-2.293,2.295l2.293,2.297c0.39,0.391,0.39,1.024,0,1.414   C134.631,137.587,134.373,137.685,134.119,137.685z"/>
	<path style="fill:#1C75A1;" d="M249.881,137.685c0.258,0,0.512-0.098,0.707-0.293l3-3.004c0.391-0.39,0.391-1.023,0-1.414l-3-3.002   c-0.39-0.386-1.023-0.394-1.414,0c-0.39,0.391-0.39,1.024,0,1.414l2.293,2.295l-2.293,2.297c-0.39,0.391-0.39,1.024,0,1.414   C249.369,137.587,249.627,137.685,249.881,137.685z"/>
</g>
<g>
</g>
<g>
</g>
<g>
</g>
<g>
</g>
<g>
</g>
<g>
</g>
<g>
</g>
<g>
</g>
<g>
</g>
<g>
</g>
<g>
</g>
<g>
</g>
<g>
</g>
<g>
</g>
<g>
</g>
</svg>
