<?xml version="1.0" encoding="iso-8859-1"?>
<!-- Generator: Adobe Illustrator 19.0.0, SVG Export Plug-In . SVG Version: 6.00 Build 0)  -->
<svg xmlns="http://www.w3.org/2000/svg" xmlns:xlink="http://www.w3.org/1999/xlink" version="1.1" id="Capa_1" x="0px" y="0px" viewBox="0 0 384 384" style="enable-background:new 0 0 384 384;" xml:space="preserve">
<circle style="fill:#45B39C;" cx="192" cy="192" r="192"/>
<path style="opacity:0.1;enable-background:new    ;" d="M263.12,81.997H120.88c-5.56,0-10.08,4.52-10.08,10.08v203.88  c0,1.56,0.6,3,1.6,4.08l0.36,0.36l83.523,83.495c101.859-2.237,184.125-83.752,187.552-185.315L270.4,85.117  C268.56,83.198,265.96,81.997,263.12,81.997z"/>
<path style="fill:#64798A;" d="M273.204,92.078c0-5.566-4.512-10.078-10.079-10.078H120.874c-5.566,0-10.078,4.512-10.078,10.078  v31.388h162.408V92.078z"/>
<path style="fill:#EBF0F3;" d="M110.796,123.466v172.487c0,3.34,2.707,6.047,6.047,6.047h150.314c3.34,0,6.047-2.708,6.047-6.047  V123.466H110.796z"/>
<g>
	<rect x="110.796" y="155.316" style="fill:#E1E6E9;" width="162.408" height="3.484"/>
	<rect x="110.796" y="191.704" style="fill:#E1E6E9;" width="162.408" height="3.484"/>
	<rect x="110.796" y="228.08" style="fill:#E1E6E9;" width="162.408" height="3.484"/>
	<rect x="110.796" y="264.48" style="fill:#E1E6E9;" width="162.408" height="3.484"/>
	<circle style="fill:#E1E6E9;" cx="252.24" cy="138.756" r="8.04"/>
</g>
<polygon style="fill:#EBF0F3;" points="250.969,144.773 248.72,142.524 252.491,138.753 248.72,134.986 250.969,132.737   256.989,138.753 "/>
<circle style="fill:#E1E6E9;" cx="252.24" cy="175.332" r="8.04"/>
<polygon style="fill:#EBF0F3;" points="250.969,181.352 248.72,179.103 252.491,175.332 248.72,171.565 250.969,169.316   256.989,175.332 "/>
<circle style="fill:#E1E6E9;" cx="252.24" cy="211.912" r="8.04"/>
<polygon style="fill:#EBF0F3;" points="250.969,217.931 248.72,215.682 252.491,211.912 248.72,208.144 250.969,205.895   256.989,211.912 "/>
<circle style="fill:#E1E6E9;" cx="252.24" cy="248.48" r="8.04"/>
<polygon style="fill:#EBF0F3;" points="250.969,254.51 248.72,252.261 252.491,248.49 248.72,244.723 250.969,242.474   256.989,248.49 "/>
<circle style="fill:#E1E6E9;" cx="252.24" cy="285.08" r="8.04"/>
<polygon style="fill:#EBF0F3;" points="250.969,291.089 248.72,288.84 252.491,285.07 248.72,281.302 250.969,279.053   256.989,285.07 "/>
<g>
	<rect x="127.428" y="135.268" style="fill:#E1E6E9;" width="48.48" height="6.968"/>
	<rect x="127.428" y="96.04" style="fill:#E1E6E9;" width="48.48" height="13.352"/>
</g>
<rect x="233.28" y="96.04" style="fill:#2F4859;" width="27.012" height="13.352"/>
<g>
	<rect x="127.428" y="171.852" style="fill:#E1E6E9;" width="48.48" height="6.968"/>
	<rect x="127.428" y="208.44" style="fill:#E1E6E9;" width="48.48" height="6.968"/>
	<rect x="127.428" y="245" style="fill:#E1E6E9;" width="48.48" height="6.968"/>
	<rect x="127.428" y="281.6" style="fill:#E1E6E9;" width="48.48" height="6.968"/>
</g>
<g>
</g>
<g>
</g>
<g>
</g>
<g>
</g>
<g>
</g>
<g>
</g>
<g>
</g>
<g>
</g>
<g>
</g>
<g>
</g>
<g>
</g>
<g>
</g>
<g>
</g>
<g>
</g>
<g>
</g>
</svg>
