<?xml version="1.0" encoding="iso-8859-1"?>
<!-- Generator: Adobe Illustrator 19.0.0, SVG Export Plug-In . SVG Version: 6.00 Build 0)  -->
<svg xmlns="http://www.w3.org/2000/svg" xmlns:xlink="http://www.w3.org/1999/xlink" version="1.1" id="Capa_1" x="0px" y="0px" viewBox="0 0 384 384" style="enable-background:new 0 0 384 384;" xml:space="preserve">
<circle style="fill:#E05B49;" cx="192" cy="192" r="192"/>
<path style="opacity:0.1;enable-background:new    ;" d="M262.52,97.438c-9.24-9.52-22.2-15.44-36.56-15.44  c-5.2,0-10.24,0.8-15,2.24c-0.68-0.681-1.48-1.28-2.4-1.681c-0.84-0.359-1.8-0.56-2.8-0.56H89.16c-3.96,0-7.16,3.2-7.16,7.16v205.68  c0,1.92,0.76,3.68,2,4.96l0.28,0.28l82.18,82.181C174.821,383.37,183.335,384,192,384c97.482,0,177.938-72.666,190.298-166.774  L263.84,98.797L262.52,97.438z"/>
<path style="fill:#3A556A;" d="M205.775,90H89.159C85.206,90,82,93.205,82,97.159v197.682c0,3.954,3.206,7.158,7.159,7.158h116.616  c3.953,0,7.158-3.205,7.158-7.158V97.159C212.934,93.205,209.728,90,205.775,90z"/>
<path style="fill:#64798A;" d="M205.775,82H89.159C85.206,82,82,85.205,82,89.159v197.682c0,3.954,3.206,7.158,7.159,7.158h116.616  c3.953,0,7.158-3.205,7.158-7.158V89.159C212.934,85.205,209.728,82,205.775,82z"/>
<g>
	<rect x="98" y="98" style="fill:#EBF0F3;" width="98.932" height="162.352"/>
	<circle style="fill:#EBF0F3;" cx="147.468" cy="278" r="9.088"/>
</g>
<rect x="98" y="237.6" style="fill:#D5D6DB;" width="98.932" height="22.736"/>
<path style="fill:#44C4A1;" d="M116.219,241.814h-10.437c-1.196,0-2.166,0.97-2.166,2.166v10.437c0,1.196,0.97,2.166,2.166,2.166  h10.437c1.196,0,2.166-0.97,2.166-2.166V243.98C118.385,242.784,117.415,241.814,116.219,241.814z"/>
<path style="fill:#64798A;" d="M140.53,241.814h-10.437c-1.196,0-2.166,0.97-2.166,2.166v10.437c0,1.196,0.97,2.166,2.166,2.166  h10.437c1.196,0,2.166-0.97,2.166-2.166V243.98C142.696,242.784,141.726,241.814,140.53,241.814z"/>
<path style="fill:#27A2DB;" d="M164.841,241.814h-10.437c-1.196,0-2.166,0.97-2.166,2.166v10.437c0,1.196,0.97,2.166,2.166,2.166  h10.437c1.196,0,2.166-0.97,2.166-2.166V243.98C167.007,242.784,166.037,241.814,164.841,241.814z"/>
<path style="fill:#DC8744;" d="M189.152,241.814h-10.437c-1.196,0-2.166,0.97-2.166,2.166v10.437c0,1.196,0.97,2.166,2.166,2.166  h10.437c1.196,0,2.166-0.97,2.166-2.166V243.98C191.318,242.784,190.348,241.814,189.152,241.814z"/>
<path style="fill:#3A556A;" d="M205.775,82h-9.494c-2.835,1.654-5.55,3.542-8.106,5.676c-3.277-0.965-6.66-1.453-10.106-1.453  c-10.531,0-19.994,4.56-26.601,11.776h45.464v94.665h16V89.159C212.933,85.205,209.728,82,205.775,82z"/>
<path style="fill:#E1E6E9;" d="M141.976,123.301c-13.129,5.543-22.051,18.527-22.051,33.254c0,19.91,16.199,36.109,36.109,36.109  h40.898V97.999h-45.464c-5.884,6.426-9.508,14.954-9.508,24.333C141.961,122.652,141.965,122.976,141.976,123.301z"/>
<path style="fill:#FFFFFF;" d="M276.84,128.6c-2.276-26.109-24.161-46.6-50.86-46.6c-14.063,0-26.796,5.686-36.034,14.881  c-3.61-1.689-7.625-2.659-11.875-2.659c-15.525,0-28.111,12.585-28.111,28.11c0,2.284,0.303,4.494,0.816,6.62  c-13.008,2.465-22.849,13.876-22.849,27.601c0,15.525,12.584,28.11,28.109,28.11h117.853c15.525,0,28.111-12.585,28.111-28.11  C302,142.026,290.977,130.075,276.84,128.6z"/>
<g>
	<path style="fill:#EBF0F3;" d="M147.205,143.621l9.801-1.858l-0.998-4.138l-3.463,0.656c-5.083,0.963-9.308,3.989-12.002,8.074   C142.528,145.056,144.758,144.084,147.205,143.621z"/>
	<path style="fill:#EBF0F3;" d="M275.854,138.043l-7.792-0.814l-0.68-7.804c-1.858-21.269-20.044-37.93-41.404-37.93   c-11.065,0-21.484,4.302-29.335,12.116l-4.704,4.682l-6.015-2.811c-2.503-1.171-5.146-1.765-7.854-1.765   c-6.495,0-12.216,3.35-15.548,8.407c2.933-1.934,6.44-3.067,10.209-3.067c2.708,0,5.35,0.594,7.854,1.765l6.015,2.811l4.704-4.683   c7.851-7.813,18.27-12.116,29.335-12.116c21.36,0,39.546,16.661,41.404,37.93l0.68,7.804l7.792,0.814   c9.492,0.99,16.65,8.948,16.65,18.511c0,3.768-1.134,7.274-3.066,10.208c5.056-3.331,8.405-9.052,8.405-15.547   C292.504,146.991,285.346,139.034,275.854,138.043z"/>
</g>
<path style="fill:#3EA69B;" d="M214.964,126.069v44c12.15,0,22-9.85,22-22C236.964,135.919,227.114,126.069,214.964,126.069z"/>
<path style="fill:#44C4A1;" d="M192.963,148.069c0,12.15,9.85,22,22,22v-44C202.813,126.069,192.963,135.919,192.963,148.069z"/>
<polygon style="fill:#31978C;" points="208.505,145.004 208.505,163.47 221.422,163.47 221.422,145.004 226.138,145.004   214.964,133.83 203.788,145.004 "/>
<polygon style="fill:#FFFFFF;" points="208.505,143.843 208.505,162.308 221.422,162.308 221.422,143.843 226.138,143.843   214.964,132.668 203.788,143.843 "/>
<g>
</g>
<g>
</g>
<g>
</g>
<g>
</g>
<g>
</g>
<g>
</g>
<g>
</g>
<g>
</g>
<g>
</g>
<g>
</g>
<g>
</g>
<g>
</g>
<g>
</g>
<g>
</g>
<g>
</g>
</svg>
