<?xml version="1.0" encoding="iso-8859-1"?>
<!-- Generator: Adobe Illustrator 19.0.0, SVG Export Plug-In . SVG Version: 6.00 Build 0)  -->
<svg xmlns="http://www.w3.org/2000/svg" xmlns:xlink="http://www.w3.org/1999/xlink" version="1.1" id="Capa_1" x="0px" y="0px" viewBox="0 0 384 384" style="enable-background:new 0 0 384 384;" xml:space="preserve">
<circle style="fill:#45B39C;" cx="192" cy="192" r="192"/>
<path style="opacity:0.1;enable-background:new    ;" d="M124.08,85.358v50.4H97.56c-2.84,0-5.16,2.32-5.16,5.16v138.76H82v14.4  l88.689,88.718C177.69,383.568,184.793,384,192,384c100.417,0,182.778-77.103,191.234-175.329L259.92,85.358H124.08z"/>
<path style="fill:#3A556A;" d="M286.422,135.747h-17.136l-0.783,11.111h10.979v121.724H259.92H124.063h-19.546V146.858h10.963  l-0.783-11.111H97.576c-2.864,0-5.188,2.323-5.188,5.188v138.759h199.223V140.936C291.612,138.07,289.288,135.747,286.422,135.747z"/>
<polygon style="fill:#64798A;" points="279.482,268.582 279.482,146.858 268.503,146.858 259.92,268.582 "/>
<polygon style="fill:#2F4859;" points="268.503,146.858 269.286,135.747 114.697,135.747 115.48,146.858 "/>
<polygon style="fill:#3A556A;" points="124.063,268.582 259.92,268.582 268.503,146.858 115.48,146.858 "/>
<rect x="82" y="279.68" style="fill:#EBF0F3;" width="220" height="14.372"/>
<g>
	<polygon style="fill:#D5D6DB;" points="301.679,294.082 82.321,294.082 97.311,298.64 286.689,298.64  "/>
	<rect x="176.64" y="285.2" style="fill:#D5D6DB;" width="30.76" height="3.364"/>
</g>
<rect x="124.08" y="85.36" style="fill:#EBF0F3;" width="135.856" height="183.224"/>
<polygon style="fill:#64798A;" points="104.517,146.858 104.517,268.582 124.063,268.582 115.48,146.858 "/>
<path style="fill:#FCD462;" d="M151.938,109.492h-17.155c-0.637,0-1.154,0.627-1.154,1.4v9.267c0,0.773,0.517,1.4,1.154,1.4h17.155  c0.637,0,1.154-0.627,1.154-1.4v-9.267C153.092,110.118,152.576,109.492,151.938,109.492z"/>
<path style="fill:#E56353;" d="M176.254,109.492h-17.155c-0.638,0-1.154,0.627-1.154,1.4v9.267c0,0.773,0.516,1.4,1.154,1.4h17.155  c0.637,0,1.154-0.627,1.154-1.4v-9.267C177.407,110.118,176.891,109.492,176.254,109.492z"/>
<path style="fill:#44C4A1;" d="M200.568,109.492h-17.154c-0.638,0-1.154,0.627-1.154,1.4v9.267c0,0.773,0.517,1.4,1.154,1.4h17.154  c0.638,0,1.154-0.627,1.154-1.4v-9.267C201.723,110.118,201.206,109.492,200.568,109.492z"/>
<path style="fill:#27A2DB;" d="M224.884,109.492h-17.154c-0.638,0-1.154,0.627-1.154,1.4v9.267c0,0.773,0.517,1.4,1.154,1.4h17.154  c0.637,0,1.154-0.627,1.154-1.4v-9.267C226.038,110.118,225.521,109.492,224.884,109.492z"/>
<g>
	<path style="fill:#64798A;" d="M249.199,109.492h-17.155c-0.637,0-1.154,0.627-1.154,1.4v9.267c0,0.773,0.517,1.4,1.154,1.4h17.155   c0.637,0,1.154-0.627,1.154-1.4v-9.267C250.353,110.118,249.836,109.492,249.199,109.492z"/>
	<rect x="124.08" y="126.548" style="fill:#64798A;" width="135.864" height="52.48"/>
</g>
<g>
	<polygon style="fill:#EBF0F3;" points="134.602,156.949 131.177,152.793 134.602,148.639 136.014,150.353 134.002,152.793    136.014,155.234  "/>
	<polygon style="fill:#EBF0F3;" points="249.406,156.949 252.83,152.793 249.406,148.639 247.993,150.353 250.005,152.793    247.993,155.234  "/>
</g>
<rect x="133.6" y="184.08" style="fill:#FCD462;" width="34.092" height="37.664"/>
<rect x="174.956" y="184.08" style="fill:#44C4A1;" width="34.092" height="37.664"/>
<rect x="216.32" y="184.08" style="fill:#E56353;" width="34.092" height="37.664"/>
<rect x="133.6" y="216.6" style="fill:#F6C358;" width="34.092" height="5.12"/>
<rect x="174.956" y="216.6" style="fill:#3EA69B;" width="34.092" height="5.12"/>
<rect x="216.32" y="216.6" style="fill:#D15241;" width="34.092" height="5.12"/>
<g>
	<rect x="133.6" y="233.08" style="fill:#E1E6E9;" width="34.092" height="5.12"/>
	<rect x="174.956" y="233.08" style="fill:#E1E6E9;" width="34.092" height="5.12"/>
	<rect x="216.32" y="233.08" style="fill:#E1E6E9;" width="34.092" height="5.12"/>
	<rect x="133.6" y="248.04" style="fill:#E1E6E9;" width="16.988" height="5.12"/>
	<rect x="174.956" y="248.04" style="fill:#E1E6E9;" width="13.564" height="5.12"/>
	<rect x="216.32" y="248.04" style="fill:#E1E6E9;" width="16.988" height="5.12"/>
</g>
<rect x="124.08" y="85.36" style="fill:#64798A;" width="135.856" height="19.4"/>
<rect x="132.116" y="90.144" style="fill:#EBF0F3;" width="79.456" height="9.884"/>
<circle style="fill:#FCD462;" cx="220.8" cy="95.2" r="5.068"/>
<circle style="fill:#44C4A1;" cx="233.8" cy="95.2" r="5.068"/>
<circle style="fill:#E56353;" cx="246.8" cy="95.2" r="5.068"/>
<g>
</g>
<g>
</g>
<g>
</g>
<g>
</g>
<g>
</g>
<g>
</g>
<g>
</g>
<g>
</g>
<g>
</g>
<g>
</g>
<g>
</g>
<g>
</g>
<g>
</g>
<g>
</g>
<g>
</g>
</svg>
