<?xml version="1.0" encoding="iso-8859-1"?>
<!-- Generator: Adobe Illustrator 19.0.0, SVG Export Plug-In . SVG Version: 6.00 Build 0)  -->
<svg xmlns="http://www.w3.org/2000/svg" xmlns:xlink="http://www.w3.org/1999/xlink" version="1.1" id="Capa_1" x="0px" y="0px" viewBox="0 0 384 384" style="enable-background:new 0 0 384 384;" xml:space="preserve">
<circle style="fill:#EFC84A;" cx="192" cy="192" r="192"/>
<path style="opacity:0.1;enable-background:new    ;" d="M255.6,84.358c-1.28-1.44-3.16-2.36-5.28-2.36H133.68  c-3.96,0-7.16,3.2-7.16,7.16v205.68c0,2.12,0.92,4,2.36,5.28l82.875,82.875c90.273-9.227,162.03-80.992,171.242-171.268  L255.68,84.438L255.6,84.358z"/>
<path style="fill:#3A556A;" d="M250.308,90H133.692c-3.954,0-7.159,3.205-7.159,7.159v197.682c0,3.954,3.206,7.158,7.159,7.158  h116.616c3.953,0,7.158-3.205,7.158-7.158V97.159C257.467,93.205,254.262,90,250.308,90z"/>
<path style="fill:#64798A;" d="M250.308,82H133.692c-3.954,0-7.159,3.205-7.159,7.159v197.682c0,3.954,3.206,7.158,7.159,7.158  h116.616c3.953,0,7.158-3.205,7.158-7.158V89.159C257.467,85.205,254.262,82,250.308,82z"/>
<g>
	<rect x="142.532" y="98" style="fill:#EBF0F3;" width="98.932" height="162.352"/>
	<circle style="fill:#EBF0F3;" cx="192" cy="278" r="9.088"/>
</g>
<g>
	<path style="fill:#E56353;" d="M150.385,137.675v-6.576l23.328-10.992v7.056l-15.41,7.104l15.41,7.297v7.104L150.385,137.675z"/>
	<path style="fill:#E56353;" d="M198.67,114.683h6.816l-20.16,44.018h-6.766L198.67,114.683z"/>
	<path style="fill:#E56353;" d="M233.615,131.099v6.576l-23.328,10.992v-7.104l15.41-7.297l-15.41-7.104v-7.056L233.615,131.099z"/>
</g>
<path style="fill:#44C4A1;" d="M227.144,221.307c0.736-2.88,1.128-5.896,1.128-9.005s-0.393-6.126-1.128-9.005l5.589-4.955  c0.9-0.798,1.115-2.12,0.513-3.163l-5.794-10.035c-0.602-1.042-1.854-1.517-2.996-1.137l-7.101,2.368  c-4.295-4.201-9.628-7.338-15.58-9.001l-1.499-7.327c-0.241-1.179-1.279-2.026-2.482-2.026h-11.588  c-1.203,0-2.241,0.847-2.482,2.026l-1.499,7.327c-5.951,1.662-11.284,4.8-15.579,9.001l-7.102-2.368  c-1.142-0.38-2.394,0.095-2.996,1.137l-5.794,10.035c-0.602,1.042-0.387,2.364,0.513,3.163l5.588,4.955  c-0.736,2.88-1.128,5.896-1.128,9.005s0.393,6.126,1.128,9.005l-5.589,4.955c-0.9,0.798-1.115,2.12-0.513,3.163l5.794,10.035  c0.602,1.043,1.854,1.518,2.996,1.137l7.102-2.368c4.295,4.2,9.628,7.338,15.579,9.001l1.499,7.327  c0.241,1.179,1.279,2.026,2.482,2.026h11.588c1.204,0,2.241-0.847,2.482-2.026l1.499-7.327c5.951-1.662,11.284-4.8,15.579-9.001  l7.102,2.367c1.142,0.381,2.394-0.094,2.996-1.137l5.794-10.035c0.602-1.042,0.387-2.364-0.513-3.163L227.144,221.307z"/>
<circle style="fill:#FFFFFF;" cx="192" cy="212.32" r="25.668"/>
<g>
	<path style="fill:#3EA69B;" d="M192,239.609c-15.057,0-27.308-12.25-27.308-27.308c0-15.058,12.25-27.307,27.308-27.307   c15.057,0,27.308,12.25,27.308,27.307C219.308,227.359,207.058,239.609,192,239.609z M192,188.035   c-13.38,0-24.266,10.886-24.266,24.266c0,13.381,10.886,24.266,24.266,24.266c13.38,0,24.266-10.886,24.266-24.266   C216.267,198.921,205.381,188.035,192,188.035z"/>
	<circle style="fill:#3EA69B;" cx="192" cy="212.32" r="12.992"/>
</g>
<rect x="142.532" y="237.6" style="fill:#D5D6DB;" width="98.932" height="22.736"/>
<path style="fill:#44C4A1;" d="M160.752,241.814h-10.437c-1.196,0-2.166,0.97-2.166,2.166v10.437c0,1.196,0.97,2.166,2.166,2.166  h10.437c1.196,0,2.166-0.97,2.166-2.166V243.98C162.918,242.784,161.948,241.814,160.752,241.814z"/>
<path style="fill:#64798A;" d="M185.063,241.814h-10.437c-1.196,0-2.166,0.97-2.166,2.166v10.437c0,1.196,0.97,2.166,2.166,2.166  h10.437c1.196,0,2.166-0.97,2.166-2.166V243.98C187.229,242.784,186.259,241.814,185.063,241.814z"/>
<path style="fill:#27A2DB;" d="M209.374,241.814h-10.437c-1.196,0-2.166,0.97-2.166,2.166v10.437c0,1.196,0.97,2.166,2.166,2.166  h10.437c1.196,0,2.166-0.97,2.166-2.166V243.98C211.54,242.784,210.57,241.814,209.374,241.814z"/>
<path style="fill:#DC8744;" d="M233.685,241.814h-10.437c-1.196,0-2.166,0.97-2.166,2.166v10.437c0,1.196,0.97,2.166,2.166,2.166  h10.437c1.196,0,2.166-0.97,2.166-2.166V243.98C235.851,242.784,234.881,241.814,233.685,241.814z"/>
<g>
</g>
<g>
</g>
<g>
</g>
<g>
</g>
<g>
</g>
<g>
</g>
<g>
</g>
<g>
</g>
<g>
</g>
<g>
</g>
<g>
</g>
<g>
</g>
<g>
</g>
<g>
</g>
<g>
</g>
</svg>
