<?xml version="1.0" encoding="iso-8859-1"?>
<!-- Generator: Adobe Illustrator 19.0.0, SVG Export Plug-In . SVG Version: 6.00 Build 0)  -->
<svg xmlns="http://www.w3.org/2000/svg" xmlns:xlink="http://www.w3.org/1999/xlink" version="1.1" id="Capa_1" x="0px" y="0px" viewBox="0 0 384 384" style="enable-background:new 0 0 384 384;" xml:space="preserve">
<circle style="fill:#E05B49;" cx="192" cy="192" r="192"/>
<path style="opacity:0.1;enable-background:new    ;" d="M124.08,81.997v43.84H87.4c-2.96,0-5.4,2.24-5.4,4.96v137.88  c0,1.4,0.64,2.681,1.68,3.561l0.08,0.079l111.598,111.599c99.942-1.722,181.23-79.764,188.113-178.366L259.92,81.997H124.08z"/>
<path style="fill:#3A556A;" d="M296.586,125.841h-24.971l-1.036,11.011H290v113.254h-30.08H124.064H94V136.852h19.404l-1.037-11.011  H87.414c-2.99,0-5.414,2.224-5.414,4.967V268.67c0,2.744,2.424,4.968,5.414,4.968h209.172c2.99,0,5.414-2.224,5.414-4.968V130.808  C302,128.064,299.576,125.841,296.586,125.841z"/>
<polygon style="fill:#EBF0F3;" points="290,250.106 290,136.852 270.579,136.852 259.92,250.106 "/>
<polygon style="fill:#2F4859;" points="270.579,136.852 271.615,125.841 112.367,125.841 113.404,136.852 "/>
<polygon style="fill:#E1E6E9;" points="124.064,250.106 259.92,250.106 270.579,136.852 113.404,136.852 "/>
<g>
	<rect x="124.08" y="82" style="fill:#EBF0F3;" width="135.856" height="168.12"/>
	<polygon style="fill:#EBF0F3;" points="94,136.852 94,250.106 124.064,250.106 113.404,136.852  "/>
</g>
<path style="fill:#FCD462;" d="M151.939,104.141h-17.156c-0.636,0-1.153,0.575-1.153,1.285v8.502c0,0.71,0.517,1.284,1.153,1.284  h17.156c0.637,0,1.154-0.575,1.154-1.284v-8.502C153.092,104.716,152.576,104.141,151.939,104.141z"/>
<path style="fill:#E56353;" d="M176.254,104.141h-17.156c-0.637,0-1.154,0.575-1.154,1.285v8.502c0,0.71,0.516,1.284,1.154,1.284  h17.156c0.637,0,1.154-0.575,1.154-1.284v-8.502C177.408,104.716,176.891,104.141,176.254,104.141z"/>
<path style="fill:#44C4A1;" d="M200.569,104.141h-17.155c-0.637,0-1.154,0.575-1.154,1.285v8.502c0,0.71,0.517,1.284,1.154,1.284  h17.155c0.638,0,1.154-0.575,1.154-1.284v-8.502C201.723,104.716,201.207,104.141,200.569,104.141z"/>
<path style="fill:#27A2DB;" d="M224.884,104.141h-17.155c-0.637,0-1.154,0.575-1.154,1.285v8.502c0,0.71,0.517,1.284,1.154,1.284  h17.155c0.637,0,1.154-0.575,1.154-1.284v-8.502C226.038,104.716,225.521,104.141,224.884,104.141z"/>
<g>
	<path style="fill:#64798A;" d="M249.199,104.141h-17.155c-0.637,0-1.154,0.575-1.154,1.285v8.502c0,0.71,0.517,1.284,1.154,1.284   h17.155c0.637,0,1.154-0.575,1.154-1.284v-8.502C250.353,104.716,249.836,104.141,249.199,104.141z"/>
	<rect x="124.08" y="119.792" style="fill:#64798A;" width="135.864" height="48.16"/>
</g>
<g>
	<polygon style="fill:#EBF0F3;" points="134.602,147.683 131.177,143.87 134.602,140.058 136.015,141.631 134.003,143.87    136.015,146.11  "/>
	<polygon style="fill:#EBF0F3;" points="249.406,147.683 252.831,143.87 249.406,140.058 247.993,141.631 250.005,143.87    247.993,146.11  "/>
</g>
<rect x="133.6" y="172.56" style="fill:#FCD462;" width="34.092" height="34.556"/>
<rect x="174.956" y="172.56" style="fill:#44C4A1;" width="34.092" height="34.556"/>
<rect x="216.32" y="172.56" style="fill:#E56353;" width="34.092" height="34.556"/>
<rect x="133.6" y="202.44" style="fill:#F6C358;" width="34.092" height="4.696"/>
<rect x="174.956" y="202.44" style="fill:#3EA69B;" width="34.092" height="4.696"/>
<rect x="216.32" y="202.44" style="fill:#D15241;" width="34.092" height="4.696"/>
<g>
	<rect x="133.6" y="217.52" style="fill:#E1E6E9;" width="34.092" height="4.696"/>
	<rect x="174.956" y="217.52" style="fill:#E1E6E9;" width="34.092" height="4.696"/>
	<rect x="216.32" y="217.52" style="fill:#E1E6E9;" width="34.092" height="4.696"/>
	<rect x="133.6" y="231.272" style="fill:#E1E6E9;" width="16.988" height="4.696"/>
	<rect x="174.956" y="231.272" style="fill:#E1E6E9;" width="13.564" height="4.696"/>
	<rect x="216.32" y="231.272" style="fill:#E1E6E9;" width="16.988" height="4.696"/>
</g>
<rect x="124.08" y="82" style="fill:#64798A;" width="135.856" height="17.8"/>
<rect x="132.12" y="86.38" style="fill:#EBF0F3;" width="79.456" height="9.068"/>
<ellipse style="fill:#FCD462;" cx="220.8" cy="91.028" rx="5.068" ry="4.652"/>
<ellipse style="fill:#44C4A1;" cx="233.8" cy="91.028" rx="5.068" ry="4.652"/>
<ellipse style="fill:#E56353;" cx="246.8" cy="91.028" rx="5.068" ry="4.652"/>
<g>
	<ellipse style="fill:#2F4859;" cx="192" cy="261.28" rx="8.4" ry="7.708"/>
	<rect x="149.76" y="273.64" style="fill:#2F4859;" width="84.48" height="16.12"/>
</g>
<polygon style="fill:#64798A;" points="234.238,289.775 149.762,289.775 234.238,273.638 "/>
<path style="fill:#3A556A;" d="M251.48,289.683H132.519c-2.318,0-4.196,1.724-4.196,3.85V302h127.354v-8.467  C255.677,291.407,253.798,289.683,251.48,289.683z"/>
<g>
</g>
<g>
</g>
<g>
</g>
<g>
</g>
<g>
</g>
<g>
</g>
<g>
</g>
<g>
</g>
<g>
</g>
<g>
</g>
<g>
</g>
<g>
</g>
<g>
</g>
<g>
</g>
<g>
</g>
</svg>
