<?xml version="1.0" encoding="iso-8859-1"?>
<!-- Generator: Adobe Illustrator 19.0.0, SVG Export Plug-In . SVG Version: 6.00 Build 0)  -->
<svg xmlns="http://www.w3.org/2000/svg" xmlns:xlink="http://www.w3.org/1999/xlink" version="1.1" id="Capa_1" x="0px" y="0px" viewBox="0 0 384 384" style="enable-background:new 0 0 384 384;" xml:space="preserve">
<circle style="fill:#45B39C;" cx="192" cy="192" r="192"/>
<path style="opacity:0.1;enable-background:new    ;" d="M229.4,83.518c-1-0.961-2.28-1.52-3.68-1.52H113.96  c-2.88,0-5.16,2.319-5.16,5.16v209.68c0,1.52,0.68,2.92,1.72,3.8l0.04,0.04l83.246,83.278  c90.958-0.843,166.762-64.915,185.633-150.398L273.72,127.837L229.4,83.518z"/>
<path style="fill:#EBF0F3;" d="M225.736,82H113.949c-2.85,0-5.161,2.311-5.161,5.161v209.677c0,2.85,2.311,5.162,5.161,5.162  h156.102c2.85,0,5.161-2.311,5.161-5.162V131.477c0-1.369-0.544-2.682-1.512-3.65l-44.315-44.315  C228.418,82.544,227.105,82,225.736,82z"/>
<g>
	<path style="fill:#E56353;" d="M128.503,180.618h8.25v22.698h-3.639v-19.288h-4.611V180.618z"/>
	<path style="fill:#E56353;" d="M144.155,200.378c-1.535-2.133-2.304-4.985-2.304-8.557s0.769-6.424,2.304-8.557   c1.538-2.131,3.853-3.197,6.95-3.197c3.094,0,5.412,1.066,6.95,3.197c1.536,2.133,2.304,4.985,2.304,8.557   s-0.769,6.424-2.304,8.557c-1.538,2.132-3.856,3.199-6.95,3.199C148.008,203.576,145.693,202.51,144.155,200.378z M146.9,185.684   c-0.898,1.559-1.348,3.604-1.348,6.137s0.449,4.578,1.348,6.137c0.899,1.559,2.299,2.338,4.204,2.338   c1.906,0,3.295-0.773,4.173-2.322c0.877-1.547,1.316-3.598,1.316-6.153c0-2.554-0.439-4.605-1.316-6.153   c-0.878-1.547-2.267-2.322-4.173-2.322C149.2,183.346,147.799,184.126,146.9,185.684z"/>
	<path style="fill:#E56353;" d="M163.216,180.618h8.25v22.698h-3.639v-19.288h-4.611V180.618z"/>
	<path style="fill:#E56353;" d="M178.865,200.378c-1.536-2.133-2.304-4.985-2.304-8.557s0.769-6.424,2.304-8.557   c1.538-2.131,3.853-3.197,6.95-3.197c3.094,0,5.412,1.066,6.95,3.197c1.535,2.133,2.304,4.985,2.304,8.557   s-0.769,6.424-2.304,8.557c-1.538,2.132-3.856,3.199-6.95,3.199C182.718,203.576,180.403,202.51,178.865,200.378z M181.611,185.684   c-0.898,1.559-1.348,3.604-1.348,6.137s0.449,4.578,1.348,6.137c0.898,1.559,2.299,2.338,4.204,2.338   c1.905,0,3.295-0.773,4.172-2.322c0.878-1.547,1.316-3.598,1.316-6.153c0-2.554-0.438-4.605-1.316-6.153   c-0.877-1.547-2.267-2.322-4.172-2.322C183.91,183.346,182.509,184.126,181.611,185.684z"/>
	<path style="fill:#E56353;" d="M197.926,180.618h8.25v22.698h-3.639v-19.288h-4.611V180.618z"/>
	<path style="fill:#E56353;" d="M210.298,180.618h8.25v22.698h-3.639v-19.288h-4.611V180.618z"/>
	<path style="fill:#E56353;" d="M225.95,200.378c-1.535-2.133-2.304-4.985-2.304-8.557s0.769-6.424,2.304-8.557   c1.538-2.131,3.853-3.197,6.95-3.197c3.094,0,5.412,1.066,6.95,3.197c1.535,2.133,2.304,4.985,2.304,8.557   s-0.769,6.424-2.304,8.557c-1.538,2.132-3.856,3.199-6.95,3.199C229.803,203.576,227.488,202.51,225.95,200.378z M228.696,185.684   c-0.898,1.559-1.348,3.604-1.348,6.137s0.449,4.578,1.348,6.137c0.898,1.559,2.299,2.338,4.204,2.338   c1.905,0,3.295-0.773,4.172-2.322c0.878-1.547,1.316-3.598,1.316-6.153c0-2.554-0.438-4.605-1.316-6.153   c-0.877-1.547-2.267-2.322-4.172-2.322C230.995,183.346,229.594,184.126,228.696,185.684z"/>
	<path style="fill:#E56353;" d="M245.011,180.618h8.25v22.698h-3.639v-19.288h-4.611V180.618z"/>
	<path style="fill:#E56353;" d="M128.503,211.027h8.25v22.698h-3.639v-19.288h-4.611V211.027z"/>
	<path style="fill:#E56353;" d="M140.876,211.027h8.25v22.698h-3.639v-19.288h-4.611V211.027z"/>
	<path style="fill:#E56353;" d="M156.525,230.787c-1.535-2.132-2.304-4.985-2.304-8.557c0-3.571,0.769-6.424,2.304-8.556   c1.538-2.131,3.853-3.198,6.95-3.198c3.094,0,5.412,1.066,6.95,3.198c1.535,2.132,2.304,4.985,2.304,8.556   c0,3.572-0.769,6.424-2.304,8.557c-1.538,2.132-3.856,3.199-6.95,3.199C160.378,233.986,158.063,232.919,156.525,230.787z    M159.27,216.093c-0.898,1.559-1.348,3.604-1.348,6.137c0,2.533,0.449,4.578,1.348,6.138c0.898,1.559,2.299,2.337,4.204,2.337   c1.905,0,3.295-0.773,4.173-2.322c0.877-1.547,1.316-3.598,1.316-6.153c0-2.554-0.439-4.604-1.316-6.153   c-0.878-1.547-2.268-2.321-4.173-2.321C161.57,213.756,160.169,214.535,159.27,216.093z"/>
	<path style="fill:#E56353;" d="M175.586,211.027h8.25v22.698h-3.639v-19.288h-4.611V211.027z"/>
	<path style="fill:#E56353;" d="M191.238,230.787c-1.535-2.132-2.304-4.985-2.304-8.557c0-3.571,0.769-6.424,2.304-8.556   c1.538-2.131,3.853-3.198,6.95-3.198c3.094,0,5.412,1.066,6.95,3.198c1.535,2.132,2.304,4.985,2.304,8.556   c0,3.572-0.769,6.424-2.304,8.557c-1.538,2.132-3.856,3.199-6.95,3.199C195.09,233.986,192.776,232.919,191.238,230.787z    M193.983,216.093c-0.898,1.559-1.348,3.604-1.348,6.137c0,2.533,0.449,4.578,1.348,6.138c0.898,1.559,2.299,2.337,4.204,2.337   c1.905,0,3.295-0.773,4.172-2.322c0.878-1.547,1.316-3.598,1.316-6.153c0-2.554-0.438-4.604-1.316-6.153   c-0.877-1.547-2.267-2.321-4.172-2.321C196.282,213.756,194.882,214.535,193.983,216.093z"/>
	<path style="fill:#E56353;" d="M210.298,211.027h8.25v22.698h-3.639v-19.288h-4.611V211.027z"/>
	<path style="fill:#E56353;" d="M225.95,230.787c-1.535-2.132-2.304-4.985-2.304-8.557c0-3.571,0.769-6.424,2.304-8.556   c1.538-2.131,3.853-3.198,6.95-3.198c3.094,0,5.412,1.066,6.95,3.198c1.535,2.132,2.304,4.985,2.304,8.556   c0,3.572-0.769,6.424-2.304,8.557c-1.538,2.132-3.856,3.199-6.95,3.199C229.803,233.986,227.488,232.919,225.95,230.787z    M228.696,216.093c-0.898,1.559-1.348,3.604-1.348,6.137c0,2.533,0.449,4.578,1.348,6.138c0.898,1.559,2.299,2.337,4.204,2.337   c1.905,0,3.295-0.773,4.172-2.322c0.878-1.547,1.316-3.598,1.316-6.153c0-2.554-0.438-4.604-1.316-6.153   c-0.877-1.547-2.267-2.321-4.172-2.321C230.995,213.756,229.594,214.535,228.696,216.093z"/>
	<path style="fill:#E56353;" d="M245.011,211.027h8.25v22.698h-3.639v-19.288h-4.611V211.027z"/>
	<path style="fill:#E56353;" d="M127.998,261.196c-1.536-2.132-2.304-4.985-2.304-8.556c0-3.572,0.769-6.424,2.304-8.557   c1.538-2.131,3.853-3.198,6.95-3.198c3.094,0,5.412,1.066,6.95,3.198c1.535,2.133,2.304,4.985,2.304,8.557   c0,3.571-0.769,6.424-2.304,8.556c-1.538,2.133-3.856,3.199-6.95,3.199C131.851,264.395,129.536,263.329,127.998,261.196z    M130.744,246.502c-0.898,1.559-1.348,3.605-1.348,6.138c0,2.533,0.449,4.578,1.348,6.137c0.898,1.559,2.299,2.338,4.204,2.338   c1.905,0,3.295-0.773,4.172-2.322c0.877-1.547,1.316-3.598,1.316-6.153c0-2.554-0.439-4.605-1.316-6.153   c-0.877-1.547-2.267-2.322-4.172-2.322C133.043,244.165,131.642,244.944,130.744,246.502z"/>
	<path style="fill:#E56353;" d="M150.338,261.196c-1.535-2.132-2.304-4.985-2.304-8.556c0-3.572,0.769-6.424,2.304-8.557   c1.538-2.131,3.853-3.198,6.95-3.198c3.094,0,5.412,1.066,6.95,3.198c1.536,2.133,2.304,4.985,2.304,8.557   c0,3.571-0.769,6.424-2.304,8.556c-1.538,2.133-3.856,3.199-6.95,3.199C154.192,264.395,151.876,263.329,150.338,261.196z    M153.084,246.502c-0.898,1.559-1.348,3.605-1.348,6.138c0,2.533,0.449,4.578,1.348,6.137c0.899,1.559,2.299,2.338,4.204,2.338   c1.906,0,3.296-0.773,4.173-2.322c0.877-1.547,1.316-3.598,1.316-6.153c0-2.554-0.439-4.605-1.316-6.153   c-0.877-1.547-2.267-2.322-4.173-2.322C155.383,244.165,153.983,244.944,153.084,246.502z"/>
	<path style="fill:#E56353;" d="M172.679,261.196c-1.535-2.132-2.304-4.985-2.304-8.556c0-3.572,0.769-6.424,2.304-8.557   c1.538-2.131,3.853-3.198,6.95-3.198c3.094,0,5.412,1.066,6.95,3.198c1.535,2.133,2.304,4.985,2.304,8.557   c0,3.571-0.769,6.424-2.304,8.556c-1.538,2.133-3.856,3.199-6.95,3.199C176.532,264.395,174.217,263.329,172.679,261.196z    M175.424,246.502c-0.898,1.559-1.348,3.605-1.348,6.138c0,2.533,0.449,4.578,1.348,6.137c0.898,1.559,2.299,2.338,4.204,2.338   s3.295-0.773,4.173-2.322c0.877-1.547,1.316-3.598,1.316-6.153c0-2.554-0.439-4.605-1.316-6.153   c-0.878-1.547-2.268-2.322-4.173-2.322S176.323,244.944,175.424,246.502z"/>
	<path style="fill:#E56353;" d="M191.74,241.436h8.25v22.698h-3.639v-19.288h-4.611V241.436z"/>
	<path style="fill:#E56353;" d="M207.392,261.196c-1.535-2.132-2.304-4.985-2.304-8.556c0-3.572,0.769-6.424,2.304-8.557   c1.538-2.131,3.853-3.198,6.95-3.198c3.094,0,5.412,1.066,6.95,3.198c1.535,2.133,2.304,4.985,2.304,8.557   c0,3.571-0.769,6.424-2.304,8.556c-1.538,2.133-3.856,3.199-6.95,3.199C211.244,264.395,208.93,263.329,207.392,261.196z    M210.137,246.502c-0.898,1.559-1.348,3.605-1.348,6.138c0,2.533,0.449,4.578,1.348,6.137s2.299,2.338,4.204,2.338   c1.905,0,3.295-0.773,4.173-2.322c0.877-1.547,1.316-3.598,1.316-6.153c0-2.554-0.439-4.605-1.316-6.153   c-0.878-1.547-2.268-2.322-4.173-2.322C212.436,244.165,211.036,244.944,210.137,246.502z"/>
	<path style="fill:#E56353;" d="M226.452,241.436h8.25v22.698h-3.639v-19.288h-4.611V241.436z"/>
	<path style="fill:#E56353;" d="M242.102,261.196c-1.536-2.132-2.304-4.985-2.304-8.556c0-3.572,0.769-6.424,2.304-8.557   c1.538-2.131,3.853-3.198,6.95-3.198c3.095,0,5.412,1.066,6.95,3.198c1.536,2.133,2.304,4.985,2.304,8.557   c0,3.571-0.769,6.424-2.304,8.556c-1.538,2.133-3.855,3.199-6.95,3.199C245.955,264.395,243.64,263.329,242.102,261.196z    M244.848,246.502c-0.899,1.559-1.348,3.605-1.348,6.138c0,2.533,0.449,4.578,1.348,6.137c0.898,1.559,2.299,2.338,4.204,2.338   c1.906,0,3.296-0.773,4.173-2.322c0.877-1.547,1.316-3.598,1.316-6.153c0-2.554-0.439-4.605-1.316-6.153   c-0.877-1.547-2.267-2.322-4.173-2.322C247.146,244.165,245.746,244.944,244.848,246.502z"/>
</g>
<path style="fill:#D5D6DB;" d="M233.036,129.339h41.675c-0.253-0.551-0.573-1.075-1.01-1.512l-22.157-22.158l-22.158-22.158  c-0.437-0.437-0.961-0.757-1.512-1.01v41.676C227.874,127.028,230.185,129.339,233.036,129.339z"/>
<g>
</g>
<g>
</g>
<g>
</g>
<g>
</g>
<g>
</g>
<g>
</g>
<g>
</g>
<g>
</g>
<g>
</g>
<g>
</g>
<g>
</g>
<g>
</g>
<g>
</g>
<g>
</g>
<g>
</g>
</svg>
