<?xml version="1.0" encoding="iso-8859-1"?>
<!-- Generator: Adobe Illustrator 19.0.0, SVG Export Plug-In . SVG Version: 6.00 Build 0)  -->
<svg xmlns="http://www.w3.org/2000/svg" xmlns:xlink="http://www.w3.org/1999/xlink" version="1.1" id="Capa_1" x="0px" y="0px" viewBox="0 0 384 384" style="enable-background:new 0 0 384 384;" xml:space="preserve">
<circle style="fill:#EA8953;" cx="192" cy="192" r="192"/>
<path style="opacity:0.1;enable-background:new    ;" d="M290.24,140.797c-0.92-1.04-2.32-1.68-3.84-1.68H276l-44.44-44.44  l-0.68-0.68c-7.68-7.44-18.16-12-29.68-12c-11.76,0-22.4,4.76-30.12,12.44c-3.04-1.4-6.4-2.2-9.96-2.2  c-12.96,0-23.52,10.52-23.52,23.52c0,1.92,0.28,3.76,0.68,5.52c-9.16,1.76-16.36,8.8-18.44,17.84H97.6c-2.88,0-5.24,2.32-5.24,5.199  v138.721H82v14.4l84.873,84.873C175.102,383.387,183.477,384,192,384c92.804,0,170.229-65.844,188.11-153.364l-89.79-89.759  L290.24,140.797z"/>
<path style="fill:#3A556A;" d="M291.62,144.306v138.76H92.38v-138.76c0-2.88,2.32-5.2,5.2-5.2h188.84  C289.3,139.106,291.62,141.426,291.62,144.306z"/>
<rect x="82" y="283.04" style="fill:#EBF0F3;" width="220" height="14.372"/>
<g>
	<polygon style="fill:#D5D6DB;" points="301.679,297.442 82.321,297.442 97.311,302 286.689,302  "/>
	<rect x="176.64" y="288.56" style="fill:#D5D6DB;" width="30.76" height="3.364"/>
</g>
<rect x="104.48" y="150.24" style="fill:#64798A;" width="175" height="121.72"/>
<path style="fill:#FFFFFF;" d="M243.772,120.99C241.867,99.144,223.557,82,201.217,82c-11.767,0-22.42,4.758-30.15,12.451  c-3.021-1.413-6.38-2.225-9.936-2.225c-12.99,0-23.52,10.53-23.52,23.52c0,1.911,0.254,3.76,0.683,5.539  c-10.884,2.063-19.118,11.61-19.118,23.094c0,12.99,10.529,23.52,23.519,23.52h98.608c12.99,0,23.521-10.53,23.521-23.52  C264.824,132.224,255.601,122.225,243.772,120.99z"/>
<g>
	<path style="fill:#EBF0F3;" d="M135.306,133.558l8.2-1.554l-0.835-3.462l-2.898,0.549c-4.253,0.806-7.788,3.338-10.042,6.755   C131.393,134.759,133.259,133.946,135.306,133.558z"/>
	<path style="fill:#EBF0F3;" d="M242.948,128.892l-6.52-0.682l-0.569-6.53c-1.554-17.796-16.771-31.736-34.643-31.736   c-9.258,0-17.976,3.6-24.544,10.137l-3.936,3.918l-5.032-2.352c-2.095-0.98-4.306-1.477-6.572-1.477   c-5.434,0-10.221,2.803-13.009,7.034c2.454-1.618,5.388-2.566,8.542-2.566c2.265,0,4.476,0.497,6.571,1.477l5.033,2.352   l3.936-3.918c6.569-6.538,15.286-10.137,24.544-10.137c17.872,0,33.089,13.94,34.643,31.736l0.569,6.53l6.52,0.682   c7.942,0.829,13.931,7.487,13.931,15.488c0,3.153-0.949,6.086-2.565,8.541c4.231-2.787,7.033-7.574,7.033-13.008   C256.879,136.378,250.889,129.72,242.948,128.892z"/>
</g>
<path style="fill:#3EA69B;" d="M192,178.564v73.043c20.17,0,36.522-16.351,36.522-36.521  C228.522,194.916,212.17,178.564,192,178.564z"/>
<path style="fill:#44C4A1;" d="M155.479,215.086c0,20.17,16.351,36.521,36.521,36.521v-73.043  C171.83,178.564,155.479,194.916,155.479,215.086z"/>
<polygon style="fill:#31978C;" points="181.278,209.998 181.278,240.652 202.722,240.652 202.722,209.998 210.552,209.998   192.001,191.448 173.449,209.998 "/>
<polygon style="fill:#FFFFFF;" points="181.278,208.07 181.278,238.724 202.722,238.724 202.722,208.07 210.552,208.07   192.001,189.52 173.449,208.07 "/>
<g>
</g>
<g>
</g>
<g>
</g>
<g>
</g>
<g>
</g>
<g>
</g>
<g>
</g>
<g>
</g>
<g>
</g>
<g>
</g>
<g>
</g>
<g>
</g>
<g>
</g>
<g>
</g>
<g>
</g>
</svg>
