<?xml version="1.0" encoding="iso-8859-1"?>
<!-- Generator: Adobe Illustrator 19.0.0, SVG Export Plug-In . SVG Version: 6.00 Build 0)  -->
<svg xmlns="http://www.w3.org/2000/svg" xmlns:xlink="http://www.w3.org/1999/xlink" version="1.1" id="Capa_1" x="0px" y="0px" viewBox="0 0 384 384" style="enable-background:new 0 0 384 384;" xml:space="preserve">
<circle style="fill:#334D5C;" cx="192" cy="192" r="192"/>
<path style="opacity:0.1;enable-background:new    ;" d="M257.64,108.198v7l3.48,3.479l11.88,11.88l1.56,7.12l-6.44-6.439h-2.44  l-23.04-23.04H227.6v7l33.88,33.88h-8l-40.88-40.88h-15v7l33.88,33.88h-8.04l-40.88-40.88h-15v7l33.88,33.88h-8l-40.88-40.88h-15.04  v7l33.88,33.88h-8l-40.88-40.88h-15v7l33.88,33.88h-8l-40.88-40.88H82v10.479l40.88,40.88v5.56L89,131.238h-7v12.52l40.88,40.88  v5.52L89,156.278h-7v12.52l40.88,40.88v5.521L89,181.316h-7v12.561l40.88,40.88v0.559l-0.36-0.359h-4.96L89,206.397h-7v12.52  l48.88,48.88l0.92,6.44l-42.8-42.8h-7v10.52l139.741,139.741c82.201-12.784,147.138-77.708,159.947-159.9L268.12,108.198H257.64z"/>
<g>
	<polygon style="fill:#FFFFFF;" points="268.135,241.943 257.632,241.943 257.632,234.941 261.133,234.941 261.133,231.44    268.135,231.44  "/>
	<path style="fill:#FFFFFF;" d="M242.618,241.943h-15.012v-7.002h15.012V241.943z M212.594,241.943h-15.012v-7.002h15.012V241.943z    M182.571,241.943H167.56v-7.002h15.011V241.943z M152.548,241.943h-15.012v-7.002h15.012V241.943z M122.522,241.943H107.51v-7.002   h15.012V241.943z"/>
	<polygon style="fill:#FFFFFF;" points="92.502,241.943 82,241.943 82,231.44 89.002,231.44 89.002,234.941 92.502,234.941  "/>
	<path style="fill:#FFFFFF;" d="M89.002,218.913H82v-12.528h7.002V218.913z M89.002,193.857H82v-12.528h7.002V193.857z    M89.002,168.801H82v-12.528h7.002V168.801z M89.002,143.748H82V131.22h7.002V143.748z"/>
	<polygon style="fill:#FFFFFF;" points="89.002,118.692 82,118.692 82,108.19 92.502,108.19 92.502,115.191 89.002,115.191  "/>
	<path style="fill:#FFFFFF;" d="M242.621,115.191h-15.012v-7.002h15.012V115.191z M212.594,115.191h-15.012v-7.002h15.012V115.191z    M182.571,115.191H167.56v-7.002h15.011V115.191z M152.548,115.191h-15.012v-7.002h15.012V115.191z M122.525,115.191h-15.012   v-7.002h15.012V115.191z"/>
	<polygon style="fill:#FFFFFF;" points="268.135,118.692 261.133,118.692 261.133,115.191 257.632,115.191 257.632,108.19    268.135,108.19  "/>
	<path style="fill:#FFFFFF;" d="M268.135,218.913h-7.002v-12.528h7.002V218.913z M268.135,193.859h-7.002v-12.528h7.002V193.859z    M268.135,168.803h-7.002v-12.528h7.002V168.803z M268.135,143.748h-7.002V131.22h7.002V143.748z"/>
</g>
<rect x="122.868" y="149.04" style="fill:#EBF0F3;" width="179.132" height="126.752"/>
<rect x="133.392" y="159.56" style="fill:#27A2DB;" width="158.128" height="105.748"/>
<polygon style="fill:#FCD462;" points="133.369,240.481 180.374,193.476 252.187,265.288 133.369,265.308 "/>
<polygon style="fill:#DC8744;" points="252.187,265.308 274.426,265.308 211.03,224.132 "/>
<polygon style="fill:#F6C358;" points="291.498,199.344 256.914,174.556 211.03,224.132 274.426,265.308 291.498,265.308 "/>
<circle style="fill:#FFFFFF;" cx="162.44" cy="181.12" r="10.176"/>
<g>
</g>
<g>
</g>
<g>
</g>
<g>
</g>
<g>
</g>
<g>
</g>
<g>
</g>
<g>
</g>
<g>
</g>
<g>
</g>
<g>
</g>
<g>
</g>
<g>
</g>
<g>
</g>
<g>
</g>
</svg>
