<?xml version="1.0" encoding="iso-8859-1"?>
<!-- Generator: Adobe Illustrator 19.0.0, SVG Export Plug-In . SVG Version: 6.00 Build 0)  -->
<svg xmlns="http://www.w3.org/2000/svg" xmlns:xlink="http://www.w3.org/1999/xlink" version="1.1" id="Capa_1" x="0px" y="0px" viewBox="0 0 384 384" style="enable-background:new 0 0 384 384;" xml:space="preserve">
<circle style="fill:#EA8953;" cx="192" cy="192" r="192"/>
<path style="opacity:0.1;enable-background:new    ;" d="M384,192c0-3.229-0.086-6.439-0.244-9.629L294.24,92.877l-0.68-0.72  l-1.84-1.841c-0.08-0.039-0.12-0.119-0.2-0.159c-5.6-5.08-12.96-8.16-21.12-8.16c-17.44,0-31.56,14.16-31.56,31.6  c0,0.2,0.04,0.44,0.04,0.681l-32.08,7.8l-20.16-20.16c-1.24-1.36-2.52-2.68-3.88-3.92c-0.24-0.24-0.48-0.44-0.76-0.681  c-10.6-9.479-24.6-15.319-39.96-15.319c-33.16,0-60.04,26.88-60.04,60.04c0,15.64,6,29.84,15.8,40.52l25.52,25.52l-6.88,30.92  c-0.92-0.12-1.88-0.16-2.84-0.16c-17.48,0-31.6,14.12-31.6,31.6c0,7.32,2.52,14.039,6.72,19.4c1.6,2.08,3.48,3.92,5.56,5.56  l88.366,88.367c3.1,0.148,6.217,0.236,9.354,0.236C298.039,384,384,298.038,384,192z"/>
<g>
	<path style="fill:#FFFFFF;" d="M138.685,138.759l-30.176,136.068l165.91-12.984v-156.28L138.685,138.759z M266.419,249.133   L150.331,144.148l116.088-28.392V249.133z M144.47,149.633l43.361,39.215l-9.955,10.167l5.719,5.598l10.176-10.392l67.076,60.661   L123.9,265.597l3.734-3.814l-5.719-5.598l-1.394,1.426L144.47,149.633z"/>
	
		<rect x="200.726" y="169.215" transform="matrix(-0.6995 0.7146 -0.7146 -0.6995 478.5161 145.2175)" style="fill:#FFFFFF;" width="16" height="8"/>
	
		<rect x="245.485" y="123.514" transform="matrix(-0.6993 0.7149 -0.7149 -0.6993 521.8936 35.4739)" style="fill:#FFFFFF;" width="16" height="8"/>
	
		<rect x="223.105" y="146.344" transform="matrix(-0.6995 0.7146 -0.7146 -0.6995 500.2054 90.359)" style="fill:#FFFFFF;" width="16" height="8"/>
	
		<rect x="155.944" y="214.952" transform="matrix(-0.6993 0.7149 -0.7149 -0.6993 435.1042 254.8592)" style="fill:#FFFFFF;" width="16" height="8"/>
	
		<rect x="133.553" y="237.839" transform="matrix(-0.6995 0.7146 -0.7146 -0.6995 413.3954 309.8432)" style="fill:#FFFFFF;" width="16" height="8"/>
</g>
<circle style="fill:#FCD462;" cx="142.04" cy="142.04" r="60.04"/>
<path style="fill:#F6C358;" d="M176.941,93.236c7.974,10.192,12.769,22.992,12.769,36.936c0,33.167-26.887,60.054-60.055,60.054  c-13.025,0-25.048-4.191-34.887-11.236c10.991,14.052,28.062,23.118,47.285,23.118c33.168,0,60.055-26.887,60.055-60.054  C202.108,121.912,192.157,104.131,176.941,93.236z"/>
<circle style="fill:#E56353;" cx="270.4" cy="113.6" r="31.58"/>
<path style="fill:#D15241;" d="M288.765,87.909c4.193,5.36,6.715,12.091,6.715,19.424c0,17.442-14.14,31.582-31.582,31.582  c-6.85,0-13.172-2.204-18.347-5.909c5.78,7.39,14.758,12.158,24.867,12.158c17.443,0,31.582-14.14,31.582-31.582  C302,102.989,296.767,93.638,288.765,87.909z"/>
<circle style="fill:#27A2DB;" cx="270.4" cy="258.16" r="31.58"/>
<path style="fill:#2D93BA;" d="M288.764,232.472c4.194,5.36,6.716,12.091,6.716,19.424c0,17.442-14.14,31.582-31.582,31.582  c-6.85,0-13.172-2.204-18.347-5.909c5.78,7.39,14.758,12.158,24.867,12.158c17.443,0,31.582-14.14,31.582-31.582  C302,247.552,296.767,238.201,288.764,232.472z"/>
<circle style="fill:#64798A;" cx="113.6" cy="270.4" r="31.58"/>
<g>
	<path style="fill:#3A556A;" d="M131.928,244.745c4.194,5.36,6.715,12.091,6.715,19.424c0,17.442-14.14,31.582-31.582,31.582   c-6.85,0-13.172-2.204-18.347-5.909c5.78,7.39,14.758,12.158,24.867,12.158c17.442,0,31.582-14.14,31.582-31.582   C145.164,259.826,139.93,250.474,131.928,244.745z"/>
	<path style="fill:#3A556A;" d="M117.221,133.285v33.166c0,3.028,2.364,5.48,5.343,5.672v-38.837H117.221z"/>
	<path style="fill:#3A556A;" d="M161.179,133.285v38.874c3.152,0,5.708-2.556,5.708-5.708v-33.166H161.179z"/>
</g>
<path style="fill:#64798A;" d="M122.564,133.285v38.837c0.123,0.008,0.24,0.036,0.365,0.036h38.25v-38.874H122.564z"/>
<g>
	<path style="fill:#D15241;" d="M122.564,142.373v-3.385c-2.979-0.192-5.343-2.644-5.343-5.672v3.385   C117.221,139.729,119.585,142.182,122.564,142.373z"/>
	<path style="fill:#D15241;" d="M161.179,139.025v3.385c3.152,0,5.708-2.556,5.708-5.708v-3.385   C166.887,136.469,164.332,139.025,161.179,139.025z"/>
</g>
<path style="fill:#E56353;" d="M122.564,138.988v3.385c0.123,0.008,0.24,0.036,0.365,0.036h38.25v-3.385h-38.25  C122.804,139.025,122.687,138.996,122.564,138.988z"/>
<g>
	<path style="fill:#D15241;" d="M122.564,172.122v-3.385c-2.979-0.192-5.343-2.644-5.343-5.671v3.384   C117.221,169.478,119.585,171.931,122.564,172.122z"/>
	<path style="fill:#D15241;" d="M161.179,168.774v3.384c3.152,0,5.708-2.556,5.708-5.708v-3.384   C166.887,166.218,164.332,168.774,161.179,168.774z"/>
</g>
<path style="fill:#E56353;" d="M122.564,168.738v3.385c0.123,0.008,0.24,0.036,0.365,0.036h38.25v-3.384h-38.25  C122.804,168.774,122.687,168.745,122.564,168.738z"/>
<path style="fill:#2F4859;" d="M161.099,138.993h-38.09c-3.196,0-5.788-2.591-5.788-5.788l0,0c0-3.197,2.591-5.788,5.788-5.788  h38.09c3.196,0,5.788,2.591,5.788,5.788l0,0C166.887,136.402,164.296,138.993,161.099,138.993z"/>
<path style="fill:#3A556A;" d="M145.831,151.502c0-2.186-1.772-3.959-3.959-3.959c-2.187,0-3.959,1.773-3.959,3.959  c0,1.247,0.588,2.346,1.49,3.072l-1.49,6.952h7.918l-1.49-6.952C145.242,153.848,145.831,152.749,145.831,151.502z"/>
<path style="fill:#64798A;" d="M142.054,99.856c-11.257,0-20.416,9.273-20.416,20.67v13.053h4.576v-13.053  c0-7.765,5.44-14.263,12.652-15.766c1.03-0.215,2.096-0.328,3.188-0.328c1.092,0,2.158,0.113,3.188,0.328  c7.211,1.503,12.652,8.001,12.652,15.766v13.053h4.576v-13.053C162.47,109.129,153.311,99.856,142.054,99.856z"/>
<g>
</g>
<g>
</g>
<g>
</g>
<g>
</g>
<g>
</g>
<g>
</g>
<g>
</g>
<g>
</g>
<g>
</g>
<g>
</g>
<g>
</g>
<g>
</g>
<g>
</g>
<g>
</g>
<g>
</g>
</svg>
