<?xml version="1.0" encoding="iso-8859-1"?>
<!-- Generator: Adobe Illustrator 19.0.0, SVG Export Plug-In . SVG Version: 6.00 Build 0)  -->
<svg xmlns="http://www.w3.org/2000/svg" xmlns:xlink="http://www.w3.org/1999/xlink" version="1.1" id="Capa_1" x="0px" y="0px" viewBox="0 0 384 384" style="enable-background:new 0 0 384 384;" xml:space="preserve">
<circle style="fill:#EFC84A;" cx="192" cy="192" r="192"/>
<path style="opacity:0.1;enable-background:new    ;" d="M381.576,161.572L302,81.997h-42.52v12l122.864,122.864  C383.398,208.717,384,200.431,384,192C384,181.643,383.154,171.486,381.576,161.572z"/>
<path style="opacity:0.1;enable-background:new    ;" d="M82,259.477v42.52l79.58,79.579C171.49,383.154,181.645,384,192,384  c8.433,0,16.721-0.602,24.867-1.656L94,259.477H82z"/>
<path style="opacity:0.1;enable-background:new    ;" d="M192,103.278c-13.48,0-26.28,3-37.76,8.439l-29.72-29.72H82v42.52  l29.68,29.68c-5.4,11.439-8.44,24.279-8.44,37.8c0,23.52,9.16,44.88,24.08,60.76l0.48,0.48c1.12,1.2,2.28,2.359,3.48,3.479  l118.44,118.44c59.566-18.754,106.594-65.754,125.391-125.301L258.12,132.837C241.84,114.677,218.28,103.278,192,103.278z"/>
<circle style="fill:#27A2DB;" cx="192" cy="192" r="88.76"/>
<circle style="fill:#64798A;" cx="192" cy="192" r="33.416"/>
<g>
	<circle style="fill:#FFFFFF;" cx="214.12" cy="169.88" r="11.304"/>
	<circle style="fill:#FFFFFF;" cx="158.584" cy="192" r="6.864"/>
	<polygon style="fill:#FFFFFF;" points="259.482,94 290,94 290,124.518 302,124.518 302,82 259.482,82  "/>
	<polygon style="fill:#FFFFFF;" points="94,124.518 94,94 124.518,94 124.518,82 82,82 82,124.518  "/>
	<polygon style="fill:#FFFFFF;" points="124.518,290 94,290 94,259.481 82,259.481 82,302 124.518,302  "/>
	<polygon style="fill:#FFFFFF;" points="290,259.481 290,290 259.482,290 259.482,302 302,302 302,259.481  "/>
</g>
<g>
</g>
<g>
</g>
<g>
</g>
<g>
</g>
<g>
</g>
<g>
</g>
<g>
</g>
<g>
</g>
<g>
</g>
<g>
</g>
<g>
</g>
<g>
</g>
<g>
</g>
<g>
</g>
<g>
</g>
</svg>
