<?xml version="1.0" encoding="iso-8859-1"?>
<!-- Generator: Adobe Illustrator 19.0.0, SVG Export Plug-In . SVG Version: 6.00 Build 0)  -->
<svg xmlns="http://www.w3.org/2000/svg" xmlns:xlink="http://www.w3.org/1999/xlink" version="1.1" id="Capa_1" x="0px" y="0px" viewBox="0 0 384 384" style="enable-background:new 0 0 384 384;" xml:space="preserve">
<circle style="fill:#EFC84A;" cx="192" cy="192" r="192"/>
<path style="opacity:0.1;enable-background:new    ;" d="M277.24,102.597H106.76c-3.16,0-5.72,2.56-5.72,5.72v98.521  c0,1.52,0.6,2.92,1.56,3.92l3.64,3.64c-2.96,0.121-5.64,1.24-6.08,2.6l-18.04,53.96c-0.08,0.2-0.08,0.4-0.08,0.6H82v6.76  c0,0.561,0.28,1.08,0.72,1.521l104.03,104.03c1.749,0.047,3.489,0.133,5.25,0.133c101.175,0,184.012-78.274,191.404-177.56  L281.52,104.557C280.48,103.358,278.96,102.597,277.24,102.597z"/>
<path style="fill:#64798A;" d="M277.225,102.581H106.777c-3.166,0-5.734,2.567-5.734,5.734v98.516c0,3.167,2.568,5.734,5.734,5.734  h170.449c3.167,0,5.732-2.567,5.732-5.734v-98.516C282.958,105.148,280.392,102.581,277.225,102.581z"/>
<path style="fill:#EBF0F3;" d="M277.225,214.415H106.777c-3.166,0-6.121,1.157-6.604,2.598l-18.058,53.938  c-0.699,2.088,1.865,3.8,5.735,3.8h208.302c3.87,0,6.433-1.712,5.733-3.8l-18.057-53.938  C283.345,215.572,280.392,214.415,277.225,214.415z"/>
<g>
	<path style="fill:#E1E6E9;" d="M301.962,271.868c-0.209,1.648-2.528,2.884-5.811,2.884H87.851c-3.478,0-5.881-1.387-5.826-3.184   l-0.026-0.001v6.765h0.01c0.033,1.75,2.424,3.086,5.842,3.086h208.301c3.416,0,5.807-1.336,5.84-3.086h0.008v-6.464   L301.962,271.868z"/>
	<path style="fill:#E1E6E9;" d="M273.61,219.236H110.392c-0.123,0-0.236,0.046-0.253,0.102l-7.727,26.11   c-0.02,0.067,0.073,0.122,0.208,0.122h178.762c0.135,0,0.228-0.054,0.208-0.122l-7.727-26.11   C273.846,219.282,273.733,219.236,273.61,219.236z"/>
	<path style="fill:#E1E6E9;" d="M223.321,248.885h-62.64c-2.211,0-4.109,0.909-4.239,2.038l-1.738,15.07   c-0.144,1.252,1.644,2.274,3.995,2.274h66.605c2.351,0,4.139-1.022,3.995-2.274l-1.739-15.07   C227.43,249.794,225.532,248.885,223.321,248.885z"/>
</g>
<path style="fill:#3A556A;" d="M264.455,209.432H119.546c-0.258,0-0.469,0.17-0.469,0.38v7.372c0,0.21,0.211,0.38,0.469,0.38  h144.908c0.258,0,0.469-0.17,0.469-0.38v-7.372C264.923,209.602,264.712,209.432,264.455,209.432z"/>
<circle style="fill:#2F4859;" cx="192" cy="107.756" r="2.368"/>
<circle style="fill:#3A556A;" cx="192" cy="107.756" r="1.088"/>
<rect x="111.596" y="113.12" style="fill:#EBF0F3;" width="160.8" height="88.88"/>
<rect x="111.596" y="113.12" style="fill:#3A556A;" width="160.8" height="10.1"/>
<circle style="fill:#FCD462;" cx="247" cy="118.184" r="2.824"/>
<circle style="fill:#44C4A1;" cx="255.964" cy="118.184" r="2.824"/>
<circle style="fill:#E56353;" cx="264.92" cy="118.184" r="2.824"/>
<g>
	<rect x="111.596" y="198.48" style="fill:#E1E6E9;" width="160.8" height="3.52"/>
	<rect x="119.076" y="128.84" style="fill:#E1E6E9;" width="73.992" height="37.584"/>
</g>
<rect x="119.076" y="166.44" style="fill:#D5D6DB;" width="73.992" height="9.052"/>
<rect x="119.076" y="180.6" style="fill:#64798A;" width="14.76" height="14.76"/>
<g>
	<rect x="138.04" y="182.32" style="fill:#E1E6E9;" width="27.352" height="3"/>
	<rect x="138.04" y="190.64" style="fill:#E1E6E9;" width="21.844" height="3"/>
</g>
<rect x="216" y="128.84" style="fill:#64798A;" width="14.76" height="14.76"/>
<g>
	<rect x="235" y="130.556" style="fill:#E1E6E9;" width="27.352" height="3"/>
	<rect x="235" y="138.904" style="fill:#E1E6E9;" width="21.844" height="3"/>
</g>
<rect x="216" y="154.2" style="fill:#64798A;" width="14.76" height="14.76"/>
<g>
	<rect x="235" y="155.916" style="fill:#E1E6E9;" width="27.352" height="3"/>
	<rect x="235" y="164.28" style="fill:#E1E6E9;" width="21.844" height="3"/>
</g>
<rect x="216" y="180.6" style="fill:#64798A;" width="14.76" height="14.76"/>
<g>
	<rect x="235" y="182.32" style="fill:#E1E6E9;" width="27.352" height="3"/>
	<rect x="235" y="190.64" style="fill:#E1E6E9;" width="21.844" height="3"/>
</g>
<path style="fill:#64798A;" d="M187.85,169.885h-63.555c-0.594,0-1.076,0.482-1.076,1.076c0,0.594,0.482,1.076,1.076,1.076h63.555  c0.594,0,1.076-0.482,1.076-1.076C188.926,170.367,188.444,169.885,187.85,169.885z"/>
<path style="fill:#3A556A;" d="M174.133,169.885h-49.838c-0.594,0-1.076,0.482-1.076,1.076c0,0.594,0.482,1.076,1.076,1.076h49.838  c0.594,0,1.076-0.482,1.076-1.076C175.21,170.367,174.727,169.885,174.133,169.885z"/>
<path style="fill:#E56353;" d="M157.474,169.885h-33.178c-0.594,0-1.076,0.482-1.076,1.076c0,0.594,0.482,1.076,1.076,1.076h33.178  c0.594,0,1.076-0.482,1.076-1.076C158.55,170.367,158.068,169.885,157.474,169.885z"/>
<circle style="fill:#64798A;" cx="158.772" cy="170.96" r="1.896"/>
<circle style="fill:#3A556A;" cx="158.772" cy="170.96" r="0.848"/>
<path style="fill:#E56353;" d="M149.408,147.643c0,3.681,2.984,6.665,6.666,6.665v-13.33  C152.392,140.978,149.408,143.962,149.408,147.643z"/>
<path style="fill:#D15241;" d="M156.074,140.978v13.33c3.68,0,6.664-2.984,6.664-6.665  C162.738,143.962,159.754,140.978,156.074,140.978z"/>
<path style="fill:#CE412D;" d="M159.03,147.91l-4.512-3.184c-0.236-0.167-0.562,0.002-0.562,0.292v6.369  c0,0.289,0.326,0.458,0.562,0.291l4.512-3.184C159.231,148.35,159.231,148.052,159.03,147.91z"/>
<path style="fill:#FFFFFF;" d="M159.03,147.351l-4.512-3.184c-0.236-0.167-0.562,0.002-0.562,0.292v6.369  c0,0.289,0.326,0.458,0.562,0.292l4.512-3.184C159.231,147.792,159.231,147.494,159.03,147.351z"/>
<g>
</g>
<g>
</g>
<g>
</g>
<g>
</g>
<g>
</g>
<g>
</g>
<g>
</g>
<g>
</g>
<g>
</g>
<g>
</g>
<g>
</g>
<g>
</g>
<g>
</g>
<g>
</g>
<g>
</g>
</svg>
