<?xml version="1.0" encoding="iso-8859-1"?>
<!-- Generator: Adobe Illustrator 19.0.0, SVG Export Plug-In . SVG Version: 6.00 Build 0)  -->
<svg xmlns="http://www.w3.org/2000/svg" xmlns:xlink="http://www.w3.org/1999/xlink" version="1.1" id="Capa_1" x="0px" y="0px" viewBox="0 0 384 384" style="enable-background:new 0 0 384 384;" xml:space="preserve">
<circle style="fill:#45B39C;" cx="192" cy="192" r="192"/>
<path style="opacity:0.1;enable-background:new    ;" d="M384,192c0-8.73-0.638-17.308-1.766-25.729L300.28,84.316  c-1.2-1.439-2.96-2.319-4.92-2.319H88.64c-3.68,0-6.64,3.16-6.64,7.04v50.36c0,2,0.76,3.801,2,5.041l0.24,0.239l10.68,10.72v4.36  h-6.28c-3.68,0-6.64,3.16-6.64,7.08v50.36c0,1.72,0.6,3.32,1.6,4.56l11.32,11.32v4.44h-6.28c-3.68,0-6.64,3.159-6.64,7.079v50.36  c0,1.88,0.68,3.56,1.8,4.84h0.04l0.08,0.12l82.343,82.315C174.687,383.362,183.267,384,192,384C298.039,384,384,298.039,384,192z"/>
<rect x="94.928" y="132.8" style="fill:#64798A;" width="194.144" height="127.516"/>
<g>
	<path style="fill:#EBF0F3;" d="M295.358,82H88.642C84.973,82,82,85.157,82,89.052v50.362c0,3.895,2.973,7.052,6.642,7.052h206.715   c3.668,0,6.642-3.157,6.642-7.052V89.052C302,85.157,299.025,82,295.358,82z"/>
	<path style="fill:#EBF0F3;" d="M295.358,237.534H88.642c-3.67,0-6.642,3.157-6.642,7.052v50.362c0,3.895,2.973,7.052,6.642,7.052   h206.715c3.668,0,6.642-3.157,6.642-7.052v-50.362C302,240.691,299.025,237.534,295.358,237.534z"/>
	<path style="fill:#EBF0F3;" d="M295.358,159.767H88.642c-3.67,0-6.642,3.157-6.642,7.052v50.362c0,3.895,2.973,7.052,6.642,7.052   h206.715c3.668,0,6.642-3.157,6.642-7.052v-50.362C302,162.924,299.025,159.767,295.358,159.767z"/>
</g>
<circle style="fill:#3A556A;" cx="107.928" cy="114.232" r="13"/>
<circle style="fill:#64798A;" cx="108.16" cy="114.008" r="8.964"/>
<circle style="fill:#E56353;" cx="139.324" cy="114.232" r="6.556"/>
<circle style="fill:#44C4A1;" cx="165.64" cy="114.232" r="6.556"/>
<circle style="fill:#3A556A;" cx="107.928" cy="192" r="13"/>
<circle style="fill:#64798A;" cx="108.16" cy="191.776" r="8.964"/>
<circle style="fill:#E56353;" cx="139.324" cy="192" r="6.556"/>
<circle style="fill:#44C4A1;" cx="165.64" cy="192" r="6.556"/>
<circle style="fill:#3A556A;" cx="107.928" cy="269.76" r="13"/>
<circle style="fill:#64798A;" cx="108.16" cy="269.56" r="8.964"/>
<circle style="fill:#E56353;" cx="139.324" cy="269.76" r="6.556"/>
<circle style="fill:#44C4A1;" cx="165.64" cy="269.76" r="6.556"/>
<g>
	<rect x="193.4" y="92.36" style="fill:#D5D6DB;" width="10.936" height="10.936"/>
	<rect x="215.268" y="92.36" style="fill:#D5D6DB;" width="10.936" height="10.936"/>
	<rect x="237.16" y="92.36" style="fill:#D5D6DB;" width="10.936" height="10.936"/>
	<rect x="259" y="92.36" style="fill:#D5D6DB;" width="10.936" height="10.936"/>
	<rect x="280.88" y="92.36" style="fill:#D5D6DB;" width="10.936" height="10.936"/>
	<rect x="204.32" y="103.296" style="fill:#D5D6DB;" width="10.936" height="10.936"/>
	<rect x="226.2" y="103.296" style="fill:#D5D6DB;" width="10.936" height="10.936"/>
	<rect x="248.08" y="103.296" style="fill:#D5D6DB;" width="10.936" height="10.936"/>
	<rect x="269.96" y="103.296" style="fill:#D5D6DB;" width="10.936" height="10.936"/>
	<rect x="193.4" y="114.232" style="fill:#D5D6DB;" width="10.936" height="10.936"/>
	<rect x="215.268" y="114.232" style="fill:#D5D6DB;" width="10.936" height="10.936"/>
	<rect x="237.16" y="114.232" style="fill:#D5D6DB;" width="10.936" height="10.936"/>
	<rect x="259" y="114.232" style="fill:#D5D6DB;" width="10.936" height="10.936"/>
	<rect x="280.88" y="114.232" style="fill:#D5D6DB;" width="10.936" height="10.936"/>
	<rect x="204.32" y="125.16" style="fill:#D5D6DB;" width="10.936" height="10.936"/>
	<rect x="226.2" y="125.16" style="fill:#D5D6DB;" width="10.936" height="10.936"/>
	<rect x="248.08" y="125.16" style="fill:#D5D6DB;" width="10.936" height="10.936"/>
	<rect x="269.96" y="125.16" style="fill:#D5D6DB;" width="10.936" height="10.936"/>
	<rect x="193.4" y="170.12" style="fill:#D5D6DB;" width="10.936" height="10.936"/>
	<rect x="215.268" y="170.12" style="fill:#D5D6DB;" width="10.936" height="10.936"/>
	<rect x="237.16" y="170.12" style="fill:#D5D6DB;" width="10.936" height="10.936"/>
	<rect x="259" y="170.12" style="fill:#D5D6DB;" width="10.936" height="10.936"/>
	<rect x="280.88" y="170.12" style="fill:#D5D6DB;" width="10.936" height="10.936"/>
	<rect x="204.32" y="181.08" style="fill:#D5D6DB;" width="10.936" height="10.936"/>
	<rect x="226.2" y="181.08" style="fill:#D5D6DB;" width="10.936" height="10.936"/>
	<rect x="248.08" y="181.08" style="fill:#D5D6DB;" width="10.936" height="10.936"/>
	<rect x="269.96" y="181.08" style="fill:#D5D6DB;" width="10.936" height="10.936"/>
	<rect x="193.4" y="192" style="fill:#D5D6DB;" width="10.936" height="10.936"/>
	<rect x="215.268" y="192" style="fill:#D5D6DB;" width="10.936" height="10.936"/>
	<rect x="237.16" y="192" style="fill:#D5D6DB;" width="10.936" height="10.936"/>
	<rect x="259" y="192" style="fill:#D5D6DB;" width="10.936" height="10.936"/>
	<rect x="280.88" y="192" style="fill:#D5D6DB;" width="10.936" height="10.936"/>
	<rect x="204.32" y="202.936" style="fill:#D5D6DB;" width="10.936" height="10.936"/>
	<rect x="226.2" y="202.936" style="fill:#D5D6DB;" width="10.936" height="10.936"/>
	<rect x="248.08" y="202.936" style="fill:#D5D6DB;" width="10.936" height="10.936"/>
	<rect x="269.96" y="202.936" style="fill:#D5D6DB;" width="10.936" height="10.936"/>
	<rect x="193.4" y="247.892" style="fill:#D5D6DB;" width="10.936" height="10.936"/>
	<rect x="215.268" y="247.892" style="fill:#D5D6DB;" width="10.936" height="10.936"/>
	<rect x="237.16" y="247.892" style="fill:#D5D6DB;" width="10.936" height="10.936"/>
	<rect x="259" y="247.892" style="fill:#D5D6DB;" width="10.936" height="10.936"/>
	<rect x="280.88" y="247.892" style="fill:#D5D6DB;" width="10.936" height="10.936"/>
	<rect x="204.32" y="258.84" style="fill:#D5D6DB;" width="10.936" height="10.936"/>
	<rect x="226.2" y="258.84" style="fill:#D5D6DB;" width="10.936" height="10.936"/>
	<rect x="248.08" y="258.84" style="fill:#D5D6DB;" width="10.936" height="10.936"/>
	<rect x="269.96" y="258.84" style="fill:#D5D6DB;" width="10.936" height="10.936"/>
	<rect x="193.4" y="269.76" style="fill:#D5D6DB;" width="10.936" height="10.936"/>
	<rect x="215.268" y="269.76" style="fill:#D5D6DB;" width="10.936" height="10.936"/>
	<rect x="237.16" y="269.76" style="fill:#D5D6DB;" width="10.936" height="10.936"/>
	<rect x="259" y="269.76" style="fill:#D5D6DB;" width="10.936" height="10.936"/>
	<rect x="280.88" y="269.76" style="fill:#D5D6DB;" width="10.936" height="10.936"/>
	<rect x="204.32" y="280.72" style="fill:#D5D6DB;" width="10.936" height="10.936"/>
	<rect x="226.2" y="280.72" style="fill:#D5D6DB;" width="10.936" height="10.936"/>
	<rect x="248.08" y="280.72" style="fill:#D5D6DB;" width="10.936" height="10.936"/>
	<rect x="269.96" y="280.72" style="fill:#D5D6DB;" width="10.936" height="10.936"/>
</g>
<g>
</g>
<g>
</g>
<g>
</g>
<g>
</g>
<g>
</g>
<g>
</g>
<g>
</g>
<g>
</g>
<g>
</g>
<g>
</g>
<g>
</g>
<g>
</g>
<g>
</g>
<g>
</g>
<g>
</g>
</svg>
