<?xml version="1.0" encoding="iso-8859-1"?>
<!-- Generator: Adobe Illustrator 19.0.0, SVG Export Plug-In . SVG Version: 6.00 Build 0)  -->
<svg xmlns="http://www.w3.org/2000/svg" xmlns:xlink="http://www.w3.org/1999/xlink" version="1.1" id="Capa_1" x="0px" y="0px" viewBox="0 0 384 384" style="enable-background:new 0 0 384 384;" xml:space="preserve">
<circle style="fill:#45B39C;" cx="192" cy="192" r="192"/>
<path style="opacity:0.1;enable-background:new    ;" d="M384,192c0-9.071-0.675-17.981-1.892-26.717L300.68,83.837  c-1-1.12-2.439-1.84-4.04-1.84H87.36c-2.96,0-5.36,2.4-5.36,5.36v209.319c0,1.44,0.56,2.72,1.52,3.681l0.24,0.239l81.482,81.506  C173.991,383.324,182.914,384,192,384C298.039,384,384,298.039,384,192z"/>
<path style="fill:#3A556A;" d="M296.657,82.003H87.35c-2.953,0-5.347,2.394-5.347,5.346v31.274h220V87.349  C302.003,84.397,299.609,82.003,296.657,82.003z"/>
<rect x="90.44" y="94.276" style="fill:#EBF0F3;" width="137.828" height="12.08"/>
<circle style="fill:#FCD462;" cx="245.52" cy="100.32" r="6.04"/>
<circle style="fill:#44C4A1;" cx="267.08" cy="100.32" r="6.04"/>
<circle style="fill:#E56353;" cx="288.6" cy="100.32" r="6.04"/>
<path style="fill:#FFFFFF;" d="M301.997,118.636v178.04c0,2.92-2.4,5.32-5.32,5.32H87.356c-2.96,0-5.359-2.4-5.359-5.32v-178.04  H301.997z"/>
<rect x="92.52" y="128.44" style="fill:#27A2DB;" width="198.976" height="67.064"/>
<rect x="92.52" y="190.32" style="fill:#2D93BA;" width="198.976" height="5.16"/>
<rect x="92.52" y="205.44" style="fill:#FCD462;" width="52.86" height="52.86"/>
<rect x="165.56" y="205.44" style="fill:#44C4A1;" width="52.86" height="52.86"/>
<rect x="238.64" y="205.44" style="fill:#E56353;" width="52.86" height="52.86"/>
<rect x="92.52" y="251.956" style="fill:#F6C358;" width="52.86" height="6.34"/>
<rect x="165.56" y="251.956" style="fill:#3EA69B;" width="52.86" height="6.34"/>
<rect x="238.64" y="251.956" style="fill:#D15241;" width="52.86" height="6.34"/>
<g>
	<rect x="92.52" y="268.64" style="fill:#EBF0F3;" width="52.86" height="4"/>
	<rect x="92.52" y="283.08" style="fill:#EBF0F3;" width="52.86" height="4"/>
	<rect x="165.56" y="268.64" style="fill:#EBF0F3;" width="52.86" height="4"/>
	<rect x="165.56" y="283.08" style="fill:#EBF0F3;" width="52.86" height="4"/>
	<rect x="238.64" y="268.64" style="fill:#EBF0F3;" width="52.86" height="4"/>
	<rect x="238.64" y="283.08" style="fill:#EBF0F3;" width="52.86" height="4"/>
</g>
<g>
</g>
<g>
</g>
<g>
</g>
<g>
</g>
<g>
</g>
<g>
</g>
<g>
</g>
<g>
</g>
<g>
</g>
<g>
</g>
<g>
</g>
<g>
</g>
<g>
</g>
<g>
</g>
<g>
</g>
</svg>
