<?xml version="1.0" encoding="iso-8859-1"?>
<!-- Generator: Adobe Illustrator 19.0.0, SVG Export Plug-In . SVG Version: 6.00 Build 0)  -->
<svg xmlns="http://www.w3.org/2000/svg" xmlns:xlink="http://www.w3.org/1999/xlink" version="1.1" id="Capa_1" x="0px" y="0px" viewBox="0 0 384 384" style="enable-background:new 0 0 384 384;" xml:space="preserve">
<circle style="fill:#E05B49;" cx="192" cy="192" r="192"/>
<path style="opacity:0.1;enable-background:new    ;" d="M296.56,101.198H87.44c-3,0-5.44,2.439-5.44,5.439v134.561  c0,1.479,0.56,2.8,1.52,3.76l0.08,0.08l136.851,136.851C312.995,368.139,384,288.369,384,192c0-1.928-0.089-3.834-0.145-5.748  l-83.295-83.295C299.56,101.877,298.12,101.198,296.56,101.198z"/>
<path style="fill:#3A556A;" d="M296.566,101.193H87.434c-3.001,0-5.434,2.434-5.434,5.435v134.565c0,3.001,2.434,5.435,5.434,5.435  h209.131c3.002,0,5.434-2.434,5.434-5.435V106.628C302,103.626,299.567,101.193,296.566,101.193z"/>
<rect x="90" y="109.2" style="fill:#EBF0F3;" width="204" height="129.432"/>
<rect x="90" y="233.76" style="fill:#E1E6E9;" width="204" height="4.884"/>
<rect x="153.88" y="246.64" style="fill:#EBF0F3;" width="76.24" height="23.42"/>
<path style="fill:#FFFFFF;" d="M240.923,270.048h-97.846c-1.38,0-2.498,1.119-2.498,2.498v10.26h102.842v-10.26  C243.421,271.167,242.303,270.048,240.923,270.048z"/>
<rect x="115.336" y="126.98" style="fill:#64798A;" width="4" height="93.864"/>
<rect x="109.52" y="148.72" style="fill:#FCD462;" width="15.628" height="50.36"/>
<rect x="152.68" y="126.98" style="fill:#64798A;" width="4" height="93.864"/>
<rect x="146.852" y="179.712" style="fill:#E56353;" width="15.628" height="31.192"/>
<rect x="190" y="126.98" style="fill:#64798A;" width="4" height="93.864"/>
<rect x="184.2" y="137.28" style="fill:#44C4A1;" width="15.628" height="33.104"/>
<rect x="227.336" y="126.98" style="fill:#64798A;" width="4" height="93.864"/>
<rect x="221.52" y="171.712" style="fill:#27A2DB;" width="15.628" height="34.508"/>
<rect x="264.68" y="126.98" style="fill:#64798A;" width="4" height="93.864"/>
<rect x="258.84" y="142.548" style="fill:#3A556A;" width="15.628" height="31.7"/>
<g>
</g>
<g>
</g>
<g>
</g>
<g>
</g>
<g>
</g>
<g>
</g>
<g>
</g>
<g>
</g>
<g>
</g>
<g>
</g>
<g>
</g>
<g>
</g>
<g>
</g>
<g>
</g>
<g>
</g>
</svg>
