<?xml version="1.0" encoding="iso-8859-1"?>
<!-- Generator: Adobe Illustrator 19.0.0, SVG Export Plug-In . SVG Version: 6.00 Build 0)  -->
<svg xmlns="http://www.w3.org/2000/svg" xmlns:xlink="http://www.w3.org/1999/xlink" version="1.1" id="Capa_1" x="0px" y="0px" viewBox="0 0 384 384" style="enable-background:new 0 0 384 384;" xml:space="preserve">
<circle style="fill:#EFC84A;" cx="192" cy="192" r="192"/>
<path style="opacity:0.1;enable-background:new    ;" d="M300.492,83.662L300.492,83.662c-0.526-0.548-1.16-0.977-1.877-1.263l0,0  C297.998,82.153,297.335,82,296.64,82H87.36C84.4,82,82,84.4,82,87.36v209.28v0.04c0,1.152,0.452,2.167,1.086,3.042  c0.11,0.193,0.206,0.396,0.354,0.558l0.077,0.078c0.043,0.044,0.084,0.085,0.129,0.128l0.114,0.114l81.506,81.506  C174.008,383.325,182.923,384,192,384c106.039,0,192-85.962,192-192c0-9.077-0.675-17.992-1.894-26.734L300.6,83.76  C300.568,83.724,300.525,83.697,300.492,83.662z"/>
<path style="fill:#3A556A;" d="M296.657,82.004H87.35c-2.953,0-5.347,2.394-5.347,5.346v31.274h220V87.35  C302.003,84.397,299.609,82.004,296.657,82.004z"/>
<rect x="90.44" y="94.276" style="fill:#EBF0F3;" width="137.828" height="12.08"/>
<circle style="fill:#FCD462;" cx="245.52" cy="100.32" r="6.04"/>
<circle style="fill:#44C4A1;" cx="267.08" cy="100.32" r="6.04"/>
<circle style="fill:#E56353;" cx="288.6" cy="100.32" r="6.04"/>
<path style="fill:#FFFFFF;" d="M301.997,118.636v178.04c0,2.92-2.4,5.32-5.32,5.32H87.356c-2.96,0-5.359-2.4-5.359-5.32v-178.04  H301.997z"/>
<path style="fill:#27A2DB;" d="M241.083,180.984c-1.237,0-2.442,0.123-3.629,0.304c-2.911-12.243-12.891-21.719-25.404-23.89  c-5.48-14.162-19.194-24.223-35.291-24.223c-20.911,0-37.864,16.952-37.864,37.864c0,3.501,0.513,6.876,1.403,10.094  c-11.972,1.302-21.293,11.437-21.293,23.756c0,13.202,10.702,23.904,23.905,23.904h98.172c13.202,0,23.905-10.702,23.905-23.904  S254.286,180.984,241.083,180.984z"/>
<g>
	<path style="fill:#2D93BA;" d="M138.4,189.802l6.799-0.739l-0.703-2.541l-3.57,0.388c-5.372,0.584-9.922,3.51-12.814,7.658   C130.871,192.006,134.396,190.238,138.4,189.802z"/>
	<path style="fill:#2D93BA;" d="M241.084,186.796c-0.814,0-1.688,0.075-2.755,0.238l-5.29,0.803l-1.237-5.204   c-2.398-10.081-10.542-17.738-20.743-19.509l-3.241-0.563l-1.186-3.065c-4.824-12.459-16.549-20.509-29.872-20.509   c-10.227,0-19.329,4.833-25.202,12.316c5.806-5.818,13.828-9.424,22.676-9.424c13.323,0,25.048,8.05,29.872,20.509l1.186,3.065   l3.241,0.563c10.201,1.771,18.346,9.428,20.743,19.509l1.237,5.204l5.29-0.803c1.067-0.163,1.941-0.238,2.755-0.238   c9.977,0,18.093,8.117,18.093,18.093c0,3.843-1.214,7.403-3.265,10.337c3.552-3.306,5.79-8.005,5.79-13.229   C259.177,194.913,251.061,186.796,241.084,186.796z"/>
</g>
<polygon style="fill:#E56353;" points="177.866,274.3 177.866,246.668 162.57,246.668 162.57,274.3 158.129,274.3 170.218,287.458   182.307,274.3 "/>
<polygon style="fill:#44C4A1;" points="196.452,259.826 196.452,287.458 211.748,287.458 211.748,259.826 216.189,259.826   204.1,246.668 192.011,259.826 "/>
<g>
</g>
<g>
</g>
<g>
</g>
<g>
</g>
<g>
</g>
<g>
</g>
<g>
</g>
<g>
</g>
<g>
</g>
<g>
</g>
<g>
</g>
<g>
</g>
<g>
</g>
<g>
</g>
<g>
</g>
</svg>
