<?xml version="1.0" encoding="iso-8859-1"?>
<!-- Generator: Adobe Illustrator 19.0.0, SVG Export Plug-In . SVG Version: 6.00 Build 0)  -->
<svg xmlns="http://www.w3.org/2000/svg" xmlns:xlink="http://www.w3.org/1999/xlink" version="1.1" id="Capa_1" x="0px" y="0px" viewBox="0 0 384 384" style="enable-background:new 0 0 384 384;" xml:space="preserve">
<circle style="fill:#EA8953;" cx="192" cy="192" r="192"/>
<path style="opacity:0.1;enable-background:new    ;" d="M384,192c0-4.233-0.186-8.422-0.456-12.586L286.12,81.989H97.88v220  l81.557,81.557C183.594,383.815,187.775,384,192,384C298.039,384,384,298.039,384,192z"/>
<rect x="97.868" y="82" style="fill:#FFFFFF;" width="188.24" height="220"/>
<rect x="113.84" y="98.012" style="fill:#27A2DB;" width="156.28" height="156.28"/>
<circle style="fill:#34BDE2;" cx="156.84" cy="130.188" r="20.672"/>
<circle style="fill:#4CC3ED;" cx="156.84" cy="130.188" r="16.316"/>
<circle style="fill:#FFFFFF;" cx="156.84" cy="130.188" r="11.588"/>
<polygon style="fill:#FCD462;" points="170.962,159.991 113.87,210.195 113.87,254.262 195.67,254.262 216.85,254.262   182.622,183.946 "/>
<polygon style="fill:#DC8744;" points="216.85,254.262 248.182,254.262 182.622,183.946 "/>
<polygon style="fill:#F6C358;" points="270.132,165.482 230.186,125.867 182.622,183.946 248.182,254.262 270.132,254.262 "/>
<g>
</g>
<g>
</g>
<g>
</g>
<g>
</g>
<g>
</g>
<g>
</g>
<g>
</g>
<g>
</g>
<g>
</g>
<g>
</g>
<g>
</g>
<g>
</g>
<g>
</g>
<g>
</g>
<g>
</g>
</svg>
