<?xml version="1.0" encoding="iso-8859-1"?>
<!-- Generator: Adobe Illustrator 19.0.0, SVG Export Plug-In . SVG Version: 6.00 Build 0)  -->
<svg xmlns="http://www.w3.org/2000/svg" xmlns:xlink="http://www.w3.org/1999/xlink" version="1.1" id="Capa_1" x="0px" y="0px" viewBox="0 0 384 384" style="enable-background:new 0 0 384 384;" xml:space="preserve">
<circle style="fill:#45B39C;" cx="192" cy="192" r="192"/>
<path style="opacity:0.1;enable-background:new    ;" d="M375.332,249.202L242.76,116.63c-2.64-3-6.48-4.84-10.76-4.84h-60.76v5.72  l21.84,21.841c-2.4,2.52-3.92,5.879-3.92,9.68v7.16h-7.04c-2.52,0-4.56,2.039-4.56,4.56v10.48h-17.04l-4.32-4.28l-0.16-0.2  l-0.2-0.16c-0.72-0.84-1.8-1.4-2.96-1.4h-18.12c-2.2,0-4,1.8-4,4v2.16c-27.08,1.44-49.28,23.959-48.76,51.36  c0.28,13.88,6.16,26.439,15.52,35.4l123.652,123.686C294.258,370.656,353.792,318.308,375.332,249.202z"/>
<path style="fill:#2F4859;" d="M194.853,163.699h-5.706v-14.656c0-7.656,6.229-13.885,13.884-13.885h28.95  c4.867,0,8.826-3.959,8.826-8.825c0-4.866-3.959-8.826-8.826-8.826h-60.753v-5.705h60.753c8.012,0,14.531,6.519,14.531,14.531  c0,8.012-6.519,14.531-14.531,14.531h-28.95c-4.51,0-8.179,3.669-8.179,8.179V163.699z"/>
<g>
	<path style="fill:#3A556A;" d="M249.241,165.194h-19.219c-1.6,0-2.898,1.298-2.898,2.898v3.498h26.117v-2.397   C253.241,166.984,251.45,165.194,249.241,165.194z"/>
	<path style="fill:#3A556A;" d="M152.876,165.194h-18.117c-2.21,0-4,1.791-4,4v2.397h26.117v-2.397   C156.876,166.984,155.085,165.194,152.876,165.194z"/>
</g>
<path style="fill:#64798A;" d="M251.512,171.223H133.484c-28.31,0-52.017,23.168-51.475,51.472  c0.524,27.429,22.924,49.503,50.478,49.503c16.011,0,30.276-7.456,39.525-19.083c2.83-3.558,7.183-5.56,11.729-5.56h16.518  c4.558,0,8.91,2.022,11.75,5.588c9.971,12.518,25.761,20.192,43.28,18.918c24.815-1.806,44.874-21.946,46.586-46.768  C303.912,195.789,280.581,171.223,251.512,171.223z"/>
<g>
	<path style="fill:#EBF0F3;" d="M132.487,263.641c-23.12,0-41.93-18.81-41.93-41.93c0-23.12,18.81-41.93,41.93-41.93   c23.119,0,41.929,18.809,41.929,41.93C174.416,244.831,155.606,263.641,132.487,263.641z"/>
	<path style="fill:#EBF0F3;" d="M251.512,263.641c-23.12,0-41.929-18.81-41.929-41.93c0-23.12,18.81-41.93,41.929-41.93   c23.12,0,41.929,18.809,41.929,41.93C293.442,244.831,274.632,263.641,251.512,263.641z"/>
</g>
<path style="fill:#3A556A;" d="M127.71,246.801c-2.266,0-4.11-1.844-4.11-4.11v-12.094h-12.093c-2.266,0-4.11-1.844-4.11-4.11  v-9.553c0-2.266,1.844-4.11,4.11-4.11H123.6v-12.094c0-2.266,1.844-4.11,4.11-4.11h9.554c2.266,0,4.11,1.844,4.11,4.11v12.094  h12.094c2.266,0,4.11,1.844,4.11,4.11v9.553c0,2.266-1.844,4.11-4.11,4.11h-12.094v12.094c0,2.266-1.844,4.11-4.11,4.11H127.71z"/>
<path style="fill:#64798A;" d="M153.467,214.968h-12.27c-1.086,0-1.967-0.881-1.967-1.967v-12.27c0-1.086-0.881-1.967-1.967-1.967  h-9.554c-1.086,0-1.967,0.88-1.967,1.967V213c0,1.086-0.88,1.967-1.967,1.967h-12.27c-1.086,0-1.967,0.88-1.967,1.967v9.554  c0,1.086,0.881,1.967,1.967,1.967h12.27c1.086,0,1.967,0.881,1.967,1.967v12.27c0,1.086,0.881,1.967,1.967,1.967h9.554  c1.086,0,1.967-0.88,1.967-1.967v-12.27c0-1.086,0.881-1.967,1.967-1.967h12.27c1.086,0,1.967-0.88,1.967-1.967v-9.554  C155.434,215.848,154.553,214.968,153.467,214.968z"/>
<g>
	<path style="fill:#3A556A;" d="M135.464,205.618l-2.594-2.594c-0.212-0.212-0.555-0.212-0.767,0l-2.595,2.594   c-0.342,0.342-0.1,0.926,0.384,0.926h5.189C135.564,206.544,135.806,205.959,135.464,205.618z"/>
	<path style="fill:#3A556A;" d="M129.508,237.805l2.595,2.594c0.212,0.212,0.555,0.212,0.767,0l2.594-2.594   c0.342-0.342,0.1-0.926-0.383-0.926h-5.189C129.409,236.879,129.167,237.463,129.508,237.805z"/>
	<path style="fill:#3A556A;" d="M148.58,224.689l2.594-2.594c0.212-0.212,0.212-0.555,0-0.767l-2.594-2.594   c-0.342-0.342-0.926-0.1-0.926,0.383v5.19C147.654,224.789,148.238,225.031,148.58,224.689z"/>
	<path style="fill:#3A556A;" d="M116.393,218.733l-2.594,2.594c-0.212,0.212-0.212,0.555,0,0.767l2.594,2.594   c0.342,0.342,0.926,0.1,0.926-0.383v-5.19C117.319,218.634,116.735,218.392,116.393,218.733z"/>
</g>
<path style="fill:#E1E6E9;" d="M260.341,209.088l-21.452,21.452c-4.436,4.436-11.628,4.436-16.064,0l0,0  c-4.436-4.436-4.436-11.628,0-16.064l21.452-21.452c4.436-4.436,11.628-4.436,16.064,0l0,0  C264.777,197.46,264.777,204.652,260.341,209.088z"/>
<ellipse style="fill:#E56353;" cx="252.09" cy="201.307" rx="9.12" ry="9.12"/>
<ellipse style="fill:#44C4A1;" cx="231.106" cy="222.247" rx="9.12" ry="9.12"/>
<path style="fill:#E1E6E9;" d="M280.199,228.946l-21.451,21.452c-4.436,4.436-11.628,4.436-16.064,0l0,0  c-4.436-4.436-4.436-11.628,0-16.064l21.452-21.452c4.436-4.436,11.628-4.436,16.064,0l0,0  C284.635,217.318,284.635,224.51,280.199,228.946z"/>
<ellipse style="fill:#27A2DB;" cx="271.919" cy="221.141" rx="9.12" ry="9.12"/>
<ellipse style="fill:#DC8744;" cx="250.969" cy="242.112" rx="9.12" ry="9.12"/>
<path style="fill:#E56353;" d="M186.206,180.266h-13.728c-0.69,0-1.248,0.559-1.248,1.248v4.279c0,0.689,0.559,1.248,1.248,1.248  h13.728c0.689,0,1.248-0.559,1.248-1.248v-4.279C187.454,180.825,186.895,180.266,186.206,180.266z"/>
<path style="fill:#44C4A1;" d="M211.523,180.266h-13.728c-0.689,0-1.248,0.559-1.248,1.248v4.279c0,0.689,0.559,1.248,1.248,1.248  h13.728c0.69,0,1.248-0.559,1.248-1.248v-4.279C212.771,180.825,212.212,180.266,211.523,180.266z"/>
<path style="fill:#3A556A;" d="M201.868,156.175h-19.736c-2.52,0-4.562,2.042-4.562,4.562v10.486h28.859v-10.486  C206.43,158.217,204.388,156.175,201.868,156.175z"/>
<g>
</g>
<g>
</g>
<g>
</g>
<g>
</g>
<g>
</g>
<g>
</g>
<g>
</g>
<g>
</g>
<g>
</g>
<g>
</g>
<g>
</g>
<g>
</g>
<g>
</g>
<g>
</g>
<g>
</g>
</svg>
