<?xml version="1.0" encoding="iso-8859-1"?>
<!-- Generator: Adobe Illustrator 19.0.0, SVG Export Plug-In . SVG Version: 6.00 Build 0)  -->
<svg xmlns="http://www.w3.org/2000/svg" xmlns:xlink="http://www.w3.org/1999/xlink" version="1.1" id="Capa_1" x="0px" y="0px" viewBox="0 0 384 384" style="enable-background:new 0 0 384 384;" xml:space="preserve">
<circle style="fill:#E05B49;" cx="192" cy="192" r="192"/>
<path style="opacity:0.1;enable-background:new    ;" d="M272.44,83.59c-1.04-1-2.44-1.6-4-1.6H115.56c-3.24,0-5.88,2.64-5.88,5.84  v208.319c0,1.521,0.56,2.881,1.52,3.921l83.853,83.852c103.598-1.621,187.237-85.256,188.869-188.85L272.8,83.95L272.44,83.59z"/>
<path style="fill:#3A556A;" d="M268.458,89.72H115.542c-3.228,0-5.846,2.617-5.846,5.846v200.588c0,3.229,2.618,5.846,5.846,5.846  h152.915c3.228,0,5.846-2.618,5.846-5.846V95.566C274.304,92.337,271.686,89.72,268.458,89.72z"/>
<path style="fill:#64798A;" d="M268.458,82H115.542c-3.228,0-5.846,2.618-5.846,5.846v200.588c0,3.229,2.618,5.846,5.846,5.846  h152.915c3.228,0,5.846-2.618,5.846-5.846V87.846C274.304,84.618,271.686,82,268.458,82z"/>
<path style="fill:#EBF0F3;" d="M264.499,90.72c-2.916,0-5.279,2.364-5.279,5.28s2.363,5.28,5.279,5.28h9.805V90.72H264.499z"/>
<circle style="fill:#3A556A;" cx="264.12" cy="96" r="3.16"/>
<path style="fill:#EBF0F3;" d="M119.501,101.28c2.916,0,5.279-2.364,5.279-5.28s-2.363-5.279-5.279-5.279h-9.805v10.56H119.501z"/>
<circle style="fill:#3A556A;" cx="119.892" cy="96" r="3.16"/>
<path style="fill:#EBF0F3;" d="M264.499,222.72c-2.916,0-5.279,2.364-5.279,5.28c0,2.916,2.363,5.28,5.279,5.28h9.805v-10.56  H264.499z"/>
<circle style="fill:#3A556A;" cx="264.12" cy="228" r="3.16"/>
<path style="fill:#EBF0F3;" d="M119.501,233.28c2.916,0,5.279-2.364,5.279-5.28c0-2.916-2.363-5.279-5.279-5.279h-9.805v10.56  H119.501z"/>
<circle style="fill:#3A556A;" cx="119.892" cy="228" r="3.16"/>
<path style="fill:#EBF0F3;" d="M264.499,276.72c-2.916,0-5.279,2.364-5.279,5.28c0,2.916,2.363,5.28,5.279,5.28h9.805v-10.56  H264.499z"/>
<circle style="fill:#3A556A;" cx="264.12" cy="282" r="3.16"/>
<path style="fill:#EBF0F3;" d="M119.501,287.28c2.916,0,5.279-2.364,5.279-5.28c0-2.916-2.363-5.279-5.279-5.279h-9.805v10.56  H119.501z"/>
<g>
	<circle style="fill:#3A556A;" cx="119.892" cy="282" r="3.16"/>
	<circle style="fill:#3A556A;" cx="192" cy="163.928" r="73.82"/>
</g>
<circle style="fill:#EBF0F3;" cx="192" cy="163.928" r="69.236"/>
<circle style="fill:#E1E6E9;" cx="192" cy="163.928" r="24.728"/>
<circle style="fill:#64798A;" cx="192" cy="163.928" r="3.192"/>
<g>
	<circle style="fill:#D5D6DB;" cx="211.544" cy="163.928" r="3.192"/>
	<circle style="fill:#D5D6DB;" cx="172.44" cy="163.928" r="3.192"/>
	<ellipse style="fill:#D5D6DB;" cx="182.233" cy="146.999" rx="3.192" ry="3.192"/>
	<ellipse style="fill:#D5D6DB;" cx="201.751" cy="180.844" rx="3.196" ry="3.196"/>
	<ellipse style="fill:#D5D6DB;" cx="182.234" cy="180.836" rx="3.192" ry="3.192"/>
	<ellipse style="fill:#D5D6DB;" cx="201.768" cy="147.015" rx="3.192" ry="3.192"/>
	<path style="fill:#D5D6DB;" d="M192,178.214c-7.875,0-14.285-6.408-14.285-14.285c0-7.875,6.41-14.283,14.285-14.283   c7.875,0,14.285,6.408,14.285,14.283C206.285,171.805,199.874,178.214,192,178.214z M192,153.645   c-5.672,0-10.285,4.613-10.285,10.283c0,5.672,4.613,10.285,10.285,10.285c5.672,0,10.285-4.613,10.285-10.285   C202.285,158.258,197.672,153.645,192,153.645z"/>
</g>
<g>
	<path style="fill:#FFFFFF;" d="M170.134,175.463l-39.353,20.758c7.554,14.291,19.949,25.606,35.02,31.775l16.842-41.184   C177.261,184.609,172.833,180.567,170.134,175.463z"/>
	<path style="fill:#FFFFFF;" d="M167.624,167.929l-43.873,7.198c0.522,3.195,1.182,6.343,2.123,9.375l42.508-13.224   C168.046,170.194,167.81,169.07,167.624,167.929z"/>
	<path style="fill:#FFFFFF;" d="M216.378,159.93l43.871-7.198c-0.522-3.195-1.18-6.343-2.123-9.375l-42.506,13.224   C215.956,157.664,216.192,158.788,216.378,159.93z"/>
	<path style="fill:#FFFFFF;" d="M213.868,152.394l39.352-20.758c-7.554-14.291-19.949-25.606-35.018-31.775l-16.844,41.184   C206.741,143.249,211.169,147.29,213.868,152.394z"/>
	<polygon style="fill:#FFFFFF;" points="181.277,286.495 147.742,286.495 128.546,267.304 128.546,240.88 144.546,240.88    144.546,260.674 154.367,270.495 181.277,270.495  "/>
	<polygon style="fill:#FFFFFF;" points="206.624,253.366 206.624,282 242.594,282 254.86,269.733 254.86,244.42 217.806,244.42    217.806,253.366  "/>
</g>
<polygon style="fill:#FCD462;" points="241.793,257.366 241.793,248.42 229.439,248.42 229.439,257.366 210.624,257.366   210.624,278.001 240.937,278.001 250.859,268.077 250.859,257.366 "/>
<rect x="232.64" y="251.36" style="fill:#3A556A;" width="5.512" height="5.512"/>
<path style="fill:#D5D6DB;" d="M172.672,266.958c-6.534,6.534-17.126,6.534-23.66,0c-6.533-6.534-6.533-17.126,0-23.66  c6.534-6.533,57.611-33.951,57.611-33.951S179.206,260.424,172.672,266.958z"/>
<path style="fill:#E56353;" d="M170.975,265.26c-6.534,6.534-17.126,6.534-23.66,0c-6.534-6.534-6.534-17.126,0-23.66  c6.533-6.533,57.611-33.951,57.611-33.951S177.508,258.726,170.975,265.26z"/>
<ellipse style="fill:#64798A;" cx="159.123" cy="253.475" rx="8.612" ry="8.612"/>
<ellipse style="fill:#E1E6E9;" cx="159.126" cy="253.477" rx="3.696" ry="3.696"/>
<g>
</g>
<g>
</g>
<g>
</g>
<g>
</g>
<g>
</g>
<g>
</g>
<g>
</g>
<g>
</g>
<g>
</g>
<g>
</g>
<g>
</g>
<g>
</g>
<g>
</g>
<g>
</g>
<g>
</g>
</svg>
