<?xml version="1.0" encoding="iso-8859-1"?>
<!-- Generator: Adobe Illustrator 19.0.0, SVG Export Plug-In . SVG Version: 6.00 Build 0)  -->
<svg xmlns="http://www.w3.org/2000/svg" xmlns:xlink="http://www.w3.org/1999/xlink" version="1.1" id="Capa_1" x="0px" y="0px" viewBox="0 0 384 384" style="enable-background:new 0 0 384 384;" xml:space="preserve">
<circle style="fill:#EFC84A;" cx="192" cy="192" r="192"/>
<path style="opacity:0.1;enable-background:new    ;" d="M384,192c0-4.13-0.176-8.217-0.432-12.283L286.64,82.79  c-1.08-1.04-2.8-1.04-3.84,0l-11.72,11.68l-5,5l-6.08,6.12c-18.72-14.76-42.32-23.6-68-23.6c-60.76,0-110,49.24-110,110  c0,29.88,11.92,56.96,31.24,76.8L225.481,381.03C315.548,365.182,384,286.611,384,192z"/>
<path style="fill:#E56353;" d="M192,278.001c-47.422,0-86-38.58-86-86c0-47.42,38.578-86,86-86c43.605,0,79.646,32.647,85.18,74.765  l24.246-0.059C295.771,125.261,248.938,82,192,82c-60.752,0-110,49.248-110,110c0,60.751,49.248,110,110,110  c55.746,0,101.775-41.478,108.986-95.249l-24.356,0.07C269.576,247.19,234.359,278.001,192,278.001z"/>
<path style="fill:#FFFFFF;" d="M192,106.001c-47.422,0-86,38.58-86,86c0,47.42,38.578,86,86,86c42.359,0,77.576-30.811,84.631-71.18  l-24.514,0.07c-6.696,27.006-31.07,47.11-60.117,47.11c-34.188,0-62-27.812-62-62c0-34.187,27.812-62,62-62  c30.367,0,55.654,21.96,60.938,50.824l24.242-0.059C271.646,138.648,235.605,106.001,192,106.001z"/>
<path style="fill:#E56353;" d="M192,230.001c-20.953,0-38-17.047-38-38c0-20.953,17.047-38,38-38  c17.086,0,31.566,11.339,36.332,26.884l24.605-0.06c-5.283-28.864-30.57-50.824-60.938-50.824c-34.188,0-62,27.813-62,62  c0,34.188,27.812,62,62,62c29.047,0,53.422-20.104,60.117-47.11l-25.197,0.072C221.098,220.496,207.642,230.001,192,230.001z"/>
<path style="fill:#FFFFFF;" d="M192,154.001c-20.953,0-38,17.047-38,38c0,20.953,17.047,38,38,38  c15.642,0,29.098-9.504,34.92-23.038l-14.389,0.041l-10.27-5.553c-2.56,2.778-6.195,4.55-10.262,4.55c-7.719,0-14-6.281-14-14  c0-7.719,6.281-14,14-14c5.32,0,9.902,3.02,12.271,7.403l8.18-4.48l15.881-0.039C223.566,165.34,209.086,154.001,192,154.001z"/>
<path style="fill:#E56353;" d="M190.691,195.204c-0.961-0.48-0.961-1.88,0-2.36l7.078-3.88l6.502-3.56  c-2.369-4.383-6.951-7.403-12.271-7.403c-7.719,0-14,6.281-14,14c0,7.719,6.281,14,14,14c4.066,0,7.701-1.772,10.262-4.55  l-4.451-2.407L190.691,195.204z"/>
<path style="fill:#D15241;" d="M301.426,180.706l-24.246,0.059c0.484,3.687,0.82,7.418,0.82,11.235c0,5.062-0.526,9.996-1.369,14.82  l24.356-0.07C301.635,201.923,302,197.006,302,192C302,188.187,301.804,184.42,301.426,180.706z"/>
<path style="fill:#EBF0F3;" d="M254,192.001c0,5.141-0.699,10.11-1.883,14.89l24.514-0.07c0.844-4.825,1.369-9.758,1.369-14.82  c0-3.817-0.336-7.548-0.82-11.235l-24.242,0.059C253.602,184.456,254,188.18,254,192.001z"/>
<path style="fill:#D15241;" d="M252.938,180.825l-24.605,0.06c1.08,3.518,1.668,7.249,1.668,11.116  c0,5.311-1.104,10.367-3.08,14.962l25.197-0.072c1.184-4.78,1.883-9.749,1.883-14.89C254,188.18,253.602,184.456,252.938,180.825z"/>
<path style="fill:#EBF0F3;" d="M204.271,185.404c1.066,1.975,1.729,4.2,1.729,6.597c0,3.652-1.44,6.954-3.738,9.45l10.27,5.553  l14.389-0.041c1.976-4.595,3.08-9.651,3.08-14.962c0-3.867-0.588-7.598-1.668-11.116l-15.881,0.039L204.271,185.404z"/>
<path style="fill:#D15241;" d="M204.271,185.404l-6.502,3.56l-7.078,3.88c-0.961,0.48-0.961,1.88,0,2.36l7.119,3.84l4.451,2.407  c2.299-2.496,3.738-5.798,3.738-9.45C206,189.603,205.337,187.379,204.271,185.404z"/>
<rect x="242.39" y="100.452" transform="matrix(0.7071 0.7071 -0.7071 0.7071 178.0002 -130.6694)" style="fill:#1C75A1;" width="8.684" height="98.156"/>
<rect x="236.247" y="94.309" transform="matrix(0.7071 0.7071 -0.7071 0.7071 171.8658 -128.1258)" style="fill:#2D93BA;" width="8.68" height="98.156"/>
<rect x="230.138" y="88.151" transform="matrix(0.7071 0.7071 -0.7071 0.7071 165.7131 -125.6092)" style="fill:#27A2DB;" width="8.684" height="98.156"/>
<rect x="264.775" y="102.653" transform="matrix(0.7071 0.7071 -0.7071 0.7071 156.4509 -165.3319)" style="fill:#EBF0F3;" width="26.048" height="7.068"/>
<path style="fill:#2F4859;" d="M301.2,97.356l-4.208-4.208l-13.618,13.618l6.139,6.139l11.688-11.688  C302.267,100.151,302.266,98.422,301.2,97.356z"/>
<rect x="277.491" y="92.558" transform="matrix(-0.7071 0.7071 -0.7071 -0.7071 558.6647 -37.608)" style="fill:#3A556A;" width="19.26" height="8.684"/>
<path style="fill:#64798A;" d="M290.852,87.008l-4.208-4.208c-1.066-1.067-2.795-1.066-3.861,0l-11.688,11.688l6.139,6.139  L290.852,87.008z"/>
<path style="fill:#FCD462;" d="M196.691,168.892l-4.76,16.041c1.839-0.034,3.69,0.639,5.094,2.043  c1.404,1.404,2.076,3.254,2.042,5.094l16.041-4.76L196.691,168.892z"/>
<path style="fill:#64798A;" d="M197.025,186.976c-1.404-1.404-3.255-2.077-5.094-2.043l-2.298,7.743  c-0.308,1.035,0.656,1.998,1.691,1.691l7.743-2.298C199.101,190.23,198.428,188.38,197.025,186.976z"/>
<g>
</g>
<g>
</g>
<g>
</g>
<g>
</g>
<g>
</g>
<g>
</g>
<g>
</g>
<g>
</g>
<g>
</g>
<g>
</g>
<g>
</g>
<g>
</g>
<g>
</g>
<g>
</g>
<g>
</g>
</svg>
