<?xml version="1.0" encoding="iso-8859-1"?>
<!-- Generator: Adobe Illustrator 19.0.0, SVG Export Plug-In . SVG Version: 6.00 Build 0)  -->
<svg xmlns="http://www.w3.org/2000/svg" xmlns:xlink="http://www.w3.org/1999/xlink" version="1.1" id="Capa_1" x="0px" y="0px" viewBox="0 0 384 384" style="enable-background:new 0 0 384 384;" xml:space="preserve">
<circle style="fill:#EFC84A;" cx="192" cy="192" r="192"/>
<path style="opacity:0.1;enable-background:new    ;" d="M383.305,207.735L290.6,115.03h-0.04c-0.88-0.96-2.16-1.521-3.56-1.521H97  c-2.76,0-5,2.24-5,5v133.72H82v13.84l117.709,117.735C296.916,379.962,375.499,303.874,383.305,207.735z"/>
<path style="fill:#3A556A;" d="M286.988,113.515H97.01c-2.761,0-4.999,2.239-4.999,5v133.713h199.978V118.515  C291.989,115.754,289.75,113.515,286.988,113.515z"/>
<rect x="103.708" y="124.232" style="fill:#64798A;" width="176.6" height="117.296"/>
<rect x="82" y="252.24" style="fill:#EBF0F3;" width="220" height="13.848"/>
<g>
	<polygon style="fill:#D5D6DB;" points="301.691,266.093 82.309,266.093 96.754,270.485 287.246,270.485  "/>
	<rect x="177.16" y="257.52" style="fill:#D5D6DB;" width="29.64" height="3.24"/>
</g>
<path style="fill:#E1E6E9;" d="M235.093,163.884c-0.473,0-0.916,0.097-1.377,0.138c-2.709-7.231-9.305-12.472-17.266-13.293  c0.051-0.504,0.152-0.992,0.152-1.509c0-8.484-6.877-15.36-15.359-15.36c-5.666,0-10.559,3.102-13.221,7.666  c-3.844-2.401-8.367-3.811-13.232-3.811c-13.824,0-25.031,11.207-25.031,25.03c0,0.416,0.043,0.82,0.062,1.23  c-0.309-0.018-0.602-0.092-0.916-0.092c-8.482,0-15.36,6.876-15.36,15.36s6.877,15.36,15.36,15.36h86.188  c8.482,0,15.359-6.876,15.359-15.36S243.576,163.884,235.093,163.884z"/>
<polygon style="fill:#3A556A;" points="213.333,203.438 191.999,182.959 170.665,203.438 178.773,203.438 178.773,231.882   205.226,231.882 205.226,203.438 "/>
<polygon style="fill:#E56353;" points="213.333,199.438 191.999,178.959 170.665,199.438 178.773,199.438 178.773,227.882   205.226,227.882 205.226,199.438 "/>
<g>
</g>
<g>
</g>
<g>
</g>
<g>
</g>
<g>
</g>
<g>
</g>
<g>
</g>
<g>
</g>
<g>
</g>
<g>
</g>
<g>
</g>
<g>
</g>
<g>
</g>
<g>
</g>
<g>
</g>
</svg>
