<?xml version="1.0" encoding="iso-8859-1"?>
<!-- Generator: Adobe Illustrator 19.0.0, SVG Export Plug-In . SVG Version: 6.00 Build 0)  -->
<svg xmlns="http://www.w3.org/2000/svg" xmlns:xlink="http://www.w3.org/1999/xlink" version="1.1" id="Capa_1" x="0px" y="0px" viewBox="0 0 384 384" style="enable-background:new 0 0 384 384;" xml:space="preserve">
<circle style="fill:#45B39C;" cx="192" cy="192" r="192"/>
<path style="opacity:0.1;enable-background:new    ;" d="M383.698,202.568L298.76,117.63l-0.32-0.32c-1-1.2-2.28-2.24-3.68-3l-29-29  c-1.56-2.04-4.04-3.32-6.84-3.32H90.6c-4.72,0-8.6,3.72-8.6,8.32v14.92c0,0,0,0,0,0.04v41.36c0,2.72,1.36,5.12,3.4,6.64l86.24,86.24  v4.12h-5.16c-1.68,0-3.04,1.36-3.04,3v52.36c0,0.8,0.32,1.52,0.84,2.04l76.655,76.655C319.99,356.906,379.116,287,383.698,202.568z"/>
<path style="fill:#64798A;" d="M183.628,278.491h-12.005v-47.576c0-9.779,6.171-18.616,15.35-21.989l101.596-37.332  c0.852-0.314,1.426-1.137,1.426-2.045V126.66c0-1.201-0.977-2.178-2.181-2.178h-67.83v-11.999h67.83  c7.824,0,14.186,6.359,14.186,14.177v42.889c0,5.914-3.732,11.261-9.285,13.306l-101.6,37.332  c-4.478,1.646-7.488,5.957-7.488,10.728V278.491z"/>
<path style="fill:#2F4859;" d="M189.542,243.625h-23.067c-1.668,0-3.021,1.352-3.021,3.019v52.337c0,1.667,1.352,3.019,3.021,3.019  h23.067c1.669,0,3.021-1.352,3.021-3.019v-52.337C192.563,244.977,191.211,243.625,189.542,243.625z"/>
<path style="fill:#EBF0F3;" d="M82,112.483v34.147c0,4.598,3.86,8.325,8.622,8.325h168.291c4.76,0,8.62-3.727,8.62-8.325v-34.147H82  z"/>
<path style="fill:#D15241;" d="M258.904,86H90.614c-4.737,0-8.598,3.72-8.598,8.32v14.919c-0.006,0.004-0.01,0.009-0.016,0.012  v11.89c1.081,0.685,2.35,1.097,3.718,1.097c1.512,0,2.906-0.479,4.06-1.319c0.039,4.72,3.78,8.479,8.478,8.479  c4.219,0,7.762-3.08,8.398-7.16h0.12c2.229,0,4.179-1.04,5.413-2.68c1.473,2.48,4.22,4.16,7.324,4.16c1.553,0,2.985-0.44,4.26-1.16  c0.715,3.08,3.462,5.32,6.766,5.32c3.423,0,6.29-2.44,6.847-5.72c1.273-0.08,2.428-0.52,3.382-1.24  c0.041,4.72,3.823,8.479,8.518,8.479c4.22,0,7.722-3.08,8.359-7.16h0.12c2.228,0,4.258-1.08,5.452-2.72  c1.473,2.52,4.18,4.2,7.284,4.2c1.553,0,3.026-0.44,4.299-1.16c0.717,3.08,3.463,5.32,6.765,5.32c0.995,0,1.99-0.2,2.828-0.64  c1.512,1.32,3.462,2.16,5.652,2.16c4.219,0,7.76-3.08,8.398-7.16h0.12c2.228,0,4.179-1.04,5.413-2.68  c1.471,2.48,4.22,4.16,7.324,4.16c1.553,0,3.026-0.44,4.258-1.16c0.717,3.08,3.464,5.32,6.768,5.32c3.423,0,6.289-2.44,6.847-5.72  c1.273-0.08,2.428-0.52,3.384-1.24c0.039,4.72,3.821,8.479,8.517,8.479c4.22,0,7.722-3.08,8.359-7.16h0.118  c2.23,0,4.22-1.04,5.454-2.68c1.473,2.48,4.178,4.16,7.284,4.16c1.986,0,3.794-0.708,5.244-1.85V94.227  C267.48,89.671,263.649,86,258.904,86z"/>
<path style="fill:#E56353;" d="M258.904,82H90.614c-4.737,0-8.598,3.72-8.598,8.32v14.919c-0.006,0.004-0.01,0.009-0.016,0.013  v11.89c1.081,0.685,2.35,1.097,3.718,1.097c1.512,0,2.906-0.48,4.06-1.32c0.039,4.72,3.78,8.479,8.478,8.479  c4.219,0,7.762-3.08,8.398-7.16h0.12c2.229,0,4.179-1.04,5.413-2.68c1.473,2.48,4.22,4.16,7.324,4.16c1.553,0,2.985-0.44,4.26-1.16  c0.715,3.08,3.462,5.32,6.766,5.32c3.423,0,6.29-2.44,6.847-5.72c1.273-0.08,2.428-0.52,3.382-1.24  c0.041,4.72,3.823,8.479,8.518,8.479c4.22,0,7.722-3.08,8.359-7.16h0.12c2.228,0,4.258-1.08,5.452-2.72  c1.473,2.52,4.18,4.2,7.284,4.2c1.553,0,3.026-0.44,4.299-1.16c0.717,3.08,3.463,5.32,6.765,5.32c0.995,0,1.99-0.2,2.828-0.641  c1.512,1.32,3.462,2.16,5.652,2.16c4.219,0,7.76-3.08,8.398-7.16h0.12c2.228,0,4.179-1.04,5.413-2.68  c1.471,2.48,4.22,4.16,7.324,4.16c1.553,0,3.026-0.44,4.258-1.16c0.717,3.08,3.464,5.32,6.768,5.32c3.423,0,6.289-2.44,6.847-5.72  c1.273-0.08,2.428-0.52,3.384-1.24c0.039,4.72,3.821,8.479,8.517,8.479c4.22,0,7.722-3.08,8.359-7.16h0.118  c2.23,0,4.22-1.04,5.454-2.68c1.473,2.48,4.178,4.16,7.284,4.16c1.986,0,3.794-0.708,5.244-1.85V90.227  C267.48,85.671,263.649,82,258.904,82z"/>
<g>
</g>
<g>
</g>
<g>
</g>
<g>
</g>
<g>
</g>
<g>
</g>
<g>
</g>
<g>
</g>
<g>
</g>
<g>
</g>
<g>
</g>
<g>
</g>
<g>
</g>
<g>
</g>
<g>
</g>
</svg>
