<?xml version="1.0" encoding="iso-8859-1"?>
<!-- Generator: Adobe Illustrator 19.0.0, SVG Export Plug-In . SVG Version: 6.00 Build 0)  -->
<svg xmlns="http://www.w3.org/2000/svg" xmlns:xlink="http://www.w3.org/1999/xlink" version="1.1" id="Capa_1" x="0px" y="0px" viewBox="0 0 384 384" style="enable-background:new 0 0 384 384;" xml:space="preserve">
<ellipse style="fill:#45B39C;" cx="192" cy="192" rx="192" ry="192"/>
<path style="opacity:0.1;enable-background:new    ;" d="M382.438,216.253l-81.381-83.273c-1.183-1.494-3.052-2.436-5.132-2.46  l-69.435-0.807l-15.971-16.307l-0.198-0.202c-0.83-0.85-1.944-1.343-3.144-1.357l-38.437-0.447c-1.72-0.02-3.332,0.961-4.07,2.513  l-7.335,14.996l-21.319-0.248l-6.721-6.839c-0.237-0.242-0.556-0.406-0.915-0.41l-21.998-0.256c-0.76-0.009-1.367,0.584-1.376,1.304  l-0.068,5.84l-15.399-0.179c-3.76-0.044-6.835,2.961-6.878,6.72l-1.504,129.391c-0.018,1.56,0.485,3.006,1.392,4.177  l112.853,115.508C291.451,382.262,370.623,309.946,382.438,216.253z"/>
<path style="fill:#EBF0F3;" d="M295.907,130.502l-206.349-2.399c-3.766-0.044-6.854,2.973-6.897,6.738l-1.504,129.401  c-0.044,3.765,2.973,6.853,6.739,6.896l206.349,2.399c3.765,0.044,6.854-2.972,6.897-6.738l1.504-129.401  C302.689,133.634,299.672,130.546,295.907,130.502z"/>
<rect x="81.9" y="160.766" transform="matrix(-0.9999 -0.0116 0.0116 -0.9999 381.4539 403.8286)" style="fill:#E56353;" width="219.999" height="80.08"/>
<path style="fill:#E1E6E9;" d="M191.247,256.989c14.822,0.172,28.24-5.882,37.853-15.696l-75.331-0.876  C163.152,250.452,176.426,256.817,191.247,256.989z"/>
<path style="fill:#D15241;" d="M139.685,204.214c-0.162,13.991,5.229,26.731,14.084,36.204l75.331,0.876  c9.073-9.264,14.759-21.875,14.922-35.867c0.216-18.542-9.296-34.896-23.766-44.318l-55.781-0.648  C149.791,169.544,139.901,185.672,139.685,204.214z"/>
<ellipse style="fill:#FFFFFF;" cx="191.889" cy="200.809" rx="52.16" ry="52.16"/>
<path style="fill:#EBF0F3;" d="M191.43,241.124c-21.561-0.251-38.894-18.534-38.636-40.756  c0.258-22.222,18.012-40.098,39.573-39.847c21.564,0.251,38.898,18.534,38.639,40.756  C230.748,223.498,212.995,241.374,191.43,241.124z"/>
<ellipse transform="matrix(-0.9999 -0.0116 0.0116 -0.9999 381.4176 403.8282)" style="fill:#3A556A;" cx="191.882" cy="200.806" rx="30.12" ry="31.04"/>
<ellipse transform="matrix(-0.9999 -0.0116 0.0116 -0.9999 381.4207 403.8354)" style="fill:#6E8696;" cx="191.885" cy="200.809" rx="21.132" ry="21.776"/>
<path style="fill:#64798A;" d="M202.56,182.036c4.828,15.204-3.263,35.084-23.964,34.844c-0.343-0.004-0.659-0.046-0.995-0.06  c3.706,3.52,8.619,5.715,14.045,5.778c11.651,0.135,21.245-9.524,21.384-21.53C213.124,192.976,208.891,185.864,202.56,182.036z"/>
<ellipse transform="matrix(-0.9999 -0.0117 0.0117 -0.9999 407.3259 386.4705)" style="fill:#27A2DB;" cx="204.789" cy="192.049" rx="4.28" ry="4.412"/>
<ellipse transform="matrix(-0.9999 -0.0116 0.0116 -0.9999 359.9078 421.9384)" style="fill:#D5D6DB;" cx="181.179" cy="209.925" rx="3.244" ry="3.344"/>
<g>
	<path style="fill:#64798A;" d="M128.361,121.404l-21.995-0.256c-0.734-0.008-1.335,0.579-1.344,1.312l-0.068,5.823l24.651,0.286   l0.068-5.823C129.681,122.013,129.095,121.412,128.361,121.404z"/>
	<path style="fill:#64798A;" d="M211.207,114.451c-0.728-1.574-2.294-2.589-4.029-2.61l-38.427-0.446   c-1.732-0.02-3.324,0.958-4.088,2.515l-7.347,14.981l60.889,0.708L211.207,114.451z"/>
</g>
<path style="fill:#EBF0F3;" d="M203.297,118.533l-30.82-0.358c-1.646-0.019-2.998,1.3-3.017,2.946  c-0.019,1.647,1.301,2.997,2.948,3.016l30.82,0.358c1.646,0.019,2.998-1.3,3.017-2.947  C206.264,119.902,204.944,118.552,203.297,118.533z"/>
<g>
</g>
<g>
</g>
<g>
</g>
<g>
</g>
<g>
</g>
<g>
</g>
<g>
</g>
<g>
</g>
<g>
</g>
<g>
</g>
<g>
</g>
<g>
</g>
<g>
</g>
<g>
</g>
<g>
</g>
</svg>
