<?xml version="1.0" encoding="iso-8859-1"?>
<!-- Generator: Adobe Illustrator 19.0.0, SVG Export Plug-In . SVG Version: 6.00 Build 0)  -->
<svg xmlns="http://www.w3.org/2000/svg" xmlns:xlink="http://www.w3.org/1999/xlink" version="1.1" id="Capa_1" x="0px" y="0px" viewBox="0 0 384 384" style="enable-background:new 0 0 384 384;" xml:space="preserve">
<circle style="fill:#EA8953;" cx="192" cy="192" r="192"/>
<path style="opacity:0.1;enable-background:new    ;" d="M381.04,225.429L269.8,114.19c-43-42.96-112.6-42.96-155.6,0  c-42.96,43-42.96,112.6,0,155.6l111.247,111.247C304.669,367.111,367.122,304.654,381.04,225.429z"/>
<circle style="fill:#3A556A;" cx="192" cy="192" r="110"/>
<circle style="fill:#64798A;" cx="192" cy="192" r="104.24"/>
<circle style="fill:#FFFFFF;" cx="192" cy="192" r="87.172"/>
<circle style="fill:#EBF0F3;" cx="192" cy="192" r="16.476"/>
<path style="fill:#E56353;" d="M244.708,157.261l13.84-7.991c-6.148-9.543-14.274-17.668-23.816-23.816l-7.99,13.841  C233.874,144.011,239.992,150.128,244.708,157.261z"/>
<path style="fill:#D15241;" d="M254.984,188.268h16c-0.549-11.684-3.594-22.71-8.69-32.542l-13.877,8.012  C252.171,171.199,254.468,179.49,254.984,188.268z"/>
<path style="fill:#31978C;" d="M220.263,135.584l8.012-13.877c-9.832-5.095-20.857-8.141-32.541-8.689v16  C204.513,129.534,212.802,131.831,220.263,135.584z"/>
<path style="fill:#F6C358;" d="M135.586,163.738l-13.877-8.012c-5.096,9.832-8.14,20.858-8.689,32.542h16  C129.535,179.49,131.832,171.199,135.586,163.738z"/>
<path style="fill:#3EA69B;" d="M188.269,129.018v-16c-11.684,0.548-22.709,3.594-32.541,8.689l8.012,13.878  C171.201,131.831,179.49,129.534,188.269,129.018z"/>
<path style="fill:#CE412D;" d="M254.984,195.732c-0.516,8.779-2.813,17.069-6.566,24.53l13.877,8.012  c5.096-9.832,8.141-20.858,8.69-32.542H254.984z"/>
<path style="fill:#FCD462;" d="M129.019,195.732h-16c0.549,11.684,3.594,22.71,8.689,32.542l13.877-8.012  C131.832,212.802,129.535,204.511,129.019,195.732z"/>
<path style="fill:#44C4A1;" d="M157.261,139.294l-7.99-13.841c-9.543,6.148-17.668,14.274-23.816,23.816l13.84,7.991  C144.011,150.128,150.13,144.011,157.261,139.294z"/>
<g>
	<path style="fill:#64798A;" d="M164.975,257.392c0.431,0.046,0.932,0,1.613-0.068c1.158-0.159,2.25-0.635,3.089-1.431   c0.977-0.886,1.682-2.181,1.954-3.93h-0.066c-0.82,0.999-2,1.59-3.476,1.59c-2.658,0-4.362-1.999-4.362-4.521   c0-2.794,2.022-5.248,5.043-5.248c3.021,0,4.884,2.454,4.884,6.225c0,3.249-1.09,5.521-2.544,6.93   c-1.136,1.113-2.705,1.794-4.294,1.977c-0.727,0.114-1.364,0.136-1.841,0.114V257.392z M165.702,248.895   c0,1.84,1.114,3.135,2.84,3.135c1.341,0,2.386-0.659,2.908-1.545c0.115-0.181,0.181-0.409,0.181-0.727   c0-2.521-0.93-4.452-3.021-4.452C166.906,245.306,165.702,246.805,165.702,248.895z"/>
	<path style="fill:#64798A;" d="M175.478,258.8v-1.226l1.567-1.522c3.772-3.59,5.476-5.498,5.498-7.724   c0-1.499-0.727-2.886-2.93-2.886c-1.341,0-2.455,0.682-3.136,1.25l-0.636-1.409c1.023-0.863,2.477-1.499,4.181-1.499   c3.18,0,4.521,2.181,4.521,4.294c0,2.726-1.978,4.93-5.089,7.928l-1.182,1.091v0.045h6.634v1.658H175.478z"/>
	<path style="fill:#64798A;" d="M187.616,256.506c0.568,0.364,1.885,0.932,3.271,0.932c2.568,0,3.363-1.636,3.339-2.863   c-0.022-2.067-1.885-2.953-3.816-2.953h-1.114v-1.5h1.114c1.454,0,3.294-0.749,3.294-2.499c0-1.181-0.749-2.226-2.59-2.226   c-1.182,0-2.318,0.523-2.954,0.977l-0.522-1.454c0.771-0.568,2.272-1.136,3.862-1.136c2.908,0,4.225,1.727,4.225,3.521   c0,1.522-0.908,2.817-2.727,3.476v0.046c1.818,0.364,3.295,1.726,3.295,3.794c0,2.362-1.841,4.429-5.385,4.429   c-1.657,0-3.111-0.522-3.838-1L187.616,256.506z"/>
	<path style="fill:#64798A;" d="M208.386,244.033v1.318l-6.428,13.45h-2.068l6.406-13.063v-0.046h-7.224v-1.658H208.386z"/>
	<path style="fill:#64798A;" d="M220.274,251.258c0,5.022-1.863,7.792-5.134,7.792c-2.886,0-4.839-2.704-4.886-7.588   c0-4.952,2.136-7.679,5.135-7.679C218.502,243.783,220.274,246.555,220.274,251.258z M212.254,251.485   c0,3.839,1.18,6.02,2.999,6.02c2.044,0,3.021-2.386,3.021-6.158c0-3.635-0.93-6.02-2.999-6.02   C213.527,245.328,212.254,247.463,212.254,251.485z"/>
</g>
<path style="fill:#D5D6DB;" d="M195.094,196.777c-2.238,1.6-5.35,1.082-6.95-1.156c-1.6-2.238-1.082-5.35,1.156-6.95l56.438-34.217  L195.094,196.777z"/>
<path style="fill:#E1E6E9;" d="M194.477,194.803c-2.238,1.6-5.35,1.082-6.95-1.156c-1.6-2.238-1.082-5.35,1.156-6.95l56.438-34.217  L194.477,194.803z"/>
<g>
</g>
<g>
</g>
<g>
</g>
<g>
</g>
<g>
</g>
<g>
</g>
<g>
</g>
<g>
</g>
<g>
</g>
<g>
</g>
<g>
</g>
<g>
</g>
<g>
</g>
<g>
</g>
<g>
</g>
</svg>
