<?xml version="1.0" encoding="iso-8859-1"?>
<!-- Generator: Adobe Illustrator 19.0.0, SVG Export Plug-In . SVG Version: 6.00 Build 0)  -->
<svg xmlns="http://www.w3.org/2000/svg" xmlns:xlink="http://www.w3.org/1999/xlink" version="1.1" id="Capa_1" x="0px" y="0px" viewBox="0 0 384 384" style="enable-background:new 0 0 384 384;" xml:space="preserve">
<circle style="fill:#EFC84A;" cx="192" cy="192" r="192"/>
<path style="opacity:0.1;enable-background:new    ;" d="M294.84,81.99H89.16c-3.96,0-7.16,3.2-7.16,7.16v205.68  c0,1.88,0.72,3.56,1.92,4.84l0.52,0.52l82.075,82.076C174.859,383.372,183.354,384,192,384c106.039,0,192-85.961,192-192  c0-8.654-0.629-17.157-1.738-25.508L299.48,83.71C298.24,82.63,296.6,81.99,294.84,81.99z"/>
<path style="fill:#3A556A;" d="M294.842,82H178.226c-3.954,0-7.159,3.205-7.159,7.159v205.682c0,3.954,3.206,7.159,7.159,7.159  h116.616c3.953,0,7.158-3.205,7.158-7.159V89.159C302,85.205,298.795,82,294.842,82z"/>
<g>
	<rect x="187.068" y="120.76" style="fill:#EBF0F3;" width="98.932" height="166.352"/>
	<rect x="206.28" y="95.344" style="fill:#EBF0F3;" width="38.948" height="11.632"/>
</g>
<circle style="fill:#FCD462;" cx="258.08" cy="101.16" r="5.816"/>
<circle style="fill:#44C4A1;" cx="274.32" cy="101.16" r="5.816"/>
<circle style="fill:#E56353;" cx="290.52" cy="101.16" r="5.816"/>
<g>
	<rect x="181" y="135.152" style="fill:#64798A;" width="10.1" height="5.128"/>
	<rect x="181" y="157.24" style="fill:#64798A;" width="10.1" height="5.128"/>
	<rect x="254.84" y="157.24" style="fill:#64798A;" width="10.096" height="5.128"/>
	<rect x="181" y="179.304" style="fill:#64798A;" width="10.1" height="5.128"/>
</g>
<rect x="241.72" y="179.304" style="fill:#E56353;" width="10.096" height="5.128"/>
<rect x="264.92" y="179.304" style="fill:#27A2DB;" width="10.096" height="5.128"/>
<g>
	<rect x="181" y="201.4" style="fill:#64798A;" width="10.1" height="5.128"/>
	<rect x="181" y="223.456" style="fill:#64798A;" width="10.1" height="5.128"/>
	<rect x="181" y="245.52" style="fill:#64798A;" width="10.1" height="5.128"/>
	<rect x="181" y="267.612" style="fill:#64798A;" width="10.1" height="5.128"/>
</g>
<rect x="241.72" y="267.612" style="fill:#E56353;" width="10.096" height="5.128"/>
<rect x="266.6" y="267.612" style="fill:#FCD462;" width="10.096" height="5.128"/>
<rect x="203.224" y="135.152" style="fill:#E56353;" width="10.096" height="5.128"/>
<rect x="223.976" y="135.152" style="fill:#64798A;" width="10.096" height="5.128"/>
<g>
	<rect x="244.72" y="135.152" style="fill:#44C4A1;" width="10.096" height="5.128"/>
	<rect x="213.32" y="157.24" style="fill:#44C4A1;" width="26.432" height="5.128"/>
</g>
<rect x="203.224" y="179.304" style="fill:#64798A;" width="29.36" height="5.128"/>
<rect x="212.84" y="201.4" style="fill:#44C4A1;" width="10.096" height="5.128"/>
<rect x="232.6" y="201.4" style="fill:#DC8744;" width="30.404" height="5.128"/>
<rect x="203.224" y="223.456" style="fill:#E56353;" width="10.096" height="5.128"/>
<rect x="223.976" y="223.456" style="fill:#64798A;" width="10.096" height="5.128"/>
<rect x="244.72" y="223.456" style="fill:#FCD462;" width="30.296" height="5.128"/>
<g>
	<rect x="203.224" y="245.52" style="fill:#64798A;" width="10.096" height="5.128"/>
	<rect x="269.96" y="245.52" style="fill:#64798A;" width="10.096" height="5.128"/>
</g>
<rect x="223.976" y="245.52" style="fill:#27A2DB;" width="33.56" height="5.128"/>
<rect x="203.224" y="267.612" style="fill:#DC8744;" width="29.36" height="5.128"/>
<path style="fill:#64798A;" d="M205.775,82H89.159C85.206,82,82,85.205,82,89.159v205.682c0,3.954,3.206,7.159,7.159,7.159h116.616  c3.953,0,7.158-3.205,7.158-7.159V89.159C212.934,85.205,209.728,82,205.775,82z"/>
<rect x="98" y="98" style="fill:#EBF0F3;" width="98.932" height="166.352"/>
<g>
	<rect x="98" y="241.6" style="fill:#3A556A;" width="98.932" height="22.736"/>
	<path style="fill:#3A556A;" d="M147.466,293.106c-6.113,0-11.086-4.976-11.086-11.09c0-6.113,4.973-11.086,11.086-11.086   c6.113,0,11.09,4.972,11.09,11.086C158.555,288.129,153.579,293.106,147.466,293.106z M147.466,274.93   c-3.906,0-7.086,3.18-7.086,7.086c0,3.91,3.18,7.09,7.086,7.09c3.91,0,7.09-3.18,7.09-7.09   C154.555,278.11,151.376,274.93,147.466,274.93z"/>
</g>
<g>
	<path style="fill:#FFFFFF;" d="M116.219,245.814h-10.437c-1.196,0-2.166,0.97-2.166,2.166v10.437c0,1.196,0.97,2.166,2.166,2.166   h10.437c1.196,0,2.166-0.97,2.166-2.166V247.98C118.385,246.784,117.415,245.814,116.219,245.814z"/>
	<path style="fill:#FFFFFF;" d="M140.53,245.814h-10.437c-1.196,0-2.166,0.97-2.166,2.166v10.437c0,1.196,0.97,2.166,2.166,2.166   h10.437c1.196,0,2.166-0.97,2.166-2.166V247.98C142.696,246.784,141.726,245.814,140.53,245.814z"/>
	<path style="fill:#FFFFFF;" d="M164.841,245.814h-10.437c-1.196,0-2.166,0.97-2.166,2.166v10.437c0,1.196,0.97,2.166,2.166,2.166   h10.437c1.196,0,2.166-0.97,2.166-2.166V247.98C167.007,246.784,166.037,245.814,164.841,245.814z"/>
	<path style="fill:#FFFFFF;" d="M189.152,245.814h-10.437c-1.196,0-2.166,0.97-2.166,2.166v10.437c0,1.196,0.97,2.166,2.166,2.166   h10.437c1.196,0,2.166-0.97,2.166-2.166V247.98C191.318,246.784,190.348,245.814,189.152,245.814z"/>
</g>
<path style="fill:#FCD462;" d="M119.538,217.27h-12.902c-1.479,0-2.678,1.199-2.678,2.678v12.901c0,1.479,1.199,2.678,2.678,2.678  h12.902c1.479,0,2.678-1.199,2.678-2.678v-12.901C122.216,218.469,121.017,217.27,119.538,217.27z"/>
<path style="fill:#27A2DB;" d="M142.458,217.27h-12.902c-1.479,0-2.677,1.199-2.677,2.678v12.901c0,1.479,1.198,2.678,2.677,2.678  h12.902c1.479,0,2.678-1.199,2.678-2.678v-12.901C145.135,218.469,143.936,217.27,142.458,217.27z"/>
<path style="fill:#44C4A1;" d="M165.378,217.27h-12.902c-1.479,0-2.678,1.199-2.678,2.678v12.901c0,1.479,1.199,2.678,2.678,2.678  h12.902c1.479,0,2.677-1.199,2.677-2.678v-12.901C168.055,218.469,166.856,217.27,165.378,217.27z"/>
<g>
	<path style="fill:#E56353;" d="M188.297,217.27h-12.902c-1.479,0-2.678,1.199-2.678,2.678v12.901c0,1.479,1.199,2.678,2.678,2.678   h12.902c1.479,0,2.678-1.199,2.678-2.678v-12.901C190.975,218.469,189.776,217.27,188.297,217.27z"/>
	<path style="fill:#E56353;" d="M119.538,191.629h-12.902c-1.479,0-2.678,1.199-2.678,2.678v12.901c0,1.479,1.199,2.678,2.678,2.678   h12.902c1.479,0,2.678-1.199,2.678-2.678v-12.901C122.216,192.828,121.017,191.629,119.538,191.629z"/>
</g>
<path style="fill:#44C4A1;" d="M142.458,192.16h-12.902c-1.479,0-2.677,1.199-2.677,2.678v12.901c0,1.479,1.198,2.678,2.677,2.678  h12.902c1.479,0,2.678-1.199,2.678-2.678v-12.901C145.135,193.36,143.936,192.16,142.458,192.16z"/>
<path style="fill:#FCD462;" d="M165.378,191.629h-12.902c-1.479,0-2.678,1.199-2.678,2.678v12.901c0,1.479,1.199,2.678,2.678,2.678  h12.902c1.479,0,2.677-1.199,2.677-2.678v-12.901C168.055,192.828,166.856,191.629,165.378,191.629z"/>
<path style="fill:#27A2DB;" d="M188.297,191.629h-12.902c-1.479,0-2.678,1.199-2.678,2.678v12.901c0,1.479,1.199,2.678,2.678,2.678  h12.902c1.479,0,2.678-1.199,2.678-2.678v-12.901C190.975,192.828,189.776,191.629,188.297,191.629z"/>
<rect x="103.444" y="110.568" style="fill:#FFFFFF;" width="71.152" height="14.088"/>
<rect x="174.596" y="110.584" style="fill:#64798A;" width="16.888" height="14.088"/>
<g>
</g>
<g>
</g>
<g>
</g>
<g>
</g>
<g>
</g>
<g>
</g>
<g>
</g>
<g>
</g>
<g>
</g>
<g>
</g>
<g>
</g>
<g>
</g>
<g>
</g>
<g>
</g>
<g>
</g>
</svg>
