<?xml version="1.0" encoding="iso-8859-1"?>
<!-- Generator: Adobe Illustrator 19.0.0, SVG Export Plug-In . SVG Version: 6.00 Build 0)  -->
<svg xmlns="http://www.w3.org/2000/svg" xmlns:xlink="http://www.w3.org/1999/xlink" version="1.1" id="Capa_1" x="0px" y="0px" viewBox="0 0 384 384" style="enable-background:new 0 0 384 384;" xml:space="preserve">
<circle style="fill:#EFC84A;" cx="192" cy="192" r="192"/>
<path style="opacity:0.1;enable-background:new    ;" d="M223.8,83.91c-1.12-1.2-2.68-1.92-4.4-1.92h-54.8c-3.32,0-6,2.68-6,6  v127.44l-18.8-18.8h-28.6v28.6l12.36,12.36c4.76,20.04,18.08,36.8,35.96,46.12h-37.48l-11.48-11.48H82v28.56l81.033,81.033  c9.448,1.43,19.12,2.177,28.967,2.177c90.023,0,165.544-61.968,186.313-145.565L223.8,83.95V83.91z"/>
<path style="fill:#3A556A;" d="M273.43,272.212v11.504h-48.932c21.428-11.188,36.361-33.051,37.8-58.5h10.488v-28.57h-28.57v28.57  h10.082c-1.77,27.746-21.704,50.558-48.012,56.751v-8.536h-28.57v8.536c-26.308-6.193-46.242-29.005-48.012-56.751h10.082v-28.57  h-28.57v28.57h10.488c1.439,25.449,16.372,47.312,37.8,58.5H110.57v-11.504H82v28.566h28.57v-9.062h67.144v10.281h28.57v-10.281  h67.144v9.062H302v-28.566H273.43z M252.215,217.216v-12.57h12.57v12.57H252.215z M119.215,217.216v-12.57h12.57v12.57H119.215z   M102.57,292.778H90v-12.566h12.57V292.778z M198.285,293.997h-12.57V281.43h12.57V293.997z M294,292.778h-12.57v-12.566H294  V292.778z"/>
<rect x="203.124" y="123.256" style="fill:#CE412D;" width="22.264" height="94.244"/>
<rect x="180.856" y="123.256" style="fill:#D15241;" width="22.264" height="94.244"/>
<rect x="158.612" y="123.256" style="fill:#E56353;" width="22.264" height="94.244"/>
<rect x="158.604" y="115.384" style="fill:#EBF0F3;" width="66.792" height="7.868"/>
<path style="fill:#64798A;" d="M219.414,82.004h-16.281v33.387h22.263V87.985C225.396,84.682,222.718,82.004,219.414,82.004z"/>
<rect x="180.88" y="82.004" style="fill:#3A556A;" width="22.264" height="33.388"/>
<path style="fill:#2F4859;" d="M164.587,82.004c-3.304,0-5.982,2.678-5.982,5.982v27.405h22.264V82.004H164.587z"/>
<path style="fill:#FCD462;" d="M158.604,217.504l20.455,37.718c3.273-3.398,7.85-5.532,12.941-5.532c5.09,0,9.666,2.134,12.94,5.532  l20.455-37.718H158.604z"/>
<path style="fill:#64798A;" d="M192.001,249.691c-5.092,0-9.668,2.134-12.941,5.532l9.882,18.222c1.316,2.428,4.802,2.428,6.118,0  l9.881-18.222C201.667,251.825,197.091,249.691,192.001,249.691z"/>
<g>
</g>
<g>
</g>
<g>
</g>
<g>
</g>
<g>
</g>
<g>
</g>
<g>
</g>
<g>
</g>
<g>
</g>
<g>
</g>
<g>
</g>
<g>
</g>
<g>
</g>
<g>
</g>
<g>
</g>
</svg>
