<?xml version="1.0" encoding="iso-8859-1"?>
<!-- Generator: Adobe Illustrator 19.0.0, SVG Export Plug-In . SVG Version: 6.00 Build 0)  -->
<svg xmlns="http://www.w3.org/2000/svg" xmlns:xlink="http://www.w3.org/1999/xlink" version="1.1" id="Capa_1" x="0px" y="0px" viewBox="0 0 384 384" style="enable-background:new 0 0 384 384;" xml:space="preserve">
<circle style="fill:#EFC84A;" cx="192" cy="192" r="192"/>
<path style="opacity:0.1;enable-background:new    ;" d="M299,84.429c-1.64-1.52-3.8-2.44-6.2-2.44H91.2c-5.08,0-9.2,4.12-9.2,9.24  v201.56c0,3,1.4,5.64,3.6,7.32l82.336,82.336C175.825,383.433,183.844,384,192,384c106.039,0,192-85.961,192-192  c0-8.18-0.57-16.223-1.564-24.134L299.92,85.35C299.6,84.99,299.32,84.67,299,84.429z"/>
<path style="fill:#E56353;" d="M292.782,82H91.219C86.127,82,82,86.127,82,91.218V129.5h220V91.218  C302,86.127,297.873,82,292.782,82z"/>
<path style="fill:#D5D6DB;" d="M82,129.5v163.282c0,5.091,4.127,9.218,9.219,9.218h201.564c5.091,0,9.218-4.127,9.218-9.218V129.5  H82z"/>
<rect x="82" y="129.48" style="fill:#E1E6E9;" width="220" height="7.076"/>
<path style="fill:#EBF0F3;" d="M82,136.576v148.206c0,5.091,4.127,9.218,9.219,9.218h201.564c5.091,0,9.218-4.127,9.218-9.218  V136.576H82z"/>
<rect x="145.68" y="215.288" style="fill:#3A556A;" width="14.888" height="47.036"/>
<polygon style="fill:#64798A;" points="126.824,169.451 126.824,183.4 145.693,183.4 145.693,215.288 160.583,215.288   160.583,169.451 "/>
<path style="fill:#3A556A;" d="M236.383,240.472c-3.591,6.326-9.278,9.494-17.074,9.494c-7.797,0-13.527-3.19-17.204-9.57  c-3.676-6.368-5.514-14.738-5.514-25.108h-15.148c0,14.619,3.146,26.286,9.428,35.012c6.293,8.726,15.766,13.084,28.438,13.084  c12.662,0,22.145-4.358,28.439-13.084c6.282-8.726,9.428-20.394,9.428-35.012h-15.408  C241.768,225.744,239.973,234.136,236.383,240.472z"/>
<path style="fill:#64798A;" d="M219.308,167.192c-12.673,0-22.145,4.357-28.438,13.084c-6.282,8.726-9.428,20.394-9.428,35.013  h15.148c0-10.359,1.839-18.74,5.514-25.108c3.677-6.38,9.407-9.57,17.204-9.57c7.796,0,13.484,3.168,17.074,9.494  c3.59,6.336,5.385,14.738,5.385,25.184h15.408c0-14.619-3.146-26.287-9.428-35.013C241.453,171.549,231.971,167.192,219.308,167.192  z"/>
<circle style="fill:#EBF0F3;" cx="118.328" cy="105.76" r="9.696"/>
<circle style="fill:#D15241;" cx="118.332" cy="105.76" r="6.8"/>
<circle style="fill:#EBF0F3;" cx="265.68" cy="105.76" r="9.696"/>
<circle style="fill:#D15241;" cx="265.68" cy="105.76" r="6.8"/>
<g>
</g>
<g>
</g>
<g>
</g>
<g>
</g>
<g>
</g>
<g>
</g>
<g>
</g>
<g>
</g>
<g>
</g>
<g>
</g>
<g>
</g>
<g>
</g>
<g>
</g>
<g>
</g>
<g>
</g>
</svg>
