<?xml version="1.0" encoding="iso-8859-1"?>
<!-- Generator: Adobe Illustrator 19.0.0, SVG Export Plug-In . SVG Version: 6.00 Build 0)  -->
<svg xmlns="http://www.w3.org/2000/svg" xmlns:xlink="http://www.w3.org/1999/xlink" version="1.1" id="Capa_1" x="0px" y="0px" viewBox="0 0 384 384" style="enable-background:new 0 0 384 384;" xml:space="preserve">
<circle style="fill:#E05B49;" cx="192" cy="192" r="192"/>
<path style="opacity:0.1;enable-background:new    ;" d="M82,108.59v166.84l108.534,108.534c0.491,0.004,0.975,0.037,1.466,0.037  c106.039,0,192-85.961,192-192c0-0.485-0.033-0.962-0.037-1.447L302,108.59H82z"/>
<rect x="82" y="108.56" style="fill:#FFFFFF;" width="220" height="166.852"/>
<rect x="97.16" y="123.756" style="fill:#44C4A1;" width="189.64" height="136.48"/>
<polygon style="fill:#FCD462;" points="97.178,230.469 153.55,174.096 239.673,260.22 97.178,260.243 "/>
<polygon style="fill:#DC8744;" points="239.673,260.243 266.344,260.243 190.315,210.861 "/>
<polygon style="fill:#F6C358;" points="286.818,181.134 245.342,151.407 190.315,210.861 266.344,260.243 286.818,260.243 "/>
<circle style="fill:#FFFFFF;" cx="130.62" cy="147.96" r="12.5"/>
<g>
</g>
<g>
</g>
<g>
</g>
<g>
</g>
<g>
</g>
<g>
</g>
<g>
</g>
<g>
</g>
<g>
</g>
<g>
</g>
<g>
</g>
<g>
</g>
<g>
</g>
<g>
</g>
<g>
</g>
</svg>
