<?xml version="1.0" encoding="iso-8859-1"?>
<!-- Generator: Adobe Illustrator 19.0.0, SVG Export Plug-In . SVG Version: 6.00 Build 0)  -->
<svg xmlns="http://www.w3.org/2000/svg" xmlns:xlink="http://www.w3.org/1999/xlink" version="1.1" id="Capa_1" x="0px" y="0px" viewBox="0 0 384 384" style="enable-background:new 0 0 384 384;" xml:space="preserve">
<circle style="fill:#EFC84A;" cx="192" cy="192" r="192"/>
<path style="opacity:0.1;enable-background:new    ;" d="M300.56,83.75c-0.96-1.08-2.36-1.76-3.92-1.76H87.36  c-2.96,0-5.36,2.4-5.36,5.36v209.32c0,1.68,0.76,3.16,2,4.12l81.324,81.324C174.047,383.327,182.943,384,192,384  c106.039,0,192-85.961,192-192c0-9.073-0.675-17.985-1.892-26.722L300.76,83.95L300.56,83.75z"/>
<path style="fill:#64798A;" d="M296.654,82H87.346C84.393,82,82,84.394,82,87.346v35.274h220V87.346  C302,84.394,299.606,82,296.654,82z"/>
<path style="fill:#EBF0F3;" d="M129.08,122.62c-1.125,0-2.125-0.718-2.486-1.784l-2.943-8.703c-0.36-1.066-1.362-1.784-2.486-1.784  H93.969c-1.127,0-2.127,0.718-2.488,1.784l-2.942,8.703c-0.361,1.066-1.361,1.784-2.488,1.784H82v159.247v14.787  c0,2.952,2.392,5.346,5.346,5.346h209.308c2.951,0,5.346-2.394,5.346-5.346v-14.787V122.62H129.08z"/>
<circle style="fill:#FCD462;" cx="245.52" cy="96.32" r="6.04"/>
<circle style="fill:#44C4A1;" cx="267.08" cy="96.32" r="6.04"/>
<circle style="fill:#E56353;" cx="288.6" cy="96.32" r="6.04"/>
<g>
	<path style="fill:#EBF0F3;" d="M130.068,118.621h37.274l-2.194-6.488c-0.361-1.067-1.361-1.784-2.487-1.784h-35.486   c0.077,0.176,0.202,0.321,0.265,0.506L130.068,118.621z"/>
	<rect x="89.988" y="90.272" style="fill:#EBF0F3;" width="140.48" height="12.08"/>
</g>
<path style="fill:#E56353;" d="M170.999,169.042v89.387h-17.844v-89.387h-32.062V152.71h81.976v16.332H170.999z"/>
<path style="fill:#27A2DB;" d="M242.012,210.411v29.536c0,2.774,0.729,4.978,2.187,6.62c1.458,1.642,3.503,2.461,6.125,2.461  c2.628,0,5.142-1.274,7.549-3.828l5.035,8.642c-4.306,3.865-9.064,5.798-14.279,5.798c-5.216,0-9.663-1.805-13.347-5.416  c-3.684-3.611-5.521-8.476-5.521-14.604v-29.208h-7.329v-9.844h7.329v-18.268h12.251v18.268h15.313v9.844H242.012z"/>
<g>
</g>
<g>
</g>
<g>
</g>
<g>
</g>
<g>
</g>
<g>
</g>
<g>
</g>
<g>
</g>
<g>
</g>
<g>
</g>
<g>
</g>
<g>
</g>
<g>
</g>
<g>
</g>
<g>
</g>
</svg>
