<?xml version="1.0" encoding="iso-8859-1"?>
<!-- Generator: Adobe Illustrator 19.0.0, SVG Export Plug-In . SVG Version: 6.00 Build 0)  -->
<svg xmlns="http://www.w3.org/2000/svg" xmlns:xlink="http://www.w3.org/1999/xlink" version="1.1" id="Capa_1" x="0px" y="0px" viewBox="0 0 384 384" style="enable-background:new 0 0 384 384;" xml:space="preserve">
<g>
	<defs>
		<filter id="Adobe_OpacityMaskFilter" filterUnits="userSpaceOnUse" x="133.24" y="217.12" width="117.496" height="3.188">
			<feColorMatrix type="matrix" values="1 0 0 0 0  0 1 0 0 0  0 0 1 0 0  0 0 0 1 0"/>
		</filter>
	</defs>
	<mask maskUnits="userSpaceOnUse" x="133.24" y="217.12" width="117.496" height="3.188" id="SVGID_4_">
	</mask>
	
		<linearGradient id="SVGID_1_" gradientUnits="userSpaceOnUse" x1="-36.753" y1="483.97" x2="-36.753" y2="483.17" gradientTransform="matrix(4 0 0 -4 339 2153)">
		<stop offset="0" style="stop-color:#FFFFFF"/>
		<stop offset="1" style="stop-color:#000000"/>
	</linearGradient>
	<rect x="133.24" y="217.12" style="mask:url(#SVGID_4_);fill:url(#SVGID_1_);" width="117.496" height="3.188"/>
</g>
<circle style="fill:#EFC84A;" cx="192" cy="192" r="192"/>
<path style="opacity:0.1;enable-background:new    ;" d="M383.91,195.579L273.36,85.03c-1.76-1.88-4.24-3.04-7-3.04H117.64  c-5.32,0-9.68,4.36-9.68,9.68v148.72c0,5.36,4.36,9.681,9.68,9.681h24.64l0.84,51.92l79.544,79.544  C312.974,367.033,382.184,289.565,383.91,195.579z"/>
<path style="fill:#64798A;" d="M107.964,209.116v31.272c0,5.349,4.336,9.685,9.686,9.685h148.702c5.348,0,9.685-4.336,9.685-9.685  v-31.272H107.964z"/>
<path style="fill:#EBF0F3;" d="M266.352,82H117.649c-5.349,0-9.686,4.336-9.686,9.686v117.43h34.711l24.409-17.878  c-12.486-8.151-20.753-22.222-20.753-38.245c0-25.222,20.447-45.669,45.669-45.669c25.222,0,45.669,20.446,45.669,45.669  c0,16.492-8.772,30.9-21.876,38.927l23.477,17.196h36.766V91.686C276.036,86.336,271.7,82,266.352,82z"/>
<path style="fill:#2D93BA;" d="M167.084,191.238l-24.409,17.878h32.277l5.435-12.002  C175.602,195.858,171.119,193.872,167.084,191.238z"/>
<path style="fill:#D15241;" d="M192,198.662c-4.02,0-7.898-0.572-11.613-1.547l-5.435,12.002h32.042l-5.221-11.528  C198.621,198.275,195.357,198.662,192,198.662z"/>
<path style="fill:#F6C358;" d="M215.793,191.92c-4.227,2.59-8.891,4.526-13.879,5.632c-0.048,0.011-0.093,0.026-0.142,0.036  l5.221,11.528h0.235h32.042L215.793,191.92z"/>
<path style="fill:#E1E6E9;" d="M186.206,184.266h9.534h0.07h9.534l10.449,7.653c13.104-8.027,21.876-22.434,21.876-38.927  c0-25.222-20.447-45.669-45.669-45.669c-25.222,0-45.669,20.446-45.669,45.669c0,16.022,8.268,30.094,20.753,38.245l9.517-6.971  H186.206z"/>
<path style="fill:#1C75A1;" d="M186.206,184.266h-9.605l-9.517,6.971c4.035,2.635,8.518,4.62,13.303,5.877L186.206,184.266z"/>
<path style="fill:#CE412D;" d="M186.206,184.266l-5.819,12.848c3.715,0.976,7.593,1.547,11.613,1.547  c3.357,0,6.621-0.386,9.773-1.074l-6.033-13.321H186.206z"/>
<path style="fill:#DC8744;" d="M205.344,184.266h-9.534h-0.07l6.033,13.321c0.048-0.01,0.094-0.026,0.142-0.036  c4.988-1.106,9.652-3.042,13.879-5.632L205.344,184.266z"/>
<rect x="176.56" y="82" style="fill:#27A2DB;" width="9.604" height="102.268"/>
<rect x="186.16" y="82" style="fill:#E56353;" width="9.604" height="102.268"/>
<rect x="195.704" y="82" style="fill:#FCD462;" width="9.604" height="102.268"/>
<circle style="fill:#FFFFFF;" cx="192" cy="148.36" r="45.668"/>
<path style="fill:#EBF0F3;" d="M191.999,183.627c-18.875,0-34.232-15.826-34.232-35.28s15.358-35.28,34.232-35.28  c18.877,0,34.235,15.826,34.235,35.28S210.876,183.627,191.999,183.627z"/>
<ellipse style="fill:#3A556A;" cx="192" cy="148.36" rx="26.364" ry="27.172"/>
<ellipse style="fill:#6E8696;" cx="192" cy="148.36" rx="18.496" ry="19.064"/>
<path style="fill:#64798A;" d="M201.139,131.796c4.38,13.259-2.499,30.742-20.622,30.742c-0.3,0-0.577-0.034-0.871-0.043  c3.279,3.044,7.602,4.915,12.352,4.915c10.199,0,18.498-8.552,18.498-19.063C210.497,141.264,206.719,135.082,201.139,131.796z"/>
<ellipse style="fill:#27A2DB;" cx="203.204" cy="140.56" rx="3.748" ry="3.86"/>
<ellipse style="fill:#D5D6DB;" cx="182.72" cy="156.44" rx="2.84" ry="2.928"/>
<circle style="fill:#E56353;" cx="123.82" cy="100.44" r="6.88"/>
<g>
	<polygon style="fill:#3A556A;" points="133.253,223.492 133.253,225.387 140.63,225.387 141.198,223.492  "/>
	<polygon style="fill:#3A556A;" points="243.37,225.387 250.747,225.387 250.747,223.492 242.802,223.492  "/>
</g>
<g>
	<polygon style="fill:#EBF0F3;" points="240.894,217.118 241.462,219.012 242.802,223.492 250.747,223.492 250.747,219.012    250.747,217.118  "/>
	<polygon style="fill:#EBF0F3;" points="133.253,217.118 133.253,219.012 133.253,223.492 141.198,223.492 142.538,219.012    143.106,217.118  "/>
</g>
<polygon style="fill:#2F4859;" points="242.802,223.492 141.198,223.492 140.63,225.387 243.37,225.387 "/>
<polygon style="fill:#E1E6E9;" points="241.462,219.012 240.894,217.118 143.106,217.118 142.538,219.012 141.198,223.492   242.802,223.492 "/>
<rect x="143.108" y="217.12" style="fill:#FFFFFF;" width="97.788" height="84.88"/>
<rect x="152.28" y="217.12" style="fill:#54C5ED;" width="79.452" height="75.716"/>
<polygon style="fill:#3EA69B;" points="184.267,217.118 209.062,235.994 231.725,228.536 231.725,217.118 "/>
<polygon style="fill:#31978C;" points="179.346,255.409 231.725,292.834 231.725,221.186 "/>
<circle style="fill:#FCD462;" cx="170.964" cy="236.24" r="10.68"/>
<linearGradient id="SVGID_3_" gradientUnits="userSpaceOnUse" x1="-36.753" y1="483.97" x2="-36.753" y2="483.17" gradientTransform="matrix(4 0 0 -4 339 2153)">
	<stop offset="0" style="stop-color:#2F4859"/>
	<stop offset="1" style="stop-color:#2F4859"/>
</linearGradient>
<rect x="133.24" y="217.12" style="fill:url(#SVGID_3_);" width="117.496" height="3.188"/>
<g>
</g>
<g>
</g>
<g>
</g>
<g>
</g>
<g>
</g>
<g>
</g>
<g>
</g>
<g>
</g>
<g>
</g>
<g>
</g>
<g>
</g>
<g>
</g>
<g>
</g>
<g>
</g>
<g>
</g>
</svg>
