<?xml version="1.0" encoding="iso-8859-1"?>
<!-- Generator: Adobe Illustrator 19.0.0, SVG Export Plug-In . SVG Version: 6.00 Build 0)  -->
<svg xmlns="http://www.w3.org/2000/svg" xmlns:xlink="http://www.w3.org/1999/xlink" version="1.1" id="Capa_1" x="0px" y="0px" viewBox="0 0 384 384" style="enable-background:new 0 0 384 384;" xml:space="preserve">
<circle style="fill:#45B39C;" cx="192" cy="192" r="192"/>
<path style="opacity:0.1;enable-background:new    ;" d="M377.176,242.726L237.2,102.75c-1.92-2.24-4-4.32-6.24-6.24  c-10.44-9.04-24.04-14.52-38.96-14.52c-32.92,0-59.6,26.68-59.6,59.6c0,17.96,17.8,46.32,33.92,68.36h-57.36L92,267.87l-6.44,22.04  L82,301.99l79.557,79.583C171.475,383.154,181.637,384,192,384C280.473,384,354.923,324.14,377.176,242.726z"/>
<polygon style="fill:#44C4A1;" points="293.934,274.468 275.032,209.951 258.008,209.951 204.739,234.645 "/>
<polygon style="fill:#EBF0F3;" points="108.968,209.951 91.996,267.881 223.925,209.951 "/>
<polygon style="fill:#64798A;" points="85.544,289.902 82,302 302,302 300.645,297.375 186.05,243.309 "/>
<polygon style="fill:#FCD462;" points="204.739,234.645 258.008,209.951 223.925,209.951 91.996,267.881 85.544,289.902   186.05,243.309 300.645,297.375 293.934,274.468 "/>
<path style="fill:#E56353;" d="M132.414,141.586c0,32.908,59.586,100.624,59.586,100.624V82  C159.092,82,132.414,108.678,132.414,141.586z"/>
<path style="fill:#D15241;" d="M192,82v160.209c0,0,59.586-67.715,59.586-100.624C251.586,108.678,224.908,82,192,82z"/>
<circle style="fill:#EBF0F3;" cx="192" cy="141.6" r="39.536"/>
<g>
</g>
<g>
</g>
<g>
</g>
<g>
</g>
<g>
</g>
<g>
</g>
<g>
</g>
<g>
</g>
<g>
</g>
<g>
</g>
<g>
</g>
<g>
</g>
<g>
</g>
<g>
</g>
<g>
</g>
</svg>
