<?xml version="1.0" encoding="iso-8859-1"?>
<!-- Generator: Adobe Illustrator 19.0.0, SVG Export Plug-In . SVG Version: 6.00 Build 0)  -->
<svg xmlns="http://www.w3.org/2000/svg" xmlns:xlink="http://www.w3.org/1999/xlink" version="1.1" id="Capa_1" x="0px" y="0px" viewBox="0 0 384 384" style="enable-background:new 0 0 384 384;" xml:space="preserve">
<circle style="fill:#EFC84A;" cx="192" cy="192" r="192"/>
<path style="opacity:0.1;enable-background:new    ;" d="M379.603,232.845L250.291,103.534l-0.001,0.002  c-2.137-2.162-5.096-3.506-8.37-3.506h-12.06l-16.856-16.857c-0.06-0.065-0.121-0.124-0.186-0.185l-0.1-0.1l-0.021,0.018  c-0.637-0.55-1.438-0.916-2.337-0.916h-36.72c-2,0-3.64,1.64-3.64,3.68v14.36h-27.92c-6.52,0-11.8,5.32-11.8,11.84v178.32  c0,3.386,1.443,6.416,3.724,8.567l-0.008,0.014l83.494,83.493C297.939,371.586,362.635,311.134,379.603,232.845z"/>
<path style="fill:#64798A;" d="M210.351,82h-36.702c-2.019,0-3.656,1.637-3.656,3.656v14.388h44.014V85.656  C214.007,83.637,212.37,82,210.351,82z"/>
<g>
	<path style="fill:#EBF0F3;" d="M130.272,290.175c0,6.531,5.295,11.825,11.825,11.825h99.806c6.531,0,11.825-5.294,11.825-11.825   v-4.153H130.272V290.175z"/>
	<path style="fill:#EBF0F3;" d="M253.728,111.869c0-6.531-5.294-11.825-11.825-11.825h-99.806c-6.53,0-11.825,5.294-11.825,11.825   v4.153h123.456V111.869z"/>
</g>
<rect x="130.272" y="116.04" style="fill:#64798A;" width="123.456" height="170"/>
<rect x="200.84" y="116.04" style="fill:#3A556A;" width="25" height="170"/>
<polygon style="fill:#FCD462;" points="169.057,205.088 196.743,165.203 196.743,196.956 214.943,196.956 187.256,236.841   187.256,205.088 "/>
<g>
</g>
<g>
</g>
<g>
</g>
<g>
</g>
<g>
</g>
<g>
</g>
<g>
</g>
<g>
</g>
<g>
</g>
<g>
</g>
<g>
</g>
<g>
</g>
<g>
</g>
<g>
</g>
<g>
</g>
</svg>
