<svg id="Capa_1" enable-background="new 0 0 512.196 512.196" height="512" viewBox="0 0 512.196 512.196" width="512" xmlns="http://www.w3.org/2000/svg"><g><g><g><path d="m147.607 147.607c-7.521 7.521-19.715 7.521-27.236 0l-40.058-40.058c-7.521-7.521-7.521-19.715 0-27.236 7.521-7.521 19.715-7.521 27.236 0l40.058 40.058c7.521 7.521 7.521 19.715 0 27.236z" fill="#ee6161"/></g><g><path d="m431.884 431.884c-7.521 7.521-19.715 7.521-27.236 0l-40.058-40.058c-7.521-7.521-7.521-19.715 0-27.236 7.521-7.521 19.715-7.521 27.236 0l40.058 40.058c7.52 7.521 7.52 19.715 0 27.236z" fill="#ee6161"/></g></g><g><g><path d="m102.668 256.098c0 10.636-8.622 19.259-19.259 19.259h-56.65c-10.636 0-19.259-8.622-19.259-19.259 0-10.636 8.622-19.259 19.259-19.259h56.651c10.636.001 19.258 8.623 19.258 19.259z" fill="#ee6161"/></g><g><path d="m504.696 256.098c0 10.636-8.622 19.259-19.259 19.259h-56.651c-10.636 0-19.259-8.622-19.259-19.259 0-10.636 8.622-19.259 19.259-19.259h56.651c10.637.001 19.259 8.623 19.259 19.259z" fill="#ee6161"/></g></g><g><g><path d="m147.607 364.59c7.521 7.521 7.521 19.715 0 27.236l-40.058 40.058c-7.521 7.521-19.715 7.521-27.236 0-7.521-7.521-7.521-19.715 0-27.236l40.058-40.058c7.521-7.521 19.715-7.521 27.236 0z" fill="#ee6161"/></g><g><path d="m431.883 80.313c7.521 7.521 7.521 19.715 0 27.236l-40.058 40.058c-7.521 7.521-19.715 7.521-27.236 0-7.521-7.521-7.521-19.715 0-27.236l40.058-40.058c7.522-7.521 19.716-7.521 27.236 0z" fill="#ee6161"/></g></g><g><g><path d="m256.098 102.668c-10.636 0-19.259-8.622-19.259-19.259v-56.65c0-10.636 8.622-19.259 19.259-19.259 10.636 0 19.259 8.622 19.259 19.259v56.651c0 10.636-8.623 19.258-19.259 19.258z" fill="#ee6161"/></g><g><path d="m256.098 504.696c-10.636 0-19.259-8.622-19.259-19.259v-56.651c0-10.636 8.622-19.259 19.259-19.259 10.636 0 19.259 8.622 19.259 19.259v56.651c0 10.637-8.623 19.259-19.259 19.259z" fill="#ee6161"/></g></g><g><g><path d="m275.358 26.758v56.65c0 10.64-8.62 19.26-19.26 19.26-3.75 0-7.25-1.07-10.2-2.92 5.45-3.4 9.07-9.45 9.07-16.34v-56.65c0-5.32-2.16-10.14-5.64-13.62-1.03-1.03-2.18-1.94-3.43-2.72 2.95-1.85 6.45-2.92 10.2-2.92 5.32 0 10.14 2.16 13.62 5.64s5.64 8.3 5.64 13.62z" fill="#e94444"/></g><g><path d="m236.84 428.786v56.65c0 10.64 8.62 19.26 19.26 19.26 3.75 0 7.25-1.07 10.2-2.92-5.45-3.4-9.07-9.45-9.07-16.34v-56.65c0-5.32 2.16-10.13 5.64-13.62 1.03-1.03 2.18-1.95 3.43-2.72-2.95-1.85-6.45-2.92-10.2-2.92-5.32 0-10.14 2.15-13.62 5.64s-5.64 8.3-5.64 13.62z" fill="#e94444"/></g></g><g><g><path d="m107.55 80.312 40.058 40.058c7.524 7.524 7.524 19.714 0 27.238-2.652 2.652-5.883 4.37-9.277 5.148 1.45-6.258-.269-13.096-5.141-17.967l-40.058-40.059c-3.762-3.762-8.697-5.643-13.619-5.643-1.457 0-2.913.17-4.349.502.778-3.394 2.496-6.626 5.148-9.277 3.762-3.762 8.698-5.643 13.619-5.643 4.922 0 9.857 1.881 13.619 5.643z" fill="#e94444"/></g><g><path d="m364.59 391.825 40.058 40.058c7.524 7.524 19.714 7.524 27.238 0 2.652-2.652 4.37-5.883 5.148-9.277-6.258 1.45-13.096-.269-17.967-5.141l-40.058-40.058c-3.762-3.762-5.636-8.69-5.643-13.619 0-1.457.163-2.92.502-4.349-3.394.778-6.626 2.496-9.277 5.148-3.762 3.762-5.65 8.69-5.643 13.619.006 4.929 1.88 9.857 5.642 13.619z" fill="#e94444"/></g></g><g><g><path d="m26.76 236.838h56.65c10.64 0 19.26 8.62 19.26 19.26 0 3.75-1.07 7.25-2.92 10.2-3.4-5.45-9.45-9.07-16.34-9.07h-56.65c-5.32 0-10.14 2.16-13.62 5.64-1.03 1.03-1.94 2.18-2.72 3.43-1.85-2.95-2.92-6.45-2.92-10.2 0-5.32 2.16-10.14 5.64-13.62s8.3-5.64 13.62-5.64z" fill="#e94444"/></g><g><path d="m428.788 275.356h56.65c10.64 0 19.26-8.62 19.26-19.26 0-3.75-1.07-7.25-2.92-10.2-3.4 5.45-9.45 9.07-16.34 9.07h-56.65c-5.32 0-10.13-2.16-13.62-5.64-1.03-1.03-1.95-2.18-2.72-3.43-1.85 2.95-2.92 6.45-2.92 10.2 0 5.32 2.15 10.14 5.64 13.62s8.3 5.64 13.62 5.64z" fill="#e94444"/></g></g><g><g><path d="m80.313 404.646 40.058-40.058c7.524-7.524 19.714-7.524 27.238 0 2.652 2.652 4.37 5.883 5.148 9.277-6.258-1.45-13.096.269-17.967 5.141l-40.058 40.058c-3.762 3.762-5.643 8.697-5.643 13.619 0 1.457.17 2.913.502 4.349-3.394-.778-6.626-2.496-9.277-5.148-3.762-3.762-5.643-8.698-5.643-13.619 0-4.922 1.881-9.857 5.642-13.619z" fill="#e94444"/></g><g><path d="m391.827 147.606 40.058-40.058c7.524-7.524 7.524-19.714 0-27.238-2.652-2.652-5.883-4.37-9.277-5.148 1.45 6.258-.269 13.096-5.141 17.967l-40.058 40.058c-3.762 3.762-8.69 5.636-13.619 5.643-1.457 0-2.92-.163-4.349-.502.778 3.394 2.496 6.626 5.148 9.277 3.762 3.762 8.69 5.65 13.619 5.643 4.928-.006 9.857-1.88 13.619-5.642z" fill="#e94444"/></g></g><g><g><g><path d="m256.098 301.728c12.035 0 21.791 9.756 21.791 21.791v20.534c0 12.035-9.756 21.791-21.791 21.791-12.035 0-21.791-9.756-21.791-21.791v-20.534c.001-12.035 9.757-21.791 21.791-21.791z" fill="#fee45a"/></g><g><path d="m256.098 146.353c12.035 0 21.791 9.756 21.791 21.791v20.534c0 12.035-9.756 21.791-21.791 21.791-12.035 0-21.791-9.756-21.791-21.791v-20.534c.001-12.035 9.757-21.791 21.791-21.791z" fill="#fee45a"/></g></g></g><g><g><path d="m234.308 344.048v-20.53c0-12.04 9.76-21.79 21.79-21.79 3.74 0 7.25.94 10.33 2.6-6.82 3.68-11.46 10.89-11.46 19.19v20.53c0 8.29 4.64 15.51 11.46 19.19-3.08 1.66-6.59 2.6-10.33 2.6-12.03 0-21.79-9.76-21.79-21.79z" fill="#fed402"/></g><g><path d="m277.888 168.148v20.53c0 12.03-9.76 21.79-21.79 21.79-3.74 0-7.25-.94-10.33-2.6 6.82-3.68 11.46-10.9 11.46-19.19v-20.53c0-8.3-4.64-15.51-11.46-19.19 3.08-1.66 6.59-2.6 10.33-2.6 12.03 0 21.79 9.75 21.79 21.79z" fill="#fed402"/></g></g><g><g><g><path d="m210.469 256.098c0 12.035-9.756 21.791-21.791 21.791h-20.534c-12.035 0-21.791-9.756-21.791-21.791 0-12.035 9.756-21.791 21.791-21.791h20.534c12.035.001 21.791 9.757 21.791 21.791z" fill="#fee45a"/></g><g><path d="m365.843 256.098c0 12.035-9.756 21.791-21.791 21.791h-20.534c-12.035 0-21.791-9.756-21.791-21.791 0-12.035 9.756-21.791 21.791-21.791h20.534c12.035.001 21.791 9.757 21.791 21.791z" fill="#fee45a"/></g></g></g><g><g><path d="m168.148 234.308h20.53c12.04 0 21.79 9.76 21.79 21.79 0 3.74-.94 7.25-2.6 10.33-3.68-6.82-10.89-11.46-19.19-11.46h-20.53c-8.29 0-15.51 4.64-19.19 11.46-1.66-3.08-2.6-6.59-2.6-10.33 0-12.03 9.76-21.79 21.79-21.79z" fill="#fed402"/></g><g><path d="m344.048 277.888h-20.53c-12.03 0-21.79-9.76-21.79-21.79 0-3.74.94-7.25 2.6-10.33 3.68 6.82 10.9 11.46 19.19 11.46h20.53c8.3 0 15.51-4.64 19.19-11.46 1.66 3.08 2.6 6.59 2.6 10.33 0 12.03-9.75 21.79-21.79 21.79z" fill="#fed402"/></g></g><g><path d="m468.309 128.206c-4.086 9.403-11.248 21.448-23.246 30.244-2.83 2.075-2.83 6.367 0 8.442 11.998 8.796 19.16 20.841 23.246 30.244 1.838 4.229 7.849 4.229 9.687 0 4.086-9.403 11.248-21.448 23.246-30.244 2.83-2.075 2.83-6.367 0-8.442-11.998-8.796-19.16-20.841-23.246-30.244-1.838-4.228-7.85-4.228-9.687 0z" fill="#57be92"/></g><g><path d="m501.245 166.889c-12 8.8-19.168 20.847-23.249 30.248-1.839 4.231-7.853 4.231-9.692 0-1.539-3.565-3.528-7.506-6.061-11.502 4.128-6.558 6.145-13.276 13.595-18.745 2.824-2.073 2.824-6.361 0-8.444-7.449-5.46-9.467-12.178-13.595-18.736 2.533-4.006 4.522-7.937 6.061-11.502 1.839-4.231 7.853-4.231 9.692 0 4.081 9.401 11.249 21.447 23.249 30.238 2.824 2.082 2.824 6.37 0 8.443z" fill="#09a76d"/></g><g><path d="m334.216 11.807c-4.086 9.403-11.248 21.448-23.246 30.244-2.83 2.075-2.83 6.367 0 8.442 11.998 8.796 19.16 20.841 23.246 30.244 1.838 4.229 7.849 4.229 9.687 0 4.086-9.403 11.248-21.448 23.246-30.244 2.83-2.075 2.83-6.367 0-8.442-11.998-8.796-19.16-20.841-23.246-30.244-1.838-4.229-7.85-4.229-9.687 0z" fill="#57be92"/></g><g><path d="m367.152 50.49c-12 8.8-19.168 20.847-23.249 30.248-1.839 4.231-7.853 4.231-9.692 0-1.539-3.565-3.528-7.506-6.061-11.502 4.128-6.558 6.145-13.276 13.595-18.745 2.824-2.073 2.824-6.361 0-8.444-7.449-5.46-9.466-12.178-13.595-18.736 2.533-4.006 4.522-7.937 6.061-11.502 1.839-4.231 7.853-4.231 9.692 0 4.081 9.401 11.249 21.447 23.249 30.238 2.824 2.082 2.824 6.369 0 8.443z" fill="#09a76d"/></g><g><path d="m46.004 305.278c-4.58 10.54-12.607 24.04-26.056 33.9-3.172 2.325-3.172 7.137 0 9.462 13.448 9.859 21.476 23.36 26.056 33.9 2.06 4.74 8.798 4.74 10.857 0 4.58-10.54 12.607-24.04 26.056-33.9 3.172-2.326 3.172-7.137 0-9.462-13.448-9.859-21.476-23.36-26.056-33.9-2.06-4.739-8.798-4.739-10.857 0z" fill="#57be92"/></g><g><path d="m82.921 348.637c-13.45 9.864-21.484 23.367-26.059 33.904-2.061 4.743-8.802 4.743-10.863 0-1.725-3.996-3.954-8.413-6.793-12.893 4.627-7.351 6.888-14.88 15.238-21.011 3.165-2.324 3.165-7.13 0-9.464-8.35-6.12-10.611-13.65-15.238-21.001 2.839-4.49 5.069-8.897 6.793-12.893 2.061-4.743 8.802-4.743 10.863 0 4.575 10.537 12.609 24.04 26.059 33.893 3.165 2.335 3.165 7.141 0 9.465z" fill="#09a76d"/></g><g><path d="m256.098 294.228c-16.151 0-29.291 13.14-29.291 29.291v20.534c0 16.151 13.14 29.291 29.291 29.291s29.291-13.14 29.291-29.291v-20.534c0-16.151-13.14-29.291-29.291-29.291zm14.291 49.825c0 7.88-6.411 14.291-14.291 14.291s-14.291-6.411-14.291-14.291v-20.534c0-7.88 6.411-14.291 14.291-14.291s14.291 6.411 14.291 14.291z"/><path d="m256.098 138.854c-16.151 0-29.291 13.14-29.291 29.291v20.534c0 16.151 13.14 29.291 29.291 29.291s29.291-13.14 29.291-29.291v-20.534c0-16.152-13.14-29.291-29.291-29.291zm14.291 49.824c0 7.88-6.411 14.291-14.291 14.291s-14.291-6.411-14.291-14.291v-20.534c0-7.88 6.411-14.291 14.291-14.291s14.291 6.411 14.291 14.291z"/><path d="m188.678 226.808h-20.534c-16.151 0-29.291 13.14-29.291 29.291s13.14 29.291 29.291 29.291h20.534c16.151 0 29.291-13.14 29.291-29.291s-13.14-29.291-29.291-29.291zm0 43.581h-20.534c-7.88 0-14.291-6.411-14.291-14.291s6.411-14.291 14.291-14.291h20.534c7.88 0 14.291 6.411 14.291 14.291s-6.411 14.291-14.291 14.291z"/><path d="m373.343 256.098c0-16.151-13.14-29.291-29.291-29.291h-20.534c-16.151 0-29.291 13.14-29.291 29.291s13.14 29.291 29.291 29.291h20.534c16.151 0 29.291-13.14 29.291-29.291zm-29.291 14.291h-20.534c-7.88 0-14.291-6.411-14.291-14.291s6.411-14.291 14.291-14.291h20.534c7.88 0 14.291 6.411 14.291 14.291s-6.411 14.291-14.291 14.291z"/><path d="m256.098 110.168c14.754 0 26.758-12.004 26.758-26.758v-56.651c.001-14.755-12.003-26.759-26.758-26.759s-26.759 12.004-26.759 26.759v16.339c0 4.142 3.358 7.5 7.5 7.5s7.5-3.358 7.5-7.5v-16.339c0-6.484 5.275-11.759 11.759-11.759 6.483 0 11.758 5.275 11.758 11.759v56.651c0 6.483-5.275 11.758-11.758 11.758-6.484 0-11.759-5.275-11.759-11.758v-5.645c0-4.142-3.358-7.5-7.5-7.5s-7.5 3.358-7.5 7.5v5.645c.001 14.754 12.005 26.758 26.759 26.758z"/><path d="m256.098 402.028c-14.755 0-26.759 12.004-26.759 26.759v56.65c0 14.755 12.004 26.759 26.759 26.759 14.754 0 26.758-12.004 26.758-26.759v-56.65c.001-14.755-12.003-26.759-26.758-26.759zm11.759 83.41c0 6.484-5.275 11.759-11.758 11.759-6.484 0-11.759-5.275-11.759-11.759v-56.65c0-6.484 5.275-11.759 11.759-11.759 6.483 0 11.758 5.275 11.758 11.759z"/><path d="m115.068 152.91c5.216 5.217 12.069 7.825 18.921 7.825s13.705-2.608 18.921-7.825c10.433-10.433 10.433-27.409 0-37.842l-40.058-40.058c-10.433-10.433-27.41-10.434-37.842 0-10.433 10.433-10.433 27.409 0 37.842zm-29.452-67.294c2.292-2.292 5.304-3.438 8.315-3.438s6.022 1.146 8.314 3.438l40.058 40.058c4.584 4.585 4.584 12.044 0 16.629-4.584 4.584-12.043 4.585-16.629 0l-40.058-40.058c-4.585-4.584-4.585-12.044 0-16.629z"/><path d="m397.129 359.287c-10.432-10.433-27.409-10.434-37.842 0-5.054 5.054-7.837 11.773-7.837 18.921s2.783 13.867 7.837 18.921l7.324 7.325c2.93 2.929 7.678 2.928 10.607 0 2.929-2.929 2.929-7.678 0-10.607l-7.325-7.325c-2.221-2.22-3.444-5.173-3.444-8.314s1.223-6.093 3.444-8.314c4.585-4.584 12.044-4.585 16.629 0l40.058 40.058c4.584 4.585 4.584 12.044 0 16.629s-12.045 4.585-16.629 0l-8.168-8.168c-2.929-2.929-7.678-2.929-10.606 0-2.929 2.929-2.929 7.678 0 10.606l8.168 8.168c5.217 5.216 12.069 7.824 18.921 7.824 6.853 0 13.705-2.608 18.921-7.825 5.054-5.054 7.837-11.773 7.837-18.921 0-7.147-2.783-13.867-7.837-18.921z"/><path d="m83.409 282.857c14.755 0 26.759-12.004 26.759-26.759 0-14.754-12.004-26.758-26.759-26.758h-56.65c-14.755 0-26.759 12.004-26.759 26.758 0 14.755 12.004 26.759 26.759 26.759zm-68.409-26.759c0-6.483 5.275-11.758 11.759-11.758h56.65c6.484 0 11.759 5.275 11.759 11.758 0 6.484-5.275 11.759-11.759 11.759h-56.65c-6.484 0-11.759-5.275-11.759-11.759z"/><path d="m485.438 229.34h-56.651c-14.755 0-26.759 12.004-26.759 26.758 0 14.755 12.004 26.759 26.759 26.759h56.651c14.754 0 26.758-12.004 26.758-26.759 0-14.754-12.004-26.758-26.758-26.758zm0 38.517h-56.651c-6.484 0-11.759-5.275-11.759-11.759 0-6.483 5.275-11.758 11.759-11.758h56.651c6.483 0 11.758 5.275 11.758 11.758 0 6.484-5.275 11.759-11.758 11.759z"/><path d="m115.068 359.287-40.058 40.058c-10.433 10.433-10.433 27.409 0 37.843 5.217 5.216 12.069 7.824 18.921 7.824 6.853 0 13.705-2.608 18.921-7.825l40.058-40.058c5.054-5.054 7.837-11.773 7.837-18.921 0-7.147-2.783-13.867-7.837-18.921-10.433-10.434-27.41-10.433-37.842 0zm27.235 27.235-40.058 40.058c-4.585 4.585-12.044 4.584-16.629 0-2.221-2.22-3.444-5.173-3.444-8.314s1.223-6.093 3.444-8.314l40.058-40.058c2.292-2.292 5.304-3.438 8.314-3.438 3.011 0 6.022 1.146 8.315 3.438 2.221 2.221 3.444 5.174 3.444 8.314 0 3.141-1.223 6.093-3.444 8.314z"/><path d="m359.286 152.91c5.216 5.217 12.069 7.825 18.921 7.825 6.853 0 13.705-2.608 18.921-7.825l40.058-40.058c10.433-10.433 10.433-27.409 0-37.842-10.433-10.434-27.41-10.433-37.842 0l-40.058 40.058c-10.433 10.433-10.433 27.409 0 37.842zm10.607-27.236 40.058-40.058c2.292-2.292 5.304-3.438 8.314-3.438 3.011 0 6.022 1.146 8.315 3.438 4.584 4.585 4.584 12.044 0 16.629l-40.058 40.058c-4.585 4.585-12.045 4.584-16.629 0-4.585-4.584-4.585-12.044 0-16.629z"/><path d="m46.365 159.066c4.142 0 7.5-3.358 7.5-7.5v-7.993c0-4.142-3.358-7.5-7.5-7.5s-7.5 3.358-7.5 7.5v7.993c0 4.142 3.358 7.5 7.5 7.5z"/><path d="m46.365 202.486c4.142 0 7.5-3.358 7.5-7.5v-7.993c0-4.142-3.358-7.5-7.5-7.5s-7.5 3.358-7.5 7.5v7.993c0 4.142 3.358 7.5 7.5 7.5z"/><path d="m64.078 176.78h7.993c4.142 0 7.5-3.358 7.5-7.5s-3.358-7.5-7.5-7.5h-7.993c-4.142 0-7.5 3.358-7.5 7.5s3.358 7.5 7.5 7.5z"/><path d="m20.659 176.78h7.993c4.142 0 7.5-3.358 7.5-7.5s-3.358-7.5-7.5-7.5h-7.993c-4.142 0-7.5 3.358-7.5 7.5s3.358 7.5 7.5 7.5z"/><path d="m464.902 304.384c-4.142 0-7.5 3.358-7.5 7.5v7.993c0 4.142 3.358 7.5 7.5 7.5s7.5-3.358 7.5-7.5v-7.993c0-4.142-3.358-7.5-7.5-7.5z"/><path d="m464.902 347.803c-4.142 0-7.5 3.358-7.5 7.5v7.993c0 4.142 3.358 7.5 7.5 7.5s7.5-3.358 7.5-7.5v-7.993c0-4.142-3.358-7.5-7.5-7.5z"/><path d="m490.608 330.09h-7.993c-4.142 0-7.5 3.358-7.5 7.5s3.358 7.5 7.5 7.5h7.993c4.142 0 7.5-3.358 7.5-7.5s-3.358-7.5-7.5-7.5z"/><path d="m447.189 330.09h-7.993c-4.142 0-7.5 3.358-7.5 7.5s3.358 7.5 7.5 7.5h7.993c4.142 0 7.5-3.358 7.5-7.5s-3.358-7.5-7.5-7.5z"/><path d="m170.748 423.906c-4.142 0-7.5 3.358-7.5 7.5v7.993c0 4.142 3.358 7.5 7.5 7.5s7.5-3.358 7.5-7.5v-7.993c0-4.142-3.358-7.5-7.5-7.5z"/><path d="m170.748 467.325c-4.142 0-7.5 3.358-7.5 7.5v7.993c0 4.142 3.358 7.5 7.5 7.5s7.5-3.358 7.5-7.5v-7.993c0-4.142-3.358-7.5-7.5-7.5z"/><path d="m196.454 449.612h-7.993c-4.142 0-7.5 3.358-7.5 7.5s3.358 7.5 7.5 7.5h7.993c4.142 0 7.5-3.358 7.5-7.5s-3.358-7.5-7.5-7.5z"/><path d="m153.035 449.612h-7.993c-4.142 0-7.5 3.358-7.5 7.5s3.358 7.5 7.5 7.5h7.993c4.142 0 7.5-3.358 7.5-7.5s-3.358-7.5-7.5-7.5z"/><path d="m435.44 162.671c0 4.049 1.939 7.888 5.188 10.27 10.902 7.992 17.33 19.194 20.802 27.184 2.028 4.667 6.629 7.683 11.721 7.683h.001c5.092 0 9.693-3.016 11.722-7.683 3.472-7.99 9.899-19.191 20.801-27.184 3.249-2.382 5.188-6.221 5.188-10.27s-1.939-7.888-5.188-10.27c-10.903-7.993-17.33-19.194-20.802-27.184-2.028-4.667-6.629-7.683-11.723-7.683-5.092 0-9.693 3.016-11.721 7.683-3.473 7.99-9.9 19.192-20.802 27.184-3.247 2.382-5.187 6.221-5.187 10.27zm39.747-31.475s0 .001-.001.002c.001 0 .001-.002.001-.002zm-2.035 4.373c4.225 8.5 10.966 18.821 21.274 27.103-10.308 8.281-17.049 18.602-21.274 27.102-4.225-8.5-10.967-18.821-21.274-27.102 10.307-8.281 17.049-18.603 21.274-27.103z"/><path d="m306.535 56.541c10.903 7.993 17.33 19.194 20.802 27.185 2.028 4.667 6.63 7.682 11.723 7.682 5.092 0 9.693-3.016 11.721-7.682 3.472-7.99 9.9-19.192 20.802-27.185 3.249-2.382 5.188-6.221 5.188-10.27s-1.939-7.888-5.188-10.27c-10.902-7.992-17.33-19.194-20.802-27.184-2.028-4.667-6.629-7.682-11.721-7.683-5.093 0-9.694 3.015-11.722 7.682-3.472 7.99-9.899 19.191-20.801 27.184-3.249 2.382-5.188 6.221-5.188 10.27-.002 4.05 1.938 7.889 5.186 10.271zm32.524-37.372c4.225 8.5 10.967 18.821 21.274 27.103-10.307 8.281-17.049 18.602-21.274 27.103-4.225-8.5-10.967-18.822-21.274-27.103 10.308-8.282 17.049-18.603 21.274-27.103z"/><path d="m87.35 354.689c3.41-2.499 5.445-6.529 5.446-10.78 0-4.251-2.035-8.281-5.445-10.781-12.383-9.078-19.675-21.782-23.611-30.839-2.129-4.9-6.96-8.066-12.307-8.066s-10.178 3.166-12.307 8.065c-3.937 9.058-11.228 21.762-23.612 30.84-3.41 2.5-5.445 6.53-5.445 10.781s2.036 8.281 5.445 10.779c12.384 9.079 19.675 21.782 23.612 30.839 2.129 4.9 6.96 8.066 12.307 8.066s10.178-3.166 12.307-8.065c3.936-9.057 11.228-21.76 23.61-30.839zm-35.918 21.672c-4.734-9.966-12.676-22.613-25.307-32.452 12.632-9.839 20.573-22.486 25.307-32.453 4.734 9.967 12.675 22.614 25.307 32.453-12.632 9.839-20.572 22.486-25.307 32.452z"/></g></g></svg>