<svg id="Capa_1" enable-background="new 0 0 512 512" height="512" viewBox="0 0 512 512" width="512" xmlns="http://www.w3.org/2000/svg"><g><g><circle cx="255.965" cy="127.077" fill="#fe9738" r="119.578"/></g><g><path d="m375.542 127.082c0 66.036-53.541 119.577-119.577 119.577-29.273 0-56.098-10.52-76.877-27.999 17.529 10.068 37.837 15.825 59.498 15.825 66.036 0 119.577-53.541 119.577-119.577 0-36.754-16.587-69.636-42.68-91.568 35.891 20.637 60.059 59.367 60.059 103.742z" fill="#fe860a"/></g><g><g><path d="m73.439 206.971-5.719-45.778c-1.591-11.517 7.502-21.723 19.126-21.465 9.629.214 17.554 7.64 18.393 17.234l4.532 103.626-27.634 4.535z" fill="#f6a96c"/></g><g><path d="m109.773 260.588-14.73 2.414-7.051-104.171c-.451-5.175-2.818-9.768-6.368-13.087-1.434-1.344-3.069-2.487-4.844-3.369 2.928-1.755 6.368-2.728 10.068-2.647 4.814.1 9.206 2.016 12.495 5.094 3.289 3.089 5.475 7.341 5.897 12.144z" fill="#ea9b58"/></g><g><path d="m201.727 504.501c-9.076-30.677-22.385-78.713-11.861-109.491 9.597-28.067-1.186-54.034-22.145-79.551-3.742-4.556-34.666-44.747-46.457-60.238-6.569-9.835-19.867-12.483-29.702-5.914-7.013 4.684-10.348 12.789-9.315 20.621l-.141-.239-17.839-129.092c-.628-13.173-10.69-23.961-23.788-25.502-16.009-1.884-30.085 10.603-30.123 26.723 5.424 43.656 14.503 86.755 20.262 130.361 4.546 34.417 4.604 69.12 31.93 95.175 11.079 10.564 23.766 19.561 33.189 31.775 5.382 6.975 7.412 15.74 8.024 24.372.77 10.858-8.783 81-8.783 81z" fill="#fed2a4"/></g><g><path d="m201.723 504.497h-22.554c-8.905-30.666-19.966-74.63-10.098-103.462 9.597-28.069-1.183-54.032-22.142-79.554-3.751-4.553-34.668-44.746-46.461-60.23-3.069-4.593-7.591-7.621-12.555-8.865 1.073-1.143 2.297-2.176 3.65-3.079 9.838-6.569 23.135-3.921 29.704 5.917 11.793 15.494 42.711 55.677 46.461 60.24 20.949 25.512 31.74 51.475 22.142 79.544-10.53 30.776 2.777 78.812 11.853 109.489z" fill="#ffbd86"/></g></g><g><g><path d="m438.49 206.971 5.719-45.778c1.591-11.517-7.502-21.723-19.126-21.465-9.629.214-17.554 7.64-18.393 17.234l-4.532 103.626 27.634 4.535z" fill="#f6a96c"/></g><g><path d="m444.206 161.188-5.716 45.779-8.694 58.154-14.567-2.393 5.873-55.761 5.726-45.779c1.133-8.243-3.199-15.815-10.028-19.345 2.487-1.294 5.305-2.056 8.283-2.116 11.622-.26 20.717 9.949 19.123 21.461z" fill="#ea9b58"/></g><g><path d="m310.202 504.501c9.076-30.677 22.385-78.713 11.861-109.491-9.597-28.067 1.186-54.034 22.145-79.551 3.742-4.556 34.666-44.747 46.457-60.238 6.569-9.835 19.867-12.483 29.702-5.914 7.013 4.684 10.348 12.789 9.315 20.621l.141-.239 17.839-129.092c.628-13.173 10.69-23.961 23.788-25.502 16.009-1.884 30.085 10.603 30.123 26.723-5.424 43.656-14.503 86.755-20.262 130.361-4.546 34.417-4.604 69.12-31.93 95.175-11.079 10.564-23.766 19.561-33.189 31.775-5.382 6.975-7.412 15.74-8.024 24.372-.77 10.858 8.783 81 8.783 81z" fill="#fed2a4"/></g><g><path d="m501.578 141.813c-5.425 43.663-14.511 86.755-20.267 130.368-4.543 34.417-4.603 69.115-31.93 95.168-11.081 10.57-23.767 19.565-33.184 31.78-5.385 6.97-7.421 15.744-8.033 24.369-.762 10.861 8.785 80.998 8.785 80.998h-20.057s-9.547-78.632-8.785-89.482c.612-8.634 2.647-17.399 8.033-24.379 9.416-12.204 22.102-21.21 33.184-31.77 27.327-26.054 23.697-45.127 31.93-86.685 8.549-43.153 14.842-86.705 20.267-130.368-.03-11.422-7.11-21.029-16.938-24.97 2.156-.872 4.463-1.464 6.869-1.745 16.006-1.884 30.086 10.601 30.126 26.716z" fill="#ffbd86"/></g></g><g><circle cx="255.965" cy="127.077" fill="#ffe3cb" r="81.807"/></g><g><path d="m337.776 127.082c0 45.177-36.633 81.801-81.811 81.801-20.026 0-38.378-7.2-52.598-19.164 10.59 5.014 22.423 7.812 34.919 7.812 45.177 0 81.801-36.623 81.801-81.811 0-25.141-11.342-47.624-29.182-62.627 27.706 13.097 46.871 41.307 46.871 73.989z" fill="#feca9c"/></g><g><path d="m262.594 92.118 6.853 13.886c1.077 2.182 3.158 3.694 5.566 4.044l15.324 2.227c6.064.881 8.485 8.333 4.097 12.61l-11.089 10.809c-1.742 1.698-2.537 4.145-2.126 6.544l2.618 15.262c1.036 6.039-5.303 10.645-10.726 7.793l-13.706-7.206c-2.154-1.132-4.727-1.132-6.88 0l-13.706 7.206c-5.423 2.851-11.762-1.754-10.726-7.793l2.618-15.262c.411-2.398-.384-4.845-2.126-6.544l-11.089-10.809c-4.388-4.277-1.967-11.729 4.097-12.61l15.324-2.227c2.408-.35 4.489-1.862 5.566-4.044l6.853-13.886c2.711-5.495 10.546-5.495 13.258 0z" fill="#fac600"/></g><g><path d="m283.342 135.696c-1.735 1.695-2.537 4.142-2.126 6.538l2.617 15.263c1.043 6.037-5.295 10.65-10.72 7.792l-11.543-6.057c1.233-1.675 1.855-3.851 1.444-6.228l-2.918-17.008c-.461-2.668.431-5.395 2.367-7.291l12.355-12.044c1.835-1.785 2.607-4.082 2.477-6.288l13.047 1.895c6.057.882 8.484 8.334 4.091 12.616z" fill="#e8b800"/></g><g><path d="m508.258 134.438c-1.564-7.058-5.372-13.545-10.78-18.343-7.346-6.516-17.158-9.593-26.904-8.448-15.688 1.846-27.87 13.908-30.081 29.253-4.526-3.133-9.954-4.805-15.576-4.67-13.476.299-24.524 10.651-25.698 24.079-.008.092-.014.183-.019.275l-4.295 85.008c-4.027 2.132-7.606 5.241-10.338 9.258-12.033 15.806-42.63 55.557-46.155 59.85-25.23 30.718-32.899 59.089-23.446 86.737 10.235 29.929-4.753 80.59-11.955 104.936-.672 2.269-.233 4.721 1.183 6.616s3.642 3.011 6.008 3.011h106.749c2.166 0 4.225-.936 5.649-2.567 1.425-1.631 2.074-3.798 1.782-5.944-3.653-26.822-9.253-72.112-8.733-79.458.625-8.832 2.745-15.478 6.481-20.32 5.866-7.604 13.162-13.92 20.888-20.608 3.818-3.305 7.766-6.724 11.538-10.32 25.525-24.339 29.07-55.442 32.498-85.521.527-4.631 1.073-9.419 1.691-14.1 2.724-20.619 6.263-41.536 9.687-61.764 2.99-17.664 5.938-35.338 8.475-53.074 1.126-7.873 3.102-15.984 1.351-23.886zm-94.086 23.057c.562-5.735 5.303-10.142 11.078-10.27 3.297-.076 6.529 1.313 8.751 3.808 2.223 2.494 3.235 5.823 2.766 9.229l-10.961 83.708c-.415-.31-.84-.61-1.274-.9-4.454-2.976-9.443-4.542-14.441-4.814zm57.979 128.067c-3.268 28.685-6.356 55.779-27.946 76.364-3.51 3.348-7.151 6.499-11.005 9.836-7.945 6.877-16.159 13.989-22.946 22.785-5.596 7.255-8.726 16.552-9.567 28.422-.66 9.314 5.093 54.388 7.692 74.031h-88.168c8.031-27.965 19.415-73.809 8.948-104.418-7.74-22.634-1.116-45.628 20.845-72.365 3.924-4.778 35.541-45.887 46.628-60.455.094-.123.184-.249.269-.377 4.261-6.38 12.918-8.106 19.301-3.843 3.092 2.064 5.193 5.209 5.918 8.854.727 3.645-.011 7.355-2.075 10.446-.038.056-.074.112-.11.169l-31.779 50.464c-2.207 3.505-1.155 8.135 2.35 10.343 3.505 2.207 8.135 1.155 10.342-2.35l31.729-50.386c2.296-3.464 3.792-7.299 4.443-11.284.103-.35 18.122-130.622 18.133-130.846.455-9.551 7.677-17.293 17.174-18.411 5.586-.656 10.987 1.037 15.196 4.772 4.101 3.638 6.415 8.625 6.545 14.084-2.816 22.552-21.382 139.469-21.917 144.165z"/><path d="m196.963 397.437c9.454-27.648 1.785-56.02-23.445-86.737-3.598-4.381-33.808-43.63-46.155-59.85-2.732-4.017-6.311-7.126-10.338-9.258l-4.295-85.008c-.004-.092-.011-.183-.019-.275-1.174-13.428-12.222-23.779-25.698-24.079-5.627-.121-11.052 1.545-15.576 4.672-2.21-15.346-14.392-27.41-30.082-29.255-9.748-1.147-19.558 1.931-26.904 8.448-5.298 4.701-9.064 11.022-10.683 17.917-1.885 8.029.383 15.889 1.614 23.875 2.748 17.832 5.104 35.724 8.115 53.515 3.423 20.227 6.963 41.141 9.686 61.759.618 4.68 1.164 9.469 1.692 14.1 3.013 26.436 6.128 53.771 24.26 76.529 1.481 1.859 3.665 2.827 5.87 2.827 1.638 0 3.288-.535 4.668-1.635 3.24-2.581 3.773-7.299 1.192-10.538-15.448-19.39-18.188-43.43-21.089-68.882-.535-4.696-1.088-9.552-1.724-14.365-2.759-20.888-6.322-41.939-9.768-62.298-3.74-22.102-7.607-44.949-10.424-67.501.129-5.458 2.443-10.445 6.544-14.083 4.21-3.735 9.606-5.428 15.197-4.772 9.496 1.117 16.719 8.86 17.173 18.411.011.224 17.847 129.37 17.901 129.761.587 4.247 2.231 8.681 4.674 12.368l31.729 50.387c2.207 3.505 6.837 4.557 10.343 2.35 3.505-2.208 4.557-6.837 2.35-10.343l-31.778-50.464c-.036-.057-.073-.113-.11-.169-2.064-3.091-2.802-6.801-2.076-10.446s2.828-6.79 5.919-8.854c6.381-4.262 15.04-2.537 19.301 3.843.086.128.175.254.269.377 11.096 14.579 42.719 55.695 46.629 60.456 21.96 26.736 28.583 49.73 20.844 72.364-5.071 14.832-5.637 33.933-1.729 58.393 2.513 15.725 6.481 31.258 10.692 46.024h-88.182c2.599-19.644 8.352-64.717 7.691-74.032-.842-11.872-3.971-21.169-9.567-28.422-5.297-6.866-11.517-12.696-16.344-17.009-3.089-2.759-7.829-2.493-10.589.596s-2.493 7.83.596 10.589c4.615 4.123 9.942 9.128 14.462 14.986 3.734 4.84 5.854 11.487 6.481 20.32.521 7.345-5.08 52.636-8.733 79.458-.292 2.146.357 4.313 1.782 5.944 1.424 1.631 3.484 2.567 5.65 2.567h106.748c2.366 0 4.593-1.116 6.008-3.011s1.854-4.347 1.183-6.616c-7.202-24.344-22.19-75.004-11.955-104.934zm-109.566-154.366c-.435.29-.858.593-1.274.904l-5.246-37.964-5.728-45.845c-.457-3.31.555-6.638 2.778-9.132 2.223-2.495 5.429-3.883 8.753-3.808 5.775.128 10.516 4.534 11.078 10.27l4.081 80.762c-4.998.272-9.987 1.838-14.442 4.813z"/><path d="m366.93 189.051c2.022-3.615.732-8.184-2.882-10.207-3.614-2.021-8.184-.732-10.207 2.882-19.823 35.423-57.328 57.429-97.876 57.429-61.8 0-112.078-50.278-112.078-112.078s50.278-112.078 112.078-112.078 112.078 50.278 112.078 112.078c0 8.237-.896 16.45-2.664 24.411-.898 4.044 1.651 8.049 5.695 8.947 4.05.897 8.049-1.653 8.947-5.696 2.005-9.027 3.021-18.334 3.021-27.663 0-70.069-57.007-127.076-127.077-127.076-70.071 0-127.077 57.007-127.077 127.077s57.007 127.077 127.077 127.077c45.973 0 88.493-24.946 110.965-65.103z"/><path d="m255.965 37.771c-49.244 0-89.307 40.063-89.307 89.306s40.063 89.306 89.307 89.306c49.243 0 89.307-40.063 89.307-89.306 0-49.244-40.064-89.306-89.307-89.306zm0 163.613c-40.973 0-74.307-33.334-74.307-74.307s33.334-74.307 74.307-74.307 74.307 33.334 74.307 74.307-33.334 74.307-74.307 74.307z"/><path d="m291.416 104.853-15.269-2.219-6.828-13.836c-2.527-5.12-7.644-8.301-13.355-8.301-5.71 0-10.828 3.181-13.355 8.301l-6.773 13.828-15.324 2.227c-5.651.821-10.257 4.705-12.022 10.135-1.765 5.431-.321 11.28 3.768 15.266l11.058 10.715-2.617 15.262c-.965 5.628 1.305 11.209 5.924 14.566 2.611 1.897 5.665 2.86 8.74 2.86 2.367 0 4.746-.571 6.944-1.727l13.607-7.206 13.706 7.206c5.055 2.657 11.064 2.222 15.684-1.134s6.889-8.938 5.924-14.565l-2.608-15.208 11.047-10.769c4.09-3.985 5.534-9.835 3.77-15.266-1.763-5.43-6.369-9.314-12.021-10.135zm-13.305 25.47c-3.512 3.423-5.112 8.352-4.283 13.182l2.579 15.047-13.513-7.104c-2.17-1.141-4.55-1.711-6.929-1.711-2.38 0-4.76.57-6.93 1.711l-13.514 7.103 2.58-15.047c.829-4.833-.773-9.76-4.283-13.181l-10.932-10.658 15.108-2.195c4.851-.705 9.042-3.75 11.214-8.147l6.758-13.691 6.755 13.69c2.17 4.397 6.362 7.444 11.214 8.148l15.108 2.197z"/></g></g></svg>