<svg id="Capa_1" enable-background="new 0 0 512 512" height="512" viewBox="0 0 512 512" width="512" xmlns="http://www.w3.org/2000/svg"><g><g><g><path d="m353.972 61.214c-5.211 11.992-14.345 27.353-29.646 38.571-3.609 2.646-3.609 8.12 0 10.766 15.301 11.218 24.435 26.579 29.646 38.57 2.343 5.393 10.01 5.393 12.353 0 5.211-11.992 14.345-27.353 29.646-38.57 3.609-2.646 3.609-8.12 0-10.766-15.301-11.218-24.435-26.579-29.646-38.571-2.343-5.393-10.009-5.393-12.353 0z" fill="#fe9738"/></g><g><path d="m449.982 134.295c-4.355 10.023-11.989 22.861-24.778 32.237-3.017 2.211-3.017 6.787 0 8.998 12.789 9.376 20.423 22.214 24.778 32.237 1.959 4.507 8.366 4.507 10.325 0 4.355-10.023 11.989-22.861 24.778-32.237 3.017-2.211 3.017-6.787 0-8.998-12.789-9.376-20.423-22.214-24.778-32.237-1.959-4.508-8.367-4.508-10.325 0z" fill="#fe9738"/></g></g><g><path d="m68.809 184.937c-4.355 10.023-11.989 22.861-24.778 32.237-3.017 2.211-3.017 6.787 0 8.998 12.789 9.376 20.423 22.214 24.778 32.237 1.959 4.507 8.366 4.507 10.325 0 4.355-10.023 11.989-22.861 24.778-32.237 3.017-2.211 3.017-6.787 0-8.998-12.789-9.376-20.423-22.214-24.778-32.237-1.959-4.507-8.366-4.507-10.325 0z" fill="#fe9738"/></g><g><path d="m395.975 110.555c-15.301 11.21-24.441 26.571-29.651 38.561-2.34 5.4-10.01 5.4-12.35 0-1.49-3.42-3.29-7.1-5.46-10.89 5.45-9.51 7.884-19.651 18.824-27.671 3.61-2.65 3.61-8.12 0-10.77-10.94-8.03-13.374-18.171-18.824-27.681 2.17-3.79 3.97-7.47 5.46-10.89 2.34-5.39 10.01-5.39 12.35 0 5.21 11.99 14.35 27.351 29.651 38.571 3.61 2.65 3.61 8.12 0 10.77z" fill="#fe860a"/></g><g><path d="m485.088 175.527c-12.79 9.38-20.431 22.221-24.781 32.241-1.96 4.51-8.37 4.51-10.33 0-1.64-3.8-3.76-8-6.46-12.26 4.4-6.99 6.55-14.151 14.491-19.981 3.01-2.21 3.01-6.78 0-9-7.94-5.82-10.09-12.98-14.491-19.971 2.7-4.27 4.82-8.46 6.46-12.26 1.96-4.51 8.37-4.51 10.33 0 4.35 10.02 11.99 22.861 24.781 32.231 3.01 2.22 3.01 6.79 0 9z" fill="#fe860a"/></g><g><path d="m103.915 226.169c-12.79 9.38-20.421 22.221-24.781 32.241-1.96 4.51-8.37 4.51-10.32 0-1.65-3.8-3.77-8-6.47-12.26 4.4-6.99 8.044-14.15 15.984-19.981 3.02-2.21 3.02-6.78 0-8.99-7.94-5.83-11.584-12.99-15.984-19.981 2.7-4.27 4.82-8.46 6.47-12.26 1.95-4.51 8.36-4.51 10.32 0 4.36 10.02 11.99 22.861 24.781 32.241 3.01 2.21 3.01 6.78 0 8.99z" fill="#fe860a"/></g><g><path d="m145.835 365.805c-1.548-4.349-5.664-7.253-10.28-7.253h-90.644c-4.616 0-8.732 2.904-10.28 7.253l-26.501 74.455c-2.529 7.104 2.739 14.571 10.28 14.571h143.646c7.541 0 12.809-7.467 10.28-14.571z" fill="#fee45a"/></g><g><path d="m311.602 365.805c-1.548-4.349-5.664-7.253-10.28-7.253h-90.644c-4.616 0-8.732 2.904-10.28 7.253l-26.501 74.455c-2.529 7.104 2.739 14.571 10.28 14.571h143.646c7.541 0 12.809-7.467 10.28-14.571z" fill="#fee45a"/></g><g><path d="m477.369 365.805c-1.548-4.349-5.664-7.253-10.28-7.253h-90.644c-4.616 0-8.732 2.904-10.28 7.253l-26.501 74.455c-2.529 7.104 2.739 14.571 10.28 14.571h143.646c7.541 0 12.809-7.467 10.28-14.571z" fill="#fee45a"/></g><g><g><path d="m228.221 269.043c-1.548-4.349-5.664-7.253-10.28-7.253h-90.644c-4.616 0-8.732 2.904-10.28 7.253l-26.501 74.455c-2.529 7.104 2.739 14.571 10.28 14.571h143.646c7.541 0 12.809-7.466 10.28-14.571z" fill="#fac600"/></g><g><path d="m393.988 269.043c-1.548-4.349-5.664-7.253-10.28-7.253h-90.644c-4.616 0-8.732 2.904-10.28 7.253l-26.501 74.455c-2.529 7.104 2.739 14.571 10.28 14.571h143.646c7.541 0 12.809-7.466 10.28-14.571z" fill="#fac600"/></g></g><g><path d="m311.104 172.764c-1.548-4.349-5.664-7.253-10.28-7.253h-90.644c-4.616 0-8.732 2.904-10.28 7.253l-26.501 74.455c-2.529 7.104 2.739 14.571 10.28 14.571h143.646c7.541 0 12.809-7.467 10.28-14.571z" fill="#fee45a"/></g><g><path d="m162.057 454.827h-24.001c7.54 0 12.81-7.46 10.28-14.571l-26.501-74.453c-1.55-4.35-5.67-7.25-10.28-7.25h24.001c4.61 0 8.73 2.9 10.28 7.25l26.501 74.453c2.53 7.111-2.74 14.571-10.28 14.571z" fill="#fed402"/></g><g><path d="m327.823 454.827h-24.001c7.54 0 12.81-7.46 10.28-14.571l-26.501-74.453c-1.55-4.35-5.66-7.25-10.28-7.25h24.001c4.62 0 8.73 2.9 10.28 7.25l26.501 74.453c2.53 7.111-2.74 14.571-10.28 14.571z" fill="#fed402"/></g><g><path d="m493.589 454.827h-24.001c7.54 0 12.81-7.46 10.28-14.571l-26.501-74.453c-1.55-4.35-5.66-7.25-10.28-7.25h24.001c4.62 0 8.73 2.9 10.28 7.25l26.501 74.453c2.53 7.111-2.74 14.571-10.28 14.571z" fill="#fed402"/></g><g><path d="m244.44 358.074h-24.001c7.54 0 12.81-7.47 10.28-14.581l-26.501-74.453c-1.55-4.35-5.66-7.25-10.28-7.25h24.001c4.62 0 8.73 2.9 10.28 7.25l26.501 74.453c2.53 7.11-2.74 14.581-10.28 14.581z" fill="#e8b800"/></g><g><path d="m410.206 358.074h-24.001c7.54 0 12.81-7.47 10.28-14.581l-26.501-74.453c-1.54-4.35-5.66-7.25-10.28-7.25h24.001c4.62 0 8.74 2.9 10.28 7.25l26.501 74.453c2.53 7.11-2.74 14.581-10.28 14.581z" fill="#e8b800"/></g><g><path d="m327.323 261.79h-24.001c7.54 0 12.81-7.47 10.28-14.571l-26.501-74.453c-1.55-4.35-5.66-7.26-10.28-7.26h24.001c4.62 0 8.73 2.91 10.28 7.26l26.501 74.453c2.53 7.101-2.74 14.571-10.28 14.571z" fill="#fed402"/></g><g><path d="m420.769 181.579c11.71 8.584 18.609 20.605 22.334 29.178 2.084 4.794 6.811 7.891 12.043 7.891 5.231 0 9.958-3.098 12.04-7.891 3.725-8.572 10.623-20.592 22.334-29.177 3.336-2.446 5.328-6.389 5.328-10.548s-1.992-8.103-5.328-10.548c-11.71-8.584-18.609-20.605-22.334-29.177-2.083-4.794-6.809-7.892-12.04-7.892-.001 0-.001 0-.002 0-5.231 0-9.957 3.097-12.04 7.891h-.001c-3.725 8.573-10.624 20.594-22.334 29.177-3.336 2.446-5.328 6.389-5.328 10.548-.001 4.158 1.992 8.102 5.328 10.548zm34.375-40.558c4.509 9.305 11.906 20.882 23.47 30.01-11.564 9.129-18.961 20.704-23.47 30.01-4.508-9.305-11.908-20.882-23.469-30.01 11.561-9.128 18.96-20.705 23.469-30.01z"/><path d="m319.891 116.6c14.277 10.466 22.673 25.087 27.202 35.51 2.258 5.198 7.383 8.556 13.056 8.556 5.672 0 10.797-3.358 13.055-8.555 4.529-10.423 12.925-25.044 27.202-35.511 3.615-2.651 5.772-6.924 5.772-11.433 0-4.508-2.157-8.781-5.772-11.431-14.278-10.467-22.674-25.088-27.202-35.51-2.258-5.198-7.383-8.556-13.055-8.556-5.673 0-10.797 3.358-13.056 8.555-4.529 10.423-12.925 25.045-27.202 35.511-3.614 2.649-5.772 6.923-5.772 11.431s2.158 8.782 5.772 11.433zm40.257-50.813c5.322 11.768 14.777 27.534 30.493 39.38-15.716 11.846-25.172 27.612-30.492 39.38-5.321-11.768-14.778-27.535-30.493-39.38 15.716-11.845 25.172-27.611 30.492-39.38z"/><path d="m39.597 232.221c11.711 8.586 18.609 20.606 22.334 29.178 2.083 4.794 6.81 7.891 12.04 7.891 5.232 0 9.958-3.097 12.042-7.891 3.725-8.573 10.624-20.593 22.335-29.178 3.335-2.446 5.326-6.388 5.326-10.547s-1.991-8.101-5.327-10.548c-11.709-8.584-18.608-20.605-22.334-29.178-2.084-4.794-6.811-7.891-12.042-7.891s-9.957 3.097-12.04 7.891c-.001 0-.001 0-.001 0-3.724 8.572-10.621 20.592-22.333 29.177-3.336 2.446-5.328 6.389-5.328 10.548-.001 4.16 1.992 8.102 5.328 10.548zm34.375-40.558c4.509 9.306 11.906 20.882 23.47 30.01-11.564 9.128-18.962 20.705-23.47 30.01-4.508-9.305-11.905-20.88-23.469-30.01 11.564-9.129 18.961-20.705 23.469-30.01z"/><path d="m510.936 437.745-26.501-74.455c-2.606-7.32-9.577-12.238-17.346-12.238h-38.894c.715-3.308.525-6.797-.64-10.069l-26.501-74.455c-2.605-7.32-9.576-12.238-17.346-12.238h-38.296c.596-3.163.368-6.473-.74-9.586l-26.501-74.455c-2.605-7.32-9.576-12.238-17.346-12.238h-90.643c-7.77 0-14.741 4.918-17.346 12.238l-26.501 74.456c-1.108 3.113-1.336 6.422-.74 9.585h-38.296c-7.771 0-14.742 4.918-17.345 12.238l-6.923 19.449c-1.39 3.903.649 8.192 4.551 9.582 3.902 1.388 8.192-.648 9.581-4.551l6.924-19.45c.482-1.356 1.773-2.267 3.213-2.267h90.644c1.44 0 2.731.912 3.214 2.268l26.501 74.456c.516 1.449-.046 2.571-.426 3.11-.381.54-1.249 1.445-2.788 1.445h-143.65c-1.538 0-2.406-.905-2.787-1.445s-.942-1.661-.427-3.111l7.95-22.337c1.39-3.903-.648-8.192-4.551-9.582-3.898-1.387-8.192.648-9.58 4.551l-7.95 22.337c-1.165 3.272-1.355 6.76-.64 10.068h-37.899c-7.77 0-14.741 4.918-17.346 12.238l-26.501 74.455c-2.004 5.629-1.145 11.905 2.3 16.788 3.445 4.884 9.07 7.799 15.045 7.799h143.647c4.035 0 7.908-1.334 11.06-3.701 3.152 2.367 7.025 3.701 11.061 3.701h143.646c4.036 0 7.909-1.334 11.061-3.701 3.152 2.367 7.025 3.701 11.06 3.701h46.061c4.143 0 7.5-3.358 7.5-7.5s-3.358-7.5-7.5-7.5h-46.061c-1.538 0-2.406-.905-2.787-1.445s-.942-1.661-.427-3.111l26.501-74.455c.483-1.356 1.775-2.268 3.215-2.268h90.643c1.44 0 2.731.911 3.215 2.268l26.501 74.456c.516 1.449-.046 2.571-.427 3.11-.38.54-1.249 1.445-2.787 1.445h-63.209c-4.143 0-7.5 3.358-7.5 7.5s3.358 7.5 7.5 7.5h63.209c5.976 0 11.6-2.915 15.045-7.799 3.444-4.883 4.304-11.158 2.3-16.787zm-327.257-183.455c-1.538 0-2.406-.905-2.787-1.444-.381-.54-.942-1.662-.427-3.111l26.501-74.455c.483-1.356 1.775-2.268 3.215-2.268h90.643c1.44 0 2.732.911 3.215 2.268l26.501 74.455c.516 1.45-.046 2.572-.427 3.112s-1.249 1.444-2.787 1.444h-143.647zm52.591 15h38.466l-19.233 54.035zm-71.426 176.596c-.381.54-1.249 1.445-2.787 1.445h-143.648c-1.538 0-2.407-.905-2.787-1.445-.381-.539-.942-1.661-.427-3.11l26.501-74.455c.484-1.356 1.775-2.268 3.215-2.268h90.643c1.441 0 2.732.911 3.215 2.268l26.501 74.455c.516 1.449-.046 2.57-.426 3.11zm-11.132-80.317h38.809l-19.405 54.517zm176.899 80.317c-.381.54-1.249 1.445-2.788 1.445h-143.646c-1.539 0-2.407-.905-2.788-1.445s-.942-1.661-.427-3.111l26.502-74.455c.483-1.356 1.774-2.268 3.214-2.268h90.644c1.439 0 2.73.911 3.214 2.268l26.502 74.455c.515 1.45-.046 2.571-.427 3.111zm8.273-25.8-19.405-54.517h38.809zm74.113-70.962c-.381.54-1.249 1.445-2.787 1.445h-143.647c-1.539 0-2.407-.905-2.788-1.445-.38-.54-.941-1.661-.426-3.111l26.501-74.455c.483-1.356 1.775-2.268 3.215-2.268h90.643c1.439 0 2.731.912 3.215 2.268l26.501 74.455c.515 1.45-.046 2.572-.427 3.111z"/></g></g></svg>