<svg id="Capa_1" enable-background="new 0 0 512.333 512.333" height="512" viewBox="0 0 512.333 512.333" width="512" xmlns="http://www.w3.org/2000/svg"><g><g><path d="m493.123 388.119h-473.912c-6.464 0-11.704-5.24-11.704-11.704v-240.497c0-6.464 5.24-11.704 11.704-11.704h473.912c6.464 0 11.704 5.24 11.704 11.704v240.497c0 6.464-5.24 11.704-11.704 11.704z" fill="#57be92"/></g><g><path d="m504.823 135.919v240.495c0 6.463-5.235 11.708-11.698 11.708h-19.94c6.463 0 11.708-5.245 11.708-11.708v-240.495c0-6.463-5.245-11.708-11.708-11.708h19.94c6.463 0 11.698 5.245 11.698 11.708z" fill="#22b27f"/></g><g><path d="m469.449 198.876v114.582c0 .779-.635 1.4-1.414 1.399-.005 0-.01 0-.014 0-20.152 0-36.579 15.913-37.428 35.849-.032.758-.638 1.363-1.396 1.363h-346.06c-.758 0-1.364-.605-1.396-1.363-.849-19.937-17.276-35.849-37.428-35.849-.005 0-.01 0-.014 0-.779 0-1.414-.621-1.414-1.399v-114.582c0-.779.635-1.4 1.414-1.399h.014c20.152 0 36.579-15.913 37.428-35.849.032-.758.638-1.363 1.396-1.363h346.06c.758 0 1.364.605 1.396 1.363.849 19.936 17.276 35.849 37.428 35.849h.014c.779-.001 1.414.62 1.414 1.399z" fill="#98d5b9"/></g><g><path d="m469.449 198.875v114.583c0 .779-.639 1.398-1.418 1.398h-.01c-20.15 0-36.583 15.914-37.432 35.854-.03.749-.629 1.358-1.389 1.358h-19.95c.759 0 1.528-.62 1.399-1.358-.45-2.537-.669-5.075-.669-7.582 0-24.166 19.84-46.173 38.091-46.173.789 0 1.428-.639 1.428-1.429v-80.318c0-.779-.639-1.418-1.408-1.418h-.02c-20.15 0-40.229-26.054-37.422-52.167.08-.749-.639-1.358-1.399-1.358h19.95c.759 0 1.359.609 1.389 1.358.849 19.94 17.282 35.854 37.432 35.854h.01c.779-.001 1.418.619 1.418 1.398z" fill="#7acaa6"/></g><g><circle cx="256.167" cy="256.167" fill="#f9f7f8" r="59.635"/></g><g><path d="m315.806 256.167c0 32.936-26.703 59.639-59.639 59.639-9.47 0-18.431-2.208-26.383-6.144 2.258.27 4.565.4 6.903.4 32.936 0 59.639-26.703 59.639-59.639 0-23.466-13.556-43.765-33.256-53.495 29.689 3.416 52.736 28.64 52.736 59.239z" fill="#efedef"/></g><g><path d="m493.123 116.707h-67.976c-4.146 0-7.507 3.361-7.507 7.507s3.361 7.507 7.507 7.507h67.976c2.315 0 4.198 1.883 4.198 4.198v240.497c0 2.315-1.883 4.198-4.198 4.198h-473.912c-2.315 0-4.198-1.883-4.198-4.198v-240.498c0-2.315 1.883-4.198 4.198-4.198h371.24c4.146 0 7.507-3.361 7.507-7.507s-3.361-7.507-7.507-7.507h-371.24c-10.593.001-19.211 8.619-19.211 19.212v240.497c0 10.593 8.618 19.211 19.211 19.211h473.912c10.593 0 19.211-8.618 19.211-19.211v-240.497c-.001-10.593-8.618-19.211-19.211-19.211z"/><path d="m438.092 161.308c-.204-4.794-4.111-8.55-8.896-8.55h-346.059c-4.784 0-8.692 3.756-8.896 8.549-.685 16.073-13.831 28.663-29.938 28.663-.002 0-.004 0-.006 0-2.361 0-4.587.911-6.267 2.567-1.71 1.686-2.653 3.937-2.653 6.339v114.582c0 2.401.942 4.652 2.653 6.339 1.68 1.656 3.906 2.567 6.276 2.567h.006c16.098 0 29.244 12.59 29.928 28.662.204 4.794 4.111 8.55 8.896 8.55h346.059c4.784 0 8.692-3.756 8.896-8.549.685-16.073 13.831-28.663 29.938-28.663h.006c2.361 0 4.587-.912 6.267-2.567 1.71-1.686 2.653-3.937 2.653-6.339v-114.582c0-2.401-.942-4.652-2.653-6.339-1.68-1.656-3.906-2.567-6.276-2.567-.002 0-.004 0-.006 0-16.097 0-29.243-12.59-29.928-28.662zm23.851 146.446c-19.407 2.601-34.896 17.504-38.227 36.808h-335.098c-3.331-19.298-18.815-34.198-38.227-36.806v-103.177c19.407-2.601 34.896-17.504 38.227-36.808h335.098c3.331 19.298 18.815 34.198 38.227 36.806z"/><path d="m256.167 189.025c-37.022 0-67.142 30.12-67.142 67.142 0 8.261 1.485 16.331 4.414 23.986 1.482 3.872 5.823 5.811 9.693 4.329 3.872-1.481 5.81-5.821 4.329-9.693-2.271-5.936-3.422-12.202-3.422-18.622 0-28.744 23.385-52.128 52.128-52.128s52.128 23.385 52.128 52.128-23.385 52.128-52.128 52.128c-10.832 0-21.214-3.288-30.027-9.511-3.386-2.39-8.07-1.584-10.462 1.803-2.391 3.386-1.584 8.071 1.803 10.462 11.359 8.02 24.736 12.259 38.686 12.259 37.022 0 67.142-30.12 67.142-67.142s-30.12-67.141-67.142-67.141z"/><ellipse cx="43.493" cy="160.873" rx="9.37" ry="9.37" transform="matrix(.987 -.16 .16 .987 -25.208 9.044)"/><circle cx="43.493" cy="351.46" r="9.37"/><circle cx="468.84" cy="160.873" r="9.37"/><ellipse cx="468.84" cy="351.46" rx="9.37" ry="9.37" transform="matrix(.987 -.16 .16 .987 -50.244 79.638)"/><path d="m161.596 248.66h-16.65c-4.146 0-7.507 3.361-7.507 7.507s3.361 7.507 7.507 7.507h16.65c4.146 0 7.507-3.361 7.507-7.507s-3.361-7.507-7.507-7.507z"/><path d="m367.387 248.66h-16.65c-4.146 0-7.507 3.361-7.507 7.507s3.361 7.507 7.507 7.507h16.65c4.146 0 7.507-3.361 7.507-7.507s-3.362-7.507-7.507-7.507z"/></g></g></svg>