<svg id="Capa_1" enable-background="new 0 0 512 512" height="512" viewBox="0 0 512 512" width="512" xmlns="http://www.w3.org/2000/svg"><g><g><g><path d="m363.756 427.815-47.234-19.26-30.143 73.923c-1.274 3.125 1.273 6.471 4.624 6.075l19.046-2.252c1.514-.179 3.013.432 3.97 1.619l12.04 14.927c2.119 2.627 6.279 2.016 7.554-1.109z" fill="#ee6161"/></g><g><path d="m367.627 427.815 47.234-19.26 30.143 73.923c1.274 3.125-1.273 6.471-4.624 6.075l-19.046-2.252c-1.514-.179-3.013.432-3.97 1.619l-12.04 14.927c-2.119 2.627-6.279 2.016-7.554-1.109z" fill="#ee6161"/></g></g><g><path d="m363.755 427.818-30.14 73.919c-1.28 3.13-5.44 3.74-7.56 1.11l-8.91-11.04 29.02-71.16z" fill="#e94444"/></g><g><path d="m440.385 488.547-16.1-1.9c-.01-.06-.04-.11-.06-.17l-28.58-70.09 19.22-7.83 30.14 73.919c1.27 3.131-1.27 6.471-4.62 6.071z" fill="#e94444"/></g><g><path d="m384.374 423.881h-303.437c-7.889 0-14.284-6.395-14.284-14.284v-387.813c0-7.889 6.395-14.284 14.284-14.284h303.437c7.889 0 14.284 6.395 14.284 14.284v387.814c-.001 7.888-6.396 14.283-14.284 14.283z" fill="#60b7ff"/></g><g><path d="m398.656 21.785v387.814c0 7.891-6.394 14.285-14.285 14.285h-20.861c7.891 0 14.285-6.394 14.285-14.285v-387.814c0-7.891-6.394-14.285-14.285-14.285h20.862c7.89 0 14.284 6.394 14.284 14.285z" fill="#26a6fe"/></g><g><path d="m311.936 43.268h-158.562c-4.394 0-8.123 3.282-8.606 7.65-1.236 11.181-6.726 31.282-29.881 37.039-3.835.954-6.504 4.436-6.504 8.389v238.689c0 3.952 2.669 7.435 6.504 8.389 23.155 5.757 28.645 25.859 29.881 37.039.483 4.368 4.212 7.65 8.606 7.65h158.562c4.394 0 8.123-3.282 8.606-7.65 1.236-11.181 6.726-31.282 29.881-37.039 3.835-.954 6.504-4.436 6.504-8.389v-238.689c0-3.952-2.669-7.435-6.504-8.389-23.155-5.757-28.645-25.859-29.881-37.039-.483-4.367-4.212-7.65-8.606-7.65z" fill="#f9f7f8"/></g><g><path d="m356.932 96.344v238.696c0 3.951-2.678 7.433-6.506 8.379-5.834 1.456-10.548 3.818-14.356 6.72v-233.432c0-3.95-2.961-6.639-6.506-8.39-28.895-14.275-31.736-46.214-32.968-57.403-.479-4.368-4.215-7.646-8.603-7.646h23.947c4.388 0 8.115 3.278 8.603 7.646 1.232 11.189 6.73 31.288 29.883 37.04 3.829.957 6.506 4.44 6.506 8.39z" fill="#efedef"/></g><g><path d="m445.094 378.632c0 9.932-13.805 17.048-17.386 25.685-3.713 8.953.877 23.714-5.87 30.461s-21.508 2.157-30.461 5.87c-8.637 3.582-15.753 17.386-25.685 17.386s-17.048-13.805-25.685-17.386c-8.953-3.713-23.714.877-30.461-5.87s-2.157-21.508-5.87-30.461c-3.582-8.637-17.386-15.753-17.386-25.685s13.805-17.048 17.386-25.685c3.713-8.953-.877-23.714 5.87-30.461s21.508-2.157 30.461-5.87c8.637-3.582 15.753-17.386 25.685-17.386s17.048 13.805 25.685 17.386c8.953 3.713 23.714-.877 30.461 5.87s2.157 21.508 5.87 30.461c3.581 8.637 17.386 15.753 17.386 25.685z" fill="#fe9738"/></g><g><path d="m445.095 378.628c0 9.94-13.81 17.05-17.39 25.69-3.71 8.95.88 23.71-5.87 30.46-6.74 6.75-21.51 2.16-30.46 5.87-8.64 3.58-15.75 17.39-25.68 17.39-6.46 0-11.72-5.83-16.98-10.89 7.99-2.5 23.291-19.973 30.681-23.033 8.69-3.6 19.089 1.933 25.629-4.617 6.55-6.54 1.346-15.926 4.956-24.615 3.47-8.38 12.305-10.024 12.305-19.664 0-9.63-8.821-10.59-12.291-18.97-3.26-7.84-4.35-30.8-8.49-37.96 7.6.25 15.79-.35 20.33 4.2 6.75 6.75 2.16 21.51 5.87 30.46 3.58 8.639 17.39 15.749 17.39 25.679z" fill="#fe860a"/></g><g><circle cx="365.692" cy="378.632" fill="#ffe3cb" r="35.866"/></g><g><path d="m401.555 378.628c0 19.81-16.06 35.87-35.86 35.87-14.08 0-26.27-8.11-32.14-19.92 5.34 3.15 11.56 4.96 18.2 4.96 19.81 0 35.87-16.06 35.87-35.87 0-5.73-1.34-11.14-3.73-15.94 10.57 6.24 17.66 17.74 17.66 30.9z" fill="#feca9c"/></g><g><path d="m172.42 112.512c0 4.142 3.358 7.5 7.5 7.5h105.472c4.143 0 7.5-3.358 7.5-7.5s-3.357-7.5-7.5-7.5h-105.472c-4.142.001-7.5 3.358-7.5 7.5z"/><path d="m143.644 153.784c0 4.142 3.358 7.5 7.5 7.5h163.022c4.143 0 7.5-3.358 7.5-7.5s-3.357-7.5-7.5-7.5h-163.022c-4.142 0-7.5 3.358-7.5 7.5z"/><path d="m314.166 187.555h-163.022c-4.142 0-7.5 3.358-7.5 7.5s3.358 7.5 7.5 7.5h163.022c4.143 0 7.5-3.358 7.5-7.5s-3.357-7.5-7.5-7.5z"/><path d="m314.166 228.826h-163.022c-4.142 0-7.5 3.358-7.5 7.5s3.358 7.5 7.5 7.5h163.022c4.143 0 7.5-3.358 7.5-7.5s-3.357-7.5-7.5-7.5z"/><path d="m314.166 270.098h-163.022c-4.142 0-7.5 3.358-7.5 7.5s3.358 7.5 7.5 7.5h163.022c4.143 0 7.5-3.358 7.5-7.5s-3.357-7.5-7.5-7.5z"/><path d="m272.443 311.369h-121.299c-4.142 0-7.5 3.358-7.5 7.5s3.358 7.5 7.5 7.5h121.299c4.143 0 7.5-3.358 7.5-7.5s-3.357-7.5-7.5-7.5z"/><path d="m451.949 479.645-19.801-48.56c1.156-4.296 1.241-8.916 1.317-13.212.071-4.039.146-8.215 1.17-10.684.931-2.245 3.734-5.116 6.445-7.892 5.13-5.254 11.514-11.793 11.514-20.666s-6.384-15.411-11.514-20.665c-2.711-2.776-5.515-5.648-6.445-7.892-1.023-2.469-1.099-6.646-1.17-10.684-.135-7.58-.288-16.17-6.324-22.207-5.715-5.715-13.716-6.156-20.984-6.302v-289.097c0-12.012-9.771-21.784-21.783-21.784h-303.437c-12.012 0-21.784 9.772-21.784 21.784v387.814c0 12.012 9.772 21.784 21.784 21.784h218.177l-19.681 48.265c-1.61 3.951-1.029 8.337 1.556 11.732 2.585 3.396 6.664 5.125 10.895 4.622l17.361-2.053 10.976 13.608c2.302 2.853 5.665 4.444 9.243 4.444.588 0 1.183-.043 1.778-.13 4.222-.62 7.703-3.349 9.314-7.3l16.728-41.022c2.554 1.212 5.338 1.986 8.407 1.986s5.853-.775 8.407-1.987l1.1 2.698c1.563 3.834 5.94 5.677 9.776 4.113 3.835-1.564 5.677-5.941 4.112-9.777l-2.691-6.6c2.764-2.699 5.619-5.479 7.854-6.406 2.469-1.024 6.645-1.098 10.683-1.17 5.346-.095 11.192-.209 16.293-2.38l14.871 36.468-13.883-1.641c-4.101-.486-8.095 1.145-10.687 4.358l-8.774 10.879-.346-.848c-1.563-3.835-5.94-5.676-9.776-4.114-3.836 1.564-5.678 5.941-4.114 9.776l2.311 5.667c1.611 3.951 5.093 6.68 9.314 7.3.597.087 1.19.13 1.778.13 3.578 0 6.941-1.592 9.243-4.445l10.975-13.608 17.363 2.053c4.235.5 8.311-1.226 10.895-4.621 2.584-3.396 3.165-7.782 1.554-11.734zm-371.012-63.264c-3.741 0-6.784-3.043-6.784-6.784v-387.813c0-3.741 3.043-6.784 6.784-6.784h303.437c3.74 0 6.783 3.043 6.783 6.784v285.89c-1.539-1.253-3.184-2.852-4.801-4.43-5.255-5.129-11.793-11.513-20.665-11.513-.428 0-.846.028-1.264.056v-195.441c0-7.439-5.015-13.882-12.195-15.667-17.723-4.407-22.962-19.065-24.236-30.587-.903-8.167-7.809-14.325-16.061-14.325h-98.94c-4.142 0-7.5 3.358-7.5 7.5s3.358 7.5 7.5 7.5h98.94c.585 0 1.092.428 1.152.974 2.504 22.65 15.453 38.503 35.525 43.494.472.118.814.584.814 1.11v202.758c-1.566 1.375-3.029 2.799-4.401 4.139-2.776 2.711-5.648 5.514-7.891 6.444-2.47 1.024-6.646 1.098-10.684 1.17-7.58.135-16.171.288-22.209 6.325-6.036 6.037-6.189 14.628-6.324 22.207-.071 4.039-.146 8.215-1.17 10.685-.931 2.245-3.734 5.116-6.445 7.893-5.129 5.254-11.513 11.793-11.513 20.664 0 .675.048 1.332.119 1.98h-125.534c-.585 0-1.091-.428-1.151-.974-2.504-22.65-15.453-38.503-35.526-43.493-.472-.117-.814-.584-.814-1.11v-238.687c0-.526.342-.993.814-1.11 20.073-4.991 33.021-20.844 35.526-43.494.061-.546.566-.974 1.151-.974h25.122c4.142 0 7.5-3.358 7.5-7.5s-3.358-7.5-7.5-7.5h-25.122c-8.253 0-15.157 6.159-16.06 14.326-1.274 11.52-6.513 26.178-24.236 30.586-7.18 1.785-12.195 8.228-12.195 15.667v238.688c0 7.439 5.015 13.882 12.195 15.667 17.724 4.407 22.962 19.065 24.236 30.585.903 8.167 7.808 14.326 16.06 14.326h133.43c1.173 1.297 2.365 2.524 3.498 3.684 2.711 2.777 5.515 5.648 6.445 7.893.898 2.166 1.066 5.644 1.142 9.191zm247.694 77.709-8.775-10.881c-2.291-2.839-5.677-4.441-9.264-4.441-.472 0-.948.028-1.425.084l-13.881 1.641 14.871-36.468c5.101 2.171 10.946 2.285 16.292 2.38 4.038.072 8.215.146 10.683 1.17 2.234.926 5.089 3.707 7.853 6.406zm92.149-92.646c-2.115 5.101-2.216 10.724-2.313 16.163-.084 4.741-.18 10.115-1.933 11.868-1.755 1.754-7.128 1.85-11.869 1.934-5.438.097-11.062.197-16.162 2.312-4.911 2.037-8.833 5.866-12.626 9.568-3.479 3.396-7.423 7.246-10.186 7.246s-6.707-3.85-10.187-7.246c-3.793-3.703-7.715-7.531-12.626-9.568-5.1-2.115-10.724-2.215-16.162-2.312-4.741-.084-10.115-.181-11.868-1.934-1.754-1.753-1.85-7.127-1.934-11.868-.097-5.438-.197-11.062-2.313-16.162-2.036-4.911-5.864-8.833-9.567-12.626-3.396-3.479-7.246-7.423-7.246-10.187s3.85-6.707 7.246-10.187c3.703-3.792 7.531-7.714 9.567-12.625 2.115-5.101 2.216-10.725 2.313-16.163.084-4.741.18-10.115 1.933-11.868 1.755-1.754 7.128-1.85 11.87-1.934 5.437-.097 11.061-.197 16.162-2.312 4.911-2.037 8.833-5.865 12.625-9.567 3.479-3.396 7.423-7.247 10.187-7.247s6.707 3.85 10.186 7.246c3.793 3.703 7.715 7.531 12.626 9.568 5.101 2.115 10.724 2.215 16.162 2.312 4.741.084 10.115.181 11.868 1.934 1.754 1.753 1.85 7.127 1.934 11.868.097 5.438.197 11.063 2.313 16.163 2.037 4.911 5.865 8.833 9.567 12.625 3.397 3.479 7.247 7.422 7.247 10.187s-3.85 6.708-7.247 10.187c-3.702 3.792-7.53 7.713-9.567 12.625z"/><path d="m365.692 335.266c-23.912 0-43.366 19.454-43.366 43.366s19.454 43.366 43.366 43.366 43.366-19.454 43.366-43.366-19.455-43.366-43.366-43.366zm0 71.732c-15.642 0-28.366-12.725-28.366-28.366s12.724-28.366 28.366-28.366c15.641 0 28.366 12.725 28.366 28.366s-12.725 28.366-28.366 28.366z"/></g></g></svg>