<svg id="Capa_1" enable-background="new 0 0 512.55 512.55" height="512" viewBox="0 0 512.55 512.55" width="512" xmlns="http://www.w3.org/2000/svg"><g><g><path d="m232.586 228.734h47.717v44.234h-47.717z" fill="#fac600"/></g><g><path d="m260.303 228.734h19.999v44.234h-19.999z" fill="#e8b800"/></g><g><path d="m162.527 8.049h187.834v184.09h-187.834z" fill="#ee6161"/></g><g><path d="m330.362 8.049h19.999v184.09h-19.999z" fill="#e94444"/></g><g><path d="m223.415 8.049h66.058v184.09h-66.058z" fill="#f9f7f8"/></g><g><path d="m269.474 8.049h19.999v184.09h-19.999z" fill="#efedef"/></g><g><path d="m368.404 228.734h-223.919c-4.275 0-7.741-3.466-7.741-7.741v-21.113c0-4.275 3.466-7.741 7.741-7.741h223.919c4.275 0 7.741 3.466 7.741 7.741v21.113c-.001 4.276-3.466 7.741-7.741 7.741z" fill="#fe9738"/></g><g><path d="m376.141 199.879v21.119c0 4.27-3.46 7.74-7.74 7.74h-20.559c4.28 0 7.74-3.47 7.74-7.74v-21.119c0-4.27-3.46-7.74-7.74-7.74h20.559c4.28 0 7.74 3.47 7.74 7.74z" fill="#fe860a"/></g><g><g><g><circle cx="256.444" cy="385.988" fill="#fe9738" r="119.061"/></g></g><g><g><path d="m267.76 326.311 11.699 23.704c1.838 3.725 5.391 6.306 9.502 6.903l26.159 3.801c10.351 1.504 14.484 14.224 6.994 21.525l-18.929 18.451c-2.974 2.899-4.331 7.076-3.629 11.17l4.469 26.053c1.768 10.309-9.052 18.171-18.31 13.303l-23.397-12.301c-3.676-1.933-8.068-1.933-11.745 0l-23.397 12.301c-9.258 4.867-20.079-2.994-18.31-13.303l4.469-26.053c.702-4.094-.655-8.271-3.629-11.17l-18.929-18.451c-7.49-7.301-3.357-20.021 6.994-21.525l26.159-3.801c4.11-.597 7.664-3.179 9.502-6.903l11.699-23.704c4.625-9.38 18-9.38 22.629 0z" fill="#fac600"/></g><g><path d="m303.187 400.696c-2.98 2.895-4.33 7.079-3.637 11.166l4.476 26.054c1.764 10.315-9.049 18.172-18.318 13.307l-9.621-5.06c2.068-2.992 3.065-6.799 2.36-10.935l-5.279-30.785c-.827-4.829.778-9.767 4.294-13.197l22.368-21.797c3.017-2.943 4.44-6.641 4.513-10.302l10.777 1.569c10.351 1.508 14.487 14.231 6.994 21.529z" fill="#e8b800"/></g></g><g><path d="m375.502 385.99c0 65.754-53.298 119.064-119.052 119.064-20.787 0-40.337-5.329-57.343-14.702 11.345 3.598 23.423 5.535 35.948 5.535 65.754 0 119.064-53.309 119.064-119.064 0-44.978-24.947-84.135-61.755-104.373 48.198 15.218 83.138 60.299 83.138 113.54z" fill="#fe860a"/></g><g><path d="m327.349 387.615c5.524-5.385 7.474-13.288 5.091-20.624-2.384-7.337-8.607-12.584-16.242-13.693l-26.159-3.801c-1.668-.243-3.108-1.29-3.854-2.801l-11.699-23.703c-3.414-6.918-10.327-11.216-18.042-11.216s-14.627 4.297-18.042 11.215l-11.699 23.704c-.746 1.511-2.187 2.558-3.854 2.801l-26.158 3.801c-7.635 1.109-13.858 6.355-16.242 13.692-2.385 7.337-.435 15.24 5.09 20.625l18.929 18.451c1.207 1.177 1.758 2.871 1.474 4.532l-4.469 26.053c-1.305 7.603 1.762 15.143 8.003 19.678 3.527 2.563 7.653 3.865 11.807 3.865 3.197 0 6.412-.771 9.381-2.332l23.397-12.301c1.491-.784 3.274-.785 4.766 0l23.398 12.301c6.828 3.589 14.947 3.003 21.189-1.532 6.241-4.535 9.307-12.074 8.003-19.678l-4.469-26.053c-.284-1.661.267-3.355 1.474-4.532zm-29.399 7.711c-4.743 4.623-6.906 11.28-5.786 17.808l4.469 26.053c.485 2.831-1.263 4.445-2.037 5.007-.775.562-2.85 1.726-5.391.39l-23.399-12.301c-2.931-1.541-6.146-2.311-9.361-2.311-3.216 0-6.431.771-9.363 2.311l-23.398 12.301c-2.541 1.336-4.617.172-5.391-.39-.774-.563-2.522-2.176-2.037-5.007l4.469-26.053c1.12-6.528-1.043-13.186-5.786-17.808l-18.929-18.451c-2.057-2.005-1.591-4.339-1.295-5.249s1.29-3.071 4.133-3.484l26.158-3.801c6.555-.952 12.218-5.067 15.149-11.006l11.699-23.704c1.271-2.576 3.635-2.854 4.591-2.854.957 0 3.32.278 4.592 2.854l11.699 23.703c2.931 5.94 8.594 10.054 15.149 11.006l26.159 3.801c2.842.413 3.837 2.575 4.133 3.485s.762 3.244-1.296 5.248z"/><path d="m368.431 235.684c8.309 0 15.044-6.736 15.044-15.044v-21.505c0-8.309-6.735-15.044-15.044-15.044h-10.74v-176.788c0-4.034-3.27-7.303-7.303-7.303h-188.227c-4.034 0-7.303 3.27-7.303 7.303v176.787h-10.739c-8.309 0-15.044 6.736-15.044 15.044v21.505c0 8.308 6.735 15.044 15.044 15.044h80.967v27.677c-54.668 13.987-95.203 63.661-95.203 122.627 0 69.786 56.776 126.561 126.562 126.561 35.442 0 69.494-15.01 93.425-41.181 2.795-3.057 2.583-7.801-.474-10.595-3.058-2.795-7.801-2.582-10.596.474-21.096 23.071-51.114 36.303-82.355 36.303-61.516 0-111.562-50.046-111.562-111.562 0-61.515 50.046-111.562 111.562-111.562s111.562 50.046 111.562 111.562c0 16.793-3.637 32.933-10.81 47.97-1.783 3.738-.198 8.215 3.54 9.998 3.741 1.786 8.217.199 9.999-3.54 8.142-17.07 12.271-35.382 12.271-54.428 0-58.966-40.535-108.64-95.203-122.627v-27.677h80.627zm-71.627-220.684h45.888v169.091h-45.888zm-126.946 0h45.888v80.309c0 3.245 2.015 6.249 5.115 7.207 5.157 1.593 9.884-2.218 9.884-7.132v-80.384h51.059v169.091h-51.059v-54.135c0-3.245-2.015-6.248-5.115-7.206-5.157-1.594-9.884 2.217-9.884 7.132v54.209h-45.888zm102.945 245.483c-5.357-.694-10.816-1.055-16.359-1.055s-11.002.361-16.359 1.055v-24.249h32.718zm-128.488-39.798v-21.595h224.116v21.595z"/></g></g></g></svg>