<svg id="Capa_1" enable-background="new 0 0 512 512" height="512" viewBox="0 0 512 512" width="512" xmlns="http://www.w3.org/2000/svg"><g><g><path d="m306.994 360.657-28.283-28.283c-1.173-1.173-1.832-2.764-1.832-4.423v-23.661c0-11.321-8.803-20.963-20.117-21.365-11.878-.422-21.64 9.081-21.64 20.865v24.162c0 1.659-.659 3.25-1.832 4.423l-28.283 28.283c-8.154 8.153-8.154 21.373 0 29.526 8.153 8.153 21.373 8.153 29.527 0l17.044-17.044c2.443-2.443 6.403-2.443 8.846 0l17.044 17.044c8.154 8.153 21.373 8.153 29.527 0 8.152-8.154 8.152-21.373-.001-29.527z" fill="#9c9c9c"/></g><g><path d="m313.112 375.422c0 5.337-2.039 10.685-6.117 14.763-6.127 6.127-15.113 7.646-22.649 4.578.4-.34.79-.7 1.16-1.07 4.078-4.078 6.117-9.415 6.117-14.763 0-5.347-2.039-10.685-6.117-14.763l-28.286-28.286c-1.169-1.169-1.829-2.759-1.829-4.418v-23.668c0-8.806-5.327-16.592-13.024-19.81 3.838-3.318 8.886-5.247 14.393-5.058 11.315.4 20.12 10.045 20.12 21.36v23.668c0 1.659.66 3.248 1.829 4.418l28.286 28.286c4.078 4.078 6.117 9.425 6.117 14.763z" fill="#838383"/></g><g><g><g><path d="m332.754 242.659c3.043 0 5.509-2.466 5.509-5.509v-21.944c0-37.155-24.634-68.551-58.459-78.76-3.741-1.129-6.328-4.533-6.328-8.441v-23.449h-34.952v23.449c0 3.907-2.587 7.312-6.328 8.441-33.825 10.209-58.459 41.605-58.459 78.76v21.944c0 3.043 2.466 5.509 5.509 5.509z" fill="#60b7ff"/></g><g><path d="m319.692 242.659v-27.457c0-30.049-21.461-50.641-51.818-61.53-7.746-2.781-12.973-10.055-12.973-18.29v-30.828h18.571v23.454c0 3.859 2.509 7.293 6.206 8.398 33.89 10.173 58.585 41.6 58.585 78.796v21.948c0 3.043-2.466 5.509-5.509 5.509z" fill="#26a6fe"/></g><g><circle cx="254.703" cy="64.427" fill="#fed2a4" r="56.93"/></g><g><path d="m311.635 64.426c0 31.438-25.49 56.928-56.928 56.928-10.601 0-20.533-2.896-29.03-7.949 4.183.983 8.549 1.505 13.036 1.505 31.447 0 56.937-25.481 56.937-56.928 0-20.837-11.201-39.065-27.908-48.98 25.16 5.887 43.893 28.473 43.893 55.424z" fill="#ffbd86"/></g></g><g><g><g><path d="m174.774 504.503c3.043 0 5.509-2.466 5.509-5.509v-19.506c0-33.855-22.446-62.462-53.267-71.764-3.408-1.029-5.766-4.131-5.766-7.691v-21.367h-31.847v21.367c0 3.56-2.357 6.662-5.766 7.691-30.821 9.302-53.267 37.909-53.267 71.764v19.506c0 3.043 2.466 5.509 5.509 5.509z" fill="#57be92"/></g><g><path d="m163.361 504.503v-25.018c0-27.38-19.555-46.143-47.215-56.064-7.058-2.534-11.82-9.162-11.82-16.666v-28.09h16.922v21.371c0 3.516 2.286 6.645 5.654 7.652 30.88 9.27 53.382 37.905 53.382 71.797v19.509c0 3.043-2.466 5.509-5.509 5.509z" fill="#09a76d"/></g><g><circle cx="104.144" cy="342.102" fill="#fed2a4" r="51.873"/></g><g><path d="m156.019 342.101c0 28.646-23.226 51.872-51.872 51.872-9.66 0-18.709-2.639-26.451-7.243 3.812.896 7.79 1.371 11.879 1.371 28.654 0 51.88-23.218 51.88-51.872 0-18.986-10.206-35.595-25.429-44.629 22.925 5.365 39.993 25.944 39.993 50.501z" fill="#ffbd86"/></g></g><g><g><path d="m476.121 504.503c3.043 0 5.509-2.466 5.509-5.509v-19.506c0-33.855-22.446-62.462-53.267-71.764-3.408-1.029-5.766-4.131-5.766-7.691v-21.367h-31.847v21.367c0 3.56-2.357 6.662-5.766 7.691-30.821 9.302-53.267 37.909-53.267 71.764v19.506c0 3.043 2.466 5.509 5.509 5.509z" fill="#57be92"/></g><g><path d="m464.708 504.503v-25.018c0-27.38-19.555-46.143-47.215-56.064-7.058-2.534-11.82-9.162-11.82-16.666v-28.09h16.922v21.371c0 3.516 2.286 6.645 5.654 7.652 30.88 9.27 53.382 37.905 53.382 71.797v19.509c0 3.043-2.466 5.509-5.509 5.509z" fill="#09a76d"/></g><g><circle cx="405.492" cy="342.102" fill="#fed2a4" r="51.873"/></g><g><path d="m457.366 342.101c0 28.646-23.226 51.872-51.872 51.872-9.66 0-18.709-2.639-26.451-7.243 3.812.896 7.79 1.371 11.879 1.371 28.654 0 51.88-23.218 51.88-51.872 0-18.986-10.206-35.595-25.429-44.629 22.925 5.365 39.993 25.944 39.993 50.501z" fill="#ffbd86"/></g><g><path d="m274.908 88.11c2.493-3.305 1.836-8.006-1.469-10.499-3.304-2.493-8.006-1.836-10.5 1.469-1.975 2.618-4.985 4.12-8.258 4.12-3.256 0-6.257-1.49-8.232-4.087-2.505-3.294-7.208-3.935-10.505-1.428-3.295 2.506-3.936 7.21-1.429 10.505 4.835 6.357 12.185 10.003 20.166 10.003 8.02-.002 15.392-3.676 20.227-10.083z"/><path d="m284.375 327.437v-23.147c0-15.376-12.267-28.321-27.347-28.857-7.774-.282-15.14 2.542-20.731 7.938-5.592 5.397-8.672 12.649-8.672 20.419v23.648l-4.735 4.735c-2.927 2.927-2.927 7.674 0 10.601 2.928 2.927 7.674 2.927 10.602 0l5.096-5.097c2.598-2.597 4.029-6.05 4.029-9.724v-24.163c0-3.665 1.452-7.085 4.091-9.63 2.635-2.544 6.112-3.868 9.786-3.743 7.106.253 12.887 6.476 12.887 13.874v23.661c0 3.674 1.431 7.127 4.027 9.723l28.283 28.283c5.218 5.218 5.218 13.708.001 18.925-2.528 2.528-5.889 3.92-9.463 3.92s-6.935-1.392-9.463-3.92l-17.042-17.042c-2.597-2.598-6.051-4.029-9.725-4.029s-7.127 1.431-9.723 4.028l-17.045 17.043c-2.527 2.528-5.888 3.92-9.462 3.92s-6.935-1.392-9.462-3.92c-4.838-4.837-5.263-12.499-.99-17.822 2.592-3.229 2.076-7.946-1.153-10.538-3.228-2.593-7.947-2.076-10.539 1.152-9.071 11.298-8.177 27.552 2.08 37.809 5.359 5.36 12.485 8.311 20.063 8.311 7.579 0 14.705-2.952 20.063-8.311l16.169-16.165 16.166 16.166c5.36 5.359 12.485 8.311 20.064 8.311 7.578 0 14.705-2.951 20.064-8.311 11.062-11.063 11.062-29.064 0-40.128z"/><path d="m179.246 250.156h153.508c7.171 0 13.005-5.834 13.005-13.005v-21.944c0-19.666-6.244-38.339-18.057-53.999-11.421-15.141-27.663-26.484-45.732-31.938-.596-.18-.998-.688-.998-1.264v-4.774c22.463-10.075 38.157-32.634 38.157-58.805.001-35.526-28.901-64.427-64.426-64.427-35.524 0-64.426 28.901-64.426 64.427 0 27.167 16.911 50.444 40.751 59.9v3.679c0 .576-.401 1.084-.998 1.264-18.069 5.454-34.312 16.796-45.732 31.938-11.814 15.66-18.058 34.333-18.058 53.999v21.944c0 7.171 5.834 13.005 13.006 13.005zm26.023-185.729c0-27.258 22.176-49.434 49.434-49.434s49.434 22.176 49.434 49.434-22.176 49.434-49.434 49.434c-27.258-.001-49.434-22.177-49.434-49.434zm-24.036 150.779c0-16.382 5.198-31.932 15.034-44.97 9.52-12.62 23.049-22.072 38.095-26.613 6.894-2.081 11.543-8.24 11.649-15.372 2.845.386 5.743.603 8.692.603 3.848 0 7.612-.358 11.277-1.008v.161c0 7.237 4.685 13.513 11.658 15.617 15.046 4.541 28.575 13.992 38.094 26.613 9.835 13.038 15.034 28.589 15.034 44.97v19.957h-21.846v-28.522c0-4.14-3.356-7.496-7.496-7.496s-7.496 3.356-7.496 7.496v28.522h-75.854v-29.678c0-4.14-3.356-7.496-7.496-7.496-4.141 0-7.496 3.356-7.496 7.496v29.678h-21.848v-19.958z"/><path d="m129.181 400.548c-.216-.065-.435-.25-.435-.514v-3.92c20.489-9.37 34.767-30.048 34.767-54.011 0-32.737-26.634-59.37-59.369-59.37-32.737 0-59.37 26.633-59.37 59.37 0 24.875 15.384 46.212 37.132 55.032v2.899c0 .265-.219.449-.435.514-16.599 5.01-31.519 15.428-42.01 29.337-10.852 14.386-16.588 31.538-16.588 49.604v19.506c0 7.171 5.834 13.005 13.005 13.005h138.894c7.171 0 13.005-5.834 13.005-13.005v-19.506c0-18.065-5.735-35.218-16.586-49.604-10.491-13.909-25.41-24.328-42.01-29.337zm-69.414-58.446c0-24.469 19.908-44.377 44.378-44.377s44.377 19.908 44.377 44.377-19.907 44.377-44.377 44.377-44.378-19.907-44.378-44.377zm113.019 154.905h-18.574v-25.323c0-4.14-3.356-7.496-7.497-7.496-4.14 0-7.496 3.356-7.496 7.496v25.323h-67.785v-26.376c0-4.14-3.356-7.496-7.496-7.496-4.141 0-7.496 3.356-7.496 7.496v26.376h-18.576v-17.518c0-14.781 4.69-28.811 13.564-40.575 8.591-11.387 20.797-19.916 34.372-24.013 6.321-1.907 10.658-7.419 11.058-13.892 2.389.294 4.817.463 7.285.463 3.281 0 6.497-.279 9.635-.794.27 6.615 4.643 12.283 11.07 14.223 13.575 4.097 25.782 12.625 34.372 24.013 8.874 11.763 13.563 25.794 13.563 40.575v17.518z"/><path d="m481.629 484.888c-4.141 0-7.496 3.356-7.496 7.496v4.622h-18.574v-25.323c0-4.14-3.356-7.496-7.496-7.496s-7.496 3.356-7.496 7.496v25.323h-67.785v-26.376c0-4.14-3.356-7.496-7.496-7.496-4.141 0-7.497 3.356-7.497 7.496v26.376h-18.575v-17.518c0-14.781 4.69-28.811 13.563-40.575 8.591-11.387 20.798-19.916 34.372-24.013 6.321-1.907 10.658-7.419 11.058-13.892 2.389.294 4.817.463 7.285.463 3.281 0 6.498-.279 9.636-.794.27 6.615 4.642 12.283 11.07 14.223 21.444 6.472 38.225 23.102 44.892 44.486 1.232 3.952 5.433 6.156 9.388 4.925 3.952-1.232 6.157-5.435 4.925-9.388-8.148-26.138-28.663-46.466-54.875-54.377-.216-.065-.434-.25-.434-.514v-3.92c20.489-9.37 34.767-30.048 34.767-54.011 0-32.737-26.633-59.37-59.369-59.37s-59.369 26.633-59.369 59.37c0 24.875 15.384 46.212 37.131 55.032v2.899c0 .265-.219.449-.436.514-16.599 5.01-31.519 15.428-42.01 29.337-10.852 14.386-16.587 31.538-16.587 49.604v19.506c0 7.171 5.835 13.005 13.006 13.005h138.893c7.171 0 13.005-5.834 13.005-13.005v-6.61c.001-4.138-3.355-7.495-7.496-7.495zm-120.514-142.786c0-24.469 19.907-44.377 44.377-44.377s44.377 19.908 44.377 44.377-19.907 44.377-44.377 44.377-44.377-19.907-44.377-44.377z"/></g></g></g></g></g></svg>