<svg id="Capa_1" enable-background="new 0 0 512.474 512.474" height="512" viewBox="0 0 512.474 512.474" width="512" xmlns="http://www.w3.org/2000/svg"><g><g><g><path d="m180.596 155.769c-4.251-1.276-7.135-5.227-7.135-9.665v-26.97h-40.2v26.97c0 4.439-2.884 8.389-7.135 9.665-38.977 11.696-67.38 47.843-67.38 90.629v75.601c0 11.675 9.465 21.14 21.14 21.14s21.14-9.465 21.14-21.14l.092 156.979c0 14.357 11.691 25.995 26.113 25.995 14.422 0 26.113-11.638 26.113-25.995h.036c0 14.357 11.691 25.995 26.113 25.995s26.113-11.638 26.113-25.995v-156.99l.092.01c0 11.675 9.465 21.14 21.14 21.14 11.675 0 21.14-9.465 21.14-21.14v-75.601c-.002-42.785-28.404-78.932-67.382-90.628z" fill="#60b7ff"/></g><g><g><path d="m247.977 246.394v75.603c0 5.835-2.365 11.128-6.189 14.952s-9.117 6.189-14.952 6.189c-3.897 0-7.544-1.052-10.68-2.897 1.563-.906 3.001-2.021 4.272-3.293 3.824-3.824 6.189-9.117 6.189-14.952v-75.603c0-34.561-24.683-58.245-59.599-70.769-8.909-3.199-14.921-11.565-14.921-21.037v-35.457h21.36v26.976c0 4.439 2.886 8.388 7.137 9.659 38.98 11.702 67.383 47.847 67.383 90.629z" fill="#26a6fe"/></g></g><g><circle cx="151.869" cy="72.979" fill="#fed2a4" r="65.479"/></g><g><path d="m217.349 72.978c0 36.159-29.317 65.476-65.476 65.476-12.193 0-23.616-3.331-33.388-9.142 4.811 1.13 9.833 1.73 14.994 1.73 36.169 0 65.486-29.307 65.486-65.476 0-23.966-12.883-44.931-32.098-56.334 28.937 6.771 50.482 32.748 50.482 63.746z" fill="#ffbd86"/></g></g><g><path d="m352.979 268.948h-184.817c-10.571 0-19.141-8.57-19.141-19.141 0-10.571 8.57-19.141 19.141-19.141h184.818v38.282z" fill="#fee45a"/></g><g><path d="m352.978 230.662v19.14h-184.82c-5.28 0-10.07 2.14-13.53 5.61-1.18 1.18-2.21 2.51-3.04 3.97-1.64-2.81-2.57-6.09-2.57-9.58 0-5.28 2.14-10.07 5.61-13.53 3.46-3.47 8.25-5.61 13.53-5.61z" fill="#fed402"/></g><g><path d="m420.455 214.533c-4.957-.283-9.704.464-14.056 2.039-2.007.726-4.163-.484-4.598-2.574-3.533-17-19.273-29.525-37.646-27.976-16.945 1.428-30.664 15.114-32.131 32.055-1.001 11.564 3.577 22.088 11.337 29.197 1.483 1.359 1.483 3.706 0 5.065-7.761 7.109-12.339 17.635-11.337 29.199 1.468 16.941 15.189 30.627 32.133 32.054 18.372 1.547 34.11-10.977 37.644-27.976.435-2.092 2.595-3.299 4.604-2.573 3.743 1.354 7.779 2.095 11.99 2.095 19.657 0 35.565-16.052 35.33-35.763-.218-18.38-14.918-33.794-33.27-34.842z" fill="#fac600"/></g><g><path d="m453.728 249.372c.14 11.96-5.66 22.57-14.63 29.08.88-3.15 1.33-6.49 1.29-9.94-.21-18.38-14.91-33.79-33.27-34.84-4.95-.28-9.7.47-14.05 2.04-2.01.73-4.17-.48-4.6-2.57-3.53-17-19.27-29.53-37.65-27.98-6.53.56-12.59 2.92-17.64 6.61 3.86-13.93 16.19-24.5 30.98-25.75 18.37-1.55 34.11 10.98 37.64 27.98.44 2.09 2.59 3.3 4.6 2.57 4.35-1.58 9.1-2.32 14.06-2.04 18.349 1.05 33.049 16.46 33.27 34.84z" fill="#e8b800"/></g><g><path d="m169.919 91.509c-3.295-2.507-8.002-1.869-10.51 1.429-1.805 2.373-4.546 3.733-7.521 3.733-2.989 0-5.738-1.372-7.543-3.763-2.493-3.307-7.197-3.963-10.504-1.469-3.307 2.495-3.964 7.198-1.469 10.504 4.665 6.182 11.778 9.728 19.516 9.728 7.701 0 14.794-3.518 19.46-9.652 2.508-3.297 1.868-8.002-1.429-10.51z"/><path d="m420.883 207.045c-4.37-.251-8.673.152-12.845 1.195-5.975-18.841-24.386-31.388-44.513-29.693-20.448 1.724-37.203 18.439-38.973 38.882-.167 1.927-.193 3.84-.109 5.736h-22.473c-4.143 0-7.5 3.358-7.5 7.5s3.357 7.5 7.5 7.5h25.9c1.818 4.219 4.313 8.151 7.453 11.641-3.139 3.49-5.635 7.423-7.453 11.642h-159.708c-6.419 0-11.642-5.223-11.642-11.642s5.223-11.641 11.642-11.641h99.476c4.143 0 7.5-3.358 7.5-7.5s-3.357-7.5-7.5-7.5h-14.805c-3.192-13.775-9.239-26.737-17.945-38.261-13.025-17.24-31.541-30.139-52.136-36.318-1.054-.316-1.79-1.336-1.79-2.481v-6.214c25.801-11.262 43.886-37.009 43.886-66.911 0-40.242-32.739-72.98-72.979-72.98s-72.979 32.738-72.979 72.979c0 31.043 19.491 57.604 46.871 68.132v4.994c0 1.145-.736 2.165-1.791 2.481-10.216 3.065-19.857 7.708-28.657 13.798-3.405 2.357-4.256 7.029-1.898 10.435 2.356 3.405 7.027 4.257 10.436 1.899 7.504-5.194 15.725-9.152 24.431-11.765 7.348-2.204 12.48-9.132 12.48-16.849v-.991c3.623.556 7.332.844 11.107.844 4.821 0 9.53-.482 14.093-1.378v1.525c0 7.716 5.132 14.644 12.479 16.849 17.563 5.271 33.359 16.277 44.478 30.993 6.7 8.868 11.526 18.744 14.41 29.219h-69.167c-14.69 0-26.642 11.951-26.642 26.641s11.951 26.642 26.642 26.642h29.943v202.53c0 10.199-8.35 18.496-18.613 18.496s-18.612-8.297-18.612-18.496v-141.151c0-4.142-3.357-7.5-7.499-7.5-.001 0 0 0-.001 0-4.141 0-7.499 3.357-7.5 7.498l-.036 141.153c0 10.199-8.35 18.496-18.613 18.496s-18.612-8.297-18.612-18.496v-243.761c0-4.142-3.357-7.5-7.5-7.5s-7.5 3.358-7.5 7.5l-.092 86.782c0 7.521-6.119 13.64-13.64 13.64s-13.641-6.119-13.641-13.64v-75.601c0-17.384 5.104-34.165 14.76-48.527 2.311-3.438 1.397-8.098-2.04-10.409-3.438-2.312-8.098-1.399-10.409 2.04-11.324 16.846-17.311 36.52-17.311 56.896v75.601c0 15.792 12.848 28.64 28.641 28.64 4.973 0 9.652-1.276 13.731-3.514v131.854c0 18.47 15.078 33.496 33.612 33.496 10.541 0 19.964-4.86 26.132-12.449 6.167 7.59 15.589 12.449 26.13 12.449 18.534 0 33.613-15.026 33.613-33.496v-131.855c4.079 2.238 8.759 3.514 13.731 3.514 15.792 0 28.64-12.848 28.64-28.64v-45.551h68.967c-.084 1.896-.058 3.81.109 5.737 1.771 20.443 18.526 37.158 38.975 38.88 1.221.103 2.432.153 3.637.153 18.682 0 35.264-12.149 40.874-29.847 3.375.842 6.844 1.267 10.358 1.267 11.537 0 22.358-4.52 30.468-12.728 8.109-8.206 12.499-19.082 12.36-30.625-.266-22.408-17.986-40.963-40.341-42.239zm-269.014-76.088c-31.97 0-57.979-26.009-57.979-57.979s26.009-57.978 57.979-57.978 57.979 26.009 57.979 57.979-26.009 57.978-57.979 57.978zm88.607 191.042c0 7.521-6.119 13.64-13.64 13.64s-13.64-6.119-13.64-13.64c0-.198-.025-23.384-.049-45.551h27.328v45.551zm197.718-52.631c-5.27 5.333-12.301 8.271-19.798 8.271-3.24 0-6.416-.555-9.441-1.648-3.002-1.085-6.32-.818-9.099.734-2.78 1.553-4.747 4.237-5.398 7.366-2.856 13.742-15.599 23.213-29.672 22.028-13.269-1.117-24.141-11.962-25.29-25.228-.757-8.737 2.498-17.128 8.932-23.021 2.253-2.064 3.545-5.002 3.546-8.06 0-3.059-1.291-5.998-3.546-8.065-6.434-5.893-9.688-14.283-8.932-23.02 1.148-13.265 12.021-24.111 25.289-25.229.795-.067 1.585-.1 2.371-.1 13.1 0 24.607 9.164 27.302 22.126.649 3.129 2.616 5.814 5.396 7.369 2.778 1.552 6.092 1.821 9.098.734 3.541-1.281 7.268-1.822 11.075-1.604 14.518.829 26.025 12.884 26.199 27.444.089 7.502-2.762 14.571-8.032 19.903z"/><path d="m392.807 237.33c-4.143 0-7.5 3.358-7.5 7.5v9.952c0 4.142 3.357 7.5 7.5 7.5s7.5-3.358 7.5-7.5v-9.952c0-4.142-3.357-7.5-7.5-7.5z"/></g></g></svg>