<svg id="Capa_1" enable-background="new 0 0 512.157 512.157" height="512" viewBox="0 0 512.157 512.157" width="512" xmlns="http://www.w3.org/2000/svg"><g><g><g><circle cx="256.081" cy="121.715" fill="#57be92" r="114.216"/></g><g><path d="m370.295 121.714c0 60.913-47.681 110.688-107.753 114.023 50.496-13.333 87.719-59.331 87.719-114.023 0-54.693-37.223-100.691-87.719-114.023 60.072 3.336 107.753 53.11 107.753 114.023z" fill="#22b27f"/></g><g><g><path d="m256.59 235.909c29.856-23.88 49.686-66.102 49.686-114.194s-19.838-90.312-49.694-114.193h-1.003c-29.856 23.881-49.694 66.102-49.694 114.194s19.83 90.313 49.686 114.194h1.019z" fill="#60b7ff"/></g></g><g><g><path d="m306.276 121.714c0 48.092-19.834 90.313-49.684 114.194h-1.022c-3.296-2.634-6.461-5.489-9.506-8.554 24.481-24.712 40.178-62.857 40.178-105.639s-15.697-80.917-40.178-105.629c3.045-3.065 6.221-5.93 9.516-8.565h1.002c29.861 23.88 49.694 66.102 49.694 114.193z" fill="#26a6fe"/></g></g></g><g><path d="m73.759 207.463-5.712-45.727c-1.59-11.504 7.494-21.698 19.104-21.44 9.618.214 17.534 7.631 18.372 17.215l4.527 103.509-27.603 4.529z" fill="#af6837"/></g><g><path d="m110.053 261.021-14.713 2.411-7.043-104.054c-.451-5.169-2.815-9.757-6.361-13.072-1.432-1.342-3.065-2.484-4.838-3.366 2.925-1.753 6.361-2.725 10.057-2.644 4.808.1 9.196 2.013 12.481 5.089 3.286 3.085 5.469 7.332 5.89 12.131z" fill="#9b592d"/></g><g><path d="m201.903 504.657c-9.066-30.642-22.36-78.624-11.848-109.367 9.587-28.035-1.185-53.973-22.12-79.461-3.738-4.55-34.627-44.696-46.404-60.17-6.562-9.824-19.845-12.469-29.669-5.907-7.006 4.679-10.336 12.774-9.305 20.598l-.141-.239-17.818-128.946c-.627-13.159-10.678-23.934-23.761-25.473-15.991-1.882-30.051 10.591-30.089 26.693 5.417 43.606 14.486 86.657 20.239 130.214 4.541 34.378 4.599 69.042 31.894 95.067 11.067 10.552 23.739 19.538 33.152 31.739 5.375 6.967 7.404 15.723 8.015 24.344.769 10.846-8.773 80.909-8.773 80.909h106.628z" fill="#d88a55"/></g><g><path d="m201.898 504.653h-22.528c-8.895-30.632-19.944-74.546-10.087-103.345 9.586-28.038-1.182-53.971-22.117-79.465-3.746-4.548-34.629-44.696-46.409-60.162-3.065-4.588-7.583-7.613-12.541-8.855 1.072-1.142 2.294-2.174 3.646-3.075 9.827-6.561 23.109-3.917 29.67 5.91 11.78 15.476 42.662 55.614 46.409 60.172 20.925 25.483 31.704 51.417 22.117 79.455-10.518 30.742 2.775 78.723 11.84 109.365z" fill="#c57a44"/></g><g><g><path d="m438.399 207.463 5.712-45.727c1.59-11.504-7.494-21.698-19.104-21.44-9.618.214-17.534 7.631-18.372 17.215l-4.527 103.509 27.603 4.529z" fill="#af6837"/></g><g><path d="m444.107 161.732-5.71 45.727-8.685 58.088-14.551-2.391 5.866-55.698 5.72-45.727c1.132-8.234-3.195-15.797-10.017-19.323 2.484-1.292 5.299-2.053 8.274-2.114 11.611-.259 20.696 9.939 19.103 21.438z" fill="#9b592d"/></g><g><path d="m310.255 504.657c9.066-30.642 22.36-78.624 11.848-109.367-9.587-28.035 1.185-53.973 22.12-79.461 3.738-4.55 34.627-44.696 46.405-60.17 6.562-9.824 19.845-12.469 29.669-5.907 7.006 4.679 10.336 12.774 9.305 20.598l.141-.239 17.818-128.946c.627-13.159 10.678-23.934 23.761-25.473 15.991-1.882 30.051 10.591 30.089 26.693-5.417 43.606-14.486 86.657-20.239 130.214-4.541 34.378-4.599 69.042-31.894 95.067-11.067 10.552-23.739 19.538-33.152 31.739-5.375 6.967-7.404 15.723-8.015 24.344-.769 10.846 8.773 80.909 8.773 80.909h-106.629z" fill="#d88a55"/></g><g><path d="m501.415 142.379c-5.419 43.614-14.495 86.657-20.244 130.221-4.538 34.378-4.598 69.037-31.894 95.061-11.069 10.558-23.74 19.543-33.146 31.744-5.379 6.962-7.413 15.727-8.024 24.341-.761 10.848 8.775 80.907 8.775 80.907h-20.034s-9.536-78.543-8.775-89.381c.611-8.625 2.644-17.379 8.024-24.351 9.406-12.191 22.077-21.186 33.146-31.734 27.296-26.024 23.67-45.076 31.894-86.587 8.54-43.104 14.825-86.607 20.244-130.221-.03-11.409-7.102-21.006-16.919-24.942 2.154-.871 4.458-1.462 6.862-1.743 15.987-1.883 30.051 10.588 30.091 26.685z" fill="#c57a44"/></g><g><path d="m360.052 184.769c11.369-18.714 17.745-40.461 17.745-63.053 0-29.758-10.854-58.405-30.563-80.662-2.747-3.101-7.486-3.39-10.588-.643-3.101 2.746-3.389 7.486-.643 10.587 2.682 3.029 5.154 6.207 7.455 9.488-10.333 8.215-22 14.81-34.597 19.637-5.829-24.071-16.676-45.799-31.586-63.002 11.878 2.398 23.293 6.8 33.725 13.075 3.549 2.136 8.157.989 10.292-2.561 2.135-3.549.988-8.158-2.562-10.293-18.861-11.345-40.525-17.342-62.649-17.342-6.216 0-12.431.47-18.575 1.415-39.852 6.13-74.774 32.639-91.734 68.871-2.487 5.313-4.588 10.807-6.278 16.425-3.41 11.338-5.129 23.166-5.129 35.004 0 11.871 1.729 23.733 5.158 35.1 1.699 5.632 3.811 11.139 6.312 16.464 17.39 37.032 53.394 63.655 94.072 69.082 5.36.715 10.767 1.07 16.174 1.07 19.441 0 38.77-4.696 56.016-13.677 20.086-10.458 36.538-26.192 47.955-44.985zm-48.262-89.726c14.321-5.211 27.625-12.472 39.447-21.601 7.531 14.842 11.56 31.347 11.56 48.274 0 17.366-4.172 33.774-11.563 48.28-11.822-9.129-25.125-16.389-39.445-21.6 1.309-8.695 1.987-17.618 1.987-26.681 0-9.059-.678-17.98-1.986-26.672zm-13.014 26.672c0 7.534-.517 14.952-1.5 22.198-13.175-3.387-27.012-5.147-41.195-5.147-14.184 0-28.022 1.759-41.196 5.143-.982-7.245-1.5-14.661-1.5-22.194 0-7.53.517-14.945 1.499-22.188 13.175 3.386 27.013 5.146 41.196 5.146s28.021-1.76 41.196-5.148c.983 7.244 1.5 14.659 1.5 22.19zm-42.695-104.785c18.72 16.667 32.103 40.549 38.48 67.809-12.265 3.249-25.199 4.934-38.48 4.934s-26.215-1.684-38.48-4.931c6.376-27.261 19.76-51.144 38.48-67.812zm-21.189.186c-14.913 17.205-25.761 38.936-31.591 63.011-12.592-4.823-24.256-11.411-34.587-19.618 15.438-21.973 38.943-37.884 66.178-43.393zm-85.527 104.599c0-17.359 4.169-33.761 11.554-48.263 11.824 9.127 25.13 16.385 39.452 21.594-1.308 8.691-1.986 17.611-1.986 26.669 0 9.06.678 17.98 1.986 26.672-14.324 5.208-27.63 12.465-39.453 21.59-7.384-14.501-11.553-30.903-11.553-48.262zm19.347 61.206c10.33-8.205 21.994-14.792 34.588-19.614 5.828 24.074 16.674 45.803 31.583 63.007-27.231-5.511-50.733-21.422-66.171-43.393zm87.369 43.587c-18.72-16.665-32.104-40.549-38.48-67.813 12.264-3.246 25.198-4.928 38.48-4.928 13.281 0 26.215 1.685 38.479 4.933-6.377 27.261-19.76 51.143-38.479 67.808zm52.779-63.192c12.589 4.825 24.249 11.414 34.578 19.622-15.438 21.962-38.935 37.867-66.16 43.376 14.908-17.202 25.753-38.928 31.582-62.998z"/><path d="m197.152 397.717c9.443-27.62 1.782-55.962-23.421-86.647-2.63-3.201-7.355-3.664-10.557-1.036-3.2 2.629-3.664 7.355-1.035 10.556 21.934 26.703 28.549 49.669 20.819 72.274-10.455 30.574.912 76.358 8.934 104.293h-88.046c2.597-19.626 8.342-64.636 7.682-73.939-.842-11.862-3.968-21.15-9.558-28.396-6.779-8.787-14.985-15.891-22.922-22.761-3.85-3.333-7.485-6.481-10.992-9.825-21.563-20.56-24.646-47.622-27.912-76.273-.534-4.69-19.078-121.474-21.892-144 .13-5.449 2.439-10.428 6.534-14.06 4.203-3.729 9.588-5.422 15.172-4.764 9.481 1.116 16.693 8.846 17.147 18.381.011.224 18.037 130.434 18.158 130.824.648 3.873 2.091 7.674 4.395 11.152l31.691 50.328c1.426 2.264 3.862 3.504 6.354 3.504 1.366 0 2.749-.373 3.989-1.154 3.506-2.208 4.558-6.838 2.351-10.343l-31.742-50.408c-.036-.057-.072-.113-.109-.169-4.255-6.37-2.534-15.013 3.836-19.267 6.366-4.254 15.013-2.533 19.266 3.836.086.128.176.254.27.377 5.502 7.228 15.561 20.345 25.029 32.64 2.527 3.281 7.236 3.895 10.519 1.366 3.282-2.527 3.894-7.236 1.366-10.518-9.38-12.179-19.335-25.16-24.849-32.402-2.729-4.012-6.303-7.118-10.325-9.248l-4.291-84.907c-.005-.092-.011-.184-.019-.275-1.173-13.417-12.212-23.761-25.677-24.06-5.582-.119-11.019 1.543-15.551 4.667-2.212-15.329-14.382-27.378-30.054-29.222-9.746-1.145-19.541 1.93-26.881 8.44-7.339 6.511-11.562 15.872-11.585 25.684-.001.315 21.467 140.67 21.994 145.295 3.424 30.048 6.965 61.118 32.464 85.432 3.769 3.592 7.712 7.007 11.526 10.309 7.716 6.68 15.003 12.989 20.863 20.583 3.729 4.833 5.846 11.471 6.471 20.293.521 7.336-5.074 52.574-8.723 79.366-.292 2.146.357 4.313 1.782 5.945 1.424 1.631 3.483 2.567 5.649 2.567h106.628c2.366 0 4.593-1.116 6.009-3.012 1.416-1.895 1.854-4.348 1.183-6.616-7.192-24.315-22.162-74.916-11.94-104.81zm-118.903-246.122c2.218-2.49 5.413-3.87 8.736-3.801 5.763.128 10.495 4.526 11.056 10.25l4.076 80.661c-4.99.273-9.972 1.838-14.421 4.809-.431.288-.85.586-1.261.893l-5.242-37.936-5.717-45.762c-.456-3.302.554-6.625 2.773-9.114z"/><path d="m497.326 116.684c-7.339-6.511-17.125-9.587-26.882-8.441-15.672 1.844-27.841 13.892-30.053 29.22-4.529-3.123-9.961-4.787-15.55-4.664-13.465.299-24.504 10.642-25.679 24.059-.008.092-4.307 85.157-4.307 85.157-4.106 2.174-7.643 5.329-10.326 9.274-12.341 16.21-42.517 55.416-46.103 59.782-25.204 30.685-32.865 59.028-23.421 86.648 10.222 29.893-4.748 80.494-11.942 104.812-.672 2.269-.233 4.721 1.183 6.616 1.416 1.896 3.643 3.012 6.009 3.012h106.629c2.166 0 4.226-.936 5.649-2.567 1.425-1.631 2.074-3.799 1.782-5.945-3.648-26.792-9.244-72.03-8.724-79.366.625-8.821 2.742-15.459 6.472-20.293 5.858-7.594 13.146-13.903 20.862-20.583 3.814-3.302 7.759-6.717 11.527-10.31 25.497-24.313 29.038-55.382 32.463-85.428.527-4.626 1.072-9.41 1.69-14.085 2.72-20.594 6.256-41.486 9.676-61.689 3.791-22.401 7.711-45.564 10.57-68.582.039-.313.059-.627.058-.942-.021-9.813-4.244-19.174-11.583-25.685zm-83.21 41.361c.562-5.725 5.294-10.123 11.058-10.25 3.336-.07 6.517 1.311 8.735 3.8 2.218 2.49 3.229 5.813 2.76 9.213l-10.946 83.599c-.411-.307-.831-.604-1.261-.891-4.362-2.913-9.317-4.55-14.42-4.829zm57.897 127.922c-3.266 28.65-6.35 55.711-27.911 76.271-3.507 3.344-7.144 6.492-10.994 9.825-7.936 6.87-16.142 13.974-22.921 22.761-5.59 7.246-8.717 16.534-9.558 28.395-.659 9.303 5.086 54.313 7.683 73.939h-88.047c8.021-27.936 19.389-73.721 8.935-104.293-7.73-22.605-1.114-45.571 20.819-72.274 3.897-4.745 35.487-45.819 46.576-60.388.094-.123.184-.249.27-.377 4.253-6.369 12.897-8.091 19.266-3.836 6.37 4.254 8.091 12.897 3.836 19.267-.037.056-.073.112-.109.169l-31.743 50.408c-2.207 3.505-1.155 8.136 2.351 10.343 3.506 2.206 8.136 1.155 10.343-2.35l31.694-50.33c2.294-3.462 4.618-11.987 4.67-12.357 0 0 17.87-129.393 17.881-129.617.454-9.535 7.665-17.266 17.146-18.381 5.57-.657 10.969 1.034 15.174 4.765 4.094 3.632 6.403 8.611 6.532 14.06-2.815 22.523-21.358 139.308-21.893 144z"/></g></g></g></svg>