<svg id="Capa_1" enable-background="new 0 0 512.9 512.9" height="512" viewBox="0 0 512.9 512.9" width="512" xmlns="http://www.w3.org/2000/svg"><g><g><path d="m255.986 164.582c-8.672-.445-137.169-4.704-246.002 126.043-3.328 3.998-3.328 10.116 0 14.114 108.834 130.748 237.331 126.488 246.002 126.043.313-.016.615-.016.929 0 8.672.445 137.168 4.704 246.002-126.043 3.328-3.998 3.328-10.116 0-14.114-108.834-130.748-237.33-126.488-246.002-126.043-.314.016-.616.016-.929 0z" fill="#d8ecfe"/></g><g><path d="m502.92 304.74c-71.47 85.86-151.41 113.5-200.34 122.23 50.22-18.58 110.93-54.02 166.99-121.37 3.73-4.48 3.73-11.35 0-15.84-56.08-67.36-116.8-102.8-167.03-121.38 48.92 8.73 128.89 36.36 200.38 122.24 3.32 4 3.32 10.12 0 14.12z" fill="#c4e2ff"/></g><g><circle cx="256.45" cy="297.682" fill="#f9f7f8" r="133.143"/></g><g><path d="m389.59 297.68c0 73.53-59.61 133.14-133.14 133.14-22.94 0-44.53-5.8-63.37-16.02 13.97 4.98 29.02 7.69 44.7 7.69 73.54 0 133.15-59.61 133.15-133.14 0-50.58-28.2-94.57-69.74-117.1 51.52 18.37 88.4 67.6 88.4 125.43z" fill="#efedef"/></g><g><circle cx="256.45" cy="297.655" fill="#9c9c9c" r="96.9"/></g><g><path d="m353.35 297.66c0 53.51-43.38 96.9-96.9 96.9-20.77 0-40.01-6.54-55.78-17.66 11.74 5.06 24.68 7.86 38.28 7.86 53.52 0 96.9-43.39 96.9-96.9 0-32.77-16.26-61.74-41.16-79.26 34.5 14.82 58.66 49.12 58.66 89.06z" fill="#838383"/></g><g><circle cx="256.45" cy="297.655" fill="#5a5a5a" r="61.612"/></g><g><path d="m318.06 297.66c0 34.02-27.58 61.61-61.61 61.61-17.23 0-32.8-7.07-43.98-18.47 8.28 4.14 17.62 6.47 27.5 6.47 34.03 0 61.62-27.59 61.62-61.61 0-16.8-6.73-32.05-17.65-43.16 20.23 10.1 34.12 31.01 34.12 55.16z" fill="#444"/></g><g><circle cx="289.57" cy="265.521" fill="#f9f7f8" r="22.336"/></g><g><path d="m311.91 265.52c0 12.34-10 22.34-22.34 22.34-7.4 0-13.95-3.59-18.01-9.13.5.04 1 .06 1.51.06 12.34 0 22.34-10 22.34-22.34 0-4.94-1.6-9.51-4.33-13.21 11.64.77 20.83 10.45 20.83 22.28z" fill="#efedef"/></g><g><g><path d="m68.785 7.81h-50.452c-5.471 0-10.296 4.8-10.327 10.272l.099 50.408c-.016 2.961 2.38 5.371 5.341 5.371h23.532c2.95 0 5.341-2.391 5.341-5.341v-23.204c0-1.801 1.46-3.262 3.262-3.262h23.203c2.95 0 5.341-2.391 5.341-5.341v-23.562c.001-2.95-2.39-5.341-5.34-5.341z" fill="#9c9c9c"/></g></g><g><path d="m444.215 7.81h50.452c5.471 0 10.197 4.419 10.227 9.891v50.789c.016 2.961-2.38 5.371-5.341 5.371h-23.532c-2.95 0-5.341-2.391-5.341-5.341v-23.204c0-1.801-1.46-3.262-3.262-3.262h-23.203c-2.95 0-5.341-2.391-5.341-5.341v-23.562c-.001-2.95 2.391-5.341 5.341-5.341z" fill="#9c9c9c"/></g><g><path d="m504.89 68.486c.02 2.961-2.381 5.372-5.342 5.372h-19.958c2.961 0 5.352-2.411 5.342-5.372l-.29-50.782c-.03-5.472-4.472-9.894-9.944-9.894h19.968c5.472 0 10.195 4.422 10.224 9.894z" fill="#838383"/></g><g><path d="m68.404 505.09h-50.452c-5.471 0-9.915-4.419-9.946-9.891v-50.789c-.016-2.961 2.098-5.371 5.059-5.371h23.532c2.95 0 5.341 2.391 5.341 5.341v23.203c0 1.801 1.46 3.262 3.262 3.262h23.203c2.95 0 5.341 2.391 5.341 5.341v23.562c.001 2.951-2.39 5.342-5.34 5.342z" fill="#9c9c9c"/></g><g><g><path d="m444.496 505.09h50.452c5.471 0 9.915-4.419 9.946-9.891v-50.789c.016-2.961-2.098-5.371-5.059-5.371h-23.532c-2.95 0-5.341 2.391-5.341 5.341v23.203c0 1.801-1.46 3.262-3.262 3.262h-23.203c-2.95 0-5.341 2.391-5.341 5.341v23.562c-.001 2.951 2.39 5.342 5.34 5.342z" fill="#9c9c9c"/></g><g><path d="m504.892 444.411v50.792c-.03 5.472-4.472 9.884-9.944 9.884h-19.968c5.472 0 9.914-4.412 9.944-9.884l.29-50.792c.01-2.961-2.381-5.372-5.342-5.372h19.958c2.961-.001 5.082 2.41 5.062 5.372z" fill="#838383"/></g><g><path d="m434.417 360.195c-3.306 2.495-3.963 7.198-1.468 10.504 2.494 3.305 7.198 3.963 10.504 1.468 23.371-17.639 45.317-38.71 65.228-62.631 5.625-6.758 5.625-16.951 0-23.71-46.364-55.699-101.544-94.24-164.007-114.553-39.159-12.734-80.731-17.507-121.418-12.406-18.682 2.342-37.128 6.584-55.03 12.406-62.463 20.313-117.643 58.854-164.007 114.554-5.625 6.758-5.625 16.951 0 23.71 46.364 55.699 101.544 94.24 164.008 114.553 56.798 18.471 116.261 18.879 173.097 1.083 25.494-7.982 49.944-19.199 72.77-33.065 3.54-2.15 4.667-6.764 2.516-10.304-2.15-3.539-6.763-4.667-10.304-2.516-22.819 13.862-44.683 23.398-64.316 29.951 33.481-25.732 55.104-66.164 55.104-111.558 0-45.32-21.553-85.695-54.941-111.433 58.861 19.605 111.003 56.318 155 109.174 1.019 1.225 1.019 3.293 0 4.518-19.176 23.037-40.282 43.309-62.736 60.255zm-418.669-60.254c-1.019-1.225-1.019-3.293 0-4.518 43.997-52.857 96.14-89.57 155-109.174-33.388 25.738-54.941 66.113-54.941 111.433s21.553 85.694 54.94 111.433c-58.86-19.605-111.002-56.318-154.999-109.174zm352.935-58.708c8.815 17.453 13.41 36.9 13.41 56.449 0 18.733-4.214 37.38-12.334 54.265-25.503 53.033-86.323 81.768-143.324 67.745-55.437-13.638-95.628-64.938-95.628-122.01 0-57.042 40.15-108.324 95.55-121.991 56.208-13.867 116.21 13.832 142.326 65.542z"/><path d="m289.57 235.685c-.8 0-1.591.041-2.375.103-9.265-4.628-19.702-7.244-30.744-7.244-38.108 0-69.112 31.003-69.112 69.112 0 38.108 31.003 69.112 69.112 69.112s69.112-31.003 69.112-69.112c0-10.3-2.278-20.072-6.339-28.859.118-1.076.184-2.168.184-3.275-.002-16.453-13.387-29.837-29.838-29.837zm0 15c8.181 0 14.836 6.656 14.836 14.836s-6.656 14.836-14.836 14.836-14.836-6.656-14.836-14.836 6.655-14.836 14.836-14.836zm-33.12 101.083c-29.837 0-54.112-24.274-54.112-54.112s24.274-54.112 54.112-54.112c4.003 0 7.898.455 11.653 1.288-5.176 5.369-8.37 12.661-8.37 20.69 0 16.452 13.385 29.836 29.836 29.836 7.706 0 14.739-2.937 20.039-7.75.618 3.257.953 6.613.953 10.048.001 29.837-24.273 54.112-54.111 54.112z"/><path d="m207.774 213.513c1.794 3.734 6.275 5.306 10.008 3.512 12.111-5.819 25.121-8.77 38.668-8.77 49.295 0 89.4 40.105 89.4 89.4s-40.105 89.4-89.4 89.4-89.4-40.105-89.4-89.4c0-23.045 8.745-44.928 24.625-61.617 2.855-3.001 2.737-7.748-.264-10.604-3-2.854-7.748-2.738-10.604.264-18.544 19.49-28.758 45.044-28.758 71.957 0 57.566 46.834 104.4 104.4 104.4s104.4-46.834 104.4-104.4-46.834-104.4-104.4-104.4c-15.814 0-31.01 3.448-45.164 10.25-3.733 1.794-5.305 6.275-3.511 10.008z"/><path d="m118.859 138.901c-17.127 7.27-33.901 15.85-50.132 25.651l-17.83-22.917c-2.542-3.268-7.255-3.858-10.525-1.314-3.269 2.543-3.857 7.256-1.314 10.525l16.913 21.738c-10.158 6.657-20.078 13.792-29.703 21.397-3.25 2.568-3.803 7.285-1.235 10.535s7.284 3.803 10.535 1.234c43.918-34.701 95.741-60.679 150.629-72.837 50.188-11.117 103.271-9.403 152.919 3.471 49.105 12.734 96.9 36.72 138.216 69.367 1.377 1.088 3.017 1.616 4.645 1.616 2.215 0 4.41-.978 5.89-2.851 2.568-3.25 2.015-7.966-1.235-10.535-9.155-7.234-18.62-14.055-28.338-20.445l17.653-22.69c2.543-3.269 1.955-7.981-1.314-10.525-3.268-2.543-7.981-1.954-10.525 1.314l-18.562 23.858c-16.081-9.732-32.772-18.294-49.855-25.575l12.012-26.91c1.688-3.783-.009-8.217-3.792-9.906-3.782-1.689-8.217.01-9.906 3.792l-12.234 27.408c-12.813-4.88-25.806-9.045-38.892-12.438-1.88-.487-3.759-.955-5.638-1.412l6.712-29.383c.922-4.038-1.604-8.059-5.642-8.981-4.036-.924-8.059 1.603-8.981 5.642l-6.733 29.478c-19.251-3.849-38.472-6.057-57.595-6.639v-28.562c0-4.142-3.358-7.5-7.5-7.5s-7.5 3.358-7.5 7.5v28.44c-19.407.278-38.695 2.245-57.79 5.911l-6.539-28.628c-.922-4.039-4.948-6.563-8.981-5.642-4.038.922-6.564 4.943-5.642 8.981l6.497 28.442c-15.059 3.587-30.018 8.207-44.761 13.793l-11.789-26.411c-1.688-3.782-6.122-5.481-9.906-3.792-3.782 1.688-5.48 6.123-3.792 9.906z"/><path d="m4.341 77.574c2.428 2.442 5.662 3.787 9.106 3.787h23.532c7.081 0 12.841-5.76 12.841-12.841v-18.966h18.965c7.081 0 12.841-5.761 12.841-12.841v-23.562c0-7.081-5.761-12.841-12.841-12.841h-50.452c-9.61 0-17.773 8.119-17.827 17.786l.099 50.352c-.019 3.443 1.308 6.684 3.736 9.126zm13.992-62.264h48.293v19.244h-21.045c-5.934 0-10.762 4.828-10.762 10.762v21.044h-19.218l-.095-48.237c.008-1.341 1.487-2.813 2.827-2.813z"/><path d="m444.215 49.554h18.965v18.965c0 7.081 5.761 12.841 12.841 12.841h23.532c3.444 0 6.678-1.345 9.106-3.787s3.754-5.683 3.735-9.084v-50.83c-.053-9.566-8.005-17.349-17.728-17.349h-50.452c-7.081 0-12.841 5.761-12.841 12.841v23.562c0 7.08 5.761 12.841 12.842 12.841zm2.158-34.244h48.293c1.42 0 2.721 1.159 2.728 2.391v48.66h-19.214v-21.045c0-5.934-4.828-10.762-10.762-10.762h-21.044v-19.244z"/><path d="m68.404 463.346h-18.965v-18.965c0-7.081-5.761-12.841-12.841-12.841h-23.532c-3.356 0-6.494 1.296-8.835 3.651-2.421 2.435-3.744 5.725-3.725 9.22v50.831c.053 9.566 7.879 17.349 17.446 17.349h50.452c7.081 0 12.841-5.761 12.841-12.841v-23.562c0-7.081-5.761-12.842-12.841-12.842zm-2.159 34.244h-48.293c-1.341 0-2.438-1.091-2.446-2.391v-48.66h18.933v21.044c0 5.934 4.828 10.762 10.762 10.762h21.044z"/><path d="m499.834 431.54h-23.532c-7.081 0-12.841 5.76-12.841 12.841v18.965h-18.965c-7.081 0-12.841 5.761-12.841 12.841v23.562c0 7.081 5.761 12.841 12.841 12.841h50.452c9.566 0 17.393-7.783 17.446-17.391v-50.747c.02-3.537-1.303-6.827-3.725-9.262-2.341-2.354-5.479-3.65-8.835-3.65zm-2.44 63.618c-.007 1.341-1.104 2.432-2.446 2.432h-48.293v-19.244h21.045c5.934 0 10.762-4.828 10.762-10.762v-21.044h18.933v48.618z"/></g></g></g></svg>