<svg id="Capa_1" enable-background="new 0 0 512.041 512.041" height="512" viewBox="0 0 512.041 512.041" width="512" xmlns="http://www.w3.org/2000/svg"><g><g><g><path d="m488.124 474.022h-464.207c-9.067 0-16.417-7.35-16.417-16.417v-287.355c0-9.067 7.35-16.417 16.417-16.417h464.207c9.067 0 16.417 7.35 16.417 16.417v287.354c0 9.068-7.35 16.418-16.417 16.418z" fill="#fef0ae"/></g><g><path d="m504.541 170.243v287.355c0 9.066-7.348 16.424-16.414 16.424h-19.928c9.066 0 16.424-7.358 16.424-16.424v-287.355c0-9.066-7.358-16.414-16.424-16.414h19.928c9.066 0 16.414 7.348 16.414 16.414z" fill="#fee97d"/></g><g><g><path d="m23.126 474.022 217.437-181.213c9.397-6.12 21.519-6.12 30.916 0l217.437 181.213z" fill="#fee45a"/></g><g><path d="m488.914 474.026h-30.68l-210.349-175.306c-2.994-1.94-6.254-3.27-9.633-3.979l2.315-1.931c9.396-6.116 21.51-6.116 30.907 0z" fill="#fed402"/></g><g><path d="m23.126 153.833 217.437 181.213c9.397 6.12 21.519 6.12 30.916 0l217.437-181.213z" fill="#fac600"/></g><g><path d="m488.914 153.833h-30.68l-210.349 175.306c-2.994 1.94-6.254 3.27-9.633 3.979l2.315 1.931c9.396 6.116 21.51 6.116 30.907 0z" fill="#e8b800"/></g></g></g><g><g><circle cx="256.019" cy="124.243" fill="#57be92" r="86.199"/></g><g><path d="m342.221 124.24c0 47.609-38.591 86.2-86.2 86.2-20.923 0-40.096-7.439-55.024-19.834 10.816 4.882 22.807 7.598 35.447 7.598 47.609 0 86.2-38.591 86.2-86.2 0-26.698-12.138-50.558-31.176-66.366 29.928 13.521 50.753 43.62 50.753 78.602z" fill="#09a76d"/></g><g><g><path d="m300.637 89.319c-6.749-6.226-17.268-5.803-23.494.947l-28.64 31.044c-1.234 1.337-3.346 1.337-4.58 0l-8.958-9.71c-6.241-6.766-16.786-7.19-23.551-.949-6.742 6.22-7.191 16.719-1.004 23.491l20.979 22.964c7.851 8.593 21.374 8.626 29.266.071l40.928-44.365c6.226-6.748 5.803-17.267-.946-23.493z" fill="#f9f7f8"/></g><g><path d="m301.587 112.812-40.928 44.366c-7.892 8.553-21.424 8.516-29.268-.073l-1.321-1.444c5.298-.025 10.584-2.153 14.499-6.399l40.928-44.366c5.139-5.567 5.751-13.692 2.007-19.871 4.625-.526 9.446.893 13.129 4.295 6.753 6.227 7.182 16.738.954 23.492z" fill="#efedef"/></g><g><path d="m488.124 146.333h-141.044c1.719-7.087 2.637-14.483 2.637-22.091 0-51.666-42.033-93.699-93.699-93.699-14.801 0-28.964 3.354-42.097 9.968-3.699 1.863-5.188 6.373-3.324 10.072s6.373 5.188 10.072 3.325c11.02-5.55 22.913-8.364 35.349-8.364 43.395 0 78.699 35.304 78.699 78.699s-35.305 78.699-78.699 78.699-78.698-35.304-78.698-78.699c0-18.572 6.59-36.599 18.556-50.76 2.674-3.164 2.276-7.896-.888-10.569-3.164-2.675-7.896-2.276-10.569.888-14.251 16.865-22.099 38.33-22.099 60.442 0 7.608.918 15.004 2.637 22.091h-141.04c-13.188-.002-23.917 10.727-23.917 23.915v287.354c0 12.794 10.099 23.273 22.744 23.887.128.007 466.426.007 466.554 0 12.645-.614 22.744-11.093 22.744-23.887v-287.354c-.001-13.188-10.73-23.917-23.918-23.917zm-318.142 15c14.397 33.269 47.541 56.608 86.037 56.608 38.497 0 71.64-23.339 86.038-56.608h126.145l-201.16 167.647c-6.74 4.205-15.303 4.205-22.043 0l-201.159-167.647zm-148.975 304.692c-3.49-1.21-6.007-4.523-6.007-8.42v-287.355c0-3.897 2.517-7.209 6.007-8.42l182.501 152.097zm476.034-8.42c0 3.897-2.516 7.209-6.006 8.419l-125.017-104.255c-3.181-2.654-7.91-2.224-10.563.957s-2.225 7.91.956 10.563l111.801 93.234h-424.372l171.383-142.831 20.538 17.116c.226.188.462.363.709.523 5.938 3.868 12.744 5.802 19.551 5.802s13.612-1.934 19.551-5.802c.247-.161.483-.335.709-.523l20.538-17.116 32.714 27.264c3.183 2.653 7.911 2.224 10.563-.959 2.651-3.182 2.222-7.912-.96-10.563l-30.603-25.504 182.501-152.097c3.49 1.21 6.007 4.523 6.007 8.42z"/><path d="m225.852 162.165c5.154 5.643 12.494 8.889 20.137 8.908h.065c7.619 0 14.947-3.209 20.114-8.81l40.928-44.365c4.369-4.736 6.634-10.891 6.374-17.33s-3.011-12.392-7.747-16.761c-9.778-9.021-25.071-8.405-34.093 1.373l-25.417 27.552-5.735-6.217c-4.377-4.745-10.34-7.501-16.789-7.761-6.448-.251-12.615 2.007-17.359 6.385-9.748 8.992-10.4 24.272-1.456 34.063zm-9.352-46.002c1.706-1.575 3.897-2.429 6.206-2.429.126 0 .252.002.378.007 2.446.099 4.708 1.144 6.368 2.944l8.957 9.709c2.004 2.172 4.848 3.418 7.803 3.418h.001c2.955 0 5.799-1.245 7.803-3.417l28.64-31.045c3.411-3.699 9.198-3.931 12.896-.52h.001c1.791 1.653 2.832 3.904 2.93 6.34.099 2.436-.758 4.764-2.411 6.556l-40.928 44.365c-2.368 2.568-5.595 3.98-9.086 3.98-.011 0-.021 0-.032 0-3.504-.008-6.735-1.438-9.099-4.025l-20.979-22.964c-3.393-3.712-3.145-9.508.552-12.919z"/></g></g></g></g></svg>