<svg id="Capa_1" enable-background="new 0 0 511.946 511.946" height="512" viewBox="0 0 511.946 511.946" width="512" xmlns="http://www.w3.org/2000/svg"><g><g><path d="m395.523 176.625c-6.188-1.219-10.711-6.538-10.711-12.845v-.099h-37.362v3.049c0 6.45-4.71 11.934-11.087 12.908l-110.003 16.793c-11.762 0-21.249 9.744-20.827 21.6.402 11.293 10.026 20.08 21.326 20.08h11.111 68.557c3.854 0 6.975 3.129 6.965 6.982l-.033 13.622v220.098c0 14.154 11.474 25.627 25.627 25.627 14.153 0 25.627-11.474 25.627-25.627h.035c0 14.154 11.474 25.627 25.627 25.627s25.627-11.474 25.627-25.627l.322-135.856c0 11.51 9.331 20.84 20.84 20.84 11.51 0 20.84-9.331 20.84-20.84v-90.245c.003-37.676-26.863-69.071-62.481-76.087z" fill="#57be92"/></g><g><path d="m458.006 252.711v90.248c0 11.509-9.327 20.836-20.836 20.836-3.623 0-7.035-.921-10.008-2.552 6.455-3.543 10.828-10.398 10.828-18.284v-90.248c0-20.976-9.497-39.13-25.399-51.809-6.596-5.259-14.381-8.348-22.267-11.259-7.297-2.693-17.518-6.57-22.127-13.66-2.342-3.623-3.403-7.916-3.403-12.199v-.1h20.015v.1c0 6.305 4.523 11.619 10.708 12.84 35.628 7.015 62.489 38.409 62.489 76.087z" fill="#09a76d"/></g><g><circle cx="366.131" cy="110.899" fill="#fed2a4" r="59.026"/></g><g><path d="m425.161 110.904c0 32.595-26.43 59.025-59.035 59.025-15.382 0-29.392-5.885-39.89-15.532 6.765 2.702 14.151 4.183 21.877 4.183 32.605 0 59.035-26.42 59.035-59.025 0-17.213-7.376-32.715-19.145-43.503 21.776 8.697 37.158 29.973 37.158 54.852z" fill="#ffbd86"/></g><g><path d="m249.434 503.562c9.134 0 16.538-7.404 16.538-16.538v-462.981c0-9.134-7.404-16.538-16.538-16.538-9.134 0-16.538 7.404-16.538 16.538v462.981c0 9.134 7.404 16.538 16.538 16.538z" fill="#dc8758"/></g><g><path d="m265.97 24.048v462.98c0 9.127-7.405 16.533-16.533 16.533-3.382 0-6.525-1.011-9.137-2.752 4.463-2.972 7.395-8.036 7.395-13.78v-462.981c0-5.754-2.932-10.818-7.395-13.79 2.612-1.741 5.754-2.752 9.137-2.752 9.128-.001 16.533 7.405 16.533 16.542z" fill="#ce7345"/></g><g><path d="m53.939 147.519c0 2.427 1.147 4.719 3.103 6.157 22.531 16.57 59.598 9.799 81.359-.499 30.971-14.657 62.901-16.001 94.495-1.581v-116.582c-31.594-14.419-63.524-13.075-94.495 1.581-19.442 9.201-51.104 15.586-73.699 5.023-5.018-2.345-10.763 1.436-10.763 6.975z" fill="#ee6161"/></g><g><path d="m232.895 35.016v116.578c-6.825-3.112-13.66-5.494-20.506-7.155v-116.578c6.846 1.661 13.681 4.043 20.506 7.155z" fill="#e94444"/></g><g><path d="m380.675 133.11c-3.309-2.497-8.016-1.837-10.512 1.47-.969 1.284-2.444 2.02-4.047 2.02-1.595 0-3.065-.731-4.034-2.004-2.509-3.299-7.219-3.939-10.518-1.431-3.299 2.509-3.94 7.218-1.431 10.518 3.832 5.038 9.657 7.928 15.982 7.928 6.262 0 12.254-2.987 16.029-7.989 2.498-3.309 1.839-8.015-1.469-10.512z"/><path d="m397.739 169.43c20.78-11.267 34.924-33.278 34.924-58.531 0-36.686-29.846-66.532-66.532-66.532s-66.532 29.846-66.532 66.532c0 26.568 15.658 49.538 38.226 60.194-.731.573-1.612.975-2.594 1.125l-61.753 9.427v-73.313c0-4.145-3.36-7.506-7.506-7.506-4.145 0-7.506 3.36-7.506 7.506v378.692c0 4.98-4.052 9.032-9.032 9.032s-9.032-4.052-9.032-9.032v-462.98c0-4.98 4.052-9.032 9.032-9.032s9.032 4.052 9.032 9.032v49.179c0 4.145 3.36 7.506 7.506 7.506 4.145 0 7.506-3.36 7.506-7.506v-49.179c-.001-13.258-10.787-24.044-24.044-24.044-13.211 0-23.964 10.71-24.04 23.903-29.555-10.424-59.846-8.459-90.204 5.907-18.673 8.838-47.704 14.174-67.311 5.008-4.659-2.177-10.042-1.821-14.401.953-4.412 2.808-7.045 7.6-7.045 12.821v98.926c0 4.804 2.303 9.366 6.162 12.204 11.073 8.143 25.285 11.449 39.937 11.449 17.216 0 35.038-4.564 49.079-11.209 28.301-13.393 56.461-14.532 83.779-3.422v32.408c-7.394.246-14.263 3.288-19.429 8.641-5.389 5.585-8.205 12.939-7.929 20.709.518 14.581 12.65 26.53 27.358 27.281v241.445c0 13.258 10.786 24.044 24.044 24.044s24.044-10.786 24.044-24.044v-241.407h32.509l-.032 93.89c0 4.145 3.36 7.506 7.506 7.506s7.506-3.36 7.506-7.506l.034-94.395c.009-3.872-1.491-7.514-4.226-10.255-2.734-2.741-6.372-4.251-10.245-4.251h-33.051v-33.776l64.019-9.773c6.793-1.037 12.324-5.239 15.233-10.982 4.33.889 8.812 1.356 13.402 1.356 5.17 0 10.198-.612 15.032-1.734 3.001 4.176 7.55 7.236 12.909 8.291 32.698 6.441 56.429 35.344 56.429 68.723v90.245c0 7.353-5.982 13.335-13.335 13.335s-13.335-5.982-13.335-13.335l-.322-101.652c-.015-4.14-3.371-7.502-7.519-7.479-4.14.007-7.492 3.366-7.492 7.506v237.481c0 9.992-8.129 18.121-18.122 18.121-9.992 0-18.122-8.129-18.122-18.123l-.035-120.253c-.001-4.145-3.362-7.504-7.507-7.504-4.145.001-7.505 3.361-7.505 7.506v120.253c0 9.992-8.129 18.121-18.122 18.121s-18.122-8.129-18.122-18.121v-104.362c0-4.145-3.36-7.506-7.506-7.506s-7.506 3.36-7.506 7.506v104.363c0 18.269 14.863 33.133 33.133 33.133 10.326 0 19.564-4.748 25.645-12.176 6.081 7.427 15.319 12.176 25.645 12.176 18.27 0 33.133-14.863 33.133-33.133v-111.022c4.053 2.238 8.709 3.512 13.657 3.512 15.63 0 28.346-12.716 28.346-28.346v-90.245c.001-40.269-28.457-75.159-67.773-83.282zm-172.349 61.094c-6.709-.704-12.121-6.155-12.356-12.76-.13-3.662 1.194-7.125 3.729-9.752 2.31-2.394 5.346-3.794 8.627-4.028zm0-90.051c-29.553-10.421-59.845-8.444-90.2 5.92-33.651 15.926-62.513 9.465-73.702 1.236-.022-.016-.044-.059-.044-.11v-98.926c0-.107.077-.153.091-.169 24.131 11.273 57.604 5.591 80.075-5.044 28.302-13.393 56.462-14.542 83.779-3.431v100.524zm140.741 21.947c-28.409 0-51.52-23.112-51.52-51.521s23.112-51.521 51.52-51.521 51.521 23.112 51.521 51.521-23.113 51.521-51.521 51.521z"/></g></g></svg>