<svg id="Capa_1" enable-background="new 0 0 512.028 512.028" height="512" viewBox="0 0 512.028 512.028" width="512" xmlns="http://www.w3.org/2000/svg"><g><g><g><path d="m187.725 100.459c-2.391 0-4.721.257-6.969.739-1.328.285-2.64-.492-3.067-1.781-6.773-20.468-26.051-35.24-48.79-35.24s-42.017 14.773-48.79 35.24c-.427 1.289-1.739 2.066-3.067 1.781-2.247-.482-4.577-.739-6.969-.739-23.894 0-41.903 25.2-28.897 50.473 2.57 4.994 6.651 9.086 11.642 11.66 15.928 8.216 31.83 4.108 41.42-6.032.886-.937 2.337-1.019 3.359-.233 8.668 6.67 19.519 10.642 31.302 10.642s22.634-3.972 31.302-10.642c1.022-.786 2.473-.704 3.359.233 9.59 10.14 25.492 14.248 41.42 6.032 4.991-2.574 9.072-6.667 11.642-11.66 13.005-25.273-5.003-50.473-28.897-50.473z" fill="#f9f7f8"/></g></g><g><path d="m216.622 150.935c-2.572 4.995-6.646 9.078-11.641 11.661-5.835 3.013-11.661 4.364-17.176 4.374-5.235.01-10.19-1.191-14.594-3.333-3.633-1.762-6.896-4.174-9.649-7.077-.891-.941-2.342-1.021-3.363-.23-8.668 6.666-19.518 10.64-31.3 10.64-2.372 0-4.694-.16-6.977-.47-16.916-39.938-.871-78.754 29.058-97.342 12.552 5.976 22.291 16.906 26.705 30.259.43 1.291 1.742 2.062 3.073 1.782 2.242-.48 4.574-.741 6.967-.741 23.892-.001 41.899 25.203 28.897 50.477z" fill="#efedef"/></g><g><path d="m412.942 75.433c-4.477 0-8.84.482-13.048 1.384-2.486.533-4.944-.921-5.743-3.335-12.681-38.323-48.775-65.982-91.351-65.982s-78.67 27.659-91.352 65.982c-.799 2.414-3.256 3.869-5.743 3.335-4.207-.903-8.57-1.384-13.048-1.384-44.738 0-78.456 47.184-54.106 94.502 4.811 9.35 12.452 17.012 21.798 21.832 29.823 15.383 59.596 7.692 77.552-11.293 1.659-1.754 4.376-1.909 6.29-.437 16.23 12.488 36.547 19.925 58.609 19.925s42.378-7.437 58.609-19.925c1.913-1.472 4.631-1.318 6.29.437 17.956 18.985 47.729 26.676 77.552 11.293 9.345-4.82 16.986-12.482 21.798-21.832 24.349-47.318-9.368-94.502-54.107-94.502z" fill="#d8ecfe"/></g><g><path d="m467.049 169.933c-4.124 8.008-10.32 14.784-17.887 19.579.581-.951 1.121-1.932 1.632-2.923 24.353-47.325-9.359-94.51-54.101-94.51-4.474 0-8.838.48-13.052 1.391-2.482.531-4.935-.921-5.735-3.343-12.682-38.316-48.776-65.982-91.356-65.982-22.802 0-43.741 7.937-60.217 21.19 17.587-23.002 45.293-37.836 76.472-37.836 42.57 0 78.664 27.656 91.346 65.983.801 2.412 3.263 3.874 5.745 3.333 4.204-.901 8.568-1.381 13.042-1.381 44.742-.001 78.464 47.184 54.111 94.499z" fill="#c4e2ff"/></g><g><g><path d="m232.271 504.528c-9.833 0-17.804-7.971-17.804-17.804v-312.09c0-9.833 7.971-17.804 17.804-17.804 9.833 0 17.804 7.971 17.804 17.804v312.091c0 9.832-7.972 17.803-17.804 17.803z" fill="#dc8758"/></g><g><path d="m373.33 504.528c-9.833 0-17.804-7.971-17.804-17.804v-312.09c0-9.833 7.971-17.804 17.804-17.804 9.833 0 17.804 7.971 17.804 17.804v312.091c0 9.832-7.971 17.803-17.804 17.803z" fill="#dc8758"/></g></g><g><g><path d="m250.073 174.637v312.085c0 9.839-7.968 17.807-17.807 17.807-3.603 0-6.957-1.071-9.759-2.913 4.845-3.173 8.048-8.658 8.048-14.894v-312.085c0-4.925-1.992-9.369-5.215-12.592-.861-.861-1.812-1.632-2.833-2.302 2.803-1.842 6.156-2.913 9.759-2.913 4.915 0 9.369 1.992 12.592 5.215s5.215 7.668 5.215 12.592z" fill="#ce7345"/></g><g><path d="m391.137 174.637v312.085c0 9.839-7.978 17.807-17.807 17.807-3.603 0-6.957-1.071-9.759-2.913 4.845-3.173 8.048-8.658 8.048-14.894v-312.085c0-4.925-1.992-9.369-5.215-12.592-.861-.861-1.812-1.632-2.833-2.302 2.803-1.842 6.156-2.913 9.759-2.913 4.915 0 9.369 1.992 12.592 5.215s5.215 7.668 5.215 12.592z" fill="#ce7345"/></g></g><path d="m472.538 101.412c-12.788-20.963-35.067-33.479-59.596-33.479-4.144 0-8.299.373-12.384 1.11-14.665-41.39-53.673-69.043-97.758-69.043-7.355 0-14.701.775-21.833 2.304-4.05.869-6.629 4.856-5.761 8.906.869 4.05 4.854 6.627 8.906 5.761 6.101-1.308 12.388-1.971 18.688-1.971 38.339 0 72.189 24.449 84.231 60.838 2.01 6.073 8.218 9.649 14.436 8.312 3.767-.808 7.628-1.217 11.475-1.217 19.256 0 36.748 9.828 46.791 26.29 10.384 17.022 10.62 37.9.646 57.281-4.076 7.919-10.669 14.524-18.567 18.598-14.291 7.373-29.511 9.05-43.179 5.424v-15.892c0-13.953-11.352-25.304-25.304-25.304s-25.304 11.352-25.304 25.304v5.437c-13.638 8.131-29.079 12.393-45.226 12.393-16.149 0-31.587-4.275-45.226-12.41v-5.42c0-13.953-11.351-25.304-25.304-25.304s-25.304 11.352-25.304 25.304v15.887c-13.668 3.626-28.888 1.953-43.179-5.419-7.897-4.074-14.491-10.679-18.566-18.598-9.974-19.38-9.738-40.258.646-57.28 10.042-16.462 27.535-26.291 46.791-26.291 3.847 0 7.708.41 11.475 1.217 6.22 1.334 12.426-2.239 14.436-8.312 6.322-19.103 19.144-35.672 36.103-46.654 3.477-2.251 4.47-6.896 2.219-10.372-2.252-3.477-6.896-4.468-10.372-2.219-19.196 12.431-33.858 30.997-41.475 52.449-4.085-.737-8.241-1.11-12.384-1.11-8.352 0-16.442 1.454-23.987 4.196-10.604-9.712-24.657-15.453-39.773-15.453-24.064 0-45.465 14.513-54.48 36.516-1.443-.155-2.896-.233-4.346-.233-14.329 0-27.343 7.311-34.813 19.555-7.684 12.595-7.958 27.849-.753 41.849 3.262 6.34 8.544 11.63 14.873 14.895 6.794 3.504 13.902 5.218 20.814 5.218 9.604 0 18.83-3.309 26.304-9.721 9.619 6.369 20.735 9.715 32.402 9.715 1.18 0 2.353-.039 3.52-.109 5.524 10.228 14.178 18.753 24.492 24.074 16.449 8.485 33.946 10.873 50.055 7.567v280.724c0 13.953 11.351 25.304 25.304 25.304s25.304-11.351 25.304-25.304v-24.929h90.452v24.929c0 13.953 11.351 25.304 25.304 25.304s25.304-11.351 25.304-25.304v-117.604c0-4.142-3.358-7.5-7.5-7.5s-7.5 3.358-7.5 7.5v117.604c0 5.682-4.623 10.304-10.304 10.304s-10.304-4.622-10.304-10.304v-312.091c0-5.682 4.622-10.304 10.304-10.304s10.304 4.623 10.304 10.304v159.788c0 4.142 3.358 7.5 7.5 7.5s7.5-3.358 7.5-7.5v-128.431c16.11 3.308 33.605.928 50.055-7.557 10.648-5.492 19.537-14.394 25.029-25.066 12.42-24.139 11.99-50.366-1.181-71.956zm-346.356 57.966c-8.754-.529-17.008-3.605-24.011-8.994-4.098-3.153-9.851-2.713-13.382 1.023-6.546 6.919-18.53 11.742-32.533 4.52-3.578-1.845-6.565-4.838-8.411-8.426-4.756-9.243-4.676-19.147.221-27.174 4.724-7.744 12.951-12.367 22.008-12.367 1.811 0 3.625.192 5.396.573 5.066 1.087 10.124-1.818 11.759-6.758 5.958-18.002 22.703-30.097 41.67-30.097 9.223 0 17.913 2.869 25.099 7.878-8.325 5.548-15.492 12.934-20.936 21.858-10.659 17.472-12.97 37.982-6.88 57.964zm116.392 327.347c0 5.682-4.622 10.304-10.304 10.304s-10.304-4.622-10.304-10.304v-312.091c0-5.682 4.622-10.304 10.304-10.304s10.304 4.623 10.304 10.304zm105.452-39.929h-90.452v-38.126h90.452zm0-53.126h-90.452v-38.126h90.452zm0-53.126h-90.452v-38.125h90.452zm0-53.125h-90.452v-38.126h90.452zm0-53.126h-90.452v-37.178c13.977 6.809 29.31 10.348 45.226 10.348 15.919 0 31.247-3.556 45.226-10.366z"/></g></svg>