<svg id="Capa_1" enable-background="new 0 0 512.088 512.088" height="512" viewBox="0 0 512.088 512.088" width="512" xmlns="http://www.w3.org/2000/svg"><g><g><path d="m300.778 113.908h-35.913v-43.994c0-9.917 8.039-17.957 17.957-17.957 9.917 0 17.957 8.039 17.957 17.957v43.994z" fill="#5a5a5a"/></g><g><path d="m300.777 69.919v43.993h-16.945v-43.735c0-5.986-2.426-11.416-6.354-15.344-.517-.517-1.054-1.004-1.621-1.472 2.138-.905 4.495-1.402 6.961-1.402 4.962 0 9.447 2.009 12.699 5.26 3.252 3.253 5.26 7.738 5.26 12.7z" fill="#444"/></g><g><path d="m333.619 386.55 92.237-39.631c10.041-3.884 21.397.411 26.354 9.968 5.984 11.537.222 25.689-12.119 29.765l-48.754 16.81-74.922 23.636v-33.859z" fill="#af6837"/></g><g><path d="m454.593 366.589c0 8.761-5.499 17.094-14.498 20.067l-48.756 16.806-74.919 23.637v-18.516l67.958-21.43 48.756-16.816c8.781-2.904 14.22-10.889 14.479-19.411 1.83 1.651 3.401 3.649 4.594 5.957 1.62 3.123 2.386 6.444 2.386 9.706z" fill="#9b592d"/></g><g><circle cx="282.821" cy="254.852" fill="#fac600" r="150.3"/></g><g><path d="m433.123 254.356c0 83.003-67.292 150.295-150.305 150.295-26.113 0-50.675-6.663-72.065-18.377 16.119 5.897 33.522 9.119 51.679 9.119 83.013 0 150.305-67.292 150.305-150.305 0-56.88-31.602-106.382-78.2-131.909 57.537 21.092 98.586 76.341 98.586 141.177z" fill="#e8b800"/></g><g><circle cx="282.821" cy="254.352" fill="#f9f7f8" r="115.25"/></g><g><path d="m398.07 254.356c0 63.642-51.6 115.242-115.252 115.242-27.416 0-52.604-9.576-72.393-25.576 16.209 8.701 34.745 13.643 54.444 13.643 63.642 0 115.242-51.6 115.242-115.242 0-36.226-16.706-68.545-42.839-89.656 36.197 19.421 60.798 57.636 60.798 101.589z" fill="#efedef"/></g><g><path d="m64.121 502.531h-41.207c-8.513 0-15.414-6.901-15.414-15.414v-120.422c0-8.513 6.901-15.414 15.414-15.414h41.207c8.513 0 15.414 6.901 15.414 15.414v120.422c0 8.513-6.901 15.414-15.414 15.414z" fill="#60b7ff"/></g><g><path d="m79.531 366.698v120.423c0 8.512-6.901 15.413-15.413 15.413h-19.889c8.512 0 15.413-6.901 15.413-15.413v-120.423c0-8.512-6.901-15.413-15.413-15.413h19.888c8.513 0 15.414 6.901 15.414 15.413z" fill="#26a6fe"/></g><g><path d="m499.768 391.282c-7.998-12.384-23.78-17.168-37.308-11.31l-138.328 45.685-.252-.02c8.344-2.834 14.804-10.182 16.047-19.509 1.747-13.105-7.46-25.145-20.565-26.893-25.3-4.978-50.6-9.956-75.901-14.935-10.12-1.991-44.976-9.535-51.916-9.091-14.147.906-26.808 11.3-37.723 19.046-24.528 17.406-49.164 12.207-74.287 3.702v92.545l60.529-3.534c12.816-1.095 25.715.642 37.785 5.088 0 0 57.879 21.318 57.912 21.33 39.605 14.587 74.458-2.448 111.234-14.838 46.595-15.699 94.316-27.817 140.795-43.878 16.156-7.975 21.754-28.251 11.978-43.388z" fill="#d88a55"/></g><g><path d="m487.786 434.676c-46.479 16.06-94.201 28.172-140.789 43.873-36.783 12.39-71.637 29.425-111.235 14.837-.04-.01-57.914-21.33-57.914-21.33-12.072-4.445-24.97-6.175-37.788-5.081l-60.53 3.53v-19.799l60.53-3.54c12.818-1.094 27.575-1.213 39.647 3.232 0 0 57.875 21.32 57.914 21.33 39.597 14.588 72.592-.587 109.375-12.977 46.588-15.702 94.31-27.824 140.789-43.883 7.448-3.679 12.649-9.964 15.135-17.154 4.903 14.001-1.182 30.061-15.134 36.962z" fill="#c57a44"/></g><g><path d="m282.821 188.877c4.143 0 7.5-3.358 7.5-7.5v-12.122c0-4.142-3.357-7.5-7.5-7.5s-7.5 3.358-7.5 7.5v12.122c0 4.142 3.358 7.5 7.5 7.5z"/><path d="m282.821 319.827c-4.143 0-7.5 3.358-7.5 7.5v12.122c0 4.142 3.357 7.5 7.5 7.5s7.5-3.358 7.5-7.5v-12.122c0-4.142-3.357-7.5-7.5-7.5z"/><path d="m239.838 194.904c1.389 2.406 3.91 3.751 6.502 3.751 1.272 0 2.562-.324 3.743-1.006 3.587-2.071 4.816-6.658 2.745-10.245l-6.061-10.498c-2.071-3.587-6.659-4.816-10.245-2.745-3.587 2.071-4.816 6.658-2.745 10.245z"/><path d="m318.874 331.798c1.389 2.406 3.91 3.751 6.502 3.751 1.272 0 2.562-.324 3.743-1.006 3.587-2.071 4.816-6.658 2.745-10.245l-6.061-10.498c-2.07-3.587-6.657-4.817-10.245-2.745-3.587 2.071-4.816 6.658-2.745 10.245z"/><path d="m202.63 208.054c-2.071 3.587-.842 8.174 2.745 10.245l10.498 6.061c1.181.682 2.471 1.006 3.743 1.006 2.592 0 5.113-1.346 6.502-3.751 2.071-3.587.842-8.174-2.745-10.245l-10.498-6.061c-3.587-2.072-8.174-.842-10.245 2.745z"/><path d="m342.269 297.335 10.498 6.061c1.182.682 2.471 1.006 3.743 1.006 2.592 0 5.113-1.346 6.502-3.751 2.071-3.587.842-8.174-2.745-10.245l-10.498-6.061c-3.589-2.072-8.175-.842-10.245 2.745-2.072 3.587-.842 8.174 2.745 10.245z"/><path d="m217.346 254.352c0-4.142-3.358-7.5-7.5-7.5h-12.122c-4.142 0-7.5 3.358-7.5 7.5s3.358 7.5 7.5 7.5h12.122c4.142 0 7.5-3.357 7.5-7.5z"/><path d="m348.296 254.352c0 4.142 3.357 7.5 7.5 7.5h12.122c4.143 0 7.5-3.358 7.5-7.5s-3.357-7.5-7.5-7.5h-12.122c-4.143 0-7.5 3.358-7.5 7.5z"/><path d="m215.873 284.345-10.498 6.061c-3.587 2.071-4.816 6.658-2.745 10.245 1.389 2.406 3.91 3.751 6.502 3.751 1.272 0 2.562-.324 3.743-1.006l10.498-6.061c3.587-2.071 4.816-6.658 2.745-10.245s-6.658-4.817-10.245-2.745z"/><path d="m346.025 225.367c1.272 0 2.563-.324 3.743-1.006l10.498-6.061c3.587-2.071 4.816-6.658 2.745-10.245-2.07-3.588-6.659-4.816-10.245-2.745l-10.498 6.061c-3.587 2.071-4.816 6.658-2.745 10.245 1.389 2.405 3.911 3.751 6.502 3.751z"/><path d="m236.522 334.543c1.181.682 2.471 1.006 3.743 1.006 2.592 0 5.113-1.346 6.502-3.751l6.061-10.498c2.071-3.587.842-8.174-2.745-10.245-3.587-2.073-8.174-.842-10.245 2.745l-6.061 10.498c-2.071 3.588-.842 8.175 2.745 10.245z"/><path d="m315.559 197.649c1.182.682 2.471 1.006 3.743 1.006 2.592 0 5.113-1.346 6.502-3.751l6.061-10.498c2.071-3.587.842-8.174-2.745-10.245-3.59-2.072-8.176-.842-10.245 2.745l-6.061 10.498c-2.072 3.588-.842 8.175 2.745 10.245z"/><ellipse cx="282.821" cy="254.352" rx="9.261" ry="9.261" transform="matrix(.973 -.23 .23 .973 -50.873 71.783)"/><path d="m506.068 387.213c-9.635-14.917-28.091-20.982-44.564-14.93 1.289-6.351.4-12.995-2.636-18.849-6.73-12.975-22.085-18.783-35.718-13.51-.085.033-.17.068-.255.104l-10.758 4.622c17.934-25.6 28.482-56.735 28.482-90.297 0-78.346-57.394-143.528-132.343-155.736v-23.106c9.552-7.542 15.705-19.205 15.705-32.292 0-22.696-18.465-41.161-41.161-41.161s-41.16 18.464-41.16 41.16c0 13.088 6.152 24.752 15.705 32.295v23.103c-74.949 12.209-132.343 77.391-132.343 155.736 0 39.633 14.696 75.893 38.912 103.638-10.536 6.782-19.677 15.505-32.17 18.712-6.173 1.585-12.578 1.798-18.905 1.292-2.79-.223-25.823-3.313-25.823-5.491v-5.808c0-12.635-10.279-22.914-22.914-22.914h-41.208c-12.635 0-22.914 10.279-22.914 22.914v120.422c0 12.635 10.279 22.914 22.914 22.914h41.208c12.635 0 22.914-10.279 22.914-22.914v-9.537l53.466-3.121c.067-.004.134-.009.201-.015 11.643-.994 23.591.615 34.593 4.667.008.003 4.664 1.689 10.412 3.806.855.315 1.73.464 2.591.464 3.053 0 5.922-1.878 7.039-4.91 1.432-3.887-.558-8.198-4.445-9.63-5.759-2.122-10.43-3.813-10.45-3.82-12.982-4.782-27.129-6.695-40.914-5.532l-52.493 3.064v-74.327c22.001 6.499 46.603 9.55 71.133-7.858 10.07-7.154 20.952-16.835 33.857-17.674 4.72-.307 32.243 5.34 42.614 7.467 27.714 5.684 83.578 16.487 83.732 16.507 8.985 1.198 15.32 9.482 14.122 18.467s-9.473 15.319-18.467 14.123c-.066-.009-.133-.017-.2-.024l-66.293-7.032c-4.121-.442-7.813 2.548-8.249 6.667-.437 4.119 2.548 7.812 6.667 8.249l66.199 7.022c4.519.586 13.908-1.222 14.335-1.362 0 0 138.751-45.835 138.957-45.924 10.206-4.421 21.993-.847 28.027 8.496 3.5 5.42 4.523 12.095 2.806 18.315-1.678 6.078-5.825 11.188-11.412 14.083-24.054 8.296-48.916 15.679-72.965 22.82-22.119 6.568-77.575 24.441-82.549 26.216-30.549 10.903-59.405 21.203-91 9.565l-14.938-5.501c-3.889-1.432-8.198.559-9.63 4.445-1.432 3.887.559 8.198 4.445 9.63 0 0 8.513 3.136 8.534 3.143 13.242 4.877 26.211 8.425 40.515 8.425 23.459-.001 45.539-7.88 67.114-15.581 4.912-1.753 59.786-19.434 81.777-25.963 24.363-7.235 74.66-23.411 74.942-23.55 9.617-4.749 16.77-13.401 19.624-23.74 2.854-10.338 1.154-21.434-4.665-30.444zm-434.033 99.904c0 4.364-3.55 7.914-7.914 7.914h-41.207c-4.364 0-7.914-3.55-7.914-7.914v-120.422c0-4.364 3.55-7.914 7.914-7.914h41.208c4.364 0 7.914 3.55 7.914 7.914v120.422zm184.625-443.899c0-14.425 11.736-26.161 26.162-26.161 14.425 0 26.161 11.736 26.161 26.161 0 5.159-1.508 9.968-4.097 14.024-4.4-7.632-12.639-12.785-22.064-12.785-9.418 0-17.652 5.145-22.055 12.768-2.588-4.054-4.107-8.851-4.107-14.007zm36.617 26.696v26.994c-3.458-.227-6.942-.355-10.456-.355s-6.999.128-10.457.355v-26.994c0-5.766 4.691-10.457 10.457-10.457s10.456 4.691 10.456 10.457zm27.321 301.921-1.35-.266c49.952-15.554 86.323-62.213 86.323-117.217 0-67.685-55.065-122.75-122.75-122.75-24.598 0-48.332 7.25-68.636 20.968-3.432 2.319-4.335 6.981-2.016 10.414 2.32 3.432 6.981 4.334 10.414 2.016 17.815-12.036 38.645-18.397 60.239-18.397 59.413 0 107.75 48.336 107.75 107.75s-48.337 107.75-107.75 107.75c-59.414 0-107.75-48.336-107.75-107.75 0-24.707 8.133-47.945 23.521-67.204 2.585-3.236 2.058-7.956-1.178-10.541-3.237-2.586-7.957-2.057-10.541 1.178-17.283 21.632-26.802 48.824-26.802 76.567 0 38.166 17.52 72.305 44.928 94.834-6.702-1.102-11.368-1.623-13.932-1.461-4.716.302-9.181 1.433-13.433 3.079-23.337-25.428-37.611-59.3-37.611-96.452 0-78.74 64.06-142.8 142.8-142.8 78.739 0 142.799 64.06 142.799 142.8 0 57.798-34.526 107.67-84.028 130.117-4.844-6.643-12.251-11.399-20.997-12.635zm125.478-.096c-1.506 3.699-4.544 6.539-8.429 7.823l-48.695 16.79-42.177 13.93c.246-1.033.443-2.087.586-3.161.397-2.982.352-5.922-.07-8.759 15.403-6.922 29.5-16.247 41.817-27.49l39.568-17.001c6.458-2.431 13.692.335 16.876 6.471 1.84 3.543 2.03 7.698.524 11.397z"/></g></g></svg>