<svg id="Capa_1" enable-background="new 0 0 511.667 511.667" height="512" viewBox="0 0 511.667 511.667" width="512" xmlns="http://www.w3.org/2000/svg"><g><g><g><path d="m481.632 393.436h-451.597c-12.448 0-22.54-10.091-22.54-22.54v-309.754c0-12.448 10.091-22.54 22.54-22.54h451.597c12.448 0 22.54 10.091 22.54 22.54v309.755c0 12.448-10.092 22.539-22.54 22.539z" fill="#d8ecfe"/></g><g><path d="m504.172 61.144v309.749c0 12.449-10.093 22.542-22.542 22.542h-19.847c12.449 0 22.542-10.093 22.542-22.542v-309.749c0-12.449-10.093-22.542-22.542-22.542h19.847c12.449 0 22.542 10.092 22.542 22.542z" fill="#c4e2ff"/></g></g><g><g><path d="m397.178 305.796h-282.693c-1.76 0-3.187-1.427-3.187-3.187v-41.133c0-1.76 1.427-3.187 3.187-3.187h282.694c1.76 0 3.187 1.427 3.187 3.187v41.133c-.001 1.76-1.428 3.187-3.188 3.187z" fill="#dc8758"/></g><g><path d="m400.369 261.476v41.135c0 1.76-1.43 3.181-3.19 3.181h-19.963c1.76 0 3.19-1.42 3.19-3.181v-41.135c0-1.76-1.43-3.19-3.19-3.19h19.963c1.76 0 3.19 1.43 3.19 3.19z" fill="#ce7345"/></g><g><path d="m247.309 305.796h-124.068l25.361 63.412c2.85 7.127 4.315 14.732 4.315 22.407v112.529h94.393 111.437v-112.53c0-7.675 1.464-15.28 4.315-22.407l25.361-63.412h-141.114z" fill="#e8ad8c"/></g><g><path d="m388.418 305.791-25.353 63.418c-2.85 7.121-4.32 14.732-4.32 22.403v112.534h-19.963v-112.534c0-7.671 1.47-15.282 4.321-22.403l25.363-63.418z" fill="#e19974"/></g><g><path d="m311.328 403.997h-110.994c-3.19 0-5.777-2.586-5.777-5.777v-36.45c0-3.19 2.586-5.777 5.777-5.777h110.994c3.19 0 5.777 2.586 5.777 5.777v36.45c0 3.191-2.586 5.777-5.777 5.777z" fill="#f9f7f8"/></g><g><path d="m317.109 361.768v36.455c0 3.19-2.59 5.771-5.781 5.771h-19.962c3.19 0 5.781-2.58 5.781-5.771v-36.455c0-3.19-2.59-5.771-5.781-5.771h19.962c3.191 0 5.781 2.581 5.781 5.771z" fill="#efedef"/></g><g><g><path d="m343.429 257.937v-29.234c0-39.564-26.231-72.997-62.25-83.867-3.983-1.202-6.738-4.827-6.738-8.988v-24.97h-37.219v24.97c0 4.161-2.755 7.786-6.738 8.988-36.019 10.871-62.25 44.303-62.25 83.867v29.234z" fill="#60b7ff"/></g><g><path d="m323.654 257.937v-29.237c0-31.998-22.853-53.925-55.178-65.52-8.248-2.961-13.814-10.708-13.814-19.476v-32.827h19.776v24.975c0 4.109 2.672 7.765 6.608 8.942 36.088 10.833 62.384 44.297 62.384 83.906v29.237z" fill="#26a6fe"/></g><g><circle cx="254.45" cy="68.146" fill="#fed2a4" r="60.622"/></g><g><path d="m315.073 68.145c0 33.477-27.143 60.62-60.62 60.62-11.289 0-21.864-3.084-30.912-8.464 4.454 1.047 9.103 1.602 13.882 1.602 33.486 0 60.629-27.134 60.629-60.62 0-22.188-11.928-41.599-29.717-52.156 26.791 6.269 46.738 30.319 46.738 59.018z" fill="#ffbd86"/></g></g></g><g><path d="m311.328 348.499h-110.994c-7.319 0-13.272 5.954-13.272 13.272v36.45c0 7.318 5.953 13.272 13.272 13.272h110.994c7.319 0 13.272-5.954 13.272-13.272v-36.45c0-7.319-5.953-13.272-13.272-13.272zm-1.718 48.003h-107.557v-33.013h107.557z"/><path d="m481.632 31.107h-170.06c-12.159-18.687-33.214-31.079-57.123-31.079-23.908 0-44.963 12.391-57.122 31.078h-101.764c-4.14 0-7.495 3.356-7.495 7.495s3.355 7.495 7.495 7.495h94.453c-2.375 6.921-3.683 14.333-3.683 22.049 0 28.84 18.025 53.534 43.394 63.453v4.249c0 .83-.566 1.558-1.408 1.812-19.143 5.777-36.349 17.794-48.45 33.835-12.515 16.591-19.13 36.373-19.13 57.208v22.091h-46.254c-5.891 0-10.683 4.792-10.683 10.682v41.133c0 5.89 4.792 10.682 10.683 10.682h3.681l23.477 58.699c1.8 4.501 2.952 9.175 3.465 13.951h-115.073c-8.295 0-15.045-6.749-15.045-15.045v-309.753c0-8.296 6.749-15.045 15.045-15.045h30.926c4.14 0 7.495-3.356 7.495-7.495s-3.355-7.495-7.495-7.495h-30.926c-16.561 0-30.035 13.473-30.035 30.035v309.755c0 16.561 13.474 30.035 30.035 30.035h115.386v103.212c0 4.139 3.355 7.495 7.495 7.495h205.83c4.14 0 7.495-3.356 7.495-7.495v-103.213h115.39c16.562 0 30.035-13.474 30.035-30.035v-309.754c.001-16.562-13.473-30.035-30.034-30.035zm-280.309 37.039c0-29.294 23.832-53.127 53.126-53.127s53.127 23.833 53.127 53.127-23.833 53.127-53.127 53.127-53.126-23.833-53.126-53.127zm-25.594 160.557c0-17.551 5.57-34.211 16.107-48.18 10.199-13.52 24.694-23.646 40.813-28.512 7.219-2.177 12.068-8.673 12.068-16.163v-.291c3.181.457 6.428.706 9.733.706 4.27 0 8.442-.414 12.496-1.169v.754c0 7.49 4.85 13.985 12.068 16.163 16.12 4.865 30.615 14.991 40.814 28.512 10.537 13.969 16.107 30.629 16.107 48.18v21.739h-24.239v-30.859c0-4.139-3.355-7.495-7.495-7.495s-7.495 3.356-7.495 7.495v30.859h-81.747v-32.09c0-4.139-3.355-7.495-7.495-7.495s-7.495 3.356-7.495 7.495v32.09h-24.239v-21.739zm-56.937 37.081h274.078v32.517h-274.078zm377.885 105.112c0 8.296-6.75 15.045-15.045 15.045h-115.076c.513-4.776 1.665-9.45 3.466-13.95l2.809-7.023c1.537-3.844-.333-8.206-4.176-9.743-3.844-1.537-8.206.332-9.743 4.176l-2.809 7.022c-3.219 8.048-4.851 16.524-4.851 25.191v105.033h-190.84v-105.033c0-8.666-1.632-17.141-4.85-25.19l-21.251-53.133h243.042l-5.595 13.988c-1.541 3.842.324 8.206 4.166 9.747.915.367 1.859.541 2.788.541 2.972 0 5.784-1.78 6.958-4.707l7.827-19.569h3.681c5.891 0 10.683-4.792 10.683-10.682v-41.133c0-5.89-4.792-10.682-10.683-10.682h-46.254v-22.091c0-20.835-6.615-40.617-19.13-57.208-12.101-16.041-29.307-28.058-48.451-33.835-.842-.254-1.408-.983-1.408-1.812v-5.398c23.905-10.587 40.632-34.522 40.632-62.304 0-7.716-1.308-15.128-3.683-22.049h162.748c8.295 0 15.045 6.749 15.045 15.045z"/><path d="m275.303 95.483c2.508-3.296 1.869-8.002-1.428-10.51-3.298-2.508-8.003-1.869-10.51 1.429-1.804 2.37-4.542 3.729-7.513 3.729-2.985 0-5.731-1.37-7.534-3.759-2.495-3.306-7.197-3.963-10.504-1.468s-3.964 7.198-1.469 10.504c4.663 6.179 11.773 9.723 19.507 9.723 7.698.001 14.787-3.516 19.451-9.648z"/></g></g></svg>