<svg id="Capa_1" enable-background="new 0 0 511.951 511.951" height="512" viewBox="0 0 511.951 511.951" width="512" xmlns="http://www.w3.org/2000/svg"><g><g><g><path d="m366.584 111.403c-7.243-7.872-19.039-9.531-28.173-3.962l-55.645 39.671-24.409 14.529c-5.823 3.466-12.968 3.879-19.151 1.107-10.17-4.559-16.715-14.665-16.715-25.811v-1.097h-43.133v.217c0 11.145-6.545 21.252-16.715 25.811l-1.964.88c-6.183 2.772-13.328 2.359-19.151-1.107l-24.409-14.529-55.646-39.672c-9.134-5.569-20.929-3.91-28.173 3.962-9.419 10.237-7.341 26.491 4.351 34.029l96.721 68.436c4.734 3.232 7.566 8.595 7.566 14.327v246.705c0 16.305 13.218 29.523 29.523 29.523.486 0 .97-.012 1.45-.035 15.257-.738 27.031-13.788 27.031-29.063 0 6.359 2.145 14.376 6.354 19.143 5.618 6.362 13.935 10.283 23.162 9.967 16.002-.547 28.488-14.127 28.488-30.139v-246.1c0-5.733 2.832-11.095 7.566-14.327l96.721-68.436c11.692-7.538 13.77-23.793 4.351-34.029z" fill="#60b7ff"/></g><g><path d="m362.235 145.428-96.729 68.436c-4.726 3.235-7.561 8.603-7.561 14.334v246.096c0 16.006-12.48 29.59-28.487 30.135-4.265.145-8.324-.606-12.02-2.108 10.978-4.471 18.611-15.51 18.611-28.026v-257.85c0-5.731 2.835-11.087 7.573-14.322l96.717-68.436c10.057-6.483 13.013-19.435 7.621-29.432 6.798-.642 13.741 1.842 18.624 7.149 9.416 10.239 7.344 26.487-4.349 34.024z" fill="#26a6fe"/></g><g><circle cx="200.883" cy="75.606" fill="#fed2a4" r="68.105"/></g><g><path d="m268.984 75.609c0 37.605-30.491 68.097-68.096 68.097-17.173 0-32.854-6.356-44.833-16.857 7.721 3.045 16.124 4.713 24.919 4.713 37.618 0 68.109-30.491 68.109-68.096 0-20.445-9.01-38.781-23.276-51.253 25.284 9.933 43.177 34.573 43.177 63.396z" fill="#ffbd86"/></g></g><g><g><g><circle cx="260.397" cy="303.415" fill="#9c9c9c" r="25.561"/></g><g><path d="m285.952 303.415c0 14.119-11.438 25.557-25.557 25.557-11.028 0-20.418-6.978-24-16.753 1.99.503 4.074.773 6.217.773 14.107 0 25.557-11.45 25.557-25.557 0-3.103-.55-6.064-1.569-8.816 11.121 2.763 19.352 12.82 19.352 24.796z" fill="#838383"/></g></g><g><g><circle cx="459.014" cy="303.415" fill="#9c9c9c" r="25.561"/></g><g><path d="m484.569 303.415c0 14.119-11.438 25.557-25.557 25.557-11.028 0-20.418-6.978-24-16.753 1.99.503 4.074.773 6.217.773 14.107 0 25.557-11.45 25.557-25.557 0-3.103-.55-6.064-1.569-8.816 11.122 2.763 19.352 12.82 19.352 24.796z" fill="#838383"/></g></g><g><g><circle cx="459.014" cy="196.601" fill="#9c9c9c" r="25.561"/></g><g><path d="m484.569 196.602c0 14.119-11.438 25.557-25.557 25.557-11.028 0-20.418-6.978-24-16.753 1.99.503 4.074.773 6.217.773 14.107 0 25.557-11.45 25.557-25.557 0-3.103-.55-6.064-1.569-8.816 11.122 2.762 19.352 12.819 19.352 24.796z" fill="#838383"/></g></g><g><g><circle cx="459.014" cy="410.229" fill="#9c9c9c" r="25.561"/></g><g><path d="m484.569 410.229c0 14.119-11.438 25.557-25.557 25.557-11.028 0-20.418-6.978-24-16.753 1.99.503 4.074.773 6.217.773 14.107 0 25.557-11.45 25.557-25.557 0-3.103-.55-6.064-1.569-8.816 11.122 2.763 19.352 12.819 19.352 24.796z" fill="#838383"/></g></g><g><path d="m218.794 99.89c-3.306-2.496-8.009-1.838-10.504 1.469-1.777 2.354-4.483 3.705-7.426 3.705-2.929 0-5.627-1.34-7.405-3.677-2.508-3.297-7.214-3.936-10.51-1.428s-3.936 7.213-1.428 10.51c4.639 6.098 11.689 9.595 19.343 9.595 7.691 0 14.762-3.524 19.4-9.67 2.494-3.307 1.836-8.009-1.47-10.504z"/><path d="m257.946 410.628c-4.142 0-7.5 3.357-7.5 7.5v56.166c0 12.085-9.53 22.243-21.245 22.644-6.618.234-12.911-2.484-17.284-7.437-2.593-2.937-4.476-8.898-4.476-14.178v-133.856c0-4.143-3.358-7.5-7.5-7.5s-7.5 3.357-7.5 7.5v133.856c0 11.557-8.738 21.032-19.896 21.572-.359.018-.721.026-1.084.026-12.144 0-22.023-9.88-22.023-22.023v-246.704c0-8.194-4.029-15.846-10.78-20.482l-40.204-28.446c-3.381-2.394-8.062-1.591-10.455 1.79-2.392 3.381-1.591 8.062 1.791 10.454l40.25 28.479c.035.024.069.049.104.072 2.689 1.836 4.294 4.876 4.294 8.133v246.704c0 20.415 16.608 37.023 37.023 37.023.608 0 1.213-.015 1.812-.044 10.716-.519 20.132-5.769 26.351-13.72.336.436.686.86 1.049 1.271 7.066 8.002 17.121 12.521 27.755 12.521.427 0 .856-.007 1.285-.022 19.702-.674 35.731-17.558 35.731-37.635v-56.166c.002-4.141-3.356-7.498-7.498-7.498z"/><path d="m426.822 310.915c3.407 14.627 16.543 25.561 32.192 25.561 18.229 0 33.061-14.831 33.061-33.061s-14.831-33.061-33.061-33.061c-15.649 0-28.785 10.934-32.192 25.561h-57.369v-91.813h57.369c3.407 14.627 16.543 25.561 32.192 25.561 18.229 0 33.061-14.831 33.061-33.061s-14.831-33.061-33.061-33.061c-15.649 0-28.785 10.934-32.192 25.561h-64.869c-4.142 0-7.5 3.357-7.5 7.5v99.313h-61.865c-3.034-13.023-13.777-23.118-27.143-25.175v-42.546c0-3.257 1.605-6.297 4.294-8.133.035-.023.07-.048.104-.072l96.598-68.35c7.355-4.802 12.207-12.54 13.322-21.259 1.122-8.777-1.67-17.545-7.662-24.057-9.636-10.473-25.447-12.696-37.597-5.287-.153.094-.303.192-.449.297l-55.393 39.491-24.143 14.371c-3.72 2.212-8.298 2.479-12.247.708-4.987-2.236-8.786-6.307-10.761-11.201 26.466-11.779 44.975-38.309 44.975-69.098.002-41.688-33.915-75.604-75.604-75.604s-75.605 33.916-75.605 75.605c0 30.69 18.391 57.148 44.722 68.983-3.917 8.693-15.272 16.181-24.635 10.608-.081-.048-24.144-14.372-24.144-14.372l-55.393-39.49c-.146-.104-.296-.203-.449-.297-12.151-7.408-27.962-5.186-37.597 5.287-5.992 6.512-8.784 15.279-7.662 24.057 1.115 8.719 5.967 16.458 13.322 21.259l27.896 19.738c3.38 2.394 8.062 1.591 10.455-1.79s1.591-8.062-1.791-10.454l-28.018-19.825c-.088-.063-.178-.123-.269-.182-3.708-2.391-6.157-6.272-6.716-10.649s.833-8.75 3.821-11.997c4.75-5.163 12.511-6.305 18.542-2.761l55.403 39.499c.168.119.341.231.518.337 0 0 24.368 14.505 24.409 14.529 17.283 10.288 39.657-1.434 46.596-18.731 5.344 1.202 10.893 1.857 16.595 1.857 5.624 0 11.099-.636 16.375-1.807 3.289 8.827 9.988 16.201 18.88 20.187 8.402 3.767 18.144 3.205 26.055-1.507l24.409-14.529c.177-.105.35-.218.518-.337l55.403-39.499c6.03-3.543 13.791-2.401 18.542 2.761 2.988 3.247 4.38 7.62 3.821 11.997s-3.008 8.259-6.716 10.649c-.091.059-.181.119-.269.182l-96.674 68.403c-6.752 4.636-10.781 12.287-10.781 20.482v43.693c-13.381 4.233-23.109 16.764-23.109 31.527s9.728 27.294 23.109 31.527v48.686c0 4.143 3.358 7.5 7.5 7.5s7.5-3.357 7.5-7.5v-47.536c13.367-2.057 24.109-12.152 27.143-25.175h61.865v99.313c0 4.143 3.358 7.5 7.5 7.5h64.869c3.407 14.627 16.543 25.561 32.192 25.561 18.229 0 33.061-14.831 33.061-33.061s-14.831-33.061-33.061-33.061c-15.649 0-28.785 10.934-32.192 25.561h-57.369v-91.813zm32.192-25.561c9.958 0 18.061 8.102 18.061 18.061s-8.102 18.061-18.061 18.061-18.061-8.102-18.061-18.061 8.103-18.061 18.061-18.061zm0-106.813c9.958 0 18.061 8.102 18.061 18.061s-8.102 18.061-18.061 18.061-18.061-8.102-18.061-18.061 8.103-18.061 18.061-18.061zm-258.132-42.33c-33.418 0-60.605-27.188-60.605-60.605s27.187-60.606 60.605-60.606 60.605 27.188 60.605 60.605-27.187 60.606-60.605 60.606zm59.515 185.265c-9.958 0-18.061-8.102-18.061-18.061s8.102-18.061 18.061-18.061 18.061 8.102 18.061 18.061-8.102 18.061-18.061 18.061zm198.617 70.692c9.958 0 18.061 8.102 18.061 18.061s-8.102 18.061-18.061 18.061-18.061-8.102-18.061-18.061 8.103-18.061 18.061-18.061z"/></g></g></g></svg>