<svg id="Capa_1" enable-background="new 0 0 511.975 511.975" height="512" viewBox="0 0 511.975 511.975" width="512" xmlns="http://www.w3.org/2000/svg"><g><g><path d="m504.475 434.747v-412.055c0-8.284-6.716-15-15-15h-327.945c-8.284 0-15 6.716-15 15v481.591h284.6z" fill="#f9f7f8"/></g><g><path d="m504.471 22.987v412.06l-19.73 18.13v-430.19c0-8.28-6.72-15-15-15h19.73c8.29 0 15 6.72 15 15z" fill="#efedef"/></g><g><path d="m431.13 504.283v-53.582c0-9.348 7.578-16.926 16.926-16.926h56.419z" fill="#bfbfbf"/></g><g><path d="m7.5 164.42v329.863c0 5.523 4.477 10 10 10h264.863c5.523 0 10-4.477 10-10v-375.202c0-5.523-4.477-10-10-10h-216.493z" fill="#ffe3cb"/></g><g><path d="m292.363 119.082v375.2c0 5.52-4.48 10-10 10h-20c5.52 0 10-4.48 10-10v-375.2c0-5.52-4.48-10-10-10h20c5.52 0 10 4.48 10 10z" fill="#feca9c"/></g><g><path d="m65.87 109.081v42.642c0 7.439-6.031 13.47-13.47 13.47h-44.9z" fill="#fea95c"/></g><g><path d="m270.946 353.858h42.834v42.834h-42.834z" fill="#5a5a5a"/></g><g><path d="m292.363 353.858h21.416v42.834h-21.416z" fill="#444"/></g><g><path d="m332.863 504.283h-81v-97.609c0-5.513 4.469-9.982 9.982-9.982h61.035c5.513 0 9.982 4.469 9.982 9.982v97.609z" fill="#ee6161"/></g><g><path d="m332.863 406.672v97.61h-19.63v-97.61c0-5.51-4.47-9.98-9.98-9.98h19.63c5.51 0 9.98 4.47 9.98 9.98z" fill="#e94444"/></g><g><circle cx="292.363" cy="255.745" fill="#9c9c9c" r="106.722"/></g><g><path d="m399.083 255.742c0 58.94-47.78 106.72-106.72 106.72-23.25 0-44.76-7.43-62.29-20.06 13.6 6.29 28.75 9.8 44.72 9.8 58.94 0 106.72-47.78 106.72-106.72 0-35.69-17.52-67.29-44.43-86.66 36.601 16.91 62 53.95 62 96.92z" fill="#838383"/></g><g><circle cx="292.363" cy="255.745" fill="#d8ecfe" r="69.912"/></g><g><path d="m362.273 255.742c0 38.61-31.3 69.91-69.91 69.91-15.78 0-30.33-5.23-42.03-14.04 7.78 3 16.24 4.64 25.09 4.64 38.61 0 69.91-31.3 69.91-69.91 0-22.83-10.95-43.11-27.88-55.87 26.221 10.08 44.82 35.5 44.82 65.27z" fill="#c4e2ff"/></g><g><path d="m451.333 58.748h-251.662c-4.142 0-7.5 3.357-7.5 7.5s3.358 7.5 7.5 7.5h251.662c4.143 0 7.5-3.357 7.5-7.5s-3.357-7.5-7.5-7.5z"/><path d="m451.333 106.108h-93c-4.143 0-7.5 3.357-7.5 7.5s3.357 7.5 7.5 7.5h93c4.143 0 7.5-3.357 7.5-7.5s-3.357-7.5-7.5-7.5z"/><path d="m451.333 153.47h-37.346c-4.143 0-7.5 3.357-7.5 7.5s3.357 7.5 7.5 7.5h37.346c4.143 0 7.5-3.357 7.5-7.5s-3.357-7.5-7.5-7.5z"/><path d="m451.333 200.831h-22.346c-4.143 0-7.5 3.357-7.5 7.5s3.357 7.5 7.5 7.5h22.346c4.143 0 7.5-3.357 7.5-7.5s-3.357-7.5-7.5-7.5z"/><path d="m451.333 248.191h-18.346c-4.143 0-7.5 3.357-7.5 7.5s3.357 7.5 7.5 7.5h18.346c4.143 0 7.5-3.357 7.5-7.5s-3.357-7.5-7.5-7.5z"/><path d="m451.333 295.553h-22.5c-4.143 0-7.5 3.357-7.5 7.5s3.357 7.5 7.5 7.5h22.5c4.143 0 7.5-3.357 7.5-7.5s-3.357-7.5-7.5-7.5z"/><path d="m451.333 342.914h-29.346c-4.143 0-7.5 3.357-7.5 7.5s3.357 7.5 7.5 7.5h29.346c4.143 0 7.5-3.357 7.5-7.5s-3.357-7.5-7.5-7.5z"/><path d="m451.333 390.274h-76.346c-4.143 0-7.5 3.357-7.5 7.5s3.357 7.5 7.5 7.5h76.346c4.143 0 7.5-3.357 7.5-7.5s-3.357-7.5-7.5-7.5z"/><path d="m160.854 194.191h-87.612c-4.142 0-7.5 3.357-7.5 7.5s3.358 7.5 7.5 7.5h87.612c4.142 0 7.5-3.357 7.5-7.5s-3.358-7.5-7.5-7.5z"/><path d="m142.242 229.191h-69c-4.142 0-7.5 3.357-7.5 7.5s3.358 7.5 7.5 7.5h69c4.142 0 7.5-3.357 7.5-7.5s-3.358-7.5-7.5-7.5z"/><path d="m142.242 264.191h-69c-4.142 0-7.5 3.357-7.5 7.5s3.358 7.5 7.5 7.5h69c4.142 0 7.5-3.357 7.5-7.5s-3.358-7.5-7.5-7.5z"/><path d="m489.475.191h-327.945c-12.407 0-22.5 10.094-22.5 22.5v78.89h-66.731c-3.797 0-8.667-.71-11.589 2.058 0 0-.034.032-.038.035l-.037.036-58.295 55.268c-1.494 1.416-2.34 3.383-2.34 5.442v329.863c0 9.649 7.851 17.5 17.5 17.5h413.63c.084 0 .166-.009.25-.012 5.457-.186 16.108-12.034 16.108-12.034 9.144-8.669 17.254-16.985 26.397-25.654 11.917-11.298 23.833-22.596 35.75-33.894 1.494-1.416 2.34-3.384 2.34-5.442v-412.056c0-12.406-10.094-22.5-22.5-22.5zm-431.105 126.503v25.028c0 3.292-2.678 5.97-5.97 5.97h-26.276zm266.993 370.089h-66.001v-90.109c0-1.369 1.114-2.482 2.483-2.482h61.035c1.369 0 2.482 1.113 2.482 2.482v90.109zm-46.917-107.592v-20.074c4.563.557 9.206.849 13.917.849 4.693 0 9.336-.285 13.916-.835v20.059h-27.833zm160.184 97.479v-35.969c0-5.197 4.229-9.426 9.426-9.426h37.795zm58.345-60.395h-48.919c-13.469 0-24.426 10.957-24.426 24.426v46.082h-83.267v-90.109c0-9.64-7.843-17.482-17.482-17.482h-1.602v-22.883c20.212-5.236 38.629-15.979 53.518-31.498 2.867-2.989 2.77-7.737-.22-10.604s-7.737-2.769-10.604.22c-18.895 19.694-44.326 30.541-71.609 30.541-54.711 0-99.223-44.511-99.223-99.223 0-54.711 44.511-99.222 99.223-99.222 54.711 0 99.222 44.511 99.222 99.222 0 14.749-3.155 28.937-9.38 42.17-1.763 3.749-.153 8.217 3.595 9.979 3.75 1.764 8.216.153 9.979-3.595 7.17-15.246 10.806-31.582 10.806-48.555 0-60.462-47.223-110.093-106.722-113.969v-22.694c0-9.649-7.851-17.5-17.5-17.5h-58.375c-4.142 0-7.5 3.357-7.5 7.5s3.358 7.5 7.5 7.5h58.375c1.379 0 2.5 1.121 2.5 2.5v22.694c-59.499 3.876-106.723 53.507-106.723 113.969 0 52.995 36.28 97.673 85.306 110.511v22.937h-1.601c-9.64 0-17.483 7.843-17.483 17.482v90.109h-226.863c-1.378 0-2.5-1.121-2.5-2.5v-321.591h37.4c11.563 0 20.97-9.407 20.97-20.97v-35.142h115.95c4.142 0 7.5-3.357 7.5-7.5s-3.358-7.5-7.5-7.5h-35.29v-78.89c0-4.136 3.364-7.5 7.5-7.5h327.945c4.136 0 7.5 3.364 7.5 7.5z"/><path d="m292.363 178.332c-42.686 0-77.413 34.727-77.413 77.412s34.727 77.413 77.413 77.413 77.412-34.728 77.412-77.413-34.726-77.412-77.412-77.412zm0 139.825c-34.414 0-62.413-27.998-62.413-62.413 0-34.414 27.999-62.412 62.413-62.412s62.412 27.998 62.412 62.412c0 34.415-27.998 62.413-62.412 62.413z"/></g></g></svg>