<svg id="Capa_1" enable-background="new 0 0 512.333 512.333" height="512" viewBox="0 0 512.333 512.333" width="512" xmlns="http://www.w3.org/2000/svg"><g><g><path d="m429.581 80.125h-368.275c-11.099 0-20.097 8.998-20.097 20.097v49.26 282.554c0 11.099 8.998 20.097 20.097 20.097h368.275c11.099 0 20.097-8.998 20.097-20.097v-282.554-49.26c0-11.099-8.998-20.097-20.097-20.097z" fill="#bfbfbf"/></g><g><path d="m395.872 417.454h-368.275c-11.099 0-20.097-8.998-20.097-20.097v-282.553h408.469v282.554c0 11.099-8.998 20.096-20.097 20.096z" fill="#f9f7f8"/></g><g><path d="m415.972 114.804v282.556c0 11.096-8.998 20.095-20.095 20.095h-19.186c11.107 0 20.095-8.998 20.095-20.095v-282.556z" fill="#efedef"/></g><g><path d="m415.969 114.804h-408.469v-49.26c0-11.099 8.998-20.097 20.097-20.097h368.275c11.099 0 20.097 8.998 20.097 20.097z" fill="#ee6161"/></g><g><g><g><circle cx="80.551" cy="180.143" fill="#e2e2e2" r="24.549"/></g><g><circle cx="168.007" cy="180.143" fill="#e2e2e2" r="24.549"/></g><g><circle cx="255.463" cy="180.143" fill="#e2e2e2" r="24.549"/></g><g><circle cx="342.919" cy="180.143" fill="#e2e2e2" r="24.549"/></g></g><g><g><circle cx="80.551" cy="266.129" fill="#e2e2e2" r="24.549"/></g><g><circle cx="168.007" cy="266.129" fill="#e2e2e2" r="24.549"/></g><g><circle cx="255.463" cy="266.129" fill="#e2e2e2" r="24.549"/></g><g><circle cx="342.919" cy="266.129" fill="#e2e2e2" r="24.549"/></g></g><g><g><circle cx="80.551" cy="352.115" fill="#e2e2e2" r="24.549"/></g><g><circle cx="168.007" cy="352.115" fill="#e2e2e2" r="24.549"/></g><g><circle cx="255.463" cy="352.115" fill="#e2e2e2" r="24.549"/></g></g></g><g><path d="m415.972 65.543v49.261h-19.186v-49.261c0-11.096-8.988-20.095-20.095-20.095h19.186c11.096.001 20.095 8.999 20.095 20.095z" fill="#e94444"/></g><g><g><circle cx="406.949" cy="402.747" fill="#fac600" r="97.884"/></g></g><g><g><path d="m416.253 353.684 9.618 19.488c1.511 3.062 4.432 5.185 7.812 5.676l21.506 3.125c8.51 1.237 11.908 11.694 5.75 17.697l-15.562 15.169c-2.445 2.384-3.561 5.818-2.984 9.183l3.674 21.419c1.454 8.475-7.442 14.939-15.054 10.937l-19.236-10.113c-3.022-1.589-6.633-1.589-9.656 0l-19.236 10.113c-7.611 4.002-16.507-2.462-15.054-10.937l3.674-21.419c.577-3.366-.539-6.8-2.984-9.183l-15.562-15.169c-6.158-6.002-2.76-16.46 5.75-17.697l21.506-3.125c3.379-.491 6.3-2.613 7.812-5.676l9.618-19.488c3.806-7.711 14.802-7.711 18.608 0z" fill="#fe9738"/></g><g><path d="m445.378 414.839c-2.45 2.38-3.56 5.82-2.99 9.18l3.68 21.42c1.45 8.48-7.44 14.94-15.06 10.94l-7.91-4.16c1.7-2.46 2.52-5.59 1.94-8.99l-4.34-25.309c-.68-3.97.64-8.03 3.53-10.85l18.39-17.92c2.48-2.42 3.65-5.46 3.71-8.47l8.86 1.29c8.51 1.24 11.91 11.7 5.75 17.7z" fill="#fe860a"/></g></g><g><path d="m504.83 402.748c0 54.059-43.818 97.886-97.876 97.886-17.09 0-33.163-4.381-47.143-12.087 9.327 2.958 19.257 4.55 29.554 4.55 54.059 0 97.886-43.827 97.886-97.886 0-36.978-20.51-69.17-50.771-85.808 39.625 12.512 68.35 49.574 68.35 93.345z" fill="#e8b800"/></g><g><path d="m92.638 79.191c-9.866 0-17.865-7.998-17.865-17.865v-31.759c0-9.866 7.998-17.865 17.865-17.865 9.866 0 17.865 7.998 17.865 17.865v31.759c-.001 9.867-7.999 17.865-17.865 17.865z" fill="#5a5a5a"/></g><g><path d="m211.735 79.191c-9.866 0-17.865-7.998-17.865-17.865v-31.759c0-9.866 7.998-17.865 17.865-17.865 9.866 0 17.865 7.998 17.865 17.865v31.759c-.001 9.867-7.999 17.865-17.865 17.865z" fill="#5a5a5a"/></g><g><path d="m330.832 79.191c-9.866 0-17.865-7.998-17.865-17.865v-31.759c0-9.866 7.998-17.865 17.865-17.865 9.866 0 17.865 7.998 17.865 17.865v31.759c-.001 9.867-7.999 17.865-17.865 17.865z" fill="#5a5a5a"/></g><g><path d="m110.503 29.571v31.755c0 9.865-7.996 17.861-17.861 17.861-3.257 0-6.315-.866-8.936-2.391 5.345-3.1 8.936-8.862 8.936-15.47v-31.755c0-4.938-2.004-9.405-5.24-12.641-1.096-1.096-2.338-2.046-3.695-2.829 2.62-1.524 5.679-2.401 8.936-2.401 4.927 0 9.395 2.004 12.631 5.23 3.235 3.236 5.229 7.704 5.229 12.641z" fill="#444"/></g><g><path d="m229.598 29.571v31.755c0 9.865-7.996 17.861-17.861 17.861-3.257 0-6.315-.866-8.936-2.391 5.345-3.09 8.936-8.862 8.936-15.47v-31.755c0-4.938-1.994-9.405-5.23-12.641-1.096-1.096-2.349-2.057-3.706-2.829 2.62-1.524 5.679-2.401 8.936-2.401 4.938 0 9.395 2.004 12.631 5.23 3.226 3.236 5.23 7.704 5.23 12.641z" fill="#444"/></g><g><path d="m348.694 29.571v31.755c0 9.865-7.996 17.861-17.861 17.861-3.246 0-6.305-.866-8.925-2.391 5.334-3.1 8.925-8.862 8.925-15.47v-31.755c0-4.938-2.004-9.405-5.23-12.641-1.096-1.096-2.338-2.046-3.695-2.829 2.62-1.524 5.679-2.401 8.925-2.401 4.927 0 9.395 2.004 12.631 5.23 3.236 3.236 5.23 7.704 5.23 12.641z" fill="#444"/></g><g><g><g><path d="m105.1 180.139c0 13.56-10.99 24.55-24.549 24.55-8.74 0-16.42-4.57-20.77-11.45 1.37.24 2.77.36 4.21.36 13.56 0 24.549-10.99 24.549-24.549 0-4.82-1.39-9.31-3.78-13.1 11.55 1.999 20.34 12.069 20.34 24.189z" fill="#cecece"/></g><g><path d="m192.558 180.139c0 13.56-10.99 24.55-24.549 24.55-8.74 0-16.42-4.57-20.77-11.45 1.37.24 2.77.36 4.21.36 13.56 0 24.549-10.99 24.549-24.549 0-4.82-1.39-9.31-3.78-13.1 11.55 1.999 20.34 12.069 20.34 24.189z" fill="#cecece"/></g><g><path d="m280.016 180.139c0 13.56-11 24.55-24.55 24.55-8.74 0-16.42-4.57-20.77-11.45 1.37.24 2.77.36 4.21.36 13.56 0 24.55-10.99 24.55-24.549 0-4.82-1.39-9.31-3.78-13.1 11.55 1.999 20.34 12.069 20.34 24.189z" fill="#cecece"/></g><g><path d="m367.464 180.139c0 13.56-10.99 24.55-24.549 24.55-8.74 0-16.42-4.57-20.77-11.46 1.37.25 2.77.37 4.21.37 13.56 0 24.549-10.99 24.549-24.549 0-4.82-1.39-9.31-3.78-13.1 11.551 1.999 20.34 12.069 20.34 24.189z" fill="#cecece"/></g></g><g><g><path d="m105.1 266.127c0 13.56-10.99 24.55-24.549 24.55-8.74 0-16.42-4.57-20.77-11.45 1.37.24 2.77.36 4.21.36 13.56 0 24.549-11 24.549-24.549 0-4.82-1.39-9.31-3.78-13.1 11.55 2 20.34 12.069 20.34 24.189z" fill="#cecece"/></g><g><path d="m192.558 266.127c0 13.56-10.99 24.55-24.549 24.55-8.74 0-16.42-4.57-20.77-11.45 1.37.24 2.77.36 4.21.36 13.56 0 24.549-11 24.549-24.549 0-4.82-1.39-9.31-3.78-13.1 11.55 2 20.34 12.069 20.34 24.189z" fill="#cecece"/></g><g><path d="m280.016 266.127c0 13.56-11 24.55-24.55 24.55-8.74 0-16.42-4.57-20.77-11.45 1.37.24 2.77.36 4.21.36 13.56 0 24.55-11 24.55-24.549 0-4.82-1.39-9.31-3.78-13.1 11.55 2 20.34 12.069 20.34 24.189z" fill="#cecece"/></g><g><path d="m367.464 266.127c0 13.56-10.99 24.55-24.549 24.55-8.74 0-16.42-4.57-20.77-11.46 1.37.25 2.77.37 4.21.37 13.56 0 24.549-11 24.549-24.549 0-4.82-1.39-9.31-3.78-13.1 11.551 2 20.34 12.069 20.34 24.189z" fill="#cecece"/></g></g><g><g><path d="m105.1 352.115c0 13.56-10.99 24.549-24.549 24.549-8.75 0-16.43-4.58-20.77-11.47 1.37.25 2.77.37 4.21.37 13.56 0 24.549-10.99 24.549-24.55 0-4.8-1.38-9.29-3.78-13.08 11.55 1.992 20.34 12.062 20.34 24.181z" fill="#cecece"/></g><g><path d="m192.558 352.115c0 13.56-10.99 24.549-24.549 24.549-8.75 0-16.43-4.58-20.77-11.47 1.37.25 2.77.37 4.21.37 13.56 0 24.549-10.99 24.549-24.55 0-4.8-1.38-9.29-3.78-13.08 11.55 1.992 20.34 12.062 20.34 24.181z" fill="#cecece"/></g><g><path d="m280.016 352.115c0 13.56-11 24.549-24.55 24.549-8.75 0-16.43-4.58-20.77-11.47 1.37.25 2.77.37 4.21.37 13.56 0 24.55-10.99 24.55-24.55 0-4.8-1.38-9.29-3.78-13.08 11.55 1.992 20.34 12.062 20.34 24.181z" fill="#cecece"/></g></g></g><g><path d="m470.697 386.718c-2.117-6.519-7.646-11.181-14.43-12.168l-21.507-3.125c-.936-.136-1.744-.725-2.163-1.572l-9.618-19.488c-3.033-6.146-9.175-9.965-16.029-9.965s-12.996 3.818-16.029 9.965l-9.618 19.488c-.419.849-1.227 1.436-2.164 1.572l-21.507 3.125c-6.783.986-12.312 5.648-14.429 12.168-2.117 6.517-.384 13.539 4.523 18.321l15.563 15.171c.677.66.985 1.611.826 2.545l-3.675 21.418c-1.158 6.756 1.567 13.455 7.112 17.483 5.547 4.029 12.759 4.549 18.825 1.36l19.235-10.113c.838-.441 1.838-.441 2.676 0l19.236 10.113c2.639 1.387 5.494 2.072 8.335 2.072 3.69 0 7.357-1.156 10.49-3.432 5.545-4.029 8.269-10.728 7.11-17.483l-3.673-21.418c-.16-.934.148-1.885.826-2.545l15.561-15.17c4.907-4.783 6.641-11.804 4.524-18.322zm-14.994 7.581-15.562 15.17c-4.213 4.106-6.135 10.021-5.14 15.821l3.674 21.419c.263 1.532-.604 2.419-1.145 2.812-.539.392-1.653.941-3.027.219l-19.236-10.113c-5.208-2.738-11.427-2.739-16.636 0l-19.235 10.113c-1.376.725-2.487.174-3.028-.219-.54-.393-1.407-1.279-1.145-2.813l3.675-21.418c.994-5.802-.928-11.717-5.141-15.822l-15.563-15.17c-1.113-1.085-.934-2.311-.727-2.946.206-.635.782-1.734 2.32-1.958l21.505-3.125c5.824-.845 10.855-4.5 13.46-9.777l9.618-19.488c.688-1.394 1.911-1.603 2.578-1.603s1.89.209 2.578 1.603l9.619 19.489c2.605 5.277 7.637 8.931 13.458 9.776l21.505 3.125c1.539.224 2.115 1.323 2.321 1.958.208.635.388 1.861-.726 2.947z"/><path d="m457.177 310.152v-141.483c0-4.143-3.357-7.5-7.5-7.5s-7.5 3.357-7.5 7.5v134.764c-6.007-2.137-12.26-3.753-18.709-4.772v-211.036h6.111c6.946 0 12.597 5.651 12.597 12.597v33.281c0 4.142 3.357 7.5 7.5 7.5 4.142 0 7.5-3.357 7.5-7.5v-33.281c0-15.217-12.38-27.597-27.597-27.597h-6.111v-7.081c0-15.217-12.38-27.597-27.597-27.597h-39.676v-8.38c0-13.986-11.379-25.365-25.365-25.365s-25.364 11.379-25.364 25.365v8.38h-68.369v-8.38c0-13.986-11.378-25.365-25.364-25.365s-25.365 11.379-25.365 25.365v8.38h-68.369v-8.38c0-13.986-11.378-25.365-25.364-25.365s-25.365 11.379-25.365 25.365v8.38h-39.673c-15.217 0-27.597 12.38-27.597 27.597v331.814c0 15.216 12.38 27.596 27.597 27.596h6.112v7.082c0 15.218 12.38 27.597 27.596 27.597h257.001c18.765 29.145 51.477 48.498 88.643 48.498 58.109 0 105.385-47.274 105.385-105.384-.001-39.929-22.336-74.721-55.157-92.595zm-136.71-280.585c0-5.716 4.649-10.365 10.365-10.365 5.715 0 10.364 4.649 10.364 10.365v31.759c0 5.716-4.649 10.365-10.364 10.365h-.001c-5.715 0-10.364-4.649-10.364-10.365zm-119.097 0c0-5.716 4.649-10.365 10.365-10.365 5.715 0 10.364 4.649 10.364 10.365v31.759c0 5.716-4.649 10.365-10.364 10.365-5.716 0-10.365-4.649-10.365-10.365zm-119.097 0c0-5.716 4.649-10.365 10.365-10.365 5.715 0 10.364 4.649 10.364 10.365v31.759c0 5.716-4.649 10.365-10.364 10.365-5.716 0-10.365-4.649-10.365-10.365zm-67.273 35.977c0-6.946 5.651-12.597 12.597-12.597h39.676v8.38c0 13.986 11.379 25.365 25.365 25.365s25.364-11.379 25.364-25.365v-8.38h68.369v8.38c0 13.986 11.379 25.365 25.365 25.365s25.364-11.379 25.364-25.365v-8.38h68.369v8.38c0 13.986 11.379 25.365 25.365 25.365s25.364-11.379 25.364-25.365v-8.38h39.676c6.946 0 12.597 5.651 12.597 12.597v41.76h-393.471zm46.305 379.089c-6.946 0-12.596-5.651-12.596-12.597v-7.082h72.21c4.143 0 7.5-3.357 7.5-7.5s-3.357-7.5-7.5-7.5h-93.322c-6.946 0-12.597-5.65-12.597-12.596v-275.054h393.469v175.078c-.507-.007-1.012-.019-1.52-.019-58.109 0-105.384 47.275-105.384 105.385 0 2.423.09 4.825.251 7.207h-146.147c-4.142 0-7.5 3.357-7.5 7.5s3.357 7.5 7.5 7.5h148.259c1.471 6.831 3.626 13.407 6.354 19.679h-248.977zm345.644 48.498c-49.838 0-90.384-40.546-90.384-90.384 0-49.839 40.546-90.385 90.384-90.385 49.839 0 90.385 40.546 90.385 90.385 0 49.838-40.546 90.384-90.385 90.384z"/><path d="m80.551 148.094c-17.672 0-32.049 14.378-32.049 32.049s14.378 32.048 32.049 32.048 32.048-14.377 32.048-32.048-14.376-32.049-32.048-32.049zm0 49.098c-9.401 0-17.05-7.648-17.05-17.048 0-9.401 7.648-17.049 17.05-17.049 9.4 0 17.048 7.648 17.048 17.049.001 9.4-7.648 17.048-17.048 17.048z"/><path d="m168.006 212.192c17.672 0 32.049-14.377 32.049-32.048s-14.378-32.049-32.049-32.049-32.048 14.378-32.048 32.049 14.377 32.048 32.048 32.048zm0-49.098c9.401 0 17.05 7.648 17.05 17.049 0 9.4-7.648 17.048-17.05 17.048-9.4 0-17.048-7.648-17.048-17.048 0-9.401 7.648-17.049 17.048-17.049z"/><path d="m255.463 212.192c17.672 0 32.049-14.377 32.049-32.048s-14.378-32.049-32.049-32.049-32.049 14.378-32.049 32.049 14.377 32.048 32.049 32.048zm0-49.098c9.401 0 17.05 7.648 17.05 17.049 0 9.4-7.648 17.048-17.05 17.048s-17.049-7.648-17.049-17.048c-.001-9.401 7.648-17.049 17.049-17.049z"/><path d="m342.919 212.192c17.671 0 32.048-14.377 32.048-32.048s-14.377-32.049-32.048-32.049c-17.672 0-32.049 14.378-32.049 32.049s14.377 32.048 32.049 32.048zm0-49.098c9.4 0 17.048 7.648 17.048 17.049 0 9.4-7.648 17.048-17.048 17.048-9.401 0-17.05-7.648-17.05-17.048 0-9.401 7.649-17.049 17.05-17.049z"/><path d="m80.551 234.08c-17.672 0-32.049 14.378-32.049 32.049 0 17.672 14.378 32.049 32.049 32.049s32.048-14.378 32.048-32.049c0-17.672-14.376-32.049-32.048-32.049zm0 49.098c-9.401 0-17.05-7.648-17.05-17.049s7.648-17.049 17.05-17.049c9.4 0 17.048 7.648 17.048 17.049.001 9.401-7.648 17.049-17.048 17.049z"/><path d="m168.006 298.178c17.672 0 32.049-14.378 32.049-32.049 0-17.672-14.378-32.049-32.049-32.049s-32.048 14.378-32.048 32.049 14.377 32.049 32.048 32.049zm0-49.099c9.401 0 17.05 7.648 17.05 17.049s-7.648 17.049-17.05 17.049c-9.4 0-17.048-7.648-17.048-17.049 0-9.4 7.648-17.049 17.048-17.049z"/><path d="m255.463 298.178c17.672 0 32.049-14.378 32.049-32.049 0-17.672-14.378-32.049-32.049-32.049s-32.049 14.378-32.049 32.049 14.377 32.049 32.049 32.049zm0-49.099c9.401 0 17.05 7.648 17.05 17.049s-7.648 17.049-17.05 17.049-17.049-7.648-17.049-17.049c-.001-9.4 7.648-17.049 17.049-17.049z"/><path d="m342.919 298.178c17.671 0 32.048-14.378 32.048-32.049 0-17.672-14.377-32.049-32.048-32.049-17.672 0-32.049 14.378-32.049 32.049s14.377 32.049 32.049 32.049zm0-49.099c9.4 0 17.048 7.648 17.048 17.049s-7.648 17.049-17.048 17.049c-9.401 0-17.05-7.648-17.05-17.049 0-9.4 7.649-17.049 17.05-17.049z"/><path d="m80.551 320.066c-17.672 0-32.049 14.378-32.049 32.049s14.378 32.048 32.049 32.048 32.048-14.377 32.048-32.048-14.376-32.049-32.048-32.049zm0 49.098c-9.401 0-17.05-7.648-17.05-17.048 0-9.401 7.648-17.049 17.05-17.049 9.4 0 17.048 7.648 17.048 17.049.001 9.4-7.648 17.048-17.048 17.048z"/><path d="m200.056 352.115c0-17.672-14.378-32.049-32.049-32.049s-32.048 14.378-32.048 32.049 14.377 32.048 32.048 32.048c17.671.001 32.049-14.376 32.049-32.048zm-49.098 0c0-9.401 7.648-17.049 17.048-17.049 9.401 0 17.05 7.648 17.05 17.049 0 9.4-7.648 17.048-17.05 17.048-9.4.001-17.048-7.647-17.048-17.048z"/><path d="m255.463 384.164c17.672 0 32.049-14.377 32.049-32.048s-14.378-32.049-32.049-32.049-32.049 14.378-32.049 32.049 14.377 32.048 32.049 32.048zm0-49.098c9.401 0 17.05 7.648 17.05 17.049 0 9.4-7.648 17.048-17.05 17.048s-17.049-7.648-17.049-17.048c-.001-9.401 7.648-17.049 17.049-17.049z"/></g></g></svg>