<svg id="Capa_1" enable-background="new 0 0 512.333 512.333" height="512" viewBox="0 0 512.333 512.333" width="512" xmlns="http://www.w3.org/2000/svg"><g><g><path d="m341.19 241.457c-9.798-7.654-23.946-5.915-31.6 3.883l-102.423 130.014c-1.079 1.37-3.054 1.619-4.434.553-13.185-10.195-74.362-57.5-74.451-57.569-9.798-7.654-23.946-5.915-31.6 3.883l-84.301 107.925c-7.514 9.62-6.434 23.657 2.913 31.508 9.813 8.243 24.416 6.647 32.238-3.366l69.092-88.453c1.08-1.383 3.077-1.629 4.46-.549l73.762 57.56c10.385 8.104 23.508 5.355 31.103-4.268 3.833-4.856 118.241-148.404 119.124-149.521 7.654-9.798 5.915-23.946-3.883-31.6z" fill="#98d5b9"/></g><g><path d="m345.068 273.053c-.879 1.119-115.282 144.667-119.118 149.522-7.601 9.628-20.715 12.375-31.103 4.275l-73.762-57.561c-1.388-1.079-3.386-.839-4.465.549l-69.087 88.454c-7.821 10.008-22.423 11.606-32.241 3.366-8.57-7.201-10.188-19.606-4.605-29.025.469.499.969.959 1.498 1.398 9.808 8.25 24.411 6.652 32.232-3.366l69.097-88.444c1.079-1.388 3.076-1.638 4.455-.549l73.762 57.551c10.388 8.11 23.512 5.363 31.103-4.265 3.835-4.854 118.239-148.403 119.128-149.521.509-.659.989-1.338 1.418-2.028 7.831 7.93 8.74 20.625 1.688 29.644z" fill="#7acaa6"/></g><g><path d="m382.573 307.076-9.405-92.048c-.567-5.545-5.52-9.581-11.065-9.016l-92.08 9.381c-12.37 1.26-21.375 12.311-20.111 24.681 1.264 12.367 12.313 21.368 24.68 20.105l52.906-5.405c2.444-.25 4.628 1.529 4.878 3.974l5.405 52.906c1.264 12.367 12.313 21.368 24.68 20.105l.007-.001c12.368-1.265 21.369-12.315 20.105-24.682z" fill="#57be92"/></g><g><path d="m362.467 331.753h-.01c-4.315.439-8.47-.369-12.106-2.137 7.611-3.666 12.695-11.456 12.695-20.216 0-.769-.04-1.548-.12-2.327l-9.399-92.04c-.34-3.306-2.227-6.073-4.874-7.651l13.454-1.368c5.543-.569 10.497 3.466 11.057 9.019l9.409 92.04c1.269 12.375-7.741 23.422-20.106 24.68z" fill="#09a76d"/></g><g><g><path d="m348.742 51.601 10.336 20.942c1.624 3.291 4.763 5.571 8.395 6.099l23.111 3.358c9.145 1.329 12.796 12.567 6.179 19.017l-16.723 16.301c-2.628 2.561-3.827 6.252-3.206 9.869l3.948 23.018c1.562 9.108-7.998 16.053-16.177 11.753l-20.671-10.867c-3.248-1.708-7.128-1.708-10.376 0l-20.671 10.867c-8.179 4.3-17.739-2.645-16.177-11.753l3.948-23.018c.62-3.617-.579-7.307-3.206-9.869l-16.723-16.301c-6.617-6.45-2.966-17.688 6.179-19.017l23.111-3.358c3.631-.528 6.771-2.808 8.395-6.099l10.336-20.942c4.086-8.286 15.902-8.286 19.992 0z" fill="#fe9738"/></g><g><path d="m380.041 117.319c-2.633 2.558-3.826 6.254-3.213 9.865l3.955 23.018c1.558 9.113-7.995 16.055-16.184 11.756l-8.5-4.47c1.827-2.644 2.708-6.007 2.085-9.661l-4.664-27.198c-.731-4.266.688-8.629 3.793-11.659l19.762-19.257c2.665-2.601 3.922-5.867 3.987-9.102l9.521 1.386c9.145 1.332 12.799 12.573 6.179 19.02z" fill="#fe860a"/></g></g><g><g><g><path d="m461.015 162.268 8.812 17.856c1.385 2.806 4.061 4.75 7.158 5.2l19.705 2.863c7.797 1.133 10.91 10.715 5.268 16.215l-14.258 13.898c-2.24 2.184-3.263 5.33-2.734 8.414l3.366 19.626c1.332 7.766-6.819 13.688-13.793 10.021l-17.625-9.266c-2.769-1.456-6.078-1.456-8.847 0l-17.625 9.266c-6.974 3.666-15.125-2.256-13.793-10.021l3.366-19.626c.529-3.084-.493-6.23-2.734-8.414l-14.259-13.899c-5.642-5.5-2.529-15.082 5.268-16.215l19.705-2.863c3.096-.45 5.773-2.395 7.158-5.2l8.812-17.856c3.488-7.065 13.563-7.065 17.05.001z" fill="#fe9738"/></g><g><path d="m487.702 218.301c-2.245 2.181-3.262 5.332-2.74 8.411l3.372 19.626c1.329 7.77-6.817 13.689-13.799 10.024l-7.247-3.812c1.558-2.254 2.309-5.122 1.777-8.237l-3.977-23.19c-.623-3.637.586-7.357 3.234-9.941l16.85-16.419c2.272-2.217 3.344-5.003 3.399-7.76l8.118 1.182c7.797 1.136 10.912 10.72 5.268 16.217z" fill="#fe860a"/></g><g><path d="m380.621 214.266c-.985-9.644-9.645-16.691-19.276-15.706l-37.344 3.804c-4.116.418-7.113 4.096-6.693 8.211.418 4.115 4.091 7.109 8.211 6.693l37.344-3.804c1.419-.144 2.708.896 2.854 2.325l9.405 92.047c.839 8.212-5.138 15.578-13.336 16.459-.028.003-.057.006-.085.009-3.987.403-7.901-.763-11.011-3.296-3.11-2.534-5.048-6.126-5.456-10.118l-5.406-52.905c-.669-6.55-6.539-11.331-13.092-10.665l-52.905 5.406c-8.249.841-15.626-5.176-16.468-13.414-.408-3.992.764-7.904 3.299-11.014 2.534-3.111 6.128-5.048 10.12-5.454l20.32-2.07c4.116-.418 7.113-4.096 6.693-8.211-.418-4.116-4.107-7.115-8.211-6.693l-20.321 2.07c-7.974.812-15.154 4.681-20.217 10.894-5.062 6.213-7.402 14.026-6.588 22.001 1.681 16.456 16.438 28.477 32.894 26.795l7.763-.793-79.191 100.524-20-15.465c-22.222-17.183-50.747-39.239-51.034-39.462-6.317-4.934-14.178-7.114-22.129-6.135-7.955.977-15.053 4.994-19.986 11.31l-84.298 107.925c-10.011 12.818-8.218 31.594 3.998 41.855 5.476 4.6 12.212 7.048 19.244 7.048 1.06 0 2.127-.056 3.197-.168 8.174-.857 15.461-4.896 20.518-11.371l66.439-85.056 21.637 16.886c3.261 2.545 7.968 1.964 10.515-1.297 2.545-3.262 1.964-7.969-1.297-10.515l-25.038-19.539c-4.636-3.615-11.352-2.789-14.969 1.844l-69.092 88.453c-2.533 3.242-6.182 5.264-10.275 5.693-4.098.433-8.083-.796-11.241-3.451-6.112-5.133-6.932-14.626-1.829-21.16l84.302-107.925c2.471-3.162 6.024-5.173 10.007-5.663 3.981-.489 7.916.602 11.083 3.074.058.046 10.562 8.168 51.088 39.505l23.389 18.085c4.609 3.562 11.295 2.736 14.9-1.844l90.809-115.272 21.373-2.184 2.119 20.741c-3.458 4.339-7.534 9.455-12.045 15.115-34.599 43.417-92.507 116.083-95.24 119.546-4.49 5.689-12.854 9.058-20.613 3.002l-20.896-16.306c-3.263-2.545-7.968-1.963-10.515 1.297-2.545 3.262-1.965 7.969 1.297 10.515l20.896 16.306c13.134 10.249 31.014 7.868 41.592-5.532 2.71-3.435 60.604-76.085 95.195-119.49.852-1.07 1.686-2.115 2.505-3.144l.8 7.83c1.576 15.425 14.639 26.952 29.821 26.951.98 0 1.971-.048 2.966-.146.038-.003.076-.007.114-.011 16.456-1.682 28.476-16.438 26.795-32.894z"/><path d="m292.22 122.684c.862.84 1.255 2.05 1.052 3.237l-3.948 23.017c-1.208 7.044 1.634 14.03 7.416 18.231 5.781 4.201 13.303 4.744 19.631 1.419l20.67-10.868c1.067-.561 2.34-.56 3.405 0l20.672 10.868c2.751 1.447 5.729 2.161 8.691 2.161 3.849 0 7.672-1.207 10.94-3.581 5.782-4.201 8.623-11.187 7.414-18.23l-3.947-23.017c-.203-1.187.19-2.398 1.052-3.238l16.723-16.302c5.118-4.988 6.925-12.31 4.717-19.107-2.208-6.798-7.975-11.659-15.049-12.687l-23.111-3.358c-1.191-.174-2.221-.922-2.753-2.001l-10.335-20.942c-3.163-6.409-9.569-10.391-16.716-10.39-7.148 0-13.552 3.982-16.714 10.39l-10.336 20.943c-.532 1.079-1.563 1.827-2.753 2.001l-23.112 3.358c-7.073 1.028-12.839 5.889-15.047 12.687-2.208 6.797-.401 14.119 4.717 19.107zm-7.191-30.781c.211-.651.922-2.195 2.952-2.49l23.111-3.358c6.073-.882 11.318-4.694 14.035-10.196l10.336-20.943c.908-1.841 2.597-2.039 3.279-2.039.685 0 2.373.198 3.281 2.039l10.335 20.943c2.716 5.502 7.962 9.314 14.035 10.196l23.11 3.358c2.032.296 2.743 1.84 2.953 2.49.212.651.544 2.318-.926 3.75l-16.723 16.301c-4.393 4.284-6.398 10.451-5.36 16.499l3.947 23.018c.346 2.022-.902 3.175-1.455 3.577-.552.402-2.034 1.234-3.853.279l-20.671-10.868c-2.716-1.427-5.694-2.141-8.673-2.141s-5.958.714-8.674 2.141l-20.67 10.868c-1.816.955-3.3.123-3.853-.278-.554-.403-1.802-1.556-1.456-3.579l3.947-23.017c1.038-6.047-.966-12.215-5.36-16.498l-16.723-16.302c-1.468-1.432-1.135-3.099-.924-3.75z"/><path d="m507.188 209.767c4.667-4.549 6.315-11.226 4.302-17.424-2.014-6.198-7.272-10.631-13.722-11.568l-19.703-2.863c-.657-.096-1.225-.507-1.519-1.103l-8.813-17.856c-2.884-5.845-8.725-9.475-15.242-9.475s-12.357 3.63-15.242 9.475l-8.814 17.858c-.292.594-.86 1.006-1.516 1.101l-19.706 2.863c-6.449.937-11.706 5.37-13.72 11.567-2.014 6.199-.367 12.875 4.301 17.425l14.259 13.898c.475.462.692 1.129.58 1.783l-3.367 19.626c-1.101 6.424 1.49 12.793 6.763 16.625 5.271 3.829 12.13 4.326 17.899 1.293l17.623-9.265c.589-.31 1.292-.309 1.878-.001l17.625 9.266c2.51 1.319 5.224 1.97 7.926 1.97 3.51 0 6.996-1.1 9.975-3.265 5.272-3.831 7.863-10.202 6.76-16.624l-3.365-19.626c-.112-.654.104-1.321.58-1.783zm-24.717 3.169c-4.006 3.906-5.834 9.53-4.888 15.045l3.366 19.627c.175 1.019-.339 1.634-.802 1.97-.462.336-1.208.635-2.123.153l-17.625-9.266c-2.476-1.301-5.192-1.952-7.908-1.952s-5.433.651-7.911 1.952l-17.625 9.266c-.915.483-1.659.183-2.121-.153-.462-.337-.977-.951-.803-1.971l3.366-19.624c.947-5.514-.88-11.139-4.888-15.047l-14.258-13.897c-.741-.724-.687-1.524-.51-2.067s.602-1.222 1.626-1.371l19.707-2.863c5.538-.806 10.323-4.283 12.796-9.298l8.813-17.856c.458-.929 1.236-1.124 1.807-1.124.572 0 1.349.195 1.807 1.124l8.812 17.854c2.475 5.017 7.259 8.494 12.799 9.3l19.704 2.863c1.025.149 1.45.828 1.628 1.371.177.544.231 1.343-.511 2.066z"/></g></g></g></g></svg>