<svg id="Capa_1" enable-background="new 0 0 511.667 511.667" height="512" viewBox="0 0 511.667 511.667" width="512" xmlns="http://www.w3.org/2000/svg"><g><g><path d="m423.697 158.797-138.525-.217c-4.583-1.375-7.691-5.634-7.691-10.418v-29.072h-21.648-21.648v29.072c0 4.785-3.108 9.043-7.691 10.418l-138.525.217c-12.861 0-23.233 10.654-22.773 23.618.439 12.348 10.962 21.957 23.319 21.957h12.149 90.908c4.399 0 7.964 3.566 7.964 7.964v263.817c0 15.476 12.602 28.021 28.148 28.021 15.546 0 28.148-12.545 28.148-28.021 0 15.476 12.602 28.021 28.148 28.021 15.546 0 28.148-12.545 28.148-28.021v-263.817c0-4.399 3.566-7.964 7.965-7.964h90.908 12.149c12.356 0 22.88-9.608 23.319-21.957.462-12.965-9.911-23.618-22.772-23.618z" fill="#ee6161"/></g><g><g><path d="m446.453 182.777c-.623 12.199-11.078 21.591-23.293 21.591h-103.058c-4.4 0-7.967 3.567-7.967 7.967v263.821c0 7.737-3.149 14.745-8.247 19.813-5.088 5.068-12.126 8.207-19.903 8.207-3.139 0-6.168-.51-8.987-1.469 4.159-1.379 7.877-3.719 10.916-6.738 5.088-5.068 8.237-12.076 8.237-19.813v-271.904c0-9.631 7.807-17.438 17.438-17.438h93.587c11.937 0 22.259-8.96 23.254-20.855.195-2.334.03-4.608-.444-6.756 10.909 2.071 19.062 11.93 18.467 23.574z" fill="#e94444"/></g><g><circle cx="254.341" cy="72.949" fill="#fed2a4" r="65.456"/></g><g><path d="m319.8 72.948c0 36.147-29.307 65.454-65.454 65.454-12.189 0-23.608-3.33-33.377-9.139 4.81 1.13 9.829 1.73 14.989 1.73 36.157 0 65.464-29.297 65.464-65.454 0-23.958-12.879-44.916-32.087-56.315 28.927 6.769 50.465 32.737 50.465 63.724z" fill="#ffbd86"/></g><g><g><g><path d="m138.525 289.63h-54.772c-16.384 0-29.666-13.282-29.666-29.666v-6.348c0-3.843 3.115-6.958 6.958-6.958h100.187c3.843 0 6.958 3.115 6.958 6.958v6.348c.001 16.385-13.281 29.666-29.665 29.666z" fill="#57be92"/></g><g><path d="m168.187 253.622v6.348c0 16.375-13.275 29.66-29.66 29.66h-22.912c16.384 0 29.67-13.286 29.67-29.66v-6.348c0-3.849-3.119-6.968-6.958-6.968h22.902c3.849 0 6.958 3.119 6.958 6.968z" fill="#22b27f"/></g><g><path d="m97.562 159.203h27.155v87.455h-27.155z" fill="#9c9c9c"/></g><g><path d="m111.139 159.203h13.577v87.455h-13.577z" fill="#838383"/></g></g><g><g><path d="m427.913 289.63h-54.772c-16.384 0-29.666-13.282-29.666-29.666v-6.348c0-3.843 3.115-6.958 6.958-6.958h100.187c3.843 0 6.958 3.115 6.958 6.958v6.348c.001 16.385-13.281 29.666-29.665 29.666z" fill="#57be92"/></g><g><path d="m457.575 253.622v6.348c0 16.375-13.276 29.66-29.66 29.66h-22.912c16.384 0 29.67-13.286 29.67-29.66v-6.348c0-3.849-3.119-6.968-6.958-6.968h22.902c3.849 0 6.958 3.119 6.958 6.968z" fill="#22b27f"/></g><g><path d="m386.95 159.203h27.155v87.455h-27.155z" fill="#9c9c9c"/></g><g><path d="m400.527 159.203h13.577v87.455h-13.577z" fill="#838383"/></g><g><path d="m272.384 91.478c-3.293-2.504-7.994-1.867-10.5 1.426-1.806 2.374-4.548 3.735-7.523 3.735-2.989 0-5.739-1.372-7.544-3.764-2.492-3.302-7.191-3.96-10.494-1.467s-3.96 7.191-1.468 10.494c4.663 6.179 11.773 9.723 19.506 9.723 7.695 0 14.784-3.516 19.449-9.647 2.505-3.293 1.867-7.995-1.426-10.5z"/><path d="m339.966 204.371c0-4.139-3.355-7.493-7.493-7.493h-12.38c-8.523 0-15.457 6.935-15.457 15.457v263.817c0 11.32-9.266 20.529-20.656 20.529s-20.655-9.209-20.655-20.529v-164.521c0-4.139-3.355-7.493-7.493-7.493s-7.493 3.354-7.493 7.493v164.522c0 11.32-9.266 20.529-20.655 20.529-11.39 0-20.656-9.209-20.656-20.529v-35c0-4.138-3.355-7.493-7.493-7.493s-7.493 3.354-7.493 7.493v35c0 19.582 15.989 35.514 35.641 35.514 11.431 0 21.622-5.389 28.148-13.753 6.526 8.364 16.717 13.753 28.148 13.753 19.652 0 35.641-15.931 35.641-35.514v-263.817c0-.26.212-.472.472-.472h12.38c4.14 0 7.494-3.354 7.494-7.493z"/><path d="m450.621 239.166h-29.024v-27.302h1.554c16.415 0 30.235-13.092 30.806-29.183.295-8.3-2.714-16.158-8.471-22.123-5.759-5.968-13.497-9.255-21.777-9.255l-137.095-.215c-.994-.592-1.64-1.706-1.64-2.928v-9.03c24.96-11.599 42.317-36.895 42.317-66.182-.001-40.224-32.725-72.948-72.949-72.948s-72.949 32.724-72.949 72.949c0 30.441 18.749 56.574 45.301 67.491v7.721c0 1.221-.647 2.336-1.641 2.928l-137.084.215c-8.292 0-16.03 3.287-21.789 9.254-5.757 5.966-8.766 13.822-8.471 22.124.571 16.092 14.391 29.183 30.806 29.183h1.555v27.302h-29.024c-7.968 0-14.451 6.483-14.451 14.452v6.347c0 20.49 16.669 37.159 37.159 37.159h54.772c20.49 0 37.159-16.669 37.159-37.159v-6.347c0-7.969-6.482-14.452-14.451-14.452h-29.024v-27.302h59.364c.26 0 .472.212.472.472v193.855c0 4.138 3.355 7.492 7.493 7.492s7.493-3.354 7.493-7.492v-193.856c0-8.523-6.934-15.457-15.457-15.457h-59.364v-30.659l94.297-.147c.726-.001 1.447-.107 2.142-.316 7.672-2.303 13.03-9.538 13.03-17.595v-3.386c4.116.724 8.343 1.123 12.663 1.123 5.371 0 10.603-.6 15.647-1.708v3.971c0 8.057 5.358 15.292 13.03 17.595.695.209 1.417.315 2.142.316l94.297.147v30.659h-12.329c-4.138 0-7.493 3.354-7.493 7.493s3.355 7.493 7.493 7.493h12.329v27.302h-29.024c-7.968 0-14.451 6.483-14.451 14.452v6.347c0 20.49 16.669 37.159 37.159 37.159h54.771c20.49 0 37.159-16.669 37.159-37.159v-6.347c-.001-7.97-6.484-14.453-14.452-14.453zm-29.024-72.881 2.1.003c4.188 0 8.097 1.66 11.007 4.675 2.908 3.014 4.427 6.985 4.278 11.184-.289 8.123-7.39 14.731-15.831 14.731h-1.554zm-316.542.41h12.169v72.47h-12.169zm-16.54 30.184c-8.44 0-15.542-6.608-15.831-14.731-.149-4.199 1.37-8.172 4.278-11.184 2.91-3.015 6.818-4.675 11.018-4.675l2.089-.003v30.593zm72.183 57.272v5.813c0 12.226-9.947 22.173-22.173 22.173h-54.771c-12.227 0-22.173-9.947-22.173-22.173v-5.813zm93.644-123.239c-31.962 0-57.964-26.003-57.964-57.963 0-31.962 26.003-57.964 57.964-57.964s57.964 26.003 57.964 57.964c-.001 31.961-26.003 57.963-57.964 57.963zm140.101 35.783h12.169v72.47h-12.169zm55.643 93.269c0 12.226-9.947 22.173-22.173 22.173h-54.771c-12.227 0-22.173-9.947-22.173-22.173v-5.813h99.118v5.813z"/></g></g></g></g></g></svg>