<svg id="Capa_1" enable-background="new 0 0 511.434 511.434" height="512" viewBox="0 0 511.434 511.434" width="512" xmlns="http://www.w3.org/2000/svg"><g><g><path d="m399.467 43.264h43.893v25.212h-43.893z" fill="#9c9c9c"/></g><g><path d="m423.275 43.264h20.086v25.212h-20.086z" fill="#838383"/></g><g><path d="m421.414 7.701h-32.501c-5.154 0-8.817 4.988-7.314 9.918 6.063 19.882 17.868 25.646 17.868 25.646h21.947 21.947s11.805-5.764 17.868-25.646c1.503-4.929-2.16-9.918-7.314-9.918z" fill="#57be92"/></g><g><path d="m461.233 17.623c-6.067 19.877-17.872 25.645-17.872 25.645h-20.007s11.805-5.768 17.872-25.645c1.497-4.93-2.165-9.919-7.314-9.919h20.007c5.149 0 8.811 4.99 7.314 9.919z" fill="#22b27f"/></g><g><path d="m493.361 195.551c-3.526-3.689-5.347-8.69-5.347-13.793v-64.069c0-13.431-7.053-25.933-18.704-33.155l-25.903-16.057h-21.993-21.993l-25.903 16.057c-11.651 7.222-18.704 19.724-18.704 33.155v64.069c0 5.104-1.82 10.104-5.347 13.793-5.076 5.31-8.205 12.495-8.24 20.413-.072 16.443 13.909 29.894 30.352 29.894h99.668c16.443 0 30.424-13.451 30.352-29.894-.033-7.919-3.163-15.103-8.238-20.413z" fill="#57be92"/></g><g><path d="m501.597 215.969c.08 16.435-13.91 29.886-30.345 29.886h-20.137c16.445 0 30.425-13.451 30.345-29.886-.03-7.923-3.163-15.108-8.232-20.416-3.532-3.692-5.349-8.691-5.349-13.79v-64.073c0-13.431-7.055-25.935-18.7-33.159l-25.905-16.055h20.137l25.895 16.055c11.655 7.225 18.71 19.728 18.71 33.159v64.073c0 5.099 1.816 10.098 5.349 13.79 5.069 5.308 8.202 12.493 8.232 20.416z" fill="#22b27f"/></g><g><path d="m131.768 439.171c-.399.07-.808.14-1.227.19-.968-.13-1.956-.19-2.954-.19z" fill="#fed402"/></g><g><path d="m131.768 439.54h-4.181c.998 0 1.986-.06 2.954-.18.419.04.828.11 1.227.18z" fill="#fed402"/></g><g><g><path d="m480.149 310.42h-117.47c-13.145 0-23.801-10.656-23.801-23.801v-16.96c0-13.145 10.656-23.801 23.801-23.801h117.47c13.145 0 23.801 10.656 23.801 23.801v16.96c0 13.145-10.656 23.801-23.801 23.801z" fill="#fac600"/></g><g><path d="m480.149 439.544h-117.47c-13.145 0-23.801-10.656-23.801-23.801v-16.96c0-13.145 10.656-23.801 23.801-23.801h117.47c13.145 0 23.801 10.656 23.801 23.801v16.96c0 13.145-10.656 23.801-23.801 23.801z" fill="#fac600"/></g><g><path d="m314.452 374.982h-117.47c-13.145 0-23.801-10.656-23.801-23.801v-16.96c0-13.145 10.656-23.801 23.801-23.801h117.47c13.145 0 23.801 10.656 23.801 23.801v16.96c0 13.145-10.656 23.801-23.801 23.801z" fill="#fac600"/></g><g><path d="m314.452 503.733h-117.47c-13.145 0-23.801-10.656-23.801-23.801v-16.96c0-13.145 10.656-23.801 23.801-23.801h117.47c13.145 0 23.801 10.656 23.801 23.801v16.96c0 13.145-10.656 23.801-23.801 23.801z" fill="#fac600"/></g><g><path d="m148.755 439.544h-117.47c-13.145 0-23.801-10.656-23.801-23.801v-16.96c0-13.145 10.656-23.801 23.801-23.801h117.47c13.145 0 23.801 10.656 23.801 23.801v16.96c0 13.145-10.656 23.801-23.801 23.801z" fill="#fac600"/></g><g><path d="m480.149 374.982h-117.47c-13.145 0-23.801-10.656-23.801-23.801v-16.96c0-13.145 10.656-23.801 23.801-23.801h117.47c13.145 0 23.801 10.656 23.801 23.801v16.96c0 13.145-10.656 23.801-23.801 23.801z" fill="#fee45a"/></g><g><path d="m480.149 503.733h-117.47c-13.145 0-23.801-10.656-23.801-23.801v-16.96c0-13.145 10.656-23.801 23.801-23.801h117.47c13.145 0 23.801 10.656 23.801 23.801v16.96c0 13.145-10.656 23.801-23.801 23.801z" fill="#fee45a"/></g><g><path d="m314.452 439.544h-117.47c-13.145 0-23.801-10.656-23.801-23.801v-16.96c0-13.145 10.656-23.801 23.801-23.801h117.47c13.145 0 23.801 10.656 23.801 23.801v16.96c0 13.145-10.656 23.801-23.801 23.801z" fill="#fee45a"/></g><g><path d="m148.755 503.733h-117.47c-13.145 0-23.801-10.656-23.801-23.801v-16.96c0-13.145 10.656-23.801 23.801-23.801h117.47c13.145 0 23.801 10.656 23.801 23.801v16.96c0 13.145-10.656 23.801-23.801 23.801z" fill="#fee45a"/></g><g><path d="m503.952 269.664v16.954c0 13.142-10.657 23.799-23.799 23.799h-21.175c13.152 0 23.809-10.657 23.809-23.799v-16.954c0-13.152-10.657-23.809-23.809-23.809h21.175c13.142 0 23.799 10.657 23.799 23.809z" fill="#e8b800"/></g><g><path d="m503.952 398.787v16.954c0 12.154-9.101 22.163-20.845 23.619-.968.12-1.956.18-2.954.18l-21.175-.369c11.156-1.976 23.809-11.705 23.809-23.43v-16.954c0-13.152-10.657-23.809-23.809-23.809h21.175c13.142 0 23.799 10.657 23.799 23.809z" fill="#e8b800"/></g><g><path d="m338.256 334.226v16.953c0 13.142-10.657 23.799-23.809 23.799h-21.165c13.152 0 23.799-10.657 23.799-23.799v-16.953c0-13.152-10.647-23.809-23.799-23.809h21.165c13.152 0 23.809 10.657 23.809 23.809z" fill="#e8b800"/></g><g><path d="m338.256 462.97v16.964c0 13.142-10.657 23.799-23.809 23.799h-19.074c13.152 0 21.709-10.657 21.709-23.799v-16.964c0-11.715-8.462-21.454-19.618-23.43 0 0 18.969-.309 19.937-.18 11.755 1.447 20.855 11.466 20.855 23.61z" fill="#e8b800"/></g><g><path d="m172.561 398.787v16.954c0 12.154-9.101 22.163-20.855 23.619-.968.12-1.956.18-2.954.18l-21.165-.369c11.146-1.976 23.799-11.705 23.799-23.43v-16.954c0-13.152-10.657-23.809-23.799-23.809h21.165c13.152 0 23.809 10.657 23.809 23.809z" fill="#e8b800"/></g><g><path d="m503.952 334.226v16.953c0 13.142-10.657 23.799-23.799 23.799h-21.175c13.152 0 23.809-10.657 23.809-23.799v-16.953c0-13.152-10.657-23.809-23.809-23.809h21.175c13.142 0 23.799 10.657 23.799 23.809z" fill="#fed402"/></g><g><path d="m503.952 462.97v16.964c0 13.142-10.657 23.799-23.799 23.799h-21.175c13.152 0 23.809-10.657 23.809-23.799v-16.964c0-11.715-14.093-21.454-25.249-23.43 0 0 24.601-.309 25.569-.18 11.744 1.447 20.845 11.466 20.845 23.61z" fill="#fed402"/></g><g><path d="m338.256 398.787v16.954c0 12.154-9.101 22.163-20.855 23.619-.968.12-1.956.18-2.954.18l-21.165-.369c11.156-1.976 23.799-11.705 23.799-23.43v-16.954c0-13.152-10.647-23.809-23.799-23.809h21.165c13.152 0 23.809 10.657 23.809 23.809z" fill="#fed402"/></g><g><path d="m172.561 462.97v16.964c0 13.142-10.657 23.799-23.809 23.799h-19.074c13.142 0 21.709-10.657 21.709-23.799v-16.964c0-11.715-8.472-21.454-19.618-23.43 0 0 18.969-.309 19.937-.18 11.755 1.447 20.855 11.466 20.855 23.61z" fill="#fed402"/></g><g><path d="m463.159 439.171c-.399.07-.808.14-1.227.19-.968-.13-1.956-.19-2.954-.19z" fill="#fed402"/></g><g><path d="m297.464 439.54h-4.181c.998 0 1.986-.06 2.954-.18.418.04.828.11 1.227.18z" fill="#fed402"/></g><g><path d="m463.159 439.54h-4.181c.998 0 1.986-.06 2.954-.18.419.04.828.11 1.227.18z" fill="#fed402"/></g><g><path d="m297.464 439.171c-.399.07-.808.14-1.227.19-.968-.13-1.956-.19-2.954-.19z" fill="#fed402"/></g></g><g><path d="m421.059 198.159c2.755 0 4.989-2.234 4.989-4.989v-3.827c8.541-2.119 14.029-9.374 15.235-16.547 1.568-9.328-3.304-17.435-12.412-20.655-.929-.328-1.875-.67-2.823-1.022v-16.672c1.908.679 3.037 1.613 3.169 1.726 2.027 1.825 5.152 1.684 7.006-.325 1.868-2.025 1.741-5.181-.285-7.05-.227-.209-3.884-3.505-9.89-4.66v-2.972c0-2.756-2.234-4.989-4.989-4.989s-4.989 2.234-4.989 4.989v3.323c-.353.09-.709.187-1.069.296-6.041 1.819-10.552 6.977-11.775 13.46-1.121 5.946.806 11.698 5.03 15.011 2.024 1.587 4.494 3.042 7.813 4.557v21.983c-2.427-.32-4.24-1.109-7.083-2.968-2.307-1.508-5.398-.861-6.907 1.445-1.508 2.306-.861 5.398 1.445 6.906 4.906 3.209 8.354 4.313 12.544 4.657v3.333c.002 2.756 2.236 4.99 4.991 4.99zm4.99-36.406c5.869 2.354 5.743 7.318 5.394 9.388-.488 2.903-2.316 5.966-5.394 7.62zm-11.635-16.349c-1.261-.99-1.804-3.074-1.382-5.311.318-1.691 1.28-3.649 3.037-4.871v11.327c-.598-.374-1.158-.755-1.655-1.145z"/><path d="m511.434 286.619v-16.96c0-11.073-5.788-20.814-14.493-26.375.433-.396.86-.801 1.275-1.218 7.051-7.082 10.911-16.363 10.868-26.134-.042-9.563-3.704-18.637-10.314-25.552-2.08-2.176-3.273-5.319-3.273-8.622v-9.242c0-4.134-3.351-7.484-7.484-7.484s-7.484 3.35-7.484 7.484v9.242c0 7.224 2.635 13.958 7.421 18.965 3.951 4.133 6.141 9.558 6.166 15.274.025 5.761-2.286 11.268-6.507 15.508-4.347 4.366-10.31 6.87-16.361 6.87h-99.668c-6.051 0-12.014-2.504-16.361-6.87-4.221-4.24-6.532-9.747-6.507-15.507.025-5.717 2.214-11.141 6.167-15.276 4.785-5.006 7.42-11.741 7.42-18.964v-64.069c0-10.892 5.669-20.908 15.163-26.793l24.091-14.935h39.723l24.092 14.935c9.494 5.885 15.162 15.901 15.162 26.793v19.902c0 4.134 3.351 7.484 7.484 7.484s7.484-3.35 7.484-7.484v-19.902c0-16.109-8.316-30.882-22.244-39.516l-22.409-13.891v-17.013c4.902-3.791 12.812-11.953 17.543-27.466 1.418-4.651.574-9.558-2.316-13.461-2.882-3.892-7.313-6.125-12.156-6.125h-65.002c-4.843 0-9.273 2.231-12.155 6.124-2.891 3.904-3.736 8.81-2.317 13.461 4.731 15.513 12.641 23.676 17.543 27.467v17.013l-22.408 13.891c-13.929 8.634-22.245 23.406-22.245 39.516v64.069c0 3.304-1.193 6.446-3.272 8.622-6.609 6.914-10.272 15.988-10.314 25.553-.042 9.77 3.817 19.051 10.868 26.133.415.417.842.822 1.275 1.218-8.705 5.561-14.493 15.302-14.493 26.375v16.96c0 9.522 4.281 18.059 11.014 23.802-1.389 1.185-2.679 2.484-3.843 3.891-5.743-6.943-14.42-11.375-24.113-11.375h-117.47c-17.251 0-31.286 14.034-31.286 31.286v16.959c0 9.522 4.282 18.059 11.015 23.802-1.389 1.185-2.679 2.484-3.843 3.891-5.743-6.943-14.42-11.375-24.114-11.375h-66.58c-4.133 0-7.484 3.35-7.484 7.484s3.351 7.484 7.484 7.484h66.58c8.997 0 16.318 7.32 16.318 16.318v16.959c0 8.066-5.889 14.766-13.589 16.071-.9-.078-122.026-.078-122.926 0-7.7-1.305-13.589-8.005-13.589-16.071v-16.959c0-8.997 7.32-16.318 16.317-16.318h15.964c4.133 0 7.484-3.35 7.484-7.484s-3.351-7.484-7.484-7.484h-15.966c-17.251-.002-31.285 14.033-31.285 31.284v16.959c0 9.42 4.191 17.875 10.799 23.615-6.608 5.74-10.799 14.194-10.799 23.614v16.96c0 17.251 14.034 31.286 31.285 31.286h117.47c9.693 0 18.371-4.432 24.114-11.375 5.743 6.943 14.42 11.375 24.114 11.375h117.47c9.693 0 18.37-4.432 24.113-11.375 5.743 6.943 14.42 11.375 24.113 11.375h117.47c17.251 0 31.285-14.034 31.285-31.286v-16.96c0-9.42-4.191-17.874-10.799-23.614 6.608-5.74 10.799-14.195 10.799-23.615v-16.959c0-9.522-4.281-18.059-11.014-23.802 6.733-5.743 11.014-14.279 11.014-23.802v-16.959c0-9.522-4.281-18.059-11.014-23.802 6.733-5.742 11.014-14.278 11.014-23.8zm-75.557-225.627h-28.925v-10.243h28.925zm-47.12-45.556c-.017-.055-.032-.105.029-.188.047-.063.071-.063.127-.063h65.002c.057 0 .08 0 .127.063.061.082.046.132.029.188-3.871 12.693-10.172 18.398-12.85 20.344h-39.612c-2.68-1.946-8.981-7.651-12.852-20.344zm-223.685 464.495c0 8.997-7.32 16.318-16.318 16.318h-117.469c-8.997 0-16.317-7.32-16.317-16.318v-16.96c0-8.066 5.889-14.765 13.589-16.07.9.078 122.026.078 122.926 0 7.7 1.304 13.589 8.004 13.589 16.07zm7.797-36.869c-1.104-1.334-2.321-2.569-3.627-3.704 1.307-1.135 2.524-2.37 3.627-3.704 1.104 1.334 2.321 2.569 3.627 3.704-1.307 1.135-2.524 2.37-3.627 3.704zm157.9 36.869c0 8.997-7.32 16.318-16.317 16.318h-117.47c-8.997 0-16.318-7.32-16.318-16.318v-16.96c0-8.066 5.889-14.765 13.589-16.07.9.078 122.026.078 122.926 0 7.7 1.304 13.589 8.004 13.589 16.07v16.96zm0-64.188c0 8.066-5.889 14.766-13.589 16.071-.9-.078-122.026-.078-122.926 0-7.7-1.305-13.589-8.005-13.589-16.071v-16.959c0-8.997 7.32-16.318 16.318-16.318h117.47c8.997 0 16.317 7.32 16.317 16.318v16.959zm0-64.562c0 8.997-7.32 16.318-16.317 16.318h-117.47c-8.997 0-16.318-7.32-16.318-16.318v-16.959c0-8.997 7.32-16.318 16.318-16.318h117.47c8.997 0 16.317 7.32 16.317 16.318zm7.796 91.881c-1.103-1.334-2.321-2.569-3.627-3.704 1.307-1.135 2.524-2.37 3.627-3.704 1.103 1.334 2.321 2.569 3.627 3.704-1.306 1.135-2.523 2.37-3.627 3.704zm0-64.189c-1.164-1.407-2.453-2.706-3.843-3.891 1.389-1.185 2.679-2.483 3.843-3.891 1.164 1.407 2.453 2.706 3.843 3.891-1.389 1.185-2.679 2.484-3.843 3.891zm157.901 101.058c0 8.997-7.32 16.318-16.317 16.318h-117.47c-8.997 0-16.317-7.32-16.317-16.318v-16.96c0-8.066 5.889-14.765 13.589-16.07.9.078 122.027.078 122.927 0 7.7 1.304 13.589 8.004 13.589 16.07v16.96zm0-64.188c0 8.066-5.889 14.766-13.589 16.071-.9-.078-122.027-.078-122.927 0-7.7-1.305-13.589-8.005-13.589-16.071v-16.959c0-8.997 7.32-16.318 16.317-16.318h117.47c8.997 0 16.317 7.32 16.317 16.318v16.959zm0-64.562c0 8.997-7.32 16.318-16.317 16.318h-117.47c-8.997 0-16.317-7.32-16.317-16.318v-16.959c0-8.997 7.32-16.318 16.317-16.318h117.47c8.997 0 16.317 7.32 16.317 16.318zm0-64.562c0 8.997-7.32 16.318-16.317 16.318h-117.47c-8.997 0-16.317-7.32-16.317-16.318v-16.96c0-8.997 7.32-16.317 16.317-16.317h117.47c8.997 0 16.317 7.319 16.317 16.317z"/></g></g></svg>