<svg id="Capa_1" enable-background="new 0 0 511.559 511.559" height="512" viewBox="0 0 511.559 511.559" width="512" xmlns="http://www.w3.org/2000/svg"><g><g><path d="m268.176 504.059h-24.758c-6.145 0-11.127-4.982-11.127-11.127v-474.305c0-6.145 4.982-11.127 11.127-11.127h24.758c6.145 0 11.127 4.982 11.127 11.127v474.305c0 6.145-4.982 11.127-11.127 11.127z" fill="#dc8758"/></g><g><path d="m279.307 18.629v474.3c0 6.15-4.99 11.13-11.13 11.13h-20.17c6.14 0 11.12-4.98 11.12-11.13v-474.3c0-6.15-4.98-11.13-11.12-11.13h20.17c6.14 0 11.13 4.98 11.13 11.13z" fill="#ce7345"/></g><g><g><path d="m468.622 122.968-46.866-53.974c-2.748-3.165-6.733-4.982-10.924-4.982h-356.938c-7.991 0-14.468 6.478-14.468 14.468v107.948c0 7.991 6.478 14.468 14.468 14.468h356.938c4.191 0 8.177-1.818 10.924-4.982l46.866-53.974c4.725-5.442 4.725-13.531 0-18.972z" fill="#e8ad8c"/></g><g><path d="m468.624 141.939-46.864 53.977c-2.754 3.16-6.735 4.981-10.924 4.981h-24.526c4.188 0 8.169-1.821 10.924-4.981l46.864-53.977c4.726-5.443 4.726-13.527 0-18.97l-46.864-53.977c-2.754-3.16-6.735-4.981-10.924-4.981h24.526c4.188 0 8.169 1.821 10.924 4.981l46.864 53.977c4.726 5.443 4.726 13.527 0 18.97z" fill="#e19974"/></g></g><g><path d="m474.286 118.051-46.866-53.974c-4.174-4.808-10.221-7.565-16.588-7.565h-49.034c-4.143 0-7.5 3.357-7.5 7.5s3.357 7.5 7.5 7.5h49.034c2.02 0 3.938.875 5.262 2.399l46.866 53.974c2.262 2.604 2.262 6.533 0 9.138l-46.865 53.974c-1.325 1.524-3.243 2.399-5.263 2.399h-356.938c-3.842 0-6.968-3.126-6.968-6.968v-107.949c0-3.842 3.126-6.968 6.968-6.968h273.236c4.143 0 7.5-3.357 7.5-7.5s-3.357-7.5-7.5-7.5h-40.327v-37.884c0-10.271-8.356-18.627-18.627-18.627h-24.758c-10.271 0-18.627 8.356-18.627 18.627v37.885h-170.897c-12.113 0-21.968 9.854-21.968 21.968v107.948c0 12.113 9.855 21.968 21.968 21.968h170.897v168.717c0 4.143 3.358 7.5 7.5 7.5s7.5-3.357 7.5-7.5v-168.717h32.012v284.536c0 2-1.627 3.627-3.627 3.627h-24.758c-2 0-3.627-1.627-3.627-3.627v-81.154c0-4.143-3.358-7.5-7.5-7.5s-7.5 3.357-7.5 7.5v81.154c0 10.271 8.356 18.627 18.627 18.627h24.758c10.271 0 18.627-8.356 18.627-18.627v-284.536h124.028c6.367 0 12.412-2.757 16.588-7.564l46.866-53.975c7.13-8.211 7.13-20.595.001-28.806zm-234.495-99.424c0-2 1.627-3.627 3.627-3.627h24.758c2 0 3.627 1.627 3.627 3.627v37.885h-32.012z"/><path d="m309.125 119.391c4.143 0 7.5-3.357 7.5-7.5s-3.357-7.5-7.5-7.5h-17.329c-4.143 0-7.5 3.357-7.5 7.5v41.126c0 4.143 3.357 7.5 7.5 7.5h17.329c4.143 0 7.5-3.357 7.5-7.5s-3.357-7.5-7.5-7.5h-9.829v-5.563h8.552c4.143 0 7.5-3.357 7.5-7.5s-3.357-7.5-7.5-7.5h-8.552v-5.563z"/><path d="m201.788 119.201c2.657 0 5.217.781 7.405 2.259 3.432 2.318 8.094 1.416 10.413-2.017s1.416-8.095-2.017-10.413c-4.677-3.159-10.141-4.829-15.801-4.829-15.579 0-28.252 12.674-28.252 28.253 0 15.578 12.674 28.252 28.252 28.252 6.293 0 11.956-2.081 16.382-6.023.869-.774 1.69-1.622 2.442-2.52 2.659-3.176 2.241-7.905-.935-10.565-3.174-2.657-7.905-2.241-10.565.935-.286.342-.598.664-.922.953-1.654 1.474-3.808 2.221-6.401 2.221-7.308 0-13.252-5.944-13.252-13.252s5.943-13.254 13.251-13.254z"/><path d="m257.168 119.201c2.656 0 5.218.781 7.405 2.259 3.433 2.318 8.094 1.415 10.413-2.017 2.318-3.433 1.415-8.095-2.017-10.413-4.678-3.159-10.142-4.829-15.802-4.829-15.579 0-28.252 12.674-28.252 28.253 0 15.578 12.674 28.252 28.252 28.252 6.292 0 11.955-2.081 16.38-6.021.866-.772 1.688-1.62 2.442-2.519 2.66-3.175 2.244-7.905-.93-10.566-3.176-2.659-7.905-2.244-10.566.93-.288.345-.601.667-.924.955-1.655 1.475-3.81 2.222-6.402 2.222-7.308 0-13.252-5.944-13.252-13.252s5.946-13.254 13.253-13.254z"/><path d="m91.916 145.706c-3.483 0-6.813-1.379-8.906-3.688-2.782-3.069-7.523-3.303-10.594-.521-3.069 2.782-3.302 7.524-.521 10.594 4.962 5.476 12.259 8.616 20.021 8.616 9.869 0 18.171-6.383 19.741-15.177 1.829-10.242-6.152-17.059-13.541-19.784-4.647-1.715-9.002-3.571-10.777-4.343-.051-.094-.081-.228-.052-.428.089-.62.701-1.146 1.68-1.439 4.599-1.389 9.091 2.06 9.299 2.222 3.17 2.611 7.86 2.188 10.509-.964 2.666-3.171 2.255-7.901-.916-10.566-3.919-3.294-13.219-8.065-23.218-5.055-6.601 1.988-11.276 7.227-12.202 13.671-.876 6.103 1.771 11.975 6.91 15.325.332.216.68.405 1.041.566.243.108 6.026 2.683 12.535 5.084 2.751 1.015 4.097 2.341 3.966 3.074-.176.981-1.814 2.813-4.975 2.813z"/><path d="m328.711 118.843c-.877 6.103 1.771 11.975 6.909 15.324.332.217.68.406 1.041.567.243.108 6.026 2.683 12.534 5.084 2.752 1.015 4.098 2.341 3.967 3.074-.176.981-1.814 2.813-4.975 2.813-3.484 0-6.813-1.379-8.906-3.688-2.781-3.069-7.523-3.303-10.594-.521-3.069 2.781-3.303 7.524-.521 10.594 4.962 5.476 12.26 8.616 20.021 8.616 9.868 0 18.171-6.383 19.741-15.177 1.828-10.242-6.152-17.059-13.542-19.784-4.646-1.715-9.002-3.571-10.776-4.343-.052-.094-.081-.228-.052-.428.089-.62.701-1.146 1.68-1.439 4.608-1.389 9.098 2.064 9.299 2.222 3.17 2.611 7.86 2.188 10.509-.963 2.665-3.171 2.256-7.902-.915-10.567-3.92-3.294-13.217-8.065-23.219-5.055-6.6 1.988-11.276 7.226-12.201 13.671z"/><path d="m396.938 145.706c-3.484 0-6.813-1.379-8.906-3.688-2.781-3.069-7.524-3.303-10.594-.521s-3.303 7.524-.521 10.594c4.962 5.476 12.26 8.616 20.021 8.616 9.868 0 18.171-6.383 19.741-15.177 1.828-10.242-6.152-17.059-13.542-19.784-4.646-1.715-9.002-3.571-10.776-4.343-.052-.094-.081-.228-.052-.428.089-.62.701-1.146 1.68-1.439 4.608-1.389 9.098 2.064 9.299 2.222 3.169 2.611 7.859 2.188 10.509-.963 2.665-3.171 2.256-7.902-.915-10.567-3.92-3.294-13.216-8.065-23.219-5.055-6.601 1.988-11.276 7.227-12.201 13.671-.877 6.103 1.771 11.975 6.909 15.324.332.217.68.406 1.041.567.243.108 6.026 2.683 12.534 5.084 2.752 1.015 4.098 2.341 3.967 3.074-.176.981-1.815 2.813-4.975 2.813z"/><path d="m127.901 104.201c-4.142 0-7.5 3.357-7.5 7.5v28.561c0 7.103 3.355 12.848 9.973 17.077 3.489 2.229 7.418 3.362 11.678 3.367h.036c3.648 0 7.081-.797 10.206-2.37 7.705-3.882 11.948-10.312 11.948-18.104v-28.53c0-4.143-3.358-7.5-7.5-7.5s-7.5 3.357-7.5 7.5v28.53c0 1.064 0 2.846-3.695 4.707-1.025.517-2.156.768-3.459.768-.005 0-.01 0-.015 0-1.378-.002-2.563-.331-3.621-1.008-2.82-1.802-3.05-3.075-3.05-4.437v-28.561c-.001-4.142-3.359-7.5-7.501-7.5z"/></g></g></svg>