<svg id="Capa_1" enable-background="new 0 0 512.353 512.353" height="512" viewBox="0 0 512.353 512.353" width="512" xmlns="http://www.w3.org/2000/svg"><g><g><path d="m488.509 435.063v-417.563c0-5.523-4.477-10-10-10h-335.951c-5.523 0-10 4.477-10 10v487.182h282.519z" fill="#f9f7f8"/></g><g><path d="m488.507 17.501v417.56l-21.31 20.2v-437.76c0-5.52-4.47-10-10-10h21.31c5.52 0 10 4.48 10 10z" fill="#efedef"/></g><g><path d="m415.077 504.682v-53.645c0-9.359 7.587-16.946 16.946-16.946h56.486z" fill="#bfbfbf"/></g><g><path d="m140.789 169.694c-4.08-1.224-6.848-5.016-6.848-9.276v-25.885h-38.582v25.885c0 4.26-2.768 8.052-6.848 9.276-37.409 11.225-64.668 45.917-64.668 86.981v72.558c0 11.205 9.084 20.289 20.289 20.289s20.289-9.084 20.289-20.289l.314 150.5c0 13.779 11.17 24.949 24.949 24.949 13.779 0 24.949-11.17 24.949-24.949h.034c0 13.779 11.17 24.949 24.949 24.949 13.779 0 24.949-11.17 24.949-24.949l.314-150.5c0 11.205 9.084 20.289 20.289 20.289 11.205 0 20.289-9.084 20.289-20.289v-72.558c0-41.064-27.259-75.756-64.668-86.981z" fill="#60b7ff"/></g><g><path d="m205.457 256.671v72.56c0 5.6-2.27 10.68-5.94 14.35s-8.75 5.94-14.35 5.94c-3.74 0-7.24-1.01-10.25-2.78 1.5-.87 2.88-1.94 4.1-3.16 3.67-3.67 5.94-8.75 5.94-14.35v-72.56c0-33.17-23.69-55.9-57.2-67.92-8.55-3.07-14.32-11.1-14.32-20.19v-34.03h20.5v25.89c0 4.26 2.77 8.05 6.85 9.27 37.41 11.23 64.67 45.92 64.67 86.98z" fill="#26a6fe"/></g><g><circle cx="113.218" cy="90.236" fill="#fed2a4" r="62.843"/></g><g><path d="m176.063 90.235c0 34.704-28.137 62.841-62.841 62.841-11.702 0-22.665-3.197-32.045-8.774 4.618 1.085 9.437 1.661 14.39 1.661 34.713 0 62.85-28.128 62.85-62.841 0-23.001-12.365-43.123-30.806-54.067 27.773 6.499 48.452 31.43 48.452 61.18z" fill="#ffbd86"/></g><g><path d="m293.237 53.048c-3.257-2.563-7.972-1.996-10.531 1.26l-21.376 27.186-10.99-12.547c-2.729-3.116-7.466-3.428-10.583-.7-3.116 2.729-3.43 7.468-.7 10.583l13.902 15.872c2.193 2.504 5.285 3.924 8.521 3.924.099 0 .197-.002.295-.004 3.355-.09 6.503-1.697 8.635-4.409l24.087-30.634c2.56-3.256 1.996-7.972-1.26-10.531z"/><path d="m449.269 51.443h-127.974c-4.143 0-7.5 3.357-7.5 7.5s3.357 7.5 7.5 7.5h127.974c4.143 0 7.5-3.357 7.5-7.5s-3.357-7.5-7.5-7.5z"/><path d="m449.269 83.625h-127.974c-4.143 0-7.5 3.357-7.5 7.5s3.357 7.5 7.5 7.5h127.974c4.143 0 7.5-3.357 7.5-7.5s-3.357-7.5-7.5-7.5z"/><path d="m293.237 143.576c-3.257-2.563-7.972-1.996-10.531 1.26l-21.376 27.187-10.99-12.547c-2.729-3.116-7.466-3.429-10.583-.7-3.116 2.729-3.43 7.468-.7 10.583l13.902 15.872c2.193 2.504 5.285 3.924 8.521 3.924.099 0 .197-.002.295-.004 3.355-.09 6.503-1.697 8.635-4.409l24.087-30.634c2.56-3.256 1.996-7.972-1.26-10.532z"/><path d="m449.269 141.972h-127.974c-4.143 0-7.5 3.357-7.5 7.5s3.357 7.5 7.5 7.5h127.974c4.143 0 7.5-3.357 7.5-7.5s-3.357-7.5-7.5-7.5z"/><path d="m449.269 174.153h-127.974c-4.143 0-7.5 3.357-7.5 7.5s3.357 7.5 7.5 7.5h127.974c4.143 0 7.5-3.357 7.5-7.5s-3.357-7.5-7.5-7.5z"/><path d="m293.237 234.104c-3.257-2.563-7.972-1.997-10.531 1.26l-21.376 27.186-10.99-12.546c-2.729-3.117-7.468-3.43-10.583-.7-3.116 2.729-3.43 7.468-.7 10.583l13.901 15.87c2.192 2.505 5.285 3.925 8.522 3.925.098 0 .195-.001.292-.004 3.355-.088 6.504-1.694 8.638-4.408l24.087-30.634c2.56-3.256 1.996-7.972-1.26-10.532z"/><path d="m449.269 232.5h-127.974c-4.143 0-7.5 3.357-7.5 7.5s3.357 7.5 7.5 7.5h127.974c4.143 0 7.5-3.357 7.5-7.5s-3.357-7.5-7.5-7.5z"/><path d="m449.269 264.682h-127.974c-4.143 0-7.5 3.357-7.5 7.5s3.357 7.5 7.5 7.5h127.974c4.143 0 7.5-3.357 7.5-7.5s-3.357-7.5-7.5-7.5z"/><path d="m293.237 324.633c-3.257-2.563-7.972-1.997-10.531 1.26l-21.376 27.186-10.99-12.546c-2.729-3.117-7.468-3.43-10.583-.7-3.116 2.729-3.43 7.468-.7 10.583l13.901 15.87c2.192 2.505 5.285 3.925 8.522 3.925.098 0 .195-.001.292-.004 3.355-.088 6.504-1.694 8.638-4.408l24.087-30.634c2.56-3.257 1.996-7.973-1.26-10.532z"/><path d="m449.269 323.028h-127.974c-4.143 0-7.5 3.357-7.5 7.5s3.357 7.5 7.5 7.5h127.974c4.143 0 7.5-3.357 7.5-7.5s-3.357-7.5-7.5-7.5z"/><path d="m456.769 362.71c0-4.143-3.357-7.5-7.5-7.5h-127.974c-4.143 0-7.5 3.357-7.5 7.5s3.357 7.5 7.5 7.5h127.974c4.143 0 7.5-3.357 7.5-7.5z"/><path d="m293.237 415.161c-3.257-2.563-7.972-1.997-10.531 1.26l-21.376 27.186-10.99-12.546c-2.729-3.117-7.468-3.431-10.583-.7-3.116 2.729-3.43 7.468-.7 10.583l13.901 15.87c2.192 2.505 5.285 3.925 8.522 3.925.098 0 .195-.001.292-.004 3.355-.088 6.504-1.694 8.638-4.408l24.087-30.634c2.56-3.256 1.996-7.972-1.26-10.532z"/><path d="m372.34 413.557h-51.045c-4.143 0-7.5 3.357-7.5 7.5s3.357 7.5 7.5 7.5h51.045c4.143 0 7.5-3.357 7.5-7.5s-3.357-7.5-7.5-7.5z"/><path d="m372.34 445.738h-51.045c-4.143 0-7.5 3.357-7.5 7.5s3.357 7.5 7.5 7.5h51.045c4.143 0 7.5-3.357 7.5-7.5s-3.357-7.5-7.5-7.5z"/><path d="m478.509 0h-45.333c-4.143 0-7.5 3.357-7.5 7.5s3.357 7.5 7.5 7.5h45.333c1.379 0 2.5 1.121 2.5 2.5v409.091h-48.986c-13.479 0-24.446 10.966-24.446 24.445v46.146h-240.624c3.23-5.043 5.113-11.029 5.113-17.449v-125.895c3.919 2.029 8.375 3.183 13.103 3.183 15.322 0 27.788-12.466 27.788-27.789v-72.558c0-21.566-6.854-42.037-19.821-59.201-12.539-16.598-30.364-29.015-50.191-34.964-.885-.266-1.503-1.126-1.503-2.092v-5.769c24.772-10.897 42.12-35.661 42.12-64.414 0-29.286-17.994-54.439-43.503-65.009v-7.725c0-1.379 1.121-2.5 2.5-2.5h255.868c4.143 0 7.5-3.357 7.5-7.5s-3.357-7.5-7.5-7.5h-255.869c-9.649 0-17.5 7.851-17.5 17.5v3.409c-3.852-.656-7.804-1.016-11.84-1.016-38.787 0-70.343 31.556-70.343 70.343 0 29.848 18.695 55.396 44.983 65.595v4.587c0 .966-.618 1.826-1.503 2.092-10.454 3.138-20.261 7.977-29.147 14.384-3.36 2.423-4.12 7.11-1.698 10.471 2.423 3.36 7.11 4.118 10.471 1.697 7.529-5.429 15.835-9.528 24.685-12.185 7.18-2.152 12.193-8.921 12.193-16.459v-.608c3.382.501 6.84.769 10.359.769 4.521 0 8.937-.445 13.223-1.264v1.103c0 7.538 5.015 14.307 12.193 16.459 16.795 5.04 31.9 15.566 42.532 29.639 10.984 14.539 16.79 31.883 16.79 50.159v72.558c0 7.052-5.736 12.789-12.788 12.789-6.576 0-12.203-4.92-13.103-11.076v-83.726c0-4.143-3.357-7.5-7.5-7.5s-7.5 3.357-7.5 7.5v232.513c0 9.621-7.828 17.449-17.449 17.449s-17.449-7.828-17.449-17.449v-135.31c0-4.142-3.357-7.499-7.499-7.5-.001 0 0 0-.001 0-4.141 0-7.499 3.356-7.5 7.498l-.034 135.312c0 9.621-7.828 17.449-17.449 17.449s-17.449-7.828-17.449-17.449v-233.79c0-4.143-3.357-7.5-7.5-7.5s-7.5 3.357-7.5 7.5l-.059 82.62c0 7.169-6.096 13.458-13.044 13.458-7.052 0-12.789-5.737-12.789-12.789v-72.558c0-15.673 4.374-30.939 12.649-44.149 2.198-3.511 1.136-8.139-2.375-10.338-3.511-2.195-8.139-1.136-10.338 2.375-9.771 15.6-14.937 33.62-14.937 52.112v72.558c0 15.323 12.466 27.789 27.789 27.789 4.696 0 9.166-1.247 13.103-3.421v126.132c0 17.893 14.557 32.449 32.449 32.449 10.028 0 19.01-4.573 24.967-11.743 5.957 7.17 14.937 11.743 24.966 11.743h265.105c5.65 0 11.421 1.165 16.072-2.585 2.184-1.761 4.141-3.926 6.175-5.854 8.547-8.103 17.093-16.205 25.64-24.308 13.687-12.976 27.372-25.955 41.061-38.928 1.494-1.416 2.34-3.384 2.34-5.442v-417.564c0-9.649-7.85-17.5-17.5-17.5zm-365.291 145.579c-30.516 0-55.343-24.827-55.343-55.344 0-30.516 24.827-55.343 55.343-55.343s55.343 24.827 55.343 55.343c0 30.517-24.827 55.344-55.343 55.344zm309.359 341.489v-36.032c0-5.208 4.237-9.445 9.446-9.445h37.862z"/><path d="m126.022 118.652c-3.298-2.507-8.002-1.865-10.51 1.432-.156.206-.508.551-1.107.551-.601 0-.954-.349-1.111-.557-2.495-3.307-7.197-3.963-10.504-1.469-3.307 2.495-3.964 7.198-1.469 10.504 3.081 4.084 7.973 6.521 13.084 6.521 5.165 0 9.921-2.359 13.049-6.473 2.506-3.296 1.866-8.002-1.432-10.509z"/></g></g></svg>