<svg id="Capa_1" enable-background="new 0 0 511.835 511.835" height="512" viewBox="0 0 511.835 511.835" width="512" xmlns="http://www.w3.org/2000/svg"><g><g><path d="m107.491 81.106h-64.231c-5.178 0-9.376-4.198-9.376-9.376v-27.427c0-20.326 16.478-36.803 36.804-36.803 20.326 0 36.803 16.477 36.803 36.803z" fill="#bfbfbf"/></g><g><path d="m107.493 44.307v36.8h-20.36v-36.8c0-10.17-4.12-19.37-10.78-26.03-4.34-4.34-9.77-7.61-15.84-9.35 3.23-.93 6.64-1.43 10.17-1.43 10.17 0 19.37 4.12 26.03 10.78s10.78 15.86 10.78 26.03z" fill="#9c9c9c"/></g><g><path d="m475.684 496.385c-12.742-6.863-26.057-19.241-26.057-41.007v-397.924c0-27.589-22.365-49.954-49.954-49.954h-328.985c20.326 0 36.803 16.477 36.803 36.803v410.078c0 27.589 22.365 49.954 49.954 49.954h243.477 72.806c4.406 0 5.835-5.861 1.956-7.95z" fill="#f9f7f8"/></g><g><path d="m473.732 504.331h-26.135c4.404 0 5.835-5.855 1.952-7.946-12.74-6.866-19.933-19.236-19.933-41.004v-397.926c0-27.593-22.368-49.951-49.961-49.951h20.016c27.592 0 49.961 22.358 49.961 49.951v397.926c0 21.768 13.311 34.138 26.051 41.004 3.884 2.091 2.453 7.946-1.951 7.946z" fill="#efedef"/></g><g><g><g><path d="m251.286 371.053 55.243.08-.166 71.499c-.003 1.771-1.903 2.891-3.454 2.035l-23.029-12.718c-.698-.386-1.546-.387-2.245-.003l-23.066 12.651c-1.553.852-3.451-.274-3.448-2.045z" fill="#60b7ff"/></g></g><g><g><path d="m306.534 371.136-.17 71.5c0 1.77-1.9 2.89-3.45 2.03l-16.87-9.32.15-64.21-34.91-.05v-.03z" fill="#26a6fe"/></g></g><g><circle cx="278.56" cy="343.63" fill="#ee6161" r="49.368"/></g><g><path d="m327.933 343.633c0 27.26-22.11 49.36-49.37 49.36-13.23 0-25.25-5.2-34.11-13.68 5.04 1.74 10.46 2.68 16.09 2.68 27.27 0 49.37-22.1 49.37-49.36 0-14.03-5.85-26.68-15.24-35.67 19.35 6.67 33.26 25.04 33.26 46.67z" fill="#e94444"/></g><g><path d="m479.24 489.781c-14.673-7.902-22.113-19.478-22.113-34.403v-335.961c0-4.143-3.358-7.5-7.5-7.5s-7.5 3.357-7.5 7.5v335.961c0 16.937 7.028 31.087 20.459 41.457h-305.141c-23.409 0-42.454-19.045-42.454-42.454 0 0 0-410.077 0-410.078 0-10.806-3.945-21.205-11.102-29.303h295.784c23.409 0 42.454 19.045 42.454 42.454v27.464c0 4.143 3.358 7.5 7.5 7.5s7.5-3.357 7.5-7.5v-27.464c0-31.681-25.774-57.454-57.454-57.454h-328.985c-24.429 0-44.303 19.874-44.303 44.303v27.427c0 9.306 7.57 16.876 16.875 16.876h56.731v365.774c0 31.681 25.774 57.454 57.454 57.454h316.283c5.457 0 10.018-3.548 11.35-8.828 1.339-5.308-1.007-10.622-5.838-13.225zm-379.249-416.175h-56.731c-1.034 0-1.875-.842-1.875-1.876v-27.427c0-16.157 13.145-29.303 29.303-29.303s29.303 13.146 29.303 29.303z"/><path d="m345.465 74.373c4.142 0 7.5-3.357 7.5-7.5s-3.358-7.5-7.5-7.5h-133.809c-4.142 0-7.5 3.357-7.5 7.5s3.358 7.5 7.5 7.5z"/><path d="m395.781 127.276h-234.441c-4.142 0-7.5 3.357-7.5 7.5s3.358 7.5 7.5 7.5h234.441c4.142 0 7.5-3.357 7.5-7.5s-3.358-7.5-7.5-7.5z"/><path d="m395.781 164.589h-234.441c-4.142 0-7.5 3.357-7.5 7.5s3.358 7.5 7.5 7.5h234.441c4.142 0 7.5-3.357 7.5-7.5s-3.358-7.5-7.5-7.5z"/><path d="m403.281 209.401c0-4.143-3.358-7.5-7.5-7.5h-234.441c-4.142 0-7.5 3.357-7.5 7.5s3.358 7.5 7.5 7.5h234.441c4.142 0 7.5-3.357 7.5-7.5z"/><path d="m303.754 246.714c0-4.143-3.358-7.5-7.5-7.5h-134.914c-4.142 0-7.5 3.357-7.5 7.5s3.358 7.5 7.5 7.5h134.914c4.142 0 7.5-3.358 7.5-7.5z"/><path d="m248.434 451.009c2.974 1.764 6.706 1.826 9.741.164l20.57-11.283 20.54 11.344c1.472.813 3.11 1.218 4.747 1.217 1.731 0 3.461-.452 4.993-1.354 2.979-1.756 4.833-4.995 4.837-8.446l.127-54.584c13.053-10.429 21.439-26.467 21.439-44.435 0-31.357-25.511-56.868-56.869-56.868s-56.868 25.511-56.868 56.868c0 4.143 3.358 7.5 7.5 7.5s7.5-3.357 7.5-7.5c0-23.086 18.782-41.868 41.868-41.868s41.869 18.782 41.869 41.868-18.782 41.868-41.869 41.868c-12.351 0-24.012-5.416-31.993-14.859-2.673-3.162-7.406-3.561-10.569-.886-3.164 2.674-3.561 7.405-.887 10.569 2.606 3.083 5.507 5.841 8.634 8.265l-.126 53.953c-.003 3.458 1.842 6.702 4.816 8.467zm10.292-54.094c6.271 2.333 12.97 3.583 19.834 3.583 7.192 0 14.07-1.356 20.409-3.802l-.086 37.18-15.378-8.493c-1.487-.821-3.118-1.231-4.75-1.231-1.623 0-3.246.406-4.727 1.218l-15.387 8.44z"/></g></g></g></svg>