<svg id="Capa_1" enable-background="new 0 0 511.296 511.296" height="512" viewBox="0 0 511.296 511.296" width="512" xmlns="http://www.w3.org/2000/svg"><g><g><path d="m502.842 473.216v23.293c0 4.035-3.271 7.305-7.305 7.305h-479.782c-4.033 0-7.301-3.269-7.301-7.301v-23.297c0-4.035 3.271-7.305 7.305-7.305h479.777c4.035 0 7.306 3.27 7.306 7.305z" fill="#9c9c9c"/></g><g><path d="m502.842 473.211v23.301c0 4.03-3.272 7.302-7.301 7.302h-21.944c4.03 0 7.301-3.272 7.301-7.302v-23.301c0-4.03-3.272-7.301-7.301-7.301h21.944c4.029 0 7.301 3.271 7.301 7.301z" fill="#838383"/></g><g><g><g><path d="m421.405 149.398c-4.069-1.221-6.829-5.003-6.829-9.251v-25.815h-38.478v25.815c0 4.248-2.76 8.03-6.829 9.251-37.308 11.195-64.493 45.793-64.493 86.746v72.362c0 11.175 9.059 20.234 20.234 20.234s20.234-9.059 20.234-20.234l.313 132.523c0 13.742 11.14 24.882 24.882 24.882 13.742 0 24.882-11.14 24.882-24.882h.034c0 13.742 11.14 24.882 24.881 24.882 13.742 0 24.881-11.14 24.881-24.882l.313-132.523c0 11.175 9.059 20.234 20.234 20.234 11.175 0 20.234-9.059 20.234-20.234v-72.362c0-40.953-27.185-75.551-64.493-86.746z" fill="#57be92"/></g><g><path d="m485.898 236.14v72.364c0 5.585-2.264 10.651-5.924 14.311s-8.726 5.924-14.311 5.924c-3.73 0-7.22-1.007-10.222-2.772 1.496-.868 2.872-1.935 4.089-3.151 3.66-3.66 5.924-8.726 5.924-14.311v-72.365c0-33.081-23.626-55.749-57.045-67.737-8.527-3.062-14.281-11.07-14.281-20.135v-33.938h20.445v25.82c0 4.249 2.763 8.028 6.832 9.245 37.307 11.2 64.493 45.796 64.493 86.745z" fill="#09a76d"/></g><g><circle cx="393.908" cy="70.155" fill="#fed2a4" r="62.673"/></g><g><path d="m456.583 70.154c0 34.61-28.061 62.671-62.671 62.671-11.671 0-22.604-3.188-31.958-8.751 4.605 1.082 9.411 1.656 14.352 1.656 34.619 0 62.681-28.052 62.681-62.671 0-22.939-12.331-43.006-30.723-53.92 27.697 6.481 48.319 31.345 48.319 61.015z" fill="#ffbd86"/></g></g><g><g><path d="m314.46 465.911h-133.616v-315.091c0-4.114 3.335-7.449 7.449-7.449h118.718c4.114 0 7.449 3.335 7.449 7.449z" fill="#ee6161"/></g><g><path d="m314.456 150.819v315.091h-19.159v-315.091c0-4.117-3.331-7.448-7.448-7.448h19.159c4.117 0 7.448 3.331 7.448 7.448z" fill="#e94444"/></g><g><path d="m236.614 465.911h-133.616v-241.172c0-4.114 3.335-7.449 7.449-7.449h118.718c4.114 0 7.449 3.335 7.449 7.449z" fill="#f79595"/></g><g><path d="m236.615 224.736v241.174h-20.713v-241.174c0-4.108-3.34-7.448-7.458-7.448h20.722c4.109 0 7.449 3.341 7.449 7.448z" fill="#f47c7c"/></g><g><path d="m158.795 465.911h-133.616v-160.72c0-4.114 3.335-7.449 7.449-7.449h118.718c4.114 0 7.449 3.335 7.449 7.449z" fill="#f9c6c6"/></g><g><path d="m158.794 305.189v160.721h-20.499v-160.721c0-4.108-3.341-7.448-7.448-7.448h20.499c4.118 0 7.448 3.34 7.448 7.448z" fill="#f9b1b1"/></g><g><path d="m408.105 108.979c2.5-3.288 1.863-7.982-1.425-10.484-3.289-2.501-7.983-1.864-10.484 1.425-.156.206-.508.551-1.104.551-.599 0-.95-.347-1.105-.553-2.488-3.299-7.18-3.956-10.477-1.469-3.299 2.488-3.957 7.179-1.469 10.477 3.073 4.075 7.952 6.507 13.052 6.507 5.148 0 9.891-2.352 13.012-6.454z"/><path d="m495.537 458.43h-48.037c3.221-5.029 5.098-10.998 5.098-17.401v-34.06c0-4.132-3.349-7.481-7.481-7.481s-7.481 3.349-7.481 7.481v34.06c0 9.595-7.805 17.401-17.4 17.401s-17.401-7.806-17.401-17.401v-117.374c0-4.131-3.349-7.48-7.48-7.481 0 0 0 0-.001 0-4.13 0-7.48 3.348-7.481 7.479l-.034 117.375c0 9.595-7.805 17.401-17.4 17.401s-17.401-7.806-17.401-17.401v-215.586c0-4.132-3.349-7.481-7.481-7.481s-7.481 3.349-7.481 7.481v83.274c-.052 6.924-5.89 12.543-13.065 12.543-1.059 0-2.083-.142-3.067-.386v-123.7c2.043-3.831 4.394-7.526 7.058-11.052 10.604-14.034 25.668-24.532 42.418-29.558 7.16-2.148 12.161-8.898 12.161-16.416v-.604c3.372.5 6.82.766 10.329.766 4.508 0 8.912-.444 13.186-1.26v1.098c0 7.518 5.001 14.269 12.161 16.416 16.751 5.026 31.815 15.524 42.418 29.558 10.955 14.499 16.745 31.797 16.745 50.023v72.362c0 7.032-5.721 12.753-12.753 12.753-6.957 0-12.48-4.636-13.067-10.737v-83.807c0-4.132-3.349-7.481-7.481-7.481s-7.481 3.349-7.481 7.481v145.342c0 4.132 3.349 7.481 7.481 7.481s7.481-3.349 7.481-7.481v-38.816c3.884 1.905 8.318 2.98 13.067 2.98 15.281 0 27.715-12.434 27.715-27.715v-72.362c0-21.509-6.836-41.925-19.768-59.043-12.506-16.553-30.284-28.936-50.057-34.87-.883-.265-1.498-1.122-1.498-2.085v-5.752c24.705-10.868 42.006-35.565 42.006-64.241-.003-38.682-31.474-70.153-70.157-70.153s-70.154 31.471-70.154 70.154c0 29.768 18.645 55.248 44.863 65.419v4.573c0 .963-.616 1.821-1.498 2.085-17.326 5.199-33.119 15.352-45.177 28.922v-20.333c0-8.232-6.698-14.93-14.931-14.93h-61.447c-4.132 0-7.481 3.349-7.481 7.481s3.349 7.481 7.481 7.481l61.416-.032v307.61h-62.885v-233.691c0-8.233-6.697-14.931-14.93-14.931h-40.867l-.006-58.956h22.027c4.132 0 7.481-3.349 7.481-7.481s-3.349-7.481-7.481-7.481h-22.027c-8.233 0-14.93 6.698-14.93 14.93v58.988h-62.916c-8.233 0-14.93 6.698-14.93 14.931v65.522h-62.888c-8.233 0-14.93 6.698-14.93 14.93v153.239h-1.938c-8.153 0-14.786 6.633-14.786 14.786v23.294c0 8.153 6.633 14.787 14.786 14.787h479.778c8.153 0 14.786-6.634 14.786-14.787v-23.294c-.001-8.153-6.634-14.786-14.787-14.786zm-156.821-388.276c0-30.433 24.759-55.192 55.192-55.192s55.192 24.76 55.192 55.192c0 30.434-24.76 55.193-55.192 55.193-30.433 0-55.192-24.759-55.192-55.193zm-16.774 265.886c1.008.112 2.03.181 3.067.181 4.716 0 9.161-1.157 13.065-3.192v107.999c0 6.403 1.877 12.372 5.098 17.401h-21.231v-122.389zm-92.809-111.301v233.691h-62.857v-153.239c0-8.232-6.697-14.93-14.93-14.93h-40.891l-.009-65.491zm-77.819 80.452v153.239h-118.656l-.03-153.207zm344.047 191.143h-479.426v-22.942h479.426z"/></g></g></g></g></svg>