<svg id="Capa_1" enable-background="new 0 0 511.828 511.828" height="512" viewBox="0 0 511.828 511.828" width="512" xmlns="http://www.w3.org/2000/svg"><g><g><path d="m399.511 504.328h-326.247c-11.019 0-19.952-8.933-19.952-19.952v-425.918c0-11.019 8.933-19.952 19.952-19.952h326.246c11.019 0 19.952 8.933 19.952 19.952v425.918c.001 11.019-8.932 19.952-19.951 19.952z" fill="#dc8758"/></g><g><path d="m419.464 58.456v425.918c0 11.022-8.935 19.957-19.957 19.957h-19.917c11.012 0 19.947-8.935 19.947-19.957v-425.918c0-11.022-8.935-19.947-19.947-19.947h19.917c11.022.001 19.957 8.926 19.957 19.947z" fill="#ce7345"/></g><g><path d="m363.44 451.53h-254.105c-3.235 0-5.858-2.623-5.858-5.858v-348.51c0-3.235 2.623-5.858 5.858-5.858h254.105c3.235 0 5.858 2.623 5.858 5.858v348.511c0 3.235-2.622 5.857-5.858 5.857z" fill="#f9f7f8"/></g><g><path d="m369.298 97.161v348.507c0 3.235-2.626 5.86-5.86 5.86h-19.927c3.245 0 5.86-2.626 5.86-5.86v-348.507c0-3.235-2.616-5.86-5.86-5.86h19.927c3.234 0 5.86 2.626 5.86 5.86z" fill="#efedef"/></g><g><path d="m276.501 38.712c-2.676 0-5.066-1.783-5.715-4.379-3.856-15.414-17.79-26.833-34.398-26.833-16.609 0-30.543 11.419-34.398 26.833-.649 2.596-3.039 4.379-5.715 4.379h-48.877v52.592h177.98v-52.592z" fill="#5a5a5a"/></g><g><path d="m325.382 38.715v52.586h-19.481v-31.517c0-3.217-2.608-5.824-5.824-5.824h-37.459c-2.675 0-5.062-1.78-5.718-4.375-3.848-15.414-18.521-28.163-39.992-26.84-3.732.23-7.349.577-10.73 1.661 2.178-3.56 4.972-6.693 8.224-9.268 6.046-4.783 13.684-7.637 21.987-7.637 16.607 0 30.539 11.416 34.398 26.83.646 2.595 3.033 4.386 5.718 4.386h48.877z" fill="#444"/></g><g><g><circle cx="383.924" cy="222.014" fill="#57be92" r="74.591"/></g><g><path d="m458.518 222.011c0 41.198-33.395 74.592-74.592 74.592-18.105 0-34.697-6.438-47.614-17.163 9.36 4.225 19.736 6.575 30.673 6.575 41.198 0 74.592-33.395 74.592-74.592 0-23.103-10.503-43.75-26.978-57.429 25.899 11.7 43.919 37.746 43.919 68.017z" fill="#09a76d"/></g><g><g><path d="m422.534 191.793c-5.84-5.388-14.942-5.021-20.33.819l-24.783 26.864c-1.068 1.157-2.896 1.157-3.963 0l-7.752-8.403c-5.401-5.854-14.525-6.222-20.38-.821-5.834 5.382-6.223 14.467-.869 20.328l18.154 19.872c6.793 7.436 18.496 7.465 25.326.062l35.417-38.391c5.387-5.84 5.02-14.943-.82-20.33z" fill="#f9f7f8"/></g><g><path d="m423.356 212.122-35.417 38.392c-6.829 7.401-18.54 7.369-25.326-.064l-1.144-1.249c4.585-.021 9.159-1.863 12.547-5.537l35.417-38.392c4.447-4.818 4.976-11.848 1.736-17.195 4.002-.455 8.174.773 11.361 3.716 5.844 5.39 6.215 14.485.826 20.329z" fill="#efedef"/></g><g><path d="m297.154 136.441h-156.878c-4.143 0-7.5 3.357-7.5 7.5s3.357 7.5 7.5 7.5h156.878c4.143 0 7.5-3.357 7.5-7.5s-3.358-7.5-7.5-7.5z"/><path d="m140.276 190.394h124.631c4.143 0 7.5-3.357 7.5-7.5s-3.357-7.5-7.5-7.5h-124.631c-4.143 0-7.5 3.357-7.5 7.5s3.357 7.5 7.5 7.5z"/><path d="m140.276 229.346h124.631c4.143 0 7.5-3.357 7.5-7.5s-3.357-7.5-7.5-7.5h-124.631c-4.143 0-7.5 3.357-7.5 7.5s3.357 7.5 7.5 7.5z"/><path d="m140.276 268.299h124.631c4.143 0 7.5-3.357 7.5-7.5s-3.357-7.5-7.5-7.5h-124.631c-4.143 0-7.5 3.357-7.5 7.5s3.357 7.5 7.5 7.5z"/><path d="m140.276 292.251c-4.143 0-7.5 3.357-7.5 7.5s3.357 7.5 7.5 7.5h156.878c4.143 0 7.5-3.357 7.5-7.5s-3.357-7.5-7.5-7.5z"/><path d="m132.776 338.704c0 4.143 3.357 7.5 7.5 7.5h192.224c4.143 0 7.5-3.357 7.5-7.5s-3.357-7.5-7.5-7.5h-192.224c-4.143 0-7.5 3.358-7.5 7.5z"/><path d="m426.962 152.146v-93.688c0-15.137-12.314-27.451-27.451-27.451l-121.797.205c-5.224-18.445-22.028-31.212-41.326-31.212s-36.103 12.768-41.327 31.212l-121.797-.205c-15.137 0-27.451 12.314-27.451 27.451v425.918c0 15.137 12.314 27.452 27.451 27.452h326.247c15.137 0 27.451-12.315 27.451-27.452v-192.495c23.414-14.476 39.053-40.375 39.053-69.867s-15.639-55.391-39.053-69.868zm-94.085-106.139h66.634c6.865 0 12.451 5.586 12.451 12.451v86.4c-8.753-3.191-18.195-4.936-28.038-4.936-2.39 0-4.765.115-7.126.318v-43.078c0-7.365-5.992-13.357-13.357-13.357h-30.563v-37.798zm-177.979.205h41.376c6.168 0 11.51-4.137 12.991-10.059 3.115-12.455 14.269-21.153 27.123-21.153s24.007 8.698 27.122 21.153c1.481 5.922 6.823 10.059 12.991 10.059h41.376v37.592h-162.979zm229.026 242.893c-36.994 0-67.092-30.098-67.092-67.092 0-11.511 2.962-22.862 8.565-32.829 2.03-3.61.749-8.184-2.861-10.213-3.61-2.033-8.185-.75-10.213 2.861-6.863 12.206-10.491 26.101-10.491 40.181 0 37.599 25.418 69.353 59.966 79.038v142.979h-169.162c-4.143 0-7.5 3.357-7.5 7.5s3.357 7.5 7.5 7.5h170.805c7.365 0 13.357-5.992 13.357-13.357v-141.896c2.351.203 4.723.329 7.126.329 9.843 0 19.285-1.745 28.038-4.936v185.206c0 6.866-5.586 12.452-12.451 12.452h-326.247c-6.865 0-12.451-5.586-12.451-12.452v-425.918c0-6.865 5.586-12.451 12.451-12.451h66.634v37.798h-30.563c-7.365 0-13.357 5.992-13.357 13.357v348.511c0 7.365 5.992 13.357 13.357 13.357h48.248c4.143 0 7.5-3.357 7.5-7.5s-3.357-7.5-7.5-7.5h-46.605v-345.225h250.821v44.148c-8.298 2.316-16.213 5.931-23.473 10.789-3.442 2.304-4.366 6.962-2.063 10.404s6.962 4.367 10.404 2.063c11.034-7.384 23.918-11.286 37.257-11.286 36.994 0 67.091 30.098 67.091 67.092s-30.097 67.09-67.091 67.09z"/><path d="m427.62 186.28c-4.297-3.964-9.877-6.011-15.723-5.783-5.841.235-11.241 2.731-15.206 7.028l-21.252 23.037-4.221-4.575c-3.971-4.304-9.38-6.804-15.23-7.04-5.864-.225-11.443 1.822-15.747 5.792-8.842 8.156-9.435 22.018-1.321 30.899l18.154 19.871c4.649 5.091 11.271 8.02 18.166 8.037h.062c6.873 0 13.484-2.895 18.147-7.947l35.417-38.392c8.182-8.869 7.623-22.743-1.246-30.927zm-9.78 20.757-35.416 38.391c-1.857 2.012-4.385 3.119-7.121 3.119-.009 0-.018 0-.025 0-2.746-.007-5.277-1.127-7.13-3.154l-18.154-19.871c-2.562-2.805-2.375-7.182.418-9.757 1.288-1.189 2.943-1.835 4.687-1.835.095 0 .189.002.285.006 1.848.074 3.556.864 4.81 2.223l7.753 8.405c1.925 2.084 4.655 3.28 7.492 3.28 2.838 0 5.568-1.196 7.495-3.282l24.783-26.864c1.247-1.353 2.946-2.138 4.784-2.212 1.87-.07 3.595.573 4.947 1.819v.001c2.791 2.575 2.968 6.94.392 9.731z"/></g></g></g></g></svg>