<svg id="Capa_1" enable-background="new 0 0 512.136 512.136" height="512" viewBox="0 0 512.136 512.136" width="512" xmlns="http://www.w3.org/2000/svg"><g><g><path d="m256.068 294.644h-58.967v161.146c0 3.132 1.432 6.093 3.888 8.037l48.714 38.576c3.729 2.953 9 2.953 12.729 0l48.714-38.576c2.456-1.945 3.888-4.905 3.888-8.037v-161.146z" fill="#57be92"/></g><g><path d="m315.035 294.648v161.137c0 3.133-1.437 6.096-3.891 8.042l-15.954 12.641c.678-1.387 1.048-2.923 1.048-4.51v-177.31z" fill="#09a76d"/></g><g><path d="m279.666 294.645v194.105l-17.236 13.649c-3.728 2.955-8.996 2.955-12.724 0l-17.236-13.649v-194.105z" fill="#f9f7f8"/></g><g><path d="m279.665 294.648v194.103l-17.231 13.649c-.838.669-1.766 1.188-2.724 1.537v-209.289z" fill="#efedef"/></g><g><path d="m410.637 162.07c0-14.375-7.354-27.024-18.499-34.414-1.262-.837-1.698-2.462-1.023-3.818 5.957-11.973 6.001-26.604-1.187-39.053-7.187-12.449-19.88-19.727-33.227-20.554-1.511-.094-2.701-1.283-2.795-2.795-.827-13.347-8.105-26.04-20.554-33.228-12.449-7.187-27.08-7.144-39.053-1.187-1.356.675-2.981.239-3.818-1.023-7.389-11.145-20.039-18.498-34.413-18.498-14.375 0-27.024 7.354-34.414 18.499-.837 1.262-2.462 1.698-3.818 1.023-11.973-5.957-26.604-6-39.053 1.187s-19.727 19.88-20.554 33.228c-.094 1.511-1.283 2.701-2.795 2.795-13.347.827-26.04 8.105-33.227 20.554s-7.144 27.08-1.187 39.053c.675 1.356.239 2.981-1.023 3.818-11.145 7.39-18.499 20.039-18.499 34.414 0 14.374 7.354 27.024 18.499 34.414 1.262.837 1.698 2.462 1.023 3.818-5.957 11.973-6.001 26.604 1.187 39.053 7.187 12.449 19.88 19.727 33.227 20.554 1.511.094 2.701 1.283 2.795 2.795.827 13.347 8.105 26.04 20.554 33.227s27.08 7.144 39.053 1.187c1.356-.675 2.981-.239 3.818 1.023 7.39 11.145 20.04 18.499 34.414 18.499 14.375 0 27.024-7.354 34.414-18.499.837-1.262 2.462-1.698 3.818-1.023 11.973 5.957 26.604 6.001 39.053-1.187 12.449-7.187 19.727-19.88 20.554-33.227.094-1.511 1.283-2.701 2.795-2.795 13.347-.827 26.04-8.105 33.227-20.554s7.144-27.08 1.187-39.053c-.675-1.356-.239-2.981 1.023-3.818 11.145-7.392 18.498-20.041 18.498-34.415z" fill="#fe9738"/></g><g><path d="m392.141 196.48c11.145-7.384 18.498-20.035 18.498-34.413 0-14.368-7.353-27.019-18.498-34.412-1.267-.838-1.696-2.464-1.028-3.821 5.957-11.973 6.006-26.6-1.187-39.052-6.436-11.145-17.291-18.149-29.075-20.075 3.672 3.093 6.875 6.864 9.419 11.265 7.393 12.811-.369 36.837-6.505 49.159-.688 1.397-.239 3.073 1.058 3.931 4.32 2.873 8.112 6.635 12.103 9.938 5.837 4.839 8.79 10.686 9.788 16.942 2.155 13.629-2.534 27.289-14.168 35.011-1.297.858-1.746 2.534-1.058 3.931 5.448 10.955 7.383 23.727.589 34.522-5.667 9.01-16.144 14.078-26.53 14.836-3.771.269-7.373-.668-11.155-.439-4.46.279-3.303 6.635-3.003 9.529 1.137 10.995-.209 22.978-6.246 32.467-4.929 7.743-14.008 13.42-23.318 14.188 10.257 2.814 21.581 1.686 31.529-4.061 12.452-7.184 19.726-19.875 20.554-33.225.09-1.507 1.287-2.694 2.794-2.794 13.35-.828 26.041-8.102 33.225-20.554 7.194-12.452 7.144-27.079 1.187-39.052-.669-1.357-.24-2.983 1.027-3.821z" fill="#fe860a"/></g><g><circle cx="256.068" cy="162.069" fill="#ffe3cb" r="94.595"/></g><g><path d="m350.665 162.067c0 52.242-42.355 94.597-94.597 94.597-20.604 0-39.671-6.585-55.206-17.78 11.694 5.178 24.634 8.052 38.244 8.052 52.242 0 94.597-42.355 94.597-94.597 0-31.639-15.535-59.646-39.391-76.817 33.195 14.687 56.353 47.912 56.353 86.545z" fill="#feca9c"/></g><g><g><path d="m265.479 112.441 9.729 19.713c1.529 3.097 4.484 5.244 7.902 5.741l21.754 3.161c8.608 1.251 12.045 11.829 5.816 17.901l-15.742 15.344c-2.473 2.411-3.602 5.885-3.018 9.289l3.716 21.666c1.47 8.573-7.528 15.111-15.227 11.063l-19.458-10.229c-3.057-1.607-6.71-1.607-9.767 0l-19.458 10.229c-7.699 4.048-16.698-2.49-15.227-11.063l3.716-21.666c.584-3.404-.545-6.878-3.018-9.289l-15.742-15.344c-6.229-6.072-2.792-16.65 5.816-17.901l21.754-3.161c3.418-.497 6.373-2.644 7.902-5.741l9.729-19.713c3.85-7.8 14.973-7.8 18.823 0z" fill="#fac600"/></g><g><path d="m294.93 174.31c-2.464 2.404-3.602 5.877-3.013 9.279l3.712 21.661c1.477 8.571-7.513 15.126-15.216 11.065l-8.072-4.24c3.133-2.375 5.059-6.366 4.28-10.865l-3.981-23.208c-.619-3.642.599-7.364 3.233-9.938l16.872-16.443c3.462-3.372 4.131-8.042 2.694-11.943l9.429 1.367c8.601 1.257 12.043 11.833 5.807 17.91z" fill="#e8b800"/></g><g><path d="m418.137 162.069c0-15.098-6.934-29.188-18.724-38.409 5.601-13.88 4.56-29.551-2.989-42.626-7.549-13.076-20.599-21.813-35.42-23.9-2.089-14.822-10.825-27.871-23.901-35.421-13.075-7.55-28.745-8.591-42.625-2.988-9.221-11.791-23.312-18.725-38.41-18.725s-29.189 6.934-38.409 18.725c-13.879-5.601-29.55-4.56-42.626 2.988-13.075 7.549-21.811 20.598-23.901 35.421-14.821 2.089-27.872 10.825-35.42 23.9-7.55 13.076-8.591 28.745-2.989 42.626-11.791 9.22-18.725 23.311-18.725 38.409 0 15.1 6.934 29.19 18.725 38.409-5.602 13.881-4.561 29.55 2.989 42.626 7.549 13.076 20.599 21.813 35.42 23.9 2.089 14.822 10.825 27.871 23.901 35.421 4.598 2.655 9.519 4.486 14.568 5.525v147.838c0 5.457 2.454 10.529 6.731 13.917l48.714 38.576c3.245 2.569 7.132 3.854 11.021 3.854 3.888 0 7.776-1.285 11.021-3.854l48.714-38.576c4.278-3.388 6.732-8.46 6.732-13.917v-147.837c5.049-1.039 9.97-2.871 14.568-5.525 13.075-7.549 21.811-20.599 23.901-35.421 14.821-2.089 27.872-10.825 35.42-23.9 7.55-13.077 8.591-28.746 2.989-42.626 11.791-9.22 18.725-23.311 18.725-38.41zm-193.168 311.18-19.325-15.303c-.663-.525-1.043-1.312-1.043-2.157v-147.111c4.435-.478 8.829-1.559 13.057-3.264 2.179 2.787 4.639 5.292 7.311 7.509zm82.565-17.46c0 .846-.38 1.632-1.044 2.157l-19.324 15.302v-80.815c0-4.143-3.358-7.5-7.5-7.5s-7.5 3.357-7.5 7.5v92.688l-14.394 11.398c-1.003.795-2.405.796-3.41-.001l-14.393-11.397v-163.714c5.101 1.782 10.53 2.731 16.099 2.731 5.568 0 10.997-.95 16.098-2.732v35.985c0 4.143 3.358 7.5 7.5 7.5s7.5-3.357 7.5-7.5v-44.469c2.672-2.217 5.132-4.721 7.311-7.508 4.227 1.706 8.621 2.787 13.057 3.265zm80.46-265.557c-4.4 2.918-5.945 8.683-3.593 13.41 5.068 10.186 4.707 22.134-.967 31.962-5.674 9.827-15.841 16.114-27.197 16.818-5.271.327-9.491 4.548-9.816 9.816-.704 11.355-6.991 21.522-16.818 27.196-9.828 5.674-21.776 6.034-31.961.968-4.728-2.356-10.494-.81-13.41 3.593-6.288 9.481-16.816 15.143-28.164 15.143s-21.876-5.661-28.162-15.14c-1.998-3.017-5.333-4.692-8.755-4.692-1.574 0-3.167.354-4.656 1.096-10.188 5.068-22.135 4.706-31.962-.967-9.827-5.674-16.114-15.841-16.818-27.194-.325-5.271-4.545-9.491-9.816-9.818-11.355-.704-21.522-6.991-27.196-16.818s-6.035-21.775-.966-31.964c2.35-4.727.805-10.49-3.594-13.408-9.482-6.287-15.144-16.815-15.144-28.163s5.661-21.876 15.145-28.164c4.399-2.918 5.943-8.682 3.592-13.408-5.068-10.187-4.707-22.136.967-31.963s15.841-16.114 27.197-16.818c5.271-.327 9.491-4.548 9.816-9.816.704-11.355 6.991-21.522 16.818-27.196 9.828-5.673 21.776-6.035 31.961-.968 4.726 2.354 10.493.809 13.411-3.592 6.286-9.484 16.814-15.145 28.162-15.145s21.876 5.661 28.164 15.145c2.918 4.4 8.684 5.945 13.408 3.592 10.186-5.069 22.134-4.706 31.962.967 9.827 5.674 16.114 15.841 16.818 27.194.325 5.271 4.545 9.491 9.816 9.818 11.355.704 21.522 6.991 27.196 16.818 5.674 9.828 6.036 21.776.968 31.961-2.354 4.728-.809 10.492 3.592 13.411 9.482 6.288 15.144 16.816 15.144 28.163.001 11.348-5.66 21.876-15.142 28.163z"/><path d="m256.068 59.975c-11.268 0-22.343 1.825-32.917 5.426-3.921 1.335-6.018 5.596-4.683 9.517 1.334 3.92 5.594 6.016 9.517 4.683 9.015-3.069 18.464-4.625 28.083-4.625 48.024 0 87.094 39.07 87.094 87.095s-39.07 87.095-87.094 87.095-87.095-39.07-87.095-87.095c0-25.776 11.327-50.084 31.075-66.69 3.17-2.666 3.579-7.397.913-10.567-2.665-3.169-7.396-3.58-10.567-.913-23.146 19.464-36.421 47.956-36.421 78.171 0 56.295 45.799 102.095 102.095 102.095 56.295 0 102.094-45.8 102.094-102.095s-45.799-102.097-102.094-102.097z"/><path d="m191.667 145.881c-2.132 6.562-.387 13.63 4.553 18.445l15.742 15.345c.706.688 1.028 1.68.861 2.651l-3.716 21.665c-1.167 6.801 1.576 13.545 7.159 17.601 3.154 2.292 6.844 3.456 10.56 3.456 2.859 0 5.734-.689 8.391-2.086l19.457-10.229c.873-.459 1.916-.459 2.788 0l19.458 10.229c6.107 3.21 13.369 2.686 18.951-1.37 5.583-4.056 8.325-10.8 7.159-17.6l-3.716-21.666c-.167-.972.155-1.963.861-2.651l15.741-15.344c4.941-4.816 6.686-11.885 4.554-18.446-2.132-6.563-7.698-11.255-14.526-12.247l-21.753-3.161c-.977-.142-1.82-.755-2.256-1.639l-9.729-19.713c-3.054-6.188-9.237-10.03-16.137-10.03s-13.083 3.843-16.137 10.03l-9.729 19.713c-.436.884-1.279 1.497-2.255 1.639l-21.754 3.161c-6.829.992-12.395 5.684-14.527 12.247zm14.266 4.635c.215-.661.814-1.805 2.417-2.038l21.755-3.161c5.862-.853 10.926-4.532 13.548-9.844l9.729-19.713c.717-1.452 1.99-1.669 2.686-1.669s1.969.217 2.686 1.669l9.729 19.713c2.622 5.312 7.686 8.991 13.549 9.844l21.754 3.161c1.603.233 2.203 1.377 2.417 2.038s.402 1.939-.758 3.07l-15.741 15.344c-4.242 4.135-6.177 10.09-5.175 15.928l3.716 21.667c.274 1.596-.629 2.52-1.191 2.929-.562.407-1.721.981-3.153.228l-19.458-10.229c-5.243-2.756-11.503-2.756-16.748 0l-19.458 10.229c-1.435.754-2.592.181-3.153-.228-.563-.409-1.465-1.333-1.191-2.93l3.716-21.666c1.001-5.838-.933-11.792-5.175-15.927l-15.742-15.346c-1.161-1.13-.974-2.408-.759-3.069z"/></g></g></g></svg>