<svg id="Capa_1" enable-background="new 0 0 511.77 511.77" height="512" viewBox="0 0 511.77 511.77" width="512" xmlns="http://www.w3.org/2000/svg"><g><g><g><circle cx="434.574" cy="76.765" fill="#57be92" r="69.266"/></g><g><path d="m503.842 76.763c0 38.256-31.01 69.266-69.266 69.266-16.813 0-32.219-5.978-44.214-15.938 8.691 3.923 18.327 6.106 28.483 6.106 38.256 0 69.266-31.01 69.266-69.266 0-21.453-9.753-40.626-25.052-53.329 24.049 10.865 40.783 35.051 40.783 63.161z" fill="#09a76d"/></g><g><g><path d="m470.427 48.702c-5.423-5.003-13.875-4.663-18.879.761l-23.014 24.946c-.991 1.075-2.689 1.075-3.68 0l-7.198-7.803c-5.015-5.436-13.488-5.778-18.925-.763-5.418 4.998-5.778 13.435-.807 18.877l16.858 18.453c6.308 6.905 17.175 6.932 23.517.057l32.888-35.65c5.004-5.423 4.663-13.875-.76-18.878z" fill="#f9f7f8"/></g><g><path d="m471.19 67.58-32.888 35.651c-6.342 6.873-17.216 6.843-23.518-.059l-1.062-1.16c4.257-.02 8.505-1.73 11.651-5.142l32.888-35.651c4.129-4.474 4.621-11.002 1.612-15.967 3.717-.423 7.59.718 10.55 3.451 5.428 5.004 5.772 13.45.767 18.877z" fill="#efedef"/></g></g></g><g><path d="m408.537 136.833-49.183 59.512c-1.466 1.774-.204 4.454 2.097 4.454h18.016c1.503 0 2.721 1.218 2.721 2.721v103.818h56.892v-103.819c0-1.503 1.218-2.721 2.721-2.721h18.016c2.301 0 3.563-2.68 2.097-4.454l-49.183-59.512c-1.088-1.316-3.106-1.316-4.194.001z" fill="#fee45a"/></g><g><path d="m459.821 200.798h-18.02c-1.5 0-2.72 1.22-2.72 2.72v103.82h-20v-112.5c0-1.65 1.33-2.98 2.97-2.98h4.81c2.52 0 3.9-2.93 2.3-4.87l-30.94-37.67 10.32-12.49c1.09-1.31 3.1-1.31 4.19 0l49.18 59.51c1.47 1.78.21 4.46-2.09 4.46z" fill="#fed402"/></g><g><path d="m348.722 255.619h-18.02c-1.5 0-2.72 1.22-2.72 2.72v103.82h-20v-112.5c0-1.65 1.33-2.98 2.97-2.98h4.81c2.52 0 3.9-2.93 2.3-4.87l-30.94-37.67 10.32-12.49c1.09-1.31 3.1-1.31 4.19 0l49.18 59.51c1.47 1.78.21 4.46-2.09 4.46z" fill="#fac600"/></g><g><path d="m382.036 252.488h57.197v213.781h-57.197z" fill="#60b7ff"/></g><g><path d="m419.272 252.489h19.96v213.78h-19.96z" fill="#26a6fe"/></g><g><path d="m297.439 191.651-49.183 59.512c-1.466 1.774-.204 4.454 2.097 4.454h18.016c1.503 0 2.721 1.218 2.721 2.721v103.818h56.892v-103.818c0-1.503 1.218-2.721 2.721-2.721h18.016c2.301 0 3.563-2.68 2.097-4.454l-49.183-59.512c-1.088-1.316-3.106-1.316-4.194 0z" fill="#fee45a"/></g><g><path d="m348.722 255.619h-18.02c-1.5 0-2.72 1.22-2.72 2.72v103.82h-20v-112.5c0-1.65 1.33-2.98 2.97-2.98h4.81c2.52 0 3.9-2.93 2.3-4.87l-30.94-37.67 10.32-12.49c1.09-1.31 3.1-1.31 4.19 0l49.18 59.51c1.47 1.78.21 4.46-2.09 4.46z" fill="#fed402"/></g><g><path d="m303.22 196.429-.006.008z"/><path d="m297.439 191.651h.01z"/></g><g><path d="m270.937 307.307h57.197v158.907h-57.197z" fill="#60b7ff"/></g><g><path d="m217.036 466.27h-57.197v-100.466c0-2.015 1.634-3.649 3.649-3.649h49.899c2.015 0 3.649 1.634 3.649 3.649z" fill="#60b7ff"/></g><g><path d="m105.938 466.27h-57.197v-52.651c0-2.015 1.634-3.649 3.649-3.649h49.899c2.015 0 3.649 1.634 3.649 3.649z" fill="#60b7ff"/></g><g><path d="m308.172 307.309h19.96v158.91h-19.96z" fill="#26a6fe"/></g><g><path d="m217.032 365.809v100.46h-19.95v-100.46c0-2.02-1.64-3.65-3.65-3.65h19.96c2.01 0 3.64 1.63 3.64 3.65z" fill="#26a6fe"/></g><g><path d="m105.942 413.619v52.65h-19.96v-52.65c0-2.01-1.64-3.65-3.65-3.65h19.96c2.01 0 3.65 1.64 3.65 3.65z" fill="#26a6fe"/></g><g><path d="m503.572 473.594v23.352c0 4.045-3.279 7.324-7.324 7.324h-480.997c-4.043 0-7.32-3.277-7.32-7.32v-23.356c0-4.045 3.279-7.324 7.324-7.324h480.993c4.045 0 7.324 3.279 7.324 7.324z" fill="#9c9c9c"/></g><g><path d="m503.572 473.589v23.36c0 4.04-3.28 7.32-7.32 7.32h-22c4.04 0 7.32-3.28 7.32-7.32v-23.36c0-4.04-3.28-7.32-7.32-7.32h22c4.04 0 7.32 3.28 7.32 7.32z" fill="#838383"/></g><g><path d="m409.245 108.231c4.419 4.838 10.712 7.621 17.265 7.638h.057c6.532 0 12.815-2.751 17.246-7.553l32.888-35.65c7.799-8.454 7.267-21.677-1.188-29.477-8.455-7.799-21.678-7.266-29.477 1.188l-19.342 20.965-3.525-3.82c-3.784-4.103-8.939-6.485-14.515-6.71-5.575-.237-10.906 1.735-15.008 5.52-8.427 7.774-8.991 20.984-1.258 29.447zm-5.428-36.875c1.097-1.013 2.506-1.562 3.99-1.562.081 0 .162.001.243.005 1.573.063 3.026.735 4.094 1.893l7.196 7.8c1.888 2.048 4.569 3.223 7.354 3.223s5.466-1.175 7.352-3.221l23.014-24.946c2.191-2.375 5.907-2.524 8.281-.333 2.375 2.191 2.524 5.906.333 8.28l-32.887 35.649c-1.622 1.758-3.829 2.725-6.219 2.725-.007 0-.015 0-.022 0-2.398-.006-4.609-.984-6.227-2.755l-16.857-18.453c-2.181-2.387-2.022-6.112.355-8.305z"/><path d="m496.248 458.77h-49.515l-.152-250.472h13.236c4 0 7.544-2.248 9.248-5.867s1.179-7.782-1.369-10.863l-31.47-38.079c41.566-.885 75.114-34.948 75.114-76.723-.001-42.329-34.437-76.766-76.766-76.766-16.538 0-32.292 5.178-45.558 14.975-3.332 2.461-4.038 7.156-1.578 10.488 2.461 3.334 7.157 4.04 10.489 1.578 10.667-7.877 23.339-12.041 36.647-12.041 34.058 0 61.765 27.708 61.765 61.766s-27.708 61.765-61.765 61.765c-3.976 0-7.861-.392-11.631-1.114l-4.429-5.359c-1.948-2.359-4.82-3.712-7.879-3.713h-.001c-2.336 0-4.56.794-6.35 2.218-18.77-10.61-31.476-30.741-31.476-53.797 0-8.865 1.836-17.419 5.457-25.425 1.707-3.774.031-8.218-3.743-9.925-3.774-1.704-8.217-.03-9.924 3.743-4.505 9.961-6.79 20.595-6.79 31.606 0 27.614 14.666 51.854 36.609 65.38l-40.843 49.421c-2.548 3.083-3.073 7.246-1.369 10.864 1.704 3.619 5.247 5.867 9.247 5.867h13.237l-.153 250.472h-38.901l-.153-195.652h13.237c3.999 0 7.542-2.248 9.246-5.865 1.704-3.619 1.181-7.782-1.368-10.866l-49.184-59.514c-1.949-2.356-4.82-3.708-7.879-3.708-3.058 0-5.929 1.353-7.877 3.71l-49.183 59.512c-2.548 3.083-3.072 7.246-1.369 10.865 1.704 3.618 5.247 5.866 9.247 5.866h13.236l-.152 195.652h-38.901v-92.966c0-6.147-5.001-11.148-11.149-11.148h-49.899c-6.147 0-11.149 5.001-11.149 11.148v22.203c0 4.143 3.358 7.5 7.5 7.5s7.5-3.357 7.5-7.5v-18.352h42.197v89.114h-42.197v-36.091c0-4.143-3.358-7.5-7.5-7.5s-7.5 3.357-7.5 7.5v36.091h-38.901v-45.15c0-6.147-5.001-11.149-11.149-11.149h-49.898c-6.147 0-11.149 5.002-11.149 11.149v45.15h-25.986c-8.174 0-14.824 6.65-14.824 14.824v23.353c0 8.174 6.65 14.823 14.824 14.823h480.993c8.174 0 14.824-6.649 14.824-14.823v-23.353c0-8.172-6.65-14.822-14.824-14.822zm-124.646-265.472 39.032-47.229 39.032 47.229h-7.865c-5.635 0-10.22 4.585-10.22 10.221v41.47h-41.892v-41.47c0-5.636-4.585-10.221-10.221-10.221zm60.131 66.69v198.782h-42.197v-198.782zm-171.23-11.871 39.033-47.23 39.033 47.23h-7.866c-5.636 0-10.221 4.585-10.221 10.221v41.47h-41.892v-41.47c0-5.636-4.585-10.221-10.22-10.221zm60.132 66.691v143.906h-42.197v-143.906zm-264.394 102.662h42.197v41.3h-42.197zm439.831 79.3h-480.642v-23h480.641v23z"/></g></g></svg>