<svg id="Capa_1" enable-background="new 0 0 511.893 511.893" height="512" viewBox="0 0 511.893 511.893" width="512" xmlns="http://www.w3.org/2000/svg"><g><g><g><path d="m415.057 9.658-57.538 69.622c-1.715 2.075-.239 5.21 2.453 5.21h21.077c1.758 0 3.183 1.425 3.183 3.183v85.545c0 1.758 1.425 3.183 3.183 3.183h60.192c1.758 0 3.183-1.425 3.183-3.183v-85.545c0-1.758 1.425-3.183 3.183-3.183h21.077c2.692 0 4.168-3.135 2.453-5.21l-57.539-69.622c-1.273-1.541-3.634-1.541-4.907 0z" fill="#ee6161"/></g></g><g><g><path d="m475.044 84.49h-21.074c-1.759 0-3.181 1.421-3.181 3.181v85.545c0 1.759-1.421 3.181-3.181 3.181h-18.896c.924-.557 1.531-1.561 1.531-2.714v-95.485c0-1.759 1.431-3.181 3.181-3.181h10.596c2.694 0 4.165-3.141 2.455-5.209l-41.729-47.673 10.309-12.475c1.272-1.541 3.638-1.541 4.91 0l57.534 69.621c1.719 2.078.239 5.209-2.455 5.209z" fill="#e94444"/></g></g><g><path d="m333.491 387.456 92.201-39.616c10.037-3.882 21.388.411 26.344 9.964 5.982 11.532.222 25.679-12.114 29.753l-48.735 16.803-74.892 23.627v-33.845z" fill="#af6837"/></g><g><path d="m454.418 367.502c0 8.757-5.497 17.087-14.493 20.059l-48.737 16.799-74.889 23.628v-18.508l67.931-21.421 48.737-16.809c8.777-2.903 14.215-10.885 14.473-19.403 1.829 1.65 3.4 3.648 4.592 5.954 1.62 3.121 2.386 6.441 2.386 9.701z" fill="#9b592d"/></g><g><g><circle cx="291.955" cy="251.269" fill="#57be92" r="147.346"/></g><g><path d="m439.298 251.268c0 78.582-61.512 142.794-139.008 147.098 65.143-17.2 113.163-76.54 113.163-147.098 0-70.557-48.02-129.898-113.163-147.097 77.497 4.303 139.008 68.515 139.008 147.097z" fill="#22b27f"/></g><g><g><path d="m292.612 398.587c38.516-30.807 64.098-85.276 64.098-147.317s-25.592-116.51-64.108-147.317h-1.293c-38.517 30.807-64.109 85.275-64.109 147.316s25.582 116.51 64.098 147.317h1.314z" fill="#60b7ff"/></g></g><g><g><path d="m356.71 251.268c0 62.041-25.587 116.51-64.096 147.317h-1.318c-4.252-3.398-8.335-7.082-12.263-11.036 31.583-31.88 51.832-81.089 51.832-136.281s-20.25-104.389-51.832-136.268c3.928-3.954 8.025-7.65 12.276-11.049h1.292c38.522 30.807 64.109 85.276 64.109 147.317z" fill="#26a6fe"/></g></g></g><g><path d="m64.099 503.391h-41.191c-8.51 0-15.408-6.898-15.408-15.408v-120.374c0-8.51 6.898-15.408 15.408-15.408h41.191c8.51 0 15.408 6.898 15.408 15.408v120.375c0 8.509-6.898 15.407-15.408 15.407z" fill="#60b7ff"/></g><g><path d="m79.503 367.612v120.376c0 8.509-6.899 15.407-15.407 15.407h-19.88c8.509 0 15.407-6.898 15.407-15.407v-120.376c0-8.509-6.899-15.407-15.407-15.407h19.88c8.508-.001 15.407 6.898 15.407 15.407z" fill="#26a6fe"/></g><g><path d="m499.575 392.186c-7.995-12.38-23.77-17.162-37.293-11.305l-138.274 45.667-.252-.02c8.341-2.833 14.798-10.178 16.041-19.502 1.747-13.1-7.457-25.136-20.557-26.882-25.29-4.976-50.581-9.952-75.871-14.929-10.116-1.99-44.958-9.532-51.895-9.087-14.142.906-26.797 11.296-37.708 19.039-24.519 17.399-49.144 12.202-74.258 3.701v92.509l60.505-3.532c12.811-1.094 25.705.642 37.77 5.086 0 0 57.856 21.31 57.889 21.322 39.589 14.581 74.429-2.447 111.19-14.833 46.577-15.693 94.279-27.807 140.74-43.861 16.15-7.974 21.745-28.242 11.973-43.373z" fill="#d88a55"/></g><g><path d="m487.598 435.563c-46.461 16.053-94.164 28.161-140.733 43.856-36.769 12.385-71.609 29.413-111.191 14.831-.04-.01-57.892-21.322-57.892-21.322-12.067-4.443-24.96-6.173-37.773-5.079l-60.506 3.529v-19.791l60.506-3.539c12.813-1.093 27.564-1.213 39.632 3.231 0 0 57.852 21.312 57.892 21.322 39.582 14.582 72.563-.586 109.332-12.972 46.57-15.696 94.273-27.813 140.733-43.866 7.445-3.678 12.644-9.96 15.129-17.147 4.901 13.995-1.183 30.048-15.129 36.947z" fill="#c57a44"/></g><path d="m505.875 388.118c-9.63-14.912-28.078-20.979-44.545-14.928 1.287-6.347.399-12.987-2.637-18.839-6.728-12.969-22.079-18.773-35.706-13.506-.086.033-.171.068-.256.104 0 0-6.733 2.893-6.732 2.891 30.775-44.907 40.208-98.725 19.673-149.971-1.352-3.375-2.829-6.698-4.414-9.968h16.348c5.891 0 10.683-4.793 10.683-10.684v-32.769c0-4.143-3.357-7.5-7.5-7.5s-7.5 3.357-7.5 7.5v28.452h-20.348c-5.975-9.507-12.966-18.374-20.861-26.37-3.301-3.343-6.76-6.526-10.348-9.557v-45.301c0-5.891-4.792-10.683-10.683-10.683h-11.908l48.37-58.527 48.369 58.528h-11.908c-5.891 0-10.683 4.792-10.683 10.683v18.024c0 4.143 3.357 7.5 7.5 7.5s7.5-3.357 7.5-7.5v-13.707h16.759c4.181 0 7.884-2.35 9.665-6.132s1.233-8.133-1.43-11.355l-57.538-69.625c-2.037-2.463-5.038-3.876-8.233-3.876-3.196 0-6.197 1.413-8.235 3.878l-57.538 69.622c-2.663 3.223-3.211 7.574-1.43 11.355 1.78 3.782 5.483 6.132 9.664 6.132h16.76v29.789c-2.1-1.38-4.221-2.726-6.386-4.002-23.67-13.956-50.917-21.353-78.391-21.353-16.23 0-32.442 2.544-47.875 7.574-63.069 20.558-106.97 80.929-106.97 147.271 0 28.815 8.19 57.397 23.425 81.784 4.338 6.943 9.204 13.524 14.552 19.676-11.698 5.344-20.926 14.651-33.033 20.888-6.919 3.564-14.376 5.36-22.152 5.53-3.695.081-32.894-2.4-32.894-5.734v-5.804c0-12.632-10.276-22.908-22.908-22.908h-41.193c-12.632.001-22.908 10.277-22.908 22.909v120.375c0 12.631 10.276 22.907 22.908 22.907h41.191c12.631 0 22.908-10.276 22.908-22.907v-9.531l15.25-.89c4.135-.241 7.292-3.789 7.05-7.925-.242-4.135-3.799-7.308-7.924-7.05l-14.375.84s0-74.105 0-74.29c0 4.189 33.777 5.163 37.342 4.843 12.244-1.098 23.782-5.006 33.6-12.425 9.766-7.38 21.16-17.135 34.004-17.943 4.718-.297 32.245 5.342 42.601 7.466 3.03.621 5.581 1.145 7.367 1.495l75.871 14.93c.151.029.304.055.457.075 8.979 1.197 15.311 9.478 14.113 18.457-.579 4.35-2.818 8.214-6.305 10.879-3.486 2.667-7.803 3.813-12.151 3.234-.066-.009-.133-.017-.2-.023l-66.267-7.029c-4.125-.433-7.813 2.547-8.249 6.667-.437 4.119 2.548 7.813 6.667 8.249l66.174 7.02c4.502.583 8.978.193 13.194-1.091.186-.031 139.831-46.089 140.037-46.178 10.204-4.419 21.981-.847 28.013 8.492 3.498 5.417 4.521 12.089 2.805 18.305-1.677 6.074-5.822 11.182-11.406 14.075-24.044 8.293-117.91 36.165-140.207 43.678-5.134 1.729-10.274 3.564-15.246 5.339-30.538 10.899-59.383 21.195-90.957 9.564-.895-.331-7.34-2.705-57.889-21.323-12.977-4.778-27.118-6.689-40.898-5.529l-3.346.195c-4.135.241-7.291 3.789-7.05 7.925.242 4.135 3.776 7.296 7.925 7.05l3.444-.201c.067-.004.134-.009.201-.015 11.635-.993 23.58.614 34.54 4.651 0 0 56.936 20.97 57.889 21.322 11.734 4.321 23.064 6.063 34.094 6.063 23.45-.001 45.522-7.877 67.09-15.575 4.909-1.752 9.986-3.563 14.993-5.251 22.039-7.426 116.29-35.412 140.795-43.88.298-.103.589-.225.871-.364 9.614-4.747 16.765-13.397 19.617-23.732 2.851-10.337 1.151-21.43-4.666-30.435zm-433.868 99.866c0 4.36-3.547 7.907-7.908 7.907h-41.191c-4.36 0-7.908-3.547-7.908-7.907v-120.375c0-4.36 3.547-7.908 7.908-7.908h41.191c4.36 0 7.908 3.548 7.908 7.908zm343.403-171.122c-16.029-12.752-34.287-22.748-54.02-29.725 1.853-11.667 2.82-23.667 2.82-35.868 0-12.197-.966-24.193-2.818-35.858 19.74-6.98 38.004-16.979 54.036-29.739 10.443 19.573 16.373 41.903 16.373 65.596-.001 23.696-5.946 46.019-16.391 65.594zm-7.822-144.141c-14.515 11.835-31.103 21.182-49.091 27.793-7.807-33.897-23.356-64.272-45.046-87.419 39.032 6.047 72.778 28.294 94.137 59.626zm-58.379 78.548c0 10.661-.787 21.148-2.294 31.362-17.523-4.731-36-7.19-54.96-7.19-18.963 0-37.44 2.458-54.963 7.185-1.509-10.211-2.291-20.697-2.291-31.356 0-10.656.783-21.14 2.292-31.349 17.524 4.729 36.001 7.188 54.963 7.188 18.963 0 37.44-2.46 54.965-7.191 1.506 10.209 2.288 20.694 2.288 31.351zm-57.233-138.068c25.702 22.257 43.917 54.774 52.205 91.912-16.604 4.599-34.169 6.995-52.227 6.995-18.056 0-35.62-2.395-52.223-6.992 8.297-37.143 26.529-69.658 52.245-91.915zm-21.494-.13c-21.703 23.152-37.261 53.537-45.07 87.448-17.993-6.61-34.585-15.955-49.104-27.788 21.362-31.354 55.122-53.616 94.174-59.66zm-102.009 203.779c-10.439-19.569-16.364-41.895-16.364-65.581s5.925-46.012 16.362-65.583c16.037 12.755 34.303 22.752 54.047 29.73-1.852 11.663-2.818 23.658-2.818 35.853 0 12.197.958 24.197 2.81 35.861-19.742 6.976-38.005 16.969-54.037 29.72zm69.094 39.534c-24.301-4.983-39.766-7.883-45.902-7.766-5.64-5.809-10.774-12.109-15.348-18.82 14.513-11.826 31.099-21.165 49.087-27.771 4.676 20.311 12.129 39.358 22.021 56.342-.001 0-6.876-1.373-9.858-1.985zm72.375 14.287-42.177-8.299c-13.082-18.672-22.649-40.833-28.034-64.943 16.602-4.594 34.166-6.988 52.224-6.988s35.624 2.396 52.229 6.996c-6.2 27.787-17.953 52.986-34.242 73.234zm16.234 3.432c15.1-20.585 26.145-45.219 32.328-72.065 17.979 6.609 34.558 15.95 49.068 27.778-16.458 24.145-40.255 42.907-68.176 53.007-3.527-3.916-8.043-6.963-13.22-8.72zm119.726-1.454c-1.505 3.697-4.542 6.535-8.424 7.817l-90.831 30.706c.245-1.034.442-2.086.584-3.154.544-4.082.267-8.085-.69-11.852 15.551-5.878 29.914-14.19 42.625-24.469l39.347-16.906c6.455-2.428 13.685.336 16.865 6.467 1.838 3.542 2.03 7.695.524 11.391z"/></g></svg>