<svg id="Capa_1" enable-background="new 0 0 512 512" height="512" viewBox="0 0 512 512" width="512" xmlns="http://www.w3.org/2000/svg"><g><g><g><path d="m57.284 128.873c-37.657 21.497-56.871 65.055-47.357 107.359l26.544 118.036h69.74 96.284v-118.036c-.715-46.266-9.7-85.862-47.357-107.359-30.321-17.31-67.533-17.31-97.854 0z" fill="#f79595"/></g><g><path d="m454.717 128.873c37.656 21.497 56.87 65.055 47.357 107.359l-26.544 118.036h-69.74-96.284v-118.036c.715-46.266 9.7-85.862 47.357-107.359 30.321-17.31 67.532-17.31 97.854 0z" fill="#f79595"/></g></g><g><g><path d="m202.498 236.23v118.038h-20.798v-118.038c-.718-46.264-9.702-85.864-47.357-107.358-12.042-6.884-25.176-11.023-38.528-12.437 3.452-.364 6.926-.551 10.399-.551 16.877 0 33.765 4.326 48.927 12.988 37.655 21.495 46.639 61.094 47.357 107.358z" fill="#f47c7c"/></g><g><path d="m502.069 236.23-26.538 118.038h-20.798l26.538-118.038c9.515-42.303-9.692-85.864-47.357-107.358-12.032-6.884-25.165-11.023-38.528-12.437 3.452-.364 6.926-.551 10.399-.551 16.888 0 33.776 4.326 48.927 12.988 37.666 21.495 56.873 65.056 47.357 107.358z" fill="#f47c7c"/></g></g><path d="m57.283 128.873h.01z"/><g><path d="m496.642 458.364v26.705c0 3.554-2.881 6.434-6.434 6.434h-468.415c-3.554 0-6.434-2.881-6.434-6.434v-26.705c0-3.553 2.881-6.434 6.434-6.434h468.414c3.554 0 6.435 2.881 6.435 6.434z" fill="#fac600"/></g><g><path d="m496.641 458.361v26.704c0 3.557-2.88 6.437-6.437 6.437h-20.714c3.556 0 6.437-2.88 6.437-6.437v-26.704c0-3.546-2.88-6.426-6.437-6.426h20.715c3.556 0 6.436 2.881 6.436 6.426z" fill="#e8b800"/></g><g><path d="m36.583 354.268h438.834v97.72h-438.834z" fill="#9c9c9c"/></g><g><path d="m454.663 354.268h20.754v97.72h-20.754z" fill="#838383"/></g><g><path d="m207.073 128.873c-37.656 21.497-56.87 65.055-47.357 107.359l26.544 118.036h69.74 69.74l26.544-118.036c9.513-42.304-9.7-85.862-47.357-107.359-30.321-17.31-67.533-17.31-97.854 0z" fill="#ee6161"/></g><g><path d="m352.284 236.23-26.548 118.038h-24.261l26.548-118.038c9.515-42.303-9.702-85.864-47.357-107.358-11.522-6.583-24.042-10.659-36.802-12.24 4.024-.499 8.08-.749 12.136-.749 16.888 0 33.765 4.326 48.927 12.988 37.654 21.496 56.872 65.057 47.357 107.359z" fill="#e94444"/></g><g><path d="m482.683 49.233c-3.627-1.751-7.759-2.621-12.119-2.33-11.638.776-21.208 10.041-22.335 21.65-.01.099-.019.198-.027.297-.959 11.263-5.552 21.906-13.398 30.044l-113.224 117.439c-7.811 7.061-20.295 3.854-23.736-6.096l-20.655-88.034c-2.98-12.699.028-26.235 8.657-36.017 6.164-6.987 9.904-16.163 9.904-26.214 0-34.34-42.551-52.522-67.356-28.468-7.66 7.428-12.05 17.799-12.05 28.468 0 10.051 3.74 19.226 9.904 26.214 8.629 9.782 11.637 23.318 8.657 36.017l-20.655 88.034c-3.441 9.951-15.925 13.157-23.736 6.096l-113.222-117.438c-7.846-8.138-12.439-18.78-13.398-30.044-.008-.099-.017-.198-.027-.297-1.127-11.609-10.697-20.874-22.335-21.65-4.36-.291-8.492.579-12.119 2.33-8.071 3.896-13.639 12.158-13.639 21.72 0 8.034 3.931 15.146 9.973 19.524 9.577 6.939 16.16 17.258 18.63 28.823l50.181 234.967h322.98l50.181-234.967c2.47-11.566 9.053-21.885 18.63-28.823 6.043-4.378 9.973-11.491 9.973-19.524 0-9.563-5.568-17.825-13.639-21.721z" fill="#fac600"/></g><g><path d="m496.325 70.955c0 8.029-3.935 15.14-9.977 19.524-9.577 6.941-16.159 17.257-18.626 28.822l-50.184 234.962h-20.903l50.174-234.962c2.477-11.565 9.058-27.913 18.636-34.854 6.042-4.374 9.977-11.495 9.977-19.524 0-6.971-2.966-13.253-7.7-17.647.929-.18 1.878-.31 2.846-.37 4.354-.289 8.489.579 12.114 2.327 8.07 3.895 13.643 12.154 13.643 21.722z" fill="#e8b800"/></g><g><path d="m249.954 233.05c-5.101 11.739-14.041 26.775-29.019 37.755-3.533 2.59-3.533 7.948 0 10.538 14.978 10.981 23.918 26.017 29.019 37.755 2.294 5.279 9.798 5.279 12.092 0 5.101-11.738 14.041-26.775 29.019-37.755 3.533-2.59 3.533-7.948 0-10.538-14.978-10.981-23.918-26.017-29.019-37.755-2.294-5.279-9.798-5.279-12.092 0z" fill="#57be92"/></g><g><path d="m291.064 281.339c-14.98 10.986-23.919 26.026-29.022 37.76-2.287 5.283-9.797 5.283-12.084 0-2.057-4.734-4.734-10.007-8.189-15.33 5.093-7.88 11.884-15.879 20.823-22.431 3.535-2.586 3.535-7.94 0-10.536-8.938-6.551-15.729-14.551-20.823-22.431 3.455-5.313 6.132-10.586 8.189-15.32 2.287-5.283 9.797-5.283 12.084 0 5.103 11.735 14.042 26.775 29.022 37.75 3.535 2.598 3.535 7.951 0 10.538z" fill="#22b27f"/></g><g><g><path d="m139.979 249.963c-1.33 8.59-4.615 20.009-12.565 29.802-1.875 2.31-.953 5.83 1.814 6.924 11.731 4.635 20.194 12.975 25.566 19.809 2.416 3.073 7.346 1.781 7.945-2.082 1.33-8.59 4.615-20.009 12.565-29.802 1.875-2.31.953-5.83-1.814-6.924-11.731-4.635-20.194-12.975-25.566-19.809-2.416-3.073-7.347-1.781-7.945 2.082z" fill="#57be92"/></g><g><path d="m372.021 249.963c1.33 8.59 4.615 20.009 12.565 29.802 1.875 2.31.953 5.83-1.815 6.924-11.731 4.635-20.194 12.975-25.566 19.809-2.416 3.073-7.346 1.781-7.945-2.082-1.33-8.59-4.615-20.009-12.565-29.802-1.875-2.31-.953-5.83 1.814-6.924 11.731-4.635 20.194-12.975 25.566-19.809 2.418-3.073 7.348-1.781 7.946 2.082z" fill="#57be92"/></g></g><g><g><path d="m175.306 274.617c-7.95 9.787-11.235 21.202-12.564 29.801-.599 3.855-5.533 5.153-7.95 2.077-1.957-2.486-4.324-5.183-7.111-7.82 1.987-6.122 5.083-12.643 9.897-18.566 1.878-2.317.949-5.832-1.818-6.931-7.46-2.946-13.592-7.39-18.456-11.984 1.318-4.005 2.147-7.84 2.676-11.235.599-3.865 5.523-5.153 7.94-2.077 5.373 6.831 13.832 15.17 25.566 19.804 2.769 1.099 3.698 4.615 1.82 6.931z" fill="#22b27f"/></g><g><path d="m382.774 286.692c-11.735 4.634-20.193 12.973-25.566 19.804-2.417 3.076-7.35 1.778-7.95-2.077-.489-3.176-1.248-6.751-2.417-10.476 4.824-4.514 10.876-8.848 18.206-11.745 2.766-1.099 3.685-4.614 1.818-6.931-5.013-6.162-8.169-12.983-10.147-19.325 2.896-2.716 5.343-5.493 7.36-8.059 2.417-3.076 7.34-1.788 7.94 2.077 1.338 8.589 4.614 20.014 12.573 29.801 1.868 2.317.949 5.832-1.817 6.931z" fill="#22b27f"/></g></g><g><g><circle cx="89.166" cy="403.128" fill="#fee45a" r="17.227"/></g><g><circle cx="172.583" cy="403.128" fill="#fee45a" r="17.227"/></g><g><circle cx="256" cy="403.128" fill="#fee45a" r="17.227"/></g><g><circle cx="339.417" cy="403.128" fill="#fee45a" r="17.227"/></g><g><circle cx="422.834" cy="403.128" fill="#fee45a" r="17.227"/></g></g><g><g><path d="m106.396 403.129c0 9.517-7.72 17.227-17.227 17.227-5.153 0-9.787-2.267-12.943-5.852 8.908-.659 15.939-8.089 15.939-17.177 0-4.364-1.618-8.349-4.294-11.375.429-.03.859-.05 1.298-.05 9.508 0 17.227 7.709 17.227 17.227z" fill="#fed402"/></g><g><path d="m189.807 403.129c0 9.517-7.71 17.227-17.227 17.227-5.153 0-9.777-2.267-12.933-5.852 8.908-.659 15.929-8.099 15.929-17.177 0-4.364-1.618-8.349-4.284-11.375.429-.03.859-.05 1.288-.05 9.517 0 17.227 7.709 17.227 17.227z" fill="#fed402"/></g><g><path d="m273.227 403.129c0 9.517-7.71 17.227-17.227 17.227-5.153 0-9.787-2.267-12.933-5.852 8.908-.659 15.929-8.099 15.929-17.177 0-4.364-1.618-8.349-4.284-11.375.429-.03.859-.05 1.288-.05 9.518 0 17.227 7.709 17.227 17.227z" fill="#fed402"/></g><g><path d="m356.648 403.129c0 9.517-7.72 17.227-17.227 17.227-5.153 0-9.787-2.267-12.943-5.852 8.908-.659 15.939-8.089 15.939-17.177 0-4.364-1.618-8.349-4.294-11.375.429-.03.859-.05 1.298-.05 9.507 0 17.227 7.709 17.227 17.227z" fill="#fed402"/></g><g><path d="m440.058 403.129c0 9.517-7.71 17.227-17.227 17.227-5.153 0-9.777-2.267-12.933-5.852 8.908-.659 15.929-8.099 15.929-17.177 0-4.364-1.618-8.349-4.284-11.375.429-.03.859-.05 1.288-.05 9.518 0 17.227 7.709 17.227 17.227z" fill="#fed402"/></g></g><g><path d="m295.494 264.764c-13.948-10.225-22.152-24.514-26.578-34.7-2.234-5.142-7.304-8.464-12.916-8.464s-10.681 3.323-12.916 8.464c-4.427 10.186-12.631 24.475-26.578 34.7-3.576 2.622-5.711 6.85-5.711 11.31s2.135 8.689 5.711 11.31c13.948 10.225 22.152 24.514 26.578 34.7 2.234 5.142 7.304 8.464 12.916 8.464s10.681-3.323 12.916-8.464c4.427-10.186 12.631-24.475 26.578-34.7 3.576-2.622 5.711-6.85 5.711-11.31s-2.134-8.689-5.711-11.31zm-39.494 49.498c-5.223-11.462-14.422-26.689-29.602-38.188 15.182-11.5 24.379-26.725 29.602-38.188 5.223 11.463 14.422 26.689 29.602 38.188-15.182 11.501-24.378 26.725-29.602 38.188z"/><path d="m176.243 260.723c-10.424-4.119-17.952-11.775-22.431-17.471-2.944-3.746-7.832-5.381-12.44-4.177-4.613 1.208-8.065 5.031-8.795 9.741 0 0 0 0-.001.001-1.109 7.161-3.914 17.525-10.977 26.226-2.379 2.93-3.226 6.869-2.265 10.537.961 3.669 3.63 6.687 7.141 8.074 10.424 4.119 17.952 11.775 22.431 17.471 2.302 2.928 5.787 4.569 9.403 4.569 1.01 0 2.031-.129 3.037-.392 4.613-1.208 8.066-5.031 8.796-9.742 1.109-7.161 3.914-17.525 10.977-26.226 2.379-2.93 3.226-6.869 2.265-10.537s-3.631-6.686-7.141-8.074zm-19.685 36.303c-5.068-5.491-12.035-11.489-20.926-15.716 5.675-8.045 8.805-16.688 10.527-23.959 5.068 5.491 12.035 11.489 20.926 15.716-5.675 8.045-8.804 16.69-10.527 23.959z"/><path d="m379.424 248.817c-.001-.001-.001-.001 0 0-.731-4.711-4.183-8.534-8.796-9.742-4.61-1.208-9.495.431-12.439 4.176-4.479 5.698-12.008 13.354-22.432 17.472-3.511 1.388-6.18 4.405-7.141 8.074-.962 3.668-.114 7.607 2.264 10.536 7.064 8.702 9.869 19.066 10.979 26.228.73 4.71 4.182 8.533 8.795 9.741 1.008.264 2.027.392 3.037.392 3.615 0 7.101-1.641 9.402-4.568 4.479-5.698 12.008-13.354 22.432-17.472 3.511-1.388 6.18-4.405 7.141-8.074.962-3.668.114-7.607-2.264-10.536-7.064-8.702-9.869-19.066-10.978-26.227zm-23.982 48.209c-1.722-7.27-4.852-15.914-10.527-23.959 8.891-4.227 15.858-10.225 20.926-15.716 1.722 7.27 4.852 15.914 10.527 23.959-8.891 4.227-15.859 10.225-20.926 15.716z"/><path d="m509.381 237.875c5.022-22.332 2.793-45.205-6.445-66.148-6.895-15.631-17.229-29.09-30.29-39.634l2.398-11.228c2.11-9.878 7.685-18.516 15.698-24.322 8.184-5.928 13.07-15.494 13.07-25.59 0-12.051-7.016-23.223-17.874-28.466-4.902-2.365-10.388-3.42-15.873-3.057-15.226 1.015-27.819 13.225-29.291 28.393l-.036.393c-.827 9.713-4.849 18.761-11.327 25.48l-14.631 15.176c-21.141-1.781-42.721 2.699-61.633 13.496-8.416 4.804-15.682 10.548-21.906 17.265-6.658-6.675-14.225-12.484-22.601-17.265-7.96-4.544-16.395-7.964-25.07-10.276.105-7.767 2.843-15.225 7.893-20.95 7.595-8.61 11.777-19.678 11.777-31.168 0-18.985-11.106-35.479-28.985-43.046-17.854-7.556-37.427-4.033-51.075 9.201-9.104 8.827-14.326 21.164-14.326 33.845 0 11.49 4.182 22.558 11.777 31.169 5.045 5.72 7.782 13.17 7.892 20.929-8.707 2.316-17.176 5.736-25.165 10.296-8.371 4.779-15.935 10.584-22.59 17.254-6.223-6.718-13.502-12.449-21.917-17.254-18.887-10.781-40.434-15.269-61.548-13.507l-14.62-15.164c-6.478-6.72-10.5-15.769-11.323-25.431l-.039-.436c-1.473-15.176-14.066-27.385-29.292-28.4-5.484-.362-10.971.691-15.874 3.058-10.857 5.241-17.872 16.415-17.872 28.465 0 10.095 4.885 19.662 13.069 25.589 8.015 5.807 13.591 14.445 15.699 24.323l2.386 11.173c-13.097 10.553-23.465 24.027-30.374 39.689-9.238 20.943-11.467 43.816-6.445 66.148l26.474 117.723v88.842h-7.3c-7.677 0-13.924 6.247-13.924 13.924v26.705c0 7.678 6.247 13.925 13.924 13.925h72.088c4.137 0 7.49-3.353 7.49-7.49s-3.353-7.49-7.49-7.49h-71.031v-24.594h466.302v24.594h-360.651c-4.137 0-7.49 3.353-7.49 7.49s3.353 7.49 7.49 7.49h361.707c7.677 0 13.924-6.247 13.924-13.925v-26.705c0-7.677-6.247-13.924-13.924-13.924h-7.3v-88.842zm-148.805-102.497c12.394-7.076 26.124-10.99 40.002-11.774l-47.118 48.872c-.107-.249-.204-.5-.313-.749-3.266-7.404-7.316-14.312-12.047-20.667 5.47-6.189 11.925-11.372 19.476-15.682zm-59.363 0c17.074 9.747 30.293 24.406 38.228 42.395.955 2.164 1.805 4.356 2.582 6.565l-25.627 26.581c-1.804 1.541-4.146 2.086-6.459 1.491-2.279-.585-4.05-2.152-4.903-4.322l-18.647-79.47c5.094 1.79 10.06 4.039 14.826 6.76zm-90.426 0c4.797-2.739 9.798-4.992 14.927-6.786l-18.653 79.496c-.852 2.17-2.624 3.736-4.903 4.322-2.314.597-4.655.05-6.459-1.491l-25.701-26.658c.771-2.183 1.617-4.349 2.561-6.488 7.935-17.989 21.154-32.648 38.228-42.395zm-59.363 0c7.55 4.31 14.006 9.493 19.474 15.684-4.73 6.354-8.779 13.261-12.045 20.665-.099.224-.191.451-.288.675l-47.046-48.797c13.845.799 27.54 4.713 39.905 11.773zm-134.19 99.211c-4.314-19.181-2.399-38.828 5.535-56.816 4.867-11.033 11.735-20.8 20.251-28.96l42.279 197.965h-42.835zm450.693 209.851h-423.854v-82.683h423.854zm1.609-97.663h-42.739l28.572-134.249c.733-4.071-1.972-7.966-6.044-8.698-4.066-.732-7.965 1.972-8.699 6.044l-29.148 136.903h-310.861l-48.915-229.041c-2.884-13.506-10.541-25.341-21.561-33.324-4.307-3.12-6.878-8.151-6.878-13.459 0-6.338 3.692-12.215 9.405-14.974 2.609-1.26 5.42-1.801 8.365-1.602 7.994.533 14.606 6.939 15.38 14.921l.018.188c1.117 13.129 6.61 25.42 15.468 34.608l113.224 117.438c.119.123.242.242.37.357 5.538 5.006 13.16 6.888 20.393 5.03 7.231-1.857 13.004-7.179 15.444-14.234.084-.242.155-.488.214-.737l20.656-88.033c3.594-15.318-.269-31.274-10.332-42.682-5.18-5.871-8.031-13.422-8.031-21.259 0-8.652 3.563-17.068 9.773-23.091 11.06-10.724 25.231-10.215 34.808-6.16 9.593 4.06 19.844 13.877 19.844 29.251 0 7.837-2.852 15.388-8.03 21.258-10.064 11.409-13.927 27.365-10.333 42.683l20.656 88.033c.059.25.13.495.214.737 2.439 7.056 8.214 12.377 15.445 14.234 7.229 1.857 14.854-.022 20.393-5.03.127-.115.25-.234.369-.357l113.224-117.438c8.857-9.187 14.35-21.478 15.466-34.584l.021-.232c.772-7.961 7.384-14.367 15.378-14.9 2.938-.195 5.755.342 8.364 1.601 5.714 2.758 9.406 8.636 9.406 14.975 0 5.308-2.571 10.339-6.878 13.459-11.018 7.983-18.675 19.818-21.561 33.324l-12.609 59.042c-.863 4.045 1.715 8.026 5.761 8.89 4.042.858 8.025-1.715 8.89-5.761l6.624-31.014c8.479 8.144 15.321 17.882 20.172 28.88 7.934 17.988 9.848 37.635 5.535 56.816z"/><path d="m89.166 427.845c13.629 0 24.717-11.088 24.717-24.717 0-13.63-11.088-24.718-24.717-24.718-13.63 0-24.718 11.088-24.718 24.718.001 13.629 11.089 24.717 24.718 24.717zm0-34.454c5.369 0 9.736 4.368 9.736 9.737s-4.367 9.736-9.736 9.736-9.737-4.367-9.737-9.736 4.368-9.737 9.737-9.737z"/><path d="m172.583 427.845c13.629 0 24.717-11.088 24.717-24.717 0-13.63-11.088-24.718-24.717-24.718s-24.717 11.088-24.717 24.718c.001 13.629 11.089 24.717 24.717 24.717zm0-34.454c5.369 0 9.736 4.368 9.736 9.737s-4.367 9.736-9.736 9.736-9.736-4.367-9.736-9.736 4.367-9.737 9.736-9.737z"/><path d="m256 427.845c13.629 0 24.717-11.088 24.717-24.717 0-13.63-11.088-24.718-24.717-24.718s-24.717 11.088-24.717 24.718c.001 13.629 11.088 24.717 24.717 24.717zm0-34.454c5.369 0 9.736 4.368 9.736 9.737s-4.367 9.736-9.736 9.736-9.736-4.367-9.736-9.736 4.367-9.737 9.736-9.737z"/><path d="m339.417 427.845c13.629 0 24.717-11.088 24.717-24.717 0-13.63-11.088-24.718-24.717-24.718s-24.717 11.088-24.717 24.718c0 13.629 11.088 24.717 24.717 24.717zm0-34.454c5.369 0 9.736 4.368 9.736 9.737s-4.367 9.736-9.736 9.736-9.736-4.367-9.736-9.736 4.367-9.737 9.736-9.737z"/><path d="m422.834 427.845c13.63 0 24.718-11.088 24.718-24.717 0-13.63-11.088-24.718-24.718-24.718-13.629 0-24.717 11.088-24.717 24.718 0 13.629 11.088 24.717 24.717 24.717zm0-34.454c5.369 0 9.737 4.368 9.737 9.737s-4.368 9.736-9.737 9.736-9.736-4.367-9.736-9.736 4.367-9.737 9.736-9.737z"/></g></g></svg>