<svg id="Capa_1" enable-background="new 0 0 512.333 512.333" height="512" viewBox="0 0 512.333 512.333" width="512" xmlns="http://www.w3.org/2000/svg"><g><g><g><path d="m393.252 85.05c-5.959-6.476-15.662-7.841-23.176-3.26l-45.776 32.636-20.08 11.952c-4.79 2.851-10.668 3.191-15.754.911-8.366-3.75-13.75-12.064-13.75-21.233v-.903h-35.483v.179c0 9.168-5.384 17.482-13.75 21.233l-1.615.724c-5.086 2.28-10.964 1.94-15.754-.911l-20.08-11.952-45.776-32.635c-7.514-4.581-17.217-3.216-23.176 3.26-7.749 8.421-6.039 21.793 3.579 27.993l79.566 56.297c3.895 2.659 6.224 7.07 6.224 11.786v202.947c0 13.413 10.873 24.287 24.287 24.287.4 0 .798-.01 1.193-.029 12.551-.607 22.236-11.343 22.236-23.909v4.613c2.879 10.569 12.711 18.271 24.28 17.876 13.164-.45 23.435-11.622 23.435-24.793v-200.992c0-4.716 2.33-9.127 6.224-11.786l79.565-56.297c9.619-6.201 11.329-19.573 3.581-27.994z" fill="#60b7ff"/></g><g><path d="m389.674 113.041-79.572 56.298c-3.887 2.661-6.22 7.077-6.22 11.792v200.989c0 13.167-10.267 24.341-23.434 24.79-3.509.12-6.848-.498-9.888-1.734 9.031-3.678 15.31-12.759 15.31-23.055v-210.659c0-4.715 2.332-9.121 6.23-11.782l79.562-56.298c8.273-5.333 10.705-15.988 6.27-24.212 5.592-.528 11.303 1.515 15.321 5.881 7.745 8.423 6.04 21.79-3.579 27.99z" fill="#26a6fe"/></g><g><circle cx="256.94" cy="62.392" fill="#fed2a4" r="53.723"/></g><g><path d="m310.66 62.395c0 29.664-24.052 53.716-53.716 53.716-13.546 0-25.916-5.014-35.366-13.297 6.09 2.402 12.719 3.718 19.656 3.718 29.674 0 53.726-24.052 53.726-53.716 0-16.128-7.107-30.591-18.361-40.429 19.947 7.834 34.061 27.271 34.061 50.008z" fill="#ffbd86"/></g></g><g><path d="m351.663 439.455v-43.522c0-3.809-3.087-6.896-6.896-6.896h-177.201c-3.809 0-6.896 3.087-6.896 6.896v43.522c0 3.809-3.087 6.896-6.896 6.896h-139.402c-3.809 0-6.896 3.087-6.896 6.896v43.522c0 3.809 3.087 6.896 6.896 6.896h483.589c3.809 0 6.896-3.087 6.896-6.896v-43.522c0-3.809-3.087-6.896-6.896-6.896h-139.401c-3.809 0-6.897-3.088-6.897-6.896z" fill="#5a5a5a"/></g><g><path d="m504.861 453.249v43.519c0 3.809-3.088 6.898-6.898 6.898h-15.699v-27.045c0-6.66-5.399-12.058-12.058-12.058h-129.077c-6.66 0-12.058-5.399-12.058-12.058v-56.57c0-3.808-3.09-6.898-6.898-6.898h22.597c3.809 0 6.898 3.088 6.898 6.898v43.519c0 3.809 3.088 6.898 6.898 6.898h139.399c3.808-.001 6.896 3.088 6.896 6.897z" fill="#444"/></g><g><path d="m272.008 80.302c-3.295-2.486-7.983-1.829-10.471 1.465-1.104 1.463-2.785 2.302-4.612 2.302-1.818 0-3.496-.833-4.6-2.285-2.499-3.284-7.187-3.923-10.476-1.423-3.286 2.5-3.923 7.189-1.423 10.476 3.956 5.201 9.97 8.185 16.499 8.185 6.465 0 12.651-3.084 16.548-8.248 2.486-3.297 1.831-7.985-1.465-10.472z"/><path d="m497.961 438.875h-59.883c-4.129 0-7.476 3.346-7.476 7.476 0 4.129 3.347 7.476 7.476 7.476h59.304v42.363h-482.43v-42.363h138.822c7.925 0 14.372-6.447 14.372-14.371v-42.942h176.042v42.942c0 7.925 6.448 14.371 14.372 14.371h44.299c4.129 0 7.476-3.346 7.476-7.476 0-4.129-3.347-7.476-7.476-7.476h-43.72v-42.942c0-7.924-6.447-14.371-14.371-14.371h-33.409v-200.435c0-2.248 1.108-4.345 2.963-5.612.034-.023.069-.048.103-.072l79.445-56.211c6.36-4.161 10.556-10.859 11.52-18.404.972-7.603-1.448-15.199-6.637-20.839-8.346-9.071-22.044-10.997-32.569-4.581-.153.093-.303.192-.448.296l-45.526 32.456-19.815 11.794c-2.693 1.603-6.011 1.795-8.872.513-2.193-.983-4.082-2.434-5.577-4.202 19.151-10.353 32.192-30.618 32.192-53.874 0-33.745-27.453-61.198-61.198-61.198s-61.199 27.453-61.199 61.198c0 23.091 12.859 43.231 31.788 53.65-1.416 1.535-3.128 2.816-5.104 3.701l-1.616.724c-2.861 1.281-6.176 1.092-8.873-.514l-19.815-11.794-45.524-32.456c-.146-.104-.295-.203-.449-.297-10.522-6.416-24.221-4.488-32.569 4.582-5.189 5.64-7.608 13.236-6.636 20.839.965 7.545 5.16 14.244 11.52 18.404l14.189 10.04c3.37 2.387 8.037 1.585 10.42-1.784 2.385-3.37 1.586-8.035-1.784-10.42l-14.31-10.125c-.088-.062-.177-.123-.268-.181-2.727-1.758-4.526-4.611-4.937-7.829-.412-3.218.611-6.432 2.807-8.819 3.48-3.783 9.158-4.629 13.584-2.058l45.527 32.458c.167.12.34.232.516.338l20.08 11.951c6.874 4.093 15.335 4.582 22.636 1.309l1.617-.724c5.633-2.525 10.237-6.637 13.403-11.661 4.801 1.214 9.824 1.865 14.997 1.865 5.051 0 9.957-.627 14.656-1.786 3.174 5.319 7.937 9.673 13.812 12.306 7.3 3.272 15.762 2.783 22.636-1.309l20.08-11.952c.177-.105.348-.217.516-.337l45.528-32.459c4.425-2.568 10.102-1.725 13.583 2.06 2.196 2.386 3.22 5.6 2.808 8.818-.411 3.218-2.211 6.071-4.937 7.829-.091.058-.18.119-.268.181l-79.518 56.263c-5.906 4.058-9.429 10.752-9.429 17.922v200.434h-32.764c0-17.236 0-107.252 0-107.252 0-4.129-3.347-7.476-7.476-7.476s-7.476 3.347-7.476 7.476v107.252h-32.764v-200.433c0-7.169-3.524-13.864-9.429-17.922l-36.847-26.071c-3.371-2.389-8.038-1.585-10.42 1.784-2.385 3.371-1.586 8.036 1.784 10.42l36.895 26.105c.034.024.069.049.103.072 1.855 1.266 2.963 3.364 2.963 5.612v200.434h-33.409c-7.925 0-14.371 6.447-14.371 14.371v42.942h-138.824c-7.925.001-14.372 6.448-14.372 14.373v43.522c0 7.925 6.447 14.371 14.372 14.371h483.589c7.925 0 14.373-6.447 14.373-14.371v-43.522c-.001-7.925-6.449-14.372-14.373-14.372zm-241.02-330.236c-25.501 0-46.248-20.746-46.248-46.248 0-25.5 20.746-46.247 46.248-46.247 25.5 0 46.247 20.746 46.247 46.247-.001 25.502-20.747 46.248-46.247 46.248z"/></g></g></svg>