<?xml version="1.0" encoding="iso-8859-1"?>
<!-- Generator: Adobe Illustrator 19.0.0, SVG Export Plug-In . SVG Version: 6.00 Build 0)  -->
<svg xmlns="http://www.w3.org/2000/svg" xmlns:xlink="http://www.w3.org/1999/xlink" version="1.1" id="Capa_1" x="0px" y="0px" viewBox="0 0 384 384" style="enable-background:new 0 0 384 384;" xml:space="preserve">
<circle style="fill:#E05B49;" cx="192" cy="192" r="192"/>
<path style="opacity:0.1;enable-background:new    ;" d="M260.56,83.117l-0.04-0.04c-0.76-0.68-1.76-1.08-2.84-1.08H86.36  c-2.4,0-4.36,1.96-4.36,4.36v171.319c0,1.12,0.44,2.16,1.16,2.92l0.32,0.32L206,383.437  c94.858-6.843,170.578-82.556,177.435-177.409L260.92,83.477L260.56,83.117z"/>
<path style="fill:#64798A;" d="M257.661,82H86.376C83.959,82,82,83.959,82,86.375v25.593h180.036V86.375  C262.036,83.959,260.077,82,257.661,82z"/>
<circle style="fill:#FCD462;" cx="215.828" cy="97" r="4.94"/>
<circle style="fill:#44C4A1;" cx="233.44" cy="97" r="4.94"/>
<circle style="fill:#E56353;" cx="251.08" cy="97" r="4.94"/>
<path style="fill:#FFFFFF;" d="M120.528,111.968c-0.921,0-1.74-0.588-2.035-1.46l-2.408-7.122c-0.295-0.873-1.114-1.46-2.036-1.46  H91.794c-0.921,0-1.74,0.588-2.035,1.46l-2.408,7.122c-0.295,0.872-1.114,1.46-2.036,1.46H82V257.66  c0,2.416,1.959,4.375,4.375,4.375h171.286c2.416,0,4.375-1.958,4.375-4.374V111.968H120.528z"/>
<path style="fill:#EBF0F3;" d="M121.336,108.695h30.502l-1.795-5.309c-0.295-0.873-1.114-1.46-2.036-1.46h-29.04  c0.063,0.145,0.166,0.263,0.217,0.414L121.336,108.695z"/>
<g>
	<path style="fill:#3A556A;" d="M207.736,228.219v62.947c0,5.746,4.487,10.401,10.142,10.764v-73.712H207.736z"/>
	<path style="fill:#3A556A;" d="M291.166,228.219V302c5.983,0,10.834-4.85,10.834-10.834v-62.947H291.166z"/>
</g>
<path style="fill:#64798A;" d="M217.877,228.219v73.712c0.233,0.015,0.455,0.069,0.692,0.069h72.597v-73.781H217.877z"/>
<g>
	<path style="fill:#F6C358;" d="M217.877,245.467v-6.424c-5.654-0.364-10.142-5.018-10.142-10.764v6.424   C207.736,240.449,212.223,245.103,217.877,245.467z"/>
	<path style="fill:#F6C358;" d="M291.166,239.112v6.424c5.983,0,10.834-4.85,10.834-10.834v-6.424   C302,234.262,297.15,239.112,291.166,239.112z"/>
</g>
<path style="fill:#FCD462;" d="M217.877,239.043v6.424c0.233,0.014,0.455,0.069,0.692,0.069h72.597v-6.424h-72.597  C218.332,239.112,218.11,239.058,217.877,239.043z"/>
<g>
	<path style="fill:#F6C358;" d="M217.877,301.93v-6.424c-5.654-0.364-10.142-5.018-10.142-10.764v6.424   C207.736,296.912,212.223,301.567,217.877,301.93z"/>
	<path style="fill:#F6C358;" d="M291.166,295.576V302c5.983,0,10.834-4.85,10.834-10.834v-6.424   C302,290.725,297.15,295.576,291.166,295.576z"/>
</g>
<path style="fill:#FCD462;" d="M217.877,295.506v6.424c0.233,0.014,0.455,0.069,0.692,0.069h72.597v-6.424h-72.597  C218.332,295.576,218.11,295.521,217.877,295.506z"/>
<path style="fill:#2F4859;" d="M291.015,239.052h-72.294c-6.067,0-10.985-4.918-10.985-10.985l0,0  c0-6.067,4.918-10.985,10.985-10.985h72.294c6.067,0,10.985,4.918,10.985,10.985l0,0C302,234.134,297.082,239.052,291.015,239.052z"/>
<path style="fill:#3A556A;" d="M262.036,262.793c0-4.15-3.364-7.514-7.514-7.514c-4.15,0-7.514,3.364-7.514,7.514  c0,2.367,1.117,4.453,2.828,5.83l-2.828,13.195h15.028l-2.827-13.195C260.919,267.246,262.036,265.16,262.036,262.793z"/>
<path style="fill:#EBF0F3;" d="M254.868,164.772c-21.365,0-38.749,17.6-38.749,39.23v24.775h8.685v-24.775  c0-14.737,10.325-27.07,24.013-29.923c1.954-0.408,3.979-0.622,6.051-0.622c2.072,0,4.096,0.214,6.051,0.622  c13.686,2.853,24.012,15.186,24.012,29.923v24.775h8.685v-24.775C293.617,182.371,276.234,164.772,254.868,164.772z"/>
<g>
</g>
<g>
</g>
<g>
</g>
<g>
</g>
<g>
</g>
<g>
</g>
<g>
</g>
<g>
</g>
<g>
</g>
<g>
</g>
<g>
</g>
<g>
</g>
<g>
</g>
<g>
</g>
<g>
</g>
</svg>
