<?xml version="1.0" encoding="iso-8859-1"?>
<!-- Generator: Adobe Illustrator 19.0.0, SVG Export Plug-In . SVG Version: 6.00 Build 0)  -->
<svg xmlns="http://www.w3.org/2000/svg" xmlns:xlink="http://www.w3.org/1999/xlink" version="1.1" id="Capa_1" x="0px" y="0px" viewBox="0 0 384 384" style="enable-background:new 0 0 384 384;" xml:space="preserve">
<circle style="fill:#334D5C;" cx="192" cy="192" r="192"/>
<path style="opacity:0.1;enable-background:new    ;" d="M229.4,83.518c-1-0.961-2.28-1.52-3.68-1.52H113.96  c-2.88,0-5.16,2.319-5.16,5.16v209.68c0,1.479,0.6,2.8,1.6,3.72l83.37,83.398c90.975-0.826,166.796-64.904,185.669-150.399  L273.72,127.837L229.4,83.518z"/>
<path style="fill:#EBF0F3;" d="M225.736,82H113.949c-2.85,0-5.161,2.311-5.161,5.161v209.677c0,2.85,2.311,5.162,5.161,5.162  h156.102c2.85,0,5.161-2.311,5.161-5.162V131.477c0-1.369-0.544-2.682-1.512-3.65l-44.315-44.315  C228.418,82.544,227.105,82,225.736,82z"/>
<path style="fill:#D5D6DB;" d="M233.036,129.339h41.675c-0.253-0.551-0.573-1.075-1.01-1.512l-22.157-22.158l-22.158-22.158  c-0.437-0.437-0.961-0.757-1.512-1.01v41.676C227.874,127.028,230.185,129.339,233.036,129.339z"/>
<path style="fill:#3A556A;" d="M236.039,261.437v6.222h-26.464c11.589-6.05,19.665-17.874,20.443-31.638h5.672v-15.452h-15.451  v15.452h5.453c-0.957,15.006-11.738,27.343-25.966,30.692v-4.616h-15.451v4.616c-14.228-3.349-25.009-15.686-25.966-30.692h5.453  v-15.452H148.31v15.452h5.672c0.778,13.763,8.854,25.587,20.443,31.638h-26.464v-6.222H132.51v15.449h15.451v-4.901h36.313v5.56  h15.451v-5.56h36.313v4.901h15.451v-15.449H236.039z M224.565,231.694v-6.798h6.798v6.798H224.565z M152.636,231.694v-6.798h6.798  v6.798H152.636z M143.635,272.56h-6.798v-6.796h6.798V272.56z M195.399,273.219h-6.798v-6.796h6.798V273.219z M247.164,272.56  h-6.798v-6.796h6.798V272.56z"/>
<polygon style="fill:#F6C358;" points="209.632,186.262 174.368,186.262 173.47,189.098 210.53,189.098 "/>
<polygon style="fill:#FCD462;" points="210.53,189.098 173.47,189.098 167.878,206.771 192,245.896 216.122,206.771 "/>
<path style="fill:#E56353;" d="M159.827,144.903l8.499,38.341c0.391,1.764,1.955,3.018,3.761,3.018h39.825  c1.806,0,3.37-1.255,3.761-3.018l8.5-38.341H159.827z"/>
<polygon style="fill:#D15241;" points="172.469,181.937 207.03,178.099 218.782,149.23 211.532,181.937 "/>
<path style="fill:#DC8744;" d="M197.201,205.667c0-2.872-2.329-5.201-5.201-5.201c-2.872,0-5.201,2.329-5.201,5.201  c0,2.501,1.767,4.587,4.12,5.085v33.39l1.082,1.754l1.082-1.755v-33.388C195.434,210.254,197.201,208.168,197.201,205.667z"/>
<g>
</g>
<g>
</g>
<g>
</g>
<g>
</g>
<g>
</g>
<g>
</g>
<g>
</g>
<g>
</g>
<g>
</g>
<g>
</g>
<g>
</g>
<g>
</g>
<g>
</g>
<g>
</g>
<g>
</g>
</svg>
