<?xml version="1.0" encoding="iso-8859-1"?>
<!-- Generator: Adobe Illustrator 19.0.0, SVG Export Plug-In . SVG Version: 6.00 Build 0)  -->
<svg xmlns="http://www.w3.org/2000/svg" xmlns:xlink="http://www.w3.org/1999/xlink" version="1.1" id="Capa_1" x="0px" y="0px" viewBox="0 0 384 384" style="enable-background:new 0 0 384 384;" xml:space="preserve">
<circle style="fill:#45B39C;" cx="192" cy="192" r="192"/>
<path style="opacity:0.1;enable-background:new    ;" d="M207.712,91.469l-8.627-8.627l-0.006,0.012  c-0.47-0.52-1.132-0.864-1.879-0.864h-10.4c-1.4,0-2.56,1.16-2.56,2.56v6.92H82v14.4l9.52,9.52v118.2H82v14.4l34.607,34.607  l-6.967,19.393l82.001,82.001c0.12,0,0.239,0.009,0.359,0.009c106.039,0,192-85.961,192-192c0-6.587-0.334-13.096-0.982-19.513  L302,91.469H207.712z"/>
<path style="fill:#64798A;" d="M205.569,110.49l-5.81,2.087V84.553c0-1.41-1.142-2.553-2.552-2.553h-10.414  c-1.41,0-2.552,1.143-2.552,2.553v28.024l-5.81-2.087L109.628,302h16.49l58.122-161.781v139.699h15.519V140.219L257.882,302h16.49  L205.569,110.49z"/>
<g>
	<rect x="82" y="91.464" style="fill:#DC8744;" width="220" height="14.412"/>
	<rect x="82" y="233.6" style="fill:#DC8744;" width="220" height="14.412"/>
</g>
<rect x="91.508" y="105.876" style="fill:#EBF0F3;" width="201" height="127.72"/>
<rect x="91.508" y="105.876" style="fill:#E1E6E9;" width="201" height="7.968"/>
<path style="fill:#44C4A1;" d="M137.5,134.917c-19.23,0-34.818,15.589-34.818,34.818c0,9.266,3.643,17.664,9.545,23.903  l25.273-23.903V134.917z"/>
<path style="fill:#FCD462;" d="M176.454,165.599c0-19.229-15.589-34.818-34.818-34.818v34.818H176.454z"/>
<path style="fill:#27A2DB;" d="M113.077,197.774c6.347,6.708,15.309,10.916,25.273,10.916c9.614,0,18.319-3.898,24.62-10.198  l-24.62-24.62L113.077,197.774z"/>
<path style="fill:#E56353;" d="M141.636,170.585l24.62,24.62c6.301-6.3,10.198-15.005,10.198-24.62H141.636z"/>
<path style="fill:#44C4A1;" d="M218.496,130.098h-9.912c-1.148,0-2.078,0.93-2.078,2.078v9.911c0,1.148,0.93,2.078,2.078,2.078  h9.912c1.148,0,2.078-0.93,2.078-2.078v-9.911C220.574,131.028,219.644,130.098,218.496,130.098z"/>
<rect x="229.84" y="134.04" style="fill:#D5D6DB;" width="51.476" height="6.144"/>
<path style="fill:#FCD462;" d="M218.496,151.834h-9.912c-1.148,0-2.078,0.93-2.078,2.078v9.912c0,1.148,0.93,2.078,2.078,2.078  h9.912c1.148,0,2.078-0.93,2.078-2.078v-9.912C220.574,152.764,219.644,151.834,218.496,151.834z"/>
<rect x="229.84" y="155.796" style="fill:#D5D6DB;" width="51.476" height="6.144"/>
<path style="fill:#E56353;" d="M218.496,173.57h-9.912c-1.148,0-2.078,0.93-2.078,2.078v9.912c0,1.148,0.93,2.078,2.078,2.078h9.912  c1.148,0,2.078-0.93,2.078-2.078v-9.912C220.574,174.5,219.644,173.57,218.496,173.57z"/>
<rect x="229.84" y="177.52" style="fill:#D5D6DB;" width="51.476" height="6.144"/>
<path style="fill:#27A2DB;" d="M218.496,195.306h-9.912c-1.148,0-2.078,0.93-2.078,2.078v9.911c0,1.148,0.93,2.078,2.078,2.078  h9.912c1.148,0,2.078-0.93,2.078-2.078v-9.911C220.574,196.236,219.644,195.306,218.496,195.306z"/>
<rect x="229.84" y="199.268" style="fill:#D5D6DB;" width="51.476" height="6.144"/>
<g>
</g>
<g>
</g>
<g>
</g>
<g>
</g>
<g>
</g>
<g>
</g>
<g>
</g>
<g>
</g>
<g>
</g>
<g>
</g>
<g>
</g>
<g>
</g>
<g>
</g>
<g>
</g>
<g>
</g>
</svg>
